<?xml version="1.0" encoding="UTF-8" standalone="no"?><!DOCTYPE svg PUBLIC "-//W3C//DTD SVG 1.1//EN" "http://www.w3.org/Graphics/SVG/1.1/DTD/svg11.dtd"><svg xmlns="http://www.w3.org/2000/svg" version="1.1" width="150" height="116"><path fill="none" stroke="#000000" stroke-width="2" stroke-linecap="round" stroke-linejoin="round" d="M 17 15 c 0.49 -0.14 18.3 -5.48 28 -8 c 8.89 -2.31 17.48 -4.4 26 -6 c 1.92 -0.36 4.24 -0.35 6 0 c 1.31 0.26 3.15 1.05 4 2 c 1.52 1.71 3.2 4.59 4 7 c 1.43 4.29 2.79 9.39 3 14 c 0.43 9.35 -0.1 19.51 -1 29 c -0.42 4.36 -1.71 8.75 -3 13 c -1.04 3.43 -2.47 6.74 -4 10 c -1.15 2.44 -2.36 5.21 -4 7 c -1.76 1.91 -4.6 3.88 -7 5 c -2.3 1.07 -5.36 1.67 -8 2 c -2.56 0.32 -5.57 0.37 -8 0 c -1.64 -0.25 -4.01 -1.01 -5 -2 c -0.99 -0.99 -1.75 -3.36 -2 -5 c -0.37 -2.43 -0.94 -6.02 0 -8 c 1.66 -3.51 5.6 -8.01 9 -11 c 4.64 -4.09 10.49 -7.85 16 -11 c 3.69 -2.11 8.01 -3.74 12 -5 c 2.17 -0.69 5.17 -1.33 7 -1 c 1.29 0.23 3.22 1.82 4 3 c 0.99 1.49 2.11 4.22 2 6 c -0.18 2.94 -1.35 7.33 -3 10 c -2.35 3.8 -6.23 8.32 -10 11 c -6.01 4.27 -13.7 7.67 -21 11 c -8.29 3.79 -16.33 7.01 -25 10 c -12.12 4.17 -33.87 10.2 -36 11 c -0.23 0.09 2.67 0.95 4 1 c 7.74 0.28 16.01 0.83 24 0 c 24.19 -2.52 48.15 -7.72 72 -10 c 7.22 -0.69 14.78 0.18 22 1 c 4.37 0.5 9.1 1.51 13 3 c 2.76 1.05 5.73 3.08 8 5 l 5 6"/></svg>