<?xml version="1.0" encoding="UTF-8" standalone="no"?><!DOCTYPE svg PUBLIC "-//W3C//DTD SVG 1.1//EN" "http://www.w3.org/Graphics/SVG/1.1/DTD/svg11.dtd"><svg xmlns="http://www.w3.org/2000/svg" version="1.1" width="387" height="90"><path fill="none" stroke="#000000" stroke-width="2" stroke-linecap="round" stroke-linejoin="round" d="M 27 1 c 0.24 0.07 9.4 3.39 14 4 c 5.06 0.67 16.28 -0.01 16 0 c -6.16 0.16 -323.79 7.42 -352 9 c -1.25 0.07 8.22 6.41 12 10 c 2.91 2.76 5.77 5.85 8 9 c 1.65 2.34 2.86 5.24 4 8 c 1.21 2.93 2.33 5.98 3 9 c 0.64 2.89 0.82 5.95 1 9 c 0.16 2.7 0.34 5.47 0 8 c -0.31 2.3 -0.92 5.15 -2 7 c -1.05 1.79 -3.11 3.87 -5 5 c -4.42 2.65 -9.93 5.36 -15 7 c -4.99 1.61 -10.66 2.5 -16 3 c -5.25 0.49 -11.85 0.66 -16 0 c -1.1 -0.17 -2.22 -1.89 -3 -3 c -1.48 -2.12 -3.61 -4.77 -4 -7 l 1 -10"/></svg>