<?xml version="1.0" encoding="UTF-8" standalone="no"?><!DOCTYPE svg PUBLIC "-//W3C//DTD SVG 1.1//EN" "http://www.w3.org/Graphics/SVG/1.1/DTD/svg11.dtd"><svg xmlns="http://www.w3.org/2000/svg" version="1.1" width="325" height="191"><path fill="none" stroke="#000000" stroke-width="2" stroke-linecap="round" stroke-linejoin="round" d="M 1 71 c 1.19 -0.77 44.35 -29.24 68 -44 c 11.12 -6.94 21.7 -13.24 33 -19 c 5.73 -2.92 12.22 -5.55 18 -7 c 2.99 -0.75 7.34 -0.71 10 0 c 1.7 0.45 4.34 2.46 5 4 c 1.03 2.41 1.27 6.86 1 10 c -0.36 4.17 -1.47 9.01 -3 13 c -1.7 4.41 -4.27 9.08 -7 13 c -2.48 3.57 -5.8 6.8 -9 10 c -2.53 2.53 -5.19 4.75 -8 7 c -2.28 1.82 -4.55 4.11 -7 5 c -4.35 1.58 -10.24 2.57 -15 3 c -2.2 0.2 -5.05 -0.15 -7 -1 c -2.98 -1.3 -6.44 -3.9 -9 -6 c -0.85 -0.7 -1.99 -3.22 -2 -3 c -0.07 2.25 0.27 23.63 1 36 c 0.99 16.88 2.2 32.22 4 49 c 1.29 12.07 5 34.11 5 35 c 0 0.35 -3.61 -8.53 -5 -13 c -1.64 -5.3 -3.63 -10.76 -4 -16 c -0.6 -8.59 -0.13 -18.65 1 -27 c 0.45 -3.33 2.18 -7.14 4 -10 c 2.64 -4.15 6.28 -8.57 10 -12 c 4.76 -4.4 10.38 -8.63 16 -12 c 5.91 -3.54 12.4 -6.57 19 -9 c 12.52 -4.61 24.86 -8.39 38 -12 c 14.24 -3.91 28.04 -6.44 42 -10 c 1.74 -0.44 5.13 -1.18 5 -2 c -0.31 -1.99 -4.37 -7.81 -7 -11 c -1.86 -2.26 -4.5 -4.38 -7 -6 c -3.03 -1.96 -6.56 -3.55 -10 -5 c -2.92 -1.23 -6.05 -2.56 -9 -3 c -3.42 -0.51 -7.44 -0.36 -11 0 c -2.99 0.3 -6.13 1.04 -9 2 c -3.06 1.02 -6.24 2.38 -9 4 c -2.8 1.65 -5.79 3.79 -8 6 c -1.59 1.59 -2.67 3.9 -4 6 c -1.08 1.7 -2.65 3.35 -3 5 c -0.55 2.55 -0.3 6.05 0 9 c 0.37 3.67 0.8 7.7 2 11 c 1.35 3.7 3.45 7.99 6 11 c 4.46 5.27 10.76 10.95 16 15 c 1.51 1.17 3.98 1.6 6 2 c 2.9 0.58 6.25 1.29 9 1 c 3.17 -0.33 7.01 -1.58 10 -3 c 3.1 -1.47 6.66 -3.66 9 -6 c 2.34 -2.34 4.28 -5.84 6 -9 c 2.28 -4.18 4.97 -9.08 6 -13 c 0.44 -1.67 0.02 -5.69 -1 -6 c -2.03 -0.63 -8.56 0.69 -12 2 c -3.06 1.17 -6.39 3.72 -9 6 c -2.56 2.24 -5.28 5.07 -7 8 c -3.76 6.41 -7.45 13.95 -10 21 c -1.68 4.64 -2.29 9.87 -3 15 c -0.98 7.07 -1.76 14.18 -2 21 c -0.08 2.29 1 4.77 1 7 c 0 1.92 0.07 5.38 -1 6 c -1.94 1.13 -7.69 1.57 -11 1 l -18 -6"/><path fill="none" stroke="#000000" stroke-width="2" stroke-linecap="round" stroke-linejoin="round" d="M 198 129 c 0.09 0.21 3.63 7.89 5 12 c 1.3 3.91 2.38 8.06 3 12 c 0.35 2.23 0 7 0 7"/><path fill="none" stroke="#000000" stroke-width="2" stroke-linecap="round" stroke-linejoin="round" d="M 214 90 c 0.26 -0.09 9.82 -3.56 15 -5 c 7.08 -1.97 13.92 -3.71 21 -5 c 3.95 -0.72 8.33 -1.2 12 -1 c 1.93 0.11 4.86 0.76 6 2 c 2.26 2.45 4.82 7.23 6 11 c 2.01 6.43 2.02 14.47 4 21 c 1.24 4.1 3.71 8.66 6 12 c 1.09 1.59 3.25 3.12 5 4 c 1.99 1 4.69 1.76 7 2 c 3.81 0.4 12 0 12 0"/><path fill="none" stroke="#000000" stroke-width="2" stroke-linecap="round" stroke-linejoin="round" d="M 253 20 c -0.07 0.3 -3.03 11.18 -4 17 c -1.4 8.38 -2.39 16.4 -3 25 c -1.45 20.51 -2.54 39.55 -3 60 c -0.22 9.54 0.11 18.55 1 28 c 1.15 12.25 3.03 24.77 5 36 l 2 4"/><path fill="none" stroke="#000000" stroke-width="2" stroke-linecap="round" stroke-linejoin="round" d="M 300 43 c 0 0.47 -0.39 25.66 0 27 c 0.16 0.55 3.6 -6.5 5 -10 c 3.32 -8.31 5.6 -16.84 9 -25 c 1.6 -3.85 4.97 -11.11 6 -11 c 1.02 0.11 2.4 7.96 3 12 c 0.73 4.91 1.17 10.11 1 15 c -0.15 4.28 -1.02 8.68 -2 13 c -1.39 6.14 -3.09 12.04 -5 18 c -0.78 2.43 -1.91 6.46 -3 7 c -0.83 0.42 -3.65 -1.78 -5 -3 c -1.81 -1.63 -3.6 -3.89 -5 -6 c -1.21 -1.81 -2.27 -3.94 -3 -6 c -0.9 -2.53 -2.14 -5.64 -2 -8 c 0.16 -2.72 1.75 -6.29 3 -9 c 0.66 -1.43 1.78 -3.19 3 -4 c 2.4 -1.6 6.69 -3.61 9 -4 c 0.85 -0.14 2.37 1.16 3 2 c 1.18 1.57 2.87 4.19 3 6 c 0.16 2.23 -1.13 5.4 -2 8 c -0.8 2.4 -1.7 4.97 -3 7 c -1.58 2.45 -3.79 5.1 -6 7 l -8 5"/></svg>