<?xml version="1.0" encoding="UTF-8" standalone="no"?><!DOCTYPE svg PUBLIC "-//W3C//DTD SVG 1.1//EN" "http://www.w3.org/Graphics/SVG/1.1/DTD/svg11.dtd"><svg xmlns="http://www.w3.org/2000/svg" version="1.1" width="107" height="126"><path fill="none" stroke="#000000" stroke-width="2" stroke-linecap="round" stroke-linejoin="round" d="M 1 6 c 0.39 -0.09 14.74 -3.96 22 -5 c 4.18 -0.6 9.12 -0.71 13 0 c 2.94 0.53 6.85 2.12 9 4 c 2.66 2.33 6.03 6.62 7 10 c 1.43 4.99 1.57 12.28 1 18 c -0.72 7.16 -2.87 14.73 -5 22 c -1.91 6.52 -4.24 12.8 -7 19 c -2.62 5.89 -6.08 13.69 -9 17 c -0.91 1.03 -4.22 0.41 -6 0 c -2.26 -0.52 -5.2 -1.59 -7 -3 c -2.51 -1.97 -5.08 -5.13 -7 -8 c -2.66 -3.99 -6.66 -9.81 -7 -13 c -0.18 -1.69 3.17 -5.27 5 -6 c 2.34 -0.94 6.94 -0.58 10 0 c 3.58 0.68 7.71 2.27 11 4 c 2.81 1.48 5.75 3.75 8 6 c 2.25 2.25 4.95 5.3 6 8 c 1.05 2.71 1.7 7.34 1 10 c -0.75 2.86 -3.55 6.8 -6 9 c -3.76 3.39 -9.14 6.49 -14 9 c -4.72 2.44 -15.51 5.32 -15 6 c 0.67 0.89 14.03 2.2 21 2 c 16.57 -0.47 33.31 -3.22 50 -4 c 4.67 -0.22 9.81 0.05 14 1 c 2.67 0.61 6.63 2.22 8 4 l 2 9"/></svg>