<?xml version="1.0" encoding="UTF-8" standalone="no"?><!DOCTYPE svg PUBLIC "-//W3C//DTD SVG 1.1//EN" "http://www.w3.org/Graphics/SVG/1.1/DTD/svg11.dtd"><svg xmlns="http://www.w3.org/2000/svg" version="1.1" width="103" height="118"><path fill="none" stroke="#000000" stroke-width="2" stroke-linecap="round" stroke-linejoin="round" d="M 13 16 c 0.16 -0.14 5.72 -6.3 9 -8 c 5.77 -2.98 13.51 -5.7 20 -7 c 4.6 -0.92 10.89 -0.93 15 0 c 2.36 0.54 5.76 2.96 7 5 c 1.97 3.22 3.86 8.98 4 13 c 0.17 4.82 -1.25 11.22 -3 16 c -1.74 4.74 -4.93 9.74 -8 14 c -2.83 3.93 -6.31 8.34 -10 11 c -4.11 2.96 -9.99 5.55 -15 7 c -4.88 1.42 -11.28 2.36 -16 2 c -3.15 -0.24 -6.99 -2.39 -10 -4 c -1.79 -0.96 -4.61 -2.69 -5 -4 c -0.39 -1.3 0.8 -4.63 2 -6 c 2.96 -3.39 7.79 -7.57 12 -10 c 4 -2.31 9.49 -3.93 14 -5 c 2.12 -0.51 4.88 -0.35 7 0 c 1.63 0.27 3.87 1.02 5 2 c 1.22 1.07 2.59 3.36 3 5 c 0.49 1.97 1.15 5.64 0 7 c -4.78 5.64 -19.05 14.49 -22 19 c -0.87 1.33 2.94 6.43 5 7 c 5.76 1.59 15.8 1 24 1 c 9.22 0 18.01 -1.2 27 -1 c 5.7 0.13 11.93 0.73 17 2 c 2.39 0.6 6.25 2.28 7 4 c 1.12 2.56 1.09 8.62 0 12 l -10 19"/></svg>