<?xml version="1.0" encoding="UTF-8" standalone="no"?><!DOCTYPE svg PUBLIC "-//W3C//DTD SVG 1.1//EN" "http://www.w3.org/Graphics/SVG/1.1/DTD/svg11.dtd"><svg xmlns="http://www.w3.org/2000/svg" version="1.1" width="353" height="229"><path fill="none" stroke="#000000" stroke-width="2" stroke-linecap="round" stroke-linejoin="round" d="M 1 49 c 0.05 -0.04 1.97 -1.61 3 -2 c 1.46 -0.55 3.29 -0.77 5 -1 c 3.38 -0.45 6.63 -0.39 10 -1 c 30.68 -5.52 58.97 -11.75 90 -17 c 15.72 -2.66 30.27 -4.36 46 -6 c 7.13 -0.74 21 -1 21 -1"/><path fill="none" stroke="#000000" stroke-width="2" stroke-linecap="round" stroke-linejoin="round" d="M 59 24 c 0.07 0.37 2.02 14.47 4 21 c 1.24 4.1 3.83 8.96 6 12 c 0.72 1.01 4 2 4 2"/><path fill="none" stroke="#000000" stroke-width="2" stroke-linecap="round" stroke-linejoin="round" d="M 134 1 c -0.25 0.47 -8.94 17.8 -14 27 c -6.33 11.51 -19 33 -19 33"/><path fill="none" stroke="#000000" stroke-width="2" stroke-linecap="round" stroke-linejoin="round" d="M 48 69 c -0.14 0.3 -5.68 11.07 -8 17 c -4.46 11.37 -10.47 30.61 -12 34 c -0.15 0.34 -2.28 -2.31 -2 -3 c 0.7 -1.76 3.82 -4.82 6 -7 c 2.85 -2.85 5.78 -5.62 9 -8 c 4.45 -3.29 9.11 -6.23 14 -9 c 5.26 -2.98 10.42 -5.61 16 -8 c 8.69 -3.72 17.1 -6.87 26 -10 c 3.64 -1.28 7.26 -2.17 11 -3 c 2.32 -0.52 4.79 -1 7 -1 c 1.59 0 3.54 0.45 5 1 c 1.03 0.39 2.33 1.19 3 2 c 0.84 1 1.63 2.64 2 4 c 0.58 2.14 1.13 4.8 1 7 c -0.19 3.18 -0.64 7.11 -2 10 c -3.7 7.87 -8.85 16.71 -14 24 l -10 10"/><path fill="none" stroke="#000000" stroke-width="2" stroke-linecap="round" stroke-linejoin="round" d="M 36 163 c 0.02 -0.09 0 -4.18 1 -5 c 3.6 -2.97 10.56 -6.39 16 -9 c 2.81 -1.35 5.99 -2.48 9 -3 c 4.45 -0.77 9.8 -1.22 14 -1 c 1.61 0.08 3.9 1.06 5 2 c 0.91 0.78 1.66 2.65 2 4 c 0.61 2.44 1.16 5.51 1 8 c -0.16 2.54 -0.95 5.53 -2 8 c -2.55 6.04 -5.73 12.16 -9 18 c -1.4 2.5 -3.11 4.86 -5 7 c -3.1 3.52 -6.63 7.31 -10 10 l -5 2"/><path fill="none" stroke="#000000" stroke-width="2" stroke-linecap="round" stroke-linejoin="round" d="M 62 118 c -0.07 0.09 -2.94 3.18 -4 5 c -3.56 6.1 -6.22 12.74 -10 19 c -8.15 13.5 -16.14 25.71 -25 39 c -5.63 8.44 -17 24 -17 24"/><path fill="none" stroke="#000000" stroke-width="2" stroke-linecap="round" stroke-linejoin="round" d="M 10 173 c 0.14 -0.11 5.17 -4.38 8 -6 c 4.06 -2.32 13 -6 13 -6"/><path fill="none" stroke="#000000" stroke-width="2" stroke-linecap="round" stroke-linejoin="round" d="M 194 66 c -0.16 0.23 -5.64 8.94 -9 13 c -4.66 5.64 -15.12 14.31 -15 16 c 0.09 1.24 11.41 -2 16 -2 c 1.27 0 4.21 1.26 4 2 c -1.02 3.56 -6.35 12.78 -10 19 c -2.07 3.54 -4.41 6.76 -7 10 c -5.57 6.96 -10.94 13.42 -17 20 c -5.88 6.38 -11.7 12.35 -18 18 c -3.37 3.02 -11 8 -11 8"/><path fill="none" stroke="#000000" stroke-width="2" stroke-linecap="round" stroke-linejoin="round" d="M 126 138 c 0.05 -0.07 1.87 -2.87 3 -4 c 1.13 -1.13 2.73 -2.75 4 -3 c 1.55 -0.31 4.15 0.45 6 1 c 1.36 0.41 2.71 1.21 4 2 c 4.8 2.93 9.49 5.62 14 9 c 10.4 7.8 19.5 16.42 30 24 c 7.73 5.59 24 15 24 15"/><path fill="none" stroke="#000000" stroke-width="2" stroke-linecap="round" stroke-linejoin="round" d="M 211 94 c 0.32 -0.21 11.71 -8.62 18 -12 c 7.3 -3.92 15.14 -6.9 23 -10 c 3.27 -1.29 6.58 -2.22 10 -3 c 3.99 -0.91 9.3 -2.19 12 -2 c 0.8 0.06 2.37 2.33 2 3 c -2.18 3.97 -7.98 12.19 -13 17 c -10.66 10.22 -31.98 25.88 -35 29 c -0.4 0.42 4.05 1.07 6 1 c 6.44 -0.25 17.49 -2.56 20 -2 c 0.79 0.18 -0.72 4.72 -2 6 c -5.18 5.18 -12.97 10.9 -20 16 c -6.55 4.75 -18.96 11.87 -20 13 c -0.35 0.38 5.42 0.45 8 0 c 14.49 -2.51 28.83 -5.79 44 -9 c 2.78 -0.59 5.47 -1.1 8 -2 c 2.06 -0.73 4.25 -1.83 6 -3 l 3 -3"/><path fill="none" stroke="#000000" stroke-width="2" stroke-linecap="round" stroke-linejoin="round" d="M 264 43 c -0.09 0.07 -3.79 2.49 -5 4 c -1.26 1.58 -2.24 3.9 -3 6 c -2.24 6.23 -4.24 12.44 -6 19 c -1.99 7.43 -3.69 14.39 -5 22 c -3.82 22.17 -6.26 43.13 -10 65 c -0.65 3.79 -2.33 7.29 -3 11 c -0.65 3.59 -0.35 7.41 -1 11 c -0.67 3.71 -2.33 7.29 -3 11 c -0.65 3.59 -0.39 7.32 -1 11 c -1.42 8.5 -5 25 -5 25"/><path fill="none" stroke="#000000" stroke-width="2" stroke-linecap="round" stroke-linejoin="round" d="M 327 40 c -0.07 0.03 -2.94 1.07 -4 2 c -4.01 3.51 -8.15 7.76 -12 12 c -2.91 3.2 -8.36 9.04 -8 10 c 0.31 0.84 7.56 -0.82 11 -2 c 7.02 -2.41 19.36 -9.47 21 -9 c 1.06 0.3 -3.92 9.55 -7 13 c -7.37 8.27 -16.84 16.56 -26 24 c -6.89 5.6 -14.5 10.18 -22 15 c -1.89 1.22 -6.21 3.01 -6 3 c 0.65 -0.04 13.86 -2.95 21 -4 c 4.35 -0.64 8.55 -0.85 13 -1 c 5.8 -0.19 11.52 -0.26 17 0 c 1.33 0.06 3.29 0.29 4 1 c 0.93 0.93 2.38 3.71 2 5 c -0.98 3.32 -4.58 8.62 -7 12 l -3 2"/><path fill="none" stroke="#000000" stroke-width="2" stroke-linecap="round" stroke-linejoin="round" d="M 306 117 c -0.09 0.03 -3.94 0.87 -5 2 c -3.37 3.6 -7.03 9.3 -10 14 c -0.93 1.47 -2.27 4.18 -2 5 c 0.21 0.63 2.75 1 4 1 c 1.85 0 4.19 -0.35 6 -1 c 2.67 -0.95 5.84 -2.43 8 -4 c 1.21 -0.88 2.89 -2.77 3 -4 c 0.16 -1.79 -1.04 -5.09 -2 -7 c -0.56 -1.11 -1.85 -2.46 -3 -3 c -4.04 -1.9 -10.15 -4.62 -14 -5 c -1.74 -0.17 -4.43 1.66 -6 3 c -2.81 2.41 -6.03 5.77 -8 9 c -2.49 4.09 -4.66 9.3 -6 14 c -1.25 4.36 -2.14 9.55 -2 14 c 0.18 5.43 1.06 12.41 3 17 c 1.35 3.2 5.11 7.41 8 9 c 2.92 1.61 8.3 2 12 2 c 2.51 0 5.3 -1.21 8 -2 c 3.11 -0.91 6.12 -1.67 9 -3 c 10.18 -4.7 20.8 -9.86 30 -15 c 1.55 -0.87 2.98 -2.54 4 -4 c 1.21 -1.73 2.37 -3.91 3 -6 c 2.31 -7.72 6 -24 6 -24"/></svg>