<?xml version="1.0" encoding="UTF-8" standalone="no"?><!DOCTYPE svg PUBLIC "-//W3C//DTD SVG 1.1//EN" "http://www.w3.org/Graphics/SVG/1.1/DTD/svg11.dtd"><svg xmlns="http://www.w3.org/2000/svg" version="1.1" width="340" height="197"><path fill="none" stroke="#000000" stroke-width="2" stroke-linecap="round" stroke-linejoin="round" d="M 1 14 c 0.3 0 11.52 -0.26 17 0 c 1.33 0.06 2.67 0.98 4 1 c 20.33 0.3 41.89 1.04 63 0 c 12.84 -0.64 25.02 -2.99 38 -5 c 6.9 -1.07 20 -4 20 -4"/><path fill="none" stroke="#000000" stroke-width="2" stroke-linecap="round" stroke-linejoin="round" d="M 52 7 c 0 0.26 0.38 10.07 0 15 c -0.28 3.68 -1.67 7.33 -2 11 c -0.33 3.61 0 11 0 11"/><path fill="none" stroke="#000000" stroke-width="2" stroke-linecap="round" stroke-linejoin="round" d="M 101 1 l -18 38"/><path fill="none" stroke="#000000" stroke-width="2" stroke-linecap="round" stroke-linejoin="round" d="M 9 51 l -2 33"/><path fill="none" stroke="#000000" stroke-width="2" stroke-linecap="round" stroke-linejoin="round" d="M 13 73 c 0.04 -0.05 1.12 -2.42 2 -3 c 2.72 -1.81 6.5 -3.62 10 -5 c 9.31 -3.67 18.47 -7.22 28 -10 c 6.54 -1.91 13.17 -3 20 -4 c 7.07 -1.03 13.85 -1.65 21 -2 c 6.78 -0.33 17.11 -0.61 20 0 c 0.6 0.13 -0.34 2.96 -1 4 c -1.48 2.32 -3.73 4.96 -6 7 c -7.35 6.59 -23 19 -23 19"/><path fill="none" stroke="#000000" stroke-width="2" stroke-linecap="round" stroke-linejoin="round" d="M 9 120 c 0.26 -0.12 9.76 -4.99 15 -7 c 12.41 -4.77 24.6 -9.2 37 -13 c 3.85 -1.18 8.16 -1.8 12 -2 c 2.23 -0.12 5.21 0.19 7 1 c 1.43 0.65 3.5 2.51 4 4 c 1.24 3.73 2.15 9.57 2 14 c -0.17 5.1 -1.44 10.84 -3 16 c -2.76 9.13 -6.12 18.39 -10 27 c -2.05 4.57 -5.09 8.84 -8 13 c -1.76 2.51 -3.98 5.38 -6 7 c -0.91 0.72 -2.78 1 -4 1 c -1.22 0 -2.99 -0.37 -4 -1 c -1.39 -0.87 -3.2 -2.47 -4 -4 c -2.29 -4.36 -6 -15 -6 -15"/><path fill="none" stroke="#000000" stroke-width="2" stroke-linecap="round" stroke-linejoin="round" d="M 57 87 c -0.09 0.11 -3.86 3.76 -5 6 c -7.25 14.21 -13.64 30 -21 45 c -1.4 2.85 -3.54 5.17 -5 8 c -3.6 6.97 -6.26 14.41 -10 21 c -1.83 3.23 -7 9 -7 9"/><path fill="none" stroke="#000000" stroke-width="2" stroke-linecap="round" stroke-linejoin="round" d="M 178 47 l -15 18"/><path fill="none" stroke="#000000" stroke-width="2" stroke-linecap="round" stroke-linejoin="round" d="M 121 94 c 0.14 -0.09 5.14 -3.73 8 -5 c 15.07 -6.7 30.15 -12.76 46 -19 c 5.04 -1.98 9.88 -3.57 15 -5 c 3.3 -0.92 10 -2 10 -2"/><path fill="none" stroke="#000000" stroke-width="2" stroke-linecap="round" stroke-linejoin="round" d="M 187 82 c -0.07 0.02 -3.16 0.26 -4 1 c -1.74 1.55 -3.55 4.51 -5 7 c -3.25 5.57 -5.54 11.52 -9 17 c -6.33 10.04 -12.84 19.67 -20 29 c -3.88 5.06 -8.46 9.46 -13 14 c -1.85 1.85 -3.92 3.68 -6 5 l -5 2"/><path fill="none" stroke="#000000" stroke-width="2" stroke-linecap="round" stroke-linejoin="round" d="M 127 121 c 0.07 0.03 2.99 1.06 4 2 c 3.05 2.81 5.74 6.89 9 10 c 4.13 3.94 8.95 6.95 13 11 c 8.75 8.75 25 27 25 27"/><path fill="none" stroke="#000000" stroke-width="2" stroke-linecap="round" stroke-linejoin="round" d="M 228 79 c 0.07 -0.07 2.48 -2.99 4 -4 c 6.26 -4.18 20 -12 20 -12"/><path fill="none" stroke="#000000" stroke-width="2" stroke-linecap="round" stroke-linejoin="round" d="M 210 107 c 0.25 -0.14 9.11 -5.75 14 -8 c 7.49 -3.44 23 -9 23 -9"/><path fill="none" stroke="#000000" stroke-width="2" stroke-linecap="round" stroke-linejoin="round" d="M 191 143 c 0.14 -0.07 5.24 -2.93 8 -4 c 3.22 -1.25 6.54 -2.16 10 -3 c 7.81 -1.89 15.22 -3.01 23 -5 c 6.91 -1.77 13.23 -3.74 20 -6 c 4.51 -1.5 8.76 -3.07 13 -5 c 3.13 -1.42 9 -5 9 -5"/><path fill="none" stroke="#000000" stroke-width="2" stroke-linecap="round" stroke-linejoin="round" d="M 253 39 c -0.05 0.26 -1.69 9.94 -3 15 c -3.82 14.77 -9.38 28.34 -12 43 c -4.73 26.47 -5.95 53.28 -10 80 c -0.99 6.51 -5 19 -5 19"/><path fill="none" stroke="#000000" stroke-width="2" stroke-linecap="round" stroke-linejoin="round" d="M 311 34 c -0.07 0.02 -3.15 0.18 -4 1 c -7.27 7.01 -16.05 17.76 -24 26 c -0.81 0.84 -3.05 2.03 -3 2 c 0.19 -0.12 7.11 -5.31 11 -7 c 8.86 -3.86 25.24 -9.47 28 -10 c 0.5 -0.1 -1.06 3.6 -2 5 c -1.6 2.4 -3.75 4.89 -6 7 c -8.82 8.28 -17.61 16.58 -27 24 c -4.9 3.88 -10.6 7.3 -16 10 c -2.99 1.5 -9.59 3 -10 3 c -0.2 0 2.54 -2.54 4 -3 c 8.42 -2.63 18.43 -5.05 28 -7 c 7.04 -1.44 13.94 -2.34 21 -3 c 3.66 -0.34 10.23 -1.32 11 0 c 0.89 1.52 -2.03 8.59 -4 12 c -2.77 4.81 -11 14 -11 14"/><path fill="none" stroke="#000000" stroke-width="2" stroke-linecap="round" stroke-linejoin="round" d="M 297 93 c -0.28 0.44 -10.51 17.04 -16 25 c -1.05 1.52 -4.22 3.56 -4 4 c 0.23 0.47 4.24 0.35 6 0 c 1.31 -0.26 4 -2 4 -2"/><path fill="none" stroke="#000000" stroke-width="2" stroke-linecap="round" stroke-linejoin="round" d="M 280 102 c -0.05 0.04 -2.33 1.19 -3 2 c -0.84 1 -1.55 2.64 -2 4 c -0.52 1.55 -0.41 3.52 -1 5 c -0.68 1.69 -2.23 3.24 -3 5 c -1.54 3.52 -3 7.21 -4 11 c -2.02 7.62 -3.85 15.41 -5 23 c -0.49 3.22 -0.78 7.12 0 10 c 1.05 3.86 3.88 8.7 6 12 c 0.57 0.89 1.93 1.67 3 2 c 3.94 1.23 8.72 2.36 13 3 c 2.25 0.34 4.67 0.17 7 0 c 2.36 -0.17 4.83 -0.28 7 -1 c 6.61 -2.2 13.93 -4.97 20 -8 c 2.2 -1.1 4.3 -3.15 6 -5 c 1.87 -2.04 4.14 -4.47 5 -7 c 3.84 -11.26 10 -37 10 -37"/></svg>