<?xml version="1.0" encoding="UTF-8" standalone="no"?><!DOCTYPE svg PUBLIC "-//W3C//DTD SVG 1.1//EN" "http://www.w3.org/Graphics/SVG/1.1/DTD/svg11.dtd"><svg xmlns="http://www.w3.org/2000/svg" version="1.1" width="291" height="180"><path fill="none" stroke="#000000" stroke-width="2" stroke-linecap="round" stroke-linejoin="round" d="M 36 1 l 7 11"/><path fill="none" stroke="#000000" stroke-width="2" stroke-linecap="round" stroke-linejoin="round" d="M 1 81 c 0.3 -0.14 11.1 -5.5 17 -8 c 5.36 -2.28 10.59 -4.68 16 -6 c 6.72 -1.63 14.49 -2.78 21 -3 c 2.53 -0.09 5.86 0.93 8 2 c 1.47 0.73 3.62 2.57 4 4 c 0.74 2.79 0.58 7.51 0 11 c -1.04 6.23 -2.52 13.07 -5 19 c -5.08 12.14 -11.54 24.32 -18 36 c -2.18 3.95 -5.08 7.7 -8 11 c -1.98 2.24 -4.55 4.31 -7 6 c -1.78 1.23 -4.27 3 -6 3 c -2.21 0 -6.18 -1.44 -8 -3 c -2.3 -1.97 -4.35 -5.85 -6 -9 c -1.98 -3.78 -3.82 -7.95 -5 -12 c -1.11 -3.79 -1.82 -8.12 -2 -12 c -0.14 -2.89 0.39 -6.17 1 -9 c 0.36 -1.68 1.06 -3.65 2 -5 c 1.24 -1.77 3.2 -3.53 5 -5 c 1.83 -1.5 3.99 -3.09 6 -4 c 1.42 -0.65 3.64 -1.41 5 -1 c 4.43 1.33 11.19 3.73 15 7 c 7.02 6.02 12.85 15.51 20 23 c 7.47 7.82 14.86 15.85 23 22 c 6.41 4.84 22 12 22 12"/><path fill="none" stroke="#000000" stroke-width="2" stroke-linecap="round" stroke-linejoin="round" d="M 110 61 c 0.47 -0.1 18.04 -3.7 27 -6 c 2.77 -0.71 8 -3 8 -3"/><path fill="none" stroke="#000000" stroke-width="2" stroke-linecap="round" stroke-linejoin="round" d="M 137 31 c 0.07 0.37 2.98 13.87 4 21 c 0.67 4.68 1 14 1 14"/><path fill="none" stroke="#000000" stroke-width="2" stroke-linecap="round" stroke-linejoin="round" d="M 103 107 c 0.44 -0.26 16.67 -9.7 25 -15 c 2.86 -1.82 5.18 -4.28 8 -6 c 3.15 -1.92 9.67 -6.22 10 -5 c 0.91 3.39 -2.8 20.77 -3 31 c -0.13 6.93 0.97 14.57 2 21 c 0.22 1.36 1.1 3.35 2 4 c 1.03 0.74 4.03 1.58 5 1 c 1.64 -0.98 3.7 -4.53 5 -7 c 1.97 -3.74 3.06 -8.12 5 -12 c 1.74 -3.48 6 -10 6 -10"/><path fill="none" stroke="#000000" stroke-width="2" stroke-linecap="round" stroke-linejoin="round" d="M 117 132 c -0.07 0.37 -4.54 16.5 -4 21 c 0.2 1.7 4.62 3.62 7 4 c 9.19 1.45 20.57 0.52 31 2 c 35.03 4.97 67.76 11.93 103 17 c 12.19 1.75 36 3 36 3"/><path fill="none" stroke="#000000" stroke-width="2" stroke-linecap="round" stroke-linejoin="round" d="M 185 41 c 0.18 -0.02 6.7 -1 10 -1 c 3.63 0 7.37 0.43 11 1 c 2.71 0.43 5.47 1.1 8 2 c 2.06 0.73 4.54 1.69 6 3 c 1.57 1.41 3.9 4.13 4 6 c 0.18 3.45 -1.47 8.96 -3 13 c -2.05 5.41 -5.02 10.78 -8 16 c -2.41 4.21 -5.02 8.32 -8 12 c -2.63 3.24 -5.76 6.41 -9 9 c -3.32 2.65 -8.95 4.43 -11 7 c -1.27 1.59 -1.6 5.67 -1 8 c 2.44 9.5 9.79 30.29 11 31 c 0.88 0.52 -0.07 -16.49 1 -24 c 0.52 -3.66 2.11 -7.94 4 -11 c 2.18 -3.51 5.69 -7.99 9 -10 c 3.58 -2.18 9.61 -3.68 14 -4 c 3.96 -0.29 9.37 0.62 13 2 c 2.76 1.05 5.63 3.83 8 6 c 1.52 1.39 3.44 3.33 4 5 c 0.61 1.83 0.78 5.23 0 7 c -1.26 2.89 -4.26 6.72 -7 9 c -4.86 4.05 -11.13 7.98 -17 11 c -4.95 2.55 -10.51 4.24 -16 6 c -3.97 1.28 -8.06 2.38 -12 3 l -7 0"/></svg>