<?xml version="1.0" encoding="UTF-8" standalone="no"?><!DOCTYPE svg PUBLIC "-//W3C//DTD SVG 1.1//EN" "http://www.w3.org/Graphics/SVG/1.1/DTD/svg11.dtd"><svg xmlns="http://www.w3.org/2000/svg" version="1.1" width="93" height="120"><path fill="none" stroke="#000000" stroke-width="2" stroke-linecap="round" stroke-linejoin="round" d="M 1 5 c 0.37 -0.05 13.88 -2.6 21 -3 c 17.13 -0.95 34.65 -1.28 51 -1 c 2.64 0.04 5.74 0.96 8 2 c 1.76 0.81 4.22 2.44 5 4 c 1.24 2.48 2.21 6.9 2 10 c -0.41 5.91 -1.61 13.43 -4 19 c -3.31 7.73 -8.91 15.36 -14 23 c -5.14 7.72 -10.27 14.66 -16 22 c -5.23 6.7 -10.54 13.54 -16 19 c -1.77 1.77 -4.77 3.26 -7 4 c -1.39 0.46 -3.43 0.26 -5 0 c -2.29 -0.38 -4.91 -1.04 -7 -2 c -2.07 -0.95 -4.59 -2.43 -6 -4 c -1.31 -1.46 -2.51 -4.06 -3 -6 c -0.43 -1.74 -0.43 -4.26 0 -6 c 0.49 -1.94 1.62 -4.52 3 -6 c 2.63 -2.83 6.43 -5.96 10 -8 c 5.5 -3.14 11.9 -5.83 18 -8 c 4.13 -1.47 8.99 -2.55 13 -3 c 1.53 -0.17 3.84 0.34 5 1 c 0.82 0.47 1.83 1.99 2 3 c 0.42 2.53 0.74 6.36 0 9 c -1.43 5.11 -4.34 10.67 -7 16 c -4.85 9.69 -15.55 24.03 -15 28 c 0.33 2.38 12.64 1.24 19 1 c 11.4 -0.43 34 -3 34 -3"/></svg>