<?xml version="1.0" encoding="UTF-8" standalone="no"?><!DOCTYPE svg PUBLIC "-//W3C//DTD SVG 1.1//EN" "http://www.w3.org/Graphics/SVG/1.1/DTD/svg11.dtd"><svg xmlns="http://www.w3.org/2000/svg" version="1.1" width="239" height="228"><path fill="none" stroke="#000000" stroke-width="2" stroke-linecap="round" stroke-linejoin="round" d="M 29 29 c -0.44 0.93 -17.07 35.15 -25 53 c -1.41 3.18 -3.45 8.19 -3 10 c 0.27 1.09 4.03 1.77 6 2 c 3.43 0.4 7.45 0.58 11 0 c 12.53 -2.05 25.29 -4.68 38 -8 c 10.66 -2.78 21.19 -6.54 31 -10 c 1.09 -0.38 2.46 -1.2 3 -2 l 1 -4"/><path fill="none" stroke="#000000" stroke-width="2" stroke-linecap="round" stroke-linejoin="round" d="M 62 37 c 0 0.3 -0.37 11.26 0 17 c 0.64 9.85 1.71 19.06 3 29 c 1.12 8.63 4 25 4 25"/><path fill="none" stroke="#000000" stroke-width="2" stroke-linecap="round" stroke-linejoin="round" d="M 98 69 c 0.18 0.14 7.9 5 10 8 c 2.07 2.96 4 12 4 12"/><path fill="none" stroke="#000000" stroke-width="2" stroke-linecap="round" stroke-linejoin="round" d="M 61 116 c -0.14 0.11 -5.87 3.61 -8 6 c -5.93 6.64 -11.69 14.36 -17 22 c -3.08 4.43 -4.97 9.53 -8 14 c -4.02 5.94 -12.77 16.71 -13 17 c -0.16 0.2 5.64 -8.64 9 -12 c 3.05 -3.05 7.42 -5.99 11 -8 c 1.34 -0.75 3.52 -1.13 5 -1 c 1.84 0.17 5.13 0.8 6 2 c 1.28 1.75 1.73 5.95 2 9 c 1.06 11.92 2 36 2 36"/><path fill="none" stroke="#000000" stroke-width="2" stroke-linecap="round" stroke-linejoin="round" d="M 64 143 c 0.11 -0.16 3.84 -6.84 6 -9 c 1.08 -1.08 3.36 -1.79 5 -2 c 3.36 -0.42 8.98 -1.67 11 0 c 4.12 3.4 8.94 12.52 12 19 c 2.41 5.11 3.89 11.47 5 17 c 0.5 2.5 0.34 5.47 0 8 c -0.31 2.3 -0.86 5.28 -2 7 c -1.23 1.84 -3.96 4.4 -6 5 c -2.88 0.85 -7.64 0.42 -11 0 c -1.64 -0.21 -4.84 -1.02 -5 -2 c -0.32 -1.9 1.47 -7.45 3 -10 c 1.14 -1.91 3.89 -3.7 6 -5 c 2.06 -1.27 4.66 -2.45 7 -3 c 3.09 -0.73 8.65 -1.94 10 -1 c 1.07 0.75 0.28 5.37 0 8 c -0.39 3.67 -0.91 7.49 -2 11 c -1.88 6.06 -6.92 16.92 -7 18 c -0.03 0.44 4.44 -3.02 6 -5 c 9.13 -11.62 17.95 -24.1 27 -37 c 4.71 -6.72 8.93 -12.98 13 -20 c 5.81 -10.01 11.07 -19.87 16 -30 l 3 -9"/><path fill="none" stroke="#000000" stroke-width="2" stroke-linecap="round" stroke-linejoin="round" d="M 136 61 c 0.18 0.19 6.49 7.9 10 11 c 1.9 1.68 4.65 3.38 7 4 c 3.51 0.92 9.12 2.01 12 1 c 2.7 -0.95 5.56 -5.1 8 -8 c 4.61 -5.49 8.5 -11.75 13 -17 c 1.35 -1.57 4.78 -4.55 5 -4 c 0.48 1.2 0.57 10.06 -1 14 c -3.97 9.92 -12.01 20.55 -17 31 c -1.92 4.02 -4.58 10.97 -4 13 c 0.34 1.21 5.8 1.64 8 1 c 4.89 -1.42 10.73 -5.74 16 -8 c 1.5 -0.64 3.34 -0.83 5 -1 c 1.63 -0.16 3.8 -0.53 5 0 c 1.36 0.6 3.67 2.5 4 4 c 1.36 6.13 1.55 15.16 2 23 c 0.23 4.08 0.33 8.03 0 12 c -0.34 4.02 -0.62 8.62 -2 12 c -1.39 3.39 -4.35 7.19 -7 10 c -2.47 2.63 -5.89 5.06 -9 7 c -2.08 1.3 -4.66 2.51 -7 3 c -3.7 0.78 -9.48 1.95 -12 1 c -1.69 -0.63 -3.71 -4.66 -4 -7 c -0.91 -7.25 -2.32 -18.03 0 -25 c 4.03 -12.1 14.46 -24.91 21 -38 c 3.58 -7.17 7.08 -14.63 9 -22 c 1.96 -7.5 2.48 -15.89 3 -24 c 0.49 -7.72 0.58 -15.45 0 -23 c -0.41 -5.35 -0.8 -12.04 -3 -16 l -12 -11"/><path fill="none" stroke="#000000" stroke-width="2" stroke-linecap="round" stroke-linejoin="round" d="M 154 1 c -0.04 0.3 -3.47 12.34 -2 17 c 3.84 12.17 13.67 26.02 20 40 c 10.15 22.4 19.01 42.98 28 66 c 13.77 35.25 38 103 38 103"/></svg>