<?xml version="1.0" encoding="UTF-8" standalone="no"?><!DOCTYPE svg PUBLIC "-//W3C//DTD SVG 1.1//EN" "http://www.w3.org/Graphics/SVG/1.1/DTD/svg11.dtd"><svg xmlns="http://www.w3.org/2000/svg" version="1.1" width="296" height="181"><path fill="none" stroke="#000000" stroke-width="2" stroke-linecap="round" stroke-linejoin="round" d="M 79 1 c -0.04 0.47 -1.82 17.87 -2 27 c -0.16 8.44 1 25 1 25"/><path fill="none" stroke="#000000" stroke-width="2" stroke-linecap="round" stroke-linejoin="round" d="M 31 33 c -0.1 0.58 -5.58 25.41 -6 33 c -0.06 1.13 2.79 3.08 4 3 c 3.06 -0.19 8.17 -2.28 12 -4 c 5.82 -2.61 11.49 -5.56 17 -9 c 10.73 -6.71 20.4 -14.28 31 -21 c 3.17 -2.01 6.56 -3.55 10 -5 c 2.92 -1.23 6.09 -2.77 9 -3 c 4.91 -0.39 11.24 -0.3 16 1 c 5.58 1.52 11.86 4.92 17 8 c 2.91 1.74 8 7 8 7"/><path fill="none" stroke="#000000" stroke-width="2" stroke-linecap="round" stroke-linejoin="round" d="M 72 42 c -0.14 0.16 -5.5 5.77 -8 9 c -5.65 7.29 -10.53 14.27 -16 22 c -16.46 23.25 -47 67 -47 67"/><path fill="none" stroke="#000000" stroke-width="2" stroke-linecap="round" stroke-linejoin="round" d="M 54 91 c 0 0.81 -0.26 30.27 0 46 c 0.08 4.8 0.25 9.37 1 14 c 1.26 7.76 2.98 15.69 5 23 c 0.57 2.08 3 6 3 6"/><path fill="none" stroke="#000000" stroke-width="2" stroke-linecap="round" stroke-linejoin="round" d="M 104 59 l 1 4"/><path fill="none" stroke="#000000" stroke-width="2" stroke-linecap="round" stroke-linejoin="round" d="M 84 94 c 0.23 -0.12 8.54 -4.87 13 -7 c 2.58 -1.23 5.3 -2.23 8 -3 c 1.92 -0.55 4.31 -1.17 6 -1 c 1.25 0.12 2.86 1.18 4 2 c 1.08 0.77 2.3 1.86 3 3 c 1.84 2.99 3.53 6.52 5 10 c 2.25 5.32 4.22 10.49 6 16 c 1.62 5.01 2.94 9.93 4 15 c 0.62 2.95 1 6.19 1 9 l -1 4"/><path fill="none" stroke="#000000" stroke-width="2" stroke-linecap="round" stroke-linejoin="round" d="M 101 113 c 0.14 -0.05 5.8 -2.82 8 -3 c 1.15 -0.1 2.65 1.69 4 2 c 2.74 0.63 7.3 -0.08 9 1 c 1.19 0.76 2.1 4.18 2 6 c -0.2 3.85 -1.55 9 -3 13 c -1.12 3.08 -2.83 6.63 -5 9 c -4.78 5.21 -18.6 14.23 -17 15 c 3.24 1.56 30.74 -1.25 46 -1 c 4.69 0.08 9.21 1.56 14 2 c 6.44 0.59 13.23 1.43 19 1 l 8 -3"/><path fill="none" stroke="#000000" stroke-width="2" stroke-linecap="round" stroke-linejoin="round" d="M 159 106 c 0.4 -0.4 15.67 -14.98 23 -23 c 3.38 -3.7 6.05 -7.77 9 -12 c 4.96 -7.12 9.6 -13.74 14 -21 c 2.34 -3.86 5.47 -9.52 6 -12 c 0.14 -0.67 -2.39 -2.26 -3 -2 c -1.09 0.47 -2.88 3.21 -4 5 c -2.19 3.51 -4.35 7.21 -6 11 c -1.67 3.83 -2.94 7.96 -4 12 c -0.59 2.26 -1.74 5.28 -1 7 c 1.8 4.19 6.93 9.17 10 14 c 1.6 2.51 3.61 5.36 4 8 c 0.83 5.61 1.07 13.19 0 19 c -1.14 6.19 -4.35 12.81 -7 19 c -1.35 3.15 -3.1 6.09 -5 9 c -3.17 4.86 -10.39 11.38 -10 14 c 0.33 2.18 8.58 5.44 13 6 c 30.03 3.82 97 8 97 8"/><path fill="none" stroke="#000000" stroke-width="2" stroke-linecap="round" stroke-linejoin="round" d="M 229 49 c 0.12 0.05 5.05 1.7 7 3 c 1.81 1.21 3.6 3.18 5 5 c 1.87 2.43 4 5.24 5 8 c 1.52 4.19 3 9.66 3 14 c 0 4.34 -1.54 9.63 -3 14 c -1.14 3.41 -2.75 7.42 -5 10 c -3.99 4.59 -14.04 11.75 -15 13 c -0.24 0.32 3.51 0.43 5 0 c 6.04 -1.76 12.52 -5.04 19 -7 c 4.58 -1.39 9.66 -2.54 14 -3 c 1.54 -0.16 3.7 0.35 5 1 c 1.08 0.54 2.52 1.91 3 3 c 0.69 1.56 1.31 4.45 1 6 c -0.25 1.27 -1.75 3.19 -3 4 c -3.92 2.54 -9.47 5.87 -14 7 c -4.05 1.01 -9.64 0.57 -14 0 c -2.96 -0.39 -6.47 -1.73 -9 -3 l -3 -3"/></svg>