<?xml version="1.0" encoding="UTF-8" standalone="no"?><!DOCTYPE svg PUBLIC "-//W3C//DTD SVG 1.1//EN" "http://www.w3.org/Graphics/SVG/1.1/DTD/svg11.dtd"><svg xmlns="http://www.w3.org/2000/svg" version="1.1" width="305" height="234"><path fill="none" stroke="#000000" stroke-width="2" stroke-linecap="round" stroke-linejoin="round" d="M 76 1 c 0.02 0.09 0.94 3.33 1 5 c 0.27 7.21 0.23 14.55 0 22 c -0.11 3.4 -0.42 6.73 -1 10 c -0.42 2.37 -2 7 -2 7"/><path fill="none" stroke="#000000" stroke-width="2" stroke-linecap="round" stroke-linejoin="round" d="M 37 39 c -0.1 0.26 -4.27 9.81 -6 15 c -2.34 7.02 -4.26 13.84 -6 21 c -0.97 3.99 -3.33 12.05 -2 12 c 3.48 -0.13 19.04 -9.52 29 -13 c 11.02 -3.85 22.49 -6.47 34 -9 c 5.28 -1.16 10.59 -1.71 16 -2 c 7.05 -0.38 14.23 -0.27 21 0 c 1.33 0.05 2.82 0.49 4 1 c 1.03 0.44 2.25 1.16 3 2 l 6 8"/><path fill="none" stroke="#000000" stroke-width="2" stroke-linecap="round" stroke-linejoin="round" d="M 61 81 c -0.07 0.05 -2.83 1.83 -4 3 c -4.46 4.46 -8.85 8.96 -13 14 c -14.99 18.2 -42.38 52.96 -43 54 c -0.36 0.6 18.96 -20.24 28 -29 c 1 -0.97 2.99 -2.13 4 -2 c 1.12 0.14 3.4 1.73 4 3 c 2.01 4.25 3.67 10.53 5 16 c 1.37 5.63 2.32 11.22 3 17 c 0.67 5.7 0.33 11.26 1 17 c 1.03 8.87 4 26 4 26"/><path fill="none" stroke="#000000" stroke-width="2" stroke-linecap="round" stroke-linejoin="round" d="M 94 85 l 1 1"/><path fill="none" stroke="#000000" stroke-width="2" stroke-linecap="round" stroke-linejoin="round" d="M 72 132 c 0.24 -0.16 9.13 -6.3 14 -9 c 4.19 -2.33 9.08 -4.97 13 -6 c 1.67 -0.44 5.17 -0.18 6 1 c 2.81 4.02 5.56 12.44 8 19 c 1.98 5.33 3.81 10.52 5 16 c 2.16 9.95 5 30 5 30"/><path fill="none" stroke="#000000" stroke-width="2" stroke-linecap="round" stroke-linejoin="round" d="M 88 150 c 0.1 -0.09 3.87 -3.63 6 -5 c 2.44 -1.57 6.43 -4 8 -4 c 0.78 0 1.85 2.8 2 4 c 0.14 1.11 -1.54 3.73 -1 4 c 1.19 0.59 7.94 -1.27 9 0 c 1.42 1.7 1.75 8.71 1 12 c -0.73 3.19 -3.77 6.84 -6 10 c -1.76 2.5 -3.8 4.8 -6 7 c -5.24 5.24 -16.12 12.88 -16 15 c 0.1 1.66 11.41 2.11 17 2 c 10.49 -0.21 21.26 -1.42 32 -3 c 9.89 -1.46 19.22 -3.52 29 -6 c 11.71 -2.97 34 -10 34 -10"/><path fill="none" stroke="#000000" stroke-width="2" stroke-linecap="round" stroke-linejoin="round" d="M 159 112 c 0.44 -0.23 17.13 -7.95 25 -13 c 9.77 -6.27 28 -21 28 -21"/><path fill="none" stroke="#000000" stroke-width="2" stroke-linecap="round" stroke-linejoin="round" d="M 207 39 c 0.05 0.16 2.22 5.88 3 9 c 2.61 10.45 5.1 20.56 7 31 c 0.78 4.28 1 13 1 13"/><path fill="none" stroke="#000000" stroke-width="2" stroke-linecap="round" stroke-linejoin="round" d="M 195 127 c 0.33 -0.28 15.79 -14.17 19 -16 c 0.58 -0.33 2.04 2.72 2 4 c -0.25 8.66 -3.39 20.75 -3 30 c 0.23 5.44 2.85 12.49 5 17 c 0.78 1.63 3.2 3.1 5 4 c 3.28 1.64 7.46 3.61 11 4 c 4.85 0.54 15.53 -0.18 16 -1 c 0.39 -0.68 -8.12 -5.03 -12 -6 c -3.47 -0.87 -8.28 -0.62 -12 0 c -3.92 0.65 -8.34 2.26 -12 4 c -3.13 1.49 -6.12 3.8 -9 6 c -2.83 2.17 -5.48 4.48 -8 7 c -2.52 2.52 -5.08 5.13 -7 8 c -2.66 3.99 -4.97 8.69 -7 13 c -0.57 1.2 -1.14 2.89 -1 4 c 0.15 1.2 1.02 3.09 2 4 c 3.28 3.05 7.79 6.82 12 9 c 5.06 2.62 11.23 4.56 17 6 c 6.15 1.54 12.54 2.55 19 3 c 17.82 1.24 35.5 0.54 53 2 l 19 4"/><path fill="none" stroke="#000000" stroke-width="2" stroke-linecap="round" stroke-linejoin="round" d="M 238 70 c 0.19 0.04 8.11 0.73 11 2 c 1.83 0.8 3.6 3.18 5 5 c 1.87 2.43 4.3 5.31 5 8 c 1.12 4.29 1 9.95 1 15 c 0 5.38 0.21 11.04 -1 16 c -2.01 8.22 -5.52 16.96 -9 25 c -1.82 4.2 -6.55 10.06 -7 12 c -0.13 0.58 2.77 1.09 4 1 c 2.74 -0.21 6.15 -1.82 9 -2 c 2.19 -0.14 4.82 0.38 7 1 c 2.35 0.67 5.2 1.59 7 3 c 2.51 1.97 5.2 5.15 7 8 c 2.05 3.24 4.15 7.44 5 11 c 0.7 2.94 1.23 7.91 0 10 c -1.5 2.56 -6.69 6.54 -10 7 c -7.06 0.98 -18.48 0.24 -26 -2 c -6.97 -2.08 -14.88 -7.46 -21 -12 c -3.76 -2.79 -8.07 -7.02 -10 -11 c -2.96 -6.1 -6 -22 -6 -22"/></svg>