<?xml version="1.0" encoding="UTF-8" standalone="no"?><!DOCTYPE svg PUBLIC "-//W3C//DTD SVG 1.1//EN" "http://www.w3.org/Graphics/SVG/1.1/DTD/svg11.dtd"><svg xmlns="http://www.w3.org/2000/svg" version="1.1" width="241" height="159"><path fill="none" stroke="#000000" stroke-width="2" stroke-linecap="round" stroke-linejoin="round" d="M 58 1 c 0.09 0.82 3.85 32.35 5 47 c 0.1 1.28 -1 4 -1 4"/><path fill="none" stroke="#000000" stroke-width="2" stroke-linecap="round" stroke-linejoin="round" d="M 18 38 c -0.05 0.39 -3.21 16.86 -3 22 c 0.05 1.16 2.73 3 4 3 c 3.38 0 8.69 -1.69 13 -3 c 6.85 -2.08 13.26 -4.31 20 -7 c 12.11 -4.84 23.14 -10.2 35 -15 c 2.27 -0.92 5.03 -2.25 7 -2 c 2.66 0.33 6.45 2.2 9 4 c 5.14 3.64 15 13 15 13"/><path fill="none" stroke="#000000" stroke-width="2" stroke-linecap="round" stroke-linejoin="round" d="M 43 66 c -0.21 0.21 -8.2 7.66 -12 12 c -10.49 11.99 -30 36 -30 36"/><path fill="none" stroke="#000000" stroke-width="2" stroke-linecap="round" stroke-linejoin="round" d="M 22 94 c 0.07 0.54 2.91 20.31 4 31 c 0.98 9.6 2 28 2 28"/><path fill="none" stroke="#000000" stroke-width="2" stroke-linecap="round" stroke-linejoin="round" d="M 83 60 l 0 11"/><path fill="none" stroke="#000000" stroke-width="2" stroke-linecap="round" stroke-linejoin="round" d="M 55 95 c 0.35 -0.1 14.07 -4.76 20 -6 c 1.17 -0.24 2.99 0.37 4 1 c 1.39 0.87 3.08 2.51 4 4 c 1.6 2.59 2.81 5.88 4 9 c 1.53 4.01 2.9 7.86 4 12 c 1.61 6.03 4 18 4 18"/><path fill="none" stroke="#000000" stroke-width="2" stroke-linecap="round" stroke-linejoin="round" d="M 69 113 c 0.07 -0.03 2.62 -1.61 4 -2 c 3.14 -0.9 6.94 -1.78 10 -2 c 1.24 -0.09 3.63 0.38 4 1 c 0.37 0.62 -1.48 3.33 -1 4 c 0.78 1.09 6.23 1.85 6 3 c -0.84 4.22 -6.76 15.54 -11 22 c -2.44 3.71 -6.4 7.03 -10 10 c -4.02 3.32 -13.45 9.07 -13 9 c 0.99 -0.15 21.69 -8.77 33 -12 c 12.19 -3.48 24.61 -6.17 37 -8 c 7.86 -1.16 24 -1 24 -1"/><path fill="none" stroke="#000000" stroke-width="2" stroke-linecap="round" stroke-linejoin="round" d="M 120 109 c 0.47 -0.35 18.78 -12.62 27 -20 c 7.96 -7.15 14.62 -15.64 22 -24 c 2.9 -3.29 6.16 -6.47 8 -10 c 2.27 -4.36 5.57 -12.87 5 -15 c -0.32 -1.21 -6.81 -0.88 -9 0 c -2.07 0.83 -4.23 3.82 -6 6 c -2.54 3.13 -5.25 6.73 -7 10 c -0.73 1.37 -1.18 3.48 -1 5 c 0.43 3.69 3.32 8.39 3 12 c -0.59 6.66 -4.48 14.64 -6 22 c -0.8 3.89 -1.39 8.65 -1 12 c 0.19 1.62 1.69 3.77 3 5 c 3.69 3.46 8.44 7.02 13 10 c 4.1 2.68 8.53 5.03 13 7 c 3.83 1.69 8.04 2.36 12 4 c 9.95 4.13 19.43 8.21 29 13 c 5.27 2.63 15 9 15 9"/><path fill="none" stroke="#000000" stroke-width="2" stroke-linecap="round" stroke-linejoin="round" d="M 199 50 c 0.07 0.32 4.45 12.86 4 18 c -0.43 4.87 -7.44 13.21 -7 16 c 0.26 1.67 6.83 1.64 10 3 c 6.12 2.62 12.51 5.86 18 9 c 1.16 0.66 3.29 2.35 3 3 c -0.62 1.4 -4.74 5.5 -7 6 c -2.74 0.61 -11 -2 -11 -2"/></svg>