<?xml version="1.0" encoding="UTF-8" standalone="no"?><!DOCTYPE svg PUBLIC "-//W3C//DTD SVG 1.1//EN" "http://www.w3.org/Graphics/SVG/1.1/DTD/svg11.dtd"><svg xmlns="http://www.w3.org/2000/svg" version="1.1" width="293" height="203"><path fill="none" stroke="#000000" stroke-width="2" stroke-linecap="round" stroke-linejoin="round" d="M 60 1 c -0.02 0.49 -0.19 18.63 -1 28 c -0.53 6.1 -3 18 -3 18"/><path fill="none" stroke="#000000" stroke-width="2" stroke-linecap="round" stroke-linejoin="round" d="M 15 49 c -0.04 0.46 -3.19 22.43 -2 26 c 0.47 1.4 6.89 -0.82 10 -2 c 10.64 -4.05 21.06 -9.76 32 -14 c 5.55 -2.15 11.18 -3.63 17 -5 c 5.67 -1.33 11.32 -2.41 17 -3 c 3.95 -0.41 8.19 -0.56 12 0 c 4.93 0.73 10.38 2.46 15 4 c 1.07 0.36 2.2 1.2 3 2 c 1.1 1.1 2.8 2.69 3 4 l -1 9"/><path fill="none" stroke="#000000" stroke-width="2" stroke-linecap="round" stroke-linejoin="round" d="M 51 66 c -0.42 0.66 -16.08 24.69 -24 38 c -9.31 15.64 -26 46 -26 46"/><path fill="none" stroke="#000000" stroke-width="2" stroke-linecap="round" stroke-linejoin="round" d="M 30 107 c 0.09 0.65 3.6 24.2 5 37 c 1.7 15.49 2.31 30.07 4 45 c 0.31 2.73 2 8 2 8"/><path fill="none" stroke="#000000" stroke-width="2" stroke-linecap="round" stroke-linejoin="round" d="M 78 66 l 1 1"/><path fill="none" stroke="#000000" stroke-width="2" stroke-linecap="round" stroke-linejoin="round" d="M 58 110 c 0.19 -0.14 7.13 -5.68 11 -8 c 4.45 -2.67 9.62 -5.39 14 -7 c 1.4 -0.52 3.62 -0.34 5 0 c 1 0.25 2.4 1.14 3 2 c 1.5 2.14 3.16 5.21 4 8 c 3.09 10.29 5.9 21.12 8 32 c 1.6 8.31 3 25 3 25"/><path fill="none" stroke="#000000" stroke-width="2" stroke-linecap="round" stroke-linejoin="round" d="M 75 132 c 0.18 -0.14 6.89 -6.79 10 -8 c 1.96 -0.76 5.56 0.39 8 1 c 1.35 0.34 3.83 1.03 4 2 c 0.57 3.25 0.12 10.38 -1 15 c -1.44 5.93 -3.84 12.78 -7 18 c -4.19 6.93 -10.33 13.67 -16 20 c -2.98 3.32 -10.76 8.93 -10 9 c 1.8 0.17 20.36 -5.23 31 -7 c 15.86 -2.64 30.91 -4.32 47 -6 c 6.8 -0.71 13.31 -0.18 20 -1 c 9.83 -1.2 19.9 -2.92 29 -5 l 6 -3"/><path fill="none" stroke="#000000" stroke-width="2" stroke-linecap="round" stroke-linejoin="round" d="M 142 126 c 0.09 -0.1 3.61 -3.8 5 -6 c 11.3 -17.84 22.31 -35.29 33 -54 c 5.67 -9.92 14.67 -29.15 15 -30 c 0.09 -0.23 -4.34 4.46 -6 7 c -3.96 6.06 -7.51 12.39 -11 19 c -2.99 5.66 -5.89 11.2 -8 17 c -1.85 5.09 -3.56 11.55 -4 16 c -0.12 1.21 1.03 3.11 2 4 c 2.65 2.43 7.5 4.33 10 7 c 2.11 2.25 4.33 6.05 5 9 c 0.85 3.72 0.5 8.83 0 13 c -0.48 3.96 -1.45 8.26 -3 12 c -4.04 9.73 -13.11 22.43 -14 29 c -0.33 2.46 5.77 6.25 9 8 c 4.24 2.3 9.88 3.72 15 5 c 5.59 1.4 11.14 2.24 17 3 c 12.64 1.64 24.52 2.07 37 4 c 11.64 1.8 23.03 4.03 34 7 l 14 6"/><path fill="none" stroke="#000000" stroke-width="2" stroke-linecap="round" stroke-linejoin="round" d="M 204 67 c 0.14 0.09 5.59 3.11 8 5 c 2.17 1.7 4.26 3.83 6 6 c 2.22 2.77 4.67 5.9 6 9 c 1.52 3.54 2.69 8.13 3 12 c 0.33 4.08 -0.12 8.97 -1 13 c -0.72 3.33 -2.24 7.07 -4 10 c -2.09 3.48 -8.76 9.58 -8 10 c 1.05 0.58 11.26 -3.56 17 -5 c 2.29 -0.57 4.83 -1 7 -1 c 1.27 0 3.16 0.26 4 1 c 1.74 1.55 4.19 4.72 5 7 c 0.66 1.85 0.32 4.79 0 7 c -0.33 2.3 -0.95 5.05 -2 7 c -1.12 2.09 -3.07 4.79 -5 6 c -2.89 1.81 -7.79 4.3 -11 4 c -6.07 -0.57 -21 -7 -21 -7"/></svg>