<?xml version="1.0" encoding="UTF-8" standalone="no"?><!DOCTYPE svg PUBLIC "-//W3C//DTD SVG 1.1//EN" "http://www.w3.org/Graphics/SVG/1.1/DTD/svg11.dtd"><svg xmlns="http://www.w3.org/2000/svg" version="1.1" width="104" height="107"><path fill="none" stroke="#000000" stroke-width="2" stroke-linecap="round" stroke-linejoin="round" d="M 12 57 c 0.03 0.66 0.23 30.13 2 38 c 0.34 1.5 4.76 1.87 7 2 c 3.09 0.18 6.89 -0.19 10 -1 c 4.32 -1.13 8.63 -3.94 13 -5 c 5.06 -1.22 11.42 -0.53 16 -2 c 3.07 -0.98 6.64 -3.54 9 -6 c 5.28 -5.5 11.09 -12.23 15 -19 c 5.85 -10.14 10.35 -21.75 15 -33 c 1.74 -4.22 3.37 -8.74 4 -13 c 0.65 -4.39 1.38 -11.39 0 -14 c -0.94 -1.77 -6.09 -2.78 -9 -3 c -5.22 -0.4 -11.87 -0.35 -17 1 c -6.88 1.81 -14.34 5.32 -21 9 c -12.71 7.01 -25.75 14.8 -37 23 c -4.2 3.07 -8.04 7.73 -11 12 c -2.84 4.11 -5.83 9.48 -7 14 c -0.97 3.75 -0.34 8.7 0 13 c 0.32 4.02 0.08 9.72 2 12 c 2.47 2.93 9.39 5.68 14 7 c 4.13 1.18 9.82 1.76 14 1 c 6.03 -1.1 13.87 -3.68 19 -7 c 5.38 -3.48 10.1 -9.64 15 -15 c 9.49 -10.39 26.36 -30.68 27 -31 c 0.52 -0.26 -14.62 18.25 -19 27 c -2.01 4.01 -3.16 11.53 -2 15 c 1.03 3.09 7.1 5.88 10 9 c 1.26 1.35 2.56 3.37 3 5 c 0.46 1.68 0.74 4.76 0 6 l -6 4"/></svg>