<?xml version="1.0" encoding="UTF-8" standalone="no"?><!DOCTYPE svg PUBLIC "-//W3C//DTD SVG 1.1//EN" "http://www.w3.org/Graphics/SVG/1.1/DTD/svg11.dtd"><svg xmlns="http://www.w3.org/2000/svg" version="1.1" width="293" height="167"><path fill="none" stroke="#000000" stroke-width="2" stroke-linecap="round" stroke-linejoin="round" d="M 102 1 c 0.02 0.24 1.18 9.48 1 14 c -0.14 3.6 -0.83 8.26 -2 11 c -0.53 1.23 -2.57 2.39 -4 3 c -2.98 1.28 -6.66 2.61 -10 3 c -7.69 0.9 -15.8 0.41 -24 1 c -6.18 0.44 -13.04 0.35 -18 2 c -3.12 1.04 -6.89 4.26 -9 7 c -3.15 4.08 -5.62 9.84 -8 15 c -1.64 3.55 -4 8.57 -4 11 c 0 1.04 2.75 3.06 4 3 c 4.13 -0.21 10.63 -2.32 16 -4 c 16.49 -5.15 31.6 -11.15 48 -16 c 7.63 -2.26 23 -5 23 -5"/><path fill="none" stroke="#000000" stroke-width="2" stroke-linecap="round" stroke-linejoin="round" d="M 157 49 l 1 1"/><path fill="none" stroke="#000000" stroke-width="2" stroke-linecap="round" stroke-linejoin="round" d="M 84 52 c -0.05 0.07 -1.82 2.89 -3 4 c -3.7 3.45 -8.16 6.33 -12 10 c -11.13 10.62 -21.18 20.71 -32 32 c -12.69 13.25 -36 39 -36 39"/><path fill="none" stroke="#000000" stroke-width="2" stroke-linecap="round" stroke-linejoin="round" d="M 34 111 c 0.12 0 5.38 -0.86 7 0 c 2.62 1.4 6.76 4.99 8 8 c 2.92 7.1 4.5 17.18 6 26 c 1.19 6.97 2 21 2 21"/><path fill="none" stroke="#000000" stroke-width="2" stroke-linecap="round" stroke-linejoin="round" d="M 101 63 l 2 4"/><path fill="none" stroke="#000000" stroke-width="2" stroke-linecap="round" stroke-linejoin="round" d="M 94 98 c 0.26 -0.12 10.29 -5.35 15 -7 c 1.42 -0.5 3.68 -0.44 5 0 c 1.32 0.44 3.1 1.77 4 3 c 2.51 3.42 5.22 7.91 7 12 c 1.46 3.35 2.05 7.19 3 11 c 0.77 3.08 1.85 6.1 2 9 c 0.17 3.16 -1 10 -1 10"/><path fill="none" stroke="#000000" stroke-width="2" stroke-linecap="round" stroke-linejoin="round" d="M 100 121 c 0.3 -0.12 12.26 -6.21 17 -7 c 1.96 -0.33 4.62 1.92 7 3 c 1.4 0.64 3.7 1 4 2 c 0.99 3.38 2.76 11.71 1 15 c -2.65 4.96 -11 11.17 -17 15 c -5.45 3.48 -19.8 7.69 -19 8 c 1.43 0.56 24.24 -0.3 37 -1 c 24.88 -1.37 72 -5 72 -5"/><path fill="none" stroke="#000000" stroke-width="2" stroke-linecap="round" stroke-linejoin="round" d="M 173 116 c 0.21 -0.3 8.34 -10.97 12 -17 c 8.9 -14.67 17.5 -29 25 -44 c 3.47 -6.94 5.64 -14.66 8 -22 c 0.61 -1.91 1.7 -5.94 1 -6 c -1.61 -0.13 -9.19 2.91 -13 5 c -2.52 1.39 -5.02 3.76 -7 6 c -2.92 3.3 -6.52 7.49 -8 11 c -0.87 2.06 -0.37 5.57 0 8 c 0.25 1.64 0.98 3.66 2 5 c 4.02 5.28 10.48 10.62 14 16 c 1.73 2.64 2.55 6.72 3 10 c 0.51 3.78 0.51 8.22 0 12 c -0.45 3.28 -1.73 6.75 -3 10 c -1.74 4.46 -4.6 8.63 -6 13 c -1.19 3.71 -2.98 9.07 -2 12 c 1.26 3.77 6.32 8.82 10 12 c 3.27 2.83 7.87 5.18 12 7 c 4.04 1.78 8.56 2.89 13 4 c 3.65 0.91 7.2 1.52 11 2 c 12.3 1.57 23.81 2.96 36 4 l 11 0"/><path fill="none" stroke="#000000" stroke-width="2" stroke-linecap="round" stroke-linejoin="round" d="M 240 61 c 0.16 0.12 8.17 4.2 9 7 c 2.19 7.38 2.22 20.46 2 30 c -0.1 4.23 -1.5 9.01 -3 13 c -1.41 3.75 -6.76 10.24 -6 11 c 0.83 0.83 8.61 -2.9 13 -4 c 2.28 -0.57 6.66 -1.09 7 -1 l -3 2"/></svg>