<?xml version="1.0" encoding="UTF-8" standalone="no"?><!DOCTYPE svg PUBLIC "-//W3C//DTD SVG 1.1//EN" "http://www.w3.org/Graphics/SVG/1.1/DTD/svg11.dtd"><svg xmlns="http://www.w3.org/2000/svg" version="1.1" width="295" height="189"><path fill="none" stroke="#000000" stroke-width="2" stroke-linecap="round" stroke-linejoin="round" d="M 84 1 c 0.05 0.61 2.44 24.01 3 35 c 0.07 1.29 -0.26 3.47 -1 4 c -1.09 0.78 -4.42 1.59 -6 1 c -6.18 -2.29 -14.5 -8.35 -21 -11 c -1.65 -0.67 -4.18 -0.33 -6 0 c -1.63 0.3 -3.67 1.03 -5 2 c -2.09 1.52 -4.29 3.78 -6 6 c -4.92 6.4 -15.21 20.1 -14 20 c 2.22 -0.18 25.51 -14.92 39 -22 c 7.28 -3.82 14.42 -7.04 22 -10 c 6.25 -2.44 12.58 -4.44 19 -6 c 4.56 -1.11 9.29 -1.61 14 -2 c 3.33 -0.28 6.69 -0.21 10 0 c 2.01 0.13 4.25 0.42 6 1 c 1.04 0.35 2.22 1.22 3 2 l 2 3"/><path fill="none" stroke="#000000" stroke-width="2" stroke-linecap="round" stroke-linejoin="round" d="M 70 47 c -0.52 0.33 -20.72 11.95 -30 19 c -7.21 5.48 -13.42 12.25 -20 19 c -6.75 6.93 -19.55 20.45 -19 21 c 0.56 0.56 15.92 -11.51 24 -16 c 3.54 -1.97 8.43 -3.33 12 -4 c 1.16 -0.22 3.4 0.16 4 1 c 2.08 2.92 4.53 8.58 6 13 c 1.47 4.42 2.31 9.2 3 14 c 1.35 9.43 2.32 18.5 3 28 c 0.34 4.72 0 14 0 14"/><path fill="none" stroke="#000000" stroke-width="2" stroke-linecap="round" stroke-linejoin="round" d="M 113 39 l -2 10"/><path fill="none" stroke="#000000" stroke-width="2" stroke-linecap="round" stroke-linejoin="round" d="M 77 76 c 0.52 -0.28 19.78 -11.41 30 -16 c 5.99 -2.69 13.81 -5.1 19 -6 c 1.16 -0.2 3.36 1.04 4 2 c 1.04 1.56 1.57 4.61 2 7 c 0.9 4.97 1.77 9.9 2 15 c 0.78 17.53 1 52 1 52"/><path fill="none" stroke="#000000" stroke-width="2" stroke-linecap="round" stroke-linejoin="round" d="M 103 87 c 0.4 -0.14 17.13 -6.65 23 -8 c 0.87 -0.2 3.22 1.39 3 2 c -1.05 2.97 -9.75 12.86 -9 15 c 0.65 1.85 13.99 -0.03 15 2 c 1.14 2.29 -3.2 11.57 -6 16 c -3.13 4.95 -8.21 10.2 -13 14 c -6.19 4.92 -13.87 9.21 -21 13 c -3.38 1.8 -11.48 3.96 -11 4 c 3.71 0.28 60.1 0.82 90 2 c 3.71 0.15 7.26 1.6 11 2 c 5.7 0.61 11.46 1 17 1 l 6 -1"/><path fill="none" stroke="#000000" stroke-width="2" stroke-linecap="round" stroke-linejoin="round" d="M 164 86 c 0.44 -0.35 16.49 -12.99 25 -20 c 3.2 -2.63 6.12 -5.12 9 -8 c 3.9 -3.9 10.5 -10.9 11 -12 c 0.19 -0.41 -4.25 0.42 -6 1 c -1.04 0.35 -2.22 1.22 -3 2 c -0.78 0.78 -1.76 1.96 -2 3 c -0.67 2.89 -1.29 6.91 -1 10 c 0.33 3.51 3.53 7.92 3 11 c -0.92 5.31 -4.84 12.43 -8 18 c -2.4 4.24 -6.72 8.12 -9 12 c -0.78 1.32 -1.84 4.25 -1 5 c 6.03 5.4 22.25 13.68 30 21 c 3.03 2.86 5.03 8.79 6 13 c 0.88 3.82 0.5 8.83 0 13 c -0.48 3.96 -2.57 8.31 -3 12 c -0.18 1.52 0.2 3.85 1 5 c 1.23 1.76 3.8 3.86 6 5 c 5.8 3.01 12.66 6.14 19 8 c 4.65 1.37 9.89 1.71 15 2 c 12.83 0.73 38 1 38 1"/><path fill="none" stroke="#000000" stroke-width="2" stroke-linecap="round" stroke-linejoin="round" d="M 228 49 c 0.18 0.11 6.94 3.81 10 6 c 1.49 1.06 3.3 2.5 4 4 c 1.41 3.02 2.88 7.49 3 11 c 0.19 5.57 -0.83 12.13 -2 18 c -1.15 5.74 -2.89 11.54 -5 17 c -1.87 4.82 -4.33 9.55 -7 14 c -2.32 3.87 -8 9.94 -8 11 c 0 0.64 5.37 -1.1 8 -2 c 9.2 -3.15 20.18 -8.18 27 -10 c 0.85 -0.23 2.58 1.17 3 2 c 0.7 1.41 1.25 4.24 1 6 c -0.35 2.47 -1.42 6.17 -3 8 c -2.26 2.61 -6.57 5.19 -10 7 l -9 3"/></svg>