<?xml version="1.0" encoding="UTF-8" standalone="no"?><!DOCTYPE svg PUBLIC "-//W3C//DTD SVG 1.1//EN" "http://www.w3.org/Graphics/SVG/1.1/DTD/svg11.dtd"><svg xmlns="http://www.w3.org/2000/svg" version="1.1" width="291" height="172"><path fill="none" stroke="#000000" stroke-width="2" stroke-linecap="round" stroke-linejoin="round" d="M 21 21 c 0.09 0.45 3.02 17.11 5 26 c 2.15 9.69 4.31 18.48 7 28 c 2.45 8.66 4.92 16.54 8 25 c 5.16 14.19 9.99 27.38 16 41 c 4.15 9.41 14 27 14 27"/><path fill="none" stroke="#000000" stroke-width="2" stroke-linecap="round" stroke-linejoin="round" d="M 50 45 c -0.02 0.21 -0.39 7.97 -1 12 c -1.08 7.15 -2.45 13.82 -4 21 c -1.2 5.54 -2.3 10.74 -4 16 c -1.66 5.15 -3.62 10.24 -6 15 c -1.92 3.84 -4.42 7.5 -7 11 c -2.1 2.85 -4.45 5.96 -7 8 c -2.14 1.71 -5.42 3.31 -8 4 c -2.02 0.54 -5.41 0.72 -7 0 c -1.46 -0.66 -3.51 -3.25 -4 -5 c -0.99 -3.56 -1.51 -8.95 -1 -13 c 0.76 -6.1 2.43 -13.41 5 -19 c 2.83 -6.16 7.53 -12.49 12 -18 c 4.1 -5.04 9.01 -9.9 14 -14 c 4.19 -3.45 9.19 -6.39 14 -9 c 3.11 -1.69 6.74 -3.41 10 -4 c 3.63 -0.66 9.83 1.3 12 0 l 3 -9"/><path fill="none" stroke="#000000" stroke-width="2" stroke-linecap="round" stroke-linejoin="round" d="M 77 20 c 0.02 0.12 0.43 4.74 1 7 c 0.76 3.04 1.83 6 3 9 c 1.21 3.11 2.38 6.24 4 9 c 1.65 2.8 3.69 5.98 6 8 c 2.69 2.36 6.58 4.66 10 6 c 3.91 1.53 8.7 2.44 13 3 c 3.22 0.42 7 0.53 10 0 l 7 -3"/><path fill="none" stroke="#000000" stroke-width="2" stroke-linecap="round" stroke-linejoin="round" d="M 126 40 c -0.05 0.25 -2.71 9.3 -3 14 c -1.03 16.73 -0.08 33.77 -1 51 c -0.44 8.17 -3 24 -3 24"/><path fill="none" stroke="#000000" stroke-width="2" stroke-linecap="round" stroke-linejoin="round" d="M 80 112 c 0.19 -0.1 7.16 -4.22 11 -6 c 5.63 -2.62 11.27 -5.09 17 -7 c 3.18 -1.06 6.68 -1.63 10 -2 c 2.61 -0.29 5.57 -0.37 8 0 c 1.64 0.25 4.32 1.05 5 2 c 0.63 0.88 0.47 3.58 0 5 c -1.05 3.16 -2.85 7.22 -5 10 c -3.26 4.22 -7.66 8.21 -12 12 c -11.63 10.15 -33.92 26.09 -35 29 c -0.59 1.6 16.66 -0.73 25 -2 c 11.54 -1.76 22.49 -5 34 -7 c 3.99 -0.69 7.9 -0.9 12 -1 c 10.56 -0.25 31 0 31 0"/><path fill="none" stroke="#000000" stroke-width="2" stroke-linecap="round" stroke-linejoin="round" d="M 232 1 c -0.12 0.28 -4.15 10.91 -7 16 c -6.53 11.66 -13.28 23.19 -21 34 c -5.61 7.86 -20.08 22 -19 22 c 1.63 0 25.15 -15.33 38 -22 c 4.35 -2.26 9.61 -4.24 14 -5 c 2.67 -0.46 6.64 0.21 9 1 c 1.11 0.37 2.57 1.87 3 3 c 1.04 2.71 2.49 7.08 2 10 c -1.01 6.07 -3.91 13.82 -7 20 c -4.45 8.9 -10.24 17.27 -16 26 c -5.55 8.41 -10.67 16.46 -17 24 c -9.44 11.25 -20 22.75 -30 32 l -10 5"/><path fill="none" stroke="#000000" stroke-width="2" stroke-linecap="round" stroke-linejoin="round" d="M 207 87 l 13 14"/><path fill="none" stroke="#000000" stroke-width="2" stroke-linecap="round" stroke-linejoin="round" d="M 231 145 c 0.23 -0.31 8.32 -12.3 13 -18 c 2.98 -3.63 6.42 -7.56 10 -10 c 3.29 -2.24 8.21 -4.34 12 -5 c 3.22 -0.56 7.71 0.13 11 1 c 2.67 0.7 6.12 2.28 8 4 c 1.69 1.55 3.31 4.65 4 7 c 0.86 2.92 1.51 7.05 1 10 c -0.71 4.09 -2.79 9.17 -5 13 c -2.61 4.52 -6.25 9.58 -10 13 c -3.49 3.19 -8.59 6.2 -13 8 c -4.14 1.69 -9.55 2.84 -14 3 c -4.39 0.16 -14 -2 -14 -2"/></svg>