<?xml version="1.0" encoding="UTF-8" standalone="no"?><!DOCTYPE svg PUBLIC "-//W3C//DTD SVG 1.1//EN" "http://www.w3.org/Graphics/SVG/1.1/DTD/svg11.dtd"><svg xmlns="http://www.w3.org/2000/svg" version="1.1" width="263" height="181"><path fill="none" stroke="#000000" stroke-width="2" stroke-linecap="round" stroke-linejoin="round" d="M 1 52 c 0.07 -0.03 2.59 -1.63 4 -2 c 22.07 -5.82 68 -17 68 -17"/><path fill="none" stroke="#000000" stroke-width="2" stroke-linecap="round" stroke-linejoin="round" d="M 47 9 c -0.02 0.16 -0.93 5.94 -1 9 c -0.27 11.14 0.52 22.36 0 33 c -0.13 2.66 -1.02 5.55 -2 8 c -0.96 2.39 -2.48 4.91 -4 7 c -1.07 1.47 -2.51 2.91 -4 4 c -3.42 2.51 -10.22 6.11 -11 7 c -0.25 0.28 3.02 1.48 4 1 c 10.14 -4.95 24.42 -14.46 37 -21 c 4.12 -2.14 13 -5 13 -5"/><path fill="none" stroke="#000000" stroke-width="2" stroke-linecap="round" stroke-linejoin="round" d="M 37 90 c 0 0.28 -0.46 10.99 0 16 c 0.18 1.98 2 6 2 6"/><path fill="none" stroke="#000000" stroke-width="2" stroke-linecap="round" stroke-linejoin="round" d="M 37 94 c 0.11 -0.07 3.99 -3.09 6 -4 c 1.42 -0.65 3.42 -0.43 5 -1 c 6.68 -2.4 16.28 -8 20 -8 c 1.47 0 3.73 5.87 3 8 c -5.25 15.27 -15.89 37.15 -25 56 c -5.92 12.24 -19 35 -19 35"/><path fill="none" stroke="#000000" stroke-width="2" stroke-linecap="round" stroke-linejoin="round" d="M 59 124 c 0 0.89 -0.55 35.79 0 51 c 0.05 1.33 1.13 3.27 2 4 c 0.8 0.67 2.82 1.12 4 1 c 1.81 -0.18 4.95 -0.66 6 -2 c 4.01 -5.12 8.57 -13.69 12 -21 c 4.27 -9.09 9.74 -22.58 11 -28 c 0.19 -0.81 -2.72 -2 -4 -2 c -5.77 0 -13.42 0.94 -20 2 c -3.73 0.6 -9.84 1.84 -11 3 c -0.6 0.6 1.56 4.32 3 5 c 8.13 3.83 20.42 6.91 31 11 c 15.29 5.91 29.43 12.35 44 18 l 5 1"/><path fill="none" stroke="#000000" stroke-width="2" stroke-linecap="round" stroke-linejoin="round" d="M 108 32 c 0.05 0.09 2.55 3.3 3 5 c 0.78 2.92 0.11 7.16 1 10 c 0.64 2.03 2.5 4.17 4 6 c 1.47 1.8 5 5 5 5"/><path fill="none" stroke="#000000" stroke-width="2" stroke-linecap="round" stroke-linejoin="round" d="M 159 21 c -0.28 0.44 -11 16.43 -16 25 c -2.03 3.49 -5 11 -5 11"/><path fill="none" stroke="#000000" stroke-width="2" stroke-linecap="round" stroke-linejoin="round" d="M 117 78 c -0.12 0.05 -7.33 2.91 -7 3 c 0.78 0.21 11.88 0.3 18 0 c 7.85 -0.38 19.83 -2.29 23 -2 c 0.57 0.05 -0.18 3.18 -1 4 c -6.08 6.08 -15.89 13.15 -23 20 c -2.01 1.93 -5 5.72 -5 7 c 0 0.8 3.35 1.82 5 2 c 3.97 0.44 10.87 -1.22 13 0 c 1.32 0.76 0.82 5.3 1 8 c 0.16 2.35 0.47 4.87 0 7 c -0.79 3.56 -2.24 7.83 -4 11 c -1.39 2.5 -4.49 4.48 -6 7 c -2.35 3.92 -6.65 11.31 -6 13 c 0.5 1.3 7.68 0.83 11 0 c 8.03 -2.01 16.59 -5.68 25 -9 l 13 -6"/><path fill="none" stroke="#000000" stroke-width="2" stroke-linecap="round" stroke-linejoin="round" d="M 157 64 c 0.18 -0.02 6.76 -0.35 10 -1 c 3.36 -0.67 6.58 -1.84 10 -3 c 20.08 -6.79 38.73 -14.79 58 -20 c 8.53 -2.31 27 -3 27 -3"/><path fill="none" stroke="#000000" stroke-width="2" stroke-linecap="round" stroke-linejoin="round" d="M 186 19 c 0.04 0.25 0.82 9.45 2 14 c 3.15 12.12 6.6 24.89 11 36 c 1.69 4.26 8 12 8 12"/><path fill="none" stroke="#000000" stroke-width="2" stroke-linecap="round" stroke-linejoin="round" d="M 226 1 c -0.02 0.1 -0.94 3.98 -1 6 c -0.27 9.61 -0.72 19.41 0 29 c 0.61 8.05 2.92 15.81 4 24 c 0.62 4.73 1 14 1 14"/><path fill="none" stroke="#000000" stroke-width="2" stroke-linecap="round" stroke-linejoin="round" d="M 223 54 c -0.07 0.05 -3.44 1.78 -4 3 c -1.15 2.49 -0.97 6.9 -2 10 c -0.91 2.72 -2.47 5.51 -4 8 c -1.1 1.78 -4 5 -4 5"/><path fill="none" stroke="#000000" stroke-width="2" stroke-linecap="round" stroke-linejoin="round" d="M 178 95 c -0.17 0.02 -10 0.78 -10 1 c 0 0.22 6.75 1.13 10 1 c 4.9 -0.2 10.29 -0.6 15 -2 c 10.64 -3.17 20.89 -8.1 32 -12 c 8.53 -2.99 16.93 -6.15 25 -8 c 3.08 -0.7 10 0 10 0"/><path fill="none" stroke="#000000" stroke-width="2" stroke-linecap="round" stroke-linejoin="round" d="M 224 98 c 0.07 0.07 2.56 2.88 4 4 c 1.49 1.16 3.64 1.76 5 3 c 2.47 2.26 5.24 5.27 7 8 c 1.05 1.63 1.84 4.02 2 6 c 0.48 5.95 0.62 13 0 19 c -0.34 3.3 -1.64 6.94 -3 10 c -1.23 2.76 -2.96 5.76 -5 8 c -4.43 4.87 -10.27 10.27 -15 14 l -4 1"/><path fill="none" stroke="#000000" stroke-width="2" stroke-linecap="round" stroke-linejoin="round" d="M 214 101 c -0.1 0.02 -4.71 0.1 -6 1 c -1.53 1.07 -2.83 3.86 -4 6 c -7.3 13.43 -21 40 -21 40"/></svg>