<?xml version="1.0" encoding="UTF-8" standalone="no"?><!DOCTYPE svg PUBLIC "-//W3C//DTD SVG 1.1//EN" "http://www.w3.org/Graphics/SVG/1.1/DTD/svg11.dtd"><svg xmlns="http://www.w3.org/2000/svg" version="1.1" width="171" height="161"><path fill="none" stroke="#000000" stroke-width="2" stroke-linecap="round" stroke-linejoin="round" d="M 1 54 c 0.12 -0.11 4.41 -5.18 7 -6 c 10.63 -3.38 24.35 -5.61 37 -8 c 5.39 -1.02 10.58 -1.85 16 -2 c 19.15 -0.52 57 0 57 0"/><path fill="none" stroke="#000000" stroke-width="2" stroke-linecap="round" stroke-linejoin="round" d="M 112 1 c -0.17 0.05 -7.37 1.39 -10 3 c -2.85 1.74 -5.65 5.03 -8 8 c -14.08 17.81 -27.48 35.22 -41 54 c -6.64 9.22 -12.29 18.24 -18 28 c -4.83 8.26 -9.03 16.27 -13 25 c -6.25 13.75 -17 41 -17 41"/><path fill="none" stroke="#000000" stroke-width="2" stroke-linecap="round" stroke-linejoin="round" d="M 92 86 c 0.23 0.21 8.37 8.69 13 12 c 4.45 3.18 9.76 5.38 15 8 c 7.18 3.59 13.74 7.24 21 10 c 9.48 3.6 29 9 29 9"/></svg>