<?xml version="1.0" encoding="UTF-8" standalone="no"?><!DOCTYPE svg PUBLIC "-//W3C//DTD SVG 1.1//EN" "http://www.w3.org/Graphics/SVG/1.1/DTD/svg11.dtd"><svg xmlns="http://www.w3.org/2000/svg" version="1.1" width="350" height="243"><path fill="none" stroke="#000000" stroke-width="2" stroke-linecap="round" stroke-linejoin="round" d="M 1 58 l 7 73"/><path fill="none" stroke="#000000" stroke-width="2" stroke-linecap="round" stroke-linejoin="round" d="M 6 78 c 0.11 -0.28 3.61 -11.22 6 -16 c 1.09 -2.18 3.05 -4.7 5 -6 c 3.58 -2.39 8.64 -4.71 13 -6 c 4.31 -1.28 9.43 -1.81 14 -2 c 3.24 -0.14 8.95 -0.63 10 1 c 1.68 2.6 1.48 10.99 1 16 c -0.47 4.85 -1.46 10.9 -4 15 c -12.19 19.72 -42.25 59.93 -43 61 c -0.17 0.25 6.38 -9.37 10 -14 c 4.93 -6.31 9.71 -11.9 15 -18 c 3.68 -4.24 7.08 -8.08 11 -12 c 3.92 -3.92 9.42 -9.62 12 -11 c 0.67 -0.36 3.09 2.01 3 3 c -0.42 4.58 -2.24 13.6 -5 19 c -3.83 7.47 -10.69 14.28 -16 22 c -6.06 8.82 -11.52 16.93 -17 26 c -4.42 7.32 -8.08 14.38 -12 22 c -1.89 3.67 -3.62 7.33 -5 11 c -0.58 1.55 -1.41 5.12 -1 5 c 1.08 -0.32 7.69 -4.89 11 -8 c 18.74 -17.6 52.14 -52.27 55 -54 c 1.13 -0.68 -6.91 19.4 -12 28 c -9.73 16.44 -32.84 46.99 -33 48 c -0.12 0.81 20.68 -22.75 31 -35 c 6.13 -7.28 11.49 -14.29 17 -22 c 4.73 -6.62 9.62 -13.24 13 -20 l 4 -14"/><path fill="none" stroke="#000000" stroke-width="2" stroke-linecap="round" stroke-linejoin="round" d="M 57 126 c -0.09 0.26 -4.12 9.94 -5 15 c -1.73 9.97 -1.73 20.38 -3 31 c -0.79 6.56 -1.39 12.75 -3 19 c -4.44 17.28 -15 51 -15 51"/><path fill="none" stroke="#000000" stroke-width="2" stroke-linecap="round" stroke-linejoin="round" d="M 64 164 c 0.3 0.19 11.74 7 17 11 c 2.94 2.24 5.56 5.1 8 8 c 4.61 5.49 9.14 11.11 13 17 c 2.42 3.69 3.92 9.3 6 12 l 4 1"/><path fill="none" stroke="#000000" stroke-width="2" stroke-linecap="round" stroke-linejoin="round" d="M 129 66 c 0.16 -0.07 6 -3.17 9 -4 c 2.75 -0.77 6.45 0.11 9 -1 c 9.59 -4.18 20.48 -10.34 30 -16 c 2.58 -1.53 7 -6 7 -6"/><path fill="none" stroke="#000000" stroke-width="2" stroke-linecap="round" stroke-linejoin="round" d="M 153 19 c -0.02 0.35 -0.85 13.1 -1 20 c -0.19 8.95 -0.27 17.38 0 26 c 0.06 2.02 0.33 4.32 1 6 c 0.55 1.38 1.89 3.2 3 4 c 0.92 0.66 2.67 0.93 4 1 c 4.51 0.25 14 0 14 0"/><path fill="none" stroke="#000000" stroke-width="2" stroke-linecap="round" stroke-linejoin="round" d="M 124 138 c 0.05 0.14 2.63 5.38 3 8 c 0.57 3.99 -0.28 8.62 0 13 c 0.39 6.1 2 18 2 18"/><path fill="none" stroke="#000000" stroke-width="2" stroke-linecap="round" stroke-linejoin="round" d="M 147 153 c 0.23 0.09 8.69 3.07 13 5 c 5.54 2.48 10.77 6.04 16 8 c 2.36 0.88 5.34 1 8 1 c 5.61 0 12.76 0.73 17 -1 c 3.52 -1.44 7.85 -6.27 10 -10 c 3.75 -6.51 6.74 -15.72 9 -23 c 0.55 -1.77 0.46 -4.32 0 -6 c -0.44 -1.63 -1.73 -4.47 -3 -5 c -1.95 -0.81 -6.67 -0.78 -9 0 c -2.02 0.67 -4.25 3.13 -6 5 c -2.86 3.07 -5.91 6.75 -8 10 c -0.67 1.05 -1.3 3.9 -1 4 c 0.36 0.12 2.95 -1.78 4 -3 c 5.08 -5.88 10.27 -12.31 15 -19 c 5.1 -7.21 14 -22 14 -22"/><path fill="none" stroke="#000000" stroke-width="2" stroke-linecap="round" stroke-linejoin="round" d="M 262 1 c -0.1 0.09 -5.3 3.09 -6 5 c -1.26 3.43 -1.22 9.8 -1 14 c 0.08 1.61 0.96 4.62 2 5 c 1.75 0.63 6.47 0.08 9 -1 c 6.13 -2.63 12.84 -7.92 19 -11 c 1.43 -0.71 3.42 -1 5 -1 c 1.88 0 6.09 0.1 6 1 c -0.31 3.06 -4.78 13.04 -8 19 c -3.38 6.26 -8.41 11.68 -12 18 c -4.83 8.5 -8.99 17.08 -13 26 c -2.05 4.56 -3.58 9.2 -5 14 c -1.28 4.31 -2.37 8.61 -3 13 c -0.71 4.94 -0.92 9.85 -1 15 c -0.26 16.78 -0.56 33.94 0 49 c 0.06 1.66 0.98 3.98 2 5 c 1.28 1.28 4.03 2.63 6 3 c 2.93 0.55 6.6 0.16 10 0 c 3.75 -0.18 7.4 -0.26 11 -1 c 9.41 -1.93 18.83 -5.39 28 -7 c 3.81 -0.67 8.91 0.62 12 0 l 3 -3"/><path fill="none" stroke="#000000" stroke-width="2" stroke-linecap="round" stroke-linejoin="round" d="M 276 81 c 0 -0.1 -0.69 -5.04 0 -6 c 0.58 -0.82 3.71 -1.35 5 -1 c 1.83 0.5 4.81 2.34 6 4 c 1.77 2.48 2.91 6.56 4 10 c 1.26 3.95 2.35 7.95 3 12 c 0.68 4.26 1 8.61 1 13 c 0 8.09 -0.08 16.4 -1 24 c -0.36 3 -1.55 6.35 -3 9 c -2.41 4.42 -5.85 9.4 -9 13 c -1.16 1.33 -3.31 2.32 -5 3 c -1.48 0.59 -3.34 0.83 -5 1 c -1.63 0.16 -3.61 0.42 -5 0 c -1.62 -0.49 -4.24 -1.69 -5 -3 c -1.21 -2.07 -1.67 -6.02 -2 -9 c -0.32 -2.91 -1.09 -6.73 0 -9 c 2.7 -5.61 8.58 -12.54 13 -18 c 1 -1.23 3.38 -3.31 4 -3 c 0.79 0.39 1.84 4.14 2 6 c 0.15 1.79 -0.45 4.15 -1 6 c -0.41 1.36 -1.54 4 -2 4 c -0.46 0 -2.44 -3.03 -2 -4 c 3.33 -7.32 11.78 -18.86 17 -29 c 6.67 -12.95 12.11 -25.61 18 -39 c 1.61 -3.65 2.39 -7.58 4 -11 c 0.99 -2.11 2.51 -4.51 4 -6 c 0.92 -0.92 3.88 -2.54 4 -2 c 0.54 2.41 0.98 13.79 0 20 c -0.93 5.89 -4.55 12.22 -6 18 c -0.46 1.83 -1.01 5.7 0 6 c 3.35 1.01 15.53 -1.3 20 0 c 1.8 0.53 3.46 4.71 4 7 c 0.67 2.84 0.63 7.03 0 10 c -0.62 2.92 -2.34 6.29 -4 9 c -1.92 3.14 -4.58 6.58 -7 9 c -0.95 0.95 -3.07 2.13 -4 2 c -0.89 -0.13 -2.75 -2.01 -3 -3 c -0.3 -1.19 0.04 -4.72 1 -5 c 3.02 -0.89 11.08 -0.62 16 0 c 2.63 0.33 5.95 1.77 8 3 c 0.87 0.52 1.61 1.97 2 3 l 1 5"/></svg>