<?xml version="1.0" encoding="UTF-8" standalone="no"?><!DOCTYPE svg PUBLIC "-//W3C//DTD SVG 1.1//EN" "http://www.w3.org/Graphics/SVG/1.1/DTD/svg11.dtd"><svg xmlns="http://www.w3.org/2000/svg" version="1.1" width="181" height="156"><path fill="none" stroke="#000000" stroke-width="2" stroke-linecap="round" stroke-linejoin="round" d="M 180 50 c -0.09 0.16 -3.82 5.91 -5 9 c -1.41 3.71 -2.27 7.86 -3 12 c -2.33 13.2 -4.57 25.64 -6 39 c -1.64 15.27 -3 45 -3 45"/><path fill="none" stroke="#000000" stroke-width="2" stroke-linecap="round" stroke-linejoin="round" d="M 143 7 c -0.3 0.33 -12.17 12.28 -17 19 c -4.32 6.02 -6.98 13.29 -11 20 c -5.23 8.72 -11.11 16.3 -16 25 c -4.2 7.47 -7.38 23.43 -11 23 c -5.93 -0.71 -29.3 -20.49 -31 -28 c -1.28 -5.65 13.22 -16.33 19 -25 c 3.54 -5.31 7.26 -11.43 9 -17 c 1.36 -4.35 1.6 -11.21 1 -15 c -0.23 -1.43 -2.47 -3.47 -4 -4 c -5.24 -1.82 -12.76 -3.56 -19 -4 c -7.72 -0.54 -17.28 -1.24 -24 1 c -8.78 2.93 -18.93 10.37 -27 16 c -2.37 1.65 -4.24 4.53 -6 7 c -1.54 2.16 -3.31 4.65 -4 7 l -1 10"/></svg>