<?xml version="1.0" encoding="UTF-8" standalone="no"?><!DOCTYPE svg PUBLIC "-//W3C//DTD SVG 1.1//EN" "http://www.w3.org/Graphics/SVG/1.1/DTD/svg11.dtd"><svg xmlns="http://www.w3.org/2000/svg" version="1.1" width="178" height="127"><path fill="none" stroke="#000000" stroke-width="2" stroke-linecap="round" stroke-linejoin="round" d="M 1 54 c 0.46 -0.21 17.12 -8.74 26 -12 c 7.37 -2.71 15.27 -3.54 23 -6 c 15.83 -5.05 30.28 -11.26 46 -16 c 8.93 -2.69 18 -3.43 27 -6 c 12.35 -3.53 24.18 -9.15 36 -12 c 5.61 -1.35 18.46 -1.38 18 -1 c -0.81 0.67 -20.15 6.84 -30 11 c -5.24 2.21 -9.8 5.5 -15 8 c -3.98 1.91 -8.64 2.58 -12 5 c -14.91 10.73 -30.18 23.21 -45 36 c -10 8.63 -18.22 17.94 -28 27 c -4.28 3.97 -8.46 7.49 -13 11 c -2.89 2.23 -6.39 3.74 -9 6 c -2.23 1.93 -3.73 5.01 -6 7 c -5.62 4.92 -18 14 -18 14"/><path fill="none" stroke="#000000" stroke-width="2" stroke-linecap="round" stroke-linejoin="round" d="M 70 96 c 0.09 -0.02 3.62 -0.31 5 -1 c 2.33 -1.17 4.5 -3.54 7 -5 c 7.28 -4.26 14.34 -8.33 22 -12 c 8.63 -4.14 17.14 -8.47 26 -11 c 11.81 -3.37 37 -7 37 -7"/></svg>