<?xml version="1.0" encoding="UTF-8" standalone="no"?><!DOCTYPE svg PUBLIC "-//W3C//DTD SVG 1.1//EN" "http://www.w3.org/Graphics/SVG/1.1/DTD/svg11.dtd"><svg xmlns="http://www.w3.org/2000/svg" version="1.1" width="471" height="177"><path fill="none" stroke="#000000" stroke-width="2" stroke-linecap="round" stroke-linejoin="round" d="M 84 22 c 0.12 0 4.83 -0.33 7 0 c 1.96 0.3 4.02 1.9 6 2 c 10.35 0.53 21.98 -0.28 33 0 c 2.36 0.06 4.64 0.92 7 1 c 8.02 0.26 16.2 0.47 24 0 c 3 -0.18 6.03 -1.58 9 -2 c 1.61 -0.23 4.48 -0.52 5 0 c 0.43 0.43 -0.37 2.99 -1 4 c -0.87 1.39 -2.53 2.78 -4 4 c -8.33 6.89 -16.39 13.88 -25 20 c -3.97 2.82 -8.78 4.31 -13 7 c -11.72 7.48 -22.68 14.73 -34 23 c -10.21 7.46 -19.95 14.66 -29 23 c -7.96 7.33 -14.38 16.12 -22 24 c -2.16 2.23 -5.02 3.73 -7 6 c -4.59 5.28 -8.35 11.93 -13 17 c -2.48 2.7 -6.46 4.33 -9 7 c -3.96 4.16 -7.15 9.93 -11 14 l -6 4"/><path fill="none" stroke="#000000" stroke-width="2" stroke-linecap="round" stroke-linejoin="round" d="M 67 116 c 0.11 0.18 4.31 6.49 6 10 c 3 6.2 5.17 13.34 8 19 c 0.58 1.16 2.39 1.93 3 3 c 0.59 1.04 0.34 2.96 1 4 c 1.48 2.32 6 7 6 7"/><path fill="none" stroke="#000000" stroke-width="2" stroke-linecap="round" stroke-linejoin="round" d="M 83 107 c 0.14 -0.04 5.36 -1.67 8 -2 c 2.56 -0.32 5.59 0.57 8 0 c 4.19 -1 8.69 -4.08 13 -5 c 4.65 -1 10.32 -0.3 15 -1 c 1.68 -0.25 3.29 -1.6 5 -2 c 3.86 -0.91 9.88 -2.49 12 -2 c 0.89 0.2 0.97 3.33 1 5 c 0.3 17.38 0 53 0 53"/><path fill="none" stroke="#000000" stroke-width="2" stroke-linecap="round" stroke-linejoin="round" d="M 101 155 c 1.24 0 48.09 0.31 71 0 c 1.33 -0.02 4 -1 4 -1"/><path fill="none" stroke="#000000" stroke-width="2" stroke-linecap="round" stroke-linejoin="round" d="M 304 22 c -0.05 0.04 -2.33 1.19 -3 2 c -0.84 1 -1.09 2.89 -2 4 c -4.89 5.98 -10.91 11.75 -16 18 c -2.29 2.81 -3.74 6.26 -6 9 c -2.36 2.86 -5.1 5.65 -8 8 c -4.06 3.28 -8.78 6.52 -13 9 l -4 1"/><path fill="none" stroke="#000000" stroke-width="2" stroke-linecap="round" stroke-linejoin="round" d="M 274 71 c 0 0.1 -0.37 4.33 0 6 c 0.22 1 1.83 1.95 2 3 c 1.03 6.43 1.01 14.8 2 22 c 0.33 2.37 1.85 4.68 2 7 c 0.49 7.64 0 24 0 24"/><path fill="none" stroke="#000000" stroke-width="2" stroke-linecap="round" stroke-linejoin="round" d="M 324 20 c 0.35 -0.09 13.25 -3.65 20 -5 c 3.29 -0.66 7 -0.17 10 -1 c 2.67 -0.74 5.29 -3.38 8 -4 c 5.48 -1.27 12.02 -0.95 18 -2 c 5.44 -0.96 10.86 -2.46 16 -4 c 1.39 -0.42 2.65 -1.82 4 -2 c 5.74 -0.75 15.05 -1.75 19 -1 c 1.12 0.21 1.86 3.35 2 5 c 0.48 5.52 0.73 12.19 0 18 c -0.91 7.28 -3 14.99 -5 22 c -0.6 2.08 -2.27 3.98 -3 6 l -1 5"/><path fill="none" stroke="#000000" stroke-width="2" stroke-linecap="round" stroke-linejoin="round" d="M 354 39 c 0.37 -0.1 14.12 -4.91 21 -6 c 5.36 -0.85 11.23 0.35 17 0 c 11.24 -0.67 21.75 -2.47 33 -3 c 10.53 -0.49 22.2 0.52 31 0 c 1.02 -0.06 1.98 -1.85 3 -2 c 3.1 -0.44 11 0 11 0"/><path fill="none" stroke="#000000" stroke-width="2" stroke-linecap="round" stroke-linejoin="round" d="M 338 82 c 0.26 -0.07 10.11 -3.07 15 -4 c 1.89 -0.36 4.33 0.37 6 0 c 1 -0.22 1.94 -1.7 3 -2 c 3.27 -0.94 7.38 -1.09 11 -2 c 3.08 -0.77 9 -3 9 -3"/><path fill="none" stroke="#000000" stroke-width="2" stroke-linecap="round" stroke-linejoin="round" d="M 375 2 c 0 1.07 -0.57 41.55 0 61 c 0.07 2.32 1.65 4.7 2 7 c 0.29 1.89 -0.24 4.05 0 6 c 0.41 3.32 1.88 6.66 2 10 c 0.54 15.74 0.3 32.51 0 48 l -1 4"/><path fill="none" stroke="#000000" stroke-width="2" stroke-linecap="round" stroke-linejoin="round" d="M 348 105 c 0.21 -0.03 7.97 -1.8 12 -2 c 9.27 -0.46 19.87 1.51 28 0 c 4.94 -0.92 15 -8 15 -8"/><path fill="none" stroke="#000000" stroke-width="2" stroke-linecap="round" stroke-linejoin="round" d="M 356 135 c 0.16 -0.07 5.89 -3.24 9 -4 c 11.57 -2.83 36 -7 36 -7"/><path fill="none" stroke="#000000" stroke-width="2" stroke-linecap="round" stroke-linejoin="round" d="M 299 77 c 0.09 -0.05 3.27 -2.34 5 -3 c 2.44 -0.94 6.02 -1.01 8 -2 c 0.86 -0.43 1.94 -3.23 2 -3 c 0.17 0.7 1.09 7.89 0 11 c -3.19 9.12 -8.86 19.89 -14 29 c -2.04 3.62 -7.87 9.82 -8 10 c -0.04 0.06 1.85 -2.29 3 -3 c 5.58 -3.46 14.23 -8.92 18 -10 c 0.91 -0.26 2.74 2.63 3 4 c 0.62 3.28 0.24 8.14 0 12 c -0.08 1.33 -0.56 2.69 -1 4 c -0.57 1.71 -1.11 3.76 -2 5 c -0.59 0.83 -2.52 1.13 -3 2 c -1.26 2.3 -1.71 6.25 -3 9 c -0.98 2.09 -2.55 4.34 -4 6 c -0.73 0.83 -2.17 2.09 -3 2 c -1.55 -0.17 -4.92 -1.65 -6 -3 c -1.17 -1.46 -1.74 -4.69 -2 -7 c -0.39 -3.49 -1.03 -9.38 0 -11 c 0.66 -1.03 5 -0.59 7 0 c 3.2 0.94 6.54 3.76 10 5 c 5.78 2.06 11.97 3.05 18 5 c 4.5 1.45 8.54 3.86 13 5 c 8.47 2.17 17.33 4.18 26 5 c 8.84 0.83 18.42 1.05 27 0 c 7.25 -0.89 15.18 -3.82 22 -6 c 1.08 -0.35 1.99 -1.84 3 -2 l 10 0"/></svg>