<?xml version="1.0" encoding="UTF-8" standalone="no"?><!DOCTYPE svg PUBLIC "-//W3C//DTD SVG 1.1//EN" "http://www.w3.org/Graphics/SVG/1.1/DTD/svg11.dtd"><svg xmlns="http://www.w3.org/2000/svg" version="1.1" width="304" height="202"><path fill="none" stroke="#000000" stroke-width="2" stroke-linecap="round" stroke-linejoin="round" d="M 1 57 c 0.42 -0.12 15.74 -5.36 24 -7 c 25.82 -5.11 51.83 -7.76 77 -13 c 6.53 -1.36 12.92 -4.27 19 -7 c 3.5 -1.57 6.94 -3.81 10 -6 c 1.49 -1.06 3.4 -2.64 4 -4 c 0.53 -1.2 0.64 -3.81 0 -5 c -1.36 -2.53 -4.38 -6.2 -7 -8 c -3.21 -2.2 -8.02 -3.92 -12 -5 c -3.07 -0.84 -7.22 -1.49 -10 -1 c -2.23 0.39 -5.77 2.21 -7 4 c -1.93 2.8 -3.42 8.07 -4 12 c -0.69 4.66 -0.54 10 0 15 c 2.14 19.83 5.5 38.74 8 59 c 0.59 4.78 1 9.34 1 14 c 0 3.67 -0.66 10.89 -1 11 c -0.31 0.1 -1.66 -6.6 -2 -10 c -1 -10.04 -0.79 -20.31 -2 -30 c -0.42 -3.37 -1.62 -7.25 -3 -10 c -0.75 -1.49 -2.51 -3.5 -4 -4 c -3.73 -1.24 -9.79 -2.32 -14 -2 c -3.76 0.29 -8.5 2.17 -12 4 c -3.15 1.65 -6.27 4.45 -9 7 c -2.21 2.06 -4.95 4.73 -6 7 c -0.68 1.48 -0.97 5.71 0 6 c 2.75 0.81 11.55 0.22 17 -1 c 23.82 -5.35 63.54 -17.55 72 -19 c 0.83 -0.14 -0.62 5.47 -2 7 c -4.18 4.62 -10.92 9.72 -17 14 c -12.17 8.56 -24.33 16.63 -37 24 c -5.66 3.29 -16.93 8.1 -18 8 c -0.62 -0.06 4.23 -6.89 7 -9 c 5 -3.8 11.78 -7.29 18 -10 c 6.68 -2.91 16.81 -6.45 21 -7 c 0.85 -0.11 2.08 2.8 2 4 c -0.2 3.06 -1.35 7.8 -3 11 c -3.45 6.69 -11.6 15.79 -13 20 c -0.38 1.13 3.19 3.6 5 4 c 8.82 1.96 23.06 2.13 31 4 c 1.27 0.3 2.57 2.61 3 4 c 0.77 2.52 1.56 6.41 1 9 c -0.95 4.35 -3.54 9.79 -6 14 c -2.06 3.54 -5.1 6.79 -8 10 c -3.52 3.9 -7.1 7.45 -11 11 c -3.56 3.24 -7.29 6.96 -11 9 c -2.41 1.32 -6.13 2 -9 2 c -5.03 0 -11.23 -0.66 -16 -2 c -3.05 -0.85 -6.63 -2.91 -9 -5 c -2.94 -2.6 -6.27 -6.54 -8 -10 c -1.67 -3.34 -3.14 -8.42 -3 -12 c 0.16 -3.93 1.64 -9.86 4 -13 c 3.93 -5.24 10.92 -11.46 17 -15 c 7.47 -4.35 17.07 -7.24 26 -10 c 9.56 -2.96 19.13 -5.62 29 -7 c 21.26 -2.97 64 -6 64 -6"/><path fill="none" stroke="#000000" stroke-width="2" stroke-linecap="round" stroke-linejoin="round" d="M 184 78 c 0 -0.1 -0.66 -4.47 0 -6 c 1.1 -2.56 3.55 -6.43 6 -8 c 5.05 -3.23 12.52 -5.84 19 -8 c 5.49 -1.83 11.23 -3.33 17 -4 c 17.24 -2 52 -4 52 -4"/><path fill="none" stroke="#000000" stroke-width="2" stroke-linecap="round" stroke-linejoin="round" d="M 224 17 c -0.09 0.05 -4.14 1.6 -5 3 c -2.92 4.72 -6.09 11.93 -8 18 c -1.67 5.32 -2.68 11.41 -3 17 c -0.33 5.84 1 18 1 18"/><path fill="none" stroke="#000000" stroke-width="2" stroke-linecap="round" stroke-linejoin="round" d="M 241 46 c 0.04 0.19 2.84 8.03 2 11 c -1.77 6.3 -7 14.42 -11 21 c -1.55 2.56 -3.73 5.27 -6 7 c -3.08 2.36 -10.8 5.9 -11 6 c -0.09 0.05 3.26 -2.38 5 -3 c 3.7 -1.31 12.19 -3.1 12 -3 c -0.33 0.17 -14.03 4.25 -20 7 c -2.2 1.01 -4.47 3.09 -6 5 c -2.28 2.85 -4.5 6.55 -6 10 c -1.75 4.03 -3.51 8.67 -4 13 c -1.12 9.87 -0.23 26.37 -1 31 c -0.1 0.62 -3.34 -0.12 -4 -1 c -6.17 -8.15 -19.57 -28.6 -21 -32 c -0.3 -0.72 6.63 -0.26 8 1 c 1.84 1.68 3.28 6.67 4 10 c 0.88 4.03 -0.65 11.94 1 13 c 1.72 1.11 9.65 -1.63 13 -4 c 9.26 -6.55 21.38 -20.24 28 -25 c 0.79 -0.57 3.76 0.99 4 2 c 1.02 4.3 0.21 18.89 1 19 c 0.78 0.11 3.69 -12.22 6 -18 c 0.98 -2.46 2.47 -5.08 4 -7 c 0.95 -1.19 2.63 -2.39 4 -3 c 1.4 -0.62 4.18 -1.64 5 -1 c 1.44 1.12 3.89 5.53 4 8 c 0.18 4.22 -0.83 10.98 -3 15 c -3.95 7.31 -17.69 22.28 -17 22 c 1.24 -0.51 26.49 -20.43 39 -31 c 2.32 -1.96 6.03 -7.42 6 -7 c -0.07 1.1 -4.99 15.19 -7 23 c -1.02 3.95 -1.84 8.08 -2 12 c -0.16 3.88 0.05 8.59 1 12 c 0.57 2.04 2.47 4.47 4 6 c 1.24 1.24 3.36 2.59 5 3 c 1.97 0.49 5.32 0.84 7 0 c 2.9 -1.45 6.69 -5.01 9 -8 c 3.09 -4 6.28 -9.42 8 -14 c 1.07 -2.85 1.2 -7.03 1 -10 c -0.11 -1.59 -1.07 -4.07 -2 -5 c -0.71 -0.71 -3.1 -1.5 -4 -1 c -3.87 2.15 -9.08 7.49 -14 11 c -4.6 3.28 -9.17 6.58 -14 9 c -4.32 2.16 -9.28 3.86 -14 5 c -4.8 1.16 -9.89 1.71 -15 2 c -12.5 0.72 -24.32 0.36 -37 1 c -7.57 0.38 -14.82 0.74 -22 2 c -6.07 1.06 -12.09 3.03 -18 5 c -3.12 1.04 -6.08 2.54 -9 4 c -1.07 0.53 -2.22 1.22 -3 2 c -0.78 0.78 -2.22 2.26 -2 3 c 0.53 1.77 2.99 6.2 5 7 c 3.51 1.4 9.95 1 15 1 c 5.38 0 10.75 -1 16 -1 c 2.31 0 5 0.18 7 1 c 3.3 1.36 6.58 4.53 10 6 c 3.35 1.43 7.58 2.84 11 3 c 3.35 0.15 7.39 -1.03 11 -2 c 5.1 -1.37 10.14 -4.49 15 -5 c 7.08 -0.75 15.68 1 23 1 l 4 -1"/><path fill="none" stroke="#000000" stroke-width="2" stroke-linecap="round" stroke-linejoin="round" d="M 288 179 l 8 22"/></svg>