<?xml version="1.0" encoding="UTF-8" standalone="no"?><!DOCTYPE svg PUBLIC "-//W3C//DTD SVG 1.1//EN" "http://www.w3.org/Graphics/SVG/1.1/DTD/svg11.dtd"><svg xmlns="http://www.w3.org/2000/svg" version="1.1" width="304" height="207"><path fill="none" stroke="#000000" stroke-width="2" stroke-linecap="round" stroke-linejoin="round" d="M 1 24 c 0.21 0.03 7.97 1.81 12 2 c 10.27 0.48 20.73 0.48 31 0 c 4.03 -0.19 8.15 -0.87 12 -2 c 7.4 -2.18 15.29 -5.02 22 -8 c 1.84 -0.82 3.73 -2.55 5 -4 c 0.89 -1.02 2.55 -3.45 2 -4 c -1.66 -1.66 -8.05 -4.54 -12 -6 c -2.08 -0.77 -4.64 -0.84 -7 -1 c -2.67 -0.18 -6.39 -0.94 -8 0 c -1.62 0.95 -3.58 4.68 -4 7 c -0.78 4.31 -0.76 10.17 0 15 c 1.86 11.86 5.57 23.62 8 36 c 1.33 6.79 2.35 13.15 3 20 c 1.06 11.2 2 33 2 33"/><path fill="none" stroke="#000000" stroke-width="2" stroke-linecap="round" stroke-linejoin="round" d="M 48 49 c -0.09 0.05 -3.91 1.64 -5 3 c -3.78 4.73 -11.14 14.57 -11 17 c 0.08 1.45 8.29 1.49 12 1 c 5.75 -0.77 11.81 -3.54 18 -5 c 5.4 -1.27 10.55 -2.25 16 -3 c 4.36 -0.6 11.09 -2.03 13 -1 c 1.17 0.63 1.17 6.34 0 8 c -2.69 3.84 -9.03 8.43 -14 12 c -5.69 4.09 -11.7 7.71 -18 11 c -8.55 4.47 -26.35 12.35 -26 12 c 0.37 -0.37 22.31 -11.87 27 -13 c 0.99 -0.24 2.58 4.47 2 6 c -2.69 7.16 -12.15 20.65 -14 26 c -0.31 0.91 2.65 2.96 4 3 c 7.86 0.24 21.14 -2.24 29 -2 c 1.35 0.04 3.25 1.75 4 3 c 1.94 3.24 4.05 8.02 5 12 c 0.96 3.99 1.15 8.74 1 13 c -0.18 4.94 -0.62 10.53 -2 15 c -1.14 3.7 -3.64 7.92 -6 11 c -1.73 2.27 -4.48 4.49 -7 6 c -3.92 2.35 -8.71 4.89 -13 6 c -4.21 1.09 -9.54 1.32 -14 1 c -4.55 -0.32 -9.63 -1.54 -14 -3 c -3.41 -1.14 -6.87 -3.12 -10 -5 c -1.79 -1.08 -3.57 -2.57 -5 -4 c -0.8 -0.8 -2.06 -2.07 -2 -3 c 0.22 -3.45 1.08 -9.54 3 -13 c 2.65 -4.78 7.52 -10.05 12 -14 c 6.61 -5.83 14.27 -11.27 22 -16 c 8.64 -5.29 17.66 -9.85 27 -14 c 8.85 -3.93 17.63 -6.82 27 -10 c 8.85 -3.01 17.27 -6.48 26 -8 c 11.91 -2.08 37 -3 37 -3"/><path fill="none" stroke="#000000" stroke-width="2" stroke-linecap="round" stroke-linejoin="round" d="M 155 68 c 0.09 0 3.45 0.39 5 0 c 16.43 -4.11 34.04 -8.56 51 -14 c 9.35 -3 18.31 -6.88 27 -11 c 3.89 -1.84 11 -7 11 -7"/><path fill="none" stroke="#000000" stroke-width="2" stroke-linecap="round" stroke-linejoin="round" d="M 211 23 c -0.1 0.03 -4.24 1.05 -6 2 c -2.4 1.29 -5.46 2.94 -7 5 c -3.05 4.06 -6.2 9.94 -8 15 c -1.72 4.85 -2.45 10.67 -3 16 c -0.44 4.26 -0.36 8.73 0 13 c 0.31 3.68 2 11 2 11"/><path fill="none" stroke="#000000" stroke-width="2" stroke-linecap="round" stroke-linejoin="round" d="M 220 21 c 0.02 0.24 1 9.27 1 14 c 0 7.08 1.18 15.36 -1 21 c -2.9 7.52 -10.77 16.12 -16 23 c -0.67 0.88 -3.14 2.02 -3 2 c 0.69 -0.1 17 -4 17 -4"/><path fill="none" stroke="#000000" stroke-width="2" stroke-linecap="round" stroke-linejoin="round" d="M 179 82 c -0.05 0.07 -2.23 2.58 -3 4 c -1.18 2.16 -2.53 4.66 -3 7 c -0.8 4.01 -1.26 8.77 -1 13 c 0.4 6.56 1.71 13.21 3 20 c 1.44 7.57 3.71 14.78 5 22 l 0 6"/><path fill="none" stroke="#000000" stroke-width="2" stroke-linecap="round" stroke-linejoin="round" d="M 135 117 c 0.09 -0.07 3.2 -2.94 5 -4 c 3.78 -2.22 8.05 -4.68 12 -6 c 2.67 -0.89 6.11 -1 9 -1 c 1.94 0 5.28 -0.03 6 1 c 1.07 1.53 1.39 6.29 1 9 c -0.54 3.78 -4.68 12.17 -4 12 c 1.18 -0.29 10.71 -9.71 16 -15 c 3.59 -3.59 6.43 -7.62 10 -11 c 2.74 -2.59 6.33 -5.86 9 -7 c 1.19 -0.51 4.23 0.13 5 1 c 1.09 1.25 1.62 4.71 2 7 c 0.26 1.57 -0.56 5 0 5 c 1.06 0 6.14 -4.66 8 -5 c 0.84 -0.15 2.81 1.96 3 3 c 0.36 1.97 -0.18 5.66 -1 8 c -1.05 2.98 -5.45 8.55 -5 9 c 0.45 0.45 6.4 -2.9 9 -5 c 7.51 -6.05 14.88 -13.15 22 -20 c 1.53 -1.48 3.61 -5.45 4 -5 c 0.74 0.86 1.9 8.02 2 12 c 0.22 8.51 -1.24 17.64 -1 26 c 0.08 2.96 0.3 7.3 2 9 c 3.89 3.89 12.49 10.17 18 11 c 5.89 0.88 15.63 -2.35 22 -5 l 14 -10"/><path fill="none" stroke="#000000" stroke-width="2" stroke-linecap="round" stroke-linejoin="round" d="M 287 103 c -0.3 0.07 -12.07 2.03 -17 4 c -2.82 1.13 -5.5 3.78 -8 6 c -3.53 3.14 -6.89 6.37 -10 10 c -7.04 8.21 -13.01 16.76 -20 25 c -2.47 2.91 -8 8 -8 8"/><path fill="none" stroke="#000000" stroke-width="2" stroke-linecap="round" stroke-linejoin="round" d="M 138 165 c 0.04 0.14 1.03 5.67 2 8 c 0.59 1.41 1.77 3.51 3 4 c 2.99 1.2 8.24 2.14 12 2 c 4.73 -0.18 10.23 -1.46 15 -3 c 6.43 -2.08 12.93 -6.32 19 -8 c 2.95 -0.81 7.36 -1.06 10 0 c 4.76 1.9 9.99 7.13 15 10 c 1.76 1.01 4.14 2.08 6 2 c 5.08 -0.22 11.91 -1.73 17 -3 c 1.06 -0.27 1.94 -1.72 3 -2 c 3.56 -0.95 8.1 -2.09 12 -2 c 9.66 0.23 21.06 1.47 30 3 c 1.73 0.3 4.14 1.6 5 3 c 2.92 4.72 5 12.21 8 18 l 6 9"/></svg>