<?xml version="1.0" encoding="UTF-8" standalone="no"?><!DOCTYPE svg PUBLIC "-//W3C//DTD SVG 1.1//EN" "http://www.w3.org/Graphics/SVG/1.1/DTD/svg11.dtd"><svg xmlns="http://www.w3.org/2000/svg" version="1.1" width="289" height="169"><path fill="none" stroke="#000000" stroke-width="2" stroke-linecap="round" stroke-linejoin="round" d="M 1 38 c 0.37 -0.09 13.75 -3.58 21 -5 c 10.22 -2 19.99 -2.87 30 -5 c 5.83 -1.24 17 -5 17 -5"/><path fill="none" stroke="#000000" stroke-width="2" stroke-linecap="round" stroke-linejoin="round" d="M 52 1 c -0.02 0.21 -1.41 8.13 -1 12 c 1.53 14.32 5.04 29.03 7 44 c 0.75 5.72 1 11.24 1 17 c 0 7.45 -0.3 14.75 -1 22 c -0.29 3.03 -2 9 -2 9"/><path fill="none" stroke="#000000" stroke-width="2" stroke-linecap="round" stroke-linejoin="round" d="M 46 42 c -0.16 0.14 -6.68 4.93 -9 8 c -5.72 7.56 -16 25 -16 25"/><path fill="none" stroke="#000000" stroke-width="2" stroke-linecap="round" stroke-linejoin="round" d="M 30 60 c 0.72 -0.07 27.05 -3.19 41 -4 c 9.48 -0.55 28.42 -1.5 28 0 c -0.56 2.01 -21.71 11.58 -33 18 c -8.75 4.98 -16.67 9.7 -25 15 c -2.86 1.82 -8.17 6.08 -8 6 c 0.75 -0.34 33.88 -18.42 39 -20 c 0.93 -0.29 1.17 6.15 0 8 c -5.08 8.07 -18.53 21.52 -22 27 c -0.42 0.67 1.88 2.9 3 3 c 11.1 0.99 29.12 -0.05 42 1 c 2.33 0.19 4.9 1.77 7 3 c 1.77 1.03 4.05 2.41 5 4 c 1.74 2.9 3.48 7.54 4 11 c 0.4 2.68 0.1 6.57 -1 9 c -1.93 4.24 -5.57 9.41 -9 13 c -3.25 3.41 -7.82 6.75 -12 9 c -4.14 2.23 -9.45 4.12 -14 5 c -3.67 0.71 -8.37 0.66 -12 0 c -3.26 -0.59 -6.99 -2.39 -10 -4 c -1.79 -0.96 -3.92 -2.44 -5 -4 c -1.66 -2.4 -3.88 -6.25 -4 -9 c -0.17 -4 1.25 -10.02 3 -14 c 1.66 -3.78 4.9 -7.9 8 -11 c 5.34 -5.34 11.67 -11 18 -15 c 5.93 -3.74 13.16 -6.54 20 -9 c 6.13 -2.2 12.5 -3.78 19 -5 c 9.69 -1.82 29 -4 29 -4"/><path fill="none" stroke="#000000" stroke-width="2" stroke-linecap="round" stroke-linejoin="round" d="M 154 75 c 0.21 -0.14 7.72 -6.35 12 -8 c 13.99 -5.4 29.66 -8.89 45 -14 c 7.31 -2.44 13.93 -5.17 21 -8 c 1.41 -0.56 3.12 -1.12 4 -2 l 2 -4"/><path fill="none" stroke="#000000" stroke-width="2" stroke-linecap="round" stroke-linejoin="round" d="M 193 14 c -0.09 0 -4.17 -0.72 -5 0 c -1.26 1.1 -2.31 4.6 -3 7 c -1.29 4.52 -2.91 9.42 -3 14 c -0.23 11.22 0.71 23.39 2 35 c 0.71 6.43 4 19 4 19"/><path fill="none" stroke="#000000" stroke-width="2" stroke-linecap="round" stroke-linejoin="round" d="M 198 49 c 0.03 -0.23 0.61 -11.15 2 -13 c 0.75 -1 5.83 -0.17 7 1 c 1.78 1.78 3.28 6.77 4 10 c 0.53 2.4 0.3 5.41 0 8 c -0.35 2.98 -1.03 6.27 -2 9 c -0.62 1.73 -1.77 3.64 -3 5 c -1.95 2.14 -7.12 5.41 -7 6 c 0.1 0.51 8 -1 8 -1"/><path fill="none" stroke="#000000" stroke-width="2" stroke-linecap="round" stroke-linejoin="round" d="M 179 84 c -0.19 0.07 -8.53 2.29 -11 4 c -1.13 0.79 -1.75 3.36 -2 5 c -0.37 2.43 -0.82 5.73 0 8 c 3.16 8.76 9.68 19.3 13 28 c 0.65 1.69 0.8 5.32 0 6 c -0.93 0.8 -5.21 0.85 -7 0 c -4.96 -2.37 -11.18 -6.98 -16 -11 c -2.99 -2.49 -7.36 -6.91 -8 -9 c -0.3 -0.98 2.62 -3.45 4 -4 c 1.46 -0.58 5.19 -0.81 6 0 c 0.95 0.95 0.14 7.12 1 7 c 1.93 -0.28 9.11 -5.73 13 -9 c 2.27 -1.91 3.77 -5.05 6 -7 c 2.96 -2.59 6.72 -5.13 10 -7 c 1.11 -0.63 3.17 -1.28 4 -1 c 0.73 0.24 1.58 1.94 2 3 c 0.85 2.13 1.58 4.63 2 7 c 0.58 3.27 0.42 10.32 1 10 c 0.98 -0.54 4.9 -11.13 8 -15 c 1.72 -2.15 6.46 -5.14 8 -5 c 1.1 0.1 2.86 4.21 3 6 c 0.15 1.94 -0.94 5.01 -2 7 c -1.46 2.73 -6.22 7.78 -6 8 c 0.22 0.22 5.61 -3.78 8 -6 c 2.2 -2.04 4.25 -4.59 6 -7 c 0.85 -1.17 1.62 -4.35 2 -4 c 1.42 1.29 5.78 9.63 9 14 c 1.37 1.86 3.17 3.74 5 5 c 2.31 1.6 5.28 3.14 8 4 c 3.39 1.07 7.53 2 11 2 c 3.47 0 7.91 -0.84 11 -2 c 1.77 -0.66 3.4 -2.55 5 -4 c 2.12 -1.93 4.3 -3.83 6 -6 c 1.89 -2.41 3.61 -5.21 5 -8 c 1.59 -3.18 4.74 -8.51 4 -10 c -0.71 -1.41 -6.8 -1.82 -10 -2 c -2.53 -0.14 -5.81 0.01 -8 1 c -3.92 1.77 -8.29 4.98 -12 8 c -5.28 4.3 -9.66 9.63 -15 14 c -5.77 4.72 -11.86 9.13 -18 13 c -2.72 1.72 -6 3.06 -9 4 l -7 1"/><path fill="none" stroke="#000000" stroke-width="2" stroke-linecap="round" stroke-linejoin="round" d="M 185 127 c -0.1 0 -4.14 -0.31 -6 0 c -1.96 0.33 -4.54 0.88 -6 2 c -2.45 1.89 -5.2 5.07 -7 8 c -4.39 7.16 -10.85 18.91 -12 23 c -0.24 0.85 3.71 2.3 5 2 c 2.26 -0.52 5.17 -3.63 8 -5 c 6.85 -3.31 14.59 -7.23 21 -9 c 2.26 -0.62 5.38 0.41 8 1 c 4.73 1.07 9.61 4 14 4 c 7.63 0 16.47 -2.96 25 -4 c 5.4 -0.66 10.99 -0.07 16 -1 c 3.66 -0.68 7.27 -3.03 11 -4 c 3.88 -1.01 8.7 -2.19 12 -2 c 1.58 0.09 3.64 1.77 5 3 l 6 7"/></svg>