<?xml version="1.0" encoding="UTF-8" standalone="no"?><!DOCTYPE svg PUBLIC "-//W3C//DTD SVG 1.1//EN" "http://www.w3.org/Graphics/SVG/1.1/DTD/svg11.dtd"><svg xmlns="http://www.w3.org/2000/svg" version="1.1" width="318" height="183"><path fill="none" stroke="#000000" stroke-width="2" stroke-linecap="round" stroke-linejoin="round" d="M 1 64 c 0.47 -0.07 18 -2.2 27 -4 c 6.16 -1.23 12.26 -2.73 18 -5 c 8.52 -3.37 16.76 -7.75 25 -12 c 2.14 -1.11 4.3 -2.43 6 -4 c 2.5 -2.31 7 -8 7 -8"/><path fill="none" stroke="#000000" stroke-width="2" stroke-linecap="round" stroke-linejoin="round" d="M 69 1 c 0.02 0.37 0.34 13.88 1 21 c 0.7 7.52 1.48 14.63 3 22 c 3.23 15.7 7.81 30.57 11 46 c 0.81 3.93 1 12 1 12"/><path fill="none" stroke="#000000" stroke-width="2" stroke-linecap="round" stroke-linejoin="round" d="M 66 55 c -0.09 0.05 -3.72 1.72 -5 3 c -2.81 2.81 -5.28 6.5 -8 10 c -2.13 2.74 -4.25 5.2 -6 8 c -1.56 2.5 -4 8 -4 8"/><path fill="none" stroke="#000000" stroke-width="2" stroke-linecap="round" stroke-linejoin="round" d="M 45 83 c 0.05 -0.05 1.87 -2.24 3 -3 c 3.71 -2.48 7.81 -4.91 12 -7 c 5.27 -2.63 10.62 -5.83 16 -7 c 9.29 -2.02 24.24 -3.19 30 -3 c 0.79 0.03 1.54 3.22 1 4 c -1.76 2.54 -6.28 6.81 -10 9 c -12.75 7.5 -40.31 20.59 -41 21 c -0.31 0.18 12.52 -5.51 19 -8 c 2.29 -0.88 4.71 -1.62 7 -2 c 1.57 -0.26 4.8 -0.75 5 0 c 0.46 1.67 -0.8 7.7 -2 11 c -1.35 3.7 -4.44 7.29 -6 11 c -1.03 2.44 -3.29 7 -2 8 c 5.74 4.45 22.57 10.39 33 16 c 2.22 1.2 4.16 3.16 6 5 c 2.5 2.5 5.27 5.17 7 8 c 1.75 2.87 3.02 6.66 4 10 c 0.65 2.19 1.39 5.04 1 7 c -0.5 2.48 -2.15 6.15 -4 8 c -2.98 2.98 -7.91 5.96 -12 8 c -2.96 1.48 -6.88 3 -10 3 c -5.46 0 -12.54 -1.38 -18 -3 c -3.08 -0.91 -6.51 -2.98 -9 -5 c -2.57 -2.09 -5.17 -5.18 -7 -8 c -1.69 -2.62 -3.7 -6.27 -4 -9 c -0.28 -2.56 0.64 -6.62 2 -9 c 2.3 -4.03 6.23 -8.77 10 -12 c 5.22 -4.48 11.74 -8.79 18 -12 c 6.5 -3.33 13.73 -5.78 21 -8 c 12.71 -3.88 25.19 -6.94 38 -10 l 8 -1"/><path fill="none" stroke="#000000" stroke-width="2" stroke-linecap="round" stroke-linejoin="round" d="M 183 79 c 0.16 -0.14 5.72 -5.7 9 -8 c 9.06 -6.37 18.2 -12.31 28 -18 c 11.33 -6.58 23.28 -11.62 34 -18 c 2.96 -1.76 5.5 -4.5 8 -7 c 1.84 -1.84 3.68 -3.92 5 -6 l 2 -5"/><path fill="none" stroke="#000000" stroke-width="2" stroke-linecap="round" stroke-linejoin="round" d="M 223 1 c -0.09 0.07 -3.92 2.44 -5 4 c -1.66 2.4 -3 5.99 -4 9 c -0.62 1.86 -0.77 3.93 -1 6 c -0.8 7.17 -2.19 14.31 -2 21 c 0.13 4.85 3 15 3 15"/><path fill="none" stroke="#000000" stroke-width="2" stroke-linecap="round" stroke-linejoin="round" d="M 237 37 c 0.02 0.42 1.45 16.58 1 24 c -0.18 2.93 -1.61 6.37 -3 9 c -1.47 2.78 -6.12 7.29 -6 8 c 0.09 0.52 7.14 -2.29 7 -2 c -0.25 0.51 -6.43 5.58 -10 8 c -6.88 4.66 -14.34 8.56 -21 13 c -1.14 0.76 -2.44 1.89 -3 3 c -0.96 1.91 -2 4.77 -2 7 c 0 5.24 0.88 11.41 2 17 c 1.22 6.1 5 16.09 5 18 c 0 0.55 -3.53 -1.09 -5 -2 c -2.73 -1.68 -5.68 -3.91 -8 -6 c -0.84 -0.75 -1.87 -2.08 -2 -3 c -0.15 -1.05 0.48 -4 1 -4 c 0.81 0 4.49 2.48 5 4 c 0.87 2.61 -0.68 11.39 0 11 c 1.45 -0.83 8.97 -13.34 14 -19 c 2.73 -3.07 6.75 -5.91 10 -8 c 1.05 -0.67 2.94 -1.23 4 -1 c 1.49 0.33 3.98 1.65 5 3 c 2.57 3.43 4.49 9.86 7 13 c 0.92 1.15 3.99 2.55 5 2 c 2.26 -1.22 6 -5.83 8 -9 c 1.79 -2.84 2.23 -7.52 4 -10 c 1.19 -1.66 3.95 -3.55 6 -4 c 4.84 -1.05 15.58 -2.29 17 -1 c 1.05 0.95 -3.37 8.26 -6 11 c -4.49 4.69 -11.05 9.03 -17 13 c -5.11 3.4 -10.48 6.34 -16 9 c -4.19 2.02 -8.64 4.05 -13 5 c -5.99 1.31 -13.44 0.39 -19 2 c -4.04 1.17 -10.3 5.13 -12 7 c -0.55 0.6 1.03 3.22 2 4 c 1.94 1.56 5.25 3.08 8 4 c 4.1 1.37 8.61 2.37 13 3 c 4.94 0.71 9.85 0.89 15 1 c 11.65 0.24 22.92 0.69 34 0 c 4.67 -0.29 9.48 -1.71 14 -3 c 2.4 -0.69 4.87 -2.87 7 -3 c 2.58 -0.16 6.27 0.94 9 2 c 3.05 1.19 6.01 4.1 9 5 l 11 1"/></svg>