<?xml version="1.0" encoding="UTF-8" standalone="no"?><!DOCTYPE svg PUBLIC "-//W3C//DTD SVG 1.1//EN" "http://www.w3.org/Graphics/SVG/1.1/DTD/svg11.dtd"><svg xmlns="http://www.w3.org/2000/svg" version="1.1" width="282" height="176"><path fill="none" stroke="#000000" stroke-width="2" stroke-linecap="round" stroke-linejoin="round" d="M 1 52 c 0.07 -0.07 2.48 -3.24 4 -4 c 4 -2 9.15 -3.73 14 -5 c 15.75 -4.13 30.91 -7.05 47 -11 c 3.48 -0.85 6.93 -1.62 10 -3 c 3.43 -1.54 10 -6 10 -6"/><path fill="none" stroke="#000000" stroke-width="2" stroke-linecap="round" stroke-linejoin="round" d="M 67 1 c -0.09 0.02 -3.48 0.39 -5 1 c -3.33 1.33 -8 2.85 -10 5 c -1.69 1.82 -2.75 6.11 -3 9 c -0.37 4.28 0.06 9.47 1 14 c 2.7 13.01 6.94 25.51 10 39 c 2.78 12.28 6.72 31.18 7 36 c 0.04 0.67 -3.89 -0.11 -5 -1 c -3.24 -2.59 -6.41 -7.58 -10 -11 c -3.43 -3.27 -7.1 -6.17 -11 -9 c -5.94 -4.3 -17.33 -9.2 -18 -12 c -0.49 -2.05 8.46 -7.34 13 -9 c 8.23 -3.01 18.94 -4.92 28 -6 c 4.44 -0.53 10.62 0.15 14 1 c 0.87 0.22 2.27 2.25 2 3 c -0.97 2.72 -4.16 8.04 -7 11 c -4.8 5 -10.92 9.79 -17 14 c -11.41 7.9 -32.42 20.67 -35 22 c -0.34 0.17 0.85 -3.98 2 -5 c 4.13 -3.67 10.41 -7.58 16 -11 c 4.89 -3 9.84 -5.62 15 -8 c 3.55 -1.64 7.31 -2.98 11 -4 c 2.23 -0.62 5.11 -1.19 7 -1 c 0.96 0.1 3 1.23 3 2 c 0 2.64 -1.48 8.46 -3 12 c -1.33 3.1 -3.73 6.14 -6 9 c -5.5 6.93 -17.25 17.32 -17 20 c 0.18 1.94 13.06 1.79 19 1 c 8.4 -1.12 17.49 -5.51 26 -7 c 4.42 -0.77 11.24 -1.04 14 0 c 1.25 0.47 2.1 4.18 2 6 c -0.2 3.85 -1.26 9.25 -3 13 c -2.35 5.06 -6.17 10.7 -10 15 c -3.91 4.4 -9.05 8.7 -14 12 c -4.8 3.2 -10.55 5.95 -16 8 c -5.03 1.89 -10.62 3.1 -16 4 c -4.58 0.76 -9.35 1 -14 1 c -3.33 0 -7.2 -0.2 -10 -1 c -1.39 -0.4 -3.47 -1.77 -4 -3 c -1.17 -2.74 -2.78 -8.09 -2 -11 c 1.23 -4.56 5.41 -10.64 9 -15 c 5.51 -6.69 12.13 -14.01 19 -19 c 7.2 -5.24 16.29 -8.82 25 -13 c 8.44 -4.05 16.41 -8.18 25 -11 l 36 -9"/><path fill="none" stroke="#000000" stroke-width="2" stroke-linecap="round" stroke-linejoin="round" d="M 126 67 c 0.52 -0.21 19.6 -8.13 30 -12 c 7.12 -2.65 13.71 -5 21 -7 c 17.65 -4.84 35.49 -8.02 52 -13 c 3.86 -1.16 9.97 -4.09 11 -6 c 0.66 -1.23 -2.16 -5.99 -4 -7 c -3.76 -2.07 -10.71 -3.38 -16 -4 c -5.77 -0.68 -12.09 -0.52 -18 0 c -5.34 0.47 -11.65 1.48 -16 3 c -1.51 0.53 -3.1 2.5 -4 4 c -1.93 3.21 -4.05 7.36 -5 11 c -0.95 3.63 -1.16 8.1 -1 12 c 0.17 4.25 0.41 9.53 2 13 c 1.72 3.75 5.8 8.37 9 11 c 1.92 1.58 7.51 2.39 8 3 c 0.26 0.32 -4 2.26 -4 2 c 0 -0.42 2.47 -4.14 4 -6 c 3.15 -3.82 8.14 -10.29 10 -11 c 0.84 -0.32 2.69 4.15 3 6 c 0.28 1.68 -0.45 4.15 -1 6 c -0.41 1.36 -1 3.21 -2 4 c -3.12 2.45 -7.96 5.08 -12 7 c -2.12 1 -4.65 1.77 -7 2 c -7.42 0.74 -18.03 -0.19 -23 1 c -1.16 0.28 -1.75 3.32 -2 5 c -0.7 4.68 -1.39 10.17 -1 15 c 0.58 7.19 4 20.14 4 22 c 0 0.42 -2.87 -1.87 -4 -3 c -1.13 -1.13 -2.32 -2.63 -3 -4 c -0.56 -1.13 -0.8 -4.2 -1 -4 c -0.41 0.41 -1.38 6.16 -3 8 c -2.84 3.22 -8.11 6.57 -12 9 c -1.07 0.67 -3.9 1.52 -4 1 c -0.28 -1.4 0.31 -8.47 2 -11 c 2.36 -3.54 7.76 -7.06 12 -10 c 4.38 -3.03 9.2 -5.78 14 -8 c 3.77 -1.74 7.98 -3.04 12 -4 c 2.88 -0.68 6.14 -1 9 -1 c 1.61 0 4.01 0.1 5 1 c 2.1 1.91 4.79 6.17 6 9 c 0.56 1.31 -0.17 5.21 0 5 c 0.58 -0.72 5.12 -10.44 8 -15 c 0.96 -1.52 2.56 -2.88 4 -4 c 1.49 -1.16 4 -3.33 5 -3 c 1.23 0.41 3.56 4.11 4 6 c 0.43 1.85 -0.23 4.95 -1 7 c -1.12 2.98 -5 7.55 -5 9 c 0 0.72 3.67 1.41 5 1 c 3.26 -1.02 7.65 -3.63 11 -6 c 4.55 -3.22 8.48 -7.55 13 -11 c 2.51 -1.91 5.47 -4.03 8 -5 c 1.34 -0.52 3.68 -0.44 5 0 c 1.32 0.44 2.63 2.39 4 3 c 1.4 0.62 3.33 0.89 5 1 c 3.27 0.22 7.05 -0.42 10 0 c 1.32 0.19 3.28 1.01 4 2 c 1.58 2.18 3.42 6.29 4 9 c 0.3 1.4 -0.1 4.1 -1 5 c -1.57 1.57 -5.19 2.86 -8 4 c -11.44 4.63 -22.29 9.03 -34 13 c -8.35 2.83 -16.58 4.16 -25 7 c -23.07 7.77 -44.51 15.31 -67 24 c -7.35 2.84 -20.89 9.24 -21 10 c -0.09 0.66 13.27 -1.55 20 -3 c 18.47 -3.99 35.53 -9.31 54 -13 c 12.08 -2.42 23.92 -3.56 36 -5 c 1.99 -0.24 4.03 -0.23 6 0 c 3.66 0.43 7.32 1.72 11 2 c 4.93 0.38 10.61 -0.88 15 0 l 10 5"/></svg>