<?xml version="1.0" encoding="UTF-8" standalone="no"?><!DOCTYPE svg PUBLIC "-//W3C//DTD SVG 1.1//EN" "http://www.w3.org/Graphics/SVG/1.1/DTD/svg11.dtd"><svg xmlns="http://www.w3.org/2000/svg" version="1.1" width="286" height="191"><path fill="none" stroke="#000000" stroke-width="2" stroke-linecap="round" stroke-linejoin="round" d="M 1 74 c 0.32 -0.19 11.66 -8.1 18 -11 c 13.22 -6.05 27.87 -10.22 41 -16 c 3.23 -1.42 6.42 -3.62 9 -6 c 5.58 -5.13 11.45 -11.15 16 -17 c 2.18 -2.8 3.76 -6.68 5 -10 c 0.68 -1.8 1.41 -4.5 1 -6 c -0.43 -1.58 -2.52 -3.85 -4 -5 c -1.24 -0.97 -4.05 -2.61 -5 -2 c -2.5 1.61 -7.41 7.17 -9 11 c -2.04 4.92 -2.51 11.97 -3 18 c -0.51 6.28 -0.87 12.8 0 19 c 2.76 19.58 7.81 39.06 11 59 c 0.85 5.33 1.56 14.99 1 16 c -0.32 0.58 -4.57 -4.44 -6 -7 c -3.06 -5.46 -5.63 -11.8 -8 -18 c -2.02 -5.28 -2.93 -11.03 -5 -16 c -1.17 -2.8 -3.12 -5.49 -5 -8 c -2.12 -2.82 -7.13 -6.57 -7 -8 c 0.1 -1.15 5.32 -2.44 8 -3 c 3.46 -0.73 7.41 -0.35 11 -1 c 3.71 -0.67 10.15 -3.73 11 -3 c 0.74 0.63 -2.02 6.77 -4 9 c -5.12 5.78 -12.29 11.74 -19 17 c -5.69 4.46 -12.04 7.65 -18 12 c -6.67 4.87 -18.1 14.1 -19 15 c -0.19 0.19 3.5 -0.32 5 -1 c 15.62 -7.07 37.58 -19.91 48 -23 c 1.8 -0.53 6.69 5.24 6 7 c -2.81 7.13 -18.59 24.8 -21 31 c -0.55 1.43 4.56 4.57 7 5 c 9.37 1.64 22.06 0.96 33 2 c 3.05 0.29 6.1 1.09 9 2 c 2.39 0.75 5.33 1.67 7 3 c 1.28 1.02 2.6 3.3 3 5 c 0.82 3.51 1.78 8.61 1 12 c -1.02 4.41 -4 10.4 -7 14 c -3.15 3.78 -8.43 6.95 -13 10 c -4.49 2.99 -9.33 6.2 -14 8 c -3.53 1.36 -8.34 2 -12 2 c -2.19 0 -5.69 -0.6 -7 -2 c -2.91 -3.1 -6.54 -9.31 -8 -14 c -1.64 -5.26 -2.6 -12.57 -2 -18 c 0.63 -5.69 3.09 -12.91 6 -18 c 3.38 -5.91 8.85 -12.01 14 -17 c 5.33 -5.16 11.74 -10.45 18 -14 c 5.56 -3.16 12.65 -5.5 19 -7 c 5.99 -1.42 12.79 -2 19 -2 c 5.57 0 11.48 1.04 17 2 l 6 2"/><path fill="none" stroke="#000000" stroke-width="2" stroke-linecap="round" stroke-linejoin="round" d="M 151 79 c 0.12 -0.12 4.4 -5.19 7 -7 c 4.82 -3.35 10.37 -6.28 16 -9 c 15.5 -7.5 31.23 -13.49 46 -21 c 3.97 -2.02 7.69 -5.06 11 -8 c 2.58 -2.3 4.95 -5.27 7 -8 l 2 -4"/><path fill="none" stroke="#000000" stroke-width="2" stroke-linecap="round" stroke-linejoin="round" d="M 193 9 c -0.14 0.07 -5.63 2.37 -8 4 c -2.82 1.94 -6.25 4.32 -8 7 c -2.87 4.4 -5.5 10.66 -7 16 c -1.39 4.93 -1.82 10.72 -2 16 c -0.15 4.27 0.04 9.01 1 13 c 0.95 3.98 5 12 5 12"/><path fill="none" stroke="#000000" stroke-width="2" stroke-linecap="round" stroke-linejoin="round" d="M 212 30 c -0.24 0.61 -8.97 23.62 -14 35 c -1.26 2.85 -3.06 5.74 -5 8 c -1.9 2.21 -7.28 5.81 -7 6 c 0.33 0.22 10 -4 10 -4"/><path fill="none" stroke="#000000" stroke-width="2" stroke-linecap="round" stroke-linejoin="round" d="M 164 94 c -0.09 0.07 -3.52 2.52 -5 4 c -1.81 1.81 -3.79 3.86 -5 6 c -1.66 2.96 -3.35 6.75 -4 10 c -0.6 3.02 -0.39 6.74 0 10 c 0.6 4.98 1.4 10.21 3 15 c 3.7 11.11 13 33 13 33"/><path fill="none" stroke="#000000" stroke-width="2" stroke-linecap="round" stroke-linejoin="round" d="M 137 118 c 0.03 0.1 1.07 4.52 2 6 c 0.53 0.84 2.22 1.22 3 2 c 0.78 0.78 1.84 1.99 2 3 c 0.43 2.81 -0.85 9.79 0 10 c 0.96 0.24 5.58 -5.08 8 -8 c 5.64 -6.81 10.46 -14.45 16 -21 c 1.64 -1.94 3.88 -3.79 6 -5 c 2.32 -1.32 6.43 -3.67 8 -3 c 1.99 0.85 4.56 5.95 6 9 c 1.09 2.33 1.71 5.36 2 8 c 0.36 3.21 -0.18 9.37 0 10 c 0.06 0.23 1.72 -1.94 2 -3 c 0.95 -3.56 0.96 -8.12 2 -12 c 1.28 -4.74 4.17 -12.7 5 -14 c 0.2 -0.32 1.86 1.98 2 3 c 0.45 3.38 0.8 8.4 0 12 c -1.08 4.85 -5.8 13.71 -6 15 c -0.06 0.36 2.99 -1.06 4 -2 c 3.36 -3.12 6.79 -7.11 10 -11 c 3.24 -3.93 6.19 -7.79 9 -12 c 2.6 -3.9 6.2 -12.8 7 -12 c 1.42 1.42 2.75 16.58 5 24 c 0.94 3.12 3.03 6.37 5 9 c 1.89 2.53 4.45 5.16 7 7 c 3.23 2.33 7.3 4.77 11 6 c 3.89 1.3 8.83 1.79 13 2 c 2.24 0.11 5.24 -0.12 7 -1 c 1.76 -0.88 3.87 -3.11 5 -5 l 7 -15"/><path fill="none" stroke="#000000" stroke-width="2" stroke-linecap="round" stroke-linejoin="round" d="M 279 99 c -0.3 -0.09 -11.47 -3.89 -17 -5 c -2.5 -0.5 -5.8 -0.69 -8 0 c -2.59 0.81 -5.88 2.88 -8 5 c -7.48 7.48 -14.2 16.81 -22 25 c -5.8 6.09 -11.6 11.81 -18 17 c -5.95 4.82 -12.38 8.91 -19 13 c -4.88 3.02 -10 6.15 -15 8 c -3.58 1.33 -8.08 1.84 -12 2 c -3.88 0.16 -11.72 -0.89 -12 -1 c -0.16 -0.07 5.65 -1.87 7 -1 c 2.33 1.5 4.48 8.43 7 10 c 1.85 1.16 6.38 0.85 9 0 c 9.78 -3.18 20.92 -10.06 31 -13 c 5.11 -1.49 12.31 -2.46 17 -1 c 8.76 2.72 18.58 10.84 28 15 c 4.6 2.03 9.99 3.34 15 4 c 7.44 0.98 23 1 23 1"/></svg>