<?xml version="1.0" encoding="UTF-8" standalone="no"?><!DOCTYPE svg PUBLIC "-//W3C//DTD SVG 1.1//EN" "http://www.w3.org/Graphics/SVG/1.1/DTD/svg11.dtd"><svg xmlns="http://www.w3.org/2000/svg" version="1.1" width="290" height="185"><path fill="none" stroke="#000000" stroke-width="2" stroke-linecap="round" stroke-linejoin="round" d="M 1 46 c 0.52 -0.1 19.62 -4.22 30 -6 c 11.66 -2 22.97 -2.55 34 -5 c 6.8 -1.51 14.14 -3.98 20 -7 c 3.93 -2.03 11 -9 11 -9"/><path fill="none" stroke="#000000" stroke-width="2" stroke-linecap="round" stroke-linejoin="round" d="M 65 1 c -0.02 0.1 -1 4.04 -1 6 c 0 3.88 0.38 7.95 1 12 c 1.76 11.6 3.68 22.42 6 34 c 1.11 5.53 2.86 10.51 4 16 c 0.91 4.38 1.69 8.63 2 13 c 0.36 4.98 0 15 0 15"/><path fill="none" stroke="#000000" stroke-width="2" stroke-linecap="round" stroke-linejoin="round" d="M 58 46 c -0.12 0.09 -5.06 3.06 -7 5 c -2.89 2.89 -5.54 6.49 -8 10 c -2.24 3.2 -4.41 6.52 -6 10 c -2.03 4.43 -5 14 -5 14"/><path fill="none" stroke="#000000" stroke-width="2" stroke-linecap="round" stroke-linejoin="round" d="M 63 64 c 0.32 -0.09 12.16 -4.39 18 -5 c 6.26 -0.66 13.74 0.11 20 1 c 2.67 0.38 8 3 8 3"/><path fill="none" stroke="#000000" stroke-width="2" stroke-linecap="round" stroke-linejoin="round" d="M 44 100 c 0.37 -0.16 13.71 -6.34 21 -9 c 10.39 -3.8 28.29 -10.99 31 -10 c 1.68 0.61 -5.08 13.1 -9 18 c -6.2 7.75 -15.76 14.31 -23 22 c -3.41 3.62 -8.17 9.51 -9 12 c -0.28 0.83 2.65 3 4 3 c 10.83 0 26.31 -2.39 40 -3 c 9.22 -0.41 19.37 -0.92 27 0 c 2.04 0.25 4.47 2.47 6 4 c 1.24 1.24 2.52 3.31 3 5 c 0.75 2.63 1.66 6.63 1 9 c -0.79 2.84 -3.73 6.27 -6 9 c -2.67 3.21 -5.7 6.62 -9 9 c -4.76 3.43 -10.55 6.71 -16 9 c -4.61 1.93 -9.9 3.01 -15 4 c -5.3 1.03 -10.85 2 -16 2 c -4.2 0 -9.11 -0.83 -13 -2 c -2.39 -0.72 -5.08 -2.43 -7 -4 c -1.53 -1.25 -3.42 -3.26 -4 -5 c -0.91 -2.73 -1.43 -7.01 -1 -10 c 0.5 -3.48 1.96 -8.19 4 -11 c 2.84 -3.9 7.66 -8.29 12 -11 c 5.85 -3.66 13.08 -6.3 20 -9 c 6.99 -2.73 13.74 -5.06 21 -7 c 13.13 -3.5 39 -9 39 -9"/><path fill="none" stroke="#000000" stroke-width="2" stroke-linecap="round" stroke-linejoin="round" d="M 162 91 c 0.12 -0.14 4.36 -6.15 7 -8 c 3.56 -2.49 8.49 -4.66 13 -6 c 13.29 -3.94 27.84 -6.13 41 -10 c 3.49 -1.03 7.51 -3.13 10 -5 l 2 -4"/><path fill="none" stroke="#000000" stroke-width="2" stroke-linecap="round" stroke-linejoin="round" d="M 192 24 c -0.04 0.18 -1.87 6.73 -2 10 c -0.2 5.14 0.04 10.79 1 16 c 2.03 11.04 8 33 8 33"/><path fill="none" stroke="#000000" stroke-width="2" stroke-linecap="round" stroke-linejoin="round" d="M 212 41 c 0 0.74 1.58 30.06 0 42 c -0.49 3.71 -5.5 7.57 -7 11 c -0.57 1.31 0.42 3.61 0 5 c -0.49 1.62 -1.77 4.18 -3 5 c -1.28 0.86 -3.99 0.88 -6 1 c -3.64 0.21 -7.44 0.36 -11 0 c -2.99 -0.3 -7.31 -2.78 -9 -2 c -1.64 0.76 -3.74 5.39 -4 8 c -0.64 6.43 0.18 14.78 1 22 c 0.5 4.37 3 13 3 13"/><path fill="none" stroke="#000000" stroke-width="2" stroke-linecap="round" stroke-linejoin="round" d="M 151 122 c -0.09 0 -5.09 -0.01 -5 0 c 0.3 0.02 14.77 -0.48 17 1 c 1.21 0.8 -2.25 8.12 -2 9 c 0.12 0.43 2.92 -1.08 4 -2 c 5.31 -4.51 10.43 -10.67 16 -15 c 3.18 -2.47 7.83 -4.94 11 -6 c 1.04 -0.35 3.52 0.2 4 1 c 1.08 1.79 1.6 6.02 2 9 c 0.26 1.94 -0.47 5.77 0 6 c 0.44 0.22 2.98 -2.54 4 -4 c 1.21 -1.73 1.69 -4.43 3 -6 c 1.8 -2.16 6.43 -6.34 7 -6 c 0.57 0.34 -1.09 6.1 -2 9 c -0.75 2.39 -3.28 5.58 -3 7 c 0.22 1.09 3.42 2.74 5 3 c 1.91 0.32 5.1 -0.21 7 -1 c 1.72 -0.72 3.52 -2.52 5 -4 c 1.81 -1.81 3.63 -3.87 5 -6 c 1.57 -2.44 3.28 -8.21 4 -8 c 0.84 0.24 1.71 7.2 3 10 c 0.52 1.14 1.89 2.22 3 3 c 2.12 1.48 4.57 3.07 7 4 c 4.4 1.68 9.3 3.06 14 4 c 3.56 0.71 7.25 0.81 11 1 c 3.06 0.15 6.21 0.46 9 0 l 9 -3"/><path fill="none" stroke="#000000" stroke-width="2" stroke-linecap="round" stroke-linejoin="round" d="M 276 97 c -0.17 0 -6.88 -0.39 -10 0 c -1.97 0.25 -4.73 0.73 -6 2 c -4.59 4.59 -9.97 11.7 -14 18 c -3.55 5.56 -9 18 -9 18"/><path fill="none" stroke="#000000" stroke-width="2" stroke-linecap="round" stroke-linejoin="round" d="M 161 152 c -0.09 0.11 -4.18 4.03 -5 6 c -0.63 1.51 -0.37 4.33 0 6 c 0.22 1 2 3 2 3"/><path fill="none" stroke="#000000" stroke-width="2" stroke-linecap="round" stroke-linejoin="round" d="M 197 154 c 0.11 -0.02 4.67 -1.66 6 -1 c 2.47 1.24 5.38 6.03 8 8 c 0.96 0.72 2.67 0.88 4 1 c 2.25 0.2 4.76 0.3 7 0 c 2.64 -0.35 5.64 -2.14 8 -2 c 2.72 0.16 9 3 9 3"/><path fill="none" stroke="#000000" stroke-width="2" stroke-linecap="round" stroke-linejoin="round" d="M 264 155 c 0.16 0.03 6.52 0.84 9 2 c 2.1 0.98 4.3 3.15 6 5 c 1.87 2.04 5 7 5 7"/></svg>