<?xml version="1.0" encoding="UTF-8" standalone="no"?><!DOCTYPE svg PUBLIC "-//W3C//DTD SVG 1.1//EN" "http://www.w3.org/Graphics/SVG/1.1/DTD/svg11.dtd"><svg xmlns="http://www.w3.org/2000/svg" version="1.1" width="289" height="194"><path fill="none" stroke="#000000" stroke-width="2" stroke-linecap="round" stroke-linejoin="round" d="M 41 40 c 0.58 -0.09 21.65 -3.61 33 -5 c 8.19 -1.01 16.24 -2 24 -2 c 3.92 0 10.27 0.41 12 2 c 1.28 1.18 1.03 6.73 0 9 c -1.88 4.14 -6.34 8.89 -10 13 c -4.41 4.97 -8.84 9.86 -14 14 c -16.94 13.6 -33.9 26.1 -52 39 c -9.27 6.61 -18.64 12.33 -28 18 c -1.51 0.92 -4.66 2.11 -5 2 l 2 -3"/><path fill="none" stroke="#000000" stroke-width="2" stroke-linecap="round" stroke-linejoin="round" d="M 65 95 l 5 38"/><path fill="none" stroke="#000000" stroke-width="2" stroke-linecap="round" stroke-linejoin="round" d="M 83 95 c 0.09 -0.03 3.32 -1.76 5 -2 c 4.99 -0.71 10.75 -1 16 -1 c 2.31 0 4.95 0.27 7 1 c 2.34 0.84 5.29 2.48 7 4 c 0.95 0.85 1.63 2.64 2 4 c 0.58 2.14 0.67 4.56 1 7 c 0.37 2.78 0.91 5.29 1 8 c 0.25 7.73 -0.65 15.66 0 23 c 0.32 3.64 1.29 8.98 3 11 c 1.24 1.46 5.4 1.89 8 2 c 4.74 0.21 15 -1 15 -1"/><path fill="none" stroke="#000000" stroke-width="2" stroke-linecap="round" stroke-linejoin="round" d="M 209 1 c 0.39 0.05 14.94 2.8 22 3 c 4.18 0.12 8.63 -1.69 13 -2 c 4.98 -0.36 10.55 -0.47 15 0 c 1.33 0.14 4.42 1.63 4 2 c -5.66 5.02 -31.31 24.54 -48 37 c -6.34 4.73 -12.34 9.03 -19 13 c -7.51 4.47 -15.15 8.58 -23 12 c -5.07 2.21 -16 5 -16 5"/><path fill="none" stroke="#000000" stroke-width="2" stroke-linecap="round" stroke-linejoin="round" d="M 198 53 l 0 19"/><path fill="none" stroke="#000000" stroke-width="2" stroke-linecap="round" stroke-linejoin="round" d="M 227 30 c 0.11 0.02 4.11 0.41 6 1 c 3.35 1.05 6.74 2.47 10 4 c 2.44 1.15 4.88 2.52 7 4 c 1.11 0.78 2.12 1.9 3 3 c 1.78 2.23 3.99 4.65 5 7 c 0.83 1.93 1 4.69 1 7 c 0 5.25 -1 10.94 -1 16 c 0 1.3 0.28 3.59 1 4 l 6 0"/><path fill="none" stroke="#000000" stroke-width="2" stroke-linecap="round" stroke-linejoin="round" d="M 145 110 c 0.28 -0.09 10.49 -3.68 16 -5 c 10.06 -2.41 19.59 -4.02 30 -6 c 4.14 -0.79 7.98 -1.72 12 -2 c 5.62 -0.39 14.8 -1.32 17 0 c 1.19 0.71 -0.59 6.76 -2 9 c -2.17 3.43 -6.42 6.86 -10 10 c -4.51 3.95 -9.09 7.32 -14 11 c -4.75 3.56 -9.12 6.88 -14 10 c -3.55 2.27 -7.15 4.2 -11 6 c -6.33 2.95 -18.68 7.84 -19 8 c -0.18 0.09 7.45 -2.37 11 -4 c 4.48 -2.05 8.94 -5.42 13 -7 c 1.37 -0.53 4.59 -0.82 5 0 c 0.99 1.98 1.18 8.03 1 12 c -0.48 10.27 -3.37 27.51 -3 31 c 0.08 0.75 4.59 -1.77 6 -3 c 0.94 -0.82 1.14 -2.83 2 -4 c 2.73 -3.73 5.6 -8.01 9 -11 c 4.64 -4.09 10.63 -7.68 16 -11 c 1.49 -0.92 3.84 -2.26 5 -2 c 1.22 0.27 3.2 2.51 4 4 c 1.34 2.49 1.74 6.7 3 9 c 0.48 0.87 1.99 1.8 3 2 c 1.95 0.39 5.04 0.61 7 0 l 9 -5"/><path fill="none" stroke="#000000" stroke-width="2" stroke-linecap="round" stroke-linejoin="round" d="M 252 106 c 0.05 -0.04 1.92 -1.64 3 -2 c 6.54 -2.18 13.98 -4.46 21 -6 c 3.55 -0.78 9.88 -2.12 11 -1 c 1.03 1.03 -0.43 7.36 -2 10 c -5.17 8.69 -12.77 18.44 -20 27 c -5.48 6.49 -11.63 12.19 -18 18 c -5.16 4.7 -15.88 11.59 -16 13 c -0.09 1.03 11.43 -1.75 15 -1 c 1.52 0.32 3.76 3.26 4 5 c 0.9 6.53 -0.34 22.47 0 24 c 0.1 0.46 3.13 -3.85 4 -6 c 3.33 -8.2 6.34 -17.13 9 -26 c 1.38 -4.61 2.24 -12.6 3 -14 c 0.23 -0.41 2.7 1.87 3 3 c 1.13 4.31 1.57 10.6 2 16 c 0.24 3.02 -0.37 6.07 0 9 c 0.62 4.98 1.62 10.87 3 15 c 0.38 1.15 2.01 3 3 3 l 11 -3"/></svg>