<?xml version="1.0" encoding="UTF-8" standalone="no"?><!DOCTYPE svg PUBLIC "-//W3C//DTD SVG 1.1//EN" "http://www.w3.org/Graphics/SVG/1.1/DTD/svg11.dtd"><svg xmlns="http://www.w3.org/2000/svg" version="1.1" width="248" height="167"><path fill="none" stroke="#000000" stroke-width="2" stroke-linecap="round" stroke-linejoin="round" d="M 27 34 c 0.11 -0.03 3.93 -1.58 6 -2 c 10.98 -2.25 22.03 -4.54 33 -6 c 3.92 -0.52 9.68 -0.71 12 0 c 0.8 0.25 0.85 2.68 1 4 c 0.18 1.6 0.52 3.62 0 5 c -1.3 3.45 -3.58 7.83 -6 11 c -2.73 3.58 -6.47 6.6 -10 10 c -5.83 5.61 -10.88 11.3 -17 16 c -8.14 6.25 -17.57 10.82 -26 17 c -6.74 4.94 -18.65 15.57 -19 16 c -0.17 0.22 7.13 -4.53 11 -6 c 12.69 -4.82 33.79 -14.92 39 -13 c 3.42 1.26 -2.61 26.31 -1 27 c 1.54 0.66 9.69 -14.07 15 -21 c 2.48 -3.23 5.12 -6.12 8 -9 c 3.55 -3.55 7.88 -8.53 11 -10 c 1.33 -0.62 4.22 1.11 6 2 c 1.4 0.7 3.02 1.8 4 3 c 1.85 2.26 3.78 5.35 5 8 c 0.66 1.43 0.45 3.54 1 5 c 0.39 1.03 1.22 2.07 2 3 c 6.28 7.48 12.58 15.02 19 22 c 1.1 1.2 2.91 3 4 3 c 1.27 0 3.65 -1.82 5 -3 l 3 -4"/><path fill="none" stroke="#000000" stroke-width="2" stroke-linecap="round" stroke-linejoin="round" d="M 162 4 c 0.18 -0.05 6.71 -2.63 10 -3 c 5.36 -0.6 15.89 -0.99 17 0 c 0.74 0.66 -5.04 5.67 -8 8 c -11.05 8.69 -22.87 16.05 -34 25 c -7.84 6.3 -20.99 18.61 -22 20 c -0.31 0.43 5.95 -1.6 9 -2 c 4.64 -0.61 9.77 -1.51 14 -1 c 3.52 0.42 7.93 4.26 11 4 c 3.75 -0.31 8.94 -3.63 13 -6 c 3.85 -2.25 7.16 -5.51 11 -8 c 2.9 -1.89 6.26 -4.27 9 -5 c 1.62 -0.43 5.54 -0.13 6 1 c 1.22 2.97 0.14 12.13 1 16 c 0.19 0.87 2 1.78 3 2 l 6 0"/><path fill="none" stroke="#000000" stroke-width="2" stroke-linecap="round" stroke-linejoin="round" d="M 125 93 c 0.07 -0.02 2.67 -0.97 4 -1 c 15.81 -0.3 44.73 -0.38 49 0 c 0.49 0.04 -2.5 2.87 -4 4 c -13.14 9.85 -26.47 20.06 -40 29 c -3.92 2.59 -12.77 5.91 -13 6 c -0.1 0.04 3.62 -2.85 5 -3 c 1.06 -0.12 3.62 0.97 4 2 c 1.47 3.99 2.25 11.2 3 17 c 0.61 4.71 0.01 14.3 1 14 c 1.52 -0.47 7.59 -12.24 12 -18 c 4.33 -5.66 9.02 -10.83 14 -16 c 3.81 -3.96 7.73 -7.88 12 -11 c 4.23 -3.09 11.47 -7.53 14 -8 c 0.84 -0.16 1.92 3.38 2 5 c 0.23 4.81 -1.41 11.24 -1 16 l 3 7"/><path fill="none" stroke="#000000" stroke-width="2" stroke-linecap="round" stroke-linejoin="round" d="M 214 89 c 0.05 0.05 2.46 1.92 3 3 c 0.65 1.3 1.4 3.65 1 5 c -1.05 3.56 -3.51 8.37 -6 12 c -5.41 7.89 -13.28 15.14 -18 23 c -2.91 4.85 -4.47 11.22 -6 17 c -1.47 5.53 -3 17 -3 17"/><path fill="none" stroke="#000000" stroke-width="2" stroke-linecap="round" stroke-linejoin="round" d="M 203 139 c -0.09 0.12 -3.97 4.56 -5 7 c -1.48 3.51 -3 12 -3 12"/><path fill="none" stroke="#000000" stroke-width="2" stroke-linecap="round" stroke-linejoin="round" d="M 216 125 l 1 1"/><path fill="none" stroke="#000000" stroke-width="2" stroke-linecap="round" stroke-linejoin="round" d="M 225 105 c -0.09 0.16 -3.76 5.91 -5 9 c -1.37 3.42 -3.6 8.91 -3 11 c 0.4 1.39 5.07 1.67 7 3 c 2.15 1.49 4.44 3.79 6 6 c 2.3 3.26 3.87 9.36 6 11 c 1.2 0.93 5.21 -0.19 7 -1 l 4 -4"/></svg>