<?xml version="1.0" encoding="UTF-8" standalone="no"?><!DOCTYPE svg PUBLIC "-//W3C//DTD SVG 1.1//EN" "http://www.w3.org/Graphics/SVG/1.1/DTD/svg11.dtd"><svg xmlns="http://www.w3.org/2000/svg" version="1.1" width="189" height="221"><path fill="none" stroke="#000000" stroke-width="2" stroke-linecap="round" stroke-linejoin="round" d="M 167 73 c -0.33 0.91 -12.96 34.13 -19 52 c -2.49 7.36 -4.78 14.56 -6 22 c -1.77 10.81 -2.38 21.75 -3 33 c -0.4 7.13 -1.08 14.69 0 21 c 0.78 4.58 3.73 9.69 6 14 c 0.95 1.81 4 5 4 5"/><path fill="none" stroke="#000000" stroke-width="2" stroke-linecap="round" stroke-linejoin="round" d="M 5 40 c 0.32 -0.09 12.09 -2.84 18 -5 c 11.63 -4.25 22.25 -9.48 34 -14 c 6.06 -2.33 18 -6 18 -6"/><path fill="none" stroke="#000000" stroke-width="2" stroke-linecap="round" stroke-linejoin="round" d="M 9 88 c 0.16 -0.03 6.15 -0.95 9 -2 c 7.06 -2.59 21 -9 21 -9"/><path fill="none" stroke="#000000" stroke-width="2" stroke-linecap="round" stroke-linejoin="round" d="M 43 65 c 0.02 0.09 1 3.34 1 5 c 0 11.05 0.1 22.97 -1 34 c -0.53 5.35 -3.07 10.62 -4 16 c -0.73 4.26 -1 13 -1 13"/><path fill="none" stroke="#000000" stroke-width="2" stroke-linecap="round" stroke-linejoin="round" d="M 1 164 c 0.16 -0.24 5.32 -10.22 9 -14 c 7.52 -7.74 16.77 -15.74 26 -22 c 10.19 -6.91 21.77 -11.51 33 -18 c 13.27 -7.66 38 -23 38 -23"/><path fill="none" stroke="#000000" stroke-width="2" stroke-linecap="round" stroke-linejoin="round" d="M 117 25 l 1 1"/><path fill="none" stroke="#000000" stroke-width="2" stroke-linecap="round" stroke-linejoin="round" d="M 113 8 c 0.11 -0.05 4.06 -2.51 6 -3 c 1.74 -0.43 4.09 0.35 6 0 c 5.24 -0.95 10.71 -3.38 16 -4 c 5.77 -0.68 12.1 -0.26 18 0 c 1.67 0.07 3.85 0.23 5 1 c 1.45 0.97 3.44 3.33 4 5 c 0.61 1.83 0.41 4.84 0 7 c -0.55 2.93 -1.46 6.62 -3 9 c -1.83 2.83 -5.12 5.76 -8 8 c -2.97 2.31 -6.58 4.66 -10 6 c -3.91 1.53 -8.62 2.45 -13 3 c -6.24 0.78 -12.97 1 -19 1 c -1.31 0 -3.54 -0.31 -4 -1 c -0.56 -0.84 -0.9 -4.18 0 -5 c 5.28 -4.84 16.38 -13.08 24 -17 l 11 -1"/><path fill="none" stroke="#000000" stroke-width="2" stroke-linecap="round" stroke-linejoin="round" d="M 92 78 c -0.03 0.1 -1.77 4.03 -2 6 c -0.4 3.43 0 11 0 11"/><path fill="none" stroke="#000000" stroke-width="2" stroke-linecap="round" stroke-linejoin="round" d="M 92 76 c 0.28 -0.23 10.3 -9.03 16 -13 c 9.82 -6.83 20.27 -14.65 30 -19 c 4.69 -2.1 11.24 -1.65 17 -2 c 5.38 -0.33 10.7 -0.24 16 0 c 2.01 0.09 4.14 0.38 6 1 c 3.01 1 6.82 2.42 9 4 l 2 4"/><path fill="none" stroke="#000000" stroke-width="2" stroke-linecap="round" stroke-linejoin="round" d="M 139 69 c -0.16 0.21 -5.7 8.11 -9 12 c -6.23 7.34 -19 21 -19 21"/><path fill="none" stroke="#000000" stroke-width="2" stroke-linecap="round" stroke-linejoin="round" d="M 129 45 c 0.16 0.02 6.86 -0.07 9 1 c 1.85 0.92 3.79 3.99 5 6 c 0.64 1.06 1 4 1 4"/><path fill="none" stroke="#000000" stroke-width="2" stroke-linecap="round" stroke-linejoin="round" d="M 94 120 c 0.37 -0.3 13.6 -11.53 21 -17 c 8.28 -6.12 25 -17 25 -17"/><path fill="none" stroke="#000000" stroke-width="2" stroke-linecap="round" stroke-linejoin="round" d="M 147 102 c -0.24 0.23 -12.1 12.11 -14 13 c -0.61 0.28 -1.13 -4.15 -1 -6 c 0.18 -2.5 0.89 -5.79 2 -8 c 1.05 -2.09 3.19 -4.19 5 -6 c 1.48 -1.48 3.23 -2.97 5 -4 c 2.1 -1.23 4.7 -2.66 7 -3 c 3.92 -0.59 9.44 -0.63 13 0 c 1.37 0.24 3.23 1.79 4 3 c 1.31 2.07 2.71 5.37 3 8 c 0.65 5.85 1.61 13.87 0 19 c -1.65 5.24 -6.95 11.75 -11 16 c -2.43 2.55 -6.62 4.87 -10 6 c -4.1 1.37 -9.28 1.69 -14 2 c -5.34 0.36 -11 0.78 -16 0 c -5.24 -0.82 -12.25 -2.34 -16 -5 c -3.23 -2.29 -8.27 -9.83 -8 -12 c 0.2 -1.62 6.84 -3.53 10 -4 c 2.95 -0.44 7.11 -0.15 10 1 c 9.64 3.85 21.37 8.83 30 15 c 9.28 6.63 26 25 26 25"/></svg>