<?xml version="1.0" encoding="UTF-8" standalone="no"?><!DOCTYPE svg PUBLIC "-//W3C//DTD SVG 1.1//EN" "http://www.w3.org/Graphics/SVG/1.1/DTD/svg11.dtd"><svg xmlns="http://www.w3.org/2000/svg" version="1.1" width="325" height="192"><path fill="none" stroke="#000000" stroke-width="2" stroke-linecap="round" stroke-linejoin="round" d="M 8 39 c 0.81 -0.35 30.54 -13.87 46 -20 c 3.81 -1.51 8.28 -2.83 12 -3 c 3.06 -0.14 8.35 0.85 10 2 c 0.81 0.56 0.7 3.73 0 5 c -11.29 20.38 -38.2 65.11 -41 69 c -0.42 0.58 0 -12 0 -12"/><path fill="none" stroke="#000000" stroke-width="2" stroke-linecap="round" stroke-linejoin="round" d="M 39 54 c -0.07 0.35 -1.65 13.9 -4 20 c -4.11 10.7 -15.69 29.33 -16 32 c -0.12 1.07 8.99 -3.59 13 -6 c 4.2 -2.52 7.79 -6.19 12 -9 c 3.9 -2.6 7.82 -4.91 12 -7 c 4.58 -2.29 9.26 -4.35 14 -6 c 2.87 -1 6.02 -1.63 9 -2 c 2.26 -0.28 4.79 -0.32 7 0 c 2.3 0.33 5.27 0.9 7 2 c 1.52 0.97 2.97 3.23 4 5 c 1.23 2.1 2.74 4.78 3 7 c 0.34 2.93 -0.4 6.7 -1 10 c -0.74 4.06 -1.25 8.5 -3 12 c -4.64 9.27 -10.8 18.71 -17 28 c -6.77 10.16 -14.35 19.16 -21 29 c -1.66 2.46 -2.37 5.63 -4 8 c -1.94 2.82 -5.98 7.75 -7 8 c -0.58 0.15 -1 -4.01 -1 -6 c 0 -8.52 1 -26 1 -26"/><path fill="none" stroke="#000000" stroke-width="2" stroke-linecap="round" stroke-linejoin="round" d="M 1 162 c 0.42 -0.28 15.55 -11.01 24 -16 c 14.03 -8.29 28.32 -14.47 42 -23 c 12.29 -7.66 35 -25 35 -25"/><path fill="none" stroke="#000000" stroke-width="2" stroke-linecap="round" stroke-linejoin="round" d="M 212 1 c -0.42 0.44 -15.41 17.05 -24 25 c -9.67 8.96 -19.56 16.69 -30 25 c -4.6 3.66 -9.16 7.5 -14 10 c -4.45 2.3 -10.47 4.09 -15 5 c -1.46 0.29 -5 -1 -5 -1"/><path fill="none" stroke="#000000" stroke-width="2" stroke-linecap="round" stroke-linejoin="round" d="M 197 24 c 0.39 0.09 15.82 3.02 22 5 c 1.16 0.37 3 3 3 3"/><path fill="none" stroke="#000000" stroke-width="2" stroke-linecap="round" stroke-linejoin="round" d="M 169 65 c 0.19 -0.09 7.17 -3.56 11 -5 c 7.01 -2.63 19.38 -7.46 21 -7 c 0.95 0.27 -4.07 8.07 -7 11 c -8.59 8.59 -29.22 23.68 -29 25 c 0.19 1.16 20.44 -9.27 31 -13 c 6.47 -2.29 13.44 -2.95 20 -5 c 4.14 -1.29 11.21 -4.21 12 -5 c 0.33 -0.33 -3.35 -1.81 -5 -2 c -3.67 -0.43 -8.14 0.24 -12 0 c -1.33 -0.08 -3.35 -1.43 -4 -1 c -0.85 0.57 -1.73 3.29 -2 5 c -1.66 10.54 -3.93 31.06 -4 33 c -0.01 0.29 1.78 -3 3 -4 c 4.19 -3.45 14.13 -10.27 14 -10 c -0.15 0.3 -10.06 7.66 -15 12 c -9.1 7.99 -17.61 15.9 -26 24 c -1.19 1.15 -3.22 4.1 -3 4 c 1.41 -0.62 18.54 -10.4 28 -15 c 2.82 -1.37 6.26 -2.61 9 -3 c 1.47 -0.21 5.09 0.56 5 1 c -0.12 0.62 -3.99 3.09 -6 4 l -5 1"/><path fill="none" stroke="#000000" stroke-width="2" stroke-linecap="round" stroke-linejoin="round" d="M 145 130 c -0.16 0.28 -6.22 10.45 -9 16 c -2.3 4.61 -4.28 9.33 -6 14 c -0.58 1.56 -1.09 5.14 -1 5 c 0.34 -0.52 6.26 -11.13 9 -17 c 1.98 -4.25 5 -13 5 -13"/><path fill="none" stroke="#000000" stroke-width="2" stroke-linecap="round" stroke-linejoin="round" d="M 173 97 c 0.12 0.05 5.02 1.74 7 3 c 1.47 0.93 2.87 2.53 4 4 c 2.16 2.81 4.67 5.9 6 9 c 1.52 3.54 2.29 7.94 3 12 c 0.63 3.62 1 7.3 1 11 c 0 7.37 -0.3 14.75 -1 22 c -0.29 3.03 -1.6 6.02 -2 9 c -0.26 1.94 0.22 6.22 0 6 c -0.49 -0.49 -4.53 -7.91 -6 -12 c -1.46 -4.06 -1.67 -8.82 -3 -13 c -0.98 -3.08 -3.27 -5.96 -4 -9 c -1.19 -4.97 -2 -11.16 -2 -16 c 0 -1.9 1.02 -4.86 2 -6 c 0.64 -0.75 3.35 -1.43 4 -1 c 0.85 0.57 2.41 3.7 2 5 c -1.48 4.64 -5.56 11.67 -9 17 c -3.19 4.94 -11.34 13.55 -11 14 c 0.33 0.44 9.72 -7.75 14 -10 c 1.24 -0.65 4.16 -0.56 5 0 c 0.69 0.46 1 2.72 1 4 c 0 2.81 -0.05 6.29 -1 9 c -3.2 9.12 -12 26.4 -12 28 c 0 0.82 9.13 -5.98 12 -10 c 16.23 -22.72 31.5 -49.82 48 -74 c 2.78 -4.08 6.45 -7.45 10 -11 c 2.54 -2.54 7.92 -7.38 8 -7 c 0.1 0.49 -4.94 7.78 -7 12 c -5.05 10.34 -8.67 20.81 -14 31 c -6.18 11.81 -19.28 33.68 -20 34 c -0.59 0.26 6.84 -20.3 11 -30 c 1.81 -4.22 4.39 -8.09 7 -12 c 3.49 -5.24 7.11 -10.42 11 -15 c 1.63 -1.92 3.84 -3.8 6 -5 c 3.6 -2 8.18 -3.88 12 -5 c 1.47 -0.43 3.58 -0.47 5 0 c 3.16 1.05 7.77 2.94 10 5 c 1.52 1.4 2.69 4.82 3 7 c 0.29 2.02 -0.43 4.74 -1 7 c -0.76 3.04 -1.58 6.27 -3 9 c -3.15 6.08 -7.07 12.68 -11 18 c -1.46 1.97 -3.89 3.6 -6 5 c -1.81 1.21 -4.45 2.83 -6 3 c -0.83 0.09 -2.57 -1.14 -3 -2 c -0.99 -1.98 -1.8 -5.57 -2 -8 c -0.1 -1.21 0.43 -2.85 1 -4 c 1.01 -2.01 2.38 -4.38 4 -6 c 3.18 -3.18 7.3 -6.46 11 -9 c 1.4 -0.96 3.54 -2 5 -2 c 1.72 0 5.73 0.91 6 2 c 0.45 1.81 -1.58 7.01 -3 10 c -1.47 3.1 -3.86 5.96 -6 9 c -1.98 2.81 -3.71 5.71 -6 8 c -3.58 3.58 -11.77 9.85 -12 10 c -0.12 0.08 3.85 -4.18 6 -6 c 2.18 -1.84 4.57 -3.61 7 -5 c 2.16 -1.23 4.64 -2.21 7 -3 c 1.58 -0.53 3.67 -1.17 5 -1 c 0.94 0.12 2.92 1.25 3 2 c 0.17 1.52 -0.93 4.95 -2 7 c -2.45 4.68 -5.53 9.72 -9 14 c -6.5 8.01 -14 16 -21 23 c -1.31 1.31 -3.31 2.25 -5 3 c -1.19 0.53 -2.65 0.86 -4 1 c -5.26 0.53 -11.16 0.27 -16 1 c -1.35 0.2 -4.07 2.04 -4 2 c 0.18 -0.09 6.49 -3.53 10 -5 c 11.13 -4.66 21.55 -9.44 33 -13 c 24.43 -7.6 73 -20 73 -20"/></svg>