<?xml version="1.0" encoding="UTF-8" standalone="no"?><!DOCTYPE svg PUBLIC "-//W3C//DTD SVG 1.1//EN" "http://www.w3.org/Graphics/SVG/1.1/DTD/svg11.dtd"><svg xmlns="http://www.w3.org/2000/svg" version="1.1" width="290" height="226"><path fill="none" stroke="#000000" stroke-width="2" stroke-linecap="round" stroke-linejoin="round" d="M 1 61 c 0.42 -0.14 16.25 -4.95 24 -8 c 3.15 -1.24 5.95 -3.74 9 -5 c 2.45 -1.01 5.48 -0.99 8 -2 c 7.4 -2.96 14.68 -7.34 22 -10 c 3.39 -1.23 7.89 -2 11 -2 c 1.24 0 2.69 1.25 4 2 c 1.05 0.6 2.22 1.22 3 2 c 0.78 0.78 1.84 1.99 2 3 c 0.43 2.81 0.83 7.08 0 10 c -1.64 5.75 -4.48 12.77 -8 18 c -6.48 9.62 -21.04 26.04 -23 28 l 0 -5"/><path fill="none" stroke="#000000" stroke-width="2" stroke-linecap="round" stroke-linejoin="round" d="M 46 77 c -0.02 0.16 -0.18 6.27 -1 9 c -1.09 3.64 -2.97 7.54 -5 11 c -3.63 6.2 -11.37 15.72 -12 18 c -0.21 0.74 4.96 0.68 7 0 c 11 -3.67 23.24 -9.72 35 -14 c 2.88 -1.05 6.01 -1.79 9 -2 c 6.17 -0.44 13.08 -0.76 19 0 c 3.94 0.51 8.62 2.31 12 4 c 1.51 0.75 3.08 2.51 4 4 c 1.6 2.59 3.75 6.18 4 9 c 0.35 4.05 -0.95 9.59 -2 14 c -0.57 2.38 -1.59 5.04 -3 7 c -4.35 6.04 -10.32 11.76 -15 18 c -2.33 3.1 -3.55 7.11 -6 10 c -6.7 7.89 -14.63 16.36 -22 23 c -2.07 1.86 -5.46 2.43 -8 4 c -4.49 2.78 -9.86 7.62 -13 9 c -0.72 0.31 -2.93 -1.16 -3 -2 c -0.43 -4.93 1 -21 1 -21"/><path fill="none" stroke="#000000" stroke-width="2" stroke-linecap="round" stroke-linejoin="round" d="M 1 163 c 0.14 -0.02 5.44 -0.26 8 -1 c 24.92 -7.21 51.07 -16.29 75 -23 c 2.14 -0.6 7 0 7 0"/><path fill="none" stroke="#000000" stroke-width="2" stroke-linecap="round" stroke-linejoin="round" d="M 228 1 c -0.3 0.4 -10.68 16.05 -17 23 c -6.88 7.57 -14.86 14.14 -23 21 c -9.3 7.84 -18.21 14.95 -28 22 c -7.17 5.16 -14.41 9.49 -22 14 c -3.25 1.93 -10 5 -10 5"/><path fill="none" stroke="#000000" stroke-width="2" stroke-linecap="round" stroke-linejoin="round" d="M 215 30 c 0.12 0.03 4.64 1.63 7 2 c 3.9 0.62 8.01 0.43 12 1 c 3.06 0.44 9 2 9 2"/><path fill="none" stroke="#000000" stroke-width="2" stroke-linecap="round" stroke-linejoin="round" d="M 187 66 c 0.56 -0.21 21.56 -7.77 32 -12 c 1.78 -0.72 3.31 -2.25 5 -3 c 1.19 -0.53 3.07 -1.27 4 -1 c 0.96 0.27 3.1 2.21 3 3 c -0.15 1.19 -2.47 3.57 -4 5 c -3.39 3.17 -7.11 6.03 -11 9 c -7.83 5.99 -15.71 12.14 -23 17 c -1.05 0.7 -4.07 1.03 -4 1 c 0.29 -0.13 11.1 -5.07 17 -7 c 12.7 -4.16 38 -11 38 -11"/><path fill="none" stroke="#000000" stroke-width="2" stroke-linecap="round" stroke-linejoin="round" d="M 224 65 c -0.1 0.49 -4.33 18.8 -6 28 c -0.29 1.61 -0.52 4.48 0 5 c 0.43 0.43 4 -1 4 -1"/><path fill="none" stroke="#000000" stroke-width="2" stroke-linecap="round" stroke-linejoin="round" d="M 209 96 c 0.12 0.05 4.8 2.71 7 3 c 2.33 0.31 5.51 -0.24 8 -1 c 5.95 -1.83 12.64 -5.6 18 -7 c 1.41 -0.37 5.26 0.51 5 1 c -0.88 1.64 -7.81 8.25 -12 12 c -2.13 1.9 -7 5 -7 5"/><path fill="none" stroke="#000000" stroke-width="2" stroke-linecap="round" stroke-linejoin="round" d="M 184 123 c 0.42 -0.09 15.86 -2.96 24 -5 c 11.04 -2.76 21.02 -6.12 32 -9 c 3.37 -0.88 6.89 -1.79 10 -2 c 1.56 -0.1 5 1 5 1"/><path fill="none" stroke="#000000" stroke-width="2" stroke-linecap="round" stroke-linejoin="round" d="M 167 117 c -0.26 0.39 -10.3 14.28 -15 22 c -5.84 9.61 -10.25 19.17 -16 29 c -4.91 8.4 -15 24 -15 24"/><path fill="none" stroke="#000000" stroke-width="2" stroke-linecap="round" stroke-linejoin="round" d="M 169 124 c 0.09 0.02 3.75 0.2 5 1 c 2.95 1.9 6.53 5.14 9 8 c 1.66 1.91 3 4.54 4 7 c 2.64 6.47 5.53 14.14 7 20 l -1 4"/><path fill="none" stroke="#000000" stroke-width="2" stroke-linecap="round" stroke-linejoin="round" d="M 158 151 c 0.21 -0.02 10.02 -1.92 12 -1 c 1.17 0.54 1 7 1 7"/><path fill="none" stroke="#000000" stroke-width="2" stroke-linecap="round" stroke-linejoin="round" d="M 154 181 c 0.21 -0.07 7.88 -2.93 12 -4 c 4.98 -1.29 10.65 -1.42 15 -3 c 2.45 -0.89 7 -5 7 -5"/><path fill="none" stroke="#000000" stroke-width="2" stroke-linecap="round" stroke-linejoin="round" d="M 175 162 l 2 35"/><path fill="none" stroke="#000000" stroke-width="2" stroke-linecap="round" stroke-linejoin="round" d="M 165 181 c 0.02 0.07 0.26 3.47 1 4 c 1.09 0.78 4.1 1.15 6 1 c 6.02 -0.48 13.15 -2.49 19 -3 c 1.25 -0.11 3.41 0.29 4 1 c 0.73 0.88 1.51 3.88 1 5 c -0.84 1.86 -3.82 4.18 -6 6 c -3.85 3.21 -12 9 -12 9"/><path fill="none" stroke="#000000" stroke-width="2" stroke-linecap="round" stroke-linejoin="round" d="M 155 214 c 0.74 -0.31 27.99 -13.33 42 -18 c 7.46 -2.49 16.23 -2.39 24 -4 c 1.72 -0.36 5 -2 5 -2"/><path fill="none" stroke="#000000" stroke-width="2" stroke-linecap="round" stroke-linejoin="round" d="M 268 108 c -0.28 0.49 -10.21 18.79 -16 28 c -3.34 5.31 -7.07 9.99 -11 15 c -3.6 4.58 -6.87 9.15 -11 13 c -10.5 9.78 -33 28 -33 28"/><path fill="none" stroke="#000000" stroke-width="2" stroke-linecap="round" stroke-linejoin="round" d="M 241 137 c 0.1 0 4.06 -0.26 6 0 c 2.98 0.4 6.43 0.78 9 2 c 4.02 1.92 8.8 5.26 12 8 c 0.99 0.85 2 4 2 4"/><path fill="none" stroke="#000000" stroke-width="2" stroke-linecap="round" stroke-linejoin="round" d="M 233 166 c 0.32 -0.05 12 -2.25 18 -3 c 1.97 -0.25 4.08 0.27 6 0 c 2.63 -0.38 8 -2 8 -2"/><path fill="none" stroke="#000000" stroke-width="2" stroke-linecap="round" stroke-linejoin="round" d="M 232 193 c 0.49 -0.16 18.67 -5.65 28 -9 c 3.83 -1.38 7.41 -3.21 11 -5 c 1.07 -0.54 3 -1.39 3 -2 c 0 -0.84 -1.95 -3.91 -3 -4 c -1.99 -0.17 -7.38 1.55 -9 3 c -1.04 0.93 -1 4.08 -1 6 c 0 2.23 0.92 4.64 1 7 c 0.25 7.01 0.3 19.19 0 21 l -3 -3"/><path fill="none" stroke="#000000" stroke-width="2" stroke-linecap="round" stroke-linejoin="round" d="M 244 199 c 0.14 0.02 5.43 1.12 8 1 c 4.19 -0.2 8.77 -0.94 13 -2 c 5.08 -1.27 11.99 -4.82 15 -5 c 0.85 -0.05 2.36 3.18 2 4 c -0.64 1.43 -3.85 3.61 -6 5 c -3.45 2.23 -11 6 -11 6"/><path fill="none" stroke="#000000" stroke-width="2" stroke-linecap="round" stroke-linejoin="round" d="M 216 225 c 0.96 -0.3 36.12 -11.45 55 -17 c 4.38 -1.29 8.73 -2.29 13 -3 c 1.6 -0.27 5 0 5 0"/></svg>