<?xml version="1.0" encoding="UTF-8" standalone="no"?><!DOCTYPE svg PUBLIC "-//W3C//DTD SVG 1.1//EN" "http://www.w3.org/Graphics/SVG/1.1/DTD/svg11.dtd"><svg xmlns="http://www.w3.org/2000/svg" version="1.1" width="288" height="213"><path fill="none" stroke="#000000" stroke-width="2" stroke-linecap="round" stroke-linejoin="round" d="M 1 43 c 0.11 0.03 4.04 1.7 6 2 c 2.17 0.33 4.76 0.3 7 0 c 2.64 -0.35 5.34 -1.17 8 -2 c 2.75 -0.86 5.43 -1.72 8 -3 c 12.91 -6.45 25.59 -14.31 38 -20 c 2.95 -1.35 7.18 -2 10 -2 c 1.24 0 3.42 1.07 4 2 c 0.79 1.26 1 4.15 1 6 c 0 1.25 -0.43 2.8 -1 4 c -2.03 4.31 -4.49 8.61 -7 13 c -1.6 2.81 -3.01 5.59 -5 8 c -7.32 8.88 -20.37 24.13 -23 26 l -1 -9"/><path fill="none" stroke="#000000" stroke-width="2" stroke-linecap="round" stroke-linejoin="round" d="M 49 50 c -0.28 0.65 -11.21 24.89 -16 37 c -0.72 1.83 -1.54 4.92 -1 6 c 0.48 0.96 3.45 1.86 5 2 c 1.75 0.16 4.24 -0.32 6 -1 c 2.34 -0.9 4.53 -2.92 7 -4 c 8.25 -3.61 16.82 -7.86 25 -10 c 5.18 -1.36 11.67 -1.38 17 -1 c 3.57 0.25 7.82 1.61 11 3 c 1.79 0.78 3.69 2.46 5 4 c 2.21 2.61 4.35 5.87 6 9 c 1.64 3.12 3.73 6.88 4 10 c 0.33 3.81 -0.69 9.07 -2 13 c -1.56 4.68 -4.41 9.42 -7 14 c -1.79 3.17 -3.69 6.23 -6 9 c -6.05 7.26 -12.25 14.64 -19 21 c -4.44 4.17 -9.93 8.04 -15 11 c -2.58 1.51 -7.7 3.65 -9 3 c -1.1 -0.55 -1.13 -5.44 -1 -8 l 2 -12"/><path fill="none" stroke="#000000" stroke-width="2" stroke-linecap="round" stroke-linejoin="round" d="M 4 148 c 0.72 -0.28 27.37 -10.16 41 -16 c 5.26 -2.26 9.77 -6.16 15 -8 c 12.46 -4.39 39 -11 39 -11"/><path fill="none" stroke="#000000" stroke-width="2" stroke-linecap="round" stroke-linejoin="round" d="M 214 1 c -0.31 0.3 -11.63 11.49 -18 17 c -6.23 5.39 -12.66 9.68 -19 15 c -4.26 3.58 -7.76 7.68 -12 11 c -3.39 2.66 -7.15 5 -11 7 c -5.16 2.68 -16 7 -16 7"/><path fill="none" stroke="#000000" stroke-width="2" stroke-linecap="round" stroke-linejoin="round" d="M 213 23 c 0.18 0.05 6.91 1.81 10 3 c 1.07 0.41 3 2 3 2"/><path fill="none" stroke="#000000" stroke-width="2" stroke-linecap="round" stroke-linejoin="round" d="M 181 55 c 0.39 -0.04 14.78 -0.91 22 -2 c 3.73 -0.56 7.4 -2.4 11 -3 c 2.21 -0.37 5.55 -0.64 7 0 c 0.93 0.41 2 4 2 4"/><path fill="none" stroke="#000000" stroke-width="2" stroke-linecap="round" stroke-linejoin="round" d="M 178 79 c 0.16 0 6.04 0.38 9 0 c 10 -1.28 20 -3.68 30 -5 c 2.63 -0.35 8 0 8 0"/><path fill="none" stroke="#000000" stroke-width="2" stroke-linecap="round" stroke-linejoin="round" d="M 214 58 c 0.02 0.44 1.23 16.91 1 25 c -0.09 3.3 -1.65 6.67 -2 10 c -0.31 2.94 0 9 0 9"/><path fill="none" stroke="#000000" stroke-width="2" stroke-linecap="round" stroke-linejoin="round" d="M 195 96 c 0.14 0.05 5.32 2.33 8 3 c 2.53 0.63 5.64 1.47 8 1 c 5.27 -1.05 11.67 -3.68 17 -6 c 2.13 -0.93 5.38 -4.12 6 -4 c 0.44 0.09 -0.38 3.6 -1 5 c -0.61 1.37 -1.9 2.74 -3 4 c -1.24 1.42 -2.51 2.91 -4 4 c -3.42 2.51 -11 7 -11 7"/><path fill="none" stroke="#000000" stroke-width="2" stroke-linecap="round" stroke-linejoin="round" d="M 166 119 c 0.84 -0.11 32.08 -3.35 48 -6 c 6.15 -1.02 11.94 -3.65 18 -5 c 2.94 -0.65 6.16 -0.26 9 -1 c 4.66 -1.22 14 -5 14 -5"/><path fill="none" stroke="#000000" stroke-width="2" stroke-linecap="round" stroke-linejoin="round" d="M 151 109 c -0.02 0.1 -0.43 4.06 -1 6 c -1.77 6.06 -3.11 12.66 -6 18 c -5.5 10.16 -20 30 -20 30"/><path fill="none" stroke="#000000" stroke-width="2" stroke-linecap="round" stroke-linejoin="round" d="M 164 102 c 0.19 0.26 7.64 9.84 11 15 c 1.62 2.48 2.99 5.25 4 8 c 1.29 3.51 2.48 7.28 3 11 c 1.14 8.18 2 25 2 25"/><path fill="none" stroke="#000000" stroke-width="2" stroke-linecap="round" stroke-linejoin="round" d="M 155 141 c 0.14 0.02 5.58 0.31 8 1 c 2.01 0.58 6 3 6 3"/><path fill="none" stroke="#000000" stroke-width="2" stroke-linecap="round" stroke-linejoin="round" d="M 143 165 c 0.6 -0.12 22.76 -5.33 34 -7 c 4.21 -0.63 13 0 13 0"/><path fill="none" stroke="#000000" stroke-width="2" stroke-linecap="round" stroke-linejoin="round" d="M 173 151 c 0.02 0.26 1.35 10.11 1 15 c -0.63 8.88 -2.9 17.96 -4 27 c -0.24 1.99 0.22 5.67 0 6 l -2 -3"/><path fill="none" stroke="#000000" stroke-width="2" stroke-linecap="round" stroke-linejoin="round" d="M 155 177 c 0.23 0 8.82 0.4 13 0 c 2.65 -0.25 5.39 -1.09 8 -2 c 5.11 -1.78 10.45 -4.92 15 -6 c 1.71 -0.41 5.33 0.2 6 1 c 0.56 0.67 -0.3 3.6 -1 5 c -1.48 2.97 -3.76 6.25 -6 9 c -2.05 2.52 -7 7 -7 7"/><path fill="none" stroke="#000000" stroke-width="2" stroke-linecap="round" stroke-linejoin="round" d="M 126 204 c 0.09 -0.03 3.28 -1.67 5 -2 c 10.03 -1.95 20.37 -3.67 31 -5 c 8.49 -1.06 16.45 -1.69 25 -2 c 10.57 -0.38 21 0.29 31 0 l 4 -1"/><path fill="none" stroke="#000000" stroke-width="2" stroke-linecap="round" stroke-linejoin="round" d="M 258 116 c -0.21 0.18 -8.37 6.37 -12 10 c -3.3 3.3 -5.69 7.5 -9 11 c -8.9 9.39 -17.96 17.52 -27 27 c -5.37 5.63 -15 17 -15 17"/><path fill="none" stroke="#000000" stroke-width="2" stroke-linecap="round" stroke-linejoin="round" d="M 262 115 c 0.1 0 4.11 -0.29 6 0 c 2.3 0.35 4.89 1.01 7 2 c 3.39 1.59 7.43 3.86 10 6 c 0.99 0.82 2.13 2.99 2 4 l -3 4"/><path fill="none" stroke="#000000" stroke-width="2" stroke-linecap="round" stroke-linejoin="round" d="M 240 147 c 0.25 -0.03 9.3 -1.51 14 -2 c 1.66 -0.17 3.41 -0.25 5 0 c 2.63 0.4 6.74 0.9 8 2 c 0.76 0.67 0.51 3.72 0 5 c -0.65 1.63 -4 5 -4 5"/><path fill="none" stroke="#000000" stroke-width="2" stroke-linecap="round" stroke-linejoin="round" d="M 233 174 c 0.11 0.02 4.15 1.29 6 1 c 9.95 -1.57 32 -7 32 -7"/><path fill="none" stroke="#000000" stroke-width="2" stroke-linecap="round" stroke-linejoin="round" d="M 259 159 c 0.04 0.19 2 7.46 2 11 c 0 5.42 -1.04 11.26 -2 17 c -1.09 6.51 -4 19 -4 19"/><path fill="none" stroke="#000000" stroke-width="2" stroke-linecap="round" stroke-linejoin="round" d="M 239 190 c 0.1 0.09 4 4.53 6 5 c 2.82 0.66 7.58 -0.09 11 -1 c 6.28 -1.67 16.63 -6.87 19 -7 c 0.71 -0.04 -0.04 4.55 -1 6 c -2.58 3.87 -7.21 8.21 -11 12 l -4 3"/><path fill="none" stroke="#000000" stroke-width="2" stroke-linecap="round" stroke-linejoin="round" d="M 228 212 c 0.4 0 15.26 0.39 23 0 c 5.76 -0.29 11.54 -0.75 17 -2 c 6.05 -1.38 18 -6 18 -6"/></svg>