<?xml version="1.0" encoding="UTF-8" standalone="no"?><!DOCTYPE svg PUBLIC "-//W3C//DTD SVG 1.1//EN" "http://www.w3.org/Graphics/SVG/1.1/DTD/svg11.dtd"><svg xmlns="http://www.w3.org/2000/svg" version="1.1" width="227" height="171"><path fill="none" stroke="#000000" stroke-width="2" stroke-linecap="round" stroke-linejoin="round" d="M 11 52 c 0.37 -0.21 13.73 -8.45 21 -12 c 6.48 -3.16 13.32 -6.09 20 -8 c 4.69 -1.34 9.94 -1.63 15 -2 c 4.01 -0.3 9.68 -0.71 12 0 l 1 4"/><path fill="none" stroke="#000000" stroke-width="2" stroke-linecap="round" stroke-linejoin="round" d="M 21 121 c 0.42 -0.3 15.65 -11.76 24 -17 c 6.1 -3.83 13.17 -6.25 19 -10 c 3.27 -2.1 9 -8 9 -8"/><path fill="none" stroke="#000000" stroke-width="2" stroke-linecap="round" stroke-linejoin="round" d="M 55 58 c -0.04 0.16 -1.85 6 -2 9 c -0.5 10.08 0.84 20.75 0 31 c -0.82 10.05 -3.68 20 -5 30 c -0.35 2.63 0.29 5.39 0 8 c -0.37 3.32 -0.85 7.51 -2 10 l -4 3"/><path fill="none" stroke="#000000" stroke-width="2" stroke-linecap="round" stroke-linejoin="round" d="M 1 170 c 0.21 -0.07 8.56 -1.94 12 -4 c 9.35 -5.61 18.24 -13.26 28 -20 c 4.72 -3.26 9.13 -6.19 14 -9 c 3.93 -2.27 7.93 -4.29 12 -6 c 2.21 -0.93 4.7 -1.65 7 -2 c 1.89 -0.29 4.04 0.3 6 0 c 10.94 -1.68 33 -6 33 -6"/><path fill="none" stroke="#000000" stroke-width="2" stroke-linecap="round" stroke-linejoin="round" d="M 118 36 l 9 10"/><path fill="none" stroke="#000000" stroke-width="2" stroke-linecap="round" stroke-linejoin="round" d="M 113 73 c 0.11 0.18 3.68 7.32 6 10 c 1.71 1.98 7 5 7 5"/><path fill="none" stroke="#000000" stroke-width="2" stroke-linecap="round" stroke-linejoin="round" d="M 127 161 c 0 -0.14 -0.28 -5.37 0 -8 c 0.39 -3.67 0.77 -7.63 2 -11 c 2.32 -6.33 6.67 -12.51 9 -19 c 2.28 -6.36 3.7 -13.48 5 -20 l 0 -5"/><path fill="none" stroke="#000000" stroke-width="2" stroke-linecap="round" stroke-linejoin="round" d="M 170 23 c -0.09 0.12 -4.35 4.61 -5 7 c -1.14 4.18 0.1 10.35 -1 15 c -1.48 6.27 -4.37 12.57 -7 19 c -3.55 8.67 -11 25 -11 25"/><path fill="none" stroke="#000000" stroke-width="2" stroke-linecap="round" stroke-linejoin="round" d="M 166 61 c 0.09 -0.05 3.37 -2.56 5 -3 c 1.68 -0.46 4.19 0.45 6 0 c 4.5 -1.12 9.76 -2.75 14 -5 c 6.17 -3.28 18 -12 18 -12"/><path fill="none" stroke="#000000" stroke-width="2" stroke-linecap="round" stroke-linejoin="round" d="M 209 1 c -0.09 0.14 -3.73 5.27 -5 8 c -0.98 2.1 -1.58 4.6 -2 7 c -1.59 9.01 -1.96 18.17 -4 27 c -1.96 8.49 -5.64 16.51 -8 25 c -1 3.61 -1.06 7.73 -2 11 c -0.3 1.06 -1.74 1.96 -2 3 c -0.65 2.61 -1 9 -1 9"/><path fill="none" stroke="#000000" stroke-width="2" stroke-linecap="round" stroke-linejoin="round" d="M 151 107 c 0.07 -0.05 2.54 -2.29 4 -3 c 9.96 -4.84 20.46 -8.91 31 -14 c 9.42 -4.55 17.73 -9.59 27 -14 c 4.25 -2.02 13 -5 13 -5"/><path fill="none" stroke="#000000" stroke-width="2" stroke-linecap="round" stroke-linejoin="round" d="M 169 120 c 0.03 0.12 1.83 4.68 2 7 c 0.48 6.68 0 21 0 21"/><path fill="none" stroke="#000000" stroke-width="2" stroke-linecap="round" stroke-linejoin="round" d="M 170 144 c 0.11 -0.24 2.99 -11.11 6 -14 c 4.25 -4.08 12.58 -7.22 19 -10 c 3.41 -1.48 7.41 -2.33 11 -3 c 1.57 -0.3 4.7 -0.76 5 0 c 0.61 1.53 0.29 7.33 -1 10 c -3.25 6.72 -9.68 13.97 -14 21 c -0.92 1.5 -1.05 3.58 -2 5 c -2.25 3.38 -8 10 -8 10"/><path fill="none" stroke="#000000" stroke-width="2" stroke-linecap="round" stroke-linejoin="round" d="M 172 157 c 0.09 -0.07 3.25 -3.79 5 -4 c 7.64 -0.93 28 0 28 0"/></svg>