<?xml version="1.0" encoding="UTF-8" standalone="no"?><!DOCTYPE svg PUBLIC "-//W3C//DTD SVG 1.1//EN" "http://www.w3.org/Graphics/SVG/1.1/DTD/svg11.dtd"><svg xmlns="http://www.w3.org/2000/svg" version="1.1" width="108" height="139"><path fill="none" stroke="#000000" stroke-width="2" stroke-linecap="round" stroke-linejoin="round" d="M 66 3 c -0.12 -0.03 -4.91 -2.32 -7 -2 c -7.71 1.17 -18.06 3.72 -26 7 c -6.88 2.84 -13.5 7.75 -20 12 c -2.18 1.42 -4.17 3.17 -6 5 c -2.16 2.16 -4.95 4.73 -6 7 c -0.68 1.48 -0.54 4.38 0 6 c 0.65 1.95 2.35 5.28 4 6 c 2.76 1.21 7.9 0.94 12 1 c 20.1 0.28 40.81 1.26 59 0 c 4.29 -0.3 8.75 -3.05 13 -5 c 3.82 -1.75 7.93 -3.61 11 -6 c 2.61 -2.03 5.64 -5.47 7 -8 c 0.64 -1.19 0.32 -3.54 0 -5 c -0.29 -1.3 -1.13 -3.27 -2 -4 c -0.8 -0.67 -2.67 -0.94 -4 -1 c -5.48 -0.26 -12.03 -1.03 -17 0 c -3.92 0.81 -8.95 3.33 -12 6 c -4.36 3.82 -8.88 9.74 -12 15 c -2.99 5.03 -5.85 11.26 -7 17 c -2.38 11.92 -3.24 25.1 -4 38 c -0.6 10.13 0.51 20.33 0 30 c -0.14 2.66 -0.28 7.22 -2 8 c -7.07 3.23 -33 8 -33 8"/></svg>