<?xml version="1.0" encoding="UTF-8" standalone="no"?><!DOCTYPE svg PUBLIC "-//W3C//DTD SVG 1.1//EN" "http://www.w3.org/Graphics/SVG/1.1/DTD/svg11.dtd"><svg xmlns="http://www.w3.org/2000/svg" version="1.1" width="103" height="105"><path fill="none" stroke="#000000" stroke-width="2" stroke-linecap="round" stroke-linejoin="round" d="M 1 1 c 0.3 0.05 11.58 1.37 17 3 c 7.76 2.33 15.32 6.72 23 9 c 4.4 1.31 9.59 0.78 14 2 c 5.04 1.39 9.89 4.22 15 6 c 2.61 0.91 5.4 1.13 8 2 c 2.4 0.8 5.19 1.79 7 3 c 0.86 0.57 1.16 2.37 2 3 c 1.57 1.18 4.54 1.69 6 3 c 1.57 1.41 3 3.88 4 6 c 1.94 4.1 4.29 8.75 5 13 c 0.86 5.18 0.9 11.94 0 17 c -0.64 3.6 -2.72 8.18 -5 11 c -2.95 3.64 -7.75 6.78 -12 10 c -7.03 5.32 -21 15 -21 15"/></svg>