<?xml version="1.0" encoding="UTF-8" standalone="no"?><!DOCTYPE svg PUBLIC "-//W3C//DTD SVG 1.1//EN" "http://www.w3.org/Graphics/SVG/1.1/DTD/svg11.dtd"><svg xmlns="http://www.w3.org/2000/svg" version="1.1" width="496" height="171"><path fill="none" stroke="#000000" stroke-width="2" stroke-linecap="round" stroke-linejoin="round" d="M 21 1 c 0.09 0 3.37 -0.24 5 0 c 7.3 1.08 14.94 2.3 22 4 c 2.41 0.58 6.04 1.63 7 3 c 0.88 1.26 0.96 5.62 0 7 c -1.48 2.14 -6.17 3.76 -9 6 c -3.53 2.78 -6.35 6.4 -10 9 c -10.37 7.41 -21.67 13.92 -32 21 c -1.14 0.79 -3.47 2.8 -3 3 c 3.9 1.64 22.9 6.3 34 10 c 2.8 0.93 7.28 2.99 8 4 c 0.34 0.48 -1.84 2.34 -3 3 c -5.49 3.14 -11.74 6.14 -18 9 c -5.72 2.61 -15.88 3.38 -17 7 c -2.14 6.93 4 25.76 4 35 c 0 1.68 -3.05 3.25 -4 5 c -0.94 1.72 -2.29 4.83 -2 6 c 0.21 0.83 3.25 1.04 4 2 c 1.27 1.63 2.62 4.92 3 7 c 0.2 1.13 -1.14 4.15 -1 4 c 1.27 -1.38 15.44 -19.28 24 -29 c 11.75 -13.34 22.71 -25.26 35 -38 c 6.56 -6.8 13.3 -12.3 20 -19 c 4.98 -4.98 8.97 -10.28 14 -15 c 5.74 -5.39 16.59 -15.59 18 -15 c 1.26 0.52 -3.21 14.08 -6 20 c -2.3 4.88 -6.35 9.62 -10 14 c -3 3.6 -6.35 7.06 -10 10 c -6.66 5.37 -20.65 14.71 -21 15 c -0.16 0.13 6.46 -4.27 10 -6 c 12.35 -6.05 26.38 -11.42 37 -17 c 1.3 -0.68 2.3 -2.6 3 -4 c 0.89 -1.78 2.12 -4.24 2 -6 c -0.18 -2.63 -1.24 -6.82 -3 -9 c -4.59 -5.69 -15.3 -17.13 -18 -17 c -1.99 0.09 -2.52 11.88 -3 18 c -1.21 15.44 -1.6 30.11 -2 46 c -0.29 11.39 0.28 22.06 0 33 c -0.05 2.02 -1 6 -1 6 c 0 0 0.35 -4.16 1 -6 c 1.29 -3.66 3.06 -7.38 5 -11 c 5.54 -10.33 14.07 -29.63 17 -30 c 2.37 -0.3 4.21 18.03 7 27 c 1.93 6.21 5.43 16.56 7 18 c 0.7 0.64 4.08 -4.45 5 -7 c 6.05 -16.77 10.41 -36.5 17 -54 c 3.02 -8.02 8.27 -14.97 12 -23 c 5.15 -11.09 9.17 -22.48 14 -33 c 0.67 -1.47 2.73 -4.5 3 -4 c 1.94 3.52 7.97 22.52 13 33 c 2.87 5.98 7.35 12.38 11 17 c 0.81 1.02 3.71 2.58 4 2 c 1.05 -2.1 2.22 -10.47 3 -16 c 1.97 -14.02 2.95 -34.17 5 -41 c 0.35 -1.17 5.52 -0.23 7 1 c 5.33 4.44 14.08 14.72 17 19 c 0.41 0.61 -1.12 2.75 -2 3 c -3.95 1.1 -11.49 2.85 -16 2 c -5 -0.94 -14.57 -8.24 -16 -8 c -0.86 0.14 3.48 6.88 4 10 c 0.39 2.34 -0.03 5.82 -1 8 c -1.47 3.3 -4.11 7.71 -7 10 c -6.06 4.8 -14.67 9.83 -22 13 c -4.39 1.9 -9.91 2.32 -15 3 c -5 0.67 -15.26 1.03 -15 1 c 0.93 -0.12 34.94 -3.56 53 -6 c 7.24 -0.98 13.93 -3.38 21 -4 c 11.92 -1.05 34.31 -3.29 36 -1 c 1.4 1.89 -14.17 13.4 -22 20 c -22.83 19.24 -44.36 35.82 -67 55 c -6.47 5.48 -12.74 11.09 -18 17 c -2.48 2.79 -4.3 6.6 -6 10 c -0.92 1.84 -2.63 5.76 -2 6 c 1.04 0.39 7.22 -1.3 10 -3 c 8.58 -5.24 17.43 -12.07 26 -19 c 21.91 -17.73 58.55 -51.4 63 -53 c 2.02 -0.73 -7.76 23.72 -13 35 c -5.78 12.44 -20 35.04 -20 36 c 0 0.71 13.1 -16.1 20 -23 c 2.45 -2.45 5.93 -4.25 9 -6 c 1.53 -0.87 4.2 -2.69 5 -2 c 2.48 2.13 5.96 9.95 9 14 c 0.66 0.88 2 1.75 3 2 c 1.38 0.34 3.82 0.71 5 0 c 4.53 -2.72 12.68 -7.48 15 -12 c 2.81 -5.46 2.59 -15.41 3 -23 c 0.25 -4.59 -0.46 -13.25 -1 -14 c -0.31 -0.43 -3.39 4.72 -4 7 c -0.6 2.26 -1.15 6.95 0 8 c 1.61 1.47 7.6 2.14 11 2 c 4.06 -0.17 9.73 -0.79 13 -3 c 9.73 -6.56 21.84 -16.36 30 -26 c 9.52 -11.25 17.92 -25.66 25 -39 c 4.4 -8.29 8.98 -27.51 10 -27 c 1.13 0.57 0 31.44 0 32 c 0 0.09 -0.41 -3.48 0 -5 c 1.81 -6.71 6.15 -20.15 7 -21 c 0.47 -0.47 1.94 7.97 2 12 c 0.61 43.44 -2.31 121.18 0 131 c 0.66 2.82 17.34 -18.92 24 -29 c 4.67 -7.07 6.57 -16.33 11 -24 c 11.7 -20.22 24.57 -38.43 37 -59 c 7.59 -12.57 17.36 -33.88 21 -37 c 1.26 -1.08 4.87 8.46 7 13 c 2.97 6.33 6.14 12.66 8 19 c 1.37 4.65 2.69 11.18 2 15 c -0.42 2.32 -3.58 6.21 -6 7 c -10.7 3.49 -26.72 6.39 -40 8 c -8.47 1.03 -17.35 -0.56 -26 0 c -6.73 0.44 -13.17 2.28 -20 3 c -6.09 0.64 -18.32 0.98 -18 1 c 0.63 0.03 24.12 1 36 0 c 11.72 -0.99 23.93 -3.08 35 -6 c 6.14 -1.62 18.11 -7.21 18 -8 c -0.11 -0.77 -14.35 -1.26 -19 1 c -6.05 2.94 -12.75 10.79 -18 17 c -7.29 8.63 -14.42 18.29 -20 28 c -4.57 7.97 -10.63 23.98 -11 26 c -0.1 0.58 4.57 -3.28 7 -4 c 6.14 -1.82 13.36 -3.17 20 -4 c 3.91 -0.49 8.15 -0.53 12 0 c 5.61 0.77 12.35 1.35 17 4 c 12.77 7.3 36.76 24.23 39 28 l -20 4"/></svg>