<?xml version="1.0" encoding="UTF-8" standalone="no"?><!DOCTYPE svg PUBLIC "-//W3C//DTD SVG 1.1//EN" "http://www.w3.org/Graphics/SVG/1.1/DTD/svg11.dtd"><svg xmlns="http://www.w3.org/2000/svg" version="1.1" width="276" height="175"><path fill="none" stroke="#000000" stroke-width="2" stroke-linecap="round" stroke-linejoin="round" d="M 1 30 c 0.11 -0.02 4.08 -0.4 6 -1 c 8.7 -2.72 17.3 -6.28 26 -9 c 1.92 -0.6 4.31 -1.17 6 -1 c 1.25 0.12 4.24 1.29 4 2 c -1.17 3.5 -6.72 13.24 -11 19 c -5.25 7.06 -19.25 18.54 -18 20 c 1.42 1.66 21.32 -5.01 30 -6 c 1.53 -0.17 4.94 0.98 5 2 c 0.17 3.13 -2.18 11.13 -4 16 c -1.04 2.78 -3.13 5.57 -5 8 c -1.4 1.82 -3.15 3.77 -5 5 l -10 5"/><path fill="none" stroke="#000000" stroke-width="2" stroke-linecap="round" stroke-linejoin="round" d="M 18 39 c 0.05 0.37 2.93 13.97 3 21 c 0.26 27.19 -2.53 55.42 -2 82 c 0.12 6.29 2.99 12.57 4 19 c 0.68 4.32 1 13 1 13"/><path fill="none" stroke="#000000" stroke-width="2" stroke-linecap="round" stroke-linejoin="round" d="M 40 35 c 0.19 -0.1 7.14 -4.17 11 -6 c 9.1 -4.31 18.24 -7.52 27 -12 c 4.93 -2.53 14 -9 14 -9"/><path fill="none" stroke="#000000" stroke-width="2" stroke-linecap="round" stroke-linejoin="round" d="M 74 1 c -0.31 0.93 -11.47 35.25 -18 53 c -1.93 5.25 -6.91 14.73 -7 15 c -0.06 0.17 2.89 -6.49 5 -9 c 4.64 -5.53 10.4 -10.85 16 -16 c 2.82 -2.59 6.05 -5.19 9 -7 c 1.07 -0.66 3.92 -1.39 4 -1 c 0.13 0.63 -1.68 4.26 -3 6 c -5.86 7.72 -12.14 15.79 -19 23 c -6.19 6.5 -20.56 17.72 -20 18 c 0.63 0.31 17.73 -9.65 26 -15 c 2.93 -1.9 5.16 -4.95 8 -7 c 3.12 -2.25 9 -5.78 10 -6 c 0.35 -0.08 -0.39 2.87 -1 4 c -1.6 2.97 -4.63 5.8 -6 9 c -3.49 8.13 -5.61 17.32 -9 26 c -2.04 5.22 -5.54 9.83 -7 15 c -3.43 12.12 -8 38 -8 38"/><path fill="none" stroke="#000000" stroke-width="2" stroke-linecap="round" stroke-linejoin="round" d="M 74 80 c 0.26 -0.12 10.18 -5.7 15 -7 c 3.2 -0.86 7.9 -0.44 11 0 c 1.02 0.15 2.52 1.13 3 2 c 1.26 2.3 2.73 6.12 3 9 c 0.35 3.65 -0.25 8.05 -1 12 c -1.92 10.1 -4.24 19.83 -7 30 c -2.72 10.02 -5.86 19.87 -9 29 c -0.37 1.08 -1.22 2.22 -2 3 c -0.78 0.78 -2.05 1.89 -3 2 c -1.61 0.18 -4.25 -0.42 -6 -1 l -3 -2"/><path fill="none" stroke="#000000" stroke-width="2" stroke-linecap="round" stroke-linejoin="round" d="M 59 129 c -0.03 -0.07 -1.85 -2.8 -2 -4 c -0.14 -1.11 0.2 -3.15 1 -4 c 4.41 -4.66 11.05 -10.11 17 -15 c 3.57 -2.93 7.42 -5.85 11 -8 c 1.09 -0.65 3.8 -1.52 4 -1 c 0.43 1.15 0.14 6.54 -1 9 c -2.83 6.11 -7.6 13.35 -12 19 c -2.36 3.03 -9.2 8.07 -9 8 c 0.33 -0.12 17 -11 17 -11"/><path fill="none" stroke="#000000" stroke-width="2" stroke-linecap="round" stroke-linejoin="round" d="M 146 16 l -6 35"/><path fill="none" stroke="#000000" stroke-width="2" stroke-linecap="round" stroke-linejoin="round" d="M 171 12 c -0.1 0.16 -3.67 6.32 -6 9 c -4.26 4.9 -9.44 9.06 -14 14 c -3.6 3.9 -10.69 11.51 -10 12 c 0.81 0.58 15.93 -7.71 17 -7 c 0.89 0.59 -5.09 8.84 -8 13 c -1.76 2.51 -3.83 4.83 -6 7 c -2.17 2.17 -5.07 3.77 -7 6 c -2.26 2.61 -6.48 8.05 -6 9 c 0.44 0.88 7.02 -0.11 10 -1 c 3.31 -0.99 10 -5 10 -5"/><path fill="none" stroke="#000000" stroke-width="2" stroke-linecap="round" stroke-linejoin="round" d="M 156 56 c -0.14 0.61 -5.06 25.7 -8 35 c -0.41 1.3 -3.92 3.25 -4 3 c -0.11 -0.33 1.58 -4.68 3 -6 c 2.77 -2.57 9.77 -7.49 11 -7 c 1.04 0.42 0.74 8.49 -1 11 c -6.02 8.69 -17.21 18.34 -26 28 c -1.47 1.62 -2.95 3.26 -4 5 c -0.88 1.46 -2.49 4.61 -2 5 c 0.64 0.52 4.79 -0.3 7 -1 c 11.27 -3.57 34 -12 34 -12"/><path fill="none" stroke="#000000" stroke-width="2" stroke-linecap="round" stroke-linejoin="round" d="M 153 100 c 0.02 0.09 1.1 3.44 1 5 c -0.21 3.11 -0.58 7.17 -2 10 c -4.24 8.48 -10.28 18.45 -16 26 c -2.14 2.82 -9 7 -9 7"/><path fill="none" stroke="#000000" stroke-width="2" stroke-linecap="round" stroke-linejoin="round" d="M 151 128 c 0.16 0.09 6.58 2.83 9 5 c 6.83 6.12 12.97 14.79 20 21 c 4.04 3.56 14 9 14 9"/><path fill="none" stroke="#000000" stroke-width="2" stroke-linecap="round" stroke-linejoin="round" d="M 202 48 c 0.07 -0.02 2.77 -0.44 4 -1 c 9.59 -4.36 29 -14 29 -14"/><path fill="none" stroke="#000000" stroke-width="2" stroke-linecap="round" stroke-linejoin="round" d="M 196 75 c 0 0.18 0.48 6.74 0 10 c -2.16 14.6 -8 44 -8 44"/><path fill="none" stroke="#000000" stroke-width="2" stroke-linecap="round" stroke-linejoin="round" d="M 193 96 c 0.03 -0.07 1.12 -2.9 2 -4 c 1.67 -2.08 3.89 -4.6 6 -6 c 1.57 -1.05 3.97 -1.53 6 -2 c 2.27 -0.52 4.77 -1 7 -1 c 1.92 0 4.6 0.16 6 1 c 1.47 0.88 3.49 3.25 4 5 c 0.97 3.28 1.17 8.14 1 12 c -0.16 3.58 -0.84 7.53 -2 11 c -2.46 7.37 -9 22 -9 22"/><path fill="none" stroke="#000000" stroke-width="2" stroke-linecap="round" stroke-linejoin="round" d="M 200 95 c 0.16 0.14 6.07 5.97 9 8 c 1 0.7 4 1 4 1"/><path fill="none" stroke="#000000" stroke-width="2" stroke-linecap="round" stroke-linejoin="round" d="M 246 82 c -0.05 0.16 -2.4 5.91 -3 9 c -2.06 10.54 -5 32 -5 32"/><path fill="none" stroke="#000000" stroke-width="2" stroke-linecap="round" stroke-linejoin="round" d="M 243 76 c 0.21 0 8.19 -0.4 12 0 c 2.31 0.24 4.84 1.1 7 2 c 1.73 0.72 3.86 1.73 5 3 c 1.58 1.76 3.07 4.57 4 7 c 1.68 4.4 3.53 9.49 4 14 c 0.48 4.66 -0.35 9.94 -1 15 c -1.05 8.18 -2 16.68 -4 24 c -0.84 3.1 -5 9 -5 9"/><path fill="none" stroke="#000000" stroke-width="2" stroke-linecap="round" stroke-linejoin="round" d="M 260 100 l 4 4"/></svg>