<?xml version="1.0" encoding="UTF-8" standalone="no"?><!DOCTYPE svg PUBLIC "-//W3C//DTD SVG 1.1//EN" "http://www.w3.org/Graphics/SVG/1.1/DTD/svg11.dtd"><svg xmlns="http://www.w3.org/2000/svg" version="1.1" width="288" height="131"><path fill="none" stroke="#000000" stroke-width="2" stroke-linecap="round" stroke-linejoin="round" d="M 5 45 c 0.18 0.12 6.72 5.36 10 7 c 1.63 0.82 4.44 0.31 6 1 c 1.09 0.48 3 3 3 3"/><path fill="none" stroke="#000000" stroke-width="2" stroke-linecap="round" stroke-linejoin="round" d="M 1 90 c 0.07 -0.03 2.67 -1.84 4 -2 c 3.85 -0.45 13 0 13 0"/><path fill="none" stroke="#000000" stroke-width="2" stroke-linecap="round" stroke-linejoin="round" d="M 19 130 c 0.19 -0.07 8.97 -1.74 11 -4 c 3.04 -3.37 4.97 -10.45 7 -16 c 3.05 -8.35 8 -25 8 -25"/><path fill="none" stroke="#000000" stroke-width="2" stroke-linecap="round" stroke-linejoin="round" d="M 92 1 c -0.09 0.16 -3.07 6.08 -5 9 c -8.61 13.05 -26 38 -26 38"/><path fill="none" stroke="#000000" stroke-width="2" stroke-linecap="round" stroke-linejoin="round" d="M 83 28 c 0.19 0.12 8.05 4.18 11 7 c 4.35 4.16 12 15 12 15"/><path fill="none" stroke="#000000" stroke-width="2" stroke-linecap="round" stroke-linejoin="round" d="M 73 62 c 0.07 0.03 2.61 1.57 4 2 c 3.84 1.2 8.46 1.67 12 3 c 1.43 0.54 4 3 4 3"/><path fill="none" stroke="#000000" stroke-width="2" stroke-linecap="round" stroke-linejoin="round" d="M 65 99 c 0.1 -0.09 3.82 -4.37 6 -5 c 7.06 -2.05 16.75 -2.4 25 -4 c 2.06 -0.4 4.05 -1.64 6 -2 c 1.55 -0.28 5 0 5 0"/><path fill="none" stroke="#000000" stroke-width="2" stroke-linecap="round" stroke-linejoin="round" d="M 95 84 c 0.07 0.19 3.09 7.25 4 11 c 1.41 5.85 3 18 3 18"/><path fill="none" stroke="#000000" stroke-width="2" stroke-linecap="round" stroke-linejoin="round" d="M 77 102 l 1 1"/><path fill="none" stroke="#000000" stroke-width="2" stroke-linecap="round" stroke-linejoin="round" d="M 118 101 l 1 1"/><path fill="none" stroke="#000000" stroke-width="2" stroke-linecap="round" stroke-linejoin="round" d="M 145 42 c 0.12 -0.05 4.66 -2.45 7 -3 c 3.09 -0.73 6.67 -0.42 10 -1 c 4.41 -0.77 8.69 -1.67 13 -3 c 9.91 -3.07 29 -10 29 -10"/><path fill="none" stroke="#000000" stroke-width="2" stroke-linecap="round" stroke-linejoin="round" d="M 185 5 c -0.1 0.35 -2.99 13.91 -6 20 c -9.09 18.42 -31 55 -31 55"/><path fill="none" stroke="#000000" stroke-width="2" stroke-linecap="round" stroke-linejoin="round" d="M 170 44 c 0.02 0.21 0.94 7.9 1 12 c 0.28 18.06 0 53 0 53"/><path fill="none" stroke="#000000" stroke-width="2" stroke-linecap="round" stroke-linejoin="round" d="M 175 64 c 0.05 -0.05 1.91 -2.78 3 -3 c 3.09 -0.62 8.14 -0.24 12 0 c 1.33 0.08 2.96 0.41 4 1 c 1.07 0.61 2.33 1.88 3 3 c 1.21 2.01 2.43 4.57 3 7 c 3.7 15.64 10 48 10 48"/><path fill="none" stroke="#000000" stroke-width="2" stroke-linecap="round" stroke-linejoin="round" d="M 182 86 l 13 1"/><path fill="none" stroke="#000000" stroke-width="2" stroke-linecap="round" stroke-linejoin="round" d="M 183 102 c 0.09 -0.02 3.44 -0.4 5 -1 c 6.97 -2.68 14.81 -5.67 21 -9 c 1.92 -1.03 5 -5 5 -5"/><path fill="none" stroke="#000000" stroke-width="2" stroke-linecap="round" stroke-linejoin="round" d="M 228 13 c 0.11 0.12 3.89 5.27 6 7 c 1.24 1.01 3.38 1.68 5 2 c 1.51 0.3 5 0 5 0"/><path fill="none" stroke="#000000" stroke-width="2" stroke-linecap="round" stroke-linejoin="round" d="M 253 13 c 0.11 0.07 6 2.74 6 4 c 0 1.89 -3.76 6.17 -6 9 c -2.78 3.53 -9 10 -9 10"/><path fill="none" stroke="#000000" stroke-width="2" stroke-linecap="round" stroke-linejoin="round" d="M 226 48 c 0.11 -0.07 3.87 -3.18 6 -4 c 6.18 -2.38 13.55 -4.45 20 -6 c 1.54 -0.37 5 0 5 0"/><path fill="none" stroke="#000000" stroke-width="2" stroke-linecap="round" stroke-linejoin="round" d="M 218 77 l 5 38"/><path fill="none" stroke="#000000" stroke-width="2" stroke-linecap="round" stroke-linejoin="round" d="M 223 72 c 0.16 -0.05 6.7 -3 9 -3 c 1.21 0 3.44 1.69 4 3 c 4.07 9.41 8.98 22.86 12 34 c 1.17 4.34 1 14 1 14"/><path fill="none" stroke="#000000" stroke-width="2" stroke-linecap="round" stroke-linejoin="round" d="M 228 90 c 0.11 -0.03 4.04 -1.7 6 -2 c 2.17 -0.33 7 0 7 0"/><path fill="none" stroke="#000000" stroke-width="2" stroke-linecap="round" stroke-linejoin="round" d="M 236 99 c 0.11 -0.02 4.17 -0.39 6 -1 c 2.02 -0.67 4.54 -1.69 6 -3 c 1.57 -1.41 4 -6 4 -6"/><path fill="none" stroke="#000000" stroke-width="2" stroke-linecap="round" stroke-linejoin="round" d="M 265 69 c 0.07 0.07 3.44 2.55 4 4 c 0.89 2.32 1 9 1 9"/><path fill="none" stroke="#000000" stroke-width="2" stroke-linecap="round" stroke-linejoin="round" d="M 279 65 c 0.05 0.14 2.68 5.37 3 8 c 0.63 5.23 -0.5 11.31 0 17 c 1.18 13.5 5 40 5 40"/></svg>