<?xml version="1.0" encoding="UTF-8" standalone="no"?><!DOCTYPE svg PUBLIC "-//W3C//DTD SVG 1.1//EN" "http://www.w3.org/Graphics/SVG/1.1/DTD/svg11.dtd"><svg xmlns="http://www.w3.org/2000/svg" version="1.1" width="295" height="174"><path fill="none" stroke="#000000" stroke-width="2" stroke-linecap="round" stroke-linejoin="round" d="M 1 51 c 0.16 0 6.3 -0.51 9 0 c 2.28 0.43 4.87 1.7 7 3 c 5.44 3.31 11.05 6.94 16 11 c 4.32 3.55 12 12 12 12"/><path fill="none" stroke="#000000" stroke-width="2" stroke-linecap="round" stroke-linejoin="round" d="M 4 100 c 0.12 0.02 4.64 0.91 7 1 c 6.34 0.24 19 0 19 0"/><path fill="none" stroke="#000000" stroke-width="2" stroke-linecap="round" stroke-linejoin="round" d="M 31 173 c 0.26 -0.59 10.09 -22.15 15 -34 c 5.1 -12.31 14 -36 14 -36"/><path fill="none" stroke="#000000" stroke-width="2" stroke-linecap="round" stroke-linejoin="round" d="M 86 1 c -0.05 0.23 -1.21 9.07 -3 13 c -9.9 21.73 -33 66 -33 66"/><path fill="none" stroke="#000000" stroke-width="2" stroke-linecap="round" stroke-linejoin="round" d="M 81 40 c 0.18 0.12 7.04 4.41 10 7 c 2.23 1.95 3.75 4.9 6 7 c 7.79 7.27 24 21 24 21"/><path fill="none" stroke="#000000" stroke-width="2" stroke-linecap="round" stroke-linejoin="round" d="M 63 90 c 0.16 -0.02 5.94 -0.92 9 -1 c 9.79 -0.26 29 0 29 0"/><path fill="none" stroke="#000000" stroke-width="2" stroke-linecap="round" stroke-linejoin="round" d="M 67 126 c 0.07 -0.07 2.51 -3.25 4 -4 c 2.75 -1.38 6.56 -2.39 10 -3 c 17.33 -3.07 52 -8 52 -8"/><path fill="none" stroke="#000000" stroke-width="2" stroke-linecap="round" stroke-linejoin="round" d="M 100 108 c 0.03 0.1 1.62 3.98 2 6 c 0.6 3.21 0.08 6.99 1 10 c 1.3 4.29 4.61 8.56 6 13 c 1.88 6.02 2.96 12.56 4 19 c 0.64 4 1 12 1 12"/><path fill="none" stroke="#000000" stroke-width="2" stroke-linecap="round" stroke-linejoin="round" d="M 83 123 l -2 28"/><path fill="none" stroke="#000000" stroke-width="2" stroke-linecap="round" stroke-linejoin="round" d="M 121 121 l 20 21"/><path fill="none" stroke="#000000" stroke-width="2" stroke-linecap="round" stroke-linejoin="round" d="M 136 59 l 60 0"/><path fill="none" stroke="#000000" stroke-width="2" stroke-linecap="round" stroke-linejoin="round" d="M 175 30 c -0.05 0.11 -2.31 3.92 -3 6 c -1.61 4.82 -2.17 10.22 -4 15 c -2.48 6.48 -6.26 12.43 -9 19 c -2.35 5.63 -3.53 11.57 -6 17 c -2.51 5.53 -9 16 -9 16"/><path fill="none" stroke="#000000" stroke-width="2" stroke-linecap="round" stroke-linejoin="round" d="M 157 78 c 0.03 0.09 1.68 3.27 2 5 c 4.58 24.75 13 76 13 76"/><path fill="none" stroke="#000000" stroke-width="2" stroke-linecap="round" stroke-linejoin="round" d="M 157 93 c 0.14 -0.04 5.35 -1.82 8 -2 c 6.76 -0.47 14.75 -0.5 21 0 c 1.33 0.11 3.34 0.96 4 2 c 2.77 4.38 6.21 11.2 8 17 c 2.43 7.87 2.94 16.57 5 25 c 2.02 8.27 4.42 15.99 7 24 c 0.79 2.44 3 7 3 7"/><path fill="none" stroke="#000000" stroke-width="2" stroke-linecap="round" stroke-linejoin="round" d="M 168 103 c 0.07 0.05 2.67 2.6 4 3 c 1.6 0.48 4.09 -0.32 6 0 c 3.94 0.66 12 3 12 3"/><path fill="none" stroke="#000000" stroke-width="2" stroke-linecap="round" stroke-linejoin="round" d="M 178 136 c 0.28 -0.09 10.68 -3.09 16 -5 c 3.12 -1.12 9 -4 9 -4"/><path fill="none" stroke="#000000" stroke-width="2" stroke-linecap="round" stroke-linejoin="round" d="M 227 30 l 1 1"/><path fill="none" stroke="#000000" stroke-width="2" stroke-linecap="round" stroke-linejoin="round" d="M 266 13 c -0.03 0.12 -1.67 4.7 -2 7 c -0.32 2.21 0.8 5.1 0 7 c -3.11 7.42 -13 24 -13 24"/><path fill="none" stroke="#000000" stroke-width="2" stroke-linecap="round" stroke-linejoin="round" d="M 207 78 c 0.32 -0.12 11.75 -5.03 18 -7 c 13.11 -4.14 25.86 -7.57 39 -11 c 2.29 -0.6 7 -1 7 -1"/><path fill="none" stroke="#000000" stroke-width="2" stroke-linecap="round" stroke-linejoin="round" d="M 219 93 c 0.05 0.16 2.5 5.99 3 9 c 0.79 4.77 0.21 10.1 1 15 c 0.87 5.38 2.99 10.52 4 16 c 1.36 7.38 3 22 3 22"/><path fill="none" stroke="#000000" stroke-width="2" stroke-linecap="round" stroke-linejoin="round" d="M 217 96 c 0.09 -0.02 3.33 -0.91 5 -1 c 4.26 -0.24 9.89 -0.78 13 0 c 1.2 0.3 2.3 2.54 3 4 c 3.53 7.32 7.15 15.05 10 23 c 3.56 9.93 9 30 9 30"/><path fill="none" stroke="#000000" stroke-width="2" stroke-linecap="round" stroke-linejoin="round" d="M 223 116 l 22 0"/><path fill="none" stroke="#000000" stroke-width="2" stroke-linecap="round" stroke-linejoin="round" d="M 239 128 l 1 1"/><path fill="none" stroke="#000000" stroke-width="2" stroke-linecap="round" stroke-linejoin="round" d="M 267 88 l 1 1"/><path fill="none" stroke="#000000" stroke-width="2" stroke-linecap="round" stroke-linejoin="round" d="M 267 88 c 0.24 0.16 12.29 4.94 14 9 c 5.81 13.77 13 55 13 55"/><path fill="none" stroke="#000000" stroke-width="2" stroke-linecap="round" stroke-linejoin="round" d="M 257 109 c 0.09 0.14 3.96 5.2 5 8 c 2.16 5.83 5 19 5 19"/></svg>