<?xml version="1.0" encoding="UTF-8" standalone="no"?><!DOCTYPE svg PUBLIC "-//W3C//DTD SVG 1.1//EN" "http://www.w3.org/Graphics/SVG/1.1/DTD/svg11.dtd"><svg xmlns="http://www.w3.org/2000/svg" version="1.1" width="134" height="99"><path fill="none" stroke="#000000" stroke-width="2" stroke-linecap="round" stroke-linejoin="round" d="M 1 1 c 0.47 0.53 17.39 20.07 27 30 c 10.95 11.31 21.8 20.8 33 32 c 5 5 9.89 9.93 14 15 c 1.34 1.66 2.53 3.99 3 6 c 0.78 3.32 2.25 9.25 1 11 c -1.29 1.81 -7.37 2.64 -11 3 c -6.06 0.61 -15.53 2.27 -19 0 c -3.36 -2.2 -4.95 -11.1 -7 -17 c -3.39 -9.75 -7.19 -19.2 -9 -29 c -2.81 -15.26 -5.19 -37.59 -5 -47 c 0.03 -1.26 4.02 -1.83 6 -2 c 5.32 -0.46 12.32 -1.69 17 0 c 9.49 3.43 20.4 10.55 30 17 c 12.91 8.67 24.14 18.6 37 28 c 5 3.65 16.01 9.26 15 10 c -1.68 1.23 -30 1 -30 1"/></svg>