<?xml version="1.0" encoding="UTF-8" standalone="no"?><!DOCTYPE svg PUBLIC "-//W3C//DTD SVG 1.1//EN" "http://www.w3.org/Graphics/SVG/1.1/DTD/svg11.dtd"><svg xmlns="http://www.w3.org/2000/svg" version="1.1" width="311" height="174"><path fill="none" stroke="#000000" stroke-width="2" stroke-linecap="round" stroke-linejoin="round" d="M 67 1 c 0.12 0.6 5.17 22.78 7 34 c 0.47 2.91 0 9 0 9"/><path fill="none" stroke="#000000" stroke-width="2" stroke-linecap="round" stroke-linejoin="round" d="M 28 27 c -0.03 0.33 -1.52 12.55 -2 19 c -0.2 2.7 -0.37 5.57 0 8 c 0.25 1.64 0.93 4.52 2 5 c 1.78 0.81 6.76 1.23 9 0 c 12.59 -6.91 28.09 -19.76 42 -28 c 3.49 -2.07 8.12 -3.62 12 -4 c 5.84 -0.57 14.15 -0.88 19 1 c 4.15 1.61 9.78 7.98 12 11 l -1 4"/><path fill="none" stroke="#000000" stroke-width="2" stroke-linecap="round" stroke-linejoin="round" d="M 71 58 c -0.14 0.09 -5.59 3.05 -8 5 c -4.53 3.66 -9.09 7.56 -13 12 c -10.83 12.31 -20.78 24.73 -31 38 c -5.84 7.58 -11.08 15.35 -16 23 c -0.95 1.47 -2 5 -2 5"/><path fill="none" stroke="#000000" stroke-width="2" stroke-linecap="round" stroke-linejoin="round" d="M 37 106 c 0.11 0.16 5.24 5.86 6 9 c 2.28 9.35 2.31 21.08 4 32 c 1.39 8.97 5 26 5 26"/><path fill="none" stroke="#000000" stroke-width="2" stroke-linecap="round" stroke-linejoin="round" d="M 101 51 c 0.04 0.14 1.78 5.35 2 8 c 0.43 5.15 0 16 0 16"/><path fill="none" stroke="#000000" stroke-width="2" stroke-linecap="round" stroke-linejoin="round" d="M 77 96 c 0.21 -0.09 8.02 -3.09 12 -5 c 5.2 -2.5 10.04 -5.65 15 -8 c 1.2 -0.57 2.78 -1 4 -1 c 1.22 0 3.34 0.19 4 1 c 1.8 2.2 3.95 6.59 5 10 c 1.53 4.96 2.58 10.6 3 16 c 0.92 11.94 1.27 25.37 1 36 c -0.03 1.32 -1.32 4.14 -2 4 c -1.52 -0.3 -5.71 -3.71 -8 -6 c -3.58 -3.58 -8.17 -8.16 -10 -12 c -1.05 -2.22 -0.53 -6.37 0 -9 c 0.39 -1.96 1.77 -4.22 3 -6 c 1.69 -2.45 5.59 -6.75 6 -7 c 0.18 -0.11 -1.25 3 -1 4 c 0.3 1.22 1.86 3.29 3 4 c 1.16 0.73 3.54 0.45 5 1 c 1.03 0.39 2.84 1.2 3 2 c 0.36 1.79 -0.15 5.72 -1 8 c -1 2.66 -3.03 5.66 -5 8 c -3.25 3.86 -7.79 7.08 -11 11 c -2.69 3.29 -7.39 9.03 -7 11 c 0.33 1.63 6.67 3.56 10 4 c 8.66 1.14 18.53 1 28 1 c 4.75 0 9.37 -0.28 14 -1 c 6.08 -0.95 12.63 -1.96 18 -4 c 3.79 -1.44 8.01 -4.41 11 -7 c 1.65 -1.43 2.99 -3.87 4 -6 c 2.27 -4.77 4.42 -10.02 6 -15 l 1 -7"/><path fill="none" stroke="#000000" stroke-width="2" stroke-linecap="round" stroke-linejoin="round" d="M 154 93 c 0.26 -0.17 10.61 -6.11 15 -10 c 7.06 -6.25 13.32 -13.6 20 -21 c 6.04 -6.7 11.88 -13.04 17 -20 c 3.15 -4.28 5.87 -9.31 8 -14 c 1.09 -2.4 1.62 -5.37 2 -8 c 0.27 -1.92 0.92 -5.08 0 -6 c -1.66 -1.66 -7 -3.67 -10 -4 c -2.3 -0.26 -5.64 0.99 -8 2 c -2.07 0.89 -4.18 2.49 -6 4 c -2.14 1.78 -4.67 3.75 -6 6 c -2.74 4.64 -5.6 10.74 -7 16 c -1.13 4.23 -1 9.37 -1 14 c 0 2.99 0.25 6.37 1 9 c 0.48 1.69 1.75 3.75 3 5 c 1.85 1.85 5.75 3.06 7 5 c 1.34 2.08 2.55 6.57 2 9 c -0.89 3.9 -5.08 8.51 -7 13 c -2.06 4.81 -4.35 10.9 -5 15 c -0.18 1.16 0.98 3.14 2 4 c 6.52 5.47 15.47 11.15 23 17 c 1.49 1.16 3.91 2.69 4 4 c 0.18 2.65 -1.34 7.96 -3 11 c -2.06 3.78 -5.63 7.74 -9 11 c -6.23 6.01 -21.19 15.21 -20 17 c 1.46 2.18 21.08 1.28 32 1 c 28.34 -0.74 54.28 -2.49 83 -4 c 4.16 -0.22 8.3 -0.22 12 -1 c 2.34 -0.49 6.44 -2.02 7 -3 c 0.37 -0.64 -1.84 -2.84 -3 -4 c -2.79 -2.79 -5.8 -5.44 -9 -8 c -5.32 -4.26 -11.1 -7.56 -16 -12 c -5.72 -5.19 -11.32 -10.91 -16 -17 c -5.23 -6.8 -10.01 -14.35 -14 -22 c -3.98 -7.63 -6.75 -15.67 -10 -24 c -2.25 -5.77 -4.87 -11.82 -6 -17 c -0.38 -1.75 0.12 -4.61 1 -6 c 1.14 -1.78 3.89 -3.7 6 -5 c 2.06 -1.27 4.6 -2.2 7 -3 c 2.6 -0.87 5.37 -1.6 8 -2 c 1.59 -0.25 3.62 -0.34 5 0 c 1 0.25 2.56 1.12 3 2 c 1.27 2.55 3 6.9 3 10 c 0 4.83 -0.91 11.41 -3 16 c -4.2 9.24 -10.84 19.19 -17 28 c -3.06 4.38 -8.42 8.13 -11 12 c -0.96 1.45 -1.13 4.15 -1 6 c 0.18 2.5 1.06 5.49 2 8 c 1.02 2.73 2.69 8.33 4 8 c 3.01 -0.75 10.49 -9.32 16 -13 c 3.23 -2.15 7.27 -3.7 11 -5 c 2.84 -1 6.02 -1.63 9 -2 c 2.26 -0.28 5.17 -0.61 7 0 c 1.67 0.56 5.09 2.79 5 4 c -0.16 2.21 -3.48 7.48 -6 10 c -4.02 4.02 -9.82 7.93 -15 11 c -3.62 2.14 -8.02 3.86 -12 5 c -2.77 0.79 -6.19 1 -9 1 l -4 -1"/></svg>