<?xml version="1.0" encoding="UTF-8" standalone="no"?><!DOCTYPE svg PUBLIC "-//W3C//DTD SVG 1.1//EN" "http://www.w3.org/Graphics/SVG/1.1/DTD/svg11.dtd"><svg xmlns="http://www.w3.org/2000/svg" version="1.1" width="286" height="221"><path fill="none" stroke="#000000" stroke-width="2" stroke-linecap="round" stroke-linejoin="round" d="M 32 82 c 0.12 0 4.9 0.49 7 0 c 3.22 -0.76 6.72 -2.39 10 -4 c 12.69 -6.21 24.47 -12.12 37 -19 c 11.88 -6.53 22.64 -12.93 34 -20 c 3.92 -2.44 7.46 -5.08 11 -8 c 4.23 -3.5 8.46 -7.23 12 -11 c 1.27 -1.35 3.42 -3.8 3 -5 c -1.09 -3.09 -5.76 -9.61 -9 -12 c -2.21 -1.63 -6.67 -1.7 -10 -2 c -3.92 -0.36 -8.07 -0.42 -12 0 c -5.33 0.57 -11.47 1.02 -16 3 c -5.4 2.36 -11 6.91 -16 11 c -6.02 4.92 -11.84 10.29 -17 16 c -4.11 4.55 -8.41 9.82 -11 15 c -2.47 4.94 -3.6 11.2 -5 17 c -0.96 3.98 -1.9 8.02 -2 12 c -0.23 8.85 -0.16 18.91 1 27 c 0.38 2.68 2.41 5.54 4 8 c 2.03 3.14 4.76 8.5 7 9 c 2.37 0.53 8.18 -2.72 11 -5 c 3.64 -2.95 6.87 -7.71 10 -12 c 8.79 -12.05 16.91 -23.62 25 -36 c 2.72 -4.17 4.87 -8.54 7 -13 c 1.23 -2.58 2.17 -5.29 3 -8 c 0.5 -1.62 1.05 -5.09 1 -5 c -0.15 0.29 -3.68 10.05 -6 15 c -2.76 5.89 -5.74 11.22 -9 17 c -4.33 7.67 -8.19 14.86 -13 22 c -4.97 7.37 -10.19 14.33 -16 21 c -5.6 6.43 -11.47 12.67 -18 18 c -9.75 7.96 -20.82 15.79 -31 22 c -2.8 1.71 -6.64 2.36 -10 3 c -3.55 0.68 -8.93 1.8 -11 1 c -1.18 -0.46 -1.79 -4.02 -2 -6 c -0.43 -4.06 -1.15 -9.41 0 -13 c 1.55 -4.83 5.43 -10.63 9 -15 c 5.2 -6.36 11.57 -12.37 18 -18 c 7.03 -6.15 14.29 -12.21 22 -17 c 7.07 -4.4 15.15 -7.73 23 -11 c 4.19 -1.74 8.84 -3.52 13 -4 c 3.99 -0.46 10.53 -0.32 13 1 c 1.38 0.74 1.77 4.69 2 7 c 0.41 4.13 1.2 9.41 0 13 c -1.81 5.44 -5.78 12.21 -10 17 c -17.24 19.59 -55.03 56.97 -56 58 c -0.08 0.08 3.2 -2.9 5 -4 c 4.16 -2.54 8.59 -4.91 13 -7 c 1.89 -0.9 4.98 -2.57 6 -2 c 1.23 0.68 3.36 4.98 3 7 c -1.33 7.54 -6.51 18.05 -9 27 c -0.79 2.85 -2.32 8.22 -1 9 c 2.62 1.54 13.09 2.47 18 1 c 6.96 -2.09 14.67 -8.32 22 -13 c 4.93 -3.15 9.52 -6.46 14 -10 c 1.84 -1.45 4.33 -3.27 5 -5 c 0.75 -1.96 0.95 -6.65 0 -8 c -0.86 -1.23 -6.19 -0.73 -7 -2 c -1 -1.56 -1.03 -6.73 0 -9 c 1.88 -4.14 6.31 -8.92 10 -13 c 5.73 -6.34 11.62 -12.12 18 -18 c 6.58 -6.06 12.82 -11.94 20 -17 c 13.27 -9.36 26.81 -17.44 41 -26 c 5.62 -3.39 11.08 -6.21 17 -9 c 6.34 -2.99 12.48 -5.53 19 -8 c 3.3 -1.25 6.91 -1.81 10 -3 c 1.07 -0.41 3.17 -2.01 3 -2 c -0.79 0.06 -11.99 0.86 -17 3 c -14.42 6.15 -28.96 14.86 -44 23 c -5.97 3.23 -11.15 6.45 -17 10 c -5.6 3.39 -11.2 6.11 -16 10 c -7.38 5.98 -14.75 13.48 -21 20 c -0.96 1.01 -2.51 3.68 -2 4 c 1.15 0.72 7.28 2 10 1 c 11.74 -4.31 25.65 -13.22 39 -19 c 6.81 -2.95 16.27 -6.62 21 -7 c 1.37 -0.11 4.14 3.5 4 5 c -0.38 4 -3.49 10.97 -6 16 c -3.1 6.2 -6.96 12.09 -11 18 c -4.79 7 -11.25 13.67 -15 20 c -1.06 1.79 -1.99 6.79 -1 7 c 2.82 0.59 13.6 -1.45 20 -3 c 4.41 -1.07 11.13 -5 13 -5 c 0.67 0 -0.82 4.59 0 5 c 1.98 0.99 7.9 0.88 12 1 c 7.15 0.22 14.04 0.26 21 0 c 2.02 -0.07 6.12 -1.07 6 -1 c -0.27 0.16 -9.84 2.43 -13 5 c -5 4.07 -9.71 11.04 -14 17 c -3.4 4.74 -6.32 9.84 -9 15 c -1.65 3.17 -3.2 6.79 -4 10 c -0.45 1.79 -1.02 5.84 0 6 c 5.25 0.85 22.12 1.96 31 -1 l 56 -28"/></svg>