<?xml version="1.0" encoding="UTF-8" standalone="no"?><!DOCTYPE svg PUBLIC "-//W3C//DTD SVG 1.1//EN" "http://www.w3.org/Graphics/SVG/1.1/DTD/svg11.dtd"><svg xmlns="http://www.w3.org/2000/svg" version="1.1" width="161" height="86"><path fill="none" stroke="#000000" stroke-width="2" stroke-linecap="round" stroke-linejoin="round" d="M 12 5 c 0.11 0.14 3.61 5.75 6 8 c 14.7 13.85 31.25 28.98 46 41 c 2.05 1.67 5.74 3 8 3 c 2.02 0 6.22 -1.44 7 -3 c 1.33 -2.67 1 -8.64 1 -13 c 0 -5.02 0.05 -10.34 -1 -15 c -1.19 -5.29 -3.51 -11.2 -6 -16 c -1.66 -3.2 -5.84 -8.74 -7 -9 c -0.74 -0.17 -1.79 4.69 -2 7 c -0.43 4.77 -0.88 10.43 0 15 c 1.01 5.2 3.6 10.86 6 16 c 2.26 4.85 4.64 10.04 8 14 c 9.28 10.95 30.45 31.45 31 32 c 0.36 0.36 -12.93 -14.12 -20 -21 c -5.53 -5.38 -12.21 -9.64 -17 -15 c -3.22 -3.61 -5.69 -8.62 -8 -13 c -0.96 -1.82 -1.74 -4.03 -2 -6 c -0.37 -2.8 -1.51 -7.92 0 -9 c 3.66 -2.62 14.09 -5.08 21 -6 c 7.59 -1.01 15.85 -0.35 24 0 c 7.5 0.33 15.94 -0.18 22 2 c 5.71 2.05 11.84 7.61 17 12 c 3.69 3.14 7.18 7.18 10 11 c 1.69 2.3 3.35 5.41 4 8 c 0.58 2.32 1.28 7.32 0 8 c -2.73 1.45 -11.15 0.95 -17 1 c -36.06 0.3 -70.47 1.1 -105 0 c -7.03 -0.22 -14.76 -1.8 -21 -4 c -4.46 -1.57 -9.86 -5.06 -13 -8 c -1.56 -1.47 -3 -5.34 -3 -7 c 0 -0.92 1.88 -2.76 3 -3 c 4.23 -0.89 10.5 -0.9 16 -1 c 13.72 -0.24 26.41 -0.44 40 0 l 22 2"/></svg>