<?xml version="1.0" encoding="UTF-8" standalone="no"?><!DOCTYPE svg PUBLIC "-//W3C//DTD SVG 1.1//EN" "http://www.w3.org/Graphics/SVG/1.1/DTD/svg11.dtd"><svg xmlns="http://www.w3.org/2000/svg" version="1.1" width="292" height="159"><path fill="none" stroke="#000000" stroke-width="2" stroke-linecap="round" stroke-linejoin="round" d="M 1 42 c 0.09 0.02 3.33 0.91 5 1 c 4.59 0.24 9.62 -0.44 14 0 c 1.98 0.2 6 2 6 2"/><path fill="none" stroke="#000000" stroke-width="2" stroke-linecap="round" stroke-linejoin="round" d="M 1 99 l 12 0"/><path fill="none" stroke="#000000" stroke-width="2" stroke-linecap="round" stroke-linejoin="round" d="M 9 154 c 0.1 -0.09 4.47 -3.04 6 -5 c 4.24 -5.42 12 -18 12 -18"/><path fill="none" stroke="#000000" stroke-width="2" stroke-linecap="round" stroke-linejoin="round" d="M 83 1 c -0.09 0.24 -3 9.36 -5 14 c -5.49 12.72 -10.69 24.78 -17 37 c -4.52 8.75 -10.19 18.16 -15 25 c -0.74 1.05 -4 2 -4 2"/><path fill="none" stroke="#000000" stroke-width="2" stroke-linecap="round" stroke-linejoin="round" d="M 74 42 c 0.23 0.09 9.38 2.69 13 5 c 4.23 2.7 8.48 6.96 12 11 c 5.41 6.21 15 20 15 20"/><path fill="none" stroke="#000000" stroke-width="2" stroke-linecap="round" stroke-linejoin="round" d="M 69 89 c 0.39 0 15.76 -0.5 22 0 c 1.02 0.08 3 2 3 2"/><path fill="none" stroke="#000000" stroke-width="2" stroke-linecap="round" stroke-linejoin="round" d="M 60 122 c 0.16 -0.09 5.91 -3.82 9 -5 c 3.71 -1.41 8.2 -1.67 12 -3 c 2.75 -0.96 8 -4 8 -4"/><path fill="none" stroke="#000000" stroke-width="2" stroke-linecap="round" stroke-linejoin="round" d="M 74 115 c 0.02 0.3 -0.43 11.88 1 17 c 2.37 8.48 11 26 11 26"/><path fill="none" stroke="#000000" stroke-width="2" stroke-linecap="round" stroke-linejoin="round" d="M 54 135 c 0 0.09 -0.37 3.52 0 5 c 0.56 2.25 1.55 6.16 3 7 c 1.71 1 9 0 9 0"/><path fill="none" stroke="#000000" stroke-width="2" stroke-linecap="round" stroke-linejoin="round" d="M 96 119 l 13 14"/><path fill="none" stroke="#000000" stroke-width="2" stroke-linecap="round" stroke-linejoin="round" d="M 133 68 c 0.45 -0.05 17.56 -1.31 26 -3 c 6.42 -1.28 12.93 -3.67 19 -6 c 2.45 -0.94 4.77 -2.51 7 -4 c 1.77 -1.18 3.54 -2.54 5 -4 l 3 -4"/><path fill="none" stroke="#000000" stroke-width="2" stroke-linecap="round" stroke-linejoin="round" d="M 164 38 c -0.16 0.33 -6.36 12.39 -9 19 c -4.14 10.34 -11 31 -11 31"/><path fill="none" stroke="#000000" stroke-width="2" stroke-linecap="round" stroke-linejoin="round" d="M 153 81 c 0.02 0.35 0.34 13.23 1 20 c 0.7 7.17 3 21 3 21"/><path fill="none" stroke="#000000" stroke-width="2" stroke-linecap="round" stroke-linejoin="round" d="M 152 89 c 0.16 -0.07 6.03 -3.66 9 -4 c 7.84 -0.9 19.58 -1.07 26 0 c 1.58 0.26 2.95 3.26 4 5 c 0.88 1.46 1.71 3.29 2 5 c 1.65 9.62 2.19 19.95 4 30 c 1.23 6.85 3.74 13.47 5 20 l 0 6"/><path fill="none" stroke="#000000" stroke-width="2" stroke-linecap="round" stroke-linejoin="round" d="M 167 105 c 0.21 0 8.45 -0.44 12 0 c 1.32 0.17 4 2 4 2"/><path fill="none" stroke="#000000" stroke-width="2" stroke-linecap="round" stroke-linejoin="round" d="M 182 119 l 1 1"/><path fill="none" stroke="#000000" stroke-width="2" stroke-linecap="round" stroke-linejoin="round" d="M 221 31 l 1 1"/><path fill="none" stroke="#000000" stroke-width="2" stroke-linecap="round" stroke-linejoin="round" d="M 258 27 c -0.04 0.05 -1.17 2.17 -2 3 c -4.38 4.38 -9.26 9.39 -14 13 c -1.89 1.44 -7 3 -7 3"/><path fill="none" stroke="#000000" stroke-width="2" stroke-linecap="round" stroke-linejoin="round" d="M 225 53 c -0.07 0.16 -4.61 7.89 -4 9 c 0.56 1.01 6.05 0.3 9 0 c 3.67 -0.37 7.31 -1.11 11 -2 c 6.17 -1.49 18 -5 18 -5"/><path fill="none" stroke="#000000" stroke-width="2" stroke-linecap="round" stroke-linejoin="round" d="M 217 76 c -0.03 0.23 -1.6 8.64 -2 13 c -0.27 2.98 -0.18 5.98 0 9 c 0.16 2.71 0.31 5.47 1 8 c 1.27 4.67 3.19 9.34 5 14 c 0.55 1.4 1.82 4.27 2 4 c 0.42 -0.62 1.87 -6.73 2 -10 c 0.2 -5.14 -0.29 -11.01 -1 -16 c -0.24 -1.68 -1.68 -3.38 -2 -5 c -0.3 -1.51 -0.56 -4.16 0 -5 c 0.46 -0.69 2.85 -1.19 4 -1 c 2.38 0.4 6.21 1.51 8 3 c 1.69 1.41 3.06 4.53 4 7 c 3.33 8.72 6.45 17.78 9 27 c 1.83 6.61 4 20 4 20"/><path fill="none" stroke="#000000" stroke-width="2" stroke-linecap="round" stroke-linejoin="round" d="M 230 106 l 1 1"/><path fill="none" stroke="#000000" stroke-width="2" stroke-linecap="round" stroke-linejoin="round" d="M 263 75 c 0.09 0.07 4.1 2.4 5 4 c 1.77 3.15 2.28 8.38 4 12 c 1.17 2.46 3.52 4.5 5 7 c 4.94 8.32 14 25 14 25"/></svg>