<?xml version="1.0" encoding="UTF-8" standalone="no"?><!DOCTYPE svg PUBLIC "-//W3C//DTD SVG 1.1//EN" "http://www.w3.org/Graphics/SVG/1.1/DTD/svg11.dtd"><svg xmlns="http://www.w3.org/2000/svg" version="1.1" width="66" height="40"><path fill="none" stroke="#000000" stroke-width="2" stroke-linecap="round" stroke-linejoin="round" d="M 1 25 c 0.02 -0.09 0.38 -3.52 1 -5 c 0.97 -2.34 2.12 -5.9 4 -7 c 4.95 -2.89 13.48 -5.83 20 -7 c 5.84 -1.05 14.79 -2.34 19 0 c 5.82 3.23 12.42 13.36 17 20 c 1.66 2.4 2.59 6.31 3 9 c 0.18 1.17 -0.2 3.75 -1 4 c -2.32 0.71 -8.51 0.79 -12 0 c -3.25 -0.74 -6.95 -2.97 -10 -5 c -4.85 -3.23 -10.04 -7.04 -14 -11 c -2.41 -2.41 -4.52 -6.03 -6 -9 c -0.7 -1.4 -0.83 -3.34 -1 -5 c -0.16 -1.63 -0.72 -4.17 0 -5 l 7 -3"/></svg>