<?xml version="1.0" encoding="UTF-8" standalone="no"?><!DOCTYPE svg PUBLIC "-//W3C//DTD SVG 1.1//EN" "http://www.w3.org/Graphics/SVG/1.1/DTD/svg11.dtd"><svg xmlns="http://www.w3.org/2000/svg" version="1.1" width="329" height="253"><path fill="none" stroke="#000000" stroke-width="2" stroke-linecap="round" stroke-linejoin="round" d="M 6 41 c 0.91 -0.45 34.02 -17.58 52 -26 c 9.02 -4.22 17.9 -7.97 27 -11 c 4.77 -1.59 10.04 -2.26 15 -3 c 1.62 -0.24 4.38 -0.62 5 0 c 0.62 0.62 0.56 3.69 0 5 c -1.21 2.83 -3.76 6.13 -6 9 c -3.82 4.89 -7.65 9.45 -12 14 c -10 10.48 -20.46 19.36 -30 30 c -8 8.93 -15.38 18.07 -22 28 c -9.5 14.26 -17.87 28.94 -26 44 c -3.28 6.08 -8 19 -8 19"/><path fill="none" stroke="#000000" stroke-width="2" stroke-linecap="round" stroke-linejoin="round" d="M 49 93 c -0.04 0.18 -1.69 6.62 -2 10 c -0.69 7.63 -0.88 15.05 -1 23 c -0.23 15.88 0 46 0 46"/><path fill="none" stroke="#000000" stroke-width="2" stroke-linecap="round" stroke-linejoin="round" d="M 79 44 c 0.07 0.05 3.39 1.79 4 3 c 1.12 2.24 1.62 5.92 2 9 c 1.3 10.4 1.65 20.33 3 31 c 2.8 22.13 9 64 9 64"/><path fill="none" stroke="#000000" stroke-width="2" stroke-linecap="round" stroke-linejoin="round" d="M 57 123 c 0.09 -0.09 3.16 -3.82 5 -5 c 2.56 -1.65 5.92 -3.06 9 -4 c 4.48 -1.36 10.27 -2.78 14 -3 c 0.94 -0.06 2.7 1.19 3 2 c 0.51 1.35 0.82 4.57 0 6 c -2.62 4.58 -10.66 11.99 -12 15 c -0.35 0.78 4.07 2.03 4 3 c -0.17 2.17 -2.63 7.46 -5 10 c -10.5 11.27 -34.56 32.27 -36 34 c -0.34 0.41 7.67 -2.26 11 -4 c 3.47 -1.82 6.62 -5.1 10 -7 c 1.75 -0.99 5.95 -2.66 6 -2 c 0.13 1.76 -2.25 11.6 -5 16 c -6.67 10.67 -16.33 21.79 -25 32 c -2.57 3.03 -9.15 8.15 -9 8 c 0.18 -0.18 7.07 -6.83 11 -10 c 6.61 -5.33 12.98 -10.15 20 -15 c 7.33 -5.06 14.4 -9.8 22 -14 c 5.09 -2.81 10.65 -5.45 16 -7 c 4.63 -1.35 12.18 -2.35 15 -2 c 0.77 0.1 1.24 2.87 1 4 c -0.63 2.95 -1.98 7.53 -4 10 c -3.46 4.23 -9.06 8.3 -14 12 c -4.46 3.34 -9.17 6.67 -14 9 c -4.59 2.21 -10.1 4.18 -15 5 c -4.65 0.77 -11.45 0.63 -15 0 c -0.85 -0.15 -2.4 -2.66 -2 -3 c 1.05 -0.9 6.04 -2.64 9 -3 c 4.99 -0.6 10.96 -0.82 16 0 c 6.88 1.12 13.84 3.67 21 6 c 21.45 6.98 62 21 62 21"/><path fill="none" stroke="#000000" stroke-width="2" stroke-linecap="round" stroke-linejoin="round" d="M 198 107 c 0.09 -0.1 3.15 -4.3 5 -6 c 2.04 -1.87 4.51 -4.14 7 -5 c 6.52 -2.25 14.58 -3.73 22 -5 c 4.29 -0.74 11.64 -1.81 13 -1 c 0.79 0.48 -1.34 5.66 -3 7 c -5.89 4.75 -15.12 9.57 -23 14 c -2.88 1.62 -6.37 2.47 -9 4 c -1.13 0.66 -3.36 2.7 -3 3 c 0.79 0.66 6.02 1.6 9 2 c 1.94 0.26 4.33 -0.37 6 0 c 1 0.22 3.23 1.45 3 2 c -0.81 1.95 -4.84 7.41 -8 10 c -9.37 7.69 -20.46 14.29 -31 22 c -3.55 2.6 -6.95 5.16 -10 8 c -1.53 1.42 -4.52 4.63 -4 5 c 0.89 0.64 7.78 1.04 11 0 c 15.14 -4.87 31.36 -12.95 48 -19 c 13.56 -4.93 40 -13 40 -13"/><path fill="none" stroke="#000000" stroke-width="2" stroke-linecap="round" stroke-linejoin="round" d="M 214 51 c 0.07 0.28 3.28 10.54 4 16 c 2.97 22.65 5.57 44.78 7 68 c 1.3 21.07 1.24 40.98 1 62 c -0.09 8.16 -0.96 15.88 -2 24 c -1.01 7.88 -4 23 -4 23"/><path fill="none" stroke="#000000" stroke-width="2" stroke-linecap="round" stroke-linejoin="round" d="M 275 92 c -0.04 0.25 -1.93 9.27 -2 14 c -0.6 41.77 -0.31 82.24 0 125 c 0.03 4.8 0.35 9.46 1 14 c 0.34 2.36 2 7 2 7"/><path fill="none" stroke="#000000" stroke-width="2" stroke-linecap="round" stroke-linejoin="round" d="M 286 85 c 0.23 -0.11 8.8 -4.99 13 -6 c 3.52 -0.85 8.08 -0.36 12 0 c 3.33 0.3 6.88 1.03 10 2 c 2.05 0.64 4.8 1.8 6 3 c 0.74 0.74 1 2.73 1 4 c 0 2.17 0.35 5.85 -1 7 c -5.59 4.73 -17.71 10.14 -25 15 c -0.9 0.6 -2.32 2.76 -2 3 c 0.53 0.39 4.11 -0.29 6 0 c 2.3 0.35 5.49 0.7 7 2 c 2.54 2.18 5.86 6.75 7 10 c 0.93 2.66 0.63 7.03 0 10 c -0.62 2.92 -2.38 6.3 -4 9 l -5 6"/></svg>