<?xml version="1.0" encoding="UTF-8" standalone="no"?><!DOCTYPE svg PUBLIC "-//W3C//DTD SVG 1.1//EN" "http://www.w3.org/Graphics/SVG/1.1/DTD/svg11.dtd"><svg xmlns="http://www.w3.org/2000/svg" version="1.1" width="308" height="210"><path fill="none" stroke="#000000" stroke-width="2" stroke-linecap="round" stroke-linejoin="round" d="M 78 1 l 1 57"/><path fill="none" stroke="#000000" stroke-width="2" stroke-linecap="round" stroke-linejoin="round" d="M 38 33 c -0.14 0.49 -9.11 24.38 -8 28 c 0.62 2.01 11.32 -0.39 16 -2 c 5.33 -1.83 10.42 -6.64 16 -9 c 9.32 -3.94 19.45 -7.44 29 -10 c 3.75 -1.01 8.02 -1 12 -1 c 3.65 0 7.71 0.13 11 1 c 2.67 0.7 8.63 3.23 8 4 c -1.81 2.19 -14.36 9.26 -22 13 c -8.05 3.94 -16.53 6.32 -25 10 c -7.31 3.18 -14.23 6.18 -21 10 c -6.29 3.55 -12.7 7.36 -18 12 c -7.8 6.82 -14.9 14.98 -22 23 c -3.35 3.78 -6.43 7.86 -9 12 c -1.68 2.72 -4 8 -4 9 c 0 0.42 2.81 -0.41 4 -1 c 7.21 -3.6 14.66 -8.46 22 -12 c 2.13 -1.03 4.7 -1.65 7 -2 c 1.89 -0.29 4.32 -0.46 6 0 c 1.63 0.44 4.11 1.63 5 3 c 2.32 3.58 4.72 9.21 6 14 c 2.31 8.63 3.68 17.77 5 27 c 1.06 7.43 2 22 2 22"/><path fill="none" stroke="#000000" stroke-width="2" stroke-linecap="round" stroke-linejoin="round" d="M 87 75 c 0.11 0.02 4.74 0.21 6 1 c 0.93 0.58 2.17 2.89 2 4 c -0.38 2.45 -4.15 7.32 -4 9 c 0.08 0.92 3.38 1.68 5 2 c 1.51 0.3 3.54 -0.32 5 0 c 1.3 0.29 3.25 1 4 2 c 1.87 2.49 3.81 6.58 5 10 c 1.42 4.08 2.42 8.59 3 13 c 1.09 8.3 1.78 16.66 2 25 c 0.11 4.33 -0.29 11.43 -1 13 c -0.24 0.54 -3.03 -1.03 -4 -2 c -5.55 -5.55 -13.25 -13.27 -17 -19 c -1.03 -1.57 -0.69 -5.22 0 -7 c 0.76 -1.99 3.24 -4.24 5 -6 c 0.81 -0.81 2.24 -2.11 3 -2 c 1.05 0.15 2.58 2.23 4 3 c 2.16 1.18 5.51 1.67 7 3 c 1.06 0.94 1.78 3.36 2 5 c 0.41 3.05 0.65 7.09 0 10 c -0.58 2.6 -2.47 5.51 -4 8 c -1.1 1.78 -2.52 3.4 -4 5 c -6.36 6.91 -18.35 17.14 -19 20 c -0.33 1.46 9.41 2.15 14 2 c 15.31 -0.5 31.54 -1.89 47 -4 c 6.44 -0.88 13.41 -2.72 19 -5 c 2.84 -1.16 5.61 -3.77 8 -6 c 2.54 -2.37 5.73 -5.12 7 -8 l 4 -17"/><path fill="none" stroke="#000000" stroke-width="2" stroke-linecap="round" stroke-linejoin="round" d="M 149 95 c 0.26 -0.21 10.31 -7.61 15 -12 c 6.04 -5.66 11.58 -11.58 17 -18 c 7.49 -8.87 14.31 -17.99 21 -27 c 0.87 -1.18 2.44 -3.78 2 -4 c -0.79 -0.39 -6 -0.14 -8 1 c -4.22 2.41 -9.28 6.96 -13 11 c -3.75 4.08 -6.8 9.11 -10 14 c -2.58 3.95 -4.94 7.89 -7 12 c -1.27 2.53 -2.63 5.57 -3 8 c -0.22 1.45 0.35 3.7 1 5 c 0.54 1.08 1.85 2.66 3 3 c 4.66 1.4 12.34 1.6 17 3 c 1.15 0.34 3.06 2.04 3 3 c -0.19 2.86 -2.35 8.11 -4 12 c -2.04 4.82 -6.09 9.81 -7 14 c -0.54 2.47 0.56 7.03 2 9 c 1.69 2.31 5.83 4.35 9 6 c 5.12 2.66 12.36 4.37 16 7 c 1.32 0.95 2.4 4.39 2 6 c -1 3.99 -3.77 10.42 -7 14 c -8.34 9.24 -19.52 18.61 -30 27 c -6.19 4.96 -20.74 12.91 -20 13 c 1.16 0.15 24.12 -8.87 36 -11 c 9.79 -1.75 20.69 -1.22 31 -1 c 5.36 0.11 10.8 0.76 16 2 c 10.09 2.41 19.66 6.33 30 9 c 9.46 2.45 18.28 4.01 28 6 c 3.8 0.78 7.33 1.59 11 2 c 2.3 0.26 7.31 0.5 7 0 c -1.04 -1.67 -11.96 -10.2 -17 -16 c -5.87 -6.76 -10.92 -14.22 -16 -22 c -10.3 -15.8 -19.45 -30.83 -29 -47 c -2.71 -4.58 -4.91 -9.2 -7 -14 c -1.26 -2.91 -2.67 -6.17 -3 -9 c -0.28 -2.4 0.14 -5.63 1 -8 c 1.67 -4.59 3.97 -10.39 7 -14 c 3.45 -4.1 9.12 -7.68 14 -11 c 3.43 -2.34 7.36 -4.89 11 -6 c 3.5 -1.06 10.2 -2.44 12 -1 c 1.99 1.59 3.34 9.08 3 13 c -0.57 6.7 -3.08 15.29 -6 22 c -3.55 8.17 -8.82 16.23 -14 24 c -4.92 7.39 -10.18 14.62 -16 21 c -4.37 4.8 -9.76 9.57 -15 13 c -4.02 2.63 -14.86 5.09 -14 6 c 1.72 1.84 19.79 7.29 29 10 c 1.5 0.44 4.07 0.78 5 0 c 2.28 -1.9 4.88 -6.46 7 -10 c 3.97 -6.62 7.12 -14.18 11 -20 c 1.09 -1.63 3.24 -3.25 5 -4 c 2.54 -1.09 6.47 -2 9 -2 c 1.23 0 3.22 1.09 4 2 c 0.94 1.1 2 3.44 2 5 c 0 3.52 -0.27 9.21 -2 12 c -2.02 3.26 -7.12 6.58 -11 9 c -3.91 2.44 -8.79 5.03 -13 6 c -3.82 0.88 -9.46 0.89 -13 0 l -7 -5"/></svg>