<?xml version="1.0" encoding="UTF-8" standalone="no"?><!DOCTYPE svg PUBLIC "-//W3C//DTD SVG 1.1//EN" "http://www.w3.org/Graphics/SVG/1.1/DTD/svg11.dtd"><svg xmlns="http://www.w3.org/2000/svg" version="1.1" width="255" height="137"><path fill="none" stroke="#000000" stroke-width="2" stroke-linecap="round" stroke-linejoin="round" d="M 5 47 c 0.11 0.05 4.3 1.67 6 3 c 5.73 4.49 17 15 17 15"/><path fill="none" stroke="#000000" stroke-width="2" stroke-linecap="round" stroke-linejoin="round" d="M 1 89 c 0.09 0.05 3.3 2.64 5 3 c 4.09 0.86 14 1 14 1"/><path fill="none" stroke="#000000" stroke-width="2" stroke-linecap="round" stroke-linejoin="round" d="M 18 136 c 0.12 -0.09 5.63 -2.91 7 -5 c 3.13 -4.8 8 -18 8 -18"/><path fill="none" stroke="#000000" stroke-width="2" stroke-linecap="round" stroke-linejoin="round" d="M 75 1 c -0.07 0.21 -2.31 8.13 -4 12 c -3 6.85 -6.25 13.4 -10 20 c -4.75 8.35 -9.74 16.12 -15 24 c -1.45 2.18 -5 6 -5 6"/><path fill="none" stroke="#000000" stroke-width="2" stroke-linecap="round" stroke-linejoin="round" d="M 65 33 c 0.12 0.02 4.95 0.32 7 1 c 1.69 0.56 3.4 1.84 5 3 c 8.23 5.96 24 18 24 18"/><path fill="none" stroke="#000000" stroke-width="2" stroke-linecap="round" stroke-linejoin="round" d="M 63 68 c 0.07 0.03 2.65 1.82 4 2 c 5.74 0.75 19 1 19 1"/><path fill="none" stroke="#000000" stroke-width="2" stroke-linecap="round" stroke-linejoin="round" d="M 50 106 c 0.11 -0.05 4.04 -2.61 6 -3 c 2.63 -0.53 6.15 0.36 9 0 c 2.3 -0.29 4.62 -1.62 7 -2 c 5.93 -0.95 18 -2 18 -2"/><path fill="none" stroke="#000000" stroke-width="2" stroke-linecap="round" stroke-linejoin="round" d="M 80 91 c 0 0.14 -0.36 5.38 0 8 c 1.29 9.31 5 28 5 28"/><path fill="none" stroke="#000000" stroke-width="2" stroke-linecap="round" stroke-linejoin="round" d="M 66 107 l 1 1"/><path fill="none" stroke="#000000" stroke-width="2" stroke-linecap="round" stroke-linejoin="round" d="M 103 116 c 0.16 0.26 5.76 10.38 9 15 c 1.31 1.87 5 5 5 5"/><path fill="none" stroke="#000000" stroke-width="2" stroke-linecap="round" stroke-linejoin="round" d="M 67 111 c -0.02 0.07 -0.92 2.67 -1 4 c -0.25 4.19 0 13 0 13"/><path fill="none" stroke="#000000" stroke-width="2" stroke-linecap="round" stroke-linejoin="round" d="M 116 52 c 0.4 -0.03 15.17 -1.02 23 -2 c 8.59 -1.07 17.28 -1.91 25 -4 c 4.09 -1.11 12 -6 12 -6"/><path fill="none" stroke="#000000" stroke-width="2" stroke-linecap="round" stroke-linejoin="round" d="M 158 15 c -0.07 0.3 -2.03 11.75 -4 17 c -1.92 5.11 -4.98 10.05 -8 15 c -8.24 13.48 -16.57 27.04 -25 39 c -1.42 2.02 -6 5 -6 5"/><path fill="none" stroke="#000000" stroke-width="2" stroke-linecap="round" stroke-linejoin="round" d="M 140 60 c 0.04 0.25 1.84 9.28 2 14 c 0.51 14.7 0 44 0 44"/><path fill="none" stroke="#000000" stroke-width="2" stroke-linecap="round" stroke-linejoin="round" d="M 144 71 c 0.16 -0.09 6.15 -3.98 9 -5 c 1.38 -0.49 3.54 -0.32 5 0 c 1.3 0.29 2.99 1.13 4 2 c 1.13 0.97 2.22 2.6 3 4 c 0.84 1.51 1.6 3.27 2 5 c 2.58 11.17 5.13 22.53 7 34 c 0.81 4.97 1 15 1 15"/><path fill="none" stroke="#000000" stroke-width="2" stroke-linecap="round" stroke-linejoin="round" d="M 153 88 l 14 0"/><path fill="none" stroke="#000000" stroke-width="2" stroke-linecap="round" stroke-linejoin="round" d="M 153 106 c 0.21 -0.02 8.49 -0.08 12 -1 c 2.35 -0.62 4.97 -2.4 7 -4 c 2.49 -1.96 7 -7 7 -7"/><path fill="none" stroke="#000000" stroke-width="2" stroke-linecap="round" stroke-linejoin="round" d="M 213 10 c 0.02 0.12 0.21 5.1 1 7 c 0.72 1.72 4 5 4 5"/><path fill="none" stroke="#000000" stroke-width="2" stroke-linecap="round" stroke-linejoin="round" d="M 243 6 c -0.07 0.23 -1.72 9.83 -4 13 c -3.09 4.3 -14 12 -14 12"/><path fill="none" stroke="#000000" stroke-width="2" stroke-linecap="round" stroke-linejoin="round" d="M 192 54 c 0.12 -0.03 4.65 -1.72 7 -2 c 5.82 -0.7 12.26 0.06 18 -1 c 6.65 -1.22 20 -6 20 -6"/><path fill="none" stroke="#000000" stroke-width="2" stroke-linecap="round" stroke-linejoin="round" d="M 198 62 c -0.02 0.24 -0.91 9.2 -1 14 c -0.25 13 0 38 0 38"/><path fill="none" stroke="#000000" stroke-width="2" stroke-linecap="round" stroke-linejoin="round" d="M 192 77 c 0.16 -0.05 6.05 -2.56 9 -3 c 3.42 -0.51 8.42 -0.59 11 0 c 0.84 0.19 1.56 1.93 2 3 c 1.17 2.81 2.53 5.93 3 9 c 2.15 13.99 5 43 5 43"/><path fill="none" stroke="#000000" stroke-width="2" stroke-linecap="round" stroke-linejoin="round" d="M 199 103 c 0.19 -0.04 7.33 -1.59 11 -2 c 2.3 -0.26 7 0 7 0"/><path fill="none" stroke="#000000" stroke-width="2" stroke-linecap="round" stroke-linejoin="round" d="M 218 108 l 1 1"/><path fill="none" stroke="#000000" stroke-width="2" stroke-linecap="round" stroke-linejoin="round" d="M 244 62 l 1 1"/><path fill="none" stroke="#000000" stroke-width="2" stroke-linecap="round" stroke-linejoin="round" d="M 248 70 c 0.02 0.26 0.16 10.11 1 15 c 1.15 6.71 5 20 5 20"/><path fill="none" stroke="#000000" stroke-width="2" stroke-linecap="round" stroke-linejoin="round" d="M 227 85 c 0.03 0.1 1.77 4.03 2 6 c 0.4 3.43 0 11 0 11"/></svg>