<?xml version="1.0" encoding="UTF-8" standalone="no"?><!DOCTYPE svg PUBLIC "-//W3C//DTD SVG 1.1//EN" "http://www.w3.org/Graphics/SVG/1.1/DTD/svg11.dtd"><svg xmlns="http://www.w3.org/2000/svg" version="1.1" width="190" height="167"><path fill="none" stroke="#000000" stroke-width="2" stroke-linecap="round" stroke-linejoin="round" d="M 5 16 c 0.18 0.21 6.44 9.33 10 12 c 2.38 1.78 10 3 10 3"/><path fill="none" stroke="#000000" stroke-width="2" stroke-linecap="round" stroke-linejoin="round" d="M 66 3 c -0.23 0.33 -8.3 12.8 -13 19 c -3.76 4.97 -12 14 -12 14"/><path fill="none" stroke="#000000" stroke-width="2" stroke-linecap="round" stroke-linejoin="round" d="M 13 56 c 0.05 -0.05 1.85 -2.3 3 -3 c 4.6 -2.81 10.08 -4.99 15 -8 c 7.3 -4.46 13.83 -9.7 21 -14 c 2.8 -1.68 9 -4 9 -4"/><path fill="none" stroke="#000000" stroke-width="2" stroke-linecap="round" stroke-linejoin="round" d="M 14 74 c 0.05 -0.05 1.84 -2.31 3 -3 c 10.69 -6.36 34 -19 34 -19"/><path fill="none" stroke="#000000" stroke-width="2" stroke-linecap="round" stroke-linejoin="round" d="M 1 104 c 0.95 -0.52 35.97 -19.11 54 -30 c 14.73 -8.9 42 -28 42 -28"/><path fill="none" stroke="#000000" stroke-width="2" stroke-linecap="round" stroke-linejoin="round" d="M 113 1 l 3 9"/><path fill="none" stroke="#000000" stroke-width="2" stroke-linecap="round" stroke-linejoin="round" d="M 97 49 l 33 -27"/><path fill="none" stroke="#000000" stroke-width="2" stroke-linecap="round" stroke-linejoin="round" d="M 98 55 l 9 -1"/><path fill="none" stroke="#000000" stroke-width="2" stroke-linecap="round" stroke-linejoin="round" d="M 151 29 c -0.4 0.44 -15.11 17.36 -23 25 c -2.51 2.43 -9 6 -9 6"/><path fill="none" stroke="#000000" stroke-width="2" stroke-linecap="round" stroke-linejoin="round" d="M 95 79 c 0.23 -0.16 8.39 -6.41 13 -9 c 9.12 -5.12 18.88 -9.15 28 -14 c 1.46 -0.77 4 -3 4 -3"/><path fill="none" stroke="#000000" stroke-width="2" stroke-linecap="round" stroke-linejoin="round" d="M 96 97 c 0.09 -0.09 3.14 -3.54 5 -5 c 10.52 -8.25 28.27 -23.04 32 -24 c 1.5 -0.39 -0.23 10.81 -1 16 c -0.55 3.69 -1.82 7.45 -3 11 c -0.46 1.39 -1.16 2.88 -2 4 c -1.07 1.42 -2.52 3.14 -4 4 c -2.23 1.3 -7.39 3.37 -8 3 c -0.48 -0.29 1.58 -4.58 3 -6 c 3.48 -3.48 9 -6.4 13 -10 c 2.59 -2.33 4.44 -5.44 7 -8 c 7.31 -7.31 14.71 -13.71 22 -21 c 2.21 -2.21 4.25 -4.59 6 -7 c 0.85 -1.17 1.05 -2.99 2 -4 c 3.75 -4 13.22 -12.22 13 -12 c -0.29 0.29 -13.13 10.7 -17 16 c -1.69 2.31 -1.61 6.68 -2 10 c -0.27 2.28 0.28 4.74 0 7 c -0.37 2.98 -1.13 6.16 -2 9 c -0.42 1.38 -2.39 3.94 -2 4 c 0.82 0.12 6.47 -1.46 9 -3 c 4.74 -2.89 9.27 -7.59 14 -11 c 1.19 -0.86 2.8 -1.85 4 -2 c 1.11 -0.14 3.81 0.19 4 1 c 0.74 3.15 0.49 10.69 0 16 c -0.84 9.07 -3.02 17.79 -4 27 c -0.72 6.75 -1 13.17 -1 20 c 0 11.6 1 34 1 34"/></svg>