<?xml version="1.0" encoding="UTF-8" standalone="no"?><!DOCTYPE svg PUBLIC "-//W3C//DTD SVG 1.1//EN" "http://www.w3.org/Graphics/SVG/1.1/DTD/svg11.dtd"><svg xmlns="http://www.w3.org/2000/svg" version="1.1" width="211" height="91"><path fill="none" stroke="#000000" stroke-width="2" stroke-linecap="round" stroke-linejoin="round" d="M 1 33 c 0.14 -0.09 5.19 -3.53 8 -5 c 4.26 -2.23 8.68 -4.32 13 -6 c 1.54 -0.6 4.04 -1.41 5 -1 c 0.84 0.36 1.83 2.68 2 4 c 0.44 3.55 -0.33 8.03 0 12 c 0.34 4.02 1.12 8.05 2 12 c 0.46 2.05 1.06 4.28 2 6 c 0.95 1.75 3.15 3.2 4 5 c 1.67 3.56 3.82 8.6 4 12 c 0.11 2.05 -1.67 5.33 -3 7 c -1.02 1.28 -3.31 2.25 -5 3 c -1.19 0.53 -2.72 1 -4 1 c -3.13 0 -8.27 0.1 -10 -1 c -1.05 -0.67 -1.42 -4.31 -1 -6 c 1.06 -4.23 3.28 -10.03 6 -14 c 4.95 -7.21 11.56 -14.56 18 -21 c 4.47 -4.47 10.74 -9.66 15 -12 c 1.13 -0.62 4.09 0.09 5 1 c 1.85 1.85 3.97 5.92 5 9 c 1.53 4.58 2.66 9.99 3 15 c 0.65 9.49 0 29 0 29"/><path fill="none" stroke="#000000" stroke-width="2" stroke-linecap="round" stroke-linejoin="round" d="M 54 55 l 1 9"/><path fill="none" stroke="#000000" stroke-width="2" stroke-linecap="round" stroke-linejoin="round" d="M 81 54 l 3 14"/><path fill="none" stroke="#000000" stroke-width="2" stroke-linecap="round" stroke-linejoin="round" d="M 87 28 c 0.12 0 5.05 -0.39 7 0 c 1.01 0.2 3 2 3 2"/><path fill="none" stroke="#000000" stroke-width="2" stroke-linecap="round" stroke-linejoin="round" d="M 98 44 l 3 2"/><path fill="none" stroke="#000000" stroke-width="2" stroke-linecap="round" stroke-linejoin="round" d="M 91 88 l 20 -25"/><path fill="none" stroke="#000000" stroke-width="2" stroke-linecap="round" stroke-linejoin="round" d="M 117 1 c -0.16 0.3 -7.85 13.16 -9 17 c -0.25 0.85 1.93 2.71 3 3 c 2.03 0.55 5.41 0.3 8 0 c 2.98 -0.35 6.03 -1.58 9 -2 c 1.61 -0.23 4.12 -0.63 5 0 c 0.95 0.68 2.53 3.76 2 5 c -3.4 7.93 -11.49 19.85 -17 30 c -0.86 1.59 -1.68 3.32 -2 5 c -0.65 3.45 -1.55 8.44 -1 11 c 0.25 1.16 2.59 2.46 4 3 c 2.6 1 6.05 1.9 9 2 c 6.73 0.22 14.95 -0.24 21 -1 l 3 -2"/><path fill="none" stroke="#000000" stroke-width="2" stroke-linecap="round" stroke-linejoin="round" d="M 117 35 c 0.26 -0.02 10.26 -1 15 -1 c 1.3 0 3.36 0.2 4 1 c 1.53 1.91 3.62 6.11 4 9 c 0.54 4.11 -0.38 9.26 -1 14 c -1.43 10.94 -5 32 -5 32"/><path fill="none" stroke="#000000" stroke-width="2" stroke-linecap="round" stroke-linejoin="round" d="M 105 54 c 0.09 0.03 3.35 1.83 5 2 c 4.28 0.45 9.45 0.62 14 0 c 9.94 -1.36 30 -6 30 -6"/><path fill="none" stroke="#000000" stroke-width="2" stroke-linecap="round" stroke-linejoin="round" d="M 132 45 c -0.03 0.07 -1.64 2.61 -2 4 c -1.25 4.74 -2.29 10.03 -3 15 c -0.28 1.95 0 6 0 6"/><path fill="none" stroke="#000000" stroke-width="2" stroke-linecap="round" stroke-linejoin="round" d="M 161 33 c 0.25 -0.05 9.46 -1.52 14 -3 c 11.85 -3.87 35 -13 35 -13"/><path fill="none" stroke="#000000" stroke-width="2" stroke-linecap="round" stroke-linejoin="round" d="M 164 49 c 0 0.14 0.41 5.41 0 8 c -1.57 9.91 -5.82 29.35 -6 30 c -0.05 0.17 -0.38 -5.41 0 -8 c 0.93 -6.28 2.32 -12.99 4 -19 c 0.58 -2.08 1.63 -4.52 3 -6 c 2.32 -2.52 6.4 -6.13 9 -7 c 1.44 -0.48 5.13 0.8 6 2 c 1.28 1.75 1.79 6.01 2 9 c 0.44 6.17 0.44 12.83 0 19 l -2 9"/><path fill="none" stroke="#000000" stroke-width="2" stroke-linecap="round" stroke-linejoin="round" d="M 168 63 l 3 2"/><path fill="none" stroke="#000000" stroke-width="2" stroke-linecap="round" stroke-linejoin="round" d="M 194 43 c -0.07 0.77 -3.87 43.24 -4 44 c -0.04 0.26 -1.28 -10.11 -1 -15 c 0.38 -6.58 0.99 -14.35 3 -20 c 1.35 -3.8 5.72 -9.1 8 -11 c 0.69 -0.57 3.08 0.34 4 1 c 1.11 0.8 2.43 2.57 3 4 c 1.3 3.26 2.82 7.39 3 11 c 0.46 9.49 -1 30 -1 30"/><path fill="none" stroke="#000000" stroke-width="2" stroke-linecap="round" stroke-linejoin="round" d="M 199 60 l 1 4"/></svg>