<?xml version="1.0" encoding="UTF-8" standalone="no"?><!DOCTYPE svg PUBLIC "-//W3C//DTD SVG 1.1//EN" "http://www.w3.org/Graphics/SVG/1.1/DTD/svg11.dtd"><svg xmlns="http://www.w3.org/2000/svg" version="1.1" width="286" height="175"><path fill="none" stroke="#000000" stroke-width="2" stroke-linecap="round" stroke-linejoin="round" d="M 69 1 c 0.05 0.44 2.33 16.55 3 25 c 0.34 4.36 1.67 12.78 0 13 c -3.22 0.42 -15.3 -6.86 -23 -10 c -1.27 -0.52 -2.78 -1 -4 -1 c -1.22 0 -3.21 0.21 -4 1 c -2.33 2.33 -5.09 6.51 -7 10 c -2.03 3.72 -5.73 10.9 -5 12 c 0.64 0.96 7.61 -1.47 11 -3 c 10.38 -4.7 20.43 -11.97 31 -16 c 9.99 -3.81 21.11 -5.68 32 -8 c 5 -1.06 13.68 -2.22 15 -2 c 0.44 0.07 -1.7 3.27 -3 4 c -10.46 5.9 -24.16 11.24 -36 18 c -14.28 8.16 -27.5 16.61 -41 26 c -9.9 6.89 -18.81 14.3 -28 22 c -3.28 2.75 -9.57 9.08 -9 9 c 1.44 -0.21 20.55 -8.93 30 -12 c 2.05 -0.66 4.88 -0.35 7 0 c 1.63 0.27 3.94 0.94 5 2 c 1.87 1.87 3.76 5.19 5 8 c 2.36 5.37 4.88 11.27 6 17 c 1.81 9.26 3 29 3 29"/><path fill="none" stroke="#000000" stroke-width="2" stroke-linecap="round" stroke-linejoin="round" d="M 88 59 c 0.07 0.02 3.77 0.25 4 1 c 0.49 1.65 -2.11 8.79 -1 9 c 2.21 0.41 12 -4.81 17 -6 c 1.14 -0.27 3.36 0.2 4 1 c 1.53 1.91 3.17 5.96 4 9 c 1.11 4.07 1.73 8.59 2 13 c 0.74 12.08 1.76 31.96 1 36 c -0.17 0.9 -5.3 -2.3 -7 -4 c -2.28 -2.28 -4.47 -5.95 -6 -9 c -1.03 -2.05 -1.65 -4.7 -2 -7 c -0.29 -1.89 -0.41 -4.22 0 -6 c 0.52 -2.26 1.48 -5.3 3 -7 c 3.68 -4.11 13.43 -11.75 14 -12 c 0.29 -0.13 -3.12 5.49 -5 8 c -2.12 2.82 -7.65 7.35 -7 8 c 0.86 0.86 12.29 -1.85 14 -1 c 0.89 0.44 -0.82 5.13 -2 7 c -2.53 4.01 -6.41 8.09 -10 12 c -3.9 4.25 -7.64 8.37 -12 12 c -7.7 6.42 -25.38 16.35 -24 18 c 1.79 2.15 25.71 0.26 39 0 c 4.1 -0.08 8.06 -0.34 12 -1 c 4.05 -0.68 8.05 -1.74 12 -3 c 3.44 -1.09 7.15 -2.14 10 -4 l 16 -13"/><path fill="none" stroke="#000000" stroke-width="2" stroke-linecap="round" stroke-linejoin="round" d="M 126 106 c 0.79 -1 29.78 -37.28 45 -57 c 3.31 -4.29 6.23 -8.44 9 -13 c 2.97 -4.9 8.1 -14.21 8 -15 c -0.07 -0.53 -6.26 4.41 -9 7 c -3.57 3.38 -7.14 7.02 -10 11 c -4.75 6.61 -9.37 14.25 -13 21 c -0.75 1.39 -1.53 3.95 -1 5 c 0.8 1.61 3.86 4.05 6 5 c 3.39 1.51 9.58 1.23 12 3 c 1.67 1.22 2.88 5.51 3 8 c 0.18 3.54 -0.55 8.48 -2 12 c -2.98 7.25 -9.12 14.91 -12 22 c -1.16 2.84 -1.21 7.12 -1 10 c 0.09 1.28 1.13 2.84 2 4 c 3.04 4.05 6.26 8.51 10 12 c 6.13 5.72 13.02 10.86 20 16 c 4.54 3.34 9.12 6.83 14 9 c 6.77 3.01 14.68 5.17 22 7 c 3.19 0.8 6.66 1 10 1 c 6 0 12.58 -0.1 18 -1 c 2.02 -0.34 4.2 -1.73 6 -3 c 6.1 -4.32 12.54 -9.36 18 -14 c 0.86 -0.73 1.62 -1.94 2 -3 l 2 -8"/><path fill="none" stroke="#000000" stroke-width="2" stroke-linecap="round" stroke-linejoin="round" d="M 217 59 c 0.05 -0.05 1.93 -2.71 3 -3 c 2.03 -0.55 5.76 -0.41 8 0 c 1.01 0.18 2.33 1.19 3 2 c 0.84 1 1.8 2.68 2 4 c 0.41 2.65 0.41 6.12 0 9 c -0.56 3.95 -1.38 8.41 -3 12 c -2.88 6.38 -11.55 15.28 -11 19 c 0.43 2.88 9.84 5.62 15 8 c 3.55 1.64 9.82 2.82 11 4 c 0.5 0.5 -1.76 3.15 -3 4 c -3.67 2.52 -8.55 4.98 -13 7 c -2.86 1.3 -5.96 2.24 -9 3 l -7 1"/></svg>