<?xml version="1.0" encoding="UTF-8" standalone="no"?><!DOCTYPE svg PUBLIC "-//W3C//DTD SVG 1.1//EN" "http://www.w3.org/Graphics/SVG/1.1/DTD/svg11.dtd"><svg xmlns="http://www.w3.org/2000/svg" version="1.1" width="292" height="179"><path fill="none" stroke="#000000" stroke-width="2" stroke-linecap="round" stroke-linejoin="round" d="M 1 41 c 0.56 -0.09 21.44 -2.63 32 -5 c 8.87 -1.99 26 -8 26 -8"/><path fill="none" stroke="#000000" stroke-width="2" stroke-linecap="round" stroke-linejoin="round" d="M 44 1 c 0.07 0.7 3.4 26.56 4 40 c 0.4 9.04 -0.33 17.78 -1 27 c -0.7 9.61 -3 28 -3 28"/><path fill="none" stroke="#000000" stroke-width="2" stroke-linecap="round" stroke-linejoin="round" d="M 30 53 c -0.16 0.28 -10.67 15.2 -9 16 c 2.94 1.41 21.99 -3.92 32 -5 c 1.58 -0.17 5.06 0.31 5 1 c -0.14 1.59 -3.69 6.88 -6 10 c -4.37 5.9 -12.67 14.2 -14 17 c -0.32 0.68 3.61 1.13 5 2 c 1.1 0.69 2.85 1.94 3 3 c 0.39 2.76 -1.15 7.44 -1 11 c 0.18 4.24 0.49 9.65 2 13 c 1.14 2.52 4.44 4.89 7 7 c 6.83 5.61 15.63 10.63 21 16 c 1.74 1.74 3.61 6 3 8 c -1.28 4.22 -6.12 11.28 -10 15 c -3.47 3.33 -9.26 5.99 -14 8 c -3.64 1.54 -8.18 2.64 -12 3 c -2.8 0.27 -6.25 -0.23 -9 -1 c -3 -0.83 -7.37 -2.1 -9 -4 c -1.73 -2.01 -3.13 -7.03 -3 -10 c 0.17 -3.86 2.04 -9.24 4 -13 c 2.16 -4.15 5.45 -9.04 9 -12 c 5.85 -4.88 13.78 -9.64 21 -13 c 6.75 -3.14 14.59 -5.58 22 -7 c 9.68 -1.86 30 -3 30 -3"/><path fill="none" stroke="#000000" stroke-width="2" stroke-linecap="round" stroke-linejoin="round" d="M 146 63 c 0.21 -0.03 8.04 -0.93 12 -2 c 24.72 -6.69 73 -21 73 -21"/><path fill="none" stroke="#000000" stroke-width="2" stroke-linecap="round" stroke-linejoin="round" d="M 177 29 c 0.04 0.25 0.95 9.45 2 14 c 0.94 4.07 4 12 4 12"/><path fill="none" stroke="#000000" stroke-width="2" stroke-linecap="round" stroke-linejoin="round" d="M 207 21 c -0.03 0.21 -0.57 8.42 -2 12 c -3.68 9.21 -12.46 23.54 -14 28 c -0.2 0.59 4 1 4 1"/><path fill="none" stroke="#000000" stroke-width="2" stroke-linecap="round" stroke-linejoin="round" d="M 184 75 c -0.03 0.12 -1.75 4.65 -2 7 c -0.73 6.78 -1.17 14 -1 21 c 0.16 6.36 2.22 13.53 2 19 c -0.08 1.92 -1.7 5.22 -3 6 c -1.36 0.82 -7 0 -7 0"/><path fill="none" stroke="#000000" stroke-width="2" stroke-linecap="round" stroke-linejoin="round" d="M 146 121 c 0.11 -0.19 3.74 -8.55 6 -11 c 1.14 -1.24 4.43 -2 6 -2 c 0.9 0 2.15 2.17 3 2 c 3.07 -0.61 8.27 -2.93 12 -5 c 5.18 -2.88 10.14 -7.18 15 -10 c 1.11 -0.64 2.95 -1.15 4 -1 c 0.92 0.13 2.48 1.13 3 2 c 1.23 2.05 2.44 5.41 3 8 c 0.39 1.82 -0.41 6.08 0 6 c 0.58 -0.12 4.26 -6.63 5 -7 c 0.36 -0.18 1 2.7 1 4 c 0 4.42 -1.99 11.19 -1 14 l 7 3"/><path fill="none" stroke="#000000" stroke-width="2" stroke-linecap="round" stroke-linejoin="round" d="M 228 91 c 0.11 0.47 2.99 19.19 6 27 c 1.63 4.24 5.81 9.01 9 12 c 1.62 1.52 4.65 2.37 7 3 c 2.48 0.66 5.55 1.16 8 1 c 2.22 -0.15 7 -2 7 -2"/><path fill="none" stroke="#000000" stroke-width="2" stroke-linecap="round" stroke-linejoin="round" d="M 250 98 l -17 26"/><path fill="none" stroke="#000000" stroke-width="2" stroke-linecap="round" stroke-linejoin="round" d="M 165 140 c -0.1 0.18 -7.15 9.43 -6 10 c 2.37 1.18 16.37 -1.42 24 -1 c 3.93 0.22 7.93 2.22 12 3 c 2.98 0.57 5.9 0.82 9 1 c 14.4 0.85 28.36 2.43 42 2 c 7.26 -0.23 15.01 -3.28 22 -4 c 2.21 -0.23 5.24 0.01 7 1 c 2.99 1.68 6.28 5.11 9 8 c 2.58 2.74 7 9 7 9"/></svg>