<?xml version="1.0" encoding="UTF-8" standalone="no"?><!DOCTYPE svg PUBLIC "-//W3C//DTD SVG 1.1//EN" "http://www.w3.org/Graphics/SVG/1.1/DTD/svg11.dtd"><svg xmlns="http://www.w3.org/2000/svg" version="1.1" width="311" height="195"><path fill="none" stroke="#000000" stroke-width="2" stroke-linecap="round" stroke-linejoin="round" d="M 43 1 c 0.07 0.49 3.56 19.04 4 28 c 0.2 4.17 -0.46 11 -2 13 c -0.94 1.22 -5.44 0.32 -8 0 c -2.64 -0.33 -5.37 -1.6 -8 -2 c -1.59 -0.25 -3.62 -0.34 -5 0 c -1 0.25 -2.49 1.08 -3 2 c -3.91 7.04 -8.86 16.57 -12 25 c -2.09 5.61 -4.88 18.53 -4 18 c 2.11 -1.26 18.81 -22.36 29 -33 c 4.93 -5.15 10.36 -10.24 16 -14 c 4.99 -3.32 11.25 -5.96 17 -8 c 4.38 -1.55 9.47 -2.65 14 -3 c 3.81 -0.29 8.32 0.08 12 1 c 3.98 0.99 8.79 3.17 12 5 c 0.89 0.51 2.33 2.41 2 3 l -7 6"/><path fill="none" stroke="#000000" stroke-width="2" stroke-linecap="round" stroke-linejoin="round" d="M 42 57 c -0.07 0.05 -2.85 1.85 -4 3 c -2.12 2.12 -4.13 4.5 -6 7 c -3.21 4.28 -6.39 8.37 -9 13 c -7.83 13.89 -21.12 38.82 -22 42 c -0.25 0.9 7.94 -4.38 12 -6 c 2.49 -1 5.69 -2 8 -2 c 1.51 0 4.05 0.88 5 2 c 2.21 2.61 5.14 7.21 6 11 c 2.91 12.83 4.51 27.71 6 42 c 0.88 8.43 1 25 1 25"/><path fill="none" stroke="#000000" stroke-width="2" stroke-linecap="round" stroke-linejoin="round" d="M 70 71 c -0.04 0.25 -0.73 9.62 -2 14 c -1.65 5.69 -8.17 15.59 -7 17 c 1.13 1.36 11.29 -3.68 17 -5 c 2.92 -0.67 6.09 -1 9 -1 c 2.28 0 5.85 -0.3 7 1 c 3.13 3.52 6.44 11.16 9 17 c 2.1 4.8 3.58 9.85 5 15 c 1.29 4.66 2.27 9.25 3 14 c 0.61 4 0.76 7.9 1 12 c 0.1 1.7 0.73 4.27 0 5 c -1.06 1.06 -4.92 2.12 -7 2 c -2.99 -0.18 -7.51 -1.3 -10 -3 c -3.21 -2.2 -6.53 -6.63 -9 -10 c -0.99 -1.35 -1.75 -3.36 -2 -5 c -0.37 -2.43 -0.5 -5.67 0 -8 c 0.42 -1.96 1.77 -4.22 3 -6 c 1.69 -2.45 4.35 -7.1 6 -7 c 2.28 0.14 8.07 5.1 10 8 c 1.54 2.31 2.46 7.12 2 10 c -0.73 4.56 -3.16 10.86 -6 15 c -4.73 6.9 -11.75 14.2 -18 20 c -2.71 2.51 -10.32 5.26 -10 6 c 0.35 0.82 8.69 1.13 13 1 c 6.64 -0.2 13.58 -0.36 20 -2 c 28.6 -7.29 86 -25 86 -25"/><path fill="none" stroke="#000000" stroke-width="2" stroke-linecap="round" stroke-linejoin="round" d="M 161 125 c 0.03 -0.1 1.08 -4.1 2 -6 c 7.45 -15.49 23 -46 23 -46"/><path fill="none" stroke="#000000" stroke-width="2" stroke-linecap="round" stroke-linejoin="round" d="M 201 5 c -0.23 0.46 -8.98 17.01 -13 26 c -3.11 6.95 -5.69 13.75 -8 21 c -2.77 8.69 -5.26 17.54 -7 26 c -0.52 2.51 -0.66 6.01 0 8 c 0.47 1.41 2.5 3.59 4 4 c 4.8 1.31 12.17 1.03 18 2 c 2.04 0.34 5.14 0.72 6 2 c 1.84 2.76 3.87 8.96 4 13 c 0.17 5.13 -1.17 11.71 -3 17 c -4.04 11.67 -13.43 26.58 -15 35 c -0.44 2.35 4.35 6.78 7 8 c 4.31 1.97 11.31 2.51 17 3 c 5.93 0.51 11.9 -0.31 18 0 c 7.15 0.37 13.82 1.1 21 2 c 6.55 0.82 12.6 1.62 19 3 c 10.97 2.37 21.55 5.96 32 8 l 9 0"/><path fill="none" stroke="#000000" stroke-width="2" stroke-linecap="round" stroke-linejoin="round" d="M 225 50 c 0.39 0.12 15.69 4.33 22 7 c 1.55 0.65 2.93 2.58 4 4 c 0.84 1.12 1.89 2.74 2 4 c 0.18 1.99 -0.26 4.91 -1 7 c -1.17 3.31 -2.98 6.97 -5 10 c -2.56 3.85 -8.86 8.58 -9 11 c -0.1 1.7 5.11 4.94 8 6 c 9.89 3.62 25.83 5.21 33 9 c 2.19 1.16 3.13 7.03 3 10 c -0.17 3.86 -1.68 10.03 -4 13 c -2.94 3.76 -9.16 7.58 -14 10 c -4.72 2.36 -11.1 4.67 -16 5 c -4.18 0.28 -10.3 -1.24 -14 -3 l -7 -7"/></svg>