<?xml version="1.0" encoding="UTF-8" standalone="no"?><!DOCTYPE svg PUBLIC "-//W3C//DTD SVG 1.1//EN" "http://www.w3.org/Graphics/SVG/1.1/DTD/svg11.dtd"><svg xmlns="http://www.w3.org/2000/svg" version="1.1" width="295" height="174"><path fill="none" stroke="#000000" stroke-width="2" stroke-linecap="round" stroke-linejoin="round" d="M 65 6 c 0 -0.09 0 -5 0 -5 c 0 0 0.25 3.41 0 5 c -0.4 2.63 -0.95 6.42 -2 8 c -0.53 0.79 -2.67 0.92 -4 1 c -4.19 0.25 -8.75 0.37 -13 0 c -3.33 -0.29 -6.94 -1.78 -10 -2 c -1.24 -0.09 -2.91 0.4 -4 1 c -1.69 0.94 -3.89 2.38 -5 4 c -3.56 5.22 -7.17 11.91 -10 18 c -1.43 3.09 -2.35 6.6 -3 10 c -1.01 5.25 -3.53 16.48 -2 16 c 5.58 -1.74 33.05 -21.69 50 -31 c 6.47 -3.56 13.82 -5.73 21 -8 c 5.58 -1.76 11.12 -2.74 17 -4 c 3.76 -0.81 7.42 -1.84 11 -2 c 3.86 -0.17 12.17 0.01 12 1 c -0.24 1.47 -8.99 8.66 -14 11 c -9.17 4.28 -20.43 6.33 -31 10 c -6.27 2.17 -12.34 4.17 -18 7 c -4.88 2.44 -9.54 5.66 -14 9 c -4.94 3.7 -9.66 7.66 -14 12 c -4.34 4.34 -8.37 9.04 -12 14 c -3.72 5.07 -6.82 10.44 -10 16 c -2.26 3.95 -4.03 7.84 -6 12 c -1.12 2.36 -3.47 7 -3 7 c 0.75 0 6.61 -4.96 10 -7 c 1.5 -0.9 3.43 -1.87 5 -2 c 2.06 -0.17 5.56 -0.17 7 1 c 3.06 2.48 6.61 7.75 9 12 c 3.5 6.22 6.79 13.12 9 20 c 3.42 10.65 7.32 32.17 8 33 c 0.44 0.54 0.35 -14.51 1 -22 c 0.71 -8.22 1.64 -15.87 3 -24 c 1.37 -8.25 2.77 -16.12 5 -24 c 2.13 -7.52 5 -14.58 8 -22 c 2.81 -6.95 5.58 -13.54 9 -20 c 2.6 -4.9 5.71 -9.55 9 -14 c 2.38 -3.22 5.88 -7.76 8 -9 c 0.79 -0.46 3.37 1.01 4 2 c 1.34 2.1 2.85 6.26 3 9 c 0.15 2.67 -0.94 6.27 -2 9 c -1.19 3.05 -4.85 7.51 -5 9 c -0.06 0.6 2.96 0.41 4 1 c 1.07 0.61 2.2 1.87 3 3 c 3.13 4.43 7.1 9.12 9 14 c 3.19 8.17 5.19 17.97 7 27 c 0.84 4.22 1.4 10 1 13 c -0.11 0.83 -2.4 2.3 -3 2 c -1.31 -0.65 -3.61 -3.85 -5 -6 c -2.23 -3.45 -4.52 -7.29 -6 -11 c -1.09 -2.73 -2 -6.2 -2 -9 c 0 -3.1 1.84 -9.84 2 -10 c 0.12 -0.12 -0.67 6.15 0 8 c 0.42 1.16 2.63 2.32 4 3 c 1.13 0.56 3.08 0.39 4 1 c 0.8 0.54 1.65 1.94 2 3 c 0.9 2.7 2 6.18 2 9 c 0 3.42 -0.84 7.69 -2 11 c -1.07 3.05 -2.82 6.52 -5 9 c -9.75 11.06 -27.46 27.52 -32 33 c -0.36 0.43 1.96 1.83 3 2 c 4.33 0.72 10.15 1.3 15 1 c 5.57 -0.35 11.4 -1.44 17 -3 c 24.75 -6.87 48.63 -13.88 73 -22 c 8.02 -2.67 15.81 -6.41 23 -10 l 5 -4"/><path fill="none" stroke="#000000" stroke-width="2" stroke-linecap="round" stroke-linejoin="round" d="M 146 115 c 0.33 -0.65 12.78 -24.15 19 -37 c 4.08 -8.44 7.23 -16.27 11 -25 c 2.85 -6.59 5.65 -12.44 8 -19 c 2.39 -6.64 5.92 -18.85 6 -20 c 0.03 -0.39 -3.82 3.07 -5 5 c -9.43 15.43 -19.4 32.61 -28 49 c -1.93 3.67 -4.69 9.4 -4 12 c 0.62 2.35 5.82 5.03 9 7 c 3.74 2.32 7.9 4.4 12 6 c 3.48 1.36 7.47 1.76 11 3 c 2.07 0.73 4.63 1.63 6 3 c 1.93 1.93 4.23 5.4 5 8 c 0.73 2.48 0.93 6.43 0 9 c -4.29 11.87 -11.59 25.19 -17 38 c -0.95 2.24 -2 4.94 -2 7 c 0 1.79 0.79 5.01 2 6 c 1.81 1.48 6.13 3.13 9 3 c 17.63 -0.79 38.69 -5.44 58 -6 c 15.26 -0.44 46 3 46 3"/><path fill="none" stroke="#000000" stroke-width="2" stroke-linecap="round" stroke-linejoin="round" d="M 294 147 l 1 1"/><path fill="none" stroke="#000000" stroke-width="2" stroke-linecap="round" stroke-linejoin="round" d="M 211 39 c 0.09 0.03 3.87 1.02 5 2 c 1.22 1.07 2.3 3.26 3 5 c 1.25 3.12 2.74 6.77 3 10 c 0.37 4.65 -0.29 10.06 -1 15 c -0.63 4.39 -1.65 8.79 -3 13 c -1.31 4.1 -5.16 9.16 -5 12 c 0.1 1.85 3.81 4.63 6 6 c 2.78 1.74 6.8 2.4 10 4 c 3.46 1.73 8.24 3.89 10 6 c 0.9 1.08 0.58 4.54 0 6 c -0.55 1.38 -2.53 3.27 -4 4 c -2.14 1.07 -5.57 1.8 -8 2 l -4 -1"/></svg>