<?xml version="1.0" encoding="UTF-8" standalone="no"?><!DOCTYPE svg PUBLIC "-//W3C//DTD SVG 1.1//EN" "http://www.w3.org/Graphics/SVG/1.1/DTD/svg11.dtd"><svg xmlns="http://www.w3.org/2000/svg" version="1.1" width="289" height="178"><path fill="none" stroke="#000000" stroke-width="2" stroke-linecap="round" stroke-linejoin="round" d="M 203 57 l 1 1"/><path fill="none" stroke="#000000" stroke-width="2" stroke-linecap="round" stroke-linejoin="round" d="M 70 1 c 0.04 0.18 1.63 6.68 2 10 c 0.29 2.61 0.17 5.32 0 8 c -0.17 2.7 -0.39 5.56 -1 8 c -0.34 1.35 -2 4 -2 4"/><path fill="none" stroke="#000000" stroke-width="2" stroke-linecap="round" stroke-linejoin="round" d="M 20 32 c 0.05 0.3 1.48 13.59 3 17 c 0.45 1.01 3.77 1.6 5 1 c 8.98 -4.37 20.91 -12.93 32 -19 c 6.93 -3.79 13.75 -6.95 21 -10 c 5.62 -2.37 11.25 -4.42 17 -6 c 3.88 -1.07 8.08 -1.84 12 -2 c 3.88 -0.16 11.24 0.12 12 1 c 0.53 0.62 -3.79 4.37 -6 6 c -3.98 2.93 -8.54 6.09 -13 8 c -4.53 1.94 -9.82 2.89 -15 4 c -9.17 1.96 -18.6 2.54 -27 5 c -4.79 1.4 -9.71 4.26 -14 7 c -3.89 2.49 -7.57 5.71 -11 9 c -4.28 4.09 -8.24 8.39 -12 13 c -3.65 4.48 -6.85 9.07 -10 14 c -4.68 7.33 -13 20.09 -13 22 c 0 1.04 8.76 -3.07 13 -5 c 3.13 -1.42 5.94 -3.66 9 -5 c 2.16 -0.95 4.82 -1.83 7 -2 c 1.82 -0.14 4.62 0.08 6 1 c 2.09 1.39 4.76 4.43 6 7 c 3.15 6.53 6.88 14.62 8 22 c 2.74 18.02 4 57 4 57"/><path fill="none" stroke="#000000" stroke-width="2" stroke-linecap="round" stroke-linejoin="round" d="M 80 42 c 0.07 0.12 2.97 4.61 4 7 c 0.93 2.16 2 4.82 2 7 c 0 3.34 -3.16 10.77 -2 11 c 1.95 0.39 11.43 -5.91 17 -8 c 2.1 -0.79 5.22 -1.44 7 -1 c 1.61 0.4 4.15 2.38 5 4 c 2.11 4 4.21 9.95 5 15 c 1.81 11.54 2.32 23.71 3 36 c 0.34 6.12 0.78 16.19 0 18 c -0.31 0.73 -4.62 -2.32 -6 -4 c -2.93 -3.56 -5.81 -8.47 -8 -13 c -2.77 -5.73 -5.72 -12.45 -7 -18 c -0.53 -2.32 -0.05 -6.03 1 -8 c 1.29 -2.41 4.68 -5.31 7 -7 c 0.97 -0.7 4 -1.4 4 -1 c 0 0.86 -4.28 6.76 -4 8 c 0.19 0.84 4.71 0.1 6 1 c 1.53 1.07 3.27 3.93 4 6 c 1.13 3.21 2.17 7.76 2 11 c -0.13 2.47 -1.79 5.42 -3 8 c -1.46 3.11 -2.91 6.54 -5 9 c -3.31 3.9 -7.68 7.67 -12 11 c -7.43 5.73 -20.82 13.82 -23 16 c -0.42 0.42 3.32 1.79 5 2 c 5.92 0.74 12.77 1.54 19 1 c 16.53 -1.44 33.37 -3.9 50 -7 c 8.55 -1.6 17.18 -3.95 25 -7 l 16 -9"/><path fill="none" stroke="#000000" stroke-width="2" stroke-linecap="round" stroke-linejoin="round" d="M 146 100 c 0.39 -0.4 15.1 -14.78 22 -23 c 8.97 -10.69 16.91 -21.58 25 -33 c 3.42 -4.82 6.3 -9.76 9 -15 c 3.38 -6.57 9.1 -18.69 9 -20 c -0.06 -0.73 -7.3 4.3 -10 7 c -3.01 3.01 -5.51 7.16 -8 11 c -1.89 2.9 -3.57 5.93 -5 9 c -0.88 1.89 -2.45 4.64 -2 6 c 0.61 1.82 3.82 4.77 6 6 c 2.68 1.51 9.14 1.09 10 3 c 1.4 3.12 -0.25 11.33 -1 17 c -0.94 7.11 -3.8 14.6 -4 21 c -0.11 3.41 1.57 7.65 3 11 c 1.47 3.42 4.74 6.86 6 10 c 0.54 1.35 0.39 3.56 0 5 c -0.53 1.93 -1.63 4.44 -3 6 c -3.33 3.78 -7.6 7.92 -12 11 c -12.15 8.51 -35.89 22.13 -38 24 c -0.52 0.46 7.4 0.4 11 0 c 5.33 -0.59 10.48 -2.21 16 -3 c 11.28 -1.61 21.84 -3.27 33 -4 c 9.4 -0.62 18.62 -0.55 28 0 c 7.77 0.46 15.29 1.68 23 3 c 4.11 0.7 7.92 2.18 12 3 c 2.66 0.53 5.51 1 8 1 l 4 -1"/><path fill="none" stroke="#000000" stroke-width="2" stroke-linecap="round" stroke-linejoin="round" d="M 228 14 c 0.3 -0.02 11.85 -1.41 17 -1 c 2.58 0.21 5.8 1.65 8 3 c 1.82 1.12 3.88 3.18 5 5 c 1.35 2.2 2.77 5.43 3 8 c 0.38 4.22 -0.01 9.62 -1 14 c -1.27 5.63 -3.49 11.65 -6 17 c -2.43 5.19 -5.61 10.37 -9 15 c -2.88 3.94 -6.37 7.69 -10 11 c -4 3.65 -13.27 10.11 -13 10 c 0.35 -0.14 11.84 -9.25 18 -12 c 5.87 -2.62 13.54 -4.26 20 -5 c 4.71 -0.54 10.2 0.14 15 1 c 4.34 0.78 10.67 2.39 13 4 c 0.86 0.59 0.75 3.96 0 5 c -2.01 2.81 -6.41 6.93 -10 9 c -4.56 2.63 -10.53 4.44 -16 6 c -6.22 1.78 -19 4 -19 4"/></svg>