<?xml version="1.0" encoding="UTF-8" standalone="no"?><!DOCTYPE svg PUBLIC "-//W3C//DTD SVG 1.1//EN" "http://www.w3.org/Graphics/SVG/1.1/DTD/svg11.dtd"><svg xmlns="http://www.w3.org/2000/svg" version="1.1" width="106" height="122"><path fill="none" stroke="#000000" stroke-width="2" stroke-linecap="round" stroke-linejoin="round" d="M 12 7 c 0.33 -0.1 12.87 -4.58 19 -6 c 2.15 -0.5 5.03 -0.49 7 0 c 1.64 0.41 4.01 1.69 5 3 c 1.67 2.22 3.14 5.93 4 9 c 1.42 5.08 2.85 10.84 3 16 c 0.17 5.74 -0.99 11.96 -2 18 c -1.02 6.15 -2.46 11.83 -4 18 c -1.91 7.63 -3.8 14.85 -6 22 c -0.43 1.4 -1.04 3.52 -2 4 c -1.73 0.87 -5.92 1.55 -8 1 c -2.22 -0.59 -4.96 -3.12 -7 -5 c -2.19 -2.02 -4.42 -4.55 -6 -7 c -1.3 -2.03 -3 -4.95 -3 -7 c 0 -2.55 1.4 -6.96 3 -9 c 1.59 -2.03 5.24 -3.84 8 -5 c 3.34 -1.4 7.27 -2.22 11 -3 c 2.64 -0.56 5.64 -1.18 8 -1 c 1.58 0.12 4.01 1.01 5 2 c 0.99 0.99 1.77 3.36 2 5 c 0.39 2.74 0.76 6.46 0 9 c -1.06 3.53 -3.7 7.63 -6 11 c -1.95 2.86 -4.4 5.83 -7 8 c -3.19 2.66 -7.2 5.1 -11 7 c -3.41 1.7 -7.34 3.24 -11 4 c -4.08 0.85 -13.23 0.99 -13 1 c 0.89 0.05 33.77 0.08 51 1 c 8.17 0.44 16.27 1.23 24 3 c 8.09 1.85 16.6 5.09 24 8 c 1.46 0.57 3.2 1.89 4 3 l 1 4"/></svg>