<?xml version="1.0" encoding="UTF-8" standalone="no"?><!DOCTYPE svg PUBLIC "-//W3C//DTD SVG 1.1//EN" "http://www.w3.org/Graphics/SVG/1.1/DTD/svg11.dtd"><svg xmlns="http://www.w3.org/2000/svg" version="1.1" width="71" height="130"><path fill="none" stroke="#000000" stroke-width="2" stroke-linecap="round" stroke-linejoin="round" d="M 17 9 c 0.16 -0.09 5.92 -3.97 9 -5 c 4.58 -1.53 10.53 -3.17 15 -3 c 3.69 0.14 9.28 1.85 12 4 c 2.8 2.21 6.32 7.39 7 11 c 1.09 5.82 0.59 14.63 -1 21 c -2.21 8.83 -6.81 18.22 -11 27 c -2.84 5.94 -6.42 11.52 -10 17 c -1.42 2.17 -3.18 5.46 -5 6 c -2.81 0.83 -8.64 0.12 -12 -1 c -3.01 -1 -6.64 -3.64 -9 -6 c -2.66 -2.66 -5.78 -7.14 -7 -10 c -0.41 -0.97 0.23 -3.16 1 -4 c 2.4 -2.62 6.43 -6.15 10 -8 c 5.65 -2.92 12.87 -5.57 19 -7 c 3.33 -0.78 7.87 -0.59 11 0 c 1.66 0.31 4.43 1.75 5 3 c 0.78 1.71 0.71 5.68 0 8 c -1.76 5.71 -4.76 12.4 -8 18 c -4.02 6.94 -8.78 13.71 -14 20 c -7.87 9.48 -16.73 18.43 -25 27 c -0.81 0.84 -3.13 2.02 -3 2 c 0.71 -0.13 12.72 -2.82 19 -5 c 17.09 -5.94 50 -19 50 -19"/></svg>