<?xml version="1.0" encoding="UTF-8" standalone="no"?><!DOCTYPE svg PUBLIC "-//W3C//DTD SVG 1.1//EN" "http://www.w3.org/Graphics/SVG/1.1/DTD/svg11.dtd"><svg xmlns="http://www.w3.org/2000/svg" version="1.1" width="99" height="155"><path fill="none" stroke="#000000" stroke-width="2" stroke-linecap="round" stroke-linejoin="round" d="M 1 25 c 0.23 -0.18 8.37 -7.5 13 -10 c 7.34 -3.97 15.9 -7.64 24 -10 c 7.58 -2.21 16.8 -4 24 -4 c 3.74 0 9.41 1.84 12 4 c 2.57 2.14 5.41 7.36 6 11 c 1.23 7.55 1.4 17.9 0 26 c -1.8 10.45 -6.03 21.31 -10 32 c -5.9 15.87 -12.35 30.67 -19 46 c -1.08 2.48 -2.52 5.1 -4 7 c -0.66 0.85 -1.99 1.82 -3 2 c -2.24 0.41 -5.85 0.79 -8 0 c -3.51 -1.29 -7.82 -4.32 -11 -7 c -2.94 -2.48 -5.77 -5.85 -8 -9 c -1.65 -2.34 -3.5 -5.52 -4 -8 c -0.39 -1.96 0.07 -5.27 1 -7 c 1.12 -2.08 3.74 -4.63 6 -6 c 5 -3.04 11.34 -6.23 17 -8 c 4.56 -1.43 10.38 -2.18 15 -2 c 3.48 0.13 8.2 1.42 11 3 c 1.92 1.08 4.58 3.98 5 6 c 0.71 3.37 0.08 9.02 -1 13 c -1.79 6.57 -4.83 13.67 -8 20 c -2.45 4.89 -5.76 9.47 -9 14 c -1.79 2.51 -3.76 5.01 -6 7 c -3.65 3.25 -12.83 8.95 -12 9 c 2.62 0.15 30.99 -5.06 47 -7 l 19 -1"/></svg>