<?xml version="1.0" encoding="UTF-8" standalone="no"?><!DOCTYPE svg PUBLIC "-//W3C//DTD SVG 1.1//EN" "http://www.w3.org/Graphics/SVG/1.1/DTD/svg11.dtd"><svg xmlns="http://www.w3.org/2000/svg" version="1.1" width="159" height="180"><path fill="none" stroke="#000000" stroke-width="2" stroke-linecap="round" stroke-linejoin="round" d="M 10 4 c 0.21 -0.05 8.03 -2.6 12 -3 c 5.78 -0.58 13.64 -0.83 18 0 c 1.21 0.23 2.82 2.67 3 4 c 0.39 2.94 0.83 8.67 -1 11 c -6.33 8.07 -18.68 16.92 -28 26 c -3.63 3.53 -6.93 7.22 -10 11 c -1.21 1.48 -2.51 3.38 -3 5 c -0.42 1.39 -0.82 4.59 0 5 c 1.98 0.99 8.23 0.18 12 1 c 3.66 0.8 8.49 1.84 11 4 c 3.7 3.17 8.02 9.18 10 14 c 2.35 5.71 3.42 13.34 4 20 c 0.74 8.5 0.77 17.36 0 26 c -1.23 13.78 -3.6 27.38 -6 41 c -0.61 3.43 -2.93 10.33 -3 10 c -0.16 -0.76 -0.39 -15.81 0 -24 c 0.64 -13.34 1.73 -25.53 3 -39 c 1.15 -12.13 2.44 -23.03 4 -35 c 0.5 -3.8 0.97 -7.69 2 -11 c 0.54 -1.72 1.67 -4.08 3 -5 c 2.46 -1.7 6.69 -3.78 10 -4 c 15.35 -1.02 33.2 -0.29 50 0 c 2.71 0.05 6.57 -0.17 8 1 c 1.51 1.24 4.27 6.89 3 8 c -7.55 6.6 -28.33 18.55 -43 27 c -5.05 2.91 -10.73 5.68 -16 7 c -4.84 1.21 -15.32 2.36 -16 1 c -0.7 -1.39 6.16 -10.15 10 -13 c 4.31 -3.19 11.11 -4.87 17 -7 c 6.38 -2.3 12.78 -5.02 19 -6 c 5.93 -0.94 15.78 -0.85 19 0 c 0.85 0.22 0.67 3.76 0 5 c -2.81 5.14 -7.4 12.25 -12 17 c -5.36 5.53 -12.38 10.24 -19 15 c -4.18 3 -13.21 8.17 -13 8 c 1.03 -0.81 40.07 -29.33 60 -45 l 15 -14"/><path fill="none" stroke="#000000" stroke-width="2" stroke-linecap="round" stroke-linejoin="round" d="M 80 44 c -0.17 0.35 -8.34 13.72 -10 20 c -1.04 3.94 0.25 9.37 1 14 c 1.26 7.76 2.95 15.18 5 23 c 5.16 19.66 10.44 38.87 16 57 c 0.55 1.79 2.48 3.31 3 5 c 0.72 2.34 0.39 5.56 1 8 l 2 4"/><path fill="none" stroke="#000000" stroke-width="2" stroke-linecap="round" stroke-linejoin="round" d="M 109 120 c 0.18 -0.12 6.6 -5.72 10 -7 c 3.94 -1.48 9.29 -1.65 14 -2 c 4.33 -0.32 9.01 -0.57 13 0 c 2.62 0.37 5.77 1.7 8 3 c 1.48 0.86 3.85 2.61 4 4 c 0.39 3.47 0.13 10.8 -2 14 c -3.63 5.45 -11.61 11.09 -18 16 c -6.69 5.15 -20.5 13.29 -21 14 c -0.29 0.41 9.53 -2.19 14 -4 c 7.83 -3.17 23 -11 23 -11"/></svg>