<?xml version="1.0" encoding="UTF-8" standalone="no"?><!DOCTYPE svg PUBLIC "-//W3C//DTD SVG 1.1//EN" "http://www.w3.org/Graphics/SVG/1.1/DTD/svg11.dtd"><svg xmlns="http://www.w3.org/2000/svg" version="1.1" width="129" height="193"><path fill="none" stroke="#000000" stroke-width="2" stroke-linecap="round" stroke-linejoin="round" d="M 6 7 l 48 -6"/><path fill="none" stroke="#000000" stroke-width="2" stroke-linecap="round" stroke-linejoin="round" d="M 14 41 c -0.23 0.14 -13.57 7.15 -13 8 c 0.71 1.07 12.73 0.33 19 1 c 3.04 0.33 7.13 0.51 9 2 c 2.36 1.89 5.66 6.64 6 10 c 1.44 14.42 1.29 33.24 0 50 c -2.08 27.02 -10 80 -10 80"/><path fill="none" stroke="#000000" stroke-width="2" stroke-linecap="round" stroke-linejoin="round" d="M 30 63 c 0.23 -0.18 8.35 -7.62 13 -10 c 8.53 -4.37 18.85 -8.61 28 -11 c 5.49 -1.43 12.98 -1.77 18 -1 c 2.63 0.4 6.44 2.92 8 5 c 1.94 2.59 3.4 7.41 4 11 c 0.66 3.99 0.3 8.64 0 13 c -0.37 5.41 -0.31 11.76 -2 16 c -1.27 3.16 -5.04 6.78 -8 9 c -3.3 2.48 -8.12 5.03 -12 6 c -3.47 0.87 -9.1 1.24 -12 0 c -3.07 -1.32 -6.52 -5.75 -9 -9 c -2.71 -3.55 -8.48 -9.9 -7 -12 c 4.05 -5.74 21.06 -16.32 31 -22 c 2.92 -1.67 7.34 -1.57 11 -2 c 1.97 -0.23 5.31 -0.89 6 0 c 1.04 1.34 2.18 7.11 1 9 c -2.87 4.59 -10.33 10.09 -16 15 c -6.99 6.04 -14.55 11.39 -21 17 c -0.86 0.75 -2.09 3.07 -2 3 c 0.62 -0.48 12.9 -10.29 19 -16 c 4.69 -4.39 8.91 -9.09 13 -14 c 2.62 -3.14 6.07 -6.61 7 -10 c 1.46 -5.28 2.23 -14.77 1 -19 c -0.61 -2.1 -5.35 -3.86 -8 -5 c -1.71 -0.73 -3.99 -0.85 -6 -1 c -2.31 -0.18 -4.83 -0.33 -7 0 c -1.96 0.3 -5.28 0.74 -6 2 c -1.38 2.42 -1.82 7.97 -2 12 c -0.49 10.93 -0.49 21.77 0 33 c 0.53 12.3 3 36 3 36"/><path fill="none" stroke="#000000" stroke-width="2" stroke-linecap="round" stroke-linejoin="round" d="M 75 139 c 0.18 -0.32 6.26 -12.6 10 -18 c 2.05 -2.97 5.09 -5.96 8 -8 c 3.45 -2.42 8.02 -5.13 12 -6 c 5.95 -1.3 14.42 -1.24 20 -1 c 1 0.04 2.77 1.16 3 2 c 0.57 2.09 0.71 6.38 0 9 c -1.14 4.17 -3.27 9.73 -6 13 c -3.39 4.07 -14.63 9.95 -14 11 c 0.71 1.18 20 -1 20 -1"/></svg>