<?xml version="1.0" encoding="UTF-8" standalone="no"?><!DOCTYPE svg PUBLIC "-//W3C//DTD SVG 1.1//EN" "http://www.w3.org/Graphics/SVG/1.1/DTD/svg11.dtd"><svg xmlns="http://www.w3.org/2000/svg" version="1.1" width="94" height="115"><path fill="none" stroke="#000000" stroke-width="2" stroke-linecap="round" stroke-linejoin="round" d="M 19 1 l 4 4"/><path fill="none" stroke="#000000" stroke-width="2" stroke-linecap="round" stroke-linejoin="round" d="M 1 19 c 0.58 -0.02 27.4 -1.85 33 -1 c 1.02 0.15 0.49 4.28 0 6 c -0.73 2.57 -3.23 5.23 -4 8 c -2.47 8.88 -5.32 18.68 -6 28 c -1.29 17.58 0 54 0 54"/><path fill="none" stroke="#000000" stroke-width="2" stroke-linecap="round" stroke-linejoin="round" d="M 33 49 c 0.23 -0.21 8.41 -8.11 13 -12 c 4.26 -3.6 8.81 -7.29 13 -10 c 1.05 -0.68 2.95 -1.15 4 -1 c 0.92 0.13 2.48 1.13 3 2 c 1.23 2.05 2.71 5.37 3 8 c 0.65 5.85 0.25 12.7 0 19 c -0.08 2.02 0.03 5.28 -1 6 c -1.53 1.07 -9 1 -9 1"/><path fill="none" stroke="#000000" stroke-width="2" stroke-linecap="round" stroke-linejoin="round" d="M 41 54 c 0.12 -0.09 4.5 -4.08 7 -5 c 6.9 -2.53 15.53 -4.4 23 -6 c 1.57 -0.34 5 0 5 0"/><path fill="none" stroke="#000000" stroke-width="2" stroke-linecap="round" stroke-linejoin="round" d="M 35 62 c 0.09 0.03 3.35 1.91 5 2 c 9.83 0.53 21.15 0.41 32 0 c 7.16 -0.27 21 -2 21 -2"/><path fill="none" stroke="#000000" stroke-width="2" stroke-linecap="round" stroke-linejoin="round" d="M 52 23 c -0.02 0.1 -0.95 3.98 -1 6 c -0.28 10.28 0.27 20.64 0 31 c -0.06 2.36 -1 7 -1 7"/><path fill="none" stroke="#000000" stroke-width="2" stroke-linecap="round" stroke-linejoin="round" d="M 50 74 l 0 10"/><path fill="none" stroke="#000000" stroke-width="2" stroke-linecap="round" stroke-linejoin="round" d="M 51 64 c 0.28 0.16 12.92 5.74 16 9 c 1.52 1.61 1.37 6.77 1 9 c -0.17 1.05 -1.85 2.69 -3 3 c -5.2 1.42 -18.68 2.89 -19 3 c -0.22 0.07 8.7 -0.31 13 -1 c 6.08 -0.98 18 -4 18 -4"/></svg>