<?xml version="1.0" encoding="UTF-8" standalone="no"?><!DOCTYPE svg PUBLIC "-//W3C//DTD SVG 1.1//EN" "http://www.w3.org/Graphics/SVG/1.1/DTD/svg11.dtd"><svg xmlns="http://www.w3.org/2000/svg" version="1.1" width="313" height="166"><path fill="none" stroke="#000000" stroke-width="2" stroke-linecap="round" stroke-linejoin="round" d="M 22 1 c 0.75 0.16 28.72 5.49 43 9 c 4.83 1.19 9.55 2.95 14 5 c 4.15 1.92 8.32 4.33 12 7 c 3.56 2.59 7.09 5.74 10 9 c 2.64 2.95 5.18 6.53 7 10 c 1.74 3.33 3.47 7.4 4 11 c 0.73 4.92 1.56 12.57 0 16 c -1.14 2.5 -6.58 4.6 -10 6 c -3.63 1.49 -7.99 2.74 -12 3 c -16.22 1.05 -34.18 1.74 -50 1 c -4.61 -0.22 -12.16 -6.17 -14 -4 c -7.07 8.34 -25 50 -25 50"/><path fill="none" stroke="#000000" stroke-width="2" stroke-linecap="round" stroke-linejoin="round" d="M 14 115 c 1.07 -0.44 40.75 -17.3 61 -25 c 3.13 -1.19 6.68 -1.61 10 -2 c 2.28 -0.27 5.05 -0.39 7 0 c 1.01 0.2 3.2 1.41 3 2 c -0.67 2 -4.22 7.14 -7 10 c -8.69 8.94 -18.69 16.94 -28 26 c -3.28 3.19 -5.71 6.98 -9 10 c -4.7 4.31 -15.3 12.16 -15 12 c 0.56 -0.3 19.65 -13.7 30 -20 c 5.14 -3.13 10.52 -5.73 16 -8 c 4.17 -1.72 8.65 -3.13 13 -4 c 3.85 -0.77 10.59 -2.41 12 -1 c 1.52 1.52 1.24 9.38 0 13 c -2.39 6.98 -12 22 -12 22"/><path fill="none" stroke="#000000" stroke-width="2" stroke-linecap="round" stroke-linejoin="round" d="M 169 29 c 0 0.09 0.74 3.83 0 5 c -4.66 7.36 -12.14 16.79 -19 25 c -8.82 10.55 -17.56 20.56 -27 30 c -4.17 4.17 -14 10.48 -14 11 c 0 0.44 9.36 -3.68 14 -6 c 10.36 -5.18 20.66 -9.96 30 -16 c 6.44 -4.16 13.12 -10.12 18 -15 c 1.12 -1.12 1.75 -3.36 2 -5 l 0 -8"/><path fill="none" stroke="#000000" stroke-width="2" stroke-linecap="round" stroke-linejoin="round" d="M 135 34 c 0 1.84 -0.31 69.31 0 105 c 0.03 3.75 0.13 7.71 1 11 c 0.7 2.67 3.41 8.44 4 8 c 0.96 -0.72 4 -14 4 -14"/><path fill="none" stroke="#000000" stroke-width="2" stroke-linecap="round" stroke-linejoin="round" d="M 153 108 c 0.05 -0.21 1.78 -11.05 3 -12 c 0.77 -0.6 5.06 2.95 6 5 c 3.79 8.29 6.32 19.95 10 30 c 1.4 3.84 2.95 7.69 5 11 c 2.17 3.51 8 10 8 10"/><path fill="none" stroke="#000000" stroke-width="2" stroke-linecap="round" stroke-linejoin="round" d="M 194 28 c 0.18 0.19 7.09 7.01 10 11 c 6.09 8.34 17 26 17 26"/><path fill="none" stroke="#000000" stroke-width="2" stroke-linecap="round" stroke-linejoin="round" d="M 212 13 c 0.07 -0.12 2.26 -6.29 4 -7 c 2.8 -1.15 8.81 -0.25 13 0 c 1.33 0.08 2.82 0.49 4 1 c 1.03 0.44 2.41 1.17 3 2 c 0.89 1.24 1.77 3.36 2 5 c 0.39 2.74 0.79 6.51 0 9 c -1.02 3.22 -3.69 7.16 -6 10 c -1.83 2.25 -4.52 4.35 -7 6 c -2.4 1.6 -5.33 3.3 -8 4 c -3.29 0.87 -8.75 1.8 -11 1 c -1.37 -0.49 -3 -4.27 -3 -6 c 0 -2.21 1.47 -6.19 3 -8 c 1.69 -2 5.24 -3.77 8 -5 c 3.06 -1.36 6.64 -2.36 10 -3 c 3.55 -0.68 9.29 -1.99 11 -1 c 1.24 0.73 2.22 6.45 1 8 c -5.56 7.06 -17.45 17.25 -27 25 c -8.21 6.66 -17.17 12.65 -26 18 c -3.63 2.2 -12.22 5.07 -12 5 c 0.83 -0.28 30.78 -11.42 47 -17 c 5.75 -1.98 11.38 -3 17 -5 c 4.83 -1.72 13.43 -5.62 14 -6 c 0.19 -0.13 -3.76 -0.62 -5 0 c -2.82 1.41 -6.26 4.37 -9 7 c -6.28 6.05 -13.13 12.38 -18 19 c -3.08 4.19 -5.19 9.74 -7 15 c -8.61 25.01 -22.72 71.73 -24 75 c -0.18 0.46 -1.4 -7.52 -1 -11 c 0.88 -7.72 2.91 -16.01 5 -24 c 1.62 -6.19 3.67 -12 6 -18 c 2.42 -6.23 4.86 -12.5 8 -18 c 2.04 -3.57 5.14 -6.76 8 -10 c 2.21 -2.51 4.5 -4.83 7 -7 c 2.53 -2.19 5.27 -4.32 8 -6 c 1.47 -0.91 3.38 -1.68 5 -2 c 1.51 -0.3 4.54 -0.74 5 0 c 0.74 1.19 0.82 5.84 0 8 c -1.57 4.12 -5.04 8.79 -8 13 c -3.46 4.91 -7.04 9.41 -11 14 c -4.56 5.29 -9.37 10.63 -14 15 c -1.01 0.95 -4.07 2.22 -4 2 c 0.16 -0.49 3.7 -5.85 6 -8 c 2.8 -2.63 6.52 -4.75 10 -7 c 2.3 -1.49 4.66 -2.93 7 -4 c 1.2 -0.55 3.74 -1.62 4 -1 c 0.97 2.26 2.85 10.63 2 15 c -1.57 8.05 -7.53 17.48 -10 26 c -1.07 3.68 -1.94 9.64 -1 12 c 0.6 1.49 5.13 3.31 7 3 c 3.08 -0.51 8.17 -3.43 11 -6 c 4.02 -3.65 8.05 -9.09 11 -14 c 2.89 -4.82 5.59 -10.66 7 -16 c 1.47 -5.54 2.22 -13.47 2 -18 c -0.05 -1.06 -2.02 -2.9 -3 -3 c -1.68 -0.17 -5.94 0.94 -7 2 c -0.73 0.73 -0.44 3.57 0 5 c 0.78 2.55 2.08 7.36 4 8 c 4.3 1.43 13.28 0.24 20 0 l 8 -1"/><path fill="none" stroke="#000000" stroke-width="2" stroke-linecap="round" stroke-linejoin="round" d="M 265 28 c 0.04 0.19 1.06 7.38 2 11 c 1.07 4.09 2.5 8.24 4 12 c 0.43 1.07 1.95 3.23 2 3 c 0.17 -0.84 -0.32 -8.67 0 -13 c 0.35 -4.71 1.04 -9.66 2 -14 c 0.3 -1.37 1.13 -3.27 2 -4 c 0.8 -0.67 2.98 -1.3 4 -1 c 1.78 0.53 5.64 2.35 6 4 c 0.95 4.36 0.78 13.8 -1 19 c -1.82 5.3 -7.06 10.96 -11 16 c -2.01 2.57 -6.46 4.82 -7 7 c -0.52 2.09 2.48 6.07 3 9 c 0.44 2.47 0.54 5.84 0 8 l -3 4"/><path fill="none" stroke="#000000" stroke-width="2" stroke-linecap="round" stroke-linejoin="round" d="M 260 79 c -0.05 -0.16 -2.96 -9.29 -3 -9 c -0.1 0.74 -0.48 16.6 1 24 c 1.38 6.92 4.8 15.46 8 21 c 1.22 2.12 5.24 4.85 7 5 c 1.31 0.11 5 -4 5 -4"/><path fill="none" stroke="#000000" stroke-width="2" stroke-linecap="round" stroke-linejoin="round" d="M 297 34 l 1 1"/><path fill="none" stroke="#000000" stroke-width="2" stroke-linecap="round" stroke-linejoin="round" d="M 273 86 c 0.09 -0.03 3.32 -1.64 5 -2 c 2.83 -0.61 6.21 -0.15 9 -1 c 7.91 -2.4 24 -9 24 -9"/><path fill="none" stroke="#000000" stroke-width="2" stroke-linecap="round" stroke-linejoin="round" d="M 304 54 c -0.02 0.21 -0.34 8.06 -1 12 c -0.68 4.05 -1.53 8.14 -3 12 c -7.22 18.88 -21.92 53.6 -23 56 c -0.09 0.2 0 -5 0 -5"/><path fill="none" stroke="#000000" stroke-width="2" stroke-linecap="round" stroke-linejoin="round" d="M 295 82 c 0.03 0.07 1.82 2.65 2 4 c 0.75 5.74 0.38 12.61 1 19 c 0.4 4.09 1.03 8 2 12 c 2.07 8.53 4.23 16.93 7 25 c 1.19 3.48 5 10 5 10"/><path fill="none" stroke="#000000" stroke-width="2" stroke-linecap="round" stroke-linejoin="round" d="M 297 39 l 1 1"/></svg>