<?xml version="1.0" encoding="UTF-8" standalone="no"?><!DOCTYPE svg PUBLIC "-//W3C//DTD SVG 1.1//EN" "http://www.w3.org/Graphics/SVG/1.1/DTD/svg11.dtd"><svg xmlns="http://www.w3.org/2000/svg" version="1.1" width="259" height="166"><path fill="none" stroke="#000000" stroke-width="2" stroke-linecap="round" stroke-linejoin="round" d="M 31 48 c 0.12 -0.05 4.75 -2.44 7 -3 c 1.48 -0.37 3.38 0.28 5 0 c 15.51 -2.68 31.14 -5.66 47 -9 c 3.46 -0.73 6.58 -2.22 10 -3 c 3.99 -0.91 8.26 -1.07 12 -2 l 4 -2"/><path fill="none" stroke="#000000" stroke-width="2" stroke-linecap="round" stroke-linejoin="round" d="M 42 106 c 0.18 -0.04 6.9 -0.97 10 -2 c 2.72 -0.91 5.19 -2.95 8 -4 c 10.62 -3.98 22.05 -6.92 32 -11 c 2.53 -1.04 7 -5 7 -5"/><path fill="none" stroke="#000000" stroke-width="2" stroke-linecap="round" stroke-linejoin="round" d="M 87 57 c -0.02 0.23 0.03 9 -1 13 c -1.53 5.93 -5.59 11.94 -7 18 c -1.84 7.9 -1.7 16.48 -3 25 c -1.1 7.24 -3.13 14.02 -4 21 c -0.45 3.59 0 11 0 11"/><path fill="none" stroke="#000000" stroke-width="2" stroke-linecap="round" stroke-linejoin="round" d="M 1 160 c 0.35 0.02 13.84 2.11 20 1 c 13.15 -2.37 27.29 -8.36 41 -12 c 2.59 -0.69 5.29 -0.92 8 -1 c 8.06 -0.25 16.43 1.16 24 0 c 9.18 -1.41 28 -8 28 -8"/><path fill="none" stroke="#000000" stroke-width="2" stroke-linecap="round" stroke-linejoin="round" d="M 158 28 c 0.05 0.09 2.25 3.25 3 5 c 1.22 2.84 1.62 6.42 3 9 c 1.13 2.13 5 6 5 6"/><path fill="none" stroke="#000000" stroke-width="2" stroke-linecap="round" stroke-linejoin="round" d="M 146 82 l 1 1"/><path fill="none" stroke="#000000" stroke-width="2" stroke-linecap="round" stroke-linejoin="round" d="M 148 158 c 0.1 -0.26 3.32 -10.5 6 -15 c 5.47 -9.19 19 -27 19 -27"/><path fill="none" stroke="#000000" stroke-width="2" stroke-linecap="round" stroke-linejoin="round" d="M 147 68 c 0.07 0.09 2.43 3.88 4 5 c 2.75 1.96 6.94 3.01 10 5 c 3.51 2.28 10 8 10 8"/><path fill="none" stroke="#000000" stroke-width="2" stroke-linecap="round" stroke-linejoin="round" d="M 220 1 c -0.19 0.26 -7.79 9.7 -11 15 c -4.47 7.39 -8.24 15.06 -12 23 c -2.34 4.95 -4.34 9.85 -6 15 c -1.7 5.26 -4 16 -4 16"/><path fill="none" stroke="#000000" stroke-width="2" stroke-linecap="round" stroke-linejoin="round" d="M 196 49 c 0.16 -0.09 5.92 -4.05 9 -5 c 5.16 -1.59 11.76 -1.37 17 -3 c 4.07 -1.26 7.94 -4.38 12 -6 c 2.49 -1 5.62 -0.96 8 -2 c 2.72 -1.19 8 -5 8 -5"/><path fill="none" stroke="#000000" stroke-width="2" stroke-linecap="round" stroke-linejoin="round" d="M 240 8 c -0.07 0.07 -3.42 2.44 -4 4 c -3.3 8.9 -6.9 20.73 -9 31 c -1.17 5.74 0.73 12.82 -1 18 c -2.91 8.74 -14 27 -14 27"/><path fill="none" stroke="#000000" stroke-width="2" stroke-linecap="round" stroke-linejoin="round" d="M 181 108 c 0.28 -0.26 10.43 -10.5 16 -15 c 2.96 -2.39 6.48 -4.29 10 -6 c 8.25 -4.01 16.6 -8.06 25 -11 c 4.7 -1.65 10.04 -2.26 15 -3 l 5 0"/><path fill="none" stroke="#000000" stroke-width="2" stroke-linecap="round" stroke-linejoin="round" d="M 211 116 l -2 49"/><path fill="none" stroke="#000000" stroke-width="2" stroke-linecap="round" stroke-linejoin="round" d="M 200 128 c 0.6 -0.4 23.31 -16.42 34 -23 c 1.33 -0.82 3.72 -1.28 5 -1 c 1.25 0.28 3.59 1.76 4 3 c 1.25 3.75 1.72 9.93 2 15 c 0.39 7.03 1.1 14.76 0 21 c -0.75 4.26 -6 13 -6 13"/><path fill="none" stroke="#000000" stroke-width="2" stroke-linecap="round" stroke-linejoin="round" d="M 204 157 c 0.6 0 23.34 0.74 34 0 c 2.97 -0.21 5.92 -2.23 9 -3 c 3.62 -0.91 11 -2 11 -2"/></svg>