<?xml version="1.0" encoding="UTF-8" standalone="no"?><!DOCTYPE svg PUBLIC "-//W3C//DTD SVG 1.1//EN" "http://www.w3.org/Graphics/SVG/1.1/DTD/svg11.dtd"><svg xmlns="http://www.w3.org/2000/svg" version="1.1" width="315" height="217"><path fill="none" stroke="#000000" stroke-width="2" stroke-linecap="round" stroke-linejoin="round" d="M 1 44 c 0.32 -0.09 12.14 -2.77 18 -5 c 15.32 -5.84 30.14 -12.03 45 -19 c 6.68 -3.13 19 -11 19 -11"/><path fill="none" stroke="#000000" stroke-width="2" stroke-linecap="round" stroke-linejoin="round" d="M 25 13 c 0.07 0.09 3.67 3.27 4 5 c 0.82 4.32 0.49 10.75 0 16 c -0.5 5.34 -3 16 -3 16"/><path fill="none" stroke="#000000" stroke-width="2" stroke-linecap="round" stroke-linejoin="round" d="M 56 1 c -0.03 0.12 -1.73 4.65 -2 7 c -0.71 6.14 -0.36 12.64 -1 19 c -0.37 3.74 -1.09 7.38 -2 11 c -0.77 3.08 -1.52 6.36 -3 9 c -3.02 5.4 -6.96 11.04 -11 16 c -3.24 3.97 -7.32 8.01 -11 11 c -1.27 1.04 -4.26 2.37 -5 2 c -0.71 -0.35 -1.68 -4.05 -1 -5 c 1.9 -2.65 7.06 -6.34 11 -9 c 7.46 -5.05 15.14 -9.85 23 -14 c 4.06 -2.15 12.18 -5 13 -5 c 0.38 0 -2.49 3.49 -4 5 c -4.17 4.17 -8.43 7.89 -13 12 c -5.86 5.27 -11.34 10.42 -17 15 c -1.12 0.9 -4.16 1.84 -4 2 c 0.22 0.22 4.25 0.56 6 0 c 6 -1.92 17.71 -7.62 19 -8 c 0.23 -0.07 -1.16 2.18 -2 3 c -14.15 13.84 -41.78 39.29 -44 42 c -0.45 0.55 8.45 -1.26 12 -3 c 12.22 -5.98 24.31 -14.42 37 -21 c 5.48 -2.84 11.14 -4.85 17 -7 c 4.34 -1.59 8.66 -3.32 13 -4 c 6.06 -0.95 14.9 -1.93 19 -1 c 1.44 0.33 2.58 4.04 3 6 c 0.5 2.33 0.87 5.88 0 8 c -1.8 4.41 -5.76 10.11 -9 14 c -1.4 1.68 -3.99 2.99 -6 4 c -1.15 0.57 -2.8 1.11 -4 1 c -2.11 -0.19 -5.49 -0.72 -7 -2 c -2.24 -1.9 -3.84 -6.41 -6 -9 c -1 -1.2 -3.93 -3.53 -4 -3 c -0.57 4.1 0.08 26.1 -1 39 c -0.59 7.07 -2.29 14.39 -4 21 c -0.54 2.07 -1.83 4.25 -3 6 c -0.74 1.11 -1.93 2.39 -3 3 c -1.04 0.59 -3.72 1.63 -4 1 l -3 -17"/><path fill="none" stroke="#000000" stroke-width="2" stroke-linecap="round" stroke-linejoin="round" d="M 55 105 c -0.12 0.02 -5.83 -0.04 -7 1 c -1.21 1.07 -1.02 4.9 -2 7 c -1.27 2.73 -3.12 5.49 -5 8 c -2.12 2.82 -4.45 5.45 -7 8 c -5.6 5.6 -11.13 11.07 -17 16 c -2.37 1.99 -8 5 -8 5"/><path fill="none" stroke="#000000" stroke-width="2" stroke-linecap="round" stroke-linejoin="round" d="M 156 5 c 0.02 0.33 2.01 13.01 1 19 c -3.81 22.59 -10.71 45.92 -16 70 c -0.9 4.08 -1.63 7.98 -2 12 c -0.3 3.3 -0.22 6.73 0 10 c 0.11 1.67 0.13 4.23 1 5 c 1.25 1.09 4.68 1.86 7 2 c 8.28 0.5 23.18 0.35 26 0 c 0.39 -0.05 -1.69 -1.96 -2 -3 l -1 -7"/><path fill="none" stroke="#000000" stroke-width="2" stroke-linecap="round" stroke-linejoin="round" d="M 177 64 c -0.1 -0.03 -5.26 -2.98 -6 -2 c -4.68 6.18 -12.09 23.41 -19 35 c -4.62 7.75 -9.67 15.04 -15 22 c -2.27 2.96 -5.08 5.74 -8 8 c -4.3 3.32 -9.44 6.46 -14 9 c -1.13 0.63 -3.64 1.59 -4 1 c -0.96 -1.61 -2 -11 -2 -11"/><path fill="none" stroke="#000000" stroke-width="2" stroke-linecap="round" stroke-linejoin="round" d="M 117 34 c 0.07 -0.07 2.43 -3.27 4 -4 c 11.06 -5.13 24.35 -10.29 37 -15 c 4.61 -1.72 9.17 -2.86 14 -4 c 6.77 -1.59 13.39 -2.98 20 -4 c 1.95 -0.3 5.31 -0.89 6 0 c 1.04 1.34 1 5.97 1 9 c 0 12.72 -1 38 -1 38"/><path fill="none" stroke="#000000" stroke-width="2" stroke-linecap="round" stroke-linejoin="round" d="M 197 24 l 1 1"/><path fill="none" stroke="#000000" stroke-width="2" stroke-linecap="round" stroke-linejoin="round" d="M 168 61 c 0.05 -0.16 1.14 -7.43 3 -9 c 3.43 -2.89 10.73 -5.24 16 -7 c 2.43 -0.81 8 -1 8 -1"/><path fill="none" stroke="#000000" stroke-width="2" stroke-linecap="round" stroke-linejoin="round" d="M 179 22 c -0.11 0.33 -3.64 12.63 -6 19 c -3.45 9.32 -11 27 -11 27"/><path fill="none" stroke="#000000" stroke-width="2" stroke-linecap="round" stroke-linejoin="round" d="M 174 67 c -0.1 0.19 -5.18 7.16 -6 11 c -5.48 25.77 -10.17 55.37 -14 83 c -0.82 5.91 0 18 0 18"/><path fill="none" stroke="#000000" stroke-width="2" stroke-linecap="round" stroke-linejoin="round" d="M 164 107 c 0.12 -0.19 4.3 -7.82 7 -11 c 2.79 -3.28 6.46 -6.14 10 -9 c 3.58 -2.9 7.19 -5.82 11 -8 c 3.01 -1.72 6.66 -3.07 10 -4 c 2.5 -0.69 6.8 -2.1 8 -1 c 2.07 1.91 4.78 8.72 5 13 c 1.02 19.65 0.06 52.74 -1 64 c -0.08 0.88 -3.77 0.46 -5 0 l -3 -3"/><path fill="none" stroke="#000000" stroke-width="2" stroke-linecap="round" stroke-linejoin="round" d="M 176 121 c -0.16 -0.19 -8.87 -9.6 -9 -11 c -0.07 -0.79 5.41 0.3 8 0 c 2.98 -0.35 6.01 -1.73 9 -2 c 4.22 -0.38 13 0 13 0"/><path fill="none" stroke="#000000" stroke-width="2" stroke-linecap="round" stroke-linejoin="round" d="M 159 133 c 0.05 -0.04 1.96 -1.85 3 -2 c 5.19 -0.74 18 -1 18 -1"/><path fill="none" stroke="#000000" stroke-width="2" stroke-linecap="round" stroke-linejoin="round" d="M 163 157 c 0.21 -0.16 7.8 -6.38 12 -9 c 3.75 -2.35 7.97 -4.66 12 -6 c 3.66 -1.22 12 -2 12 -2"/><path fill="none" stroke="#000000" stroke-width="2" stroke-linecap="round" stroke-linejoin="round" d="M 238 19 c -0.1 1.12 -4.5 42.22 -6 64 c -0.54 7.79 -1.22 16.89 0 23 c 0.49 2.45 3.82 5.6 6 7 c 1.95 1.25 5.3 1.66 8 2 c 5.24 0.66 11.33 1.23 16 1 l 4 -2"/><path fill="none" stroke="#000000" stroke-width="2" stroke-linecap="round" stroke-linejoin="round" d="M 256 66 c -0.03 -0.09 -1.82 -5.39 -2 -5 c -1.41 3.08 -8.93 26.92 -14 40 c -1.23 3.18 -2.98 6.51 -5 9 c -2.09 2.57 -5.97 6.71 -8 7 c -1.49 0.21 -6 -5 -6 -5"/><path fill="none" stroke="#000000" stroke-width="2" stroke-linecap="round" stroke-linejoin="round" d="M 211 61 c 0.09 -0.23 2.23 -10.14 5 -13 c 6.41 -6.62 16.89 -13.15 26 -19 c 8.74 -5.61 17.9 -10.45 27 -15 c 2.79 -1.4 6.09 -2.38 9 -3 c 1.54 -0.33 4.97 -0.84 5 0 c 0.34 9.47 -2.35 36.72 -3 56 c -0.38 11.35 0.25 21.79 0 33 c -0.09 3.75 -0.43 7.37 -1 11 c -0.43 2.71 -1.06 5.56 -2 8 c -0.66 1.73 -2.52 5 -3 5 l -1 -5"/><path fill="none" stroke="#000000" stroke-width="2" stroke-linecap="round" stroke-linejoin="round" d="M 250 69 c -0.1 -0.12 -6.95 -6.55 -6 -7 c 3.22 -1.55 31 -5 31 -5"/><path fill="none" stroke="#000000" stroke-width="2" stroke-linecap="round" stroke-linejoin="round" d="M 234 95 l 37 -14"/><path fill="none" stroke="#000000" stroke-width="2" stroke-linecap="round" stroke-linejoin="round" d="M 259 35 c 0 0.21 0.63 8.14 0 12 c -1.99 12.19 -5.59 24.28 -8 37 c -1.35 7.13 -2.56 13.87 -3 21 c -0.91 14.79 -1 44 -1 44"/><path fill="none" stroke="#000000" stroke-width="2" stroke-linecap="round" stroke-linejoin="round" d="M 281 17 c 0.07 -0.03 2.73 -1.89 4 -2 c 2.29 -0.19 6.92 -0.08 8 1 c 0.93 0.93 0.69 5.03 0 7 c -1.75 5.04 -7.47 12.27 -8 16 c -0.21 1.48 3.24 4.41 5 5 c 2.49 0.83 6.68 0.29 10 0 c 4.36 -0.38 11.07 -3.1 13 -2 c 1.48 0.84 1 6.71 1 10 c 0 3.29 0.1 7.15 -1 10 c -2 5.21 -6.37 10.74 -9 16 l -1 4"/><path fill="none" stroke="#000000" stroke-width="2" stroke-linecap="round" stroke-linejoin="round" d="M 299 66 c -0.07 -0.05 -3.88 -3.58 -4 -3 c -1.47 6.99 -5.53 39.2 -8 60 c -1.68 14.16 -3.25 26.96 -4 41 c -0.95 17.73 -1 52 -1 52"/></svg>