<?xml version="1.0" encoding="UTF-8" standalone="no"?><!DOCTYPE svg PUBLIC "-//W3C//DTD SVG 1.1//EN" "http://www.w3.org/Graphics/SVG/1.1/DTD/svg11.dtd"><svg xmlns="http://www.w3.org/2000/svg" version="1.1" width="248" height="160"><path fill="none" stroke="#000000" stroke-width="2" stroke-linecap="round" stroke-linejoin="round" d="M 1 74 c 0.19 -0.3 6.89 -11.82 11 -17 c 3.44 -4.34 7.71 -8.4 12 -12 c 3.99 -3.36 8.5 -6.48 13 -9 c 3.7 -2.07 7.9 -3.69 12 -5 c 4.21 -1.35 8.61 -2.35 13 -3 c 4.62 -0.68 9.56 -1.42 14 -1 c 5.83 0.55 12.7 2.09 18 4 c 2.47 0.89 6.7 3.21 7 5 c 0.47 2.83 -2.11 9.6 -4 13 c -1.08 1.95 -3.92 3.79 -6 5 c -1.69 0.98 -4.03 1.77 -6 2 c -3.43 0.4 -7.94 0.81 -11 0 c -2.63 -0.69 -5.74 -3.06 -8 -5 c -2.21 -1.9 -4.68 -4.5 -6 -7 c -1.81 -3.44 -3.33 -8.43 -4 -12 c -0.22 -1.16 0.41 -2.96 1 -4 c 0.61 -1.07 1.96 -2.81 3 -3 c 1.97 -0.36 5.6 0.25 8 1 c 2.67 0.83 6.07 2.2 8 4 c 2.63 2.45 5.27 6.53 7 10 c 1.8 3.6 3.2 8 4 12 c 0.83 4.13 1.49 8.87 1 13 c -1.12 9.37 -3.67 19.22 -6 29 c -1.07 4.49 -2.28 8.83 -4 13 c -2.27 5.48 -8.33 15.11 -8 16 c 0.25 0.68 7.8 -4.87 11 -8 c 10.99 -10.74 20.79 -22.56 32 -34 c 5.26 -5.37 10.36 -10.11 16 -15 c 4.58 -3.97 9.07 -7.45 14 -11 c 6 -4.31 11.74 -8.52 18 -12 c 5.7 -3.17 11.74 -5.65 18 -8 c 10.05 -3.77 19.75 -6.33 30 -10 c 8 -2.87 16.98 -5.76 23 -9 c 1.42 -0.77 3.22 -3.78 3 -5 c -0.3 -1.63 -3.23 -4.42 -5 -6 c -1.02 -0.9 -2.62 -1.5 -4 -2 c -2.25 -0.82 -4.9 -2.19 -7 -2 c -4.48 0.41 -10.34 2.06 -15 4 c -7.12 2.97 -14.52 6.74 -21 11 c -6.02 3.96 -11.94 8.81 -17 14 c -7.17 7.37 -13.89 15.77 -20 24 c -2.45 3.3 -4.77 7.52 -6 11 c -0.59 1.67 -0.41 4.22 0 6 c 0.52 2.26 1.54 5.3 3 7 c 2.18 2.54 5.81 5.12 9 7 c 4 2.36 8.7 5.03 13 6 c 5.42 1.22 12.14 1.33 18 1 c 5.93 -0.33 11.99 -1.68 18 -3 c 4.8 -1.05 9.54 -2.25 14 -4 c 4.8 -1.88 9.82 -4.16 14 -7 c 4.92 -3.34 9.9 -7.9 14 -12 c 1.3 -1.3 2.32 -3.31 3 -5 c 0.59 -1.48 1 -3.42 1 -5 c 0 -1.88 -0.24 -4.28 -1 -6 c -1.75 -3.93 -4.16 -9.16 -7 -12 c -2.56 -2.56 -7.47 -4.94 -11 -6 c -2.54 -0.76 -6.25 -0.55 -9 0 c -3.57 0.71 -7.69 2.21 -11 4 c -4.47 2.42 -9.39 5.55 -13 9 c -3.74 3.58 -6.84 8.44 -10 13 c -2.94 4.25 -5.57 8.46 -8 13 c -2.64 4.92 -4.81 9.81 -7 15 c -1.55 3.67 -3.16 7.26 -4 11 c -1.46 6.47 -2.73 13.34 -3 20 c -0.4 9.89 2.07 21.64 1 30 c -0.39 3.01 -3.67 7.13 -6 9 c -2.05 1.64 -6.17 2.88 -9 3 c -4.22 0.18 -9.67 -0.79 -14 -2 c -3.7 -1.04 -7.59 -3.03 -11 -5 c -2.82 -1.63 -5.79 -3.79 -8 -6 c -1.59 -1.59 -3.28 -3.97 -4 -6 c -0.81 -2.27 -1.28 -5.6 -1 -8 c 0.33 -2.83 1.56 -6.41 3 -9 c 1.73 -3.11 4.33 -6.78 7 -9 c 2.93 -2.44 7.22 -4.55 11 -6 c 4.69 -1.8 10.06 -3.34 15 -4 c 4.77 -0.64 10.02 -0.36 15 0 c 4.37 0.31 8.7 0.99 13 2 c 7.14 1.68 14.57 3.39 21 6 c 3.84 1.56 7.82 4.5 11 7 c 1.22 0.96 2.13 2.6 3 4 c 0.78 1.25 1.91 2.72 2 4 c 0.21 2.88 -0.24 6.82 -1 10 l -5 15"/></svg>