<?xml version="1.0" encoding="UTF-8" standalone="no"?><!DOCTYPE svg PUBLIC "-//W3C//DTD SVG 1.1//EN" "http://www.w3.org/Graphics/SVG/1.1/DTD/svg11.dtd"><svg xmlns="http://www.w3.org/2000/svg" version="1.1" width="265" height="202"><path fill="none" stroke="#000000" stroke-width="2" stroke-linecap="round" stroke-linejoin="round" d="M 63 1 l 2 26"/><path fill="none" stroke="#000000" stroke-width="2" stroke-linecap="round" stroke-linejoin="round" d="M 6 84 c 0.26 -0.17 9.99 -6.35 15 -10 c 13.9 -10.11 26.29 -19.47 40 -30 c 5.65 -4.34 10.78 -8.36 16 -13 c 3.94 -3.5 7.08 -7.62 11 -11 c 3.42 -2.96 9.9 -8.24 11 -8 c 0.83 0.18 -0.86 6.87 -2 10 c -2.8 7.69 -7.2 15.31 -10 23 c -1.14 3.13 -1.84 6.77 -2 10 c -0.16 3.18 0.11 8.05 1 10 l 4 1"/><path fill="none" stroke="#000000" stroke-width="2" stroke-linecap="round" stroke-linejoin="round" d="M 72 67 c 0.16 -0.23 5.52 -9.26 9 -13 c 5.31 -5.7 11.59 -10.95 18 -16 c 9.53 -7.51 18.93 -14.55 29 -21 c 6.67 -4.27 19.45 -10.43 21 -11 c 0.29 -0.11 -1.12 2.87 -2 4 c -2.66 3.39 -8.85 9.55 -9 10 c -0.09 0.27 5.1 -2.52 7 -4 c 0.85 -0.66 2.09 -3.07 2 -3 c -1.22 0.98 -24.61 21.41 -38 32 c -16.18 12.79 -31.22 24.43 -48 36 c -12.81 8.83 -25.8 17.18 -39 24 c -6.38 3.3 -21.35 7.17 -21 7 c 1.32 -0.66 50.48 -22.66 77 -35 c 8.41 -3.92 15.68 -8.36 24 -12 c 7.94 -3.48 15.69 -6.23 24 -9 c 8.1 -2.7 15.81 -5.2 24 -7 c 8.62 -1.9 17.2 -3.4 26 -4 c 15.73 -1.08 47 -1 47 -1"/><path fill="none" stroke="#000000" stroke-width="2" stroke-linecap="round" stroke-linejoin="round" d="M 79 61 c -0.03 0.09 -2 3.51 -2 5 c 0 2.01 0.88 5 2 7 c 3.33 5.96 8.05 13.06 12 18 c 0.82 1.02 4 2 4 2"/><path fill="none" stroke="#000000" stroke-width="2" stroke-linecap="round" stroke-linejoin="round" d="M 118 38 c -0.02 0.16 -0.19 6.22 -1 9 c -1.45 4.96 -3.55 10.23 -6 15 c -3.54 6.89 -7.68 13.32 -12 20 c -3.19 4.93 -6.37 9.42 -10 14 c -4.19 5.28 -12.88 13.29 -13 15 c -0.07 1.04 8.2 -0.08 12 -1 c 8.28 -2.01 20.84 -7.68 25 -8 c 0.96 -0.07 1.49 4.37 1 6 c -1.26 4.2 -4.14 9.64 -7 14 c -9.16 14 -18.76 27.66 -29 41 c -4.19 5.45 -9.05 10.26 -14 15 c -3.09 2.96 -6.74 6.04 -10 8 c -1.3 0.78 -4.18 1.41 -5 1 l -1 -4"/><path fill="none" stroke="#000000" stroke-width="2" stroke-linecap="round" stroke-linejoin="round" d="M 93 121 c 0.3 -0.07 11.41 -3.07 17 -4 c 2.24 -0.37 5.62 -0.88 7 0 c 1.58 1.01 3.02 4.52 4 7 c 3.99 10.1 11 31 11 31"/><path fill="none" stroke="#000000" stroke-width="2" stroke-linecap="round" stroke-linejoin="round" d="M 142 105 c -0.03 0.09 -1.93 3.35 -2 5 c -0.55 12.29 0 40 0 40"/><path fill="none" stroke="#000000" stroke-width="2" stroke-linecap="round" stroke-linejoin="round" d="M 147 89 c 0.07 -0.07 2.57 -3.62 4 -4 c 2.79 -0.74 7.73 0.65 11 0 c 2.93 -0.59 6.11 -2.4 9 -4 c 6.19 -3.44 13 -9.13 18 -11 c 1.5 -0.56 5.57 0.64 6 2 c 2.04 6.52 3.16 19.73 4 30 c 1.2 14.6 2.09 39.46 2 43 c -0.01 0.35 -2.34 -1.87 -3 -3 c -1.53 -2.63 -4 -9 -4 -9"/><path fill="none" stroke="#000000" stroke-width="2" stroke-linecap="round" stroke-linejoin="round" d="M 179 103 c -0.28 -0.07 -13.88 -4.71 -16 -4 c -1.16 0.39 0.33 6.16 1 9 c 0.63 2.68 3 8 3 8"/><path fill="none" stroke="#000000" stroke-width="2" stroke-linecap="round" stroke-linejoin="round" d="M 170 97 c 0.05 -0.09 2.7 -5.36 3 -5 c 0.57 0.69 1.25 10.25 2 11 c 0.43 0.43 3.42 -3.19 4 -5 c 1.85 -5.77 2.33 -13.21 4 -20 c 3.13 -12.75 6.13 -24.91 10 -37 c 1.45 -4.52 3.64 -9 6 -13 c 1.88 -3.19 4.51 -6.09 7 -9 c 1.55 -1.8 3.3 -3.86 5 -5 c 0.99 -0.66 3.91 -1.53 4 -1 c 0.28 1.7 -2.2 9.78 -2 13 c 0.06 1.04 2.02 2.9 3 3 c 1.68 0.17 5.14 -0.79 7 -2 c 5.27 -3.43 14.96 -13.58 16 -13 c 0.97 0.54 -4.08 12.27 -7 18 c -5.76 11.3 -13.14 21.77 -19 33 c -2.14 4.11 -3.59 8.57 -5 13 c -0.93 2.93 -2.33 6.71 -2 9 c 0.23 1.59 2.73 5 4 5 c 2.22 0 7.56 -2.64 10 -5 c 6.52 -6.29 12.7 -14.97 19 -23 c 3.63 -4.63 8.4 -10.4 10 -14 c 0.42 -0.94 -1.24 -4.12 -2 -4 c -2.12 0.33 -8.67 3.4 -11 6 c -2.66 2.97 -4.28 8.52 -6 13 c -1.64 4.25 -3.5 8.72 -4 13 c -0.78 6.61 -1.07 17.08 0 21 c 0.31 1.13 4.72 1.64 6 1 c 1.94 -0.97 4.86 -4.44 6 -7 c 2.57 -5.79 4.48 -13.17 6 -20 c 1.84 -8.28 3.12 -16.46 4 -25 c 1.15 -11.15 2 -31.06 2 -33 c 0 -0.21 -1.77 1.95 -2 3 c -0.98 4.42 -1.58 9.87 -2 15 c -0.61 7.47 -0.9 14.4 -1 22 c -0.24 17.94 -0.46 34.27 0 52 c 0.22 8.55 1.82 16.45 2 25 c 0.5 23.53 1.34 62.4 0 69 l -12 -10"/><path fill="none" stroke="#000000" stroke-width="2" stroke-linecap="round" stroke-linejoin="round" d="M 219 153 c -0.02 -0.24 -1.58 -10.3 -1 -14 c 0.27 -1.69 2.48 -3.61 4 -5 c 2.37 -2.17 5.16 -4.2 8 -6 c 4.57 -2.91 9.14 -5.57 14 -8 c 4.59 -2.3 9.35 -4.37 14 -6 c 1.86 -0.65 6 -1 6 -1"/></svg>