<?xml version="1.0" encoding="UTF-8" standalone="no"?><!DOCTYPE svg PUBLIC "-//W3C//DTD SVG 1.1//EN" "http://www.w3.org/Graphics/SVG/1.1/DTD/svg11.dtd"><svg xmlns="http://www.w3.org/2000/svg" version="1.1" width="231" height="206"><path fill="none" stroke="#000000" stroke-width="2" stroke-linecap="round" stroke-linejoin="round" d="M 1 34 c 0.14 -0.02 5.39 -0.42 8 -1 c 3.38 -0.75 6.83 -1.57 10 -3 c 20.51 -9.24 55.8 -26.88 61 -29 c 0.41 -0.17 -2 5 -2 5"/><path fill="none" stroke="#000000" stroke-width="2" stroke-linecap="round" stroke-linejoin="round" d="M 32 59 c -0.02 0.47 -0.07 17.87 -1 27 c -2.13 20.78 -8 61 -8 61"/><path fill="none" stroke="#000000" stroke-width="2" stroke-linecap="round" stroke-linejoin="round" d="M 38 76 c 0.1 -0.09 3.88 -4.18 6 -5 c 3.3 -1.28 9.88 -2.99 12 -2 c 1.65 0.77 2.88 6.02 3 9 c 0.83 21.35 1.05 56.15 0 68 c -0.09 1.05 -6 0 -6 0"/><path fill="none" stroke="#000000" stroke-width="2" stroke-linecap="round" stroke-linejoin="round" d="M 34 108 l 1 1"/><path fill="none" stroke="#000000" stroke-width="2" stroke-linecap="round" stroke-linejoin="round" d="M 75 74 c 0.05 0.12 2.89 4.68 3 7 c 0.81 17.36 0 57 0 57"/><path fill="none" stroke="#000000" stroke-width="2" stroke-linecap="round" stroke-linejoin="round" d="M 85 60 c 0.12 -0.12 4.66 -5.44 7 -7 c 1.21 -0.8 3.33 -0.91 5 -1 c 4.59 -0.24 11.24 -1.04 14 0 c 1.25 0.47 1.7 3.99 2 6 c 0.67 4.47 0.9 9.2 1 14 c 0.24 11.63 -0.61 22.48 0 34 c 0.74 13.95 4 41 4 41"/><path fill="none" stroke="#000000" stroke-width="2" stroke-linecap="round" stroke-linejoin="round" d="M 97 95 l 17 1"/><path fill="none" stroke="#000000" stroke-width="2" stroke-linecap="round" stroke-linejoin="round" d="M 197 7 c -0.07 0.12 -2.33 5.09 -4 7 c -2.79 3.18 -6.48 5.94 -10 9 c -4.45 3.87 -8.44 7.58 -13 11 c -3.49 2.62 -8.73 4.54 -11 7 c -1.06 1.15 -1.14 4.18 -1 6 c 0.17 2.18 1.87 4.68 2 7 c 0.51 9.24 0 29 0 29"/><path fill="none" stroke="#000000" stroke-width="2" stroke-linecap="round" stroke-linejoin="round" d="M 166 52 c 0.39 -0.02 15.28 0.38 22 -1 c 5.61 -1.15 11.42 -4.46 17 -7 c 1.77 -0.8 3.65 -1.8 5 -3 c 1.49 -1.32 2.95 -3.26 4 -5 c 0.88 -1.46 1.86 -3.45 2 -5 c 0.16 -1.75 -0.22 -4.91 -1 -6 c -0.53 -0.74 -2.67 -0.91 -4 -1 c -3.22 -0.23 -7.67 -1.02 -10 0 c -2.14 0.94 -4.35 4.52 -6 7 c -1.6 2.4 -2.98 5.27 -4 8 c -0.94 2.51 -1.74 5.35 -2 8 c -0.39 3.85 -0.62 8.91 0 12 c 0.22 1.09 1.85 2.39 3 3 c 4.14 2.19 12.9 4.49 14 6 c 0.56 0.77 -3.81 3.69 -6 5 c -6.01 3.61 -12.69 6.26 -19 10 c -13.86 8.22 -28.12 17.08 -40 25 c -0.91 0.61 -2.38 2.9 -2 3 c 1.49 0.37 9.36 0.55 14 0 c 18.09 -2.13 35.89 -6.12 54 -8 c 7.63 -0.79 23 0 23 0"/><path fill="none" stroke="#000000" stroke-width="2" stroke-linecap="round" stroke-linejoin="round" d="M 198 85 c -0.03 0.23 -1.7 8.63 -2 13 c -0.37 5.32 0.41 10.65 0 16 c -0.6 7.76 -1.8 15.05 -3 23 c -2.62 17.36 -4.98 32.88 -8 50 c -1.1 6.23 -4 18 -4 18"/></svg>