<?xml version="1.0" encoding="UTF-8" standalone="no"?><!DOCTYPE svg PUBLIC "-//W3C//DTD SVG 1.1//EN" "http://www.w3.org/Graphics/SVG/1.1/DTD/svg11.dtd"><svg xmlns="http://www.w3.org/2000/svg" version="1.1" width="280" height="265"><path fill="none" stroke="#000000" stroke-width="2" stroke-linecap="round" stroke-linejoin="round" d="M 30 56 c 0.51 -0.46 18.98 -18.03 29 -26 c 4.5 -3.58 9.72 -6.21 15 -9 c 13.51 -7.12 27.76 -14.68 40 -20 c 1.64 -0.71 6.04 -0.84 6 0 c -0.15 3.24 -3.49 15.82 -7 22 c -4.32 7.61 -11.57 14.67 -18 22 c -8.33 9.49 -16.63 17.45 -25 27 c -13.72 15.65 -25.69 29.9 -39 46 c -8.17 9.88 -15.46 19.04 -23 29 c -1.92 2.54 -3.63 5.27 -5 8 c -0.92 1.83 -2 4.43 -2 6 c 0 0.9 1.29 3.06 2 3 c 2.13 -0.18 7.15 -2.14 10 -4 c 5.46 -3.57 10.61 -9.81 16 -13 c 2.98 -1.76 9.31 -4.13 11 -3 c 2.02 1.35 3.75 8.7 4 13 c 1.02 17.39 -0.54 39.36 0 55 c 0.04 1.03 1.17 2.41 2 3 l 5 2"/><path fill="none" stroke="#000000" stroke-width="2" stroke-linecap="round" stroke-linejoin="round" d="M 105 72 c 0.04 0.19 2 7.46 2 11 c 0 5.42 -0.99 11.24 -2 17 c -3.43 19.54 -7.7 37.45 -11 57 c -1.49 8.81 -2.37 17.2 -3 26 c -0.38 5.38 0.41 15.59 0 16 c -0.32 0.32 -2.22 -8.22 -4 -12 c -3.52 -7.49 -8.66 -14.43 -12 -22 c -2.95 -6.69 -5.51 -14.21 -7 -21 c -0.74 -3.38 -0.34 -7.41 0 -11 c 0.32 -3.33 0.56 -7.36 2 -10 c 2.2 -4.04 6.76 -9.19 10 -12 c 1.06 -0.92 4.49 -1.67 5 -1 c 0.9 1.2 1.82 6.66 1 9 c -1.5 4.31 -5.52 9.77 -9 14 c -5.77 7.01 -13.24 13.42 -19 20 c -0.93 1.07 -2.46 3.69 -2 4 c 0.82 0.55 5.65 -0.39 8 0 c 1.32 0.22 3.09 1.09 4 2 c 1.18 1.18 2.92 3.4 3 5 c 0.2 3.87 -0.12 10.16 -2 14 c -5.2 10.63 -13.47 21.88 -21 33 c -6.89 10.18 -20.16 25.62 -21 29 c -0.33 1.32 10.02 0.59 14 -1 c 13.05 -5.22 27.05 -14.17 41 -21 c 2.59 -1.27 5.42 -2.4 8 -3 c 1.51 -0.35 4.66 -0.81 5 0 c 0.81 1.94 1.22 9.02 0 12 c -1.37 3.34 -5.74 7.09 -9 10 l -10 7"/><path fill="none" stroke="#000000" stroke-width="2" stroke-linecap="round" stroke-linejoin="round" d="M 60 235 c 0.12 -0.03 4.72 -1.92 7 -2 c 6.59 -0.24 13.95 0.28 21 1 c 6.12 0.63 12.25 1.4 18 3 c 6.09 1.69 18 7 18 7"/><path fill="none" stroke="#000000" stroke-width="2" stroke-linecap="round" stroke-linejoin="round" d="M 176 124 c 0.09 -0.1 3.1 -4.33 5 -6 c 3.65 -3.22 7.78 -6.41 12 -9 c 4.4 -2.71 9.17 -5.21 14 -7 c 6.74 -2.5 17.45 -7.04 21 -6 c 2.17 0.63 4.05 9.95 3 13 c -1.4 4.04 -7.55 9.21 -12 13 c -9.15 7.81 -27.32 19.58 -29 22 c -0.6 0.87 8.84 1.18 13 1 c 3.25 -0.14 6.68 -1.61 10 -2 c 2.28 -0.27 5.4 -0.53 7 0 c 0.82 0.27 2.39 2.43 2 3 c -1.62 2.34 -7.09 6.87 -11 10 c -4.53 3.62 -9.37 6.4 -14 10 c -4.58 3.56 -13.86 10.45 -13 11 c 1.23 0.78 16.45 -1.66 24 -4 c 11.41 -3.54 34 -14 34 -14"/><path fill="none" stroke="#000000" stroke-width="2" stroke-linecap="round" stroke-linejoin="round" d="M 214 86 c -0.02 0.19 -1 7.27 -1 11 c 0 15.87 1.58 31.26 1 47 c -0.43 11.79 -2.05 23.16 -4 35 c -2.82 17.14 -6.29 32.77 -10 50 c -2.17 10.08 -5.11 19.53 -7 29 l 0 6"/><path fill="none" stroke="#000000" stroke-width="2" stroke-linecap="round" stroke-linejoin="round" d="M 255 98 c -0.09 0.24 -3.6 9.18 -5 14 c -1.64 5.66 -2.98 11.17 -4 17 c -1.35 7.74 -2.61 15.18 -3 23 c -0.96 19.22 -1 57 -1 57"/><path fill="none" stroke="#000000" stroke-width="2" stroke-linecap="round" stroke-linejoin="round" d="M 248 97 c 0.09 -0.12 3.08 -5.08 5 -7 c 2.23 -2.23 5.27 -4.63 8 -6 c 2.25 -1.13 5.36 -1.65 8 -2 c 2.24 -0.3 5.53 -0.74 7 0 c 1.23 0.61 2.69 3.34 3 5 c 0.59 3.13 0.88 7.84 0 11 c -1.26 4.5 -4.09 9.9 -7 14 c -4.21 5.94 -10.23 11.09 -15 17 c -2.28 2.82 -7.02 7.83 -6 9 c 1.87 2.16 13.32 3.63 19 6 c 1.83 0.76 3.75 2.47 5 4 c 1.57 1.92 3.43 4.71 4 7 c 0.64 2.55 1.36 6.98 0 9 c -6.21 9.21 -27 31 -27 31"/></svg>