<?xml version="1.0" encoding="UTF-8" standalone="no"?><!DOCTYPE svg PUBLIC "-//W3C//DTD SVG 1.1//EN" "http://www.w3.org/Graphics/SVG/1.1/DTD/svg11.dtd"><svg xmlns="http://www.w3.org/2000/svg" version="1.1" width="288" height="212"><path fill="none" stroke="#000000" stroke-width="2" stroke-linecap="round" stroke-linejoin="round" d="M 1 118 c 0.16 -0.38 5.17 -15.37 9 -22 c 4.61 -7.98 10.71 -15.93 17 -23 c 7 -7.87 14.81 -15.35 23 -22 c 7.78 -6.32 16.24 -11.48 25 -17 c 9.74 -6.14 19.01 -12.1 29 -17 c 7.61 -3.74 15.73 -6.24 24 -9 c 6.03 -2.01 11.87 -3.66 18 -5 c 4.64 -1.01 9.56 -2 14 -2 c 3.51 0 7.5 1.03 11 2 c 2.38 0.66 5.31 1.59 7 3 c 1.91 1.59 4.54 4.63 5 7 c 1.01 5.24 1.3 13.3 0 19 c -1.84 8.08 -5.88 17.26 -10 25 c -4.07 7.66 -9.49 15.07 -15 22 c -4.83 6.08 -10.27 11.98 -16 17 c -4.77 4.17 -10.5 7.96 -16 11 c -3.95 2.18 -8.69 4.01 -13 5 c -4.04 0.93 -8.69 1 -13 1 c -3.32 0 -7.09 0.01 -10 -1 c -4.27 -1.48 -9.57 -4.43 -13 -7 c -1.35 -1.02 -2.52 -3.31 -3 -5 c -0.75 -2.63 -1.28 -6.22 -1 -9 c 0.35 -3.49 1.36 -8.02 3 -11 c 1.73 -3.15 5.1 -6.61 8 -9 c 2.48 -2.04 5.92 -3.93 9 -5 c 4.29 -1.49 9.44 -2.69 14 -3 c 4.79 -0.33 10 0.33 15 1 c 5.09 0.68 10.28 1.48 15 3 c 4.41 1.42 8.78 3.72 13 6 c 3.84 2.08 7.5 4.42 11 7 c 2.85 2.1 5.74 4.38 8 7 l 11 15"/><path fill="none" stroke="#000000" stroke-width="2" stroke-linecap="round" stroke-linejoin="round" d="M 178 109 c -0.21 0.18 -7.72 6.94 -12 10 c -7.53 5.38 -14.95 10.42 -23 15 c -9.18 5.22 -28 14 -28 14"/><path fill="none" stroke="#000000" stroke-width="2" stroke-linecap="round" stroke-linejoin="round" d="M 99 56 c 0 0.32 0.7 12 0 18 c -5.35 46.04 -18 137 -18 137"/><path fill="none" stroke="#000000" stroke-width="2" stroke-linecap="round" stroke-linejoin="round" d="M 186 75 c 0.63 -0.16 23.57 -6.24 36 -9 c 9.2 -2.04 17.69 -3.57 27 -5 c 8.53 -1.31 16.65 -1.65 25 -3 c 4.1 -0.67 12 -3 12 -3"/><path fill="none" stroke="#000000" stroke-width="2" stroke-linecap="round" stroke-linejoin="round" d="M 250 4 c -0.68 1.87 -26.51 71 -39 107 c -1.57 4.53 -2.54 9.66 -3 14 c -0.16 1.54 0.38 3.52 1 5 c 0.97 2.34 2.23 5.45 4 7 c 3.05 2.67 7.97 5.7 12 7 c 4.68 1.51 10.69 1.84 16 2 c 5.61 0.17 11.32 -0.31 17 -1 c 5.43 -0.66 10.83 -1.57 16 -3 c 4.43 -1.22 13 -5 13 -5"/><path fill="none" stroke="#000000" stroke-width="2" stroke-linecap="round" stroke-linejoin="round" d="M 245 88 c -0.03 0.21 -1.78 7.92 -2 12 c -1.46 26.51 -3 79 -3 79"/><path fill="none" stroke="#000000" stroke-width="2" stroke-linecap="round" stroke-linejoin="round" d="M 199 156 l -16 13"/><path fill="none" stroke="#000000" stroke-width="2" stroke-linecap="round" stroke-linejoin="round" d="M 286 167 l 1 1"/></svg>