<?xml version="1.0" encoding="UTF-8" standalone="no"?><!DOCTYPE svg PUBLIC "-//W3C//DTD SVG 1.1//EN" "http://www.w3.org/Graphics/SVG/1.1/DTD/svg11.dtd"><svg xmlns="http://www.w3.org/2000/svg" version="1.1" width="345" height="181"><path fill="none" stroke="#000000" stroke-width="2" stroke-linecap="round" stroke-linejoin="round" d="M 25 20 l 58 -19"/><path fill="none" stroke="#000000" stroke-width="2" stroke-linecap="round" stroke-linejoin="round" d="M 10 53 c -0.05 0.12 -2.54 4.6 -3 7 c -2.45 12.77 -4.29 26.62 -6 40 c -0.3 2.32 -0.34 7.31 0 7 c 1.04 -0.96 7.65 -12.14 12 -18 c 3.42 -4.61 6.89 -9.06 11 -13 c 11.63 -11.13 23.79 -21.73 36 -32 c 2.39 -2.01 5.28 -3.88 8 -5 c 2.66 -1.1 6.01 -1.72 9 -2 c 3.89 -0.37 9.79 -1.38 12 0 c 1.99 1.24 3.73 6.7 4 10 c 0.98 11.96 0.99 27.41 0 39 c -0.23 2.66 -2.44 5.66 -4 8 c -0.99 1.48 -2.59 3.22 -4 4 l -5 1"/><path fill="none" stroke="#000000" stroke-width="2" stroke-linecap="round" stroke-linejoin="round" d="M 62 32 c -0.1 0.05 -5.35 1.45 -6 3 c -2.3 5.43 -3.8 15.09 -5 23 c -2.88 18.97 -5.24 37.11 -7 56 c -0.59 6.36 0 19 0 19"/><path fill="none" stroke="#000000" stroke-width="2" stroke-linecap="round" stroke-linejoin="round" d="M 35 101 c -0.05 -0.24 -3.49 -11.36 -3 -14 c 0.22 -1.16 4.11 -1.12 6 -2 c 3.07 -1.43 8.06 -5.59 9 -5 c 0.92 0.57 0.12 7.34 -1 10 c -1.27 3.02 -4.38 6.26 -7 9 c -4.71 4.93 -15.36 14 -15 14 c 0.4 0 18 -14 18 -14"/><path fill="none" stroke="#000000" stroke-width="2" stroke-linecap="round" stroke-linejoin="round" d="M 70 71 c 0.1 0 4.65 -0.6 6 0 c 1.13 0.5 2.86 2.65 3 4 c 0.43 4.05 0.56 10.81 -1 15 c -2.41 6.5 -7.64 13.46 -12 20 c -3.07 4.6 -6.42 8.65 -10 13 c -4.33 5.27 -8.4 10.61 -13 15 c -2.5 2.39 -6.6 3.8 -9 6 c -1.29 1.18 -2.8 3.32 -3 5 c -0.69 5.75 -0.27 13.55 0 20 c 0.06 1.33 0.33 3.33 1 4 c 0.67 0.67 3.48 1.59 4 1 c 1.36 -1.53 2.3 -6.84 4 -10 c 5.31 -9.87 10.89 -19.5 17 -29 c 2.98 -4.64 6.4 -9 10 -13 c 2.33 -2.59 5.25 -5.45 8 -7 c 2.14 -1.2 5.3 -1.61 8 -2 c 4.28 -0.61 9.63 -1.71 13 -1 c 2.02 0.42 4.86 3.09 6 5 c 1.53 2.55 2.61 6.71 3 10 c 0.57 4.73 0.32 9.97 0 15 c -0.35 5.41 -0.86 10.88 -2 16 c -0.83 3.71 -2.3 7.59 -4 11 c -1.9 3.8 -4.71 8.9 -7 11 c -0.88 0.8 -3.8 0.53 -5 0 c -1.36 -0.6 -3.08 -2.51 -4 -4 c -1.6 -2.59 -2.92 -5.93 -4 -9 c -0.91 -2.57 -1.65 -5.3 -2 -8 c -0.64 -4.92 -0.95 -14.74 -1 -15 c -0.03 -0.17 0.36 6.79 0 10 c -0.29 2.64 -1.75 5.35 -2 8 c -0.4 4.18 -0.78 9.68 0 13 c 0.34 1.45 2.92 4.23 4 4 c 2.32 -0.5 7.48 -4.1 10 -7 c 8.27 -9.49 24 -32 24 -32"/><path fill="none" stroke="#000000" stroke-width="2" stroke-linecap="round" stroke-linejoin="round" d="M 152 26 c 0.02 0.12 1.14 4.81 1 7 c -0.18 2.85 -0.91 6.16 -2 9 c -4.87 12.7 -17.71 36.52 -16 38 c 1.66 1.43 20.46 -17.09 31 -25 c 2.73 -2.04 6.57 -4.44 9 -5 c 1.05 -0.24 3.7 1.11 4 2 c 0.47 1.41 -0.06 5 -1 7 c -6.6 14.02 -15.51 28.79 -23 44 c -3.45 7 -6.83 13.94 -9 21 c -1.73 5.64 -2.25 12 -3 18 c -0.25 1.97 -0.37 4.33 0 6 c 0.22 1 1.21 2.93 2 3 c 2.22 0.19 7.64 -0.39 10 -2 c 4.09 -2.79 8.1 -8.36 12 -13 c 10.5 -12.51 26.31 -30.84 30 -37 c 0.52 -0.87 -4.06 -2.51 -6 -3 c -1.74 -0.43 -4.14 -0.31 -6 0 c -1.96 0.33 -4.43 0.95 -6 2 c -2.11 1.4 -4.63 3.81 -6 6 c -1.74 2.78 -3.08 6.59 -4 10 c -1.39 5.16 -2.54 10.66 -3 16 c -0.53 6.23 -1.15 15.88 0 19 c 0.42 1.15 6.1 1.18 7 0 c 2.33 -3.05 4.38 -11.1 6 -17 c 5.18 -18.9 9.91 -37.1 14 -56 c 1.28 -5.93 1.01 -11.92 2 -18 c 1.39 -8.56 3.01 -16.6 5 -25 c 1.06 -4.48 3.12 -11.87 4 -13 c 0.32 -0.41 2.61 2.57 3 4 c 1.42 5.22 2.73 11.95 3 18 c 0.73 16.56 -0.3 33.6 0 50 c 0.03 1.67 0.38 3.6 1 5 c 0.61 1.37 1.9 2.9 3 4 c 0.8 0.8 1.93 1.56 3 2 c 2.81 1.17 6.36 1.68 9 3 c 1.78 0.89 3.68 2.51 5 4 c 1.2 1.35 2.76 3.33 3 5 c 0.66 4.59 1.19 11.74 0 16 c -0.85 3.03 -4.37 6.53 -7 9 c -2.81 2.65 -6.53 5.27 -10 7 c -3.6 1.8 -8.09 3.29 -12 4 c -3.09 0.56 -6.9 0.49 -10 0 c -2.94 -0.46 -6.74 -1.4 -9 -3 c -2.87 -2.03 -6.39 -6.19 -8 -9 c -0.67 -1.17 -0.51 -3.72 0 -5 c 0.65 -1.63 2.44 -4.22 4 -5 c 2.48 -1.24 6.66 -1.88 10 -2 c 15.74 -0.54 31.74 -0.48 48 0 l 20 2"/><path fill="none" stroke="#000000" stroke-width="2" stroke-linecap="round" stroke-linejoin="round" d="M 242 31 c 0.05 -0.05 1.89 -2.86 3 -3 c 5.47 -0.68 13.99 -0.25 21 0 c 2.36 0.08 6.59 -0.24 7 1 c 0.99 2.98 0.29 12.21 -1 17 c -0.82 3.04 -3.74 6.26 -6 9 c -2.36 2.86 -5.69 5.08 -8 8 c -3.97 5.02 -10.8 15.33 -11 16 c -0.1 0.35 5.79 -3.67 8 -6 c 3.93 -4.14 8.89 -12.49 11 -14 c 0.59 -0.42 2.86 2.65 3 4 c 0.43 4.33 -0.09 10.84 -1 16 c -1.06 6.01 -4.03 11.91 -5 18 c -1.68 10.48 -2.2 21.11 -3 32 c -0.22 3.05 -0.56 6.56 0 9 c 0.31 1.36 1.84 3.58 3 4 c 1.85 0.67 6.61 1.21 8 0 c 2.57 -2.22 5.64 -8.56 7 -13 c 2.14 -7.01 2.81 -15.06 4 -23 c 0.87 -5.82 1.79 -11.24 2 -17 c 0.47 -13.13 0.51 -26.08 0 -39 c -0.16 -4.03 -1.71 -7.98 -2 -12 c -0.38 -5.29 -1.56 -12.89 0 -16 c 1.05 -2.09 6.61 -3.03 10 -4 c 3.52 -1.01 7.37 -1.03 11 -2 c 6.47 -1.72 17.54 -6.73 19 -6 c 1.02 0.51 -4.32 8.27 -7 12 c -3.29 4.57 -7.47 8.39 -11 13 c -5.34 6.99 -15.21 19.94 -15 21 c 0.17 0.83 11.04 -7.49 17 -11 c 7.37 -4.35 20.11 -12 22 -12 c 0.98 0 -2.45 8.97 -5 12 c -7.35 8.73 -18.76 16.9 -27 26 c -4.27 4.72 -11.12 14.44 -11 16 c 0.08 0.99 8.74 -1.23 12 -3 c 4.12 -2.23 11.58 -10.84 12 -10 c 0.57 1.14 -5.11 13.2 -7 20 c -1.45 5.23 -2.33 10.68 -3 16 c -0.33 2.61 -0.53 8.39 0 8 c 2.18 -1.58 16.32 -15.67 22 -24 c 3.76 -5.51 5.31 -16.16 8 -20 c 0.75 -1.07 5.22 -0.95 6 0 c 1.48 1.81 1.6 7.58 3 11 l 6 11"/><path fill="none" stroke="#000000" stroke-width="2" stroke-linecap="round" stroke-linejoin="round" d="M 289 158 c -0.1 -0.4 -5.23 -15.4 -6 -23 c -1.17 -11.52 0 -36 0 -36"/></svg>