<?xml version="1.0" encoding="UTF-8" standalone="no"?><!DOCTYPE svg PUBLIC "-//W3C//DTD SVG 1.1//EN" "http://www.w3.org/Graphics/SVG/1.1/DTD/svg11.dtd"><svg xmlns="http://www.w3.org/2000/svg" version="1.1" width="269" height="129"><path fill="none" stroke="#000000" stroke-width="2" stroke-linecap="round" stroke-linejoin="round" d="M 1 1 c 0.07 0.05 2.54 2.38 4 3 c 6.84 2.89 15.17 4.94 22 8 c 2.51 1.13 7.25 3.59 7 5 c -0.45 2.56 -6.82 7.75 -10 12 c -3.96 5.28 -9.18 11.56 -11 16 c -0.59 1.45 0.71 5.39 2 6 c 3.09 1.45 9.94 1.6 15 2 c 3.34 0.27 6.79 -0.36 10 0 c 2.64 0.29 5.24 1.26 8 2 c 2.44 0.65 5.09 0.91 7 2 c 2.42 1.38 6.17 3.93 7 6 c 0.81 2.03 -0.07 6.51 -1 9 c -0.89 2.36 -3.02 5.14 -5 7 c -3.45 3.25 -7.96 6.39 -12 9 c -1.45 0.94 -3.38 1.68 -5 2 c -1.51 0.3 -3.88 0.69 -5 0 c -2.53 -1.56 -5.8 -5.21 -8 -8 c -1.3 -1.66 -2.27 -3.98 -3 -6 c -0.56 -1.54 -1 -5.09 -1 -5 c 0.04 0.93 1.78 35.58 3 53 c 0.09 1.35 0.78 4.22 1 4 c 0.51 -0.51 3.23 -5.87 4 -9 c 6.13 -25.1 10.59 -51.1 17 -77 c 2.06 -8.31 7.87 -23.58 8 -24 c 0.06 -0.2 -3.59 8.15 -4 11 c -0.13 0.88 1.26 3.14 2 3 c 6.4 -1.2 20.07 -6.89 30 -9 c 5.4 -1.15 12.04 -1.24 17 -1 c 1.3 0.06 3.42 1.03 4 2 c 1.08 1.8 1.91 5.34 2 8 c 0.55 15.48 -0.54 31.57 0 48 c 0.49 15.09 3 39.51 3 44 c 0 0.37 -2.3 -1.13 -3 -2 c -3.36 -4.13 -7.45 -9 -10 -14 c -5.98 -11.72 -11.7 -24.52 -16 -37 c -2.61 -7.59 -4.07 -16.34 -5 -24 c -0.34 -2.83 0.95 -8.85 1 -9 c 0.03 -0.1 0.33 4.18 0 6 c -0.3 1.63 -1.11 3.48 -2 5 c -2.39 4.06 -5.8 8.08 -8 12 c -0.63 1.12 -1.48 3.62 -1 4 c 0.69 0.55 4.05 0.28 6 0 c 4.97 -0.71 13.45 -3.12 15 -3 c 0.45 0.03 -1.13 2.99 -2 4 c -0.97 1.13 -2.95 1.8 -4 3 c -3.45 3.95 -9.5 11.79 -10 13 c -0.16 0.38 3.81 -1.3 5 -1 c 0.99 0.25 2.16 3.15 3 3 c 1.86 -0.34 5.34 -3.67 8 -5 c 1.16 -0.58 2.78 -1 4 -1 c 1.22 0 3.08 0.39 4 1 c 0.8 0.54 1.37 3.08 2 3 c 1.25 -0.16 4.6 -2.32 6 -4 c 3.24 -3.89 6.75 -9.11 9 -14 c 3.29 -7.16 5.86 -15.2 8 -23 c 1.52 -5.53 2.27 -15.3 3 -17 c 0.18 -0.42 2.23 3.17 3 3 c 1.41 -0.31 3.82 -4.13 6 -5 c 5.5 -2.2 12.45 -3.69 19 -5 c 12.16 -2.43 23.99 -4.53 36 -6 c 4.28 -0.52 10.15 -0.76 13 0 c 0.98 0.26 2.33 2.95 2 4 c -1.51 4.73 -6.38 11.88 -9 18 c -1.36 3.17 -2.26 6.59 -3 10 c -0.93 4.3 -1.04 9.15 -2 13 c -0.26 1.05 -1.5 3.32 -2 3 c -4.48 -2.82 -16.34 -13.38 -25 -20 c -2.92 -2.24 -5.93 -4.25 -9 -6 c -1.53 -0.87 -3.7 -2 -5 -2 c -0.87 0 -2.57 1.14 -3 2 c -0.99 1.98 -1.8 5.57 -2 8 c -0.1 1.21 0.26 3.95 1 4 c 2.55 0.17 9.38 -2.31 14 -3 c 1.94 -0.29 5.86 -0.82 6 0 c 0.29 1.74 -2.01 8.79 -4 12 c -2 3.23 -6.42 5.95 -9 9 c -0.91 1.07 -2.48 3.84 -2 4 c 1.19 0.4 9.63 -1.96 11 -1 c 1 0.7 -0.28 5.55 -1 8 c -0.88 3 -4.41 7.49 -4 9 c 0.31 1.12 4.69 1.79 7 2 c 4.77 0.43 10.08 -0.48 15 0 c 5.34 0.52 12.92 1.37 16 3 c 1.15 0.61 1.62 4.52 1 6 c -1.62 3.85 -5.81 9.12 -9 13 c -1.29 1.57 -3.5 2.5 -5 4 c -2.48 2.48 -4.98 6.99 -7 8 c -1.02 0.51 -5 -1.13 -5 -2 c 0 -1.66 2.84 -6.84 5 -9 l 12 -8"/><path fill="none" stroke="#000000" stroke-width="2" stroke-linecap="round" stroke-linejoin="round" d="M 219 35 c -0.05 0.19 -3 8.6 -3 11 c 0 0.76 2.33 2.38 3 2 c 4.63 -2.62 13.52 -9.72 20 -15 c 2.56 -2.09 6.89 -7.69 7 -7 c 0.29 1.83 -3.74 17.39 -4 26 c -0.4 13.11 2.83 34.88 2 40 c -0.18 1.09 -5.55 -1.66 -8 -3 c -4.77 -2.6 -12.56 -7.27 -14 -9 c -0.43 -0.52 2.58 -2.58 4 -3 c 3.73 -1.1 8.83 -1.79 13 -2 c 2.24 -0.11 5.98 0.12 7 1 c 0.72 0.62 0.52 3.66 0 5 c -0.97 2.53 -3.1 5.52 -5 8 c -2.42 3.17 -5.08 6.22 -8 9 c -4.47 4.26 -13.57 10.82 -14 12 c -0.23 0.64 6.72 -0.3 10 -1 c 10.77 -2.31 21.57 -5.86 32 -8 l 7 0"/></svg>