<?xml version="1.0" encoding="UTF-8" standalone="no"?><!DOCTYPE svg PUBLIC "-//W3C//DTD SVG 1.1//EN" "http://www.w3.org/Graphics/SVG/1.1/DTD/svg11.dtd"><svg xmlns="http://www.w3.org/2000/svg" version="1.1" width="303" height="167"><path fill="none" stroke="#000000" stroke-width="2" stroke-linecap="round" stroke-linejoin="round" d="M 5 44 c 0.26 -0.02 10.09 -0.27 15 -1 c 4.04 -0.6 7.92 -1.8 12 -3 c 11.05 -3.26 21.91 -6.54 32 -10 l 3 -2"/><path fill="none" stroke="#000000" stroke-width="2" stroke-linecap="round" stroke-linejoin="round" d="M 43 1 c 0.05 0.11 2.7 4.02 3 6 c 0.62 4.13 0.57 9.48 0 14 c -0.74 5.96 -2.1 12.17 -4 18 c -3.1 9.51 -11 28 -11 28"/><path fill="none" stroke="#000000" stroke-width="2" stroke-linecap="round" stroke-linejoin="round" d="M 1 82 c 0.7 -0.14 26.52 -4.95 40 -8 c 4.49 -1.02 13 -4 13 -4"/><path fill="none" stroke="#000000" stroke-width="2" stroke-linecap="round" stroke-linejoin="round" d="M 46 83 c 0 0.37 0.35 13.89 0 21 c -0.33 6.8 -2 20 -2 20"/><path fill="none" stroke="#000000" stroke-width="2" stroke-linecap="round" stroke-linejoin="round" d="M 62 99 l 15 -12"/><path fill="none" stroke="#000000" stroke-width="2" stroke-linecap="round" stroke-linejoin="round" d="M 29 98 c 0.05 0.04 2.9 1.17 3 2 c 0.41 3.48 -0.36 10.08 -1 15 c -0.35 2.7 -0.95 5.53 -2 8 c -2.55 6.04 -5.86 12.51 -9 18 l -3 3"/><path fill="none" stroke="#000000" stroke-width="2" stroke-linecap="round" stroke-linejoin="round" d="M 23 130 c 0.4 0 15.81 -0.67 23 0 c 2.97 0.28 5.9 2.27 9 3 c 8.34 1.96 16.5 3 25 5 c 8.98 2.11 17.55 5.21 26 7 c 2.2 0.47 7 0 7 0"/><path fill="none" stroke="#000000" stroke-width="2" stroke-linecap="round" stroke-linejoin="round" d="M 120 61 c -0.05 0.14 -1.56 5.65 -3 8 c -4.72 7.7 -10.36 15.4 -16 23 c -2.14 2.88 -4.5 5.69 -7 8 c -1.7 1.57 -6 4 -6 4"/><path fill="none" stroke="#000000" stroke-width="2" stroke-linecap="round" stroke-linejoin="round" d="M 86 58 c 0.05 0.05 2.28 1.88 3 3 c 1.51 2.37 2.91 5.19 4 8 c 4.65 12.03 8.2 24.38 13 36 c 1.46 3.54 3.8 6.8 6 10 c 1.47 2.14 3.21 4.21 5 6 l 4 3"/><path fill="none" stroke="#000000" stroke-width="2" stroke-linecap="round" stroke-linejoin="round" d="M 156 31 c 0.14 -0.16 5.03 -6.6 8 -9 c 3.77 -3.05 8.58 -5.55 13 -8 c 1.56 -0.87 3.36 -1.79 5 -2 c 3.36 -0.42 11 0 11 0"/><path fill="none" stroke="#000000" stroke-width="2" stroke-linecap="round" stroke-linejoin="round" d="M 155 57 c -0.02 0.19 -0.31 7.41 -1 11 c -0.97 5.05 -2.37 9.94 -4 15 c -4.88 15.15 -10.3 29.31 -15 44 c -0.62 1.92 -1 6 -1 6"/><path fill="none" stroke="#000000" stroke-width="2" stroke-linecap="round" stroke-linejoin="round" d="M 144 71 c 0.05 -0.05 1.9 -2.31 3 -3 c 1.39 -0.87 3.28 -1.54 5 -2 c 3.25 -0.87 6.68 -1.63 10 -2 c 2.61 -0.29 6.41 -0.87 8 0 c 1.33 0.73 3.07 4.14 3 6 c -0.22 5.93 -3.57 13.98 -4 21 c -0.9 14.78 0.77 32.5 0 45 l -3 4"/><path fill="none" stroke="#000000" stroke-width="2" stroke-linecap="round" stroke-linejoin="round" d="M 159 93 l 1 1"/><path fill="none" stroke="#000000" stroke-width="2" stroke-linecap="round" stroke-linejoin="round" d="M 193 79 c 0.04 0.18 1.88 6.66 2 10 c 0.54 15.74 0 48 0 48"/><path fill="none" stroke="#000000" stroke-width="2" stroke-linecap="round" stroke-linejoin="round" d="M 200 66 c 0.12 -0.11 4.53 -4.61 7 -6 c 2.54 -1.43 7.11 -3.44 9 -3 c 1.44 0.33 3.82 3.94 4 6 c 1.28 14.28 -0.11 33.1 1 50 c 0.92 13.96 5 36.08 5 41 l -5 -2"/><path fill="none" stroke="#000000" stroke-width="2" stroke-linecap="round" stroke-linejoin="round" d="M 200 97 l 14 1"/><path fill="none" stroke="#000000" stroke-width="2" stroke-linecap="round" stroke-linejoin="round" d="M 273 3 c -0.04 0.14 -0.62 5.93 -2 8 c -5.37 8.05 -13.77 16.61 -20 25 c -1.3 1.76 -3 6 -3 6"/><path fill="none" stroke="#000000" stroke-width="2" stroke-linecap="round" stroke-linejoin="round" d="M 248 39 c -0.02 0.07 -0.96 2.67 -1 4 c -0.29 10.32 0 32 0 32"/><path fill="none" stroke="#000000" stroke-width="2" stroke-linecap="round" stroke-linejoin="round" d="M 262 46 c 0.14 0.38 4.96 16.58 8 22 c 0.87 1.55 4.04 2.61 6 3 c 2.63 0.53 6.43 0.78 9 0 c 4.47 -1.36 9.76 -4.51 14 -7 l 3 -3"/><path fill="none" stroke="#000000" stroke-width="2" stroke-linecap="round" stroke-linejoin="round" d="M 296 37 c -0.16 0.33 -5.5 13.1 -9 19 c -2.73 4.6 -6.41 8.73 -10 13 c -3.56 4.24 -11 12 -11 12"/><path fill="none" stroke="#000000" stroke-width="2" stroke-linecap="round" stroke-linejoin="round" d="M 216 109 c 0.18 0.02 6.59 0.93 10 1 c 14.23 0.27 28.46 0.54 42 0 c 2.66 -0.11 5.46 -1.03 8 -2 c 4.4 -1.68 8.87 -3.81 13 -6 c 1.44 -0.76 2.9 -1.9 4 -3 l 2 -3"/><path fill="none" stroke="#000000" stroke-width="2" stroke-linecap="round" stroke-linejoin="round" d="M 262 76 c 0.02 0.12 0.94 4.64 1 7 c 0.28 11.02 0.48 22.02 0 33 c -0.19 4.38 -1.82 8.62 -2 13 c -0.49 12.31 0 37 0 37"/></svg>