<?xml version="1.0" encoding="UTF-8" standalone="no"?><!DOCTYPE svg PUBLIC "-//W3C//DTD SVG 1.1//EN" "http://www.w3.org/Graphics/SVG/1.1/DTD/svg11.dtd"><svg xmlns="http://www.w3.org/2000/svg" version="1.1" width="317" height="198"><path fill="none" stroke="#000000" stroke-width="2" stroke-linecap="round" stroke-linejoin="round" d="M 28 51 c 0.09 -0.09 3.05 -3.98 5 -5 c 12.45 -6.5 26.85 -12.71 41 -19 c 4.36 -1.94 9.04 -4.17 13 -5 c 1.73 -0.36 6 1 6 1"/><path fill="none" stroke="#000000" stroke-width="2" stroke-linecap="round" stroke-linejoin="round" d="M 21 100 c 0.16 -0.14 5.8 -6.02 9 -8 c 3.46 -2.14 7.91 -4.17 12 -5 c 11.74 -2.4 24.76 -2.92 37 -5 c 3.42 -0.58 6.88 -1.75 10 -3 c 1.74 -0.7 3.78 -1.78 5 -3 l 3 -5"/><path fill="none" stroke="#000000" stroke-width="2" stroke-linecap="round" stroke-linejoin="round" d="M 72 55 c 0 0.32 0.5 12.05 0 18 c -0.5 6.03 -1.34 12.18 -3 18 c -3.66 12.81 -8.16 26.04 -13 38 c -1.3 3.22 -6 9 -6 9"/><path fill="none" stroke="#000000" stroke-width="2" stroke-linecap="round" stroke-linejoin="round" d="M 1 163 c 0.11 -0.07 3.91 -2.95 6 -4 c 2.48 -1.24 5.21 -2.2 8 -3 c 13.85 -3.96 26.75 -7.44 41 -11 c 13.44 -3.36 25.62 -6.4 39 -9 c 9.46 -1.83 28 -4 28 -4"/><path fill="none" stroke="#000000" stroke-width="2" stroke-linecap="round" stroke-linejoin="round" d="M 158 13 l 7 34"/><path fill="none" stroke="#000000" stroke-width="2" stroke-linecap="round" stroke-linejoin="round" d="M 133 73 l 6 22"/><path fill="none" stroke="#000000" stroke-width="2" stroke-linecap="round" stroke-linejoin="round" d="M 111 148 c 0.16 -0.33 5.38 -13.32 9 -19 c 3.17 -4.98 7.72 -9.39 12 -14 c 4.6 -4.95 9.03 -9.56 14 -14 c 4.47 -3.99 14 -11 14 -11"/><path fill="none" stroke="#000000" stroke-width="2" stroke-linecap="round" stroke-linejoin="round" d="M 166 65 c 0.21 -0.14 7.72 -6.22 12 -8 c 12.85 -5.33 27.61 -8.74 41 -14 c 5.25 -2.06 15 -8 15 -8"/><path fill="none" stroke="#000000" stroke-width="2" stroke-linecap="round" stroke-linejoin="round" d="M 202 21 c -0.12 0.25 -5.18 9.21 -7 14 c -1.8 4.75 -2.86 9.86 -4 15 c -0.9 4.03 -1.62 7.98 -2 12 c -0.28 2.97 -0.41 6.35 0 9 l 2 4"/><path fill="none" stroke="#000000" stroke-width="2" stroke-linecap="round" stroke-linejoin="round" d="M 223 1 c -0.12 0.35 -5.17 13.18 -7 20 c -1.85 6.89 -2.25 13.99 -4 21 c -1.97 7.88 -4.86 15.14 -7 23 c -0.91 3.34 -2 10 -2 10"/><path fill="none" stroke="#000000" stroke-width="2" stroke-linecap="round" stroke-linejoin="round" d="M 171 97 c 0.07 -0.09 2.47 -3.58 4 -5 c 3.05 -2.84 6.47 -5.59 10 -8 c 3.83 -2.61 7.8 -5.03 12 -7 c 6.51 -3.05 13.39 -5.8 20 -8 c 2.17 -0.72 4.83 -1 7 -1 l 4 1"/><path fill="none" stroke="#000000" stroke-width="2" stroke-linecap="round" stroke-linejoin="round" d="M 189 111 c -0.28 0.3 -11.51 10.81 -16 17 c -7.69 10.59 -14.47 22.51 -21 34 c -1.76 3.1 -4 10 -4 10"/><path fill="none" stroke="#000000" stroke-width="2" stroke-linecap="round" stroke-linejoin="round" d="M 200 120 c 0.14 0.28 4.87 11.5 8 16 c 1.86 2.68 8 7 8 7"/><path fill="none" stroke="#000000" stroke-width="2" stroke-linecap="round" stroke-linejoin="round" d="M 258 38 c 0.07 -0.14 2.2 -6.34 4 -8 c 1.98 -1.83 5.87 -2.88 9 -4 c 6.33 -2.26 12.59 -4.2 19 -6 c 1.96 -0.55 4.39 -1.18 6 -1 l 3 2"/><path fill="none" stroke="#000000" stroke-width="2" stroke-linecap="round" stroke-linejoin="round" d="M 240 64 c -0.07 0.32 -3.58 12.1 -4 18 c -0.55 7.69 1 24 1 24"/><path fill="none" stroke="#000000" stroke-width="2" stroke-linecap="round" stroke-linejoin="round" d="M 241 102 c 0.04 -0.25 0.74 -9.58 2 -14 c 2.01 -7.03 4.7 -15.23 8 -21 c 1.56 -2.73 5.18 -4.88 8 -7 c 2.51 -1.88 5.24 -3.7 8 -5 c 2.78 -1.31 5.97 -2.29 9 -3 c 2.57 -0.61 5.41 -1.11 8 -1 c 4.86 0.21 10.07 1.01 15 2 c 3.4 0.68 6.88 1.75 10 3 c 1.74 0.7 3.67 1.86 5 3 c 0.82 0.71 2.07 2.09 2 3 c -0.2 2.62 -1.62 6.93 -3 10 c -1.54 3.43 -3.72 6.91 -6 10 c -2.35 3.19 -5.15 6.15 -8 9 l -7 6"/><path fill="none" stroke="#000000" stroke-width="2" stroke-linecap="round" stroke-linejoin="round" d="M 290 34 c -0.12 0.23 -5.51 8.53 -7 13 c -2.37 7.12 -3.66 15.07 -5 23 c -2.07 12.24 -3.03 24.19 -5 36 c -0.34 2.06 -2 6 -2 6"/><path fill="none" stroke="#000000" stroke-width="2" stroke-linecap="round" stroke-linejoin="round" d="M 261 75 l 11 -3"/><path fill="none" stroke="#000000" stroke-width="2" stroke-linecap="round" stroke-linejoin="round" d="M 247 96 c 0.21 -0.16 7.8 -7.22 12 -9 c 6.05 -2.57 14.56 -4.36 21 -5 c 2.75 -0.27 9 2 9 2"/><path fill="none" stroke="#000000" stroke-width="2" stroke-linecap="round" stroke-linejoin="round" d="M 247 136 c -0.02 0.38 0.02 14.85 -1 22 c -0.96 6.69 -5 20 -5 20"/><path fill="none" stroke="#000000" stroke-width="2" stroke-linecap="round" stroke-linejoin="round" d="M 247 147 c 0.05 -0.12 1.57 -5.21 3 -7 c 2.26 -2.83 5.81 -5.65 9 -8 c 3.09 -2.28 6.54 -4.43 10 -6 c 3.75 -1.7 7.9 -2.88 12 -4 c 3.31 -0.9 6.56 -1.43 10 -2 c 2.72 -0.45 5.4 -1 8 -1 c 2.6 0 6.85 0 8 1 c 0.85 0.75 0.65 4.37 0 6 c -1.75 4.37 -5.16 9.15 -8 14 c -5.52 9.43 -10.18 18.17 -16 27 c -3.97 6.02 -13 17 -13 17"/><path fill="none" stroke="#000000" stroke-width="2" stroke-linecap="round" stroke-linejoin="round" d="M 248 164 l 37 -10"/><path fill="none" stroke="#000000" stroke-width="2" stroke-linecap="round" stroke-linejoin="round" d="M 275 139 l -20 50"/><path fill="none" stroke="#000000" stroke-width="2" stroke-linecap="round" stroke-linejoin="round" d="M 243 197 c 0.07 -0.03 2.62 -1.69 4 -2 c 5.64 -1.28 12.08 -1.68 18 -3 c 3.08 -0.68 9 -3 9 -3"/></svg>