<?xml version="1.0" encoding="UTF-8" standalone="no"?><!DOCTYPE svg PUBLIC "-//W3C//DTD SVG 1.1//EN" "http://www.w3.org/Graphics/SVG/1.1/DTD/svg11.dtd"><svg xmlns="http://www.w3.org/2000/svg" version="1.1" width="357" height="192"><path fill="none" stroke="#000000" stroke-width="2" stroke-linecap="round" stroke-linejoin="round" d="M 21 41 c 0.07 -0.12 2.16 -5.71 4 -7 c 3.99 -2.79 10.58 -4.97 16 -7 c 2.56 -0.96 5.36 -1.67 8 -2 c 2.56 -0.32 5.9 -0.65 8 0 c 1.68 0.52 3.97 2.45 5 4 c 1.38 2.06 2.91 5.45 3 8 c 0.21 5.7 -0.42 13.08 -2 19 c -2.3 8.63 -6.09 17.51 -10 26 c -3.83 8.32 -8.17 16.28 -13 24 c -3.54 5.66 -7.64 11.07 -12 16 c -3.24 3.66 -7.22 7.42 -11 10 c -2.17 1.48 -5.92 3.15 -8 3 c -1.76 -0.13 -4.93 -2.39 -6 -4 c -1.22 -1.84 -2.11 -5.54 -2 -8 c 0.19 -4.28 1.56 -9.52 3 -14 c 1.53 -4.76 3.46 -9.88 6 -14 c 2.6 -4.23 6.37 -8.55 10 -12 c 2.84 -2.69 6.62 -5.31 10 -7 c 2.28 -1.14 5.57 -1.8 8 -2 c 1.21 -0.1 2.81 0.47 4 1 c 1.69 0.75 3.72 1.72 5 3 c 2.81 2.81 5.89 6.63 8 10 c 1.04 1.67 1.77 4.03 2 6 c 0.4 3.43 0.39 7.38 0 11 c -0.61 5.67 -1.41 11.6 -3 17 c -1.69 5.75 -4.46 11.19 -7 17 c -2.29 5.23 -4.25 10.41 -7 15 c -2.13 3.55 -5.14 6.76 -8 10 c -2.21 2.51 -4.5 5.43 -7 7 c -2.4 1.5 -9.07 3.15 -9 3 c 0.09 -0.17 6.51 -3.81 10 -5 c 10.08 -3.44 20.36 -6.23 31 -9 c 5.04 -1.31 10 -2.64 15 -3 l 27 0"/><path fill="none" stroke="#000000" stroke-width="2" stroke-linecap="round" stroke-linejoin="round" d="M 121 46 c -0.03 -0.07 -2.03 -4.07 -2 -4 c 0.08 0.21 4.77 8.24 5 12 c 0.37 5.84 -2.69 13.36 -3 20 c -0.35 7.56 1 15.27 1 23 c 0 4.04 -0.57 7.85 -1 12 c -0.61 5.89 -0.72 11.5 -2 17 c -2.03 8.74 -5.07 17.47 -8 26 c -0.72 2.1 -3.07 6.1 -3 6 c 0.59 -0.87 21.39 -33.34 33 -50 c 4 -5.73 8.3 -10.95 13 -16 c 4.35 -4.68 9.06 -8.79 14 -13 c 4.24 -3.61 8.32 -7.3 13 -10 c 12.52 -7.22 39 -20 39 -20"/><path fill="none" stroke="#000000" stroke-width="2" stroke-linecap="round" stroke-linejoin="round" d="M 172 31 c -0.05 0.19 -2.53 7.26 -3 11 c -2.18 17.48 -3.59 34.98 -5 53 c -0.29 3.72 -0.39 7.51 0 11 c 0.26 2.31 0.98 5.64 2 7 l 4 1"/><path fill="none" stroke="#000000" stroke-width="2" stroke-linecap="round" stroke-linejoin="round" d="M 202 8 c -0.05 0.32 -2.51 11.97 -3 18 c -0.51 6.28 0.36 12.62 0 19 c -0.31 5.41 -0.85 10.71 -2 16 c -2.88 13.21 -10 39 -10 39"/><path fill="none" stroke="#000000" stroke-width="2" stroke-linecap="round" stroke-linejoin="round" d="M 146 130 c 0.16 -0.12 5.78 -4.95 9 -7 c 7.86 -5 16.13 -8.8 24 -14 c 11.16 -7.37 20.9 -15.44 32 -23 c 4.93 -3.35 15 -9 15 -9"/><path fill="none" stroke="#000000" stroke-width="2" stroke-linecap="round" stroke-linejoin="round" d="M 190 128 c -0.09 -0.02 -3.78 -1.47 -5 -1 c -2.39 0.92 -5.5 3.78 -8 6 c -3.53 3.14 -7.01 6.45 -10 10 c -2.29 2.71 -3.77 6.11 -6 9 c -3.51 4.54 -7.65 8.63 -11 13 l -2 4"/><path fill="none" stroke="#000000" stroke-width="2" stroke-linecap="round" stroke-linejoin="round" d="M 200 134 c 0.12 0.16 5.08 5.86 7 9 c 1.66 2.71 2.92 5.9 4 9 c 1.25 3.58 1.51 7.64 3 11 c 2.41 5.41 5.82 11.68 9 16 c 1.01 1.37 3.38 2.51 5 3 l 5 0"/><path fill="none" stroke="#000000" stroke-width="2" stroke-linecap="round" stroke-linejoin="round" d="M 267 37 c 0.58 -0.3 22.18 -10.69 33 -17 c 9.46 -5.52 18.37 -12.71 27 -18 c 1.1 -0.67 4 -1 4 -1"/><path fill="none" stroke="#000000" stroke-width="2" stroke-linecap="round" stroke-linejoin="round" d="M 249 81 l -2 22"/><path fill="none" stroke="#000000" stroke-width="2" stroke-linecap="round" stroke-linejoin="round" d="M 243 108 c 0.11 -0.31 3.15 -12.92 6 -18 c 2.77 -4.93 7.68 -9.52 12 -14 c 4.81 -4.99 9.47 -10.45 15 -14 c 11.58 -7.43 25.51 -15.71 38 -20 c 8.48 -2.91 19.5 -2.5 29 -3 c 2.95 -0.16 6.48 0.23 9 1 c 1.39 0.43 3.75 1.84 4 3 c 0.55 2.56 -0.14 7.58 -1 11 c -1.08 4.31 -2.72 9.29 -5 13 c -2.79 4.53 -7.78 8.45 -11 13 c -2.37 3.35 -3.79 7.68 -6 11 l -4 4"/><path fill="none" stroke="#000000" stroke-width="2" stroke-linecap="round" stroke-linejoin="round" d="M 296 29 c 0 0.68 0.25 25.64 0 39 c -0.1 5.15 -0.47 9.89 -1 15 c -0.5 4.81 -0.69 9.75 -2 14 c -1.24 4.03 -6 12 -6 12"/><path fill="none" stroke="#000000" stroke-width="2" stroke-linecap="round" stroke-linejoin="round" d="M 268 71 c 0.18 -0.05 6.59 -2.38 10 -3 c 7.58 -1.38 16.42 -2.76 23 -3 c 1.27 -0.05 3.77 1.21 4 2 c 0.27 0.95 -1.09 3.49 -2 5 c -3.03 5.05 -6.39 9.98 -10 15 c -4.28 5.96 -8.31 11.47 -13 17 c -4.81 5.67 -15.51 16.19 -15 16 c 0.96 -0.35 22.7 -16.01 34 -23 l 8 -3"/><path fill="none" stroke="#000000" stroke-width="2" stroke-linecap="round" stroke-linejoin="round" d="M 243 137 c 0.02 0.31 0.26 12.05 1 18 c 0.59 4.73 1.67 10.46 3 14 c 0.33 0.89 2.27 2.18 3 2 c 1.3 -0.33 4.16 -2.33 5 -4 c 3.93 -7.85 6.73 -19.68 11 -28 c 1.71 -3.33 5.14 -7.25 8 -9 c 2.42 -1.48 6.84 -2.11 10 -2 c 5.65 0.2 11.87 1.77 18 3 c 5.87 1.17 12.14 1.94 17 4 c 3.17 1.34 7.57 4.42 9 7 c 1.39 2.5 1.35 7.71 1 11 c -0.27 2.55 -1.78 5.42 -3 8 c -1.79 3.79 -3.77 7.46 -6 11 c -1.78 2.82 -3.87 5.29 -6 8 c -1.66 2.11 -3.28 4.66 -5 6 l -4 1"/><path fill="none" stroke="#000000" stroke-width="2" stroke-linecap="round" stroke-linejoin="round" d="M 275 162 c 0.42 -0.09 16.07 -2.87 24 -5 c 5.83 -1.57 17 -6 17 -6"/><path fill="none" stroke="#000000" stroke-width="2" stroke-linecap="round" stroke-linejoin="round" d="M 294 144 c -0.09 0.11 -3.6 3.89 -5 6 c -1.21 1.81 -2.27 3.94 -3 6 c -0.9 2.53 -1.03 5.5 -2 8 c -1.32 3.39 -3.17 6.8 -5 10 c -0.82 1.43 -1.8 2.97 -3 4 c -3.27 2.8 -7.78 5.27 -11 8 c -0.85 0.72 -2.12 2.38 -2 3 c 0.12 0.62 2.09 2 3 2 c 1.85 0 4.62 -1.66 7 -2 c 9.22 -1.32 19.79 -3.22 28 -3 l 9 4"/></svg>