<?xml version="1.0" encoding="UTF-8" standalone="no"?><!DOCTYPE svg PUBLIC "-//W3C//DTD SVG 1.1//EN" "http://www.w3.org/Graphics/SVG/1.1/DTD/svg11.dtd"><svg xmlns="http://www.w3.org/2000/svg" version="1.1" width="336" height="230"><path fill="none" stroke="#000000" stroke-width="2" stroke-linecap="round" stroke-linejoin="round" d="M 14 44 c 0.07 -0.14 2.18 -6.31 4 -8 c 2.28 -2.12 6.74 -3.06 10 -5 c 9.3 -5.53 17.66 -11.54 27 -17 c 4.58 -2.68 9.15 -4.97 14 -7 c 5.59 -2.34 12.21 -5.13 17 -6 c 1.43 -0.26 5.06 1.07 5 2 c -0.16 2.62 -3.17 9.96 -6 14 c -19.25 27.45 -41.62 54.36 -62 83 c -6.44 9.06 -11.15 18.25 -17 28 c -1.44 2.4 -3.03 4.66 -4 7 c -0.62 1.48 -1.17 3.67 -1 5 c 0.12 0.94 1.21 2.82 2 3 l 7 -1"/><path fill="none" stroke="#000000" stroke-width="2" stroke-linecap="round" stroke-linejoin="round" d="M 37 108 c 0.02 0.16 0.9 5.94 1 9 c 0.24 7.42 0.27 14.45 0 22 c -0.42 11.69 -2 34 -2 34"/><path fill="none" stroke="#000000" stroke-width="2" stroke-linecap="round" stroke-linejoin="round" d="M 92 54 c -0.09 1 -3.7 37.57 -5 57 c -0.41 6.11 0.37 11.9 0 18 c -0.65 10.89 -3 32 -3 32"/><path fill="none" stroke="#000000" stroke-width="2" stroke-linecap="round" stroke-linejoin="round" d="M 60 120 c -0.09 -0.12 -3.71 -4.6 -5 -7 c -0.95 -1.76 -1.68 -3.98 -2 -6 c -0.66 -4.16 -1.4 -9.24 -1 -13 c 0.2 -1.93 1.79 -4.19 3 -6 c 1.4 -2.11 3.19 -4.37 5 -6 c 1.35 -1.22 3.31 -2.32 5 -3 c 1.48 -0.59 4.45 -1.55 5 -1 c 0.65 0.65 0.47 4.24 0 6 c -0.77 2.89 -2.31 6.25 -4 9 c -3.58 5.81 -8.38 11.31 -12 17 c -0.94 1.47 -2.37 4.13 -2 5 c 0.37 0.87 3.41 1.89 5 2 c 2.67 0.19 7.65 -1.6 9 -1 c 0.74 0.33 0.61 3.71 0 5 c -1.75 3.71 -5.07 8.1 -8 12 c -3.17 4.23 -6.4 8.04 -10 12 c -6.68 7.35 -13.93 14.1 -20 21 c -0.94 1.06 -1.92 2.67 -2 4 c -0.53 8.93 1.87 21.78 0 30 c -1.07 4.71 -6.55 9.81 -10 14 c -1 1.22 -4.08 3.05 -4 3 c 0.25 -0.15 9.49 -5.65 14 -9 c 7.33 -5.44 13.64 -11.52 21 -17 c 5.9 -4.38 11.68 -8.33 18 -12 c 8.23 -4.79 17.29 -9.77 25 -13 c 1.64 -0.69 5.59 -0.9 6 0 c 0.75 1.66 0.39 8.22 -1 11 c -2.15 4.29 -7.03 8.87 -11 13 c -4.12 4.29 -8.4 8.28 -13 12 c -4.11 3.32 -8.49 6.25 -13 9 l -10 5"/><path fill="none" stroke="#000000" stroke-width="2" stroke-linecap="round" stroke-linejoin="round" d="M 43 192 c 0.19 -0.1 7.44 -5.03 11 -6 c 3.12 -0.85 7.51 -0.48 11 0 c 3.62 0.49 7.41 1.71 11 3 c 4.79 1.73 9.53 3.55 14 6 c 9.61 5.26 18.36 11.74 28 17 c 5.14 2.8 10.6 5.41 16 7 c 5.65 1.66 18 3 18 3"/><path fill="none" stroke="#000000" stroke-width="2" stroke-linecap="round" stroke-linejoin="round" d="M 209 91 c 0.12 -0.11 4.47 -4.43 7 -6 c 4.29 -2.66 9.11 -5 14 -7 c 9.98 -4.08 19.8 -7.88 30 -11 c 6.2 -1.9 16.39 -4.73 19 -4 c 1.22 0.34 0.73 7.45 -1 9 c -11.11 9.95 -31.62 22.39 -47 34 c -2.25 1.7 -4.59 3.99 -6 6 c -0.69 0.98 -1.59 3.73 -1 4 c 1.72 0.78 8.12 1.16 12 1 c 3.92 -0.16 7.99 -1.58 12 -2 c 2.31 -0.24 5.64 -0.82 7 0 c 1.3 0.78 3.68 4.7 3 6 c -2.28 4.38 -9.52 11.97 -15 17 c -6.38 5.85 -13.63 10.69 -21 16 c -7.43 5.36 -14.33 9.96 -22 15 c -4.4 2.89 -8.54 5.55 -13 8 c -2.23 1.22 -7.13 3 -7 3 c 0.17 0 6.15 -1.66 9 -3 c 8.48 -3.99 16.28 -9.44 25 -13 c 16.74 -6.83 33.56 -12.27 51 -18 l 16 -4"/><path fill="none" stroke="#000000" stroke-width="2" stroke-linecap="round" stroke-linejoin="round" d="M 249 44 c 0.14 0.12 7.52 4.3 8 7 c 1.97 11.17 1 28.86 1 44 c 0 11.36 0.08 21.87 -1 33 c -1.97 20.4 -5.53 39.29 -8 60 c -0.98 8.24 -1.6 15.8 -2 24 c -0.28 5.79 0 17 0 17"/><path fill="none" stroke="#000000" stroke-width="2" stroke-linecap="round" stroke-linejoin="round" d="M 297 80 c -0.02 0.12 -0.92 4.62 -1 7 c -0.6 18.82 -0.14 36.75 -1 56 c -0.86 19.3 -4 56 -4 56"/><path fill="none" stroke="#000000" stroke-width="2" stroke-linecap="round" stroke-linejoin="round" d="M 293 81 c 0.11 -0.16 3.62 -6.62 6 -9 c 2.99 -2.99 7.19 -5.92 11 -8 c 3.28 -1.79 7.43 -3.29 11 -4 c 2.75 -0.55 6.45 -0.55 9 0 c 1.65 0.35 4.59 1.69 5 3 c 0.91 2.92 1.18 9.47 0 13 c -1.51 4.52 -5.54 9.91 -9 14 c -3.68 4.34 -8.73 7.73 -13 12 c -4.61 4.61 -9.73 9.56 -13 14 c -0.87 1.18 -1.7 4.65 -1 5 c 1.51 0.75 7.34 -0.29 11 0 c 4.71 0.38 10.22 0.89 14 2 c 1.13 0.33 2.75 1.91 3 3 c 0.59 2.56 0.89 7.13 0 10 c -1.87 6.04 -5.35 13.23 -9 19 c -4.2 6.65 -15 19 -15 19"/></svg>