<?xml version="1.0" encoding="UTF-8" standalone="no"?><!DOCTYPE svg PUBLIC "-//W3C//DTD SVG 1.1//EN" "http://www.w3.org/Graphics/SVG/1.1/DTD/svg11.dtd"><svg xmlns="http://www.w3.org/2000/svg" version="1.1" width="144" height="121"><path fill="none" stroke="#000000" stroke-width="2" stroke-linecap="round" stroke-linejoin="round" d="M 106 -162 l 1 1"/><path fill="none" stroke="#000000" stroke-width="2" stroke-linecap="round" stroke-linejoin="round" d="M 4 -167 c -0.04 0.05 -1.76 1.96 -2 3 c -0.67 2.89 -1 6.7 -1 10 c 0 3.63 0.11 7.78 1 11 c 0.65 2.35 2.52 5.52 4 7 c 0.76 0.76 2.71 1 4 1 c 3.45 0 7.4 -0.26 11 -1 c 9.41 -1.93 18.4 -4.96 28 -7 c 6.4 -1.36 12.54 -2.37 19 -3 c 7.4 -0.72 14.54 -1.13 22 -1 c 11.87 0.21 25.07 0.34 35 2 c 2.44 0.41 7.75 3.9 7 5 c -3.62 5.35 -20.02 18.81 -30 29 c -6.1 6.23 -11.82 12.37 -17 19 c -3.1 3.97 -7.85 12.78 -8 13 l 2 -4"/><path fill="none" stroke="#000000" stroke-width="2" stroke-linecap="round" stroke-linejoin="round" d="M 143 -198 c -0.45 0.88 -16.59 33.06 -26 50 c -9.51 17.12 -29 49 -29 49"/></svg>