<?xml version="1.0" encoding="UTF-8" standalone="no"?><!DOCTYPE svg PUBLIC "-//W3C//DTD SVG 1.1//EN" "http://www.w3.org/Graphics/SVG/1.1/DTD/svg11.dtd"><svg xmlns="http://www.w3.org/2000/svg" version="1.1" width="166" height="167"><path fill="none" stroke="#000000" stroke-width="2" stroke-linecap="round" stroke-linejoin="round" d="M 79 64 l 1 1"/><path fill="none" stroke="#000000" stroke-width="2" stroke-linecap="round" stroke-linejoin="round" d="M 2 43 l 4 32"/><path fill="none" stroke="#000000" stroke-width="2" stroke-linecap="round" stroke-linejoin="round" d="M 1 59 c 0.02 -0.07 0.34 -2.92 1 -4 c 2.76 -4.52 6.34 -9.47 10 -14 c 4.82 -5.97 9.69 -11.48 15 -17 c 3.48 -3.62 7.11 -6.82 11 -10 c 3.56 -2.91 7.89 -6.55 11 -8 c 0.94 -0.44 3.85 0.21 4 1 c 0.54 2.88 -0.27 10.09 -1 15 c -0.6 4.04 -2.64 8.18 -3 12 c -0.27 2.8 0.11 6.68 1 9 c 0.56 1.45 2.52 3.14 4 4 c 2.23 1.3 5.38 2.61 8 3 c 3.68 0.55 12 -1.24 12 0 c 0 2.07 -7.32 11.4 -12 16 c -14.41 14.16 -43.15 38 -46 41 c -0.37 0.39 5.73 0.03 8 -1 c 11.48 -5.22 24.83 -12.58 36 -19 c 1.55 -0.89 3.9 -2.75 4 -4 c 0.16 -1.89 -1.33 -6.55 -3 -8 c -2.54 -2.2 -9.67 -5.44 -12 -5 c -1.61 0.3 -3.56 5.24 -4 8 c -3.95 24.56 -10 79 -10 79"/><path fill="none" stroke="#000000" stroke-width="2" stroke-linecap="round" stroke-linejoin="round" d="M 30 113 l -3 12"/><path fill="none" stroke="#000000" stroke-width="2" stroke-linecap="round" stroke-linejoin="round" d="M 33 128 c 0.42 0.1 16.45 4.82 24 6 c 2.46 0.38 8 -1 8 -1"/><path fill="none" stroke="#000000" stroke-width="2" stroke-linecap="round" stroke-linejoin="round" d="M 111 39 c 0.02 0.07 1.14 2.76 1 4 c -0.78 6.72 -4.45 22.34 -4 22 c 0.61 -0.46 7.64 -18.6 12 -28 c 2.11 -4.56 4.27 -9.08 7 -13 c 2.48 -3.57 5.75 -6.91 9 -10 c 3.43 -3.26 7.18 -6.24 11 -9 c 2.17 -1.56 5.67 -4.27 7 -4 c 1.11 0.22 3 4.17 3 6 c 0 3.64 -1.69 8.74 -3 13 c -1.37 4.45 -3.87 8.68 -5 13 c -0.81 3.11 -1.38 7.34 -1 10 c 0.19 1.32 1.87 2.87 3 4 c 1.13 1.13 2.6 2.3 4 3 c 1.78 0.89 4.51 1.01 6 2 c 1.18 0.78 3.35 3.08 3 4 c -0.85 2.22 -4.9 6.66 -8 9 c -12.79 9.65 -27.44 18.05 -41 28 c -6.79 4.98 -16.94 13.53 -19 16 c -0.37 0.45 2.72 1.91 4 2 c 2.88 0.21 6.98 0.05 10 -1 c 13.63 -4.72 27.84 -11.85 42 -17 c 4.17 -1.52 11.02 -1.68 13 -3 c 0.76 -0.5 -0.22 -3.73 -1 -5 c -1.63 -2.64 -4.41 -6.02 -7 -8 c -2.72 -2.08 -6.67 -3.67 -10 -5 c -1.52 -0.61 -4.19 -1.61 -5 -1 c -1.21 0.91 -2.23 4.58 -3 7 c -1.57 4.94 -3 9.83 -4 15 c -2.74 14.19 -5.07 27.73 -7 42 c -0.77 5.71 -0.78 11.16 -1 17 c -0.13 3.43 -0.23 6.78 0 10 l 1 4"/><path fill="none" stroke="#000000" stroke-width="2" stroke-linecap="round" stroke-linejoin="round" d="M 117 111 c -0.04 0.16 -0.82 6.32 -2 9 c -2.35 5.33 -9 16 -9 16"/><path fill="none" stroke="#000000" stroke-width="2" stroke-linecap="round" stroke-linejoin="round" d="M 139 118 l 19 22"/></svg>