<?xml version="1.0" encoding="UTF-8" standalone="no"?><!DOCTYPE svg PUBLIC "-//W3C//DTD SVG 1.1//EN" "http://www.w3.org/Graphics/SVG/1.1/DTD/svg11.dtd"><svg xmlns="http://www.w3.org/2000/svg" version="1.1" width="305" height="210"><path fill="none" stroke="#000000" stroke-width="2" stroke-linecap="round" stroke-linejoin="round" d="M 65 16 l 7 6"/><path fill="none" stroke="#000000" stroke-width="2" stroke-linecap="round" stroke-linejoin="round" d="M 21 90 c 0.12 -0.09 4.46 -3.69 7 -5 c 19.39 -9.99 39.16 -18.61 59 -29 c 8.8 -4.61 16.57 -10.23 25 -15 c 1.56 -0.88 4.39 -2.51 5 -2 c 0.81 0.67 1.16 4.75 1 7 c -0.48 6.74 -2.24 13.95 -3 21 c -0.25 2.33 -0.33 4.83 0 7 c 0.3 1.96 2.25 4.4 2 6 c -0.31 2.04 -2.25 5.95 -4 7 c -2.42 1.45 -7.32 1.71 -11 2 c -4.6 0.37 -12.48 0.83 -14 0 c -0.73 -0.4 1.67 -4.27 3 -6 c 9.45 -12.31 19.9 -24.02 30 -37 c 9.24 -11.88 17 -23.94 26 -35 c 2.49 -3.06 5.94 -6.09 9 -8 c 1.85 -1.16 5.48 -2.17 7 -2 c 0.75 0.08 2.24 2.23 2 3 c -0.77 2.5 -4.39 6.51 -6 10 c -2.36 5.12 -5.82 12.67 -6 16 c -0.06 1.14 3.74 3.4 5 3 c 3.59 -1.13 13.78 -9.22 14 -9 c 0.22 0.22 -7.61 7.76 -12 11 c -17.43 12.87 -34.56 24.78 -53 37 c -9.98 6.62 -19.48 12.27 -30 18 c -16.54 9 -32.12 16.82 -49 25 c -5.64 2.73 -11.27 5.09 -17 7 c -3.18 1.06 -10.17 2.05 -10 2 c 0.9 -0.28 34.75 -8.8 52 -15 c 29.89 -10.75 57.14 -23.64 87 -35 c 8.66 -3.3 17.16 -6 26 -8 c 8.87 -2.01 17.79 -3.25 27 -4 c 15.86 -1.29 46.18 -1.96 47 -2 l -8 0"/><path fill="none" stroke="#000000" stroke-width="2" stroke-linecap="round" stroke-linejoin="round" d="M 86 81 c -0.03 0.07 -1.88 2.75 -2 4 c -0.17 1.69 0.17 4.45 1 6 c 1.27 2.35 3.81 4.98 6 7 c 2.04 1.88 4.74 4.13 7 5 c 1.57 0.61 4.97 0.95 6 0 c 2.39 -2.2 5.57 -7.79 7 -12 c 4.05 -11.9 9.43 -36.49 10 -38 c 0.13 -0.35 1.64 6.42 1 9 c -1.47 5.87 -5.03 12.59 -8 19 c -3.54 7.65 -6.91 14.67 -11 22 c -5.82 10.43 -16.9 25.74 -18 30 c -0.32 1.23 7.02 1.61 10 1 c 7.51 -1.55 15.94 -5.58 24 -8 c 1.94 -0.58 5.54 -1.57 6 -1 c 0.48 0.6 -0.89 4.41 -2 6 c -3.25 4.64 -7.64 9.46 -12 14 c -11.7 12.2 -24.04 25.11 -35 35 l -6 2"/><path fill="none" stroke="#000000" stroke-width="2" stroke-linecap="round" stroke-linejoin="round" d="M 126 127 c 0.1 0.09 4.82 3.03 6 5 c 2.45 4.08 6 15 6 15"/><path fill="none" stroke="#000000" stroke-width="2" stroke-linecap="round" stroke-linejoin="round" d="M 136 116 l 4 33"/><path fill="none" stroke="#000000" stroke-width="2" stroke-linecap="round" stroke-linejoin="round" d="M 146 105 c 0.05 -0.07 1.78 -3.66 3 -4 c 3.68 -1.02 10.47 0.28 15 -1 c 7.84 -2.21 16.15 -6.3 24 -10 c 3.52 -1.66 6.54 -4.27 10 -6 c 3.2 -1.6 6.67 -3.24 10 -4 c 3.72 -0.85 9.82 -1.93 12 -1 c 1.32 0.56 1.95 4.68 2 7 c 0.59 28.07 0.31 59.6 0 88 c -0.01 1.33 -0.31 3.54 -1 4 c -0.84 0.56 -4.06 0.82 -5 0 c -3.34 -2.92 -8.02 -8.96 -11 -14 c -6.59 -11.13 -11.6 -23.48 -18 -35 c -1.99 -3.57 -6.56 -10.77 -7 -10 c -0.87 1.52 -1.16 23.61 -1 24 c 0.13 0.31 1.57 -13.27 3 -19 c 0.43 -1.74 1.82 -3.82 3 -5 c 0.91 -0.91 2.69 -1.76 4 -2 c 2.05 -0.37 5.4 -0.53 7 0 c 0.82 0.27 1.86 1.96 2 3 c 0.75 5.76 0.75 18.6 1 20 c 0.04 0.25 1.71 -1.93 2 -3 c 1.89 -7.01 3.88 -15.17 5 -23 c 1.58 -11.03 1.47 -21.9 3 -33 c 1.18 -8.54 2.85 -16.84 5 -25 c 1.17 -4.46 3.07 -8.76 5 -13 c 1.42 -3.13 3.1 -6.91 5 -9 c 0.99 -1.09 4.21 -2.45 5 -2 c 0.93 0.53 1.9 4.07 2 6 c 0.21 4.29 -1.55 12.34 -1 14 c 0.21 0.64 3.56 -1.07 5 -2 c 3.06 -1.97 5.81 -4.83 9 -7 c 5.28 -3.59 11.39 -8.02 16 -10 c 1.25 -0.53 4.87 0.14 5 1 c 0.32 2.07 -0.99 8.72 -3 12 c -13.34 21.78 -40.67 58.19 -46 68 c -0.54 0.99 5.86 2.56 8 2 c 4.41 -1.15 11.06 -4.62 15 -8 c 4.78 -4.1 9.45 -10.36 13 -16 c 3.62 -5.75 6.81 -12.61 9 -19 c 1.7 -4.95 2.28 -10.69 3 -16 c 0.27 -1.96 0.51 -6.13 0 -6 c -0.96 0.24 -6.15 5.04 -8 8 c -2.85 4.57 -5.06 10.48 -7 16 c -2.43 6.9 -4.91 14.02 -6 21 c -1.19 7.68 -1.57 19.29 -1 24 c 0.1 0.81 3.35 1.6 4 1 c 2.5 -2.31 6.86 -8.45 9 -13 c 3 -6.38 4.95 -13.75 7 -21 c 2.38 -8.42 4.42 -16.51 6 -25 c 1.11 -5.98 1.03 -12.17 2 -18 c 0.34 -2.04 2.02 -6.11 2 -6 c -0.04 0.21 -2.4 7.89 -3 12 c -2.43 16.75 -5.21 33.06 -6 50 c -1.23 26.23 -0.26 51.02 0 78 c 0.09 9.34 1.67 20.05 1 27 c -0.14 1.45 -3.05 4.38 -4 4 c -2.49 -1 -7.58 -6.41 -11 -10 c -3.27 -3.43 -7.4 -7.31 -9 -11 c -1.36 -3.12 -1.86 -8.83 -1 -12 c 0.88 -3.21 4.32 -6.98 7 -10 c 5.28 -5.94 10.8 -11.87 17 -17 l 41 -31"/></svg>