<?xml version="1.0" encoding="UTF-8" standalone="no"?><!DOCTYPE svg PUBLIC "-//W3C//DTD SVG 1.1//EN" "http://www.w3.org/Graphics/SVG/1.1/DTD/svg11.dtd"><svg xmlns="http://www.w3.org/2000/svg" version="1.1" width="153" height="158"><path fill="none" stroke="#000000" stroke-width="2" stroke-linecap="round" stroke-linejoin="round" d="M 18 13 l -13 34"/><path fill="none" stroke="#000000" stroke-width="2" stroke-linecap="round" stroke-linejoin="round" d="M 18 17 c 0.32 -0.19 11.79 -7.57 18 -11 c 3.56 -1.96 8.2 -4.4 11 -5 c 0.84 -0.18 3.04 1.23 3 2 c -0.2 3.51 -3.62 11.06 -4 16 c -0.24 3.06 0.32 8.2 2 10 c 2.14 2.29 8.02 3.86 12 5 c 2.77 0.79 8.51 0.38 9 1 c 0.35 0.44 -3.18 2.88 -5 4 c -12.9 7.91 -26.19 14.66 -39 23 c -8.49 5.53 -22.44 16.02 -24 18 c -0.47 0.6 6.04 1 9 1 c 3.28 0 6.56 -0.55 10 -1 c 9.68 -1.27 18.51 -2.38 28 -4 c 4.48 -0.76 11.71 -2.23 13 -3 c 0.41 -0.25 -1.85 -2.26 -3 -3 c -6.93 -4.43 -20.99 -12.52 -22 -13 c -0.2 -0.09 2.97 2.63 3 4 c 0.25 11.75 -1.58 28.16 -2 43 c -0.27 9.65 0 28 0 28"/><path fill="none" stroke="#000000" stroke-width="2" stroke-linecap="round" stroke-linejoin="round" d="M 29 89 c -0.1 0.32 -3.66 12.39 -6 18 c -0.89 2.13 -4 6 -4 6"/><path fill="none" stroke="#000000" stroke-width="2" stroke-linecap="round" stroke-linejoin="round" d="M 42 99 c 0.33 0.19 12.62 7.68 19 11 c 1.84 0.96 6 2 6 2"/><path fill="none" stroke="#000000" stroke-width="2" stroke-linecap="round" stroke-linejoin="round" d="M 110 27 c 0.02 0.1 1.16 4.1 1 6 c -0.47 5.7 -3 18 -3 18"/><path fill="none" stroke="#000000" stroke-width="2" stroke-linecap="round" stroke-linejoin="round" d="M 111 26 c 0.25 -0.28 9.18 -11.18 14 -16 c 1.63 -1.63 3.99 -3.09 6 -4 c 1.42 -0.65 4.18 -1.41 5 -1 c 0.66 0.33 1.38 3.06 1 4 c -0.71 1.78 -3.63 3.87 -5 6 c -1.57 2.44 -2.91 5.26 -4 8 c -0.89 2.23 -2.14 5.01 -2 7 c 0.15 2.08 1.34 6.09 3 7 c 4.29 2.34 16.74 3.73 19 5 c 0.58 0.32 -1.77 3.04 -3 4 c -4.44 3.46 -9.73 6.81 -15 10 c -7.73 4.68 -15.67 8.18 -23 13 c -5.33 3.51 -10.52 7.74 -15 12 c -2.33 2.22 -5.51 5.87 -6 8 c -0.29 1.24 1.75 4.43 3 5 c 1.71 0.78 5.67 0.76 8 0 c 9.14 -2.97 19.39 -8.87 29 -12 c 4.33 -1.41 11.38 -0.37 14 -2 c 1.53 -0.95 2.42 -6.02 2 -8 c -0.4 -1.87 -3.14 -4.61 -5 -6 c -1.81 -1.36 -5.39 -3.37 -7 -3 c -1.8 0.41 -5.54 3.76 -6 6 c -1.79 8.72 -1.87 21.72 -2 33 c -0.21 18.77 1 55 1 55"/><path fill="none" stroke="#000000" stroke-width="2" stroke-linecap="round" stroke-linejoin="round" d="M 122 102 c -0.12 0.12 -4.83 4.47 -7 7 c -3.9 4.55 -11 14 -11 14"/><path fill="none" stroke="#000000" stroke-width="2" stroke-linecap="round" stroke-linejoin="round" d="M 128 109 c 0.16 0.14 5.76 5.71 9 8 c 4.7 3.33 15 9 15 9"/></svg>