<?xml version="1.0" encoding="UTF-8" standalone="no"?><!DOCTYPE svg PUBLIC "-//W3C//DTD SVG 1.1//EN" "http://www.w3.org/Graphics/SVG/1.1/DTD/svg11.dtd"><svg xmlns="http://www.w3.org/2000/svg" version="1.1" width="327" height="213"><path fill="none" stroke="#000000" stroke-width="2" stroke-linecap="round" stroke-linejoin="round" d="M 1 99 c 0.47 -0.28 18.16 -10.11 27 -16 c 9.47 -6.31 24.58 -22.51 27 -20 c 3.46 3.59 -0.93 31.79 0 48 c 1.11 19.36 4.39 37.68 6 57 c 0.42 5.06 0.38 10.07 0 15 c -0.28 3.68 -0.94 8.03 -2 11 c -0.4 1.13 -2.41 3.2 -3 3 c -0.82 -0.27 -2.62 -3.35 -3 -5 c -0.52 -2.26 -0.79 -5.71 0 -8 c 2.59 -7.54 6.96 -16.39 11 -24 c 1.53 -2.88 3.96 -6.17 6 -8 c 0.84 -0.76 3.48 -1.52 4 -1 c 0.92 0.92 2.23 4.97 2 7 c -0.36 3.26 -2.33 7.52 -4 11 c -1.98 4.14 -4.26 8.31 -7 12 c -4.9 6.6 -10.24 13.24 -16 19 c -4.46 4.46 -14.49 10.88 -15 12 c -0.27 0.59 6.74 -0.25 10 -1 c 12.73 -2.92 25.03 -7.37 38 -10 c 11.99 -2.43 23.88 -2.98 36 -5 l 12 -3"/><path fill="none" stroke="#000000" stroke-width="2" stroke-linecap="round" stroke-linejoin="round" d="M 162 35 c 0.05 0.09 2.25 3.31 3 5 c 0.53 1.19 1 4 1 4"/><path fill="none" stroke="#000000" stroke-width="2" stroke-linecap="round" stroke-linejoin="round" d="M 117 97 c -0.03 0.23 -3 13.19 -2 13 c 1.82 -0.34 11.56 -11.28 18 -16 c 8.53 -6.26 17.58 -11.43 27 -17 c 7.4 -4.38 21.57 -11.89 22 -12 c 0.29 -0.07 -9.56 6.28 -14 10 c -8.04 6.73 -15.38 13.55 -23 21 c -7.1 6.93 -13.47 13.63 -20 21 c -4.01 4.52 -10.92 13.42 -11 14 c -0.06 0.4 6.9 -4.42 10 -7 c 2.87 -2.39 5.12 -5.58 8 -8 c 3.46 -2.91 7.52 -5.04 11 -8 c 5.61 -4.78 11.71 -12 16 -15 c 0.81 -0.56 3.63 0.25 4 1 c 0.63 1.27 0.34 4.73 0 7 c -0.98 6.62 -2.4 13.14 -4 20 c -4.61 19.73 -15.34 56 -14 57 c 1.24 0.93 17.48 -31.47 26 -48 c 2.73 -5.29 5.79 -14.79 7 -16 c 0.46 -0.46 2.58 3.99 3 6 c 0.82 3.92 0.87 8.55 1 13 c 0.21 6.83 0.44 13.45 0 20 c -0.22 3.34 -1.1 6.86 -2 10 c -0.39 1.38 -1.33 3.73 -2 4 c -0.54 0.22 -2.7 -1.19 -3 -2 c -0.51 -1.35 -0.39 -4.14 0 -6 c 0.89 -4.22 2.32 -8.89 4 -13 c 1.27 -3.11 5.6 -9 5 -9 c -1.02 0 -10.63 5.67 -15 9 c -2.3 1.76 -5.52 5.23 -6 7 c -0.26 0.96 1.77 3.72 3 4 c 4.69 1.06 18.15 -0.34 19 1 c 0.7 1.1 -7.67 7.23 -12 10 c -8.56 5.49 -17.76 10.38 -27 15 c -4.17 2.08 -8.69 3.07 -13 5 c -5.54 2.48 -16.67 7.74 -16 8 c 1.09 0.42 19.16 -1.53 29 -3 c 13.04 -1.95 24.99 -5.14 38 -7 l 32 -3"/><path fill="none" stroke="#000000" stroke-width="2" stroke-linecap="round" stroke-linejoin="round" d="M 222 114 c 0.02 0.66 1.25 25.51 1 38 c -0.08 4 -1.58 12.25 -2 12 c -0.53 -0.32 -2.63 -10.15 -3 -15 c -0.27 -3.5 1 -7.32 1 -11 c 0 -5.34 -1 -10.8 -1 -16 c 0 -1.97 0.45 -4.15 1 -6 c 0.41 -1.36 1.19 -2.79 2 -4 c 1.16 -1.74 2.58 -3.93 4 -5 c 0.92 -0.69 2.75 -1 4 -1 c 1.85 0 4.24 0.36 6 1 c 1.69 0.61 3.51 1.84 5 3 c 1.44 1.12 3.15 2.49 4 4 c 1.95 3.47 4.01 8.02 5 12 c 0.92 3.68 1.2 8.33 1 12 c -0.11 1.93 -0.88 4.48 -2 6 c -2.25 3.06 -5.85 6.78 -9 9 c -2.11 1.49 -7.54 3.23 -8 3 c -0.34 -0.17 2.5 -3.5 4 -5 c 3.49 -3.49 7.18 -7.18 11 -10 c 2.3 -1.69 8 -4.66 8 -4 c 0 1.4 -5.27 12.29 -8 17 c -0.52 0.9 -3.08 2.19 -3 2 c 1.07 -2.46 13.89 -26.98 20 -41 c 2.96 -6.8 5.14 -14.02 7 -21 c 0.76 -2.86 1.01 -9.16 1 -9 c -0.02 0.67 -0.76 25.12 -2 38 c -1.15 11.97 -2.89 23.28 -5 35 c -0.93 5.15 -2.41 10.02 -4 15 c -1.11 3.45 -2.4 6.8 -4 10 c -1.73 3.46 -5.22 9.44 -6 10 c -0.34 0.24 -1.07 -3.4 -1 -5 c 0.24 -5.39 0.82 -11.37 2 -17 c 3.2 -15.25 7.47 -29.45 11 -45 c 1.63 -7.18 2.84 -13.72 4 -21 c 2.29 -14.45 4.32 -27.46 6 -42 c 2.46 -21.34 5.08 -55.95 6 -62 c 0.06 -0.41 2.61 1.83 3 3 c 2.27 6.8 4.14 15.71 6 24 c 1.23 5.45 2.23 10.48 3 16 c 1.63 11.61 3 22.24 4 34 c 2.1 24.79 3.57 47.34 5 72 c 0.28 4.78 -0.34 9.28 0 14 c 0.68 9.5 2.52 18.8 3 28 c 0.17 3.28 -0.3 9.77 -1 10 c -0.66 0.22 -3.58 -5.16 -5 -8 c -4.98 -9.96 -9.87 -19.77 -14 -30 c -2.21 -5.47 -4.12 -11.72 -5 -17 c -0.35 -2.11 0.05 -5.22 1 -7 c 1.43 -2.68 4.53 -5.74 7 -8 c 1.36 -1.24 3.38 -2.51 5 -3 c 1.39 -0.42 3.49 -0.3 5 0 c 1.62 0.32 4.84 1.02 5 2 c 0.32 1.9 -1.6 6.92 -3 10 c -1.86 4.09 -7.4 10.28 -7 12 c 0.29 1.25 6.97 1.47 10 1 c 5.06 -0.78 10.8 -3 16 -5 l 10 -5"/></svg>