<?xml version="1.0" encoding="UTF-8" standalone="no"?><!DOCTYPE svg PUBLIC "-//W3C//DTD SVG 1.1//EN" "http://www.w3.org/Graphics/SVG/1.1/DTD/svg11.dtd"><svg xmlns="http://www.w3.org/2000/svg" version="1.1" width="167" height="160"><path fill="none" stroke="#000000" stroke-width="2" stroke-linecap="round" stroke-linejoin="round" d="M 1 62 l 1 1"/><path fill="none" stroke="#000000" stroke-width="2" stroke-linecap="round" stroke-linejoin="round" d="M 5 32 c -0.05 0.65 -2.93 36.35 -3 37 c -0.01 0.14 -0.44 -5.47 0 -8 c 0.85 -4.91 1.89 -10.64 4 -15 c 2.64 -5.45 6.87 -11.11 11 -16 c 4.81 -5.7 10.32 -11.05 16 -16 c 4.67 -4.07 11.44 -9.5 15 -11 c 0.96 -0.4 4 1.88 4 3 c 0 4.58 -3.17 13.36 -4 20 c -0.49 3.91 -0.59 8.47 0 12 c 0.33 1.97 1.62 4.74 3 6 c 1.84 1.67 5.33 3.42 8 4 c 4.49 0.98 15.75 -0.05 15 1 c -2.62 3.67 -26.43 22.07 -40 34 c -6.4 5.63 -16.57 14.53 -18 17 c -0.42 0.73 4.85 2.23 7 2 c 9.03 -0.98 20.09 -3.52 30 -6 c 4.81 -1.2 11.42 -3.16 14 -5 c 0.87 -0.62 0.55 -3.9 0 -5 c -0.55 -1.1 -2.54 -2.46 -4 -3 c -7.02 -2.6 -17.73 -6.81 -23 -7 c -1.71 -0.06 -5 3.97 -5 6 c 0 11.78 3.73 29.76 5 45 c 0.42 5.05 0.48 10.08 0 15 l -3 16"/><path fill="none" stroke="#000000" stroke-width="2" stroke-linecap="round" stroke-linejoin="round" d="M 34 114 c -0.04 0.05 -1.65 1.96 -2 3 c -0.58 1.75 -0.42 4.12 -1 6 c -0.72 2.35 -3 7 -3 7"/><path fill="none" stroke="#000000" stroke-width="2" stroke-linecap="round" stroke-linejoin="round" d="M 39 118 c 0.37 0.12 14 5.07 21 7 c 2.55 0.7 5.39 1 8 1 c 2.93 0 9 -1 9 -1"/><path fill="none" stroke="#000000" stroke-width="2" stroke-linecap="round" stroke-linejoin="round" d="M 126 20 c -0.31 0.58 -17.93 32.35 -18 33 c -0.05 0.5 11.51 -14.95 17 -23 c 4.74 -6.96 8.45 -14.04 13 -21 c 1.18 -1.8 2.49 -3.79 4 -5 c 1.58 -1.26 4.15 -2.69 6 -3 c 1.68 -0.28 5.23 0 6 1 c 1.03 1.32 1.13 5.45 1 8 c -0.19 3.53 -1.82 7.45 -2 11 c -0.14 2.87 0.25 6.37 1 9 c 0.48 1.69 1.77 3.64 3 5 c 1.95 2.14 4.92 3.92 7 6 c 0.81 0.81 2.3 2.33 2 3 c -0.9 1.98 -4.31 5.78 -7 8 c -12.45 10.28 -26.02 19.47 -39 30 c -5.04 4.09 -10.18 8.71 -14 13 c -1.08 1.21 -2.45 4.32 -2 5 c 0.51 0.76 4.05 1 6 1 c 3.22 0 6.73 -0.31 10 -1 c 7.74 -1.64 15.18 -3.71 23 -6 c 6.24 -1.83 12.32 -3.84 18 -6 c 1.08 -0.41 2.58 -1.17 3 -2 c 0.7 -1.41 1.49 -4.42 1 -6 c -0.94 -3.02 -3.58 -7.29 -6 -10 c -2.95 -3.3 -7.56 -7.18 -11 -9 c -1.45 -0.77 -4.51 -0.5 -6 0 c -1.06 0.35 -2.76 1.83 -3 3 c -4.02 19.31 -9.03 46.58 -12 69 c -0.6 4.49 0.39 9.36 1 14 c 0.4 3.05 1.1 6.3 2 9 l 2 3"/><path fill="none" stroke="#000000" stroke-width="2" stroke-linecap="round" stroke-linejoin="round" d="M 134 99 c -0.14 0.3 -4.81 11.8 -8 17 c -3.02 4.93 -11 14 -11 14"/><path fill="none" stroke="#000000" stroke-width="2" stroke-linecap="round" stroke-linejoin="round" d="M 132 112 c 0.18 0.11 6.49 4.31 10 6 c 6.2 3 19 8 19 8"/></svg>