<?xml version="1.0" encoding="UTF-8" standalone="no"?><!DOCTYPE svg PUBLIC "-//W3C//DTD SVG 1.1//EN" "http://www.w3.org/Graphics/SVG/1.1/DTD/svg11.dtd"><svg xmlns="http://www.w3.org/2000/svg" version="1.1" width="340" height="208"><path fill="none" stroke="#000000" stroke-width="2" stroke-linecap="round" stroke-linejoin="round" d="M 8 39 c 0.33 -0.23 12.3 -9.13 19 -13 c 10.81 -6.24 21.61 -11.63 33 -17 c 6.61 -3.12 17.16 -7.72 20 -8 c 0.79 -0.08 0 6 0 6"/><path fill="none" stroke="#000000" stroke-width="2" stroke-linecap="round" stroke-linejoin="round" d="M 8 68 c -0.12 0.19 -6.09 7.37 -7 11 c -1.18 4.73 -0.24 11.37 0 17 c 0.09 2.02 0.09 5.93 1 6 c 1.94 0.15 9.08 -2.42 12 -5 c 7.48 -6.6 14.08 -17.08 22 -25 c 8.59 -8.59 17.76 -16.51 27 -24 c 2.98 -2.42 6.52 -4.07 10 -6 c 2.67 -1.48 5.33 -3.39 8 -4 c 4.19 -0.95 9.51 -1 14 -1 c 1.63 0 3.95 0.21 5 1 c 1.2 0.9 2.44 3.31 3 5 c 0.68 2.05 1 4.67 1 7 c 0 8.25 0.13 17.51 -1 25 c -0.41 2.68 -2.44 5.66 -4 8 c -0.99 1.48 -2.58 2.76 -4 4 c -1.26 1.1 -2.68 2.56 -4 3 c -1.32 0.44 -3.8 0.53 -5 0 c -1.36 -0.6 -3.31 -2.45 -4 -4 c -2.96 -6.67 -5.59 -15.13 -8 -23 c -1.32 -4.31 -1.48 -9.21 -3 -13 c -0.98 -2.45 -3.6 -4.6 -5 -7 c -0.88 -1.5 -1.5 -5.1 -2 -5 c -0.62 0.12 -2.53 3.99 -3 6 c -0.78 3.32 -0.78 7.19 -1 11 c -0.82 14.15 -1.67 26.86 -2 41 c -0.36 15.85 0.79 31.76 0 46 c -0.15 2.64 -1.73 6.37 -3 8 c -0.61 0.79 -2.82 1.12 -4 1 c -1.81 -0.18 -5 -0.73 -6 -2 l -5 -12"/><path fill="none" stroke="#000000" stroke-width="2" stroke-linecap="round" stroke-linejoin="round" d="M 27 110 c -0.03 -0.09 -2.42 -3.95 -2 -5 c 0.61 -1.52 3.84 -3.73 6 -5 c 3.33 -1.96 7.48 -4.02 11 -5 c 2.04 -0.57 7 0 7 0"/><path fill="none" stroke="#000000" stroke-width="2" stroke-linecap="round" stroke-linejoin="round" d="M 27 130 c 0.07 -0.03 2.88 -1.09 4 -2 c 7.61 -6.2 23 -20 23 -20"/><path fill="none" stroke="#000000" stroke-width="2" stroke-linecap="round" stroke-linejoin="round" d="M 78 82 c 0.09 -0.03 3.37 -1.73 5 -2 c 2.12 -0.35 4.88 -0.35 7 0 c 1.63 0.27 4.48 0.95 5 2 c 0.78 1.56 0 8 0 8"/><path fill="none" stroke="#000000" stroke-width="2" stroke-linecap="round" stroke-linejoin="round" d="M 31 149 c 0 0.26 -0.37 10.04 0 15 c 0.3 4.02 0.89 8.31 2 12 c 0.81 2.71 2.75 7.06 4 8 c 0.63 0.47 3.46 -0.99 4 -2 c 1.39 -2.57 1.48 -7.6 3 -11 c 4.05 -9.06 8.53 -18.88 14 -27 c 4.59 -6.81 11.02 -13.64 17 -19 c 3.26 -2.92 8.13 -5.82 12 -7 c 3.06 -0.93 8.71 -0.98 11 0 c 1.4 0.6 2.56 3.94 3 6 c 1.46 6.81 2.55 14.58 3 22 c 0.55 9.03 0.27 18.05 0 27 c -0.06 2.02 -0.24 4.35 -1 6 l -5 7"/><path fill="none" stroke="#000000" stroke-width="2" stroke-linecap="round" stroke-linejoin="round" d="M 61 172 c 0.31 -0.26 11.67 -10.48 18 -15 c 5.33 -3.8 17 -10 17 -10"/><path fill="none" stroke="#000000" stroke-width="2" stroke-linecap="round" stroke-linejoin="round" d="M 87 136 c -0.1 0.12 -4.71 4.57 -6 7 c -1.16 2.17 -1.09 5.38 -2 8 c -2.12 6.13 -5.26 12.3 -7 18 c -0.45 1.48 -0.61 3.91 0 5 c 0.78 1.4 3.37 3.35 5 4 c 1.28 0.51 3.49 0.43 5 0 c 8.61 -2.42 27 -9 27 -9"/><path fill="none" stroke="#000000" stroke-width="2" stroke-linecap="round" stroke-linejoin="round" d="M 166 5 c -0.02 0.19 -0.05 7.58 -1 11 c -2.29 8.23 -5.49 16.95 -9 25 c -2.13 4.89 -5.72 9.09 -8 14 c -4.45 9.56 -13.8 27.94 -12 29 c 1.99 1.17 18.92 -13.21 29 -19 c 8.06 -4.63 25 -12 25 -12"/><path fill="none" stroke="#000000" stroke-width="2" stroke-linecap="round" stroke-linejoin="round" d="M 172 84 c -0.04 0.05 -1.78 2 -2 3 c -0.37 1.67 0.29 4.06 0 6 c -0.69 4.62 -1.67 9.33 -3 14 c -2.74 9.58 -6.52 18.5 -9 28 c -1.54 5.89 -2.36 11.98 -3 18 c -0.35 3.3 -1.16 9.47 0 10 c 1.4 0.64 7.54 -3.02 11 -5 c 3.49 -2 6.59 -4.5 10 -7 c 6.98 -5.12 13.82 -9.85 20 -15 l 4 -5"/><path fill="none" stroke="#000000" stroke-width="2" stroke-linecap="round" stroke-linejoin="round" d="M 178 84 c 0.07 0.05 3.22 1.82 4 3 c 0.99 1.49 1.57 3.95 2 6 c 0.9 4.26 1.89 8.62 2 13 c 0.55 21.64 0.97 43.47 0 65 c -0.36 8.06 -2.44 15.94 -4 24 c -0.47 2.41 -1.1 4.84 -2 7 c -0.72 1.73 -1.95 4.61 -3 5 c -0.97 0.36 -4.44 -0.82 -5 -2 c -1.82 -3.84 -4 -17 -4 -17"/><path fill="none" stroke="#000000" stroke-width="2" stroke-linecap="round" stroke-linejoin="round" d="M 158 131 c 0 -0.21 -0.44 -11.56 0 -12 c 0.33 -0.33 3.58 5.37 4 8 c 0.8 5.01 0.61 11.69 0 17 c -0.34 2.96 -3.11 9.16 -3 9 c 0.35 -0.53 10.41 -17.64 15 -27 c 3.86 -7.88 10 -24 10 -24"/><path fill="none" stroke="#000000" stroke-width="2" stroke-linecap="round" stroke-linejoin="round" d="M 208 38 c 0.09 -0.14 3.78 -5.35 5 -8 c 0.66 -1.43 0.78 -4.89 1 -5 c 0.18 -0.09 1 2.7 1 4 c 0 4.1 -0.21 8.77 -1 13 c -1.19 6.37 -4.13 12.75 -5 19 c -0.75 5.41 -0.99 12.86 0 17 c 0.37 1.56 4.31 2.42 5 4 c 1.31 2.99 1.65 7.98 2 12 c 0.32 3.63 0.29 7.34 0 11 c -0.38 4.71 -0.81 9.55 -2 14 c -1.43 5.38 -3.57 10.84 -6 16 c -2.92 6.21 -6.66 13.22 -10 18 c -0.73 1.04 -3.51 2.4 -4 2 c -0.67 -0.54 -1 -4.02 -1 -6 c 0 -5.54 -0.04 -12.02 1 -17 c 0.49 -2.36 2.38 -5.38 4 -7 c 1.35 -1.35 4.05 -2.55 6 -3 c 2.03 -0.47 4.94 -0.52 7 0 c 2.9 0.72 6.83 1.99 9 4 c 6.1 5.65 11.68 13.98 18 21 c 2.91 3.23 5.88 6.5 9 9 l 6 3"/><path fill="none" stroke="#000000" stroke-width="2" stroke-linecap="round" stroke-linejoin="round" d="M 256 59 l 20 -7"/><path fill="none" stroke="#000000" stroke-width="2" stroke-linecap="round" stroke-linejoin="round" d="M 239 102 l 25 -14"/><path fill="none" stroke="#000000" stroke-width="2" stroke-linecap="round" stroke-linejoin="round" d="M 266 75 c -0.05 0.05 -2.56 1.9 -3 3 c -0.73 1.83 -0.26 4.85 -1 7 c -2.17 6.26 -5.71 12.45 -8 19 c -2.43 6.94 -4.14 13.79 -6 21 c -0.87 3.37 -1.7 6.67 -2 10 c -0.36 3.92 -1.32 10.54 0 12 c 1.11 1.22 8.34 0.91 10 -1 c 8.93 -10.27 30 -45 30 -45"/><path fill="none" stroke="#000000" stroke-width="2" stroke-linecap="round" stroke-linejoin="round" d="M 280 56 c 0.1 -0.09 3.77 -4 6 -5 c 9.75 -4.36 32 -12 32 -12"/><path fill="none" stroke="#000000" stroke-width="2" stroke-linecap="round" stroke-linejoin="round" d="M 320 23 c -0.09 0.19 -3.04 7.44 -5 11 c -3.43 6.21 -7.09 11.91 -11 18 c -2.26 3.52 -4.37 6.89 -7 10 c -4.73 5.59 -16.01 14.99 -15 16 c 1.18 1.18 16.8 -4.59 25 -6 c 3.19 -0.55 9.15 -1.1 10 0 c 0.81 1.04 -1.27 6.94 -3 9 c -3 3.56 -8.39 6.89 -13 10 c -7.95 5.37 -15.9 10.73 -24 15 c -3.62 1.91 -12.2 4.1 -12 4 c 1.04 -0.52 40.22 -19.4 60 -28 c 2.75 -1.2 6.03 -1.58 9 -2 l 5 0"/><path fill="none" stroke="#000000" stroke-width="2" stroke-linecap="round" stroke-linejoin="round" d="M 292 120 c -0.09 0.05 -3.53 1.82 -5 3 c -1.78 1.43 -3.73 3.15 -5 5 c -2.26 3.28 -6 9.06 -6 11 c 0 0.98 4.9 2.78 6 2 c 3.1 -2.19 7.08 -10.08 11 -14 c 2.08 -2.08 6.21 -5.14 8 -5 c 1.48 0.11 4.4 3.96 5 6 c 0.85 2.88 -0.4 7.57 0 11 c 0.23 1.97 1.02 4.86 2 6 c 0.64 0.75 3.48 1.59 4 1 c 1.36 -1.53 3.09 -6.55 4 -10 c 2.41 -9.17 5.27 -26.46 6 -28 c 0.24 -0.51 2.81 6.03 3 9 c 0.76 11.6 0.25 24.37 0 37 c -0.09 4.45 0.03 9.04 -1 13 c -1.2 4.62 -3.67 9.51 -6 14 c -2 3.84 -4.26 8.1 -7 11 c -2.57 2.72 -6.51 4.9 -10 7 c -3.2 1.92 -6.62 3.87 -10 5 c -3.38 1.13 -7.72 2.16 -11 2 c -2.79 -0.14 -7.04 -1.29 -9 -3 c -2.69 -2.35 -5.1 -7.2 -7 -11 l -4 -11"/></svg>