<?xml version="1.0" encoding="UTF-8" standalone="no"?><!DOCTYPE svg PUBLIC "-//W3C//DTD SVG 1.1//EN" "http://www.w3.org/Graphics/SVG/1.1/DTD/svg11.dtd"><svg xmlns="http://www.w3.org/2000/svg" version="1.1" width="289" height="158"><path fill="none" stroke="#000000" stroke-width="2" stroke-linecap="round" stroke-linejoin="round" d="M 1 20 c 0.14 0.05 5.25 2.39 8 3 c 9.15 2.03 19.41 2.79 28 5 c 2.43 0.63 6.51 2.52 7 4 c 0.52 1.56 -1.5 5.79 -3 8 c -3.88 5.7 -9.95 11.28 -14 17 c -1.4 1.98 -3.7 5.81 -3 7 c 1.02 1.75 6.52 3.68 10 5 c 6.19 2.35 12.76 3.61 19 6 c 5.19 1.98 13.32 4.7 15 7 c 0.91 1.24 -2.24 5.97 -4 8 c -2.24 2.59 -5.84 4.89 -9 7 c -2.85 1.9 -5.9 3.62 -9 5 c -2.86 1.27 -6.26 3 -9 3 c -3.85 0 -9.18 -1.65 -13 -3 c -1.43 -0.51 -2.85 -1.85 -4 -3 c -1.79 -1.79 -3.79 -3.99 -5 -6 c -0.64 -1.06 -1.15 -2.95 -1 -4 c 0.13 -0.92 1.53 -3 2 -3 c 0.47 0 1.65 1.96 2 3 c 0.58 1.75 0.95 3.98 1 6 c 0.28 10.94 0.51 22.27 0 33 c -0.14 3 -2.39 9.08 -2 9 l 7 -10"/><path fill="none" stroke="#000000" stroke-width="2" stroke-linecap="round" stroke-linejoin="round" d="M 80 1 c -0.35 0.72 -17.43 32.73 -20 41 c -0.41 1.31 4.16 3.74 6 4 c 2.1 0.3 5.49 -1.06 8 -2 c 2.73 -1.02 5.25 -3.04 8 -4 c 3.8 -1.33 8.26 -2.58 12 -3 c 1.84 -0.2 4.95 -0.05 6 1 c 1.94 1.94 4.83 6.67 5 10 c 1.34 25.92 0.56 57.63 0 87 c -0.12 6.11 -0.99 12.46 -2 18 c -0.25 1.37 -1.26 3.89 -2 4 c -0.96 0.14 -4.12 -1.68 -5 -3 c -1.43 -2.14 -2.34 -5.9 -3 -9 c -2.35 -10.96 -3.58 -21.76 -6 -33 c -2.38 -11.05 -5.17 -22.11 -8 -32 c -0.31 -1.08 -1.33 -2.89 -2 -3 c -0.83 -0.14 -2.88 1.16 -4 2 c -1.42 1.07 -4 3.01 -4 4 c 0 0.99 2.65 3.93 4 4 c 3.42 0.19 12.76 -3.5 14 -3 c 0.7 0.28 -2.14 5.47 -4 7 c -6.65 5.46 -21.74 13.86 -24 16 c -0.42 0.4 3.42 2 5 2 c 4.43 0 12.62 -2.48 15 -2 c 0.79 0.16 0.49 3.66 0 5 c -0.7 1.93 -4.13 6.09 -4 6 c 0.26 -0.17 6.63 -7.31 10 -10 c 1.28 -1.03 3.7 -2 5 -2 c 0.87 0 2.46 1.2 3 2 l 1 4"/><path fill="none" stroke="#000000" stroke-width="2" stroke-linecap="round" stroke-linejoin="round" d="M 123 49 c 0.09 0.07 3.67 2.45 5 4 c 2.53 2.95 4.4 7.21 7 10 c 1.83 1.96 5.01 4.5 7 5 c 1.25 0.31 4.01 -1.01 5 -2 c 0.99 -0.99 1.68 -3.38 2 -5 c 0.3 -1.51 0.44 -3.57 0 -5 c -0.78 -2.55 -4 -6.11 -4 -8 c 0 -1.19 2.47 -3.34 4 -4 c 4.79 -2.05 11.17 -3.91 17 -5 c 15.63 -2.93 31.82 -5.37 47 -7 c 2.89 -0.31 8.9 0.04 9 1 c 0.13 1.27 -5.1 6.1 -8 9 c -6.3 6.3 -12.47 12.44 -19 18 c -2.35 2.01 -5.33 4.06 -8 5 c -2.56 0.9 -6.4 1.43 -9 1 c -2.83 -0.47 -6.19 -2.42 -9 -4 c -2.46 -1.38 -5.23 -4.47 -7 -5 c -0.74 -0.22 -2.88 1.38 -3 2 c -0.12 0.62 1.39 3.23 2 3 c 3.35 -1.24 11.29 -7.02 17 -10 c 1.83 -0.96 4.05 -1.64 6 -2 c 1.55 -0.28 3.49 -0.3 5 0 c 1.62 0.32 4.43 1.15 5 2 c 0.43 0.65 -0.37 2.99 -1 4 c -0.87 1.39 -2.49 2.93 -4 4 c -8.68 6.16 -26.24 17.18 -27 18 c -0.34 0.37 11.29 -4.17 14 -4 c 1 0.06 2.38 3.67 2 5 c -1.26 4.4 -4.9 11.08 -8 16 c -2.46 3.91 -6.27 7.27 -9 11 c -0.86 1.17 -2.28 4.09 -2 4 c 1 -0.33 9.24 -5.82 14 -8 c 3.08 -1.41 6.58 -2.22 10 -3 c 3.99 -0.91 7.84 -1.38 12 -2 c 2.75 -0.41 5.36 -1 8 -1 c 3.94 0 9.07 -0.1 12 1 c 1.56 0.58 3.53 3.45 4 5 c 0.37 1.23 -0.25 3.66 -1 5 c -2.01 3.58 -4.95 7.95 -8 11 c -3.36 3.36 -7.72 6.69 -12 9 c -7.8 4.21 -18.42 8.96 -25 11 c -1.08 0.33 -3.35 -1.1 -4 -2 c -0.74 -1.03 -1.47 -3.78 -1 -5 c 0.92 -2.39 3.86 -6.06 6 -8 c 1.15 -1.05 3.37 -1.94 5 -2 l 24 1"/><path fill="none" stroke="#000000" stroke-width="2" stroke-linecap="round" stroke-linejoin="round" d="M 254 45 c -0.21 0.19 -8.84 7.21 -12 11 c -1.48 1.77 -3.15 5.81 -3 7 c 0.08 0.64 2.73 1 4 1 c 2.17 0 4.73 -0.41 7 -1 c 5.39 -1.41 10.76 -2.97 16 -5 c 5.17 -2 12.57 -4.57 15 -7 c 1.04 -1.04 -0.17 -5.5 -1 -7 c -0.53 -0.95 -3 -1.16 -4 -2 c -0.81 -0.67 -1.2 -2.46 -2 -3 c -0.92 -0.61 -3.17 -1.36 -4 -1 c -1.01 0.43 -2.5 2.56 -3 4 c -1.67 4.76 -3.5 10.65 -4 16 c -1.13 12 -0.5 24.24 -1 37 c -0.19 4.84 -0.39 9.36 -1 14 c -0.4 3.05 -1.07 8.33 -2 9 c -0.65 0.46 -3.55 -2.47 -5 -4 c -4.5 -4.75 -11.52 -12.03 -13 -15 c -0.37 -0.75 2.62 -2.79 4 -3 c 4.4 -0.66 10.74 -0.39 16 0 c 3.68 0.27 7.73 1.06 11 2 c 1.06 0.3 2.92 1.24 3 2 c 0.17 1.75 -0.51 6.33 -2 8 c -3.1 3.49 -9.14 6.83 -14 10 c -2.91 1.9 -8.66 4.31 -9 5 c -0.2 0.41 4.07 1.09 6 1 c 5.12 -0.23 10.8 -1.05 16 -2 c 2.04 -0.37 4.03 -1.75 6 -2 l 10 0"/></svg>