<?xml version="1.0" encoding="UTF-8" standalone="no"?><!DOCTYPE svg PUBLIC "-//W3C//DTD SVG 1.1//EN" "http://www.w3.org/Graphics/SVG/1.1/DTD/svg11.dtd"><svg xmlns="http://www.w3.org/2000/svg" version="1.1" width="124" height="165"><path fill="none" stroke="#000000" stroke-width="2" stroke-linecap="round" stroke-linejoin="round" d="M 60 1 c 0 0.1 -0.49 4.21 0 6 c 1.39 5.11 3.41 11.1 6 16 c 3.28 6.2 7.63 12.12 12 18 c 4.45 5.99 8.94 11.61 14 17 c 5.03 5.37 10.34 10.26 16 15 c 4.8 4.02 15 9.02 15 11 c 0 1.68 -9.78 3.52 -15 5 c -15.38 4.36 -29.8 7.4 -45 12 c -10.74 3.25 -21.18 6.79 -31 11 c -3.89 1.67 -8.01 4.41 -11 7 c -1.65 1.43 -3.19 3.86 -4 6 c -2.71 7.13 -4.03 15.75 -7 23 c -2.27 5.53 -9 16 -9 16"/></svg>