<?xml version="1.0" encoding="UTF-8" standalone="no"?><!DOCTYPE svg PUBLIC "-//W3C//DTD SVG 1.1//EN" "http://www.w3.org/Graphics/SVG/1.1/DTD/svg11.dtd"><svg xmlns="http://www.w3.org/2000/svg" version="1.1" width="308" height="165"><path fill="none" stroke="#000000" stroke-width="2" stroke-linecap="round" stroke-linejoin="round" d="M 60 1 c 0 0.54 0.29 21 0 31 c -0.04 1.33 -1 4 -1 4"/><path fill="none" stroke="#000000" stroke-width="2" stroke-linecap="round" stroke-linejoin="round" d="M 20 27 c -0.03 0.33 -1.09 12.62 -2 19 c -0.44 3.08 -2.28 7.9 -2 9 c 0.12 0.49 2.84 -0.38 4 -1 c 11.34 -6.11 22.83 -13.36 35 -20 c 6.75 -3.68 13.11 -6.96 20 -10 c 4.58 -2.02 9.46 -4.09 14 -5 c 3.36 -0.67 7.51 -0.39 11 0 c 2.31 0.26 5.15 0.92 7 2 c 1.79 1.05 3.74 3.17 5 5 l 4 8"/><path fill="none" stroke="#000000" stroke-width="2" stroke-linecap="round" stroke-linejoin="round" d="M 40 61 c -0.28 0.45 -10.29 17.12 -16 26 c -6.75 10.49 -13.24 20.3 -20 30 c -0.8 1.14 -3 3 -3 3"/><path fill="none" stroke="#000000" stroke-width="2" stroke-linecap="round" stroke-linejoin="round" d="M 31 90 c 0.07 0.39 3.3 14.54 4 22 c 1.32 14.04 2 42 2 42"/><path fill="none" stroke="#000000" stroke-width="2" stroke-linecap="round" stroke-linejoin="round" d="M 98 37 l 2 7"/><path fill="none" stroke="#000000" stroke-width="2" stroke-linecap="round" stroke-linejoin="round" d="M 72 71 c 0.51 -0.07 23.51 -6.13 29 -4 c 3.62 1.41 5.68 11.95 7 18 c 1.92 8.82 2.32 18.5 3 28 c 0.34 4.72 0 14 0 14"/><path fill="none" stroke="#000000" stroke-width="2" stroke-linecap="round" stroke-linejoin="round" d="M 85 99 c 0.12 -0.05 4.65 -2.33 7 -3 c 2.18 -0.62 5.35 -1.55 7 -1 c 1.65 0.55 3.25 3.64 5 5 c 1.11 0.86 3.75 1.08 4 2 c 0.51 1.87 0.43 6.96 -1 9 c -4.03 5.72 -11.58 12.42 -18 18 c -6.31 5.48 -21.57 13.57 -20 15 c 2.66 2.42 27.81 3.76 42 5 c 5.03 0.44 10.1 0.49 15 0 c 4.99 -0.5 15 -3 15 -3"/><path fill="none" stroke="#000000" stroke-width="2" stroke-linecap="round" stroke-linejoin="round" d="M 174 63 c 0.23 -0.04 8.83 -1.07 13 -2 c 1.71 -0.38 5 -2 5 -2"/><path fill="none" stroke="#000000" stroke-width="2" stroke-linecap="round" stroke-linejoin="round" d="M 196 32 c 0.04 0.16 1.71 5.97 2 9 c 0.7 7.25 1.63 15.46 1 22 c -0.28 2.92 -2.38 6.24 -4 9 c -1.65 2.8 -3.83 5.46 -6 8 c -1.85 2.15 -3.83 4.26 -6 6 c -2.77 2.22 -9.44 5.56 -9 6 c 0.57 0.57 10 0.09 14 -1 c 2.69 -0.73 7.49 -6.06 8 -5 c 1.51 3.17 1.34 21.76 3 28 c 0.32 1.19 5.09 2.02 5 2 c -0.34 -0.07 -13.44 -5 -19 -5 c -4.21 0 -10.71 2.37 -14 5 c -4.12 3.3 -7.95 10.17 -11 15 c -0.68 1.07 -1.62 3.31 -1 4 c 3.52 3.93 11.6 11.93 18 15 c 9.08 4.36 21.18 6.47 32 9 c 4.92 1.15 9.89 1.72 15 2 c 13.17 0.73 25.56 0.4 39 1 c 9.67 0.43 18.6 1.79 28 2 l 16 -1"/><path fill="none" stroke="#000000" stroke-width="2" stroke-linecap="round" stroke-linejoin="round" d="M 238 31 c 0.32 0.16 12.38 5.59 18 9 c 3.57 2.17 7.75 5.19 10 8 c 1.28 1.6 1.71 4.7 2 7 c 0.36 2.85 0.59 6.33 0 9 c -0.65 2.92 -2.31 6.38 -4 9 c -1.83 2.82 -4.35 6.1 -7 8 c -3.91 2.79 -9.3 5.16 -14 7 c -2.77 1.08 -6.3 1.1 -9 2 c -1.06 0.35 -2.72 1.12 -3 2 c -1.08 3.46 -2.29 9.67 -2 14 c 0.34 5.05 1.78 15.47 4 16 c 2.72 0.65 11.21 -8.01 17 -11 c 3.62 -1.87 8.19 -3.5 12 -4 c 3.33 -0.43 7.6 0.25 11 1 c 2.34 0.52 5.18 1.73 7 3 c 1.2 0.84 2.72 2.75 3 4 c 0.28 1.28 -0.2 3.75 -1 5 c -1.9 2.95 -5.04 6.63 -8 9 c -3.41 2.73 -7.91 5.22 -12 7 c -3.35 1.46 -7.62 2.58 -11 3 l -5 -1"/></svg>