<?xml version="1.0" encoding="UTF-8" standalone="no"?><!DOCTYPE svg PUBLIC "-//W3C//DTD SVG 1.1//EN" "http://www.w3.org/Graphics/SVG/1.1/DTD/svg11.dtd"><svg xmlns="http://www.w3.org/2000/svg" version="1.1" width="293" height="174"><path fill="none" stroke="#000000" stroke-width="2" stroke-linecap="round" stroke-linejoin="round" d="M 51 1 l 1 27"/><path fill="none" stroke="#000000" stroke-width="2" stroke-linecap="round" stroke-linejoin="round" d="M 16 19 c -0.09 0.68 -5.92 35.67 -5 39 c 0.38 1.39 8.74 -6.36 13 -10 c 9.76 -8.33 18.37 -17.1 28 -25 c 3.35 -2.75 7.24 -5.21 11 -7 c 3.01 -1.43 6.73 -2.48 10 -3 c 2.82 -0.45 6.43 -0.78 9 0 c 4.47 1.36 9.71 4.34 14 7 c 2.53 1.57 7.78 5.06 7 6 c -2 2.43 -13.77 7.97 -21 11 c -7.04 2.95 -14.94 4.18 -22 7 c -4.51 1.81 -9.23 4.21 -13 7 c -3.61 2.67 -6.93 6.39 -10 10 c -4.65 5.46 -9.17 10.95 -13 17 c -6.56 10.37 -12.1 20.98 -18 32 c -1.94 3.63 -5.59 10.3 -5 11 c 0.54 0.65 7.19 -4.67 10 -5 c 1.92 -0.23 6 1.28 7 3 c 3.95 6.81 7.93 18.42 11 28 c 2.63 8.19 6 25 6 25"/><path fill="none" stroke="#000000" stroke-width="2" stroke-linecap="round" stroke-linejoin="round" d="M 69 61 l 1 1"/><path fill="none" stroke="#000000" stroke-width="2" stroke-linecap="round" stroke-linejoin="round" d="M 50 97 c 0.4 -0.23 15.29 -9.37 23 -13 c 3.33 -1.56 8.1 -2.79 11 -3 c 0.92 -0.07 2.65 1.07 3 2 c 3.56 9.42 7.7 22.95 11 35 c 2.49 9.08 6 27 6 27"/><path fill="none" stroke="#000000" stroke-width="2" stroke-linecap="round" stroke-linejoin="round" d="M 71 116 c 0.21 -0.09 8.63 -4.4 12 -5 c 1.4 -0.25 3.29 1.57 5 2 c 3.55 0.89 10.45 0.26 11 2 c 0.87 2.76 -2.08 12.57 -5 17 c -5.36 8.14 -24.17 23.08 -22 24 c 3.72 1.58 36.54 -6.06 55 -10 c 6.89 -1.47 13.92 -3.72 20 -6 l 4 -3"/><path fill="none" stroke="#000000" stroke-width="2" stroke-linecap="round" stroke-linejoin="round" d="M 135 80 c 0.49 -0.24 18.98 -8.74 28 -14 c 7.04 -4.1 20 -14 20 -14"/><path fill="none" stroke="#000000" stroke-width="2" stroke-linecap="round" stroke-linejoin="round" d="M 177 28 c 0.11 0.49 4.87 18.99 6 28 c 0.47 3.79 -1 12 -1 12"/><path fill="none" stroke="#000000" stroke-width="2" stroke-linecap="round" stroke-linejoin="round" d="M 165 100 c 0.26 -0.21 12.03 -12.14 15 -12 c 2.28 0.1 5 8.47 7 13 c 3.04 6.9 4.99 15.2 8 21 c 0.86 1.65 3.35 3.4 5 4 c 1.55 0.56 4.33 0.37 6 0 c 1 -0.22 3.11 -2.03 3 -2 c -0.79 0.21 -16.98 4.66 -25 8 c -7.92 3.3 -16.37 7.92 -23 12 c -1.28 0.79 -2.45 2.62 -3 4 c -0.67 1.68 -1.15 4.21 -1 6 c 0.16 1.86 0.7 4.93 2 6 c 3.48 2.87 9.93 6.14 15 8 c 4.56 1.67 9.94 2.7 15 3 c 22.82 1.36 45.7 1.71 69 2 c 4.06 0.05 7.89 -0.57 12 -1 c 2.42 -0.25 4.81 -0.35 7 -1 c 3.34 -0.98 7.77 -2.07 10 -4 l 5 -9"/><path fill="none" stroke="#000000" stroke-width="2" stroke-linecap="round" stroke-linejoin="round" d="M 213 60 c 0.28 -0.07 10.82 -3.51 16 -4 c 5.04 -0.47 12.26 -0.31 16 1 c 1.68 0.59 3.51 3.95 4 6 c 1.02 4.27 1.44 10.26 1 15 c -0.52 5.51 -2.26 11.44 -4 17 c -1.61 5.14 -3.45 10.58 -6 15 c -2.24 3.89 -10.11 10.26 -9 11 c 1.88 1.25 16.6 -1.76 24 -1 c 4.87 0.5 11.72 3.15 15 5 c 0.86 0.48 1.19 2.85 1 4 c -0.4 2.38 -1.29 6.39 -3 8 c -3.5 3.31 -10.35 8.13 -15 9 c -4.59 0.86 -12.91 -0.66 -17 -3 c -4.03 -2.3 -7.87 -8.66 -11 -13 l -2 -5"/></svg>