<?xml version="1.0" encoding="UTF-8" standalone="no"?><!DOCTYPE svg PUBLIC "-//W3C//DTD SVG 1.1//EN" "http://www.w3.org/Graphics/SVG/1.1/DTD/svg11.dtd"><svg xmlns="http://www.w3.org/2000/svg" version="1.1" width="288" height="162"><path fill="none" stroke="#000000" stroke-width="2" stroke-linecap="round" stroke-linejoin="round" d="M 65 1 c 0.03 0.23 1.56 8.56 2 13 c 0.58 5.75 1 11.62 1 17 c 0 1.3 -0.38 4.14 -1 4 c -2.81 -0.62 -11.38 -5.7 -17 -8 c -1.52 -0.62 -3.6 -1.16 -5 -1 c -1.23 0.14 -3.22 0.96 -4 2 c -4.53 6.05 -15.73 21.37 -14 22 c 2.56 0.93 23.54 -9.59 36 -14 c 9.8 -3.47 19.88 -7.18 29 -9 c 3.32 -0.66 8.62 -0.5 11 1 c 2.93 1.85 9.59 10.02 8 11 c -6.1 3.78 -33.33 9.44 -50 15 c -5.58 1.86 -10.81 4.32 -16 7 c -4.53 2.35 -8.68 5.05 -13 8 c -10.76 7.34 -30.05 19.77 -31 22 c -0.55 1.29 15.83 -1.82 22 -1 c 2.64 0.35 6.06 2.93 8 5 c 2.68 2.86 5.18 7.2 7 11 c 1.76 3.68 2.93 7.87 4 12 c 1.64 6.34 2.92 12.55 4 19 l 1 11"/><path fill="none" stroke="#000000" stroke-width="2" stroke-linecap="round" stroke-linejoin="round" d="M 74 67 c 0.25 -0.02 9.53 -0.33 14 -1 c 2.01 -0.3 5.04 -2.67 6 -2 c 1.5 1.05 3.21 5.96 4 9 c 1.14 4.37 1.5 9.19 2 14 c 0.53 5.11 1 9.93 1 15 c 0 7.09 -1 21 -1 21"/><path fill="none" stroke="#000000" stroke-width="2" stroke-linecap="round" stroke-linejoin="round" d="M 77 87 c 0.26 -0.02 12.66 -1.94 15 -1 c 1.09 0.44 -0.74 5.67 0 7 c 0.57 1.02 4.88 0.95 5 2 c 0.35 3.18 -0.86 11.71 -3 16 c -2.72 5.43 -8.29 11.48 -13 16 c -3.29 3.16 -12.7 8.03 -12 8 c 3.25 -0.12 45.39 -7.39 66 -10 l 5 1"/><path fill="none" stroke="#000000" stroke-width="2" stroke-linecap="round" stroke-linejoin="round" d="M 143 71 c 0.44 -0.16 16.95 -5.49 25 -9 c 4.89 -2.13 10.94 -4.94 14 -8 c 1.8 -1.8 2.59 -6.31 3 -9 c 0.18 -1.17 -0.9 -4.15 -1 -4 c -0.17 0.25 -0.9 4.62 -1 7 c -0.58 14.14 0.16 31.59 -1 42 c -0.14 1.24 -3.29 1.76 -4 3 c -1.66 2.9 -1.94 8.39 -4 11 c -2.39 3.03 -7.42 5.85 -11 8 c -1.09 0.65 -3.08 0.31 -4 1 c -1.42 1.07 -3.19 3.24 -4 5 c -1.04 2.26 -2.42 6.02 -2 8 c 0.4 1.87 3.02 4.65 5 6 c 4.87 3.32 11.05 7.13 17 9 c 22.06 6.92 45.54 12.28 69 18 c 4.33 1.06 8.63 1.65 13 2 c 3.98 0.32 8.19 0.56 12 0 c 4.93 -0.73 10.78 -2.36 15 -4 l 3 -3"/><path fill="none" stroke="#000000" stroke-width="2" stroke-linecap="round" stroke-linejoin="round" d="M 221 47 c 0.16 0 6.09 -0.32 9 0 c 2.98 0.33 7.63 0.78 9 2 c 0.89 0.79 0.58 4.26 0 6 c -2.52 7.55 -5.82 16.82 -10 24 c -3.89 6.69 -15.93 17.14 -15 19 c 0.89 1.79 15.35 -2.65 23 -3 c 6.94 -0.32 17.02 -0.27 21 1 c 1.15 0.37 1.36 4.33 1 6 c -0.52 2.45 -2.31 5.75 -4 8 c -2.13 2.84 -5.17 6.17 -8 8 c -2.38 1.54 -6.31 2.59 -9 3 c -1.17 0.18 -3.08 -0.34 -4 -1 c -1.11 -0.8 -2.56 -2.58 -3 -4 c -1.08 -3.45 -2.17 -8.41 -2 -12 l 3 -9"/></svg>