<?xml version="1.0" encoding="UTF-8" standalone="no"?><!DOCTYPE svg PUBLIC "-//W3C//DTD SVG 1.1//EN" "http://www.w3.org/Graphics/SVG/1.1/DTD/svg11.dtd"><svg xmlns="http://www.w3.org/2000/svg" version="1.1" width="320" height="171"><path fill="none" stroke="#000000" stroke-width="2" stroke-linecap="round" stroke-linejoin="round" d="M 46 1 l 6 31"/><path fill="none" stroke="#000000" stroke-width="2" stroke-linecap="round" stroke-linejoin="round" d="M 11 34 c 0.05 0.28 0.93 14.9 3 16 c 1.99 1.05 9.48 -4.31 14 -7 c 6.25 -3.71 11.86 -8.49 18 -12 c 3.06 -1.75 6.67 -3.46 10 -4 c 6.49 -1.05 14.39 -1.55 21 -1 c 4.88 0.41 10.22 2.28 15 4 c 3.44 1.24 10 5 10 5"/><path fill="none" stroke="#000000" stroke-width="2" stroke-linecap="round" stroke-linejoin="round" d="M 31 62 c -0.19 0.3 -7.44 11.03 -11 17 c -6.06 10.17 -11.71 19.99 -17 30 c -0.97 1.84 -2 6 -2 6"/><path fill="none" stroke="#000000" stroke-width="2" stroke-linecap="round" stroke-linejoin="round" d="M 21 87 l 18 72"/><path fill="none" stroke="#000000" stroke-width="2" stroke-linecap="round" stroke-linejoin="round" d="M 80 40 l 1 1"/><path fill="none" stroke="#000000" stroke-width="2" stroke-linecap="round" stroke-linejoin="round" d="M 51 80 c 0.16 -0.1 5.85 -4.27 9 -6 c 3.52 -1.93 7.3 -3.52 11 -5 c 1.26 -0.5 2.78 -1 4 -1 c 1.22 0 3.24 0.24 4 1 c 1.48 1.48 2.95 4.55 4 7 c 1.93 4.51 3.45 9.13 5 14 c 2.93 9.23 8 27 8 27"/><path fill="none" stroke="#000000" stroke-width="2" stroke-linecap="round" stroke-linejoin="round" d="M 69 94 c 0.19 -0.12 8.45 -6.49 11 -7 c 1.11 -0.22 3.27 2.53 4 4 c 1.07 2.14 2.24 5.65 2 8 c -0.36 3.61 -2.31 8.62 -4 12 c -0.75 1.51 -2.85 2.52 -4 4 c -3.5 4.5 -10.71 12.58 -10 14 c 0.66 1.33 10.79 -0.75 16 -2 c 12.79 -3.08 38 -11 38 -11"/><path fill="none" stroke="#000000" stroke-width="2" stroke-linecap="round" stroke-linejoin="round" d="M 132 73 c 0.3 -0.1 11.57 -3.53 17 -6 c 5.53 -2.51 16 -9 16 -9"/><path fill="none" stroke="#000000" stroke-width="2" stroke-linecap="round" stroke-linejoin="round" d="M 168 33 l 6 34"/><path fill="none" stroke="#000000" stroke-width="2" stroke-linecap="round" stroke-linejoin="round" d="M 148 88 c 0.28 -0.1 10.78 -3.71 16 -6 c 3.14 -1.38 8.24 -6.31 9 -5 c 2.89 5.01 7.28 32.4 10 38 c 0.53 1.09 5.47 -1.47 7 -3 c 2.61 -2.61 8.24 -10.24 7 -11 c -2.39 -1.46 -17.27 -0.99 -25 0 c -4.6 0.59 -10.45 2.76 -14 5 c -2.05 1.3 -3.76 4.52 -5 7 c -2 4.01 -3.97 8.69 -5 13 c -0.89 3.73 -1 8.09 -1 12 c 0 2.3 0.42 4.86 1 7 c 0.37 1.36 1.01 3.18 2 4 c 2.57 2.14 6.55 4.99 10 6 c 7.19 2.12 15.79 3.21 24 4 c 19.96 1.92 39.26 2 59 4 c 6.81 0.69 13.13 2.89 20 4 c 5.76 0.93 11.18 1.6 17 2 c 9.19 0.63 18.08 1 27 1 c 2.33 0 4.78 -0.45 7 -1 l 5 -2"/><path fill="none" stroke="#000000" stroke-width="2" stroke-linecap="round" stroke-linejoin="round" d="M 222 35 c 0.11 0.21 4.66 7.97 6 12 c 1.22 3.66 1.65 7.98 2 12 c 0.32 3.63 0.63 7.68 0 11 c -0.62 3.25 -2.28 7.03 -4 10 c -1.82 3.15 -7.7 7.4 -7 9 c 0.96 2.19 9.57 6.53 14 7 c 6.84 0.72 20.19 -4.52 24 -3 c 2.05 0.82 1.9 9.55 1 13 c -0.84 3.23 -4.25 7.39 -7 10 c -3.56 3.38 -8.66 6.92 -13 9 c -2.8 1.34 -7.02 2 -10 2 c -1.85 0 -4.94 -0.82 -6 -2 c -1.43 -1.59 -3.16 -5.56 -3 -8 c 0.43 -6.72 3.11 -15.99 5 -23 l 2 -3"/></svg>