<?xml version="1.0" encoding="UTF-8" standalone="no"?><!DOCTYPE svg PUBLIC "-//W3C//DTD SVG 1.1//EN" "http://www.w3.org/Graphics/SVG/1.1/DTD/svg11.dtd"><svg xmlns="http://www.w3.org/2000/svg" version="1.1" width="287" height="189"><path fill="none" stroke="#000000" stroke-width="2" stroke-linecap="round" stroke-linejoin="round" d="M 57 1 c 0.05 0.45 5.71 23.04 3 26 c -2.6 2.83 -17.13 -1.73 -25 -2 c -1.29 -0.04 -3.01 0.34 -4 1 c -1.7 1.14 -3.89 3.1 -5 5 c -3.3 5.66 -8.63 16.77 -9 19 c -0.11 0.64 4.21 -0.25 6 -1 c 10.41 -4.38 20.95 -10.23 32 -15 c 6.33 -2.73 12.47 -4.95 19 -7 c 5.32 -1.67 10.51 -2.96 16 -4 c 7.06 -1.33 15.01 -2.76 21 -3 c 1.26 -0.05 3.75 1.26 4 2 l -2 4"/><path fill="none" stroke="#000000" stroke-width="2" stroke-linecap="round" stroke-linejoin="round" d="M 74 37 c -0.45 0.28 -17.45 10.18 -26 16 c -7.4 5.04 -14.48 10.15 -21 16 c -6.47 5.8 -11.77 12.77 -18 19 c -1.86 1.86 -4.42 3.23 -6 5 c -0.9 1.02 -2.53 3.64 -2 4 c 1.33 0.89 7.32 1.69 11 2 c 4.27 0.36 9.93 -0.61 13 0 c 0.85 0.17 1.46 1.93 2 3 c 2.13 4.26 4.51 8.53 6 13 c 2.15 6.44 3.63 13.14 5 20 c 1.35 6.73 2.24 13.16 3 20 c 0.6 5.42 0.35 10.63 1 16 c 0.7 5.78 3 17 3 17"/><path fill="none" stroke="#000000" stroke-width="2" stroke-linecap="round" stroke-linejoin="round" d="M 98 51 l -1 6"/><path fill="none" stroke="#000000" stroke-width="2" stroke-linecap="round" stroke-linejoin="round" d="M 80 78 c 0.19 0 8.44 -1.14 11 0 c 2.48 1.1 5.17 5.18 7 8 c 1.69 2.62 3.03 5.89 4 9 c 2.02 6.51 4.07 13.74 5 20 c 0.32 2.15 -0.17 5.5 -1 7 c -0.53 0.95 -2.8 1.85 -4 2 c -1.11 0.14 -2.87 -0.44 -4 -1 c -1.37 -0.68 -3.39 -1.79 -4 -3 c -1.12 -2.24 -2.44 -6.68 -2 -9 c 0.41 -2.17 3.23 -5.01 5 -7 c 0.74 -0.83 2.38 -2.12 3 -2 c 0.62 0.12 1.65 1.94 2 3 c 0.9 2.7 2.53 6.44 2 9 c -1.24 5.97 -4.34 14.75 -8 20 c -3.37 4.84 -9.98 9.04 -15 13 c -1.13 0.89 -4.23 1.99 -4 2 c 1.91 0.12 24.57 0.71 37 0 c 11.17 -0.64 22.24 -1.81 33 -4 c 8.8 -1.79 26 -8 26 -8"/><path fill="none" stroke="#000000" stroke-width="2" stroke-linecap="round" stroke-linejoin="round" d="M 165 98 c 0.56 -0.72 21.99 -27.2 32 -41 c 2.15 -2.97 3.59 -6.54 5 -10 c 1.6 -3.91 4.84 -12.16 4 -12 c -1.66 0.31 -14.55 9.55 -20 15 c -3.33 3.33 -6.21 8.98 -8 13 c -0.59 1.32 -0.55 3.9 0 5 c 0.55 1.1 2.58 2.29 4 3 c 2.43 1.22 7.29 1.38 8 3 c 1.08 2.47 -1.65 9.28 -1 13 c 0.56 3.19 3.05 7.08 5 10 c 1.23 1.85 3.84 3.14 5 5 c 1.99 3.18 4.49 7.46 5 11 c 0.71 4.99 0.37 11.99 -1 17 c -1.44 5.26 -4.94 10.95 -8 16 c -2.57 4.23 -5.71 8.35 -9 12 c -2.64 2.93 -5.79 5.86 -9 8 c -3.58 2.39 -12.26 6.06 -12 6 c 0.88 -0.19 29.11 -9.28 44 -13 c 6.56 -1.64 13.28 -2.48 20 -3 c 6.32 -0.49 12.98 -0.73 19 0 c 4.61 0.56 9.43 2.36 14 4 c 3.79 1.36 7.56 2.99 11 5 l 13 9"/><path fill="none" stroke="#000000" stroke-width="2" stroke-linecap="round" stroke-linejoin="round" d="M 216 70 c 0.58 -0.14 21.76 -5.47 33 -8 c 2.34 -0.53 4.94 -1.17 7 -1 c 1.57 0.13 4.85 1 5 2 c 0.33 2.12 -1.54 7.59 -3 11 c -2.47 5.75 -5.67 11.4 -9 17 c -3.12 5.25 -6.44 9.97 -10 15 c -2.25 3.18 -4.53 6.31 -7 9 c -1.08 1.18 -4.17 3.05 -4 3 c 1.31 -0.37 25.15 -10.05 36 -12 c 4.1 -0.74 11.13 1.15 14 3 c 1.71 1.11 3.21 5.69 3 8 c -0.37 4.02 -2.35 10.82 -5 14 c -3.22 3.86 -10.16 8.68 -15 10 c -4.84 1.32 -12.98 0.51 -18 -1 c -4.02 -1.2 -9.11 -4.82 -12 -8 c -3.24 -3.56 -6.95 -9.41 -8 -14 c -1.37 -5.98 -1.23 -14.86 0 -21 l 7 -14"/></svg>