<?xml version="1.0" encoding="UTF-8" standalone="no"?><!DOCTYPE svg PUBLIC "-//W3C//DTD SVG 1.1//EN" "http://www.w3.org/Graphics/SVG/1.1/DTD/svg11.dtd"><svg xmlns="http://www.w3.org/2000/svg" version="1.1" width="312" height="174"><path fill="none" stroke="#000000" stroke-width="2" stroke-linecap="round" stroke-linejoin="round" d="M 63 1 c 0.07 0.35 3.24 13.35 4 20 c 0.56 4.89 0 15 0 15"/><path fill="none" stroke="#000000" stroke-width="2" stroke-linecap="round" stroke-linejoin="round" d="M 32 25 c -0.14 0.44 -10.51 24.76 -8 25 c 5.19 0.49 33.16 -15 50 -21 c 7.31 -2.6 16.04 -3.97 23 -5 c 1.22 -0.18 2.87 0.44 4 1 c 1.37 0.68 3.19 1.78 4 3 c 1.6 2.4 2.96 5.89 4 9 c 1.63 4.9 4 15 4 15"/><path fill="none" stroke="#000000" stroke-width="2" stroke-linecap="round" stroke-linejoin="round" d="M 65 49 c -0.35 0.26 -13.46 9.58 -20 15 c -7.41 6.14 -14.07 12.23 -21 19 c -8.13 7.95 -23.14 23.44 -23 24 c 0.13 0.53 19.34 -20.27 24 -20 c 3.67 0.21 9.25 14.64 11 22 c 2.63 11.1 3 37 3 37"/><path fill="none" stroke="#000000" stroke-width="2" stroke-linecap="round" stroke-linejoin="round" d="M 80 42 c 0.02 0.1 1.21 4.18 1 6 c -0.4 3.42 -3 11 -3 11"/><path fill="none" stroke="#000000" stroke-width="2" stroke-linecap="round" stroke-linejoin="round" d="M 63 81 c 0.26 -0.14 10.1 -6 15 -8 c 2.04 -0.83 5.55 -1.66 7 -1 c 1.48 0.67 3.29 3.87 4 6 c 2.44 7.32 4.81 15.99 6 24 c 1.11 7.46 1 23 1 23"/><path fill="none" stroke="#000000" stroke-width="2" stroke-linecap="round" stroke-linejoin="round" d="M 71 93 c 0.26 -0.07 12.47 -4.32 15 -4 c 0.99 0.12 1.18 4.39 1 6 c -0.11 0.95 -2.41 2.77 -2 3 c 1.27 0.7 10.32 0.25 11 2 c 1 2.58 -2.05 11.2 -4 16 c -1.55 3.79 -4.44 7.41 -7 11 c -2.52 3.52 -4.99 7.12 -8 10 c -4.52 4.32 -15.67 12.06 -15 12 c 1.37 -0.12 24.61 -10.77 37 -14 c 10.1 -2.63 21.21 -3 32 -4 c 3.68 -0.34 7.28 -0.24 11 0 c 6.8 0.44 20 2 20 2"/><path fill="none" stroke="#000000" stroke-width="2" stroke-linecap="round" stroke-linejoin="round" d="M 127 78 c 0.77 -0.47 29.73 -17.33 44 -27 c 6.48 -4.39 12.29 -9.79 18 -15 c 1.9 -1.74 3.79 -3.99 5 -6 c 0.64 -1.06 1.28 -3.17 1 -4 c -0.24 -0.73 -2.17 -2.09 -3 -2 c -1.55 0.17 -5.39 1.43 -6 3 c -2.59 6.68 -4.95 18.71 -6 28 c -0.92 8.11 0 25 0 25"/><path fill="none" stroke="#000000" stroke-width="2" stroke-linecap="round" stroke-linejoin="round" d="M 159 90 c 0.35 -0.23 17.36 -13.13 20 -13 c 1.55 0.08 0.34 9.35 0 14 c -0.32 4.37 -1.81 8.79 -2 13 c -0.13 2.9 0.25 6.37 1 9 c 0.48 1.69 1.67 4.18 3 5 c 2.38 1.46 6.82 2.68 10 3 c 3.06 0.31 6.86 -0.37 10 -1 c 1.68 -0.34 5.33 -1.67 5 -2 c -0.79 -0.79 -8.16 -4.68 -12 -5 c -7.12 -0.59 -16.21 0.85 -24 2 c -3.38 0.5 -6.97 1.54 -10 3 c -5.08 2.44 -14.89 6.35 -15 9 c -0.13 3.11 8.75 11.83 14 15 c 7.94 4.8 19.08 8.6 29 11 c 20.15 4.87 41 6.66 62 11 c 10.35 2.14 19.97 5.85 30 8 c 3.89 0.83 8.03 1 12 1 c 3.31 0 6.96 -0.35 10 -1 c 1.35 -0.29 2.98 -1.1 4 -2 c 1.77 -1.58 4.6 -3.91 5 -6 l 0 -20"/><path fill="none" stroke="#000000" stroke-width="2" stroke-linecap="round" stroke-linejoin="round" d="M 217 39 c 0.56 -0.14 22.25 -6.92 32 -8 c 3.94 -0.44 10.22 1.26 13 3 c 1.58 0.99 3 4.84 3 7 c 0 4.63 -1.37 10.96 -3 16 c -2.29 7.07 -5.39 14.47 -9 21 c -3.29 5.95 -7.72 11.43 -12 17 c -2.48 3.22 -5.18 6.18 -8 9 c -1.5 1.5 -5.1 4.05 -5 4 c 0.33 -0.18 11.73 -7.5 18 -11 c 5.32 -2.97 10.67 -6.22 16 -8 c 4.21 -1.4 9.62 -2 14 -2 c 2.86 0 6.6 0.89 9 2 c 1.47 0.68 3.25 2.49 4 4 c 1.69 3.38 4 8.45 4 12 c 0 3.82 -2.09 9.35 -4 13 c -1.5 2.85 -4.34 6.23 -7 8 c -3.8 2.54 -9.69 5.34 -14 6 c -3.44 0.53 -9.08 -0.39 -12 -2 c -2.89 -1.59 -6.18 -5.78 -8 -9 c -2.25 -3.98 -4.56 -9.59 -5 -14 c -0.48 -4.78 0.2 -11.57 2 -16 c 2.17 -5.34 7.33 -11.29 11 -16 l 3 -2"/></svg>