<?xml version="1.0" encoding="UTF-8" standalone="no"?><!DOCTYPE svg PUBLIC "-//W3C//DTD SVG 1.1//EN" "http://www.w3.org/Graphics/SVG/1.1/DTD/svg11.dtd"><svg xmlns="http://www.w3.org/2000/svg" version="1.1" width="215" height="205"><path fill="none" stroke="#000000" stroke-width="2" stroke-linecap="round" stroke-linejoin="round" d="M 21 63 c 0.09 0.09 3.17 3.74 5 5 c 2.31 1.6 5.25 3.04 8 4 c 3.8 1.33 7.92 2.38 12 3 c 6.95 1.05 18.31 1.15 21 2 c 0.57 0.18 -1.11 2.86 -2 4 c -3.65 4.7 -7.68 9.52 -12 14 c -4.81 4.99 -14.58 13.49 -15 14 c -0.14 0.17 4.48 -3 6 -3 c 1.13 0 3.82 1.9 4 3 c 0.34 2.02 -0.95 6.19 -2 9 c -1.89 5.05 -5.42 10.27 -7 15 c -0.57 1.72 -1.05 5.3 0 6 c 3.33 2.22 12.48 3.74 18 6 c 1.45 0.59 2.9 1.9 4 3 c 0.8 0.8 1.78 2 2 3 c 0.37 1.67 0.46 4.32 0 6 c -0.44 1.63 -1.72 3.65 -3 5 c -5.14 5.4 -10.93 10.88 -17 16 c -9.25 7.81 -18.61 15.09 -28 22 c -1.77 1.3 -3.98 2.27 -6 3 c -1.54 0.56 -4.32 1.68 -5 1 l -3 -9"/><path fill="none" stroke="#000000" stroke-width="2" stroke-linecap="round" stroke-linejoin="round" d="M 68 86 c 0.14 -0.07 5.36 -3.59 8 -4 c 5.31 -0.82 12.2 -0.26 18 0 c 1.33 0.06 3.69 0.23 4 1 c 0.68 1.69 1.19 6.88 0 9 c -2.8 5.01 -10.11 10.32 -14 16 c -3.93 5.74 -7.79 13.04 -10 19 c -0.82 2.22 -0.55 5.97 0 8 c 0.29 1.07 1.9 2.82 3 3 c 3.88 0.65 10.41 0.46 15 0 c 1.65 -0.16 3.65 -1.06 5 -2 c 1.77 -1.24 3.53 -3.2 5 -5 c 1.5 -1.83 3.16 -3.98 4 -6 c 0.71 -1.7 1 -4.02 1 -6 c 0 -5.54 -0.03 -11.74 -1 -17 c -0.62 -3.33 -2.38 -6.75 -4 -10 c -4.11 -8.23 -8.35 -16.17 -13 -24 c -1.7 -2.87 -4.6 -7.87 -6 -8 c -1.21 -0.11 -4.39 4.66 -5 7 c -0.86 3.26 0.27 7.93 0 12 c -0.75 11.24 -1.64 21.64 -3 33 c -2.78 23.17 -8.83 65.83 -9 67 c -0.01 0.09 -0.26 -3.43 0 -5 c 0.38 -2.29 0.97 -4.95 2 -7 c 1.53 -3.05 3.87 -6.16 6 -9 c 0.83 -1.11 1.89 -2.66 3 -3 c 2.63 -0.81 7.4 -2.01 10 -1 c 6.38 2.47 14.04 8.3 21 13 c 5.64 3.81 10.39 8.43 16 12 c 5.4 3.43 11.39 6.33 17 9 l 4 1"/><path fill="none" stroke="#000000" stroke-width="2" stroke-linecap="round" stroke-linejoin="round" d="M 139 124 c 0.19 0.02 7.74 1.54 11 1 c 4.11 -0.68 8.88 -2.94 13 -5 c 5.17 -2.59 10.04 -5.77 15 -9 c 2.84 -1.85 5.48 -3.8 8 -6 c 2.85 -2.49 5.35 -5.17 8 -8 c 2.49 -2.66 4.94 -5.19 7 -8 c 1.56 -2.13 2.78 -4.55 4 -7 c 1.84 -3.67 3.63 -7.23 5 -11 c 1.29 -3.56 2.67 -7.32 3 -11 c 0.97 -10.64 2.19 -23.06 1 -33 c -0.66 -5.53 -4.38 -11.77 -7 -17 c -0.91 -1.82 -2.53 -3.53 -4 -5 c -1.47 -1.47 -3.31 -3.52 -5 -4 c -2.38 -0.68 -7.05 -1.1 -9 0 c -2.47 1.39 -5.2 5.81 -7 9 c -2.41 4.26 -4.28 9.17 -6 14 c -2 5.62 -4.17 11.27 -5 17 c -1.79 12.33 -2.72 25.07 -3 38 c -0.4 18.31 -0.02 36.13 1 54 c 0.31 5.39 2.26 10.52 3 16 c 0.96 7.11 0.72 14.41 2 21 c 0.65 3.36 2.22 8.22 4 10 c 1.17 1.17 5 1.37 7 1 l 9 -4"/></svg>