<?xml version="1.0" encoding="UTF-8" standalone="no"?><!DOCTYPE svg PUBLIC "-//W3C//DTD SVG 1.1//EN" "http://www.w3.org/Graphics/SVG/1.1/DTD/svg11.dtd"><svg xmlns="http://www.w3.org/2000/svg" version="1.1" width="144" height="149"><path fill="none" stroke="#000000" stroke-width="2" stroke-linecap="round" stroke-linejoin="round" d="M 1 31 c 0.63 -0.32 23.62 -12.45 36 -18 c 7.2 -3.23 14.43 -5.54 22 -8 c 5.02 -1.63 10.31 -3.36 15 -4 c 2.14 -0.29 5.21 0.19 7 1 c 1.43 0.65 3.68 2.52 4 4 c 1.08 4.99 1.74 12.98 1 19 c -1.19 9.74 -3.82 20.13 -7 30 c -6.93 21.48 -14.83 41.49 -23 63 c -2.13 5.6 -4.59 14.93 -7 16 c -1.88 0.83 -8.18 -4.83 -11 -8 c -4.77 -5.37 -9.56 -12.51 -13 -19 c -2.36 -4.46 -3.75 -9.99 -5 -15 c -0.72 -2.87 -1.7 -6.76 -1 -9 c 0.71 -2.28 3.69 -5.38 6 -7 c 3.92 -2.74 9.4 -5.58 14 -7 c 3.54 -1.09 8.54 -1.38 12 -1 c 1.93 0.21 4.79 1.57 6 3 c 2.01 2.38 4.37 6.72 5 10 c 0.9 4.69 0.97 11.13 0 16 c -1.23 6.17 -4.07 13.14 -7 19 c -2.61 5.22 -6.28 10.54 -10 15 c -2.77 3.33 -6.43 6.36 -10 9 c -4.05 2.99 -13.36 7.95 -13 8 c 0.5 0.07 13.26 -4.3 20 -7 c 13.83 -5.53 26.37 -12.19 40 -17 c 9.05 -3.19 18.81 -5.5 28 -7 c 4.78 -0.78 10.27 -0.57 15 0 c 3.29 0.39 7.09 1.64 10 3 c 1.78 0.83 3.89 2.47 5 4 c 1.32 1.82 2.51 4.73 3 7 l 0 7"/></svg>