<?xml version="1.0" encoding="UTF-8" standalone="no"?><!DOCTYPE svg PUBLIC "-//W3C//DTD SVG 1.1//EN" "http://www.w3.org/Graphics/SVG/1.1/DTD/svg11.dtd"><svg xmlns="http://www.w3.org/2000/svg" version="1.1" width="106" height="128"><path fill="none" stroke="#000000" stroke-width="2" stroke-linecap="round" stroke-linejoin="round" d="M 1 12 c 1.01 -0.19 43.1 -9.34 58 -11 c 1.62 -0.18 4.57 2.46 5 4 c 0.94 3.37 0.67 9.5 0 14 c -1.29 8.57 -3.38 17.47 -6 26 c -2.74 8.9 -6.89 16.96 -10 26 c -4.45 12.93 -8.42 29.29 -12 38 c -0.37 0.9 -3.22 1.54 -4 1 c -2.54 -1.76 -6.36 -6.43 -9 -10 c -2.99 -4.05 -5.67 -8.56 -8 -13 c -1.3 -2.49 -2.65 -5.53 -3 -8 c -0.25 -1.76 0.03 -4.71 1 -6 c 1.59 -2.12 5.16 -4.84 8 -6 c 5.59 -2.28 12.63 -3.81 19 -5 c 4.23 -0.79 9.09 -1.37 13 -1 c 2.56 0.24 5.57 1.78 8 3 c 1.42 0.71 3.58 1.84 4 3 c 0.67 1.85 0.7 5.69 0 8 c -1.45 4.77 -4.13 10.62 -7 15 c -2.57 3.94 -6.31 8.02 -10 11 c -4.69 3.79 -10.43 6.84 -16 10 c -4.62 2.62 -9.18 4.96 -14 7 c -3.89 1.65 -12.11 3.79 -12 4 c 0.11 0.22 8.8 -0.86 13 -2 c 8.09 -2.19 15.74 -5.83 24 -8 c 11.01 -2.9 21.92 -5.36 33 -7 c 6.9 -1.02 14.09 -1 21 -1 c 2.33 0 5.8 0.1 7 1 c 0.87 0.65 1.43 3.64 1 5 l -8 17"/></svg>