<?xml version="1.0" encoding="UTF-8" standalone="no"?><!DOCTYPE svg PUBLIC "-//W3C//DTD SVG 1.1//EN" "http://www.w3.org/Graphics/SVG/1.1/DTD/svg11.dtd"><svg xmlns="http://www.w3.org/2000/svg" version="1.1" width="261" height="198"><path fill="none" stroke="#000000" stroke-width="2" stroke-linecap="round" stroke-linejoin="round" d="M 6 64 c -0.05 0.4 -2.31 15.1 -3 23 c -1.02 11.61 -1.53 22.31 -2 34 c -0.22 5.49 -0.22 10.63 0 16 c 0.11 2.71 0.37 5.68 1 8 l 2 3"/><path fill="none" stroke="#000000" stroke-width="2" stroke-linecap="round" stroke-linejoin="round" d="M 30 49 c 0.49 -0.42 18.25 -16.41 28 -24 c 5.35 -4.16 11.05 -7.71 17 -11 c 6.83 -3.77 13.94 -7.38 21 -10 c 4.35 -1.62 9.79 -3 14 -3 c 3.07 0 7.9 1.13 10 3 c 3.07 2.73 6.53 8.58 8 13 c 1.95 5.85 2.7 13.35 3 20 c 0.37 8.22 -1 16.39 -1 25 c 0 27.88 -0.42 53.57 1 81 c 0.95 18.4 6.4 47.12 6 54 c -0.07 1.2 -6.11 -1.69 -9 -3 c -8.16 -3.71 -24 -12 -24 -12"/><path fill="none" stroke="#000000" stroke-width="2" stroke-linecap="round" stroke-linejoin="round" d="M 46 145 c -0.16 -0.03 -6.97 -0.89 -9 -2 c -0.99 -0.54 -2.31 -3.17 -2 -4 c 0.45 -1.19 3.2 -2.94 5 -4 c 3.78 -2.22 8.07 -3.73 12 -6 c 4.87 -2.81 9.79 -5.57 14 -9 c 4.65 -3.79 8.89 -8.37 13 -13 c 3.98 -4.48 7.6 -9.08 11 -14 c 3.34 -4.84 7.04 -9.94 9 -15 c 1.82 -4.71 2.62 -10.82 3 -16 c 0.26 -3.52 -0.11 -7.78 -1 -11 c -0.65 -2.35 -2.48 -5.29 -4 -7 c -0.85 -0.95 -2.99 -2.13 -4 -2 c -1.12 0.14 -3.17 1.76 -4 3 c -2.22 3.33 -4.53 7.87 -6 12 c -2.15 6.05 -3.51 12.42 -5 19 c -1.94 8.54 -3.65 16.36 -5 25 c -2.77 17.78 -5.28 35.94 -7 52 c -0.14 1.26 0.48 4 1 4 c 0.81 0 3.69 -2.46 5 -4 c 2.21 -2.61 3.8 -6.12 6 -9 c 2.17 -2.83 4.54 -5.54 7 -8 c 1.16 -1.16 2.63 -2.32 4 -3 c 1.13 -0.56 3.93 -1.55 4 -1 c 0.29 2.44 -0.99 11.96 -2 18 c -1.02 6.15 -4.82 17.18 -4 18 c 0.69 0.69 7.98 -6.84 11 -11 c 26.1 -35.89 50.11 -72.79 77 -110 c 6.97 -9.65 14.29 -17.8 22 -27 c 2.98 -3.55 5.79 -6.79 9 -10 c 2.87 -2.87 7.64 -7.46 9 -8 c 0.46 -0.19 1.42 2.96 1 4 c -3.75 9.26 -10.09 22.24 -16 33 c -3.49 6.35 -8.26 11.68 -12 18 c -5.1 8.63 -10.86 18.75 -14 26 c -0.44 1.01 0.51 4.21 1 4 c 1.95 -0.84 8.82 -7.44 13 -10 c 1.3 -0.79 4.83 -1.67 5 -1 c 0.43 1.74 -0.53 9.02 -2 13 c -6.31 17.08 -14.87 34.31 -22 52 c -1.32 3.27 -2.59 6.94 -3 10 c -0.2 1.49 0.18 5 1 5 c 2.55 0 10.75 -2.37 15 -5 c 13.28 -8.21 27.8 -19.71 40 -29 c 0.89 -0.68 2.3 -2.4 2 -3 c -0.65 -1.31 -4 -4.73 -6 -5 c -4.13 -0.56 -10.83 0.74 -16 2 c -9.74 2.38 -27.24 9.29 -29 9 c -0.94 -0.16 6.95 -8.38 11 -12 c 8.66 -7.75 18.58 -15.75 27 -22 c 1 -0.74 4.11 -1.46 4 -1 c -1.31 5.58 -10.72 31.82 -15 48 c -1.72 6.51 -3.05 19.65 -3 20 c 0.03 0.24 2.99 -8.5 4 -13 c 4.08 -18.24 6.81 -35.93 11 -54 c 1.2 -5.18 3 -10.19 5 -15 c 1.3 -3.13 3.19 -6.06 5 -9 c 0.88 -1.43 1.89 -3.2 3 -4 c 0.92 -0.66 3.48 -1.52 4 -1 c 0.92 0.92 2.3 5 2 7 c -0.57 3.83 -3.57 8.54 -5 13 c -1.27 3.96 -2.79 8.65 -3 12 c -0.08 1.21 1.21 4.11 2 4 c 2.53 -0.34 8.9 -4.63 13 -6 c 1.43 -0.48 4 -0.7 5 0 c 1.72 1.2 4.37 4.6 5 7 c 1.16 4.47 1.31 10.8 1 16 c -0.35 5.91 -1.5 12.16 -3 18 c -1.48 5.77 -3.22 12.25 -6 17 c -2.51 4.29 -7.2 9 -11 12 c -2 1.58 -5.74 3.23 -8 3 c -3.44 -0.34 -8.43 -2.89 -12 -5 c -3.51 -2.08 -6.95 -5.16 -10 -8 c -1.53 -1.42 -4.13 -4.37 -4 -5 c 0.1 -0.49 3.4 -0.28 5 0 c 5.92 1.03 11.81 2.45 18 4 l 42 11"/></svg>