<?xml version="1.0" encoding="UTF-8" standalone="no"?><!DOCTYPE svg PUBLIC "-//W3C//DTD SVG 1.1//EN" "http://www.w3.org/Graphics/SVG/1.1/DTD/svg11.dtd"><svg xmlns="http://www.w3.org/2000/svg" version="1.1" width="248" height="244"><path fill="none" stroke="#000000" stroke-width="2" stroke-linecap="round" stroke-linejoin="round" d="M 1 51 c 1.49 -0.58 56.53 -22.65 85 -33 c 4.47 -1.63 11.88 -3.45 14 -3 c 0.89 0.19 0.56 4.21 0 6 c -4.46 14.22 -10.82 29.46 -16 45 c -2.37 7.11 -4.85 13.95 -6 21 c -1.48 9.06 -2 18.74 -2 28 c 0 5.97 3.72 17.52 2 18 c -2.26 0.63 -13.46 -8.4 -20 -13 c -2.53 -1.78 -4.83 -3.83 -7 -6 c -2.17 -2.17 -5.12 -4.88 -6 -7 c -0.49 -1.17 0.17 -3.81 1 -5 c 1.83 -2.65 5.03 -5.88 8 -8 c 6.12 -4.37 13.15 -9.13 20 -12 c 6.98 -2.92 15.46 -4.74 23 -6 c 4.12 -0.69 9.28 -0.62 13 0 c 1.67 0.28 4.47 1.73 5 3 c 0.81 1.95 0.98 6.59 0 9 c -2.3 5.64 -6.78 12.64 -11 18 c -4.25 5.39 -9.64 10.85 -15 15 c -4.64 3.59 -10.49 6.77 -16 9 c -6.56 2.66 -13.84 4.75 -21 6 c -15.86 2.76 -47.15 6 -48 6 c -0.42 0 15.03 -4.21 23 -6 c 11.97 -2.68 22.96 -5.02 35 -7 c 10.88 -1.79 21.19 -3.23 32 -4 c 8.05 -0.57 15.92 -0.39 24 0 c 5.76 0.28 11.44 0.97 17 2 c 3.39 0.63 6.94 1.64 10 3 c 2.76 1.23 5.74 3.15 8 5 l 3 4"/><path fill="none" stroke="#000000" stroke-width="2" stroke-linecap="round" stroke-linejoin="round" d="M 153 21 c 0.05 0.19 2.37 7.25 3 11 c 1.38 8.29 2.42 16.43 3 25 c 1.13 16.7 1.57 32.06 2 49 c 0.26 10.36 0.62 20.07 0 30 c -0.38 6.04 -1.21 13.03 -3 18 c -0.9 2.51 -4.12 5.98 -6 7 l -5 -1"/><path fill="none" stroke="#000000" stroke-width="2" stroke-linecap="round" stroke-linejoin="round" d="M 164 12 c 0.11 -0.02 4.04 -1 6 -1 c 3.88 0 8.24 0.34 12 1 c 1.68 0.3 3.86 0.99 5 2 c 1.52 1.36 3.43 3.92 4 6 c 1.27 4.64 1.73 10.59 2 16 c 0.4 8.06 0.31 15.79 0 24 c -0.38 9.94 -2.25 19.32 -2 29 c 0.42 16.38 2.28 32.29 4 49 c 0.67 6.54 3.18 15.45 3 19 c -0.04 0.76 -3.16 1.52 -4 1 c -3.31 -2.07 -8.59 -6.94 -12 -11 c -5.11 -6.09 -9.4 -13 -14 -20 c -3.98 -6.05 -8.01 -11.84 -11 -18 c -2.24 -4.62 -3.75 -9.99 -5 -15 c -0.72 -2.87 -1 -6.09 -1 -9 c 0 -2.28 0.42 -4.86 1 -7 c 0.37 -1.36 1.09 -3.09 2 -4 c 1.18 -1.18 3.83 -3.13 5 -3 c 1.14 0.13 3.2 2.5 4 4 c 1.66 3.11 3.42 7.4 4 11 c 0.69 4.3 0.41 9.5 0 14 c -0.24 2.65 -1.53 7.88 -2 8 c -0.41 0.1 -1.86 -4.68 -2 -7 c -0.5 -7.96 -1.07 -17.17 0 -25 c 0.85 -6.24 3.53 -12.93 6 -19 c 1.83 -4.5 4.41 -8.75 7 -13 c 2.14 -3.51 4.29 -7.07 7 -10 c 5.18 -5.61 11.07 -10.94 17 -16 c 3.1 -2.64 6.49 -5.1 10 -7 c 4.38 -2.37 9.83 -4.9 14 -6 c 1.4 -0.37 3.84 0.27 5 1 c 1.14 0.71 1.8 3 3 4 c 2.59 2.16 6.95 3.95 9 6 c 0.78 0.78 1.11 2.8 1 4 c -0.19 2.11 -0.77 5.11 -2 7 c -5.66 8.74 -12.93 18.1 -20 27 c -3.43 4.31 -8.21 10.14 -11 12 c -0.77 0.51 -3.6 -1.2 -4 -2 c -0.37 -0.74 0.34 -2.9 1 -4 c 4.05 -6.75 8.95 -14.27 14 -21 c 2.97 -3.96 6.91 -7.07 10 -11 c 4.32 -5.5 8.31 -11.13 12 -17 c 1.98 -3.15 5.11 -10.17 5 -10 c -0.59 0.93 -22.29 35.52 -33 54 c -2.8 4.83 -6.27 11.91 -7 15 c -0.16 0.67 2.15 2.14 3 2 c 2.31 -0.39 5.87 -2.92 9 -4 c 6.63 -2.29 17.49 -5.87 20 -6 c 0.61 -0.03 -0.36 3.48 -1 5 c -4.56 10.84 -10.44 22.16 -15 33 c -0.64 1.52 -1.16 3.6 -1 5 c 0.14 1.23 1.59 2.64 2 4 c 0.55 1.85 1.11 4.05 1 6 c -0.54 9.98 -1.66 21.9 -3 31 c -0.15 1.05 -1.75 3.33 -2 3 c -1.13 -1.51 -4.97 -9.84 -7 -15 c -1.66 -4.24 -4.17 -9.89 -4 -13 c 0.09 -1.62 3.18 -3.6 5 -5 c 2.43 -1.87 5.2 -4.03 8 -5 l 21 -5"/><path fill="none" stroke="#000000" stroke-width="2" stroke-linecap="round" stroke-linejoin="round" d="M 152 170 c 0.14 0.18 6.01 6.51 8 10 c 1.82 3.19 3.82 8.07 4 11 c 0.09 1.46 -1.79 4.72 -3 5 c -2.12 0.49 -7.89 -0.77 -10 -2 c -1.11 -0.65 -2 -3.62 -2 -5 c 0 -1.14 0.98 -3.21 2 -4 c 4.3 -3.35 10.79 -7.14 16 -10 c 1.14 -0.63 3.26 -1.37 4 -1 c 0.8 0.4 2.3 2.94 2 4 c -1.03 3.72 -4.19 9.79 -7 14 c -3.06 4.58 -8.36 8.82 -11 13 c -0.94 1.49 -1.15 4.07 -1 6 c 0.81 10.22 3.88 31.45 4 32 c 0.05 0.22 -0.66 -9.01 0 -13 c 0.6 -3.59 2.2 -7.65 4 -11 c 3.11 -5.8 7.08 -11.46 11 -17 c 1.79 -2.52 3.79 -5.1 6 -7 c 2.26 -1.94 5.27 -3.63 8 -5 c 1.83 -0.92 4.27 -2.12 6 -2 c 2.34 0.17 6.97 3.52 8 3 c 0.85 -0.42 -0.64 -4.99 0 -7 c 1.51 -4.75 4.5 -10.5 7 -15 c 0.64 -1.15 2.14 -3 3 -3 c 1.18 0 4.95 1.74 5 3 c 0.2 5.27 -3.11 15.98 -4 24 c -0.44 3.95 -0.81 10.06 0 12 c 0.34 0.81 4.02 -0.56 5 0 c 0.88 0.5 2 2.8 2 4 c 0 1.95 -1.07 4.84 -2 7 c -1.03 2.39 -2.3 5.1 -4 7 l -13 12"/></svg>