<?xml version="1.0" encoding="UTF-8" standalone="no"?><!DOCTYPE svg PUBLIC "-//W3C//DTD SVG 1.1//EN" "http://www.w3.org/Graphics/SVG/1.1/DTD/svg11.dtd"><svg xmlns="http://www.w3.org/2000/svg" version="1.1" width="270" height="218"><path fill="none" stroke="#000000" stroke-width="2" stroke-linecap="round" stroke-linejoin="round" d="M 1 63 c 0.14 -0.17 5.01 -7.01 8 -10 c 4.96 -4.96 10.16 -10.17 16 -14 c 14.27 -9.36 29.53 -18.27 45 -26 c 9.89 -4.95 22.07 -9.19 31 -12 c 1.11 -0.35 2.87 0.44 4 1 c 1.37 0.68 3.13 1.84 4 3 c 0.93 1.25 1.76 3.32 2 5 c 0.71 4.99 1.55 10.95 1 16 c -0.74 6.8 -2.85 14 -5 21 c -4.64 15.08 -9.59 29 -15 44 c -2.14 5.93 -4.36 13.6 -7 17 c -1.02 1.31 -4.94 1.27 -7 1 c -2.49 -0.33 -5.81 -1.54 -8 -3 c -3.45 -2.3 -7.53 -5.66 -10 -9 c -2.87 -3.88 -5.35 -9.2 -7 -14 c -2.27 -6.62 -4.16 -13.93 -5 -21 c -1.48 -12.46 -1.36 -37.36 -2 -38 c -0.53 -0.53 -3.62 20.26 -5 31 c -3.1 24.1 -5.66 45.87 -8 70 c -1.1 11.32 -1.56 21.66 -2 33 c -0.25 6.52 -0.62 13 0 19 c 0.34 3.3 1.58 9.67 3 10 c 1.66 0.38 7.18 -4.33 10 -7 c 2.96 -2.8 5.67 -6.38 8 -10 c 13.5 -20.97 25.28 -41.78 39 -63 c 4.37 -6.76 9.03 -12.73 14 -19 c 2.83 -3.57 5.7 -7.15 9 -10 c 3.88 -3.35 8.47 -6.73 13 -9 c 5.17 -2.58 11.11 -4.44 17 -6 c 15.76 -4.19 31 -7.89 47 -11 c 8.35 -1.62 16.43 -2.29 25 -3 c 7.84 -0.65 15.31 -1.29 23 -1 l 30 3"/><path fill="none" stroke="#000000" stroke-width="2" stroke-linecap="round" stroke-linejoin="round" d="M 171 23 c -0.1 0.58 -3.43 21.9 -6 33 c -2.87 12.37 -6.33 23.76 -10 36 c -1.46 4.87 -3.05 9.35 -5 14 c -2.46 5.88 -5.71 11.27 -8 17 c -1.01 2.51 -1.81 5.53 -2 8 c -0.12 1.53 0.31 3.62 1 5 c 1.17 2.33 2.97 5.42 5 7 c 3.49 2.71 8.51 5.08 13 7 c 4.81 2.06 9.82 3.73 15 5 c 12.72 3.12 25.2 5.83 38 8 c 4.95 0.84 10.55 1.4 15 1 c 2.26 -0.21 4.84 -1.77 7 -3 l 7 -5"/><path fill="none" stroke="#000000" stroke-width="2" stroke-linecap="round" stroke-linejoin="round" d="M 210 105 c -0.14 1.16 -4.84 43.41 -8 66 c -1.3 9.33 -3.1 18.85 -5 27 c -0.25 1.07 -2 3 -2 3"/><path fill="none" stroke="#000000" stroke-width="2" stroke-linecap="round" stroke-linejoin="round" d="M 142 168 l -13 20"/><path fill="none" stroke="#000000" stroke-width="2" stroke-linecap="round" stroke-linejoin="round" d="M 247 204 l 12 13"/></svg>