<?xml version="1.0" encoding="UTF-8" standalone="no"?><!DOCTYPE svg PUBLIC "-//W3C//DTD SVG 1.1//EN" "http://www.w3.org/Graphics/SVG/1.1/DTD/svg11.dtd"><svg xmlns="http://www.w3.org/2000/svg" version="1.1" width="120" height="144"><path fill="none" stroke="#000000" stroke-width="2" stroke-linecap="round" stroke-linejoin="round" d="M 1 7 c 0.3 0.02 11.47 -0.07 17 1 c 18.35 3.57 37.66 7.09 55 13 c 12.35 4.21 24.02 11.72 36 18 c 2.15 1.12 3.99 2.99 6 4 c 1.15 0.57 3.9 0.42 4 1 c 0.14 0.82 -1.8 3.65 -3 5 c -1.32 1.49 -3.23 2.97 -5 4 c -2.1 1.23 -4.89 1.69 -7 3 c -4.77 2.95 -9.16 7.58 -14 10 c -4.72 2.36 -10.57 3.69 -16 5 c -4.26 1.03 -8.79 2 -13 2 c -5.48 0 -12.72 -0.01 -17 -2 c -3.89 -1.81 -7.94 -7.02 -11 -11 c -3.44 -4.47 -7.05 -9.89 -9 -15 c -2.17 -5.67 -3.24 -12.7 -4 -19 c -0.55 -4.54 -0.44 -9.62 0 -14 c 0.2 -1.98 0.8 -4.8 2 -6 c 1.95 -1.95 6.06 -4.3 9 -5 c 3.43 -0.82 8.16 -0.48 12 0 c 3.96 0.5 8.41 1.39 12 3 c 5.72 2.57 12.06 6.2 17 10 c 3.37 2.59 6.61 6.42 9 10 c 2.78 4.17 5.07 9.17 7 14 c 2.07 5.17 4.25 10.75 5 16 c 0.85 5.95 0.5 12.7 0 19 c -0.5 6.38 -0.5 13.89 -3 19 c -3.89 7.97 -11.44 16.69 -18 24 c -4.96 5.52 -10.94 10.96 -17 15 c -6.57 4.38 -14.86 8.55 -22 11 c -3.79 1.3 -9.19 1.52 -13 1 l -9 -4"/></svg>