<?xml version="1.0" encoding="UTF-8" standalone="no"?><!DOCTYPE svg PUBLIC "-//W3C//DTD SVG 1.1//EN" "http://www.w3.org/Graphics/SVG/1.1/DTD/svg11.dtd"><svg xmlns="http://www.w3.org/2000/svg" version="1.1" width="250" height="231"><path fill="none" stroke="#000000" stroke-width="2" stroke-linecap="round" stroke-linejoin="round" d="M 1 60 c 0.12 -0.17 4.35 -6.96 7 -10 c 3.99 -4.59 8.42 -8.59 13 -13 c 4.76 -4.58 9.02 -9.02 14 -13 c 5.06 -4.05 10.41 -7.68 16 -11 c 5.15 -3.06 10.58 -5.87 16 -8 c 3.75 -1.47 7.94 -2.29 12 -3 c 3.62 -0.63 7.62 -1.32 11 -1 c 3.2 0.3 6.88 1.75 10 3 c 1.74 0.7 4.06 1.7 5 3 c 1.38 1.9 3.1 5.59 3 8 c -0.19 4.66 -1.98 11.18 -4 16 c -2.15 5.12 -5.41 10.95 -9 15 c -3.65 4.13 -9.12 8.03 -14 11 c -4.18 2.54 -9.31 4.71 -14 6 c -4.66 1.29 -10.08 1.81 -15 2 c -3.59 0.14 -7.37 -0.43 -11 -1 c -2.71 -0.43 -8 -2.55 -8 -2 c 0 0.8 5.75 5.75 8 9 c 3.69 5.32 6.96 11.1 10 17 c 2.69 5.23 5.06 10.48 7 16 c 2.43 6.9 4.28 13.78 6 21 c 1.68 7.07 2.97 14.04 4 21 c 0.29 1.95 -0.55 6.26 0 6 c 2.2 -1.04 13.18 -9.48 19 -15 c 6.81 -6.45 12.28 -13.93 19 -21 c 6.71 -7.06 12.9 -13.59 20 -20 c 6.79 -6.12 13.61 -11.84 21 -17 c 6.99 -4.88 14.31 -8.84 22 -13 c 8.75 -4.74 16.95 -9.56 26 -13 c 17.32 -6.58 48.29 -13.53 53 -17 c 1.57 -1.16 -9.86 -8.51 -15 -11 c -4.55 -2.2 -10.54 -2.98 -16 -4 c -5.33 -1 -10.85 -2 -16 -2 c -4.2 0 -8.85 0.86 -13 2 c -5.39 1.49 -11.39 3.42 -16 6 c -3.25 1.82 -6.41 5.08 -9 8 c -2.63 2.96 -5.41 6.53 -7 10 c -1.9 4.14 -3.34 9.4 -4 14 c -0.63 4.42 -0.53 9.55 0 14 c 0.44 3.63 1.51 7.71 3 11 c 1.71 3.76 4.32 8.14 7 11 c 1.94 2.07 5.3 4.35 8 5 c 4.87 1.17 11.7 1.61 17 1 c 5.81 -0.66 12.35 -2.71 18 -5 c 6.49 -2.63 13.19 -6.13 19 -10 c 4.99 -3.32 9.82 -7.65 14 -12 c 3.71 -3.87 10.13 -11.33 10 -13 c -0.09 -1.12 -8.03 -1.1 -11 0 c -5.09 1.89 -11.47 6.1 -16 10 c -4.76 4.11 -8.94 9.71 -13 15 c -3.68 4.81 -7.32 9.8 -10 15 c -2.54 4.93 -4.01 10.43 -6 16 c -1.47 4.12 -3.29 7.96 -4 12 c -1.24 7.05 -0.1 16.29 -2 22 c -0.98 2.93 -5.14 6.64 -8 8 c -3.32 1.58 -8.76 2.15 -13 2 c -14.26 -0.5 -38.33 -1.82 -44 -4 c -1.55 -0.6 2.46 -8.64 5 -11 c 5.77 -5.36 15.07 -11.35 23 -15 c 8.13 -3.74 17.89 -6.14 27 -8 c 8.79 -1.79 17.98 -2.62 27 -3 c 6.98 -0.29 14.25 0.04 21 1 c 4.67 0.67 10.03 2.11 14 4 c 2.51 1.2 5.79 3.69 7 6 c 2.04 3.89 4.33 10.48 4 15 c -0.57 7.83 -3.69 17.97 -7 26 c -3.52 8.54 -8.74 17.02 -14 25 c -5.11 7.74 -10.96 14.88 -17 22 l -11 11"/></svg>