<?xml version="1.0" encoding="UTF-8" standalone="no"?><!DOCTYPE svg PUBLIC "-//W3C//DTD SVG 1.1//EN" "http://www.w3.org/Graphics/SVG/1.1/DTD/svg11.dtd"><svg xmlns="http://www.w3.org/2000/svg" version="1.1" width="351" height="212"><path fill="none" stroke="#000000" stroke-width="2" stroke-linecap="round" stroke-linejoin="round" d="M 3 58 c 0.23 -0.05 8.69 -1.72 13 -3 c 4.8 -1.42 9.47 -3.01 14 -5 c 3.81 -1.68 10.92 -7.28 11 -6 c 0.35 5.37 -5.51 34.07 -8 52 c -0.95 6.85 -0.11 19.17 -2 20 c -1.8 0.79 -11.72 -9.77 -14 -13 c -0.53 -0.76 1.05 -3.05 2 -4 c 2.42 -2.42 5.79 -4.98 9 -7 c 5.8 -3.65 11.98 -7.11 18 -10 c 2.13 -1.02 4.89 -1.81 7 -2 c 1.2 -0.11 3.93 0.33 4 1 c 0.15 1.38 -1.53 5.67 -3 8 c -6.3 9.97 -13.26 20.82 -21 30 c -6.43 7.63 -14.33 14.05 -22 21 c -3.23 2.93 -10.41 8.08 -10 8 c 1.04 -0.21 19.7 -8.57 30 -12 c 8.89 -2.96 17.96 -5.14 27 -7 l 12 -1"/><path fill="none" stroke="#000000" stroke-width="2" stroke-linecap="round" stroke-linejoin="round" d="M 87 38 c 0.09 0.45 4.13 17.25 5 26 c 1.12 11.24 1.92 22.83 1 34 c -1.4 16.95 -4.85 33.93 -8 51 c -0.89 4.82 -4 14 -4 14"/><path fill="none" stroke="#000000" stroke-width="2" stroke-linecap="round" stroke-linejoin="round" d="M 98 40 c 0.42 -0.05 16.55 -2.47 24 -3 c 1.27 -0.09 3.18 0.3 4 1 c 1.16 1 2.67 3.28 3 5 c 1.2 6.22 1.72 13.85 2 21 c 0.4 10.51 0.3 20.33 0 31 c -0.38 13.44 -1.52 25.56 -2 39 c -0.21 5.85 -0.26 11.2 0 17 c 0.42 9.24 1.98 26.53 2 27 l -1 -5"/><path fill="none" stroke="#000000" stroke-width="2" stroke-linecap="round" stroke-linejoin="round" d="M 99 86 c 0.32 -0.07 16.62 -5.61 18 -4 c 1.42 1.65 -5.81 13.51 -6 18 c -0.08 1.85 3.05 4.7 5 6 c 3.58 2.39 13 6 13 6"/><path fill="none" stroke="#000000" stroke-width="2" stroke-linecap="round" stroke-linejoin="round" d="M 149 29 c 0.26 0.02 10.19 1.47 15 1 c 8.47 -0.83 17.37 -3.83 26 -5 c 3.58 -0.48 11.54 -0.56 11 0 c -2.23 2.32 -35.66 24.86 -37 27 c -0.65 1.04 20.32 -3.56 22 -3 c 0.8 0.27 -4.34 5.83 -7 8 c -6.12 4.98 -13.12 9.64 -20 14 c -3.15 2 -10.25 5.05 -10 5 c 0.89 -0.16 24.84 -6.92 38 -10 c 13.33 -3.12 35.62 -7.06 39 -8 l -3 -2"/><path fill="none" stroke="#000000" stroke-width="2" stroke-linecap="round" stroke-linejoin="round" d="M 189 1 c -0.1 0.79 -2.48 30.74 -6 45 c -2.99 12.13 -9.51 23.52 -14 36 c -3.41 9.5 -5.55 18.67 -9 28 c -2.31 6.25 -5.6 11.74 -8 18 c -3.73 9.75 -6.34 19.25 -10 29 c -1.44 3.84 -5.08 11.2 -5 11 c 0.15 -0.37 9 -21 9 -21"/><path fill="none" stroke="#000000" stroke-width="2" stroke-linecap="round" stroke-linejoin="round" d="M 166 104 c 0.25 0 9.41 -0.57 14 0 c 11.32 1.42 22.72 3.31 34 6 c 9.92 2.36 26.9 7.86 29 9 c 0.53 0.29 -4.55 2.22 -7 3 c -13.42 4.28 -38.67 11.64 -40 12 c -0.11 0.03 3.01 -2.34 3 -2 c -0.1 2.87 -2.35 20.38 -4 30 c -0.29 1.71 -1.96 5.27 -2 5 c -0.24 -1.44 -0.95 -20.57 -2 -29 c -0.13 -1.05 -1.19 -2.7 -2 -3 c -1.35 -0.51 -5.09 -0.98 -6 0 c -2.17 2.35 -4.75 8.71 -6 13 c -0.96 3.31 -1.2 7.65 -1 11 c 0.11 1.92 1.03 4.38 2 6 c 0.87 1.45 2.5 2.94 4 4 c 4.04 2.85 8.93 5.2 13 8 c 1.13 0.78 2.44 1.89 3 3 c 0.96 1.91 2 4.94 2 7 c 0 1.79 -0.95 4.37 -2 6 c -1.76 2.73 -4.39 5.8 -7 8 c -3.54 2.98 -7.96 6.39 -12 8 c -3.68 1.47 -8.94 2 -13 2 c -2.85 0 -6.4 -1 -9 -2 c -1.41 -0.54 -3.2 -1.89 -4 -3 c -0.66 -0.92 -1.32 -2.95 -1 -4 c 0.81 -2.62 2.86 -6.63 5 -9 c 3.84 -4.24 9.07 -8.09 14 -12 c 4.98 -3.95 9.75 -7.31 15 -11 c 4.07 -2.86 7.83 -5.74 12 -8 l 12 -5"/><path fill="none" stroke="#000000" stroke-width="2" stroke-linecap="round" stroke-linejoin="round" d="M 275 29 c 0 0.86 0.3 33.19 0 49 c -0.03 1.33 -0.16 3.69 -1 4 c -3.08 1.15 -14.54 2.81 -15 2 c -0.43 -0.76 7.23 -6.49 11 -9 c 2.02 -1.35 4.58 -2.19 7 -3 c 3.62 -1.21 8.1 -2.79 11 -3 c 0.92 -0.07 2.89 1.33 3 2 c 0.14 0.83 -1.14 2.85 -2 4 c -2.05 2.73 -4.44 5.44 -7 8 c -10.05 10.05 -28.62 27.12 -30 29 c -0.38 0.52 7.41 -1.71 11 -3 c 4.79 -1.73 10.45 -5.16 14 -6 c 0.84 -0.2 3.13 1.31 3 2 c -0.55 2.93 -3.46 9.67 -6 14 c -5.4 9.23 -11.84 18.32 -18 27 c -1.07 1.51 -3.52 4.12 -4 4 c -0.42 -0.11 -0.54 -3.7 0 -5 c 0.93 -2.23 3.12 -5.29 5 -7 c 1.47 -1.33 4.51 -3.32 6 -3 l 8 6"/><path fill="none" stroke="#000000" stroke-width="2" stroke-linecap="round" stroke-linejoin="round" d="M 286 175 c 0.03 -0.33 0.94 -12.63 2 -19 c 1.31 -7.84 2.83 -15.35 5 -23 c 2.91 -10.28 6.27 -19.92 10 -30 c 2.06 -5.57 4.97 -10.58 7 -16 c 0.96 -2.56 1.72 -5.35 2 -8 c 0.37 -3.53 0.24 -7.46 0 -11 c -0.09 -1.33 -0.29 -3.09 -1 -4 c -1.34 -1.72 -6.75 -4.18 -6 -5 c 3.13 -3.42 18.96 -12.18 27 -18 c 0.89 -0.65 2.09 -3.06 2 -3 c -0.24 0.14 -5.07 3.69 -7 6 c -6.59 7.85 -18.43 24.36 -19 25 c -0.14 0.16 1.73 -4.94 3 -7 c 1.3 -2.11 3.16 -4.16 5 -6 c 2.5 -2.5 5.11 -4.94 8 -7 c 6.49 -4.63 16.15 -11.66 20 -13 c 0.94 -0.33 2.8 3.38 3 5 c 0.38 3.07 -0.24 7.5 -1 11 c -0.87 4.01 -2.4 8.09 -4 12 c -1.41 3.46 -2.85 8 -5 10 c -1.82 1.69 -8.67 3.22 -9 3 c -0.27 -0.18 4.51 -3.1 6 -5 c 1.96 -2.5 5 -8.68 5 -9 c 0 -0.22 -3.66 3.14 -5 5 c -2.9 4.01 -5.79 8.44 -8 13 c -3.45 7.09 -6.69 15.08 -9 22 c -0.48 1.45 -0.67 4.44 0 5 c 0.81 0.67 4.49 0.63 6 0 c 1.97 -0.82 4.16 -3.16 6 -5 c 3.18 -3.18 7.3 -9.43 9 -10 c 0.85 -0.28 2.55 3.99 3 6 l 1 12"/><path fill="none" stroke="#000000" stroke-width="2" stroke-linecap="round" stroke-linejoin="round" d="M 300 153 c 0.12 -0.21 4.18 -8.86 7 -12 c 2.77 -3.07 7.15 -5.55 11 -8 c 3.55 -2.26 7.23 -4.82 11 -6 c 6.43 -2.01 21 -4 21 -4"/></svg>