<?xml version="1.0" encoding="UTF-8" standalone="no"?><!DOCTYPE svg PUBLIC "-//W3C//DTD SVG 1.1//EN" "http://www.w3.org/Graphics/SVG/1.1/DTD/svg11.dtd"><svg xmlns="http://www.w3.org/2000/svg" version="1.1" width="276" height="200"><path fill="none" stroke="#000000" stroke-width="2" stroke-linecap="round" stroke-linejoin="round" d="M 1 37 c 0.09 -0.03 3.31 -1.83 5 -2 c 17.01 -1.73 35.54 -2.28 54 -4 c 7.23 -0.68 21 -3 21 -3"/><path fill="none" stroke="#000000" stroke-width="2" stroke-linecap="round" stroke-linejoin="round" d="M 24 6 c 0.02 0.33 0 12.78 1 19 c 1.66 10.39 5.03 20.85 7 31 c 0.31 1.6 -0.34 3.62 0 5 l 2 3"/><path fill="none" stroke="#000000" stroke-width="2" stroke-linecap="round" stroke-linejoin="round" d="M 65 1 c 0 0.32 0.3 11.88 0 18 c -0.38 7.85 -0.96 15.31 -2 23 c -0.64 4.77 -3 14 -3 14"/><path fill="none" stroke="#000000" stroke-width="2" stroke-linecap="round" stroke-linejoin="round" d="M 44 42 c -0.14 0.24 -5.14 9.46 -8 14 c -1.14 1.8 -2.47 3.57 -4 5 c -3.39 3.17 -7.15 6.44 -11 9 c -3.03 2.02 -9.65 2.49 -10 5 c -2.09 15.04 0.93 44.59 0 67 c -0.41 9.79 -4 29 -4 29"/><path fill="none" stroke="#000000" stroke-width="2" stroke-linecap="round" stroke-linejoin="round" d="M 14 76 c 0.09 -0.03 3.37 -1.73 5 -2 c 2.12 -0.35 4.76 0.3 7 0 c 2.64 -0.35 6.89 -2.74 8 -2 c 1.08 0.72 1.21 5.47 1 8 c -0.43 5.12 -3 16 -3 16"/><path fill="none" stroke="#000000" stroke-width="2" stroke-linecap="round" stroke-linejoin="round" d="M 16 112 c 0.16 -0.02 6.1 -0.42 9 -1 c 2.02 -0.4 6 -2 6 -2"/><path fill="none" stroke="#000000" stroke-width="2" stroke-linecap="round" stroke-linejoin="round" d="M 11 142 c 0.28 -0.14 10.73 -5.74 16 -8 c 1.5 -0.64 3.93 -1.31 5 -1 c 0.76 0.22 1.89 1.98 2 3 c 0.48 4.53 0 16 0 16"/><path fill="none" stroke="#000000" stroke-width="2" stroke-linecap="round" stroke-linejoin="round" d="M 12 161 c 0.11 0.02 4.02 1 6 1 c 6.53 0 20 -1 20 -1"/><path fill="none" stroke="#000000" stroke-width="2" stroke-linecap="round" stroke-linejoin="round" d="M 69 44 c -0.05 0.07 -3.48 3.52 -3 4 c 1 1 10 3 10 3"/><path fill="none" stroke="#000000" stroke-width="2" stroke-linecap="round" stroke-linejoin="round" d="M 48 69 c 0.07 -0.03 2.59 -1.58 4 -2 c 10.75 -3.2 21.98 -6.5 33 -9 c 3.56 -0.81 11 -1 11 -1"/><path fill="none" stroke="#000000" stroke-width="2" stroke-linecap="round" stroke-linejoin="round" d="M 61 75 c -0.02 0.1 -1.67 4.88 -1 6 c 0.89 1.48 4.75 3.31 7 4 c 1.68 0.52 6 0 6 0"/><path fill="none" stroke="#000000" stroke-width="2" stroke-linecap="round" stroke-linejoin="round" d="M 96 64 l 1 1"/><path fill="none" stroke="#000000" stroke-width="2" stroke-linecap="round" stroke-linejoin="round" d="M 46 100 c 0.21 -0.02 8.17 -0.18 12 -1 c 5.34 -1.14 10.64 -3.71 16 -5 c 2.89 -0.69 6.09 -0.29 9 -1 c 8.04 -1.95 24 -7 24 -7"/><path fill="none" stroke="#000000" stroke-width="2" stroke-linecap="round" stroke-linejoin="round" d="M 53 130 c 0.39 -0.12 14.84 -4.22 22 -7 c 4.85 -1.89 14 -7 14 -7"/><path fill="none" stroke="#000000" stroke-width="2" stroke-linecap="round" stroke-linejoin="round" d="M 83 93 c -0.07 0.12 -3.77 4.62 -4 7 c -1.57 16.23 -1.62 35.96 -2 55 c -0.31 15.22 0 44 0 44"/><path fill="none" stroke="#000000" stroke-width="2" stroke-linecap="round" stroke-linejoin="round" d="M 138 70 c 0.14 0 5.41 0.3 8 0 c 2.98 -0.35 6.23 -0.86 9 -2 c 8.32 -3.43 25 -12 25 -12"/><path fill="none" stroke="#000000" stroke-width="2" stroke-linecap="round" stroke-linejoin="round" d="M 167 24 c -0.04 0.7 -0.79 26.38 -2 40 c -1.18 13.37 -3.19 25.4 -5 39 c -1.68 12.57 -2.81 23.87 -5 36 c -1.55 8.58 -4.24 16.35 -6 25 c -2.36 11.61 -6 34 -6 34"/><path fill="none" stroke="#000000" stroke-width="2" stroke-linecap="round" stroke-linejoin="round" d="M 161 66 c -0.05 0.18 -1.75 6.78 -3 10 c -1.07 2.76 -2.49 5.33 -4 8 c -7.41 13.12 -22 38 -22 38"/><path fill="none" stroke="#000000" stroke-width="2" stroke-linecap="round" stroke-linejoin="round" d="M 169 77 l 1 1"/><path fill="none" stroke="#000000" stroke-width="2" stroke-linecap="round" stroke-linejoin="round" d="M 222 22 c -0.05 0.12 -2.51 4.73 -3 7 c -0.45 2.09 0.73 5.04 0 7 c -2.32 6.26 -6.02 13.88 -10 20 c -4.56 7.01 -10.25 13.68 -16 20 c -4.29 4.72 -13.62 12.68 -14 13 c -0.07 0.06 1.13 -2.31 2 -3 c 5.05 -3.98 10.92 -8.78 17 -12 c 17.13 -9.05 53 -25 53 -25"/><path fill="none" stroke="#000000" stroke-width="2" stroke-linecap="round" stroke-linejoin="round" d="M 208 93 l 1 1"/><path fill="none" stroke="#000000" stroke-width="2" stroke-linecap="round" stroke-linejoin="round" d="M 217 100 c -0.16 0.33 -5.66 12.68 -9 19 c -3.13 5.93 -7.43 11.28 -10 17 c -1.61 3.59 -2.34 8.06 -3 12 c -0.32 1.91 -0.97 5.48 0 6 c 2.11 1.13 8.69 1 13 1 c 3.32 0 6.73 -0.42 10 -1 c 2.37 -0.42 4.87 -0.98 7 -2 c 5.36 -2.57 11.78 -5.95 16 -9 l 2 -4"/><path fill="none" stroke="#000000" stroke-width="2" stroke-linecap="round" stroke-linejoin="round" d="M 221 99 c 0.02 -0.09 0.3 -3.59 1 -5 c 1.8 -3.6 4.41 -7.81 7 -11 c 1.55 -1.91 3.92 -3.68 6 -5 c 1.43 -0.91 3.38 -1.68 5 -2 c 1.51 -0.3 4.12 -0.63 5 0 c 0.95 0.68 1.92 3.35 2 5 c 0.54 10.75 0.45 23.22 0 35 c -0.22 5.76 -1.68 11.19 -2 17 c -0.7 12.56 0.42 26.59 -1 37 c -0.33 2.42 -3.26 5.45 -5 7 c -0.84 0.74 -2.73 1 -4 1 c -2.49 0 -5.84 -0.06 -8 -1 c -2.68 -1.17 -5.8 -3.68 -8 -6 c -3.61 -3.81 -10 -13 -10 -13"/><path fill="none" stroke="#000000" stroke-width="2" stroke-linecap="round" stroke-linejoin="round" d="M 197 124 c 0.14 -0.07 5.18 -2.93 8 -4 c 19.44 -7.36 38.53 -13.7 58 -21 c 2.12 -0.79 4.19 -1.79 6 -3 c 2.11 -1.4 6 -5 6 -5"/><path fill="none" stroke="#000000" stroke-width="2" stroke-linecap="round" stroke-linejoin="round" d="M 228 95 l 1 1"/><path fill="none" stroke="#000000" stroke-width="2" stroke-linecap="round" stroke-linejoin="round" d="M 224 126 l 1 1"/></svg>