<?xml version="1.0" encoding="UTF-8" standalone="no"?><!DOCTYPE svg PUBLIC "-//W3C//DTD SVG 1.1//EN" "http://www.w3.org/Graphics/SVG/1.1/DTD/svg11.dtd"><svg xmlns="http://www.w3.org/2000/svg" version="1.1" width="235" height="192"><path fill="none" stroke="#000000" stroke-width="2" stroke-linecap="round" stroke-linejoin="round" d="M 1 28 c 0.05 0.04 1.98 1.94 3 2 c 8.52 0.52 20.04 0.61 30 0 c 6.38 -0.39 12.62 -1.66 19 -3 c 6.51 -1.37 19 -5 19 -5"/><path fill="none" stroke="#000000" stroke-width="2" stroke-linecap="round" stroke-linejoin="round" d="M 22 12 c 0 0.65 -0.29 24.73 0 37 c 0.05 2.02 1 6 1 6"/><path fill="none" stroke="#000000" stroke-width="2" stroke-linecap="round" stroke-linejoin="round" d="M 56 1 c -0.04 0.19 -1.79 7.29 -2 11 c -0.79 14.28 -1 43 -1 43"/><path fill="none" stroke="#000000" stroke-width="2" stroke-linecap="round" stroke-linejoin="round" d="M 40 39 c -0.14 0.09 -6.04 2.86 -8 5 c -4.91 5.36 -12.32 12.63 -14 19 c -2.42 9.18 0.44 22.36 0 34 c -0.59 15.44 -2.33 29.56 -3 45 c -0.36 8.21 0 24 0 24"/><path fill="none" stroke="#000000" stroke-width="2" stroke-linecap="round" stroke-linejoin="round" d="M 21 66 c 0.3 -0.07 11.25 -2.97 17 -4 c 3.64 -0.65 8.94 -1.51 11 -1 c 0.77 0.19 1.2 2.87 1 4 c -0.38 2.08 -1.78 4.76 -3 7 c -2.81 5.14 -9 15 -9 15"/><path fill="none" stroke="#000000" stroke-width="2" stroke-linecap="round" stroke-linejoin="round" d="M 20 97 l 24 -7"/><path fill="none" stroke="#000000" stroke-width="2" stroke-linecap="round" stroke-linejoin="round" d="M 21 112 c 0.28 0 10.84 0.26 16 0 c 1.33 -0.07 3.07 -1.27 4 -1 c 0.96 0.27 3 2.08 3 3 c 0 1.66 -1.7 4.85 -3 7 c -4.32 7.11 -9.12 14.32 -14 21 c -1.37 1.87 -5 5 -5 5"/><path fill="none" stroke="#000000" stroke-width="2" stroke-linecap="round" stroke-linejoin="round" d="M 16 152 l 14 -1"/><path fill="none" stroke="#000000" stroke-width="2" stroke-linecap="round" stroke-linejoin="round" d="M 84 31 l 1 1"/><path fill="none" stroke="#000000" stroke-width="2" stroke-linecap="round" stroke-linejoin="round" d="M 46 61 c 0.4 -0.03 15.37 -0.73 23 -2 c 10.5 -1.75 31 -7 31 -7"/><path fill="none" stroke="#000000" stroke-width="2" stroke-linecap="round" stroke-linejoin="round" d="M 56 71 c 0.16 0.14 5.85 6.27 9 8 c 2.98 1.64 11 3 11 3"/><path fill="none" stroke="#000000" stroke-width="2" stroke-linecap="round" stroke-linejoin="round" d="M 95 69 c -0.26 0.26 -9.56 11.22 -15 15 c -5.96 4.14 -14.48 7.49 -21 10 c -1.4 0.54 -5.09 0.02 -5 0 c 0.33 -0.07 12.73 -1.5 19 -3 c 9.18 -2.2 17.83 -5.65 27 -8 c 3.96 -1.02 12 -2 12 -2"/><path fill="none" stroke="#000000" stroke-width="2" stroke-linecap="round" stroke-linejoin="round" d="M 55 116 c 0.37 -0.02 13.98 -0.34 21 -1 c 3.73 -0.35 7.38 -1.09 11 -2 c 3.08 -0.77 9 -3 9 -3"/><path fill="none" stroke="#000000" stroke-width="2" stroke-linecap="round" stroke-linejoin="round" d="M 77 88 c 0.02 0.87 1.62 33.36 1 50 c -0.38 10.07 -3.24 19.88 -4 30 c -0.58 7.69 0 23 0 23"/><path fill="none" stroke="#000000" stroke-width="2" stroke-linecap="round" stroke-linejoin="round" d="M 124 77 c 0.74 -0.26 27.85 -9.47 42 -15 c 7.67 -3 22 -10 22 -10"/><path fill="none" stroke="#000000" stroke-width="2" stroke-linecap="round" stroke-linejoin="round" d="M 155 29 c -0.04 0.05 -1.92 1.97 -2 3 c -0.8 10.61 -0.14 24.34 -1 37 c -1.54 22.67 -3.58 43.2 -6 66 c -1.73 16.3 -3.68 31.93 -6 47 c -0.26 1.71 -1.86 5.29 -2 5 c -0.35 -0.7 -2 -13 -2 -13"/><path fill="none" stroke="#000000" stroke-width="2" stroke-linecap="round" stroke-linejoin="round" d="M 144 61 c -0.14 0.52 -4.52 20.17 -8 30 c -5.94 16.75 -20 49 -20 49"/><path fill="none" stroke="#000000" stroke-width="2" stroke-linecap="round" stroke-linejoin="round" d="M 161 78 c 0.12 0.23 5.29 8.64 7 13 c 1.18 3.01 0.93 6.8 2 10 c 2.58 7.74 9 23 9 23"/><path fill="none" stroke="#000000" stroke-width="2" stroke-linecap="round" stroke-linejoin="round" d="M 206 30 c -0.17 0.23 -6.85 8.4 -10 13 c -5.02 7.31 -9.48 14.34 -14 22 c -3.33 5.65 -10.43 16.95 -9 17 c 2.92 0.11 23.54 -10.84 36 -16 c 7.4 -3.06 22 -8 22 -8"/><path fill="none" stroke="#000000" stroke-width="2" stroke-linecap="round" stroke-linejoin="round" d="M 187 85 c -0.07 0.11 -3.11 3.93 -4 6 c -1.01 2.36 -1.44 5.22 -2 8 c -3.23 16.13 -6.59 31.45 -9 47 c -0.55 3.58 -0.59 7.87 0 11 c 0.31 1.66 1.77 4.59 3 5 c 1.91 0.64 6.05 -0.35 9 -1 c 7.75 -1.7 15.82 -3.16 23 -6 c 8.52 -3.37 25 -13 25 -13"/><path fill="none" stroke="#000000" stroke-width="2" stroke-linecap="round" stroke-linejoin="round" d="M 187 86 c 0.12 -0.02 4.85 -0.28 7 -1 c 4.63 -1.54 9.18 -4.28 14 -6 c 4.61 -1.64 13.7 -6.01 14 -4 c 1.6 10.93 -1.35 52.59 -3 79 c -0.36 5.77 -1.65 12.72 -3 17 l -3 2"/><path fill="none" stroke="#000000" stroke-width="2" stroke-linecap="round" stroke-linejoin="round" d="M 165 113 c 0.07 -0.03 2.63 -1.82 4 -2 c 12.62 -1.68 26.95 -2.36 41 -4 c 6.56 -0.77 12.88 -1.72 19 -3 c 1.71 -0.36 5 -2 5 -2"/><path fill="none" stroke="#000000" stroke-width="2" stroke-linecap="round" stroke-linejoin="round" d="M 202 92 l 1 12"/><path fill="none" stroke="#000000" stroke-width="2" stroke-linecap="round" stroke-linejoin="round" d="M 206 136 l 1 1"/></svg>