<?xml version="1.0" encoding="UTF-8" standalone="no"?><!DOCTYPE svg PUBLIC "-//W3C//DTD SVG 1.1//EN" "http://www.w3.org/Graphics/SVG/1.1/DTD/svg11.dtd"><svg xmlns="http://www.w3.org/2000/svg" version="1.1" width="307" height="115"><path fill="none" stroke="#000000" stroke-width="2" stroke-linecap="round" stroke-linejoin="round" d="M 1 41 c 0.12 -0.09 4.49 -3.62 7 -5 c 7.82 -4.29 16.07 -8.32 24 -12 c 1.22 -0.57 3.38 -1.37 4 -1 c 0.62 0.37 1.22 2.84 1 4 c -0.67 3.57 -2.22 8.3 -4 12 c -2.14 4.46 -4.98 9.23 -8 13 c -2.1 2.63 -7.19 5.23 -8 7 c -0.38 0.83 1.89 3.2 3 4 c 0.92 0.66 3.08 0.39 4 1 c 0.8 0.54 1.58 1.94 2 3 c 0.85 2.13 1.69 4.7 2 7 c 0.34 2.53 0.3 5.41 0 8 c -0.35 2.98 -0.71 6.53 -2 9 c -2.11 4.02 -9 11.56 -9 12 c 0 0.34 5.84 -5 9 -7 c 3.1 -1.96 7.83 -4.83 10 -5 c 0.97 -0.07 2.35 4.32 3 4 c 1.48 -0.74 4.99 -5.76 7 -9 c 5.69 -9.15 10.35 -18.75 16 -28 c 1.75 -2.87 3.78 -5.5 6 -8 c 3.14 -3.53 6.51 -6.95 10 -10 c 1.78 -1.56 5.52 -4.24 6 -4 c 0.42 0.21 -1.01 4.25 -2 6 c -1.9 3.38 -4.46 6.71 -7 10 c -3.25 4.21 -6.62 8.36 -10 12 c -0.78 0.84 -3.17 1.96 -3 2 c 0.34 0.09 4.81 -0.35 7 -1 c 3.34 -0.98 6.82 -2.32 10 -4 c 8.19 -4.34 21.97 -10.67 24 -14 c 0.98 -1.61 -6.45 -6.25 -10 -9 c -3.81 -2.94 -8.53 -5.27 -12 -8 c -0.87 -0.68 -1.47 -3.15 -2 -3 c -1.04 0.3 -3.95 3.21 -5 5 c -1.08 1.85 -1.75 4.65 -2 7 c -0.73 6.78 -1.54 14.16 -1 21 c 0.78 9.89 2.86 23.16 5 30 c 0.38 1.21 4.1 2.62 5 2 c 2.27 -1.57 5.51 -7.16 8 -11 c 1.89 -2.9 3.3 -7.92 5 -9 c 1.04 -0.66 4.7 0.8 6 2 c 2.5 2.31 4.67 7.67 7 10 c 0.79 0.79 3.11 1.39 4 1 c 1.52 -0.68 3.96 -3.11 5 -5 c 2.37 -4.32 3.4 -10.42 6 -15 c 4.28 -7.54 9.95 -15.36 15 -22 c 0.95 -1.25 2.58 -2.23 4 -3 c 2.16 -1.18 4.62 -2.37 7 -3 c 3.8 -1 7.98 -1.65 12 -2 c 3.63 -0.32 8.89 -0.97 11 0 c 1.21 0.56 2.47 4.45 2 6 c -1.19 3.96 -5.04 9.77 -8 14 c -1.56 2.23 -3.87 4.05 -6 6 c -1.96 1.79 -3.87 3.63 -6 5 c -2.44 1.57 -5.45 3.22 -8 4 c -1.43 0.44 -4.48 0.52 -5 0 c -0.43 -0.43 0.23 -3.16 1 -4 c 2.12 -2.33 5.93 -5.54 9 -7 c 2.75 -1.3 7.86 -2.61 10 -2 c 1.52 0.43 3.55 4 4 6 c 0.74 3.33 0.24 8.14 0 12 c -0.08 1.33 -1.37 3.38 -1 4 c 0.37 0.62 2.97 1.39 4 1 c 4.83 -1.84 11.55 -5.78 17 -9 c 1.81 -1.07 3.38 -2.56 5 -4 c 1.43 -1.27 2.9 -2.53 4 -4 c 1.84 -2.45 3.78 -5.35 5 -8 c 0.66 -1.43 0.86 -5.26 1 -5 c 0.52 0.97 3.79 15.63 6 18 c 1 1.07 6.66 -1.13 8 -3 c 5.67 -7.94 10.8 -22.59 17 -32 c 2.3 -3.49 8.2 -8.25 10 -9 c 0.6 -0.25 1.92 2.71 2 4 c 0.22 3.47 0.47 9.64 -1 12 c -1.21 1.93 -6.13 3.18 -9 4 c -1.46 0.42 -4.61 0.39 -5 0 c -0.28 -0.28 1.12 -2.39 2 -3 c 3.05 -2.11 7.26 -4.24 11 -6 c 1.89 -0.89 4.72 -2.16 6 -2 c 0.73 0.09 2.09 2.17 2 3 c -0.17 1.55 -1.58 4.47 -3 6 c -6.44 6.95 -21.26 19.61 -22 21 c -0.33 0.62 10.26 -4.17 13 -4 c 1.18 0.07 2.51 3.38 3 5 c 0.42 1.39 0.34 3.62 0 5 c -0.25 1 -2.04 3.05 -2 3 c 0.64 -0.68 25.63 -26.72 36 -39 c 1.24 -1.46 1.88 -4.09 2 -6 c 0.19 -3.04 -0.35 -6.96 -1 -10 c -0.29 -1.35 -1.32 -3.89 -2 -4 c -0.76 -0.13 -3.41 1.72 -4 3 c -2.61 5.69 -5.31 14.25 -7 21 c -0.53 2.13 0.37 4.95 0 7 c -0.24 1.31 -2.01 4.19 -2 4 c 0.05 -1.74 0.95 -29.74 3 -40 c 0.4 -2 3.91 -3.95 6 -5 c 2.21 -1.11 5.35 -1.8 8 -2 c 6.11 -0.45 12.66 -0.24 19 0 c 2.36 0.09 5.5 0.17 7 1 c 0.95 0.53 2.08 2.81 2 4 c -0.2 2.77 -1.17 7.53 -3 10 c -4.22 5.7 -10.98 11.53 -17 17 c -5.16 4.69 -15.91 12.65 -16 13 c -0.07 0.3 13.24 -8.87 15 -9 c 0.81 -0.06 -0.03 5.82 -1 8 c -1.47 3.3 -4.46 6.87 -7 10 c -1.77 2.18 -4.48 3.91 -6 6 c -0.97 1.33 -2.36 4.52 -2 5 c 0.34 0.45 3.63 -0.25 5 -1 c 4.84 -2.66 12.37 -9.23 15 -10 c 0.78 -0.23 2.08 3.48 2 5 c -0.21 3.76 -2.5 8.6 -3 13 c -1.16 10.24 -0.99 20.64 -2 31 c -0.33 3.4 -0.66 8.51 -2 10 c -0.92 1.02 -5.19 0.72 -7 0 c -2.58 -1.03 -5.72 -3.72 -8 -6 c -2.91 -2.91 -7.72 -7.33 -8 -10 c -0.24 -2.25 3.68 -6.68 6 -9 c 2.02 -2.02 5.17 -3.49 8 -5 c 7.37 -3.93 14.65 -7.82 22 -11 c 2.46 -1.07 5.58 -1.12 8 -2 l 3 -2"/></svg>