<?xml version="1.0" encoding="UTF-8" standalone="no"?><!DOCTYPE svg PUBLIC "-//W3C//DTD SVG 1.1//EN" "http://www.w3.org/Graphics/SVG/1.1/DTD/svg11.dtd"><svg xmlns="http://www.w3.org/2000/svg" version="1.1" width="395" height="204"><path fill="none" stroke="#000000" stroke-width="2" stroke-linecap="round" stroke-linejoin="round" d="M 1 56 l 1 1"/><path fill="none" stroke="#000000" stroke-width="2" stroke-linecap="round" stroke-linejoin="round" d="M 24 49 c 0.12 -0.19 4.22 -7.85 7 -11 c 4.68 -5.29 10.42 -10.12 16 -15 c 2.54 -2.22 5.16 -4.18 8 -6 c 5.61 -3.59 14.48 -9.86 17 -10 c 1.16 -0.06 1 6.03 1 9 c 0 3.62 0.07 7.8 -1 11 c -1.42 4.27 -4.34 9.32 -7 13 c -1.41 1.95 -6.32 3.43 -6 5 c 1.32 6.4 9.94 19.6 13 29 c 1.35 4.15 1.54 9.89 1 14 c -0.38 2.89 -2.48 6.61 -4 9 c -0.56 0.87 -2 1.78 -3 2 c -1.67 0.37 -4.16 0.41 -6 0 c -3.88 -0.86 -8.55 -2.12 -12 -4 c -3.49 -1.91 -7.36 -5.03 -10 -8 c -2.4 -2.71 -4.1 -6.5 -6 -10 c -2.55 -4.7 -4.93 -9.34 -7 -14 c -0.55 -1.23 -1.18 -4.13 -1 -4 c 0.53 0.38 6.39 5.79 8 9 c 2.07 4.14 3.19 9.97 4 15 c 0.84 5.19 0.84 10.5 1 16 c 0.19 6.52 0.41 12.59 0 19 c -0.61 9.5 -1.69 18.44 -3 28 l -4 23"/><path fill="none" stroke="#000000" stroke-width="2" stroke-linecap="round" stroke-linejoin="round" d="M 79 61 c 0.63 -0.3 23.41 -11.45 36 -17 c 22.67 -10 44.36 -18.59 66 -28 c 1.09 -0.47 3.07 -1.35 3 -2 c -0.16 -1.46 -2.31 -5.45 -4 -7 c -1.88 -1.72 -5.27 -2.98 -8 -4 c -2.51 -0.94 -5.36 -1.69 -8 -2 c -2.88 -0.34 -6.17 -0.49 -9 0 c -4.58 0.8 -9.83 2.21 -14 4 c -2.47 1.06 -4.84 3.13 -7 5 c -2.84 2.46 -5.86 5.1 -8 8 c -2.36 3.21 -4.23 7.17 -6 11 c -2.28 4.94 -4.42 9.81 -6 15 c -3.13 10.28 -5.67 20.39 -8 31 c -1.4 6.37 -2.57 12.83 -3 19 c -0.22 3.22 -0.21 7.74 1 10 c 1.03 1.94 4.62 4.25 7 5 c 3.33 1.05 8.04 1.19 12 1 c 9.59 -0.47 19.62 -1.52 29 -3 c 3.05 -0.48 6.22 -1.69 9 -3 c 2.76 -1.3 6.95 -3.2 8 -5 c 0.79 -1.35 -0.2 -5.01 -1 -7 c -1.06 -2.66 -3.11 -5.59 -5 -8 c -1.7 -2.17 -3.83 -4.26 -6 -6 c -2.77 -2.22 -6.6 -6.22 -9 -6 c -3.39 0.31 -9.66 4.82 -13 8 c -3.15 3 -6.09 7.76 -8 12 c -3.94 8.75 -7.05 18.48 -10 28 c -1.42 4.59 -2.23 9.2 -3 14 c -0.93 5.74 -1.22 16.1 -2 17 c -0.47 0.54 -5.49 -7.27 -5 -9 c 0.49 -1.73 5.92 -3.93 9 -5 c 4.29 -1.49 9.35 -2.48 14 -3 c 4.22 -0.47 8.68 -0.33 13 0 c 4.37 0.34 9.19 0.59 13 2 c 4.67 1.73 9.66 5.19 14 8 c 1.14 0.74 2.46 1.92 3 3 c 0.65 1.3 1 3.41 1 5 c 0 2.21 -0.45 4.78 -1 7 l -2 5"/><path fill="none" stroke="#000000" stroke-width="2" stroke-linecap="round" stroke-linejoin="round" d="M 248 3 c -0.65 0.84 -24.05 31.69 -37 48 c -4.24 5.34 -8.32 10.17 -13 15 c -5.84 6.03 -12.31 11.31 -18 17 c -0.83 0.83 -2.06 3.05 -2 3 c 0.52 -0.49 14.85 -16.18 23 -23 c 5.98 -5 13.03 -8.97 20 -13 c 5.88 -3.4 11.78 -6.19 18 -9 c 4.31 -1.94 8.67 -3.7 13 -5 c 2.2 -0.66 5.03 -1.3 7 -1 c 1.87 0.29 4.92 1.65 6 3 c 1.17 1.46 2.12 4.9 2 7 c -0.18 3.29 -1.72 7.59 -3 11 l -3 5"/><path fill="none" stroke="#000000" stroke-width="2" stroke-linecap="round" stroke-linejoin="round" d="M 208 76 c -0.04 0.25 -1.04 9.66 -2 14 c -0.3 1.37 -2.1 2.87 -2 4 c 0.17 1.92 2.73 4.69 3 7 c 0.66 5.75 0.39 12.52 0 19 c -1.32 22.22 -3.94 60.12 -5 65 c -0.2 0.91 -5.84 -6.45 -7 -10 c -3.5 -10.74 -4.82 -29.83 -8 -36 c -0.87 -1.68 -7.37 0.19 -10 1 c -1.11 0.34 -3.29 3.03 -3 3 c 2.84 -0.3 27.94 -5.81 41 -7 c 4.44 -0.4 9.73 0.76 14 2 c 3.37 0.98 7.27 2.95 10 5 c 2.25 1.69 4.42 4.55 6 7 c 1.3 2.03 2.57 4.72 3 7 c 0.51 2.7 0.42 6.47 0 9 l -2 3"/><path fill="none" stroke="#000000" stroke-width="2" stroke-linecap="round" stroke-linejoin="round" d="M 271 68 c -0.03 0.33 -0.6 13.06 -2 19 c -1.18 5.02 -3.57 10.31 -6 15 c -2.17 4.19 -5.08 8.16 -8 12 c -2.44 3.2 -5.18 6.18 -8 9 c -1.5 1.5 -3.37 3.35 -5 4 c -1.28 0.51 -4.32 0.87 -5 0 c -2.07 -2.64 -4.6 -9.57 -6 -14 c -0.46 -1.45 -0.57 -5.06 0 -5 c 1.33 0.13 7.18 3.6 10 6 c 3.6 3.06 6.99 7.03 10 11 c 6.4 8.45 18 26 18 26"/><path fill="none" stroke="#000000" stroke-width="2" stroke-linecap="round" stroke-linejoin="round" d="M 326 35 c -0.45 0.52 -17.58 19.39 -26 30 c -10.02 12.61 -28 38 -28 38"/><path fill="none" stroke="#000000" stroke-width="2" stroke-linecap="round" stroke-linejoin="round" d="M 310 81 c -0.14 0.3 -4.98 11.37 -8 17 c -4.47 8.33 -13.25 17.21 -14 24 c -0.62 5.59 6.49 13.89 9 21 c 1.47 4.15 3 13 3 13"/><path fill="none" stroke="#000000" stroke-width="2" stroke-linecap="round" stroke-linejoin="round" d="M 316 87 c 0.33 -0.1 12.81 -3.43 19 -6 c 15.71 -6.52 30.67 -14.47 46 -21 c 2.5 -1.06 5.69 -2 8 -2 c 1.51 0 4.73 0.86 5 2 c 0.96 4.02 1.15 13.14 0 19 c -1.72 8.77 -4.35 20.16 -9 27 c -4.98 7.32 -14.99 14.19 -23 20 c -5.05 3.66 -17 9 -17 9"/><path fill="none" stroke="#000000" stroke-width="2" stroke-linecap="round" stroke-linejoin="round" d="M 308 104 c 0.16 -0.07 5.89 -3.03 9 -4 c 6.51 -2.02 13.47 -3.74 20 -5 c 1.9 -0.37 4.4 -0.48 6 0 c 1.33 0.4 3.64 1.82 4 3 c 0.73 2.36 0.78 7.12 0 10 c -1.05 3.86 -3.76 8.08 -6 12 c -1.8 3.16 -6.48 8.05 -6 9 c 0.44 0.88 6.85 -0.21 10 -1 c 4.66 -1.16 9.57 -2.97 14 -5 c 3.48 -1.59 10 -6 10 -6"/><path fill="none" stroke="#000000" stroke-width="2" stroke-linecap="round" stroke-linejoin="round" d="M 351 39 c -0.02 0.19 -1.06 7.3 -1 11 c 0.27 15.42 1.84 30.21 2 46 c 0.18 17.15 0.56 33.33 -1 50 c -1.8 19.24 -6.58 48.85 -9 57 c -0.32 1.08 -5.38 -1.49 -7 -3 c -2.89 -2.69 -5.88 -7.07 -8 -11 c -4.81 -8.93 -8.93 -18.7 -13 -28 c -0.54 -1.24 -1.3 -2.98 -1 -4 c 0.53 -1.78 2.55 -4.34 4 -6 c 0.73 -0.83 2.88 -2.37 3 -2 c 0.38 1.14 0.78 7.74 0 11 c -1.08 4.52 -7.59 13.17 -6 14 c 2.83 1.48 18.48 -0.99 27 -3 c 8.04 -1.89 24 -9 24 -9"/></svg>