<?xml version="1.0" encoding="UTF-8" standalone="no"?><!DOCTYPE svg PUBLIC "-//W3C//DTD SVG 1.1//EN" "http://www.w3.org/Graphics/SVG/1.1/DTD/svg11.dtd"><svg xmlns="http://www.w3.org/2000/svg" version="1.1" width="121" height="115"><path fill="none" stroke="#000000" stroke-width="2" stroke-linecap="round" stroke-linejoin="round" d="M 1 36 c 0.28 -0.12 10.65 -4.32 16 -7 c 18.64 -9.32 45.3 -24.74 54 -28 c 1.04 -0.39 1.91 4.72 2 7 c 0.23 5.63 -0.05 12.04 -1 18 c -2.74 17.17 -6.46 34.76 -10 51 c -0.3 1.4 -1.09 3.09 -2 4 c -1.18 1.18 -3.31 2.39 -5 3 c -1.76 0.64 -4.11 1.11 -6 1 c -3.48 -0.2 -7.73 -1.06 -11 -2 c -1.06 -0.3 -3.33 -1.62 -3 -2 c 1.61 -1.9 8.98 -8.32 14 -11 c 8.84 -4.73 21.35 -9.68 29 -12 c 1.09 -0.33 3.93 1.13 4 2 c 0.17 2.02 -1.6 6.92 -3 10 c -1.86 4.09 -4.24 8.32 -7 12 c -6.21 8.28 -13.01 16.28 -20 24 c -2.7 2.97 -9.47 8.11 -9 8 c 1.63 -0.38 25.53 -10.22 39 -15 c 7.75 -2.75 15.34 -5.2 23 -7 c 3.52 -0.83 7.55 -1 11 -1 l 4 1"/></svg>