<?xml version="1.0" encoding="UTF-8" standalone="no"?><!DOCTYPE svg PUBLIC "-//W3C//DTD SVG 1.1//EN" "http://www.w3.org/Graphics/SVG/1.1/DTD/svg11.dtd"><svg xmlns="http://www.w3.org/2000/svg" version="1.1" width="239" height="215"><path fill="none" stroke="#000000" stroke-width="2" stroke-linecap="round" stroke-linejoin="round" d="M 16 47 l 1 1"/><path fill="none" stroke="#000000" stroke-width="2" stroke-linecap="round" stroke-linejoin="round" d="M 1 50 c 0.12 -0.03 4.69 -1.81 7 -2 c 5.4 -0.45 11.38 0.39 17 0 c 4.02 -0.28 7.89 -1.6 12 -2 c 9.82 -0.96 19.07 -1.05 29 -2 c 7.92 -0.76 15.35 -1.65 23 -3 c 3.76 -0.66 11 -3 11 -3"/><path fill="none" stroke="#000000" stroke-width="2" stroke-linecap="round" stroke-linejoin="round" d="M 32 29 c 0.02 0.42 -0.01 16.29 1 24 c 0.61 4.67 4 14 4 14"/><path fill="none" stroke="#000000" stroke-width="2" stroke-linecap="round" stroke-linejoin="round" d="M 85 1 c -0.02 0.07 -0.96 2.66 -1 4 c -0.61 20.11 -0.41 40.88 -1 62 c -0.1 3.42 -1 10 -1 10"/><path fill="none" stroke="#000000" stroke-width="2" stroke-linecap="round" stroke-linejoin="round" d="M 65 52 c -0.12 0.09 -5.18 2.99 -7 5 c -4.24 4.68 -7.59 11.08 -12 16 c -4.21 4.7 -9.14 9.02 -14 13 c -2.4 1.96 -6.47 3.13 -8 5 c -0.98 1.2 -1 3.99 -1 6 c 0 27.75 1 84 1 84"/><path fill="none" stroke="#000000" stroke-width="2" stroke-linecap="round" stroke-linejoin="round" d="M 22 106 c 0.23 -0.16 8.45 -6.79 13 -9 c 6.1 -2.96 18.98 -8.25 20 -7 c 1.02 1.25 -7.21 12.32 -11 18 c -0.76 1.14 -3.15 3.04 -3 3 c 0.39 -0.11 10 -5 10 -5"/><path fill="none" stroke="#000000" stroke-width="2" stroke-linecap="round" stroke-linejoin="round" d="M 27 136 c 0.23 -0.11 8.9 -4.63 13 -6 c 1.43 -0.48 4.93 -0.66 5 0 c 0.14 1.42 -2.43 6.85 -4 10 c -1.05 2.11 -2.88 3.89 -4 6 c -1.53 2.88 -4 6.87 -4 9 c 0 1.22 2.75 4 4 4 c 2.37 0 7.38 -2.15 10 -4 c 2.58 -1.82 7 -8 7 -8"/><path fill="none" stroke="#000000" stroke-width="2" stroke-linecap="round" stroke-linejoin="round" d="M 89 61 l 1 1"/><path fill="none" stroke="#000000" stroke-width="2" stroke-linecap="round" stroke-linejoin="round" d="M 65 94 c 0.21 -0.14 7.76 -5.65 12 -8 c 7.88 -4.38 24 -12 24 -12"/><path fill="none" stroke="#000000" stroke-width="2" stroke-linecap="round" stroke-linejoin="round" d="M 74 103 c -0.09 0.14 -4.85 6.69 -5 8 c -0.06 0.57 2.79 1.1 4 1 c 2.43 -0.2 5.89 -0.67 8 -2 c 6.2 -3.91 18.47 -14.82 19 -15 c 0.34 -0.11 -6.38 8.07 -10 12 c -8.36 9.08 -24.68 24.9 -25 26 c -0.21 0.74 16.37 -10.26 21 -12 c 0.81 -0.3 3.29 2.23 3 3 c -1.08 2.89 -6.47 8.57 -9 13 c -1.37 2.39 -3.49 7.26 -3 8 c 0.42 0.63 4.91 -1.04 7 -2 c 2.07 -0.95 4.3 -2.4 6 -4 c 3.83 -3.61 11 -10.33 11 -12 c 0 -1.13 -7.98 -1.22 -11 -1 c -0.99 0.07 -2.62 1.16 -3 2 c -0.74 1.66 -0.91 4.64 -1 7 c -0.24 6.34 0.59 12.66 0 19 c -1.42 15.15 -4.2 29.55 -6 45 l -1 15"/><path fill="none" stroke="#000000" stroke-width="2" stroke-linecap="round" stroke-linejoin="round" d="M 133 94 c 0.14 -0.02 5.84 -0.06 8 -1 c 2.68 -1.17 5.52 -3.76 8 -6 c 4.22 -3.79 8.38 -7.77 12 -12 c 2.31 -2.69 4.86 -6.14 6 -9 c 0.63 -1.58 0.26 -6.21 0 -6 c -0.54 0.45 -4.82 7.18 -6 11 c -3 9.69 -5.07 20.3 -7 31 c -3.2 17.72 -4.95 34.15 -8 52 c -1.42 8.32 -3.05 15.97 -5 24 c -0.75 3.11 -2.72 9.19 -3 9 l 0 -11"/><path fill="none" stroke="#000000" stroke-width="2" stroke-linecap="round" stroke-linejoin="round" d="M 150 94 c 0 -0.1 0.24 -6.32 0 -6 c -2.9 3.88 -40.41 57.74 -41 61 c -0.32 1.8 22.19 -15.36 34 -22 c 9.66 -5.43 30 -14 30 -14"/><path fill="none" stroke="#000000" stroke-width="2" stroke-linecap="round" stroke-linejoin="round" d="M 173 31 c -0.02 0.07 -0.95 2.67 -1 4 c -0.27 7.42 1.1 15.55 0 23 c -2.84 19.17 -12 58 -12 58"/><path fill="none" stroke="#000000" stroke-width="2" stroke-linecap="round" stroke-linejoin="round" d="M 220 23 c -0.17 0.23 -7.2 8.29 -10 13 c -13.93 23.4 -39.67 67.41 -40 71 c -0.19 2.01 23.52 -19.24 36 -28 c 6.62 -4.64 19.82 -11.83 21 -12 c 0.59 -0.08 -4.37 6.94 -7 10 c -3.35 3.9 -7.59 7.04 -11 11 c -5 5.81 -9.62 11.63 -14 18 c -6.14 8.91 -12.64 17.75 -17 27 c -3.72 7.89 -6.31 17.55 -8 26 c -0.87 4.35 -0.47 10.04 0 14 c 0.12 1.02 1.17 2.75 2 3 c 1.84 0.55 5.45 0.38 8 0 c 3.95 -0.59 8.49 -1.39 12 -3 c 4.09 -1.87 8.35 -4.99 12 -8 c 3.93 -3.25 7.71 -7.06 11 -11 l 9 -13"/><path fill="none" stroke="#000000" stroke-width="2" stroke-linecap="round" stroke-linejoin="round" d="M 194 110 c 0.25 -0.21 9.14 -8.41 14 -12 c 2.71 -2 5.85 -3.49 9 -5 c 5.34 -2.57 10.96 -5.32 16 -7 c 1.44 -0.48 4.54 -0.74 5 0 c 0.74 1.19 0.57 5.59 0 8 c -1 4.19 -3.72 8.51 -5 13 c -2.75 9.62 -5.88 19.33 -7 29 c -1.5 12.97 -0.41 26.78 -1 40 c -0.07 1.69 -0.27 3.84 -1 5 c -0.71 1.14 -2.64 2.69 -4 3 l -9 0"/><path fill="none" stroke="#000000" stroke-width="2" stroke-linecap="round" stroke-linejoin="round" d="M 174 170 c -0.21 -0.03 -8.55 -0.92 -12 -2 c -1.42 -0.44 -4 -2.02 -4 -3 c 0 -1.74 2.24 -5.77 4 -8 c 4.33 -5.46 9.48 -11.36 15 -16 c 9.01 -7.58 19.4 -13.62 29 -21 c 3.61 -2.77 6.61 -6.34 10 -9 c 1.13 -0.88 3.89 -2.11 4 -2 c 0.11 0.11 -2.31 1.9 -3 3 c -0.87 1.39 -1.45 3.25 -2 5 c -2.85 9.13 -8 27 -8 27"/></svg>