<?xml version="1.0" encoding="UTF-8" standalone="no"?><!DOCTYPE svg PUBLIC "-//W3C//DTD SVG 1.1//EN" "http://www.w3.org/Graphics/SVG/1.1/DTD/svg11.dtd"><svg xmlns="http://www.w3.org/2000/svg" version="1.1" width="322" height="157"><path fill="none" stroke="#000000" stroke-width="2" stroke-linecap="round" stroke-linejoin="round" d="M 1 33 c 1.38 -0.23 51.63 -9.14 79 -13 c 31.33 -4.42 60.8 -6.99 91 -11 c 2.4 -0.32 7.33 -1.82 7 -2 c -0.74 -0.41 -10.51 -2.3 -16 -3 c -10.51 -1.34 -20.44 -2.53 -31 -3 c -12.54 -0.55 -26.25 -2.15 -37 0 c -7.54 1.51 -15.6 7.77 -23 12 c -1.83 1.04 -3.33 2.57 -5 4 c -3.15 2.7 -6.59 5.19 -9 8 c -1.34 1.57 -2.5 3.99 -3 6 c -0.75 3.02 -1.24 6.8 -1 10 c 0.41 5.5 1.36 12.08 3 17 c 0.82 2.45 3.04 5.32 5 7 c 2.35 2.01 6.47 4.46 9 5 c 1.32 0.28 3.78 -0.95 5 -2 c 3.05 -2.62 6.14 -6.46 9 -10 c 2.9 -3.58 5.59 -7.14 8 -11 c 2.62 -4.19 4.38 -8.96 7 -13 c 1.64 -2.52 3.69 -5.15 6 -7 c 5.77 -4.61 15.49 -11.88 19 -13 c 1.02 -0.33 3 4.2 3 6 c 0 3.06 -1.34 7.96 -3 11 c -2.06 3.78 -5.64 7.64 -9 11 c -9.05 9.05 -18.4 17.7 -28 26 c -2.72 2.35 -5.82 4.41 -9 6 c -6.06 3.03 -13 5 -19 8 c -2.5 1.25 -5.48 3.14 -7 5 c -1.12 1.37 -1.92 4.05 -2 6 c -0.24 6.17 -0.33 13.74 1 20 c 1.89 8.9 6.58 18.39 9 27 c 0.43 1.51 0 5.09 0 5 c 0 -0.17 -0.73 -6.98 0 -10 c 1.48 -6.12 3.67 -13.79 7 -19 c 3.84 -6 10.13 -11.98 16 -17 c 10.06 -8.59 21.33 -16.88 32 -24 c 2.87 -1.92 6.75 -3.38 10 -4 c 3.32 -0.63 7.39 -0.33 11 0 c 3.67 0.33 7.73 1.06 11 2 c 1.06 0.3 3 1.45 3 2 c 0 0.65 -1.89 2.39 -3 3 c -1.65 0.92 -3.99 1.73 -6 2 c -5.1 0.7 -11.41 -0.24 -16 1 c -3.34 0.9 -8.04 3.23 -10 6 c -6.68 9.45 -15.46 24.39 -19 35 c -1.43 4.29 0.89 10.83 2 16 c 0.87 4.06 2.15 8.86 4 12 c 1.14 1.94 3.93 4.22 6 5 c 2.67 1 6.66 1 10 1 c 5.32 0 10.55 -0.43 16 -1 c 7.55 -0.79 14.7 -1.51 22 -3 c 7.49 -1.53 14.54 -3.66 22 -6 c 10.03 -3.15 28.49 -9.84 29 -10 l -4 2"/><path fill="none" stroke="#000000" stroke-width="2" stroke-linecap="round" stroke-linejoin="round" d="M 321 134 l 0 -6"/></svg>