<?xml version="1.0" encoding="UTF-8" standalone="no"?><!DOCTYPE svg PUBLIC "-//W3C//DTD SVG 1.1//EN" "http://www.w3.org/Graphics/SVG/1.1/DTD/svg11.dtd"><svg xmlns="http://www.w3.org/2000/svg" version="1.1" width="309" height="177"><path fill="none" stroke="#000000" stroke-width="2" stroke-linecap="round" stroke-linejoin="round" d="M 1 53 c 0.74 -0.12 27.52 -4.27 42 -7 c 22.21 -4.19 42.74 -7.8 64 -13 c 8.96 -2.19 17.94 -5.58 26 -9 c 2.52 -1.07 4.67 -3.73 7 -5 c 1.12 -0.61 4.21 -0.89 4 -1 c -0.76 -0.38 -9.21 -2.98 -14 -4 c -6.33 -1.34 -12.81 -2.85 -19 -3 c -6.79 -0.17 -14.18 0.74 -21 2 c -5.73 1.06 -11.62 2.89 -17 5 c -3.8 1.49 -7.46 3.77 -11 6 c -2.82 1.78 -5.8 3.68 -8 6 c -3.61 3.81 -7.57 8.81 -10 13 c -0.9 1.55 -1.18 4.39 -1 6 c 0.11 0.95 1.14 2.43 2 3 c 1.81 1.21 5.55 3.79 7 3 c 4.05 -2.21 9.47 -10.6 15 -15 c 17.17 -13.63 53 -39 53 -39"/><path fill="none" stroke="#000000" stroke-width="2" stroke-linecap="round" stroke-linejoin="round" d="M 308 116 c -3.24 -1.98 -164.72 -103.03 -185 -113 c -2.16 -1.06 2.17 15.53 2 23 c -0.15 6.55 -1.33 13.64 -3 20 c -1.6 6.08 -4.17 12.2 -7 18 c -3.87 7.93 -8.33 16.77 -13 23 c -1.67 2.22 -5.28 3.88 -8 5 c -2.66 1.1 -6.01 1.72 -9 2 c -3.89 0.37 -8.09 0.51 -12 0 c -8.63 -1.14 -17.72 -4.03 -26 -5 c -2.52 -0.3 -5.47 0.42 -8 1 c -1.69 0.39 -4.35 0.89 -5 2 c -1.23 2.11 -2.13 6.77 -2 10 c 0.51 12.4 1.21 26.9 4 39 c 2.01 8.71 9.57 24.36 11 26 c 0.53 0.61 2.34 -6.58 3 -10 c 1.34 -6.94 0.7 -14.97 3 -21 c 2.67 -7.02 7.99 -14.86 13 -21 c 5.03 -6.16 11.6 -12.16 18 -17 c 5.67 -4.29 12.64 -8.59 19 -11 c 5.29 -2 12.48 -3.17 18 -3 c 4.69 0.14 10.81 2 15 4 c 2.87 1.37 6.11 4.55 8 7 c 1.12 1.46 2.25 4.4 2 6 c -0.31 2.04 -2.43 7 -4 7 c -4.14 0 -13.74 -5.75 -20 -7 c -2.97 -0.59 -7.23 0.02 -10 1 c -2.37 0.84 -5.93 2.86 -7 5 c -3.27 6.54 -5.58 16.44 -8 25 c -1.32 4.67 -2.65 9.47 -3 14 c -0.29 3.81 0.27 8.17 1 12 c 0.57 3.01 1.35 7.07 3 9 c 1.79 2.09 5.89 3.78 9 5 l 14 4"/></svg>