<?xml version="1.0" encoding="UTF-8" standalone="no"?><!DOCTYPE svg PUBLIC "-//W3C//DTD SVG 1.1//EN" "http://www.w3.org/Graphics/SVG/1.1/DTD/svg11.dtd"><svg xmlns="http://www.w3.org/2000/svg" version="1.1" width="207" height="263"><path fill="none" stroke="#000000" stroke-width="2" stroke-linecap="round" stroke-linejoin="round" d="M 52 102 l -4 6"/><path fill="none" stroke="#000000" stroke-width="2" stroke-linecap="round" stroke-linejoin="round" d="M 11 134 l -2 -3"/><path fill="none" stroke="#000000" stroke-width="2" stroke-linecap="round" stroke-linejoin="round" d="M 14 17 c 0.05 0.07 2.41 2.59 3 4 c 0.97 2.33 1.57 5.25 2 8 c 1.59 10.09 2.99 19.74 4 30 c 0.7 7.13 0.25 14.46 1 21 c 0.19 1.67 1.59 5.29 2 5 c 0.86 -0.61 5 -10 5 -10"/><path fill="none" stroke="#000000" stroke-width="2" stroke-linecap="round" stroke-linejoin="round" d="M 54 10 c 0.09 0.05 3.86 1.73 5 3 c 1.58 1.76 3.2 4.61 4 7 c 1.1 3.31 1.87 7.39 2 11 c 0.19 5.17 -0.21 10.86 -1 16 c -0.52 3.35 -1.75 6.78 -3 10 c -1.07 2.76 -2.24 6.24 -4 8 c -1.76 1.76 -5.28 3.14 -8 4 c -3.39 1.07 -7.41 2 -11 2 c -7.72 0 -15.81 -1.56 -24 -2 c -4.42 -0.24 -13.64 0.47 -13 0 c 4.74 -3.44 75.67 -46.96 82 -50 c 0.92 -0.44 -2.68 9.17 -5 13 c -5.13 8.47 -10.99 17.79 -18 25 c -15.62 16.07 -33.77 30.88 -51 46 c -1.81 1.59 -5.58 4 -6 4 c -0.26 0 1.15 -2.83 2 -4 c 1.75 -2.41 3.81 -4.98 6 -7 c 2.04 -1.88 5.1 -4.48 7 -5 c 0.99 -0.27 3.3 1.06 4 2 c 1 1.33 2.24 4.18 2 6 c -1.24 9.42 -4.28 21.36 -7 32 c -0.97 3.8 -2.91 7.3 -4 11 c -0.57 1.92 -1.25 5.5 -1 6 c 0.15 0.29 2.27 -1.13 3 -2 c 5.91 -7.03 12.26 -14.93 18 -23 c 5.13 -7.21 8.92 -14.75 14 -22 c 4.44 -6.34 9.02 -12.37 14 -18 c 2.63 -2.97 5.92 -6.19 9 -8 c 2.11 -1.24 6.33 -2.64 8 -2 c 1.74 0.67 4.25 4.62 5 7 c 1.05 3.33 1.15 8.09 1 12 c -0.18 4.59 -0.6 9.99 -2 14 c -1.07 3.07 -3.68 6.85 -6 9 c -1.91 1.78 -5.55 3.48 -8 4 c -1.67 0.36 -4.45 -0.17 -6 -1 c -2.35 -1.27 -5.14 -3.74 -7 -6 c -2.63 -3.19 -6.76 -10.82 -7 -11 c -0.16 -0.12 2.54 5.33 3 8 c 0.82 4.7 0.38 10.03 1 15 c 0.38 3.05 0.79 6.93 2 9 c 0.76 1.31 3.25 2.25 5 3 c 2.84 1.22 6.22 3 9 3 c 4.78 0 10.69 -1.64 16 -3 c 6.49 -1.67 13.7 -3.04 19 -6 c 5.28 -2.95 10.59 -8.26 15 -13 c 4.45 -4.78 8.43 -10.39 12 -16 c 3.43 -5.4 6.79 -11.22 9 -17 c 2.01 -5.24 3.08 -11.27 4 -17 c 0.74 -4.6 1.64 -9.86 1 -14 c -0.59 -3.83 -3.13 -8.25 -5 -12 l -3 -4"/><path fill="none" stroke="#000000" stroke-width="2" stroke-linecap="round" stroke-linejoin="round" d="M 154 31 c -0.03 0.09 -2 3.46 -2 5 c 0 2.91 0.91 6.84 2 10 c 2.2 6.38 6.58 17.07 8 19 c 0.34 0.47 2.39 -2.54 3 -4 c 3.22 -7.78 5.61 -17.02 9 -25 c 1.2 -2.83 3 -6 5 -8 c 2 -2 5.28 -3.94 8 -5 c 2.94 -1.14 6.68 -1.56 10 -2 c 1.63 -0.22 3.8 -0.53 5 0 c 1.36 0.6 4 2.67 4 4 c 0 3.88 -2.23 10.87 -4 16 c -1.54 4.45 -3.61 8.82 -6 13 c -5.69 9.97 -11.58 19.38 -18 29 c -3.08 4.62 -10.23 13.18 -10 13 c 0.54 -0.42 19.67 -17.91 28 -27 c 2.21 -2.41 3.7 -5.91 5 -9 l 3 -10"/><path fill="none" stroke="#000000" stroke-width="2" stroke-linecap="round" stroke-linejoin="round" d="M 197 1 c -0.04 0.05 -1.57 1.93 -2 3 c -1.5 3.76 -3.18 7.92 -4 12 c -1.49 7.47 -2.46 15.16 -3 23 c -0.82 11.83 -1 22.95 -1 35 c 0 14.11 -0.05 27.03 1 41 c 2.03 27.04 4.97 52.95 8 79 c 0.28 2.39 2 7 2 7"/><path fill="none" stroke="#000000" stroke-width="2" stroke-linecap="round" stroke-linejoin="round" d="M 124 190 c 0.05 -0.09 1.73 -3.73 3 -5 c 2.49 -2.49 5.78 -4.88 9 -7 c 9.64 -6.35 19.51 -11.59 29 -18 c 3.95 -2.67 8.16 -5.94 11 -9 c 1.08 -1.16 2 -3.57 2 -5 c 0 -1.43 -1.3 -4.58 -2 -5 c -0.47 -0.28 -2.25 1.16 -3 2 c -2.09 2.32 -4.7 5.1 -6 8 c -4.14 9.26 -7.92 19.87 -11 30 c -1.57 5.16 -3.74 16.54 -3 16 c 2.07 -1.51 26.48 -32.57 29 -35 c 0.39 -0.37 0.58 4.89 0 7 c -2.26 8.3 -5.54 17.7 -9 26 c -1.47 3.52 -4.32 6.51 -6 10 c -2.32 4.84 -5.93 14.27 -6 15 c -0.03 0.32 3.73 -3.15 5 -5 c 2.26 -3.28 4.21 -7.21 6 -11 c 1.22 -2.58 1.76 -5.73 3 -8 c 0.61 -1.13 2.19 -3 3 -3 c 0.95 0 3.22 1.82 4 3 c 0.99 1.49 2 4.21 2 6 c 0 2.06 -1.04 4.84 -2 7 c -1.66 3.73 -3.47 8.18 -6 11 c -3.03 3.37 -7.71 6.29 -12 9 c -12.3 7.78 -25.21 15.54 -37 22 c -1.4 0.76 -5.15 1.26 -5 1 c 0.35 -0.62 5.78 -5.52 9 -8 c 5.57 -4.28 11 -8.12 17 -12 c 11.51 -7.45 22.15 -13.79 34 -21 c 4.12 -2.51 8.07 -5.43 12 -7 c 2.28 -0.91 8.32 -1.67 8 -1 c -1.57 3.25 -15.02 21.63 -23 32 c -2 2.6 -5.31 4.68 -7 7 c -0.7 0.97 -1.15 2.95 -1 4 c 0.13 0.92 1.6 3.35 2 3 c 3.63 -3.18 15.32 -17.81 22 -24 c 1.05 -0.97 4.22 -1.56 5 -1 c 0.97 0.69 2 4.14 2 6 c 0 3.29 -0.96 7.54 -2 11 c -0.92 3.05 -2.22 6.62 -4 9 c -1.92 2.57 -5.18 5.17 -8 7 c -2.62 1.69 -5.99 3 -9 4 c -1.86 0.62 -4.08 1 -6 1 c -2.23 0 -5.15 -0.15 -7 -1 c -2.05 -0.94 -4.7 -3.12 -6 -5 c -1.42 -2.05 -2.88 -5.51 -3 -8 c -0.18 -3.54 1 -8.2 2 -12 c 0.63 -2.38 1.74 -5.02 3 -7 c 0.93 -1.47 2.55 -3.13 4 -4 l 6 -2"/></svg>