<?xml version="1.0" encoding="UTF-8" standalone="no"?><!DOCTYPE svg PUBLIC "-//W3C//DTD SVG 1.1//EN" "http://www.w3.org/Graphics/SVG/1.1/DTD/svg11.dtd"><svg xmlns="http://www.w3.org/2000/svg" version="1.1" width="99" height="125"><path fill="none" stroke="#000000" stroke-width="2" stroke-linecap="round" stroke-linejoin="round" d="M 1 22 c 0.3 -0.14 11.09 -5.51 17 -8 c 7.07 -2.98 13.87 -6.22 21 -8 c 9.97 -2.49 22.83 -4.53 31 -5 c 1.3 -0.07 3.78 1.83 4 3 c 0.57 3.05 0.19 9.05 -1 13 c -2.96 9.78 -7.4 19.93 -12 30 c -11.85 25.92 -27.26 59.96 -36 75 c -0.74 1.28 -5.48 0.09 -7 -1 c -2.45 -1.75 -5.03 -5.82 -7 -9 c -2.32 -3.74 -4.46 -7.95 -6 -12 c -1.06 -2.78 -2.28 -6.44 -2 -9 c 0.3 -2.73 2.07 -6.75 4 -9 c 3.61 -4.21 9.02 -8.58 14 -12 c 5.56 -3.82 12.02 -7.34 18 -10 c 2.68 -1.19 7.09 -2.68 9 -2 c 1.78 0.64 4.9 4.85 5 7 c 0.17 3.63 -2.05 9.81 -4 14 c -2.22 4.79 -5.8 9.21 -9 14 c -3.04 4.55 -5.62 8.96 -9 13 c -5.3 6.32 -17.24 16.2 -17 18 c 0.19 1.4 12.62 -1.61 19 -3 c 9.24 -2.01 17.82 -5.24 27 -7 c 8.28 -1.59 16.95 -2.79 25 -3 l 13 2"/></svg>