<?xml version="1.0" encoding="UTF-8" standalone="no"?><!DOCTYPE svg PUBLIC "-//W3C//DTD SVG 1.1//EN" "http://www.w3.org/Graphics/SVG/1.1/DTD/svg11.dtd"><svg xmlns="http://www.w3.org/2000/svg" version="1.1" width="281" height="166"><path fill="none" stroke="#000000" stroke-width="2" stroke-linecap="round" stroke-linejoin="round" d="M 1 47 c 0.49 -0.12 18.5 -4.26 28 -7 c 10.72 -3.09 21.48 -5.71 31 -10 c 6.97 -3.14 14.61 -8.21 20 -13 c 2.95 -2.62 5.5 -7.57 7 -11 c 0.57 -1.31 0.53 -5 0 -5 c -0.91 0 -6.48 2.87 -7 5 c -2.44 9.97 -3.05 26.41 -4 40 c -0.4 5.75 -0.31 11.25 0 17 c 0.37 6.8 2.98 17.62 2 20 c -0.46 1.12 -6.94 -1.27 -9 -3 c -3.56 -3 -6.39 -9.19 -10 -13 c -2.2 -2.32 -8.66 -4.75 -8 -6 c 1.46 -2.78 12.15 -10.36 18 -13 c 3.43 -1.55 12.3 -2.67 13 -1 c 1.11 2.64 -2.26 14.69 -5 20 c -2.07 4.01 -7.04 7.57 -11 11 c -6.16 5.34 -20.01 14.46 -19 15 c 1.37 0.74 26.42 -9.66 32 -8 c 3.32 0.99 4.41 13.11 5 19 c 0.34 3.35 -3.49 9.04 -2 11 c 3.37 4.43 13.99 10.15 21 14 c 2.9 1.59 7.02 1.72 10 3 c 1.43 0.61 3.22 1.82 4 3 c 0.99 1.49 2.74 4.75 2 6 c -2.57 4.35 -9.63 12.02 -15 16 c -4.28 3.17 -10.74 5.5 -16 7 c -3.63 1.04 -8.08 1.15 -12 1 c -4.93 -0.18 -12.83 -0.45 -15 -2 c -1.15 -0.82 -0.08 -5.85 1 -8 c 2.89 -5.77 7.26 -13.12 12 -18 c 6.4 -6.59 14.94 -12.63 23 -18 c 6.92 -4.61 14.41 -8.31 22 -12 l 15 -6"/><path fill="none" stroke="#000000" stroke-width="2" stroke-linecap="round" stroke-linejoin="round" d="M 127 68 c 0.65 -0.23 24.54 -8.05 37 -13 c 15.94 -6.34 31.27 -12.34 46 -20 c 10.18 -5.3 20.41 -12.27 29 -19 c 3.17 -2.49 8.37 -8.38 8 -10 c -0.33 -1.44 -7.8 -3.51 -11 -3 c -8 1.26 -19.61 5.2 -27 9 c -3.12 1.61 -5.99 5.74 -8 9 c -3.13 5.09 -6.07 11.22 -8 17 c -1.99 5.97 -3.26 12.7 -4 19 c -0.57 4.87 -0.25 10.17 0 15 c 0.07 1.33 0.42 4.13 1 4 c 1.94 -0.45 9.21 -3.91 12 -7 c 5.79 -6.41 11.33 -16.31 16 -24 c 0.67 -1.1 1.04 -4.06 1 -4 c -0.08 0.11 -1.64 4.96 -3 7 c -3.83 5.74 -8.57 11.79 -13 17 c -1.03 1.22 -3.04 1.78 -4 3 c -2.5 3.18 -5.5 7.24 -7 11 c -1.65 4.13 -2.56 9.35 -3 14 c -0.55 5.85 0.26 12.1 0 18 c -0.07 1.67 -0.45 3.54 -1 5 c -0.39 1.03 -1.14 2.4 -2 3 c -2.14 1.5 -5.48 3.56 -8 4 c -2.55 0.45 -6.33 -0.11 -9 -1 c -3.95 -1.32 -12 -4.52 -12 -6 c 0 -1.53 8.57 -5.71 12 -7 c 1.02 -0.38 2.81 0.47 4 1 c 1.69 0.75 3.27 2.34 5 3 c 2.44 0.94 5.78 2.42 8 2 c 3.86 -0.74 9.68 -3.13 13 -6 c 8.2 -7.09 19.19 -24.4 24 -26 c 2.38 -0.79 5.41 10.95 9 15 c 3.65 4.13 12.59 8.49 14 11 c 0.56 1 -3.02 4.33 -5 5 c -26.27 8.85 -84.52 23.02 -90 27 c -2.18 1.58 23.55 10.37 35 13 c 7.98 1.83 17.27 1.18 26 1 c 7.41 -0.15 14.5 -1.73 22 -2 c 11.55 -0.41 24.24 -1.33 34 0 c 3.35 0.46 7.76 3.76 10 6 l 2 6"/></svg>