<?xml version="1.0" encoding="UTF-8" standalone="no"?><!DOCTYPE svg PUBLIC "-//W3C//DTD SVG 1.1//EN" "http://www.w3.org/Graphics/SVG/1.1/DTD/svg11.dtd"><svg xmlns="http://www.w3.org/2000/svg" version="1.1" width="306" height="167"><path fill="none" stroke="#000000" stroke-width="2" stroke-linecap="round" stroke-linejoin="round" d="M 20 15 c 0.68 -0.16 26.2 -6.74 39 -9 c 3.84 -0.68 11.53 -2.05 12 0 c 2.05 8.87 -0.6 34.29 0 52 c 0.42 12.3 2.52 23.64 3 36 c 0.89 22.59 1 44.81 1 66 c 0 1.32 -0.21 3.47 -1 4 c -1.58 1.05 -8 2 -8 2"/><path fill="none" stroke="#000000" stroke-width="2" stroke-linecap="round" stroke-linejoin="round" d="M 1 81 c 0.21 -0.14 7.83 -5.64 12 -8 c 3.49 -1.97 7.24 -3.54 11 -5 c 2.26 -0.88 5.05 -2 7 -2 c 1.2 0 3.67 1.13 4 2 c 0.44 1.19 -0.22 4.28 -1 6 c -2.36 5.2 -8.25 13.44 -9 16 c -0.17 0.57 2.67 0.91 4 1 c 3.54 0.24 7.47 -0.37 11 0 c 2.65 0.28 5.82 1.01 8 2 c 1.12 0.51 2.78 1.99 3 3 c 0.32 1.45 -0.18 4.5 -1 6 c -0.95 1.74 -3.17 3.52 -5 5 c -3.51 2.85 -7.24 5.93 -11 8 l -9 3"/><path fill="none" stroke="#000000" stroke-width="2" stroke-linecap="round" stroke-linejoin="round" d="M 119 24 c 0.26 -0.14 9.9 -5.76 15 -8 c 3.13 -1.38 8.87 -3.75 10 -3 c 0.98 0.65 0.19 6.62 -1 9 c -2.73 5.47 -7.7 12.05 -12 17 c -2.07 2.38 -8 6 -8 6"/><path fill="none" stroke="#000000" stroke-width="2" stroke-linecap="round" stroke-linejoin="round" d="M 107 44 c 0 0.37 0.26 14.04 0 21 c -0.07 2.02 -1.54 6.22 -1 6 c 2.91 -1.18 18.44 -11.74 28 -17 c 3.8 -2.09 7.93 -3.64 12 -5 c 2.89 -0.96 6.02 -1.6 9 -2 c 1.94 -0.26 4.54 -0.58 6 0 c 1.38 0.55 3.38 2.49 4 4 c 1.46 3.55 2.35 8.61 3 13 c 0.68 4.62 1.33 9.4 1 14 c -0.99 13.87 -3.12 27.46 -5 42 c -0.9 6.95 -1.71 13.57 -3 20 c -0.34 1.71 -1.12 3.54 -2 5 c -1.05 1.74 -2.48 3.59 -4 5 c -2.71 2.5 -5.93 5.47 -9 7 c -2.48 1.24 -6.15 1.82 -9 2 c -2.19 0.14 -5.04 -0.12 -7 -1 c -4.24 -1.91 -8.93 -5.2 -13 -8 c -1.13 -0.78 -2.33 -1.88 -3 -3 c -1.21 -2.01 -3 -4.98 -3 -7 c 0 -2.26 1.48 -5.98 3 -8 c 2.14 -2.85 5.8 -5.92 9 -8 c 3.21 -2.08 7.31 -4.26 11 -5 c 7.36 -1.47 24 -2 24 -2"/><path fill="none" stroke="#000000" stroke-width="2" stroke-linecap="round" stroke-linejoin="round" d="M 230 20 c 0.28 -0.14 10.57 -5.79 16 -8 c 3.46 -1.41 10.48 -3.93 11 -3 c 0.61 1.1 -3.39 8.5 -6 12 c -9.8 13.15 -21.7 25.84 -32 39 c -1.65 2.1 -3.03 4.66 -4 7 c -0.62 1.48 -1.74 4.32 -1 5 c 1.89 1.72 8.21 4.61 12 5 c 4.99 0.52 12.1 -0.31 17 -2 c 5.01 -1.72 10.15 -5.7 15 -9 c 3.55 -2.41 7.18 -5.02 10 -8 c 3 -3.16 5.99 -7.42 8 -11 c 0.75 -1.34 1.16 -3.6 1 -5 c -0.14 -1.23 -1.12 -3.12 -2 -4 c -0.88 -0.88 -2.96 -2 -4 -2 c -0.84 0 -2.41 1.11 -3 2 c -2.42 3.63 -5.21 8.52 -7 13 c -2.15 5.38 -3.78 11.25 -5 17 c -1.11 5.24 -1.78 10.58 -2 16 c -0.46 11.42 0 34 0 34"/><path fill="none" stroke="#000000" stroke-width="2" stroke-linecap="round" stroke-linejoin="round" d="M 214 1 l 0 5"/><path fill="none" stroke="#000000" stroke-width="2" stroke-linecap="round" stroke-linejoin="round" d="M 189 65 c 0.14 -0.07 5.26 -2.91 8 -4 c 2.23 -0.89 4.82 -1.83 7 -2 c 1.82 -0.14 4.25 0.42 6 1 c 1.04 0.35 2.33 1.19 3 2 c 0.84 1 1.82 2.65 2 4 c 0.74 5.44 1.51 12.18 1 18 c -0.8 9.18 -4.09 18.91 -5 28 c -0.38 3.85 0.25 8.23 1 12 c 0.54 2.68 1.35 6.35 3 8 c 2.69 2.69 7.82 5.5 12 7 c 8.39 3.01 17.8 5.28 27 7 c 10.64 1.98 21.02 2.92 32 4 c 6.48 0.63 19 1 19 1"/></svg>