<?xml version="1.0" encoding="UTF-8" standalone="no"?><!DOCTYPE svg PUBLIC "-//W3C//DTD SVG 1.1//EN" "http://www.w3.org/Graphics/SVG/1.1/DTD/svg11.dtd"><svg xmlns="http://www.w3.org/2000/svg" version="1.1" width="60" height="99"><path fill="none" stroke="#000000" stroke-width="2" stroke-linecap="round" stroke-linejoin="round" d="M 3 15 c -0.03 0.81 -1.98 45.19 -2 46 c 0 0.11 1 -6 1 -6"/><path fill="none" stroke="#000000" stroke-width="2" stroke-linecap="round" stroke-linejoin="round" d="M 17 7 c 0.4 -0.09 15.14 -3.48 23 -5 c 2.69 -0.52 5.47 -1 8 -1 c 1.6 0 4.45 0.08 5 1 c 0.98 1.63 1 5.98 1 9 c 0 8.34 -0.19 16.53 -1 25 c -1.24 12.97 -3.02 25.81 -5 38 c -0.28 1.71 -1.61 5.35 -2 5 c -1.08 -0.96 -4.97 -8.69 -7 -13 l -1 -4"/><path fill="none" stroke="#000000" stroke-width="2" stroke-linecap="round" stroke-linejoin="round" d="M 33 29 c -0.28 0.96 -9.95 38.88 -16 55 c -1.27 3.39 -6.4 8.42 -8 9 c -0.77 0.28 -3 -5 -3 -5"/><path fill="none" stroke="#000000" stroke-width="2" stroke-linecap="round" stroke-linejoin="round" d="M 31 80 l 28 18"/></svg>