<?xml version="1.0" encoding="UTF-8" standalone="no"?><!DOCTYPE svg PUBLIC "-//W3C//DTD SVG 1.1//EN" "http://www.w3.org/Graphics/SVG/1.1/DTD/svg11.dtd"><svg xmlns="http://www.w3.org/2000/svg" version="1.1" width="316" height="246"><path fill="none" stroke="#000000" stroke-width="2" stroke-linecap="round" stroke-linejoin="round" d="M 5 17 c -0.07 0.35 -2.94 13.39 -4 20 c -0.26 1.62 -0.35 5.23 0 5 c 1.22 -0.81 7.63 -9.26 12 -13 c 4.79 -4.11 10.44 -7.5 16 -11 c 3.59 -2.26 7.25 -4.59 11 -6 c 3.99 -1.5 10.88 -3.61 13 -3 c 1.13 0.32 1.5 5.14 1 7 c -0.66 2.48 -2.99 5.65 -5 8 c -5.56 6.53 -11.61 12.79 -18 19 c -5.88 5.72 -17.65 14.26 -18 16 c -0.22 1.08 10.24 -0.02 15 -1 c 6.31 -1.3 12.96 -3.73 19 -6 c 1.77 -0.66 3.31 -2.25 5 -3 l 4 -1"/><path fill="none" stroke="#000000" stroke-width="2" stroke-linecap="round" stroke-linejoin="round" d="M 31 4 c 0.02 0.45 1.21 17.15 1 26 c -0.48 20.43 -3 60 -3 60"/><path fill="none" stroke="#000000" stroke-width="2" stroke-linecap="round" stroke-linejoin="round" d="M 111 1 c -0.09 0.16 -2.91 6.34 -5 9 c -8.77 11.17 -19.19 22.13 -28 33 c -0.91 1.12 -2 4 -2 4"/><path fill="none" stroke="#000000" stroke-width="2" stroke-linecap="round" stroke-linejoin="round" d="M 108 16 l 4 35"/><path fill="none" stroke="#000000" stroke-width="2" stroke-linecap="round" stroke-linejoin="round" d="M 115 24 c 0.28 -0.12 10.72 -4.36 16 -7 c 4.88 -2.44 9.66 -5.19 14 -8 c 1.14 -0.74 3.11 -2.77 3 -3 c -0.11 -0.22 -3.02 0.31 -4 1 c -2.01 1.41 -4.45 3.83 -6 6 c -1.63 2.29 -3.22 5.45 -4 8 c -0.44 1.43 -0.32 3.54 0 5 c 0.29 1.3 1.02 3.2 2 4 c 2.26 1.85 6 4.22 9 5 c 4.09 1.07 14 1 14 1"/><path fill="none" stroke="#000000" stroke-width="2" stroke-linecap="round" stroke-linejoin="round" d="M 75 83 c 0.89 -0.11 33.8 -3.31 51 -6 c 10.97 -1.72 32 -7 32 -7"/><path fill="none" stroke="#000000" stroke-width="2" stroke-linecap="round" stroke-linejoin="round" d="M 131 48 c 0.02 0.16 0.93 5.94 1 9 c 0.26 10.8 0.46 21.28 0 32 c -0.22 5.07 -2 15 -2 15"/><path fill="none" stroke="#000000" stroke-width="2" stroke-linecap="round" stroke-linejoin="round" d="M 213 21 c -0.23 0.6 -7.92 23.06 -13 34 c -3.56 7.68 -8.44 14.49 -13 22 c -1.29 2.12 -2.55 4.34 -4 6 l -3 2"/><path fill="none" stroke="#000000" stroke-width="2" stroke-linecap="round" stroke-linejoin="round" d="M 213 54 c 0.39 0.32 14.66 12.69 22 18 c 1.97 1.42 7 3 7 3"/><path fill="none" stroke="#000000" stroke-width="2" stroke-linecap="round" stroke-linejoin="round" d="M 252 10 c 0.33 -0.04 12.72 -1.8 19 -2 c 3.96 -0.13 10.47 -0.39 12 1 c 1.15 1.05 0.14 6.72 -1 9 c -1.52 3.03 -5.05 6.3 -8 9 c -5.04 4.62 -15.48 11.75 -16 13 c -0.28 0.67 7.64 -0.16 11 -1 c 3 -0.75 6.18 -2.48 9 -4 l 4 -3"/><path fill="none" stroke="#000000" stroke-width="2" stroke-linecap="round" stroke-linejoin="round" d="M 243 40 c 0.02 0.38 0.47 14.6 1 22 c 0.15 2.04 0.31 4.44 1 6 c 0.48 1.09 2.19 3.27 3 3 c 3.36 -1.12 10 -6.71 15 -9 c 2.63 -1.21 6.04 -1.1 9 -2 c 4.78 -1.45 14 -5 14 -5"/><path fill="none" stroke="#000000" stroke-width="2" stroke-linecap="round" stroke-linejoin="round" d="M 282 38 c 0 0.39 -0.71 14.87 0 22 c 0.6 5.97 2.33 12.29 4 18 c 0.61 2.08 1.9 4.03 3 6 c 0.59 1.06 1.16 2.25 2 3 c 2.32 2.09 5.15 4.58 8 6 c 4.86 2.43 16 6 16 6"/><path fill="none" stroke="#000000" stroke-width="2" stroke-linecap="round" stroke-linejoin="round" d="M 5 150 l 48 -22"/><path fill="none" stroke="#000000" stroke-width="2" stroke-linecap="round" stroke-linejoin="round" d="M 20 113 c 0.05 0.4 2 21.44 3 23 c 0.47 0.73 4.27 -5.85 6 -9 c 1.93 -3.52 4.1 -9.97 5 -11 c 0.27 -0.31 1.42 1.94 2 3 c 1.44 2.64 3.11 5.33 4 8 c 0.7 2.11 1 4.69 1 7 c 0 5.25 -1 16 -1 16"/><path fill="none" stroke="#000000" stroke-width="2" stroke-linecap="round" stroke-linejoin="round" d="M 20 168 c 0.14 -0.04 6.84 -2.81 8 -2 c 1.3 0.91 2 6.2 2 9 c 0 3.1 -1.1 6.69 -2 10 c -1.12 4.1 -2.28 8.17 -4 12 c -2.61 5.82 -9 17 -9 17"/><path fill="none" stroke="#000000" stroke-width="2" stroke-linecap="round" stroke-linejoin="round" d="M 48 191 l 24 28"/><path fill="none" stroke="#000000" stroke-width="2" stroke-linecap="round" stroke-linejoin="round" d="M 153 112 c -0.33 0.47 -12.29 18.14 -19 27 c -2.73 3.61 -5.75 6.75 -9 10 c -6.31 6.31 -19 18 -19 18"/><path fill="none" stroke="#000000" stroke-width="2" stroke-linecap="round" stroke-linejoin="round" d="M 152 154 c 0.02 0.75 1.48 29.01 1 43 c -0.17 4.97 -3 15 -3 15"/><path fill="none" stroke="#000000" stroke-width="2" stroke-linecap="round" stroke-linejoin="round" d="M 122 173 c 0.17 -0.07 6.56 -2.98 10 -4 c 5.58 -1.65 15.37 -4.5 17 -4 c 0.83 0.26 -2.42 5.43 -4 8 c -4.84 7.9 -9.66 15.57 -15 23 c -2.34 3.26 -8.13 7.87 -8 9 c 0.09 0.84 6.11 0.51 9 0 c 13.81 -2.44 42 -9 42 -9"/><path fill="none" stroke="#000000" stroke-width="2" stroke-linecap="round" stroke-linejoin="round" d="M 179 157 c 0.09 -0.02 3.52 -0.38 5 -1 c 2.34 -0.97 4.66 -3.16 7 -4 c 2.05 -0.73 4.83 -1 7 -1 c 1.27 0 4.15 0.49 4 1 c -0.42 1.4 -4.39 6.55 -7 9 c -2.48 2.32 -5.93 4.25 -9 6 l -5 2"/><path fill="none" stroke="#000000" stroke-width="2" stroke-linecap="round" stroke-linejoin="round" d="M 232 141 c -0.02 0.4 -0.85 15.06 -1 23 c -0.2 10.35 -0.28 20.06 0 30 c 0.06 2.02 1 6 1 6"/><path fill="none" stroke="#000000" stroke-width="2" stroke-linecap="round" stroke-linejoin="round" d="M 255 95 c 0.25 -0.05 9.45 -2.68 14 -3 c 4.46 -0.32 9.9 0.02 14 1 c 2.35 0.56 5.59 2.19 7 4 c 2.73 3.51 5.13 9.18 7 14 c 2.11 5.46 3.67 11.19 5 17 c 1.37 5.99 2.5 11.87 3 18 c 1.18 14.45 2 28.41 2 43 c 0 12.9 -1.07 24.96 -2 38 c -0.44 6.21 -2 18 -2 18"/><path fill="none" stroke="#000000" stroke-width="2" stroke-linecap="round" stroke-linejoin="round" d="M 250 127 c 0.11 0.05 4.68 1.68 6 3 c 1.32 1.32 2.53 3.99 3 6 c 0.78 3.32 1 7.35 1 11 c 0 3.98 -0.13 8.34 -1 12 c -0.71 3 -2.47 6.37 -4 9 c -0.66 1.13 -1.91 2.52 -3 3 c -1.56 0.69 -5.67 1.75 -6 1 c -0.56 -1.25 0.88 -7.19 2 -10 c 0.71 -1.76 2.46 -3.72 4 -5 c 2.26 -1.89 5.27 -3.63 8 -5 c 1.83 -0.92 4.8 -2.4 6 -2 c 1.1 0.37 2.68 3.27 3 5 c 1.51 8.07 1.66 18.67 3 27 c 0.22 1.37 1.18 2.86 2 4 c 0.77 1.08 1.87 2.39 3 3 c 2.27 1.24 5.56 2.86 8 3 l 9 -2"/><path fill="none" stroke="#000000" stroke-width="2" stroke-linecap="round" stroke-linejoin="round" d="M 285 152 c 0.14 0.16 5.65 5.94 8 9 c 0.87 1.14 2 4 2 4"/><path fill="none" stroke="#000000" stroke-width="2" stroke-linecap="round" stroke-linejoin="round" d="M 229 218 c 0.56 -0.14 21.31 -6 32 -8 c 5.19 -0.97 16 -1 16 -1"/></svg>