<?xml version="1.0" encoding="UTF-8" standalone="no"?><!DOCTYPE svg PUBLIC "-//W3C//DTD SVG 1.1//EN" "http://www.w3.org/Graphics/SVG/1.1/DTD/svg11.dtd"><svg xmlns="http://www.w3.org/2000/svg" version="1.1" width="311" height="129"><path fill="none" stroke="#000000" stroke-width="2" stroke-linecap="round" stroke-linejoin="round" d="M 1 38 c 0.11 -0.07 3.97 -3.74 6 -4 c 7.05 -0.91 16.69 0.44 25 0 c 4.37 -0.23 8.64 -1.01 13 -2 c 13.66 -3.09 27.11 -6.24 40 -10 c 2.8 -0.82 5.33 -2.97 8 -4 l 5 -1"/><path fill="none" stroke="#000000" stroke-width="2" stroke-linecap="round" stroke-linejoin="round" d="M 22 19 c 0.09 0.09 3.54 3.14 5 5 c 7.24 9.19 21 28 21 28"/><path fill="none" stroke="#000000" stroke-width="2" stroke-linecap="round" stroke-linejoin="round" d="M 80 5 c -0.07 0.23 -2.06 9.28 -4 13 c -1.83 3.5 -5.02 6.92 -8 10 c -7.09 7.32 -14.99 13.74 -22 21 c -2.3 2.39 -6 8 -6 8"/><path fill="none" stroke="#000000" stroke-width="2" stroke-linecap="round" stroke-linejoin="round" d="M 23 57 c 0.07 -0.05 3.13 -3.22 4 -3 c 1.11 0.28 2.97 3.23 4 5 c 1.23 2.1 2.28 4.65 3 7 c 0.58 1.88 0.85 3.99 1 6 c 0.18 2.31 0.32 4.79 0 7 c -0.33 2.3 -0.98 5.12 -2 7 c -0.8 1.46 -3.04 2.51 -4 4 c -1.9 2.95 -4.74 6.96 -5 10 c -0.32 3.63 2.44 8.7 3 13 c 0.42 3.22 -0.13 10.13 0 10 c 0.16 -0.16 0.46 -8.52 2 -12 c 4.47 -10.11 10.96 -20.93 17 -31 c 1.95 -3.25 4.48 -6.12 7 -9 c 2.19 -2.5 4.51 -4.86 7 -7 c 2.17 -1.86 4.6 -4.45 7 -5 c 5.32 -1.23 13.33 -1.44 19 -1 c 2.27 0.17 4.94 1.73 7 3 c 2.11 1.3 4.21 3.21 6 5 c 1.15 1.15 2.9 2.75 3 4 c 0.17 2.06 -0.39 6.96 -2 8 c -3.64 2.37 -12.09 3.03 -18 5 c -3.12 1.04 -6.35 2.34 -9 4 c -2.48 1.55 -4.98 3.81 -7 6 c -1.88 2.04 -3.7 4.56 -5 7 c -1.29 2.42 -2.4 5.32 -3 8 c -0.7 3.15 -1.38 7.73 -1 10 c 0.14 0.82 1.98 1.91 3 2 c 5.38 0.49 12.62 -0.24 19 0 c 2.71 0.1 5.34 1 8 1 c 6.28 0 17.12 2.04 19 -1 c 3.26 -5.28 -0.53 -24.65 2 -33 l 11 -10"/><path fill="none" stroke="#000000" stroke-width="2" stroke-linecap="round" stroke-linejoin="round" d="M 180 1 c -0.52 0.65 -19.51 24.46 -30 37 c -3.59 4.29 -7.39 7.79 -11 12 c -2.53 2.95 -4.93 5.89 -7 9 c -1.22 1.83 -2.55 4.05 -3 6 c -0.47 2.03 -0.73 5.83 0 7 c 0.53 0.85 3.65 0.32 5 1 c 1.7 0.85 3.89 2.47 5 4 c 1.32 1.82 2.6 4.71 3 7 c 0.53 3 0.53 7 0 10 c -0.4 2.29 -1.73 4.89 -3 7 c -1.66 2.77 -5.42 8 -6 8 c -0.47 0 -0.22 -5.96 1 -8 c 5.97 -9.95 14.79 -21.31 23 -32 c 6.51 -8.48 13.09 -15.94 20 -24 c 1.25 -1.46 2.53 -2.9 4 -4 c 2.45 -1.84 6.27 -4.84 8 -5 c 0.92 -0.08 2.92 2.63 3 4 c 0.49 8.51 0.33 21.49 -1 31 c -0.56 3.99 -3.8 7.86 -5 12 c -2.46 8.49 -4.61 17.28 -6 26 l -1 18"/><path fill="none" stroke="#000000" stroke-width="2" stroke-linecap="round" stroke-linejoin="round" d="M 160 80 c 0.12 -0.03 4.7 -1.65 7 -2 c 1.89 -0.29 4.24 -0.35 6 0 c 1.31 0.26 4.33 1.59 4 2 c -1.06 1.32 -9.92 5.73 -12 8 c -0.59 0.65 1.2 2.87 1 4 c -0.38 2.08 -1.79 5.19 -3 7 c -0.57 0.86 -3 1.53 -3 2 c 0 0.47 2.09 2.07 3 2 c 2.62 -0.2 7.04 -1.47 10 -3 c 6.38 -3.3 12.69 -7.72 19 -12 c 3.2 -2.17 6.35 -4.35 9 -7 c 4.94 -4.94 8.97 -10.97 14 -16 c 4.7 -4.7 9.75 -8.8 15 -13 c 3.23 -2.58 6.44 -5.17 10 -7 c 7.31 -3.76 15.05 -6.9 23 -10 c 6.01 -2.35 17.67 -5.93 18 -6 c 0.15 -0.03 -5.49 2.38 -8 4 c -7.86 5.07 -15.39 10.29 -23 16 c -4.62 3.47 -8.74 7.06 -13 11 c -4.95 4.58 -9.01 9.48 -14 14 c -5.9 5.35 -11.7 9.92 -18 15 c -4.41 3.56 -8.43 6.95 -13 10 c -4.49 2.99 -13.65 7.59 -14 8 c -0.2 0.24 6.45 -0.73 9 -2 c 4.98 -2.49 9.72 -6.78 15 -10 c 10.51 -6.39 29.09 -18.56 31 -18 c 1.43 0.42 -10.62 15.99 -14 23 c -0.75 1.56 -0.98 5.63 0 6 c 2.62 0.98 11.08 0.62 16 0 c 2.63 -0.33 7.41 -1.22 8 -3 c 1.67 -5 -0.84 -16.55 1 -24 c 4.92 -19.9 12.85 -41.76 20 -61 c 1.2 -3.24 4.25 -5.93 6 -9 c 0.87 -1.53 1.78 -5.31 2 -5 c 0.5 0.7 3.79 8.52 3 12 c -4.51 19.78 -14.62 44.39 -21 67 c -1.66 5.88 -2.46 11.9 -3 18 c -0.8 9.04 -1.78 22.95 -1 27 c 0.18 0.91 4.71 -0.01 6 -1 c 2.41 -1.86 4.39 -6.26 7 -9 c 4.38 -4.59 9.57 -8.38 14 -13 c 3.29 -3.44 6.27 -7.27 9 -11 c 0.86 -1.17 2.25 -3.37 2 -4 c -0.23 -0.58 -2.73 -1.06 -4 -1 c -4.97 0.25 -11.18 0.33 -16 2 c -10.83 3.76 -22.37 9.56 -33 15 c -3.58 1.83 -6.89 4.44 -10 7 c -2.53 2.08 -4.99 4.49 -7 7 l -5 8"/><path fill="none" stroke="#000000" stroke-width="2" stroke-linecap="round" stroke-linejoin="round" d="M 310 5 l 1 1"/></svg>