<?xml version="1.0" encoding="UTF-8" standalone="no"?><!DOCTYPE svg PUBLIC "-//W3C//DTD SVG 1.1//EN" "http://www.w3.org/Graphics/SVG/1.1/DTD/svg11.dtd"><svg xmlns="http://www.w3.org/2000/svg" version="1.1" width="201" height="98"><path fill="none" stroke="#000000" stroke-width="2" stroke-linecap="round" stroke-linejoin="round" d="M 1 85 c 0.16 -0.07 5.86 -2.98 9 -4 c 12.32 -4.02 24.22 -7.99 37 -11 c 23.31 -5.5 45.39 -10.06 69 -14 c 15.19 -2.53 29.75 -3.96 45 -5 c 9.43 -0.65 27.08 -1.27 28 0 c 0.75 1.03 -20 11 -20 11"/><path fill="none" stroke="#000000" stroke-width="2" stroke-linecap="round" stroke-linejoin="round" d="M 141 76 l -14 4"/><path fill="none" stroke="#000000" stroke-width="2" stroke-linecap="round" stroke-linejoin="round" d="M 12 54 c 0.23 0.32 8.38 12.06 13 18 c 2.5 3.22 5.12 6.48 8 9 c 2.26 1.98 5.23 3.62 8 5 c 2.5 1.25 5.79 3 8 3 c 1.73 0 4.27 -1.73 6 -3 c 3.11 -2.28 6.3 -5.12 9 -8 c 2.24 -2.39 4.25 -5.17 6 -8 c 2.59 -4.18 7.47 -13.27 7 -13 c -1.13 0.65 -16.92 16.05 -26 24 c -4.57 4 -14.28 11.13 -14 11 c 0.54 -0.25 19.67 -12.63 29 -18 c 1.13 -0.65 3.2 -1.48 4 -1 c 1.79 1.08 4.42 7.2 6 7 c 2.3 -0.29 6.93 -5.7 10 -9 c 5.99 -6.44 14.94 -18.86 17 -20 c 0.79 -0.44 0.22 8.6 1 10 c 0.32 0.57 3.7 -1.64 4 -1 c 1.35 2.87 2.38 14.15 4 18 c 0.36 0.86 3.62 1.69 4 1 c 3.57 -6.57 9.77 -24.08 15 -36 c 0.78 -1.78 2.97 -5.25 3 -5 c 0.07 0.56 -2.18 12.39 -2 13 c 0.1 0.34 3.11 -3.87 4 -6 c 2.34 -5.61 3.46 -12.53 6 -18 c 1.63 -3.52 4.37 -7.04 7 -10 c 2.59 -2.92 6.3 -5.12 9 -8 c 2.24 -2.39 5.93 -8.51 6 -8 c 0.16 1.14 -2.36 14.54 -4 22 c -1.44 6.55 -3.73 12.49 -5 19 c -1.77 9.05 -3.22 18.43 -4 27 c -0.17 1.91 0.42 4.25 1 6 c 0.35 1.04 1.16 2.91 2 3 c 3.96 0.42 13.04 -1.42 17 -1 c 0.84 0.09 1.75 2 2 3 c 0.34 1.38 0.79 4.13 0 5 c -1.85 2.03 -6.58 4.6 -10 6 c -3.63 1.49 -7.87 2.14 -12 3 c -4.06 0.85 -7.9 1.56 -12 2 c -5.4 0.58 -16.58 1.55 -16 1 c 1.48 -1.41 23.5 -14.16 36 -20 c 13.35 -6.24 41 -16 41 -16"/></svg>