<?xml version="1.0" encoding="UTF-8" standalone="no"?><!DOCTYPE svg PUBLIC "-//W3C//DTD SVG 1.1//EN" "http://www.w3.org/Graphics/SVG/1.1/DTD/svg11.dtd"><svg xmlns="http://www.w3.org/2000/svg" version="1.1" width="214" height="133"><path fill="none" stroke="#000000" stroke-width="2" stroke-linecap="round" stroke-linejoin="round" d="M 6 25 c -0.02 0.66 -0.18 26.22 -1 38 c -0.12 1.67 -1.66 3.3 -2 5 c -0.96 4.78 -2 15 -2 15"/><path fill="none" stroke="#000000" stroke-width="2" stroke-linecap="round" stroke-linejoin="round" d="M 32 20 c 0.45 -0.17 17.78 -7.43 26 -10 c 1.77 -0.55 5.04 -0.69 6 0 c 0.82 0.58 1 3.4 1 5 c 0 2.53 -0.52 5.27 -1 8 c -1.93 11.01 -3.69 21.23 -6 32 c -0.74 3.45 -2.59 6.62 -3 10 c -1.56 12.98 -1.43 35.54 -3 40 c -0.42 1.2 -6.12 -3.8 -9 -6 c -2.83 -2.17 -5.49 -4.49 -8 -7 l -6 -7"/><path fill="none" stroke="#000000" stroke-width="2" stroke-linecap="round" stroke-linejoin="round" d="M 21 44 c 0.25 0.02 9.54 1.41 14 1 c 6.17 -0.56 19 -4 19 -4"/><path fill="none" stroke="#000000" stroke-width="2" stroke-linecap="round" stroke-linejoin="round" d="M 44 33 c -0.16 0.28 -6.65 10.67 -9 16 c -1.18 2.68 -2 9 -2 9"/><path fill="none" stroke="#000000" stroke-width="2" stroke-linecap="round" stroke-linejoin="round" d="M 21 60 c 0.39 0 14.58 0.24 22 0 c 3.06 -0.1 9 -1 9 -1"/><path fill="none" stroke="#000000" stroke-width="2" stroke-linecap="round" stroke-linejoin="round" d="M 25 72 c -0.02 0.07 -1.57 3.88 -1 4 c 2.06 0.44 12.94 -1.44 15 -1 c 0.57 0.12 -0.24 3.24 -1 4 c -1.48 1.48 -4.88 2.52 -7 4 c -1.11 0.78 -3.11 2.77 -3 3 c 0.11 0.22 2.75 -1 4 -1 l 6 1"/><path fill="none" stroke="#000000" stroke-width="2" stroke-linecap="round" stroke-linejoin="round" d="M 98 39 l 15 -1"/><path fill="none" stroke="#000000" stroke-width="2" stroke-linecap="round" stroke-linejoin="round" d="M 90 60 c 0.21 -0.12 7.91 -5.22 12 -7 c 3.35 -1.46 7.69 -2.56 11 -3 c 1.2 -0.16 4.25 0.56 4 1 c -1.19 2.12 -8.25 10.38 -13 15 c -6.96 6.76 -20.77 17.05 -22 19 c -0.42 0.67 6.67 0.28 10 0 c 4.71 -0.39 9.42 -1.08 14 -2 c 2.05 -0.41 4.16 -1.08 6 -2 c 3.4 -1.7 8.15 -3.97 10 -6 c 0.79 -0.87 -0.01 -5.09 0 -5 c 0.05 0.33 1.06 12.68 2 19 l 2 8"/><path fill="none" stroke="#000000" stroke-width="2" stroke-linecap="round" stroke-linejoin="round" d="M 154 13 c 0.3 -0.12 11.15 -4.93 17 -7 c 4.63 -1.64 9.29 -3.02 14 -4 c 3.25 -0.68 10 -1 10 -1"/><path fill="none" stroke="#000000" stroke-width="2" stroke-linecap="round" stroke-linejoin="round" d="M 147 25 c -0.02 0.21 -0.34 8.24 -1 12 c -0.3 1.68 -2 3.62 -2 5 c 0 1.14 1.19 4.22 2 4 c 9.08 -2.41 30.86 -11.32 47 -17 c 2.35 -0.83 4.7 -1.67 7 -2 c 2.21 -0.32 5.73 -0.63 7 0 c 0.75 0.37 1.08 2.75 1 4 c -0.23 3.69 -0.62 8.62 -2 12 c -1.39 3.39 -7 10 -7 10"/><path fill="none" stroke="#000000" stroke-width="2" stroke-linecap="round" stroke-linejoin="round" d="M 174 16 c -0.09 0.24 -3.66 9.32 -5 14 c -0.64 2.23 -0.42 4.69 -1 7 c -2.79 11.15 -5.86 22.72 -9 33 l -2 3"/><path fill="none" stroke="#000000" stroke-width="2" stroke-linecap="round" stroke-linejoin="round" d="M 151 55 l 1 4"/><path fill="none" stroke="#000000" stroke-width="2" stroke-linecap="round" stroke-linejoin="round" d="M 144 68 l 2 6"/><path fill="none" stroke="#000000" stroke-width="2" stroke-linecap="round" stroke-linejoin="round" d="M 187 50 c -0.03 0.09 -1.7 3.37 -2 5 c -0.33 1.82 0 6 0 6"/><path fill="none" stroke="#000000" stroke-width="2" stroke-linecap="round" stroke-linejoin="round" d="M 178 73 l 1 1"/><path fill="none" stroke="#000000" stroke-width="2" stroke-linecap="round" stroke-linejoin="round" d="M 140 84 c 0.12 -0.02 4.71 -0.43 7 -1 c 5.74 -1.44 11.94 -4.04 17 -5 c 1.18 -0.22 4.2 0.65 4 1 c -0.49 0.86 -5.16 4.32 -8 6 c -4.45 2.63 -13.67 6.8 -14 7 c -0.09 0.05 2.67 -0.91 4 -1 c 3.54 -0.24 11 0 11 0"/><path fill="none" stroke="#000000" stroke-width="2" stroke-linecap="round" stroke-linejoin="round" d="M 143 84 c -0.17 0.44 -7.23 16.5 -10 25 c -1.9 5.82 -4 18 -4 18"/><path fill="none" stroke="#000000" stroke-width="2" stroke-linecap="round" stroke-linejoin="round" d="M 144 99 c 0.09 0.09 3.24 4.12 5 5 c 1.76 0.88 7 1 7 1"/><path fill="none" stroke="#000000" stroke-width="2" stroke-linecap="round" stroke-linejoin="round" d="M 139 112 l 16 0"/><path fill="none" stroke="#000000" stroke-width="2" stroke-linecap="round" stroke-linejoin="round" d="M 182 85 c 0.12 -0.03 4.89 -1.81 7 -2 c 1.2 -0.11 3.83 0.31 4 1 c 0.3 1.21 -1.15 4.87 -2 7 c -0.42 1.06 -1.2 2.2 -2 3 c -1.1 1.1 -2.6 2.3 -4 3 c -1.78 0.89 -4.05 1.64 -6 2 c -1.55 0.28 -5.13 0.05 -5 0 c 0.31 -0.13 10.84 -3.65 12 -3 c 0.8 0.45 -2.81 5.92 -3 8 c -0.08 0.88 1.78 2 2 3 c 0.37 1.67 0.41 4.22 0 6 c -0.52 2.26 -1.68 5.18 -3 7 c -1.11 1.53 -3.37 3.35 -5 4 c -1.28 0.51 -3.49 0.3 -5 0 c -1.62 -0.32 -3.75 -1.07 -5 -2 c -1.16 -0.87 -1.9 -2.9 -3 -4 c -0.8 -0.8 -3.09 -2.03 -3 -2 c 0.39 0.11 9.57 2.97 14 5 c 3.48 1.59 6.6 4.3 10 6 c 1.84 0.92 3.95 1.63 6 2 c 7.2 1.29 22 3 22 3"/></svg>