<?xml version="1.0" encoding="UTF-8" standalone="no"?><!DOCTYPE svg PUBLIC "-//W3C//DTD SVG 1.1//EN" "http://www.w3.org/Graphics/SVG/1.1/DTD/svg11.dtd"><svg xmlns="http://www.w3.org/2000/svg" version="1.1" width="182" height="192"><path fill="none" stroke="#000000" stroke-width="2" stroke-linecap="round" stroke-linejoin="round" d="M 25 35 c 0.12 0.28 4.3 11.02 7 16 c 1.54 2.85 6 8 6 8"/><path fill="none" stroke="#000000" stroke-width="2" stroke-linecap="round" stroke-linejoin="round" d="M 7 106 c 0.09 0.07 3.29 3.6 5 4 c 3.21 0.76 8.42 0.9 12 0 c 6.43 -1.61 20 -8 20 -8"/><path fill="none" stroke="#000000" stroke-width="2" stroke-linecap="round" stroke-linejoin="round" d="M 1 156 c 0.12 -0.05 5.02 -1.58 7 -3 c 8.32 -5.98 16.27 -13.4 25 -20 c 5.3 -4 16 -11 16 -11"/><path fill="none" stroke="#000000" stroke-width="2" stroke-linecap="round" stroke-linejoin="round" d="M 85 15 c 0.14 0.14 5.26 6.85 8 8 c 2.66 1.12 11 0 11 0"/><path fill="none" stroke="#000000" stroke-width="2" stroke-linecap="round" stroke-linejoin="round" d="M 159 1 c -0.16 0.07 -6.3 2.22 -9 4 c -14.74 9.73 -44 31 -44 31"/><path fill="none" stroke="#000000" stroke-width="2" stroke-linecap="round" stroke-linejoin="round" d="M 90 52 c 0.14 -0.05 5.22 -2.32 8 -3 c 17.67 -4.34 53 -12 53 -12"/><path fill="none" stroke="#000000" stroke-width="2" stroke-linecap="round" stroke-linejoin="round" d="M 70 92 c 0.4 -0.11 15.29 -3.48 23 -6 c 24.72 -8.07 72 -25 72 -25"/><path fill="none" stroke="#000000" stroke-width="2" stroke-linecap="round" stroke-linejoin="round" d="M 65 130 c 0.37 -0.17 13.63 -6.95 21 -10 c 28.28 -11.69 55.56 -21.45 83 -33 c 4.27 -1.8 12 -7 12 -7"/><path fill="none" stroke="#000000" stroke-width="2" stroke-linecap="round" stroke-linejoin="round" d="M 124 51 c 0.02 0.09 1 3.34 1 5 c 0 12.03 1.54 25.52 -1 37 c -4.84 21.87 -14.55 43.79 -22 67 c -1.54 4.79 -3.08 9.25 -4 14 c -1.08 5.58 -2 17 -2 17"/></svg>