<?xml version="1.0" encoding="UTF-8" standalone="no"?><!DOCTYPE svg PUBLIC "-//W3C//DTD SVG 1.1//EN" "http://www.w3.org/Graphics/SVG/1.1/DTD/svg11.dtd"><svg xmlns="http://www.w3.org/2000/svg" version="1.1" width="143" height="184"><path fill="none" stroke="#000000" stroke-width="2" stroke-linecap="round" stroke-linejoin="round" d="M 6 10 c 0.07 0.02 2.8 0.45 4 1 c 2.34 1.07 4.91 2.48 7 4 c 1.47 1.07 4 4 4 4"/><path fill="none" stroke="#000000" stroke-width="2" stroke-linecap="round" stroke-linejoin="round" d="M 1 54 c 0.16 0.05 6.14 1.71 9 3 c 3.77 1.7 7.65 3.84 11 6 c 1.14 0.73 3 3 3 3"/><path fill="none" stroke="#000000" stroke-width="2" stroke-linecap="round" stroke-linejoin="round" d="M 1 134 c 0.09 -0.14 3.02 -5.54 5 -8 c 10.41 -12.94 32 -38 32 -38"/><path fill="none" stroke="#000000" stroke-width="2" stroke-linecap="round" stroke-linejoin="round" d="M 59 1 c 0.03 0.09 1.7 3.37 2 5 c 0.33 1.82 -0.33 4.18 0 6 c 0.3 1.63 1.02 3.87 2 5 c 1.07 1.22 5 3 5 3"/><path fill="none" stroke="#000000" stroke-width="2" stroke-linecap="round" stroke-linejoin="round" d="M 130 1 c -0.47 0.23 -18.1 8.13 -27 13 c -9.07 4.96 -17.26 10.93 -26 16 c -1.54 0.89 -5 2 -5 2"/><path fill="none" stroke="#000000" stroke-width="2" stroke-linecap="round" stroke-linejoin="round" d="M 56 43 c 0.11 0.02 4.03 1 6 1 c 4.87 0 10.09 -0.13 15 -1 c 10.07 -1.79 19.88 -5.03 30 -7 c 3.63 -0.71 11 -1 11 -1"/><path fill="none" stroke="#000000" stroke-width="2" stroke-linecap="round" stroke-linejoin="round" d="M 57 79 c 0.18 -0.04 6.68 -1.04 10 -2 c 17.7 -5.14 52 -16 52 -16"/><path fill="none" stroke="#000000" stroke-width="2" stroke-linecap="round" stroke-linejoin="round" d="M 46 128 c 0.26 -0.16 9.75 -6.3 15 -9 c 7.25 -3.72 14.36 -7.15 22 -10 c 12.3 -4.59 24.92 -7.29 37 -12 c 7.64 -2.98 22 -11 22 -11"/><path fill="none" stroke="#000000" stroke-width="2" stroke-linecap="round" stroke-linejoin="round" d="M 96 46 c -0.03 0.09 -1.95 3.34 -2 5 c -0.57 18.45 0.57 41.16 0 60 c -0.06 1.99 -1.85 4 -2 6 c -0.81 10.77 -0.5 22.28 -1 34 c -0.19 4.49 -0.41 8.68 -1 13 c -0.42 3.05 -1.69 6.01 -2 9 c -0.34 3.24 0 10 0 10"/></svg>