<?xml version="1.0" encoding="UTF-8" standalone="no"?><!DOCTYPE svg PUBLIC "-//W3C//DTD SVG 1.1//EN" "http://www.w3.org/Graphics/SVG/1.1/DTD/svg11.dtd"><svg xmlns="http://www.w3.org/2000/svg" version="1.1" width="320" height="158"><path fill="none" stroke="#000000" stroke-width="2" stroke-linecap="round" stroke-linejoin="round" d="M 1 24 c 0.18 -0.16 6.55 -6.7 10 -9 c 2.19 -1.46 5.25 -2.25 8 -3 c 4.61 -1.26 9.37 -2.34 14 -3 c 2.26 -0.32 5.24 -0.53 7 0 c 1.07 0.32 2.52 1.91 3 3 c 0.69 1.56 0.93 3.98 1 6 c 0.26 7.29 0.29 14.43 0 22 c -0.75 19.63 -1.71 37.4 -3 57 c -0.43 6.56 -1.74 12.54 -2 19 c -0.42 10.48 0.6 29.79 0 31 c -0.36 0.72 -4.85 -11.14 -7 -17 c -1.59 -4.34 -2.22 -8.89 -4 -13 c -2.52 -5.81 -6.25 -11.25 -9 -17 c -0.9 -1.89 -2.36 -4.55 -2 -6 c 0.45 -1.79 3.12 -4.7 5 -6 c 2.05 -1.42 5.41 -2.81 8 -3 c 6.08 -0.43 13.54 0.28 20 1 c 2.35 0.26 4.87 1.15 7 2 c 1.06 0.42 2.7 1.19 3 2 c 0.51 1.35 0.61 4.3 0 6 c -2.14 5.95 -5.37 13.03 -9 19 c -6.7 11.02 -14.26 21.52 -22 32 c -2.68 3.63 -8.64 8.8 -9 10 c -0.16 0.54 4.08 0.36 6 0 c 8.52 -1.6 17.19 -3.63 26 -6 c 8.98 -2.42 23.56 -7.79 26 -8 l -3 6"/><path fill="none" stroke="#000000" stroke-width="2" stroke-linecap="round" stroke-linejoin="round" d="M 98 59 c -0.04 0.19 -1.7 7.26 -2 11 c -1.05 13.07 -2 39 -2 39"/><path fill="none" stroke="#000000" stroke-width="2" stroke-linecap="round" stroke-linejoin="round" d="M 112 29 c 0.07 0.93 4.17 35.4 4 53 c -0.17 17.63 -3.5 34.99 -5 53 c -0.2 2.37 -0.47 4.97 0 7 c 0.45 1.95 3 6 3 6"/><path fill="none" stroke="#000000" stroke-width="2" stroke-linecap="round" stroke-linejoin="round" d="M 134 81 l 6 14"/><path fill="none" stroke="#000000" stroke-width="2" stroke-linecap="round" stroke-linejoin="round" d="M 131 36 c 0.18 -0.04 6.66 -1.79 10 -2 c 7.2 -0.45 14.75 0.56 22 0 c 5.69 -0.44 11.57 -1.64 17 -3 c 2.4 -0.6 6.94 -3.62 7 -3 c 0.12 1.16 -3.29 9.3 -6 13 c -7.93 10.81 -17.97 20.76 -27 32 c -7.85 9.77 -15.28 19.48 -22 29 c -0.99 1.41 -2 4.88 -2 5 l 2 -3"/><path fill="none" stroke="#000000" stroke-width="2" stroke-linecap="round" stroke-linejoin="round" d="M 168 80 l 3 75"/><path fill="none" stroke="#000000" stroke-width="2" stroke-linecap="round" stroke-linejoin="round" d="M 175 81 c 0.58 0.53 22.07 19.61 33 30 c 2.95 2.81 8 9 8 9"/><path fill="none" stroke="#000000" stroke-width="2" stroke-linecap="round" stroke-linejoin="round" d="M 240 31 c 0.37 -0.1 13.87 -4.57 21 -6 c 7.89 -1.58 24 -3 24 -3"/><path fill="none" stroke="#000000" stroke-width="2" stroke-linecap="round" stroke-linejoin="round" d="M 229 42 c -0.11 0.46 -3.47 17.3 -6 26 c -3.59 12.37 -12 36 -12 36"/><path fill="none" stroke="#000000" stroke-width="2" stroke-linecap="round" stroke-linejoin="round" d="M 224 55 c 0.19 0.04 7.56 1.08 11 2 c 1.38 0.37 3 1.16 4 2 c 0.81 0.67 2.11 2.1 2 3 c -0.42 3.39 -2.25 8.97 -4 13 c -1.5 3.45 -6 10 -6 10"/><path fill="none" stroke="#000000" stroke-width="2" stroke-linecap="round" stroke-linejoin="round" d="M 251 4 c 0.16 0.45 6.31 16.96 9 26 c 5.88 19.77 10.13 38.36 16 58 c 1.97 6.61 4.49 12.44 7 19 c 2 5.24 3.64 10.28 6 15 c 1.58 3.16 3.74 6.39 6 9 c 1.93 2.23 7 6 7 6"/><path fill="none" stroke="#000000" stroke-width="2" stroke-linecap="round" stroke-linejoin="round" d="M 286 69 c -0.14 0.28 -5.66 10.44 -8 16 c -3.06 7.28 -8 22 -8 22"/><path fill="none" stroke="#000000" stroke-width="2" stroke-linecap="round" stroke-linejoin="round" d="M 286 1 l 6 15"/><path fill="none" stroke="#000000" stroke-width="2" stroke-linecap="round" stroke-linejoin="round" d="M 209 112 c 0.04 0.14 1 5.51 2 8 c 1.62 4.06 6 12 6 12"/><path fill="none" stroke="#000000" stroke-width="2" stroke-linecap="round" stroke-linejoin="round" d="M 222 106 c 0.23 -0.09 8.68 -3.87 13 -5 c 3.11 -0.81 6.59 -0.93 10 -1 c 13.55 -0.27 27.1 0.29 40 0 c 1.33 -0.03 3.38 -1.37 4 -1 c 0.62 0.37 1.53 3.07 1 4 c -6.09 10.72 -18.45 27.41 -26 40 l -1 5"/><path fill="none" stroke="#000000" stroke-width="2" stroke-linecap="round" stroke-linejoin="round" d="M 237 105 c -0.04 0.25 -2.31 9.76 -2 14 c 0.3 4.08 4 13 4 13"/><path fill="none" stroke="#000000" stroke-width="2" stroke-linecap="round" stroke-linejoin="round" d="M 260 109 c -0.04 0.3 -1.04 11.48 -2 17 c -0.35 2.04 -1.24 3.97 -2 6 c -1.3 3.46 -2.3 7.54 -4 10 c -0.92 1.33 -5 3 -5 3"/><path fill="none" stroke="#000000" stroke-width="2" stroke-linecap="round" stroke-linejoin="round" d="M 185 149 c 0.58 -0.02 21.73 -1.23 33 -1 c 21.52 0.45 41.45 2.57 63 3 c 12.99 0.26 38 -1 38 -1"/></svg>