<?xml version="1.0" encoding="UTF-8" standalone="no"?><!DOCTYPE svg PUBLIC "-//W3C//DTD SVG 1.1//EN" "http://www.w3.org/Graphics/SVG/1.1/DTD/svg11.dtd"><svg xmlns="http://www.w3.org/2000/svg" version="1.1" width="266" height="122"><path fill="none" stroke="#000000" stroke-width="2" stroke-linecap="round" stroke-linejoin="round" d="M 1 106 c 0.42 -0.16 15.69 -6.64 24 -9 c 19.02 -5.4 37.34 -9.97 57 -14 c 22.08 -4.52 42.82 -8.1 65 -11 c 14.16 -1.85 27.49 -2.39 42 -3 c 26.2 -1.11 70.34 -2.24 76 -2 c 0.58 0.02 -3.78 3.71 -6 5 c -13.58 7.92 -27.36 15.59 -42 23 c -13.81 6.99 -27.3 13.75 -41 19 c -5.89 2.26 -12.51 2.97 -19 4 c -6.39 1.01 -12.66 1.82 -19 2 c -5.65 0.16 -17 -1 -17 -1"/><path fill="none" stroke="#000000" stroke-width="2" stroke-linecap="round" stroke-linejoin="round" d="M 38 73 c 0.14 0.26 5.27 10.79 8 15 c 0.58 0.89 2.21 2.23 3 2 c 2.76 -0.79 7.88 -3.44 11 -6 c 9.52 -7.81 18.48 -17.6 28 -26 c 1.8 -1.58 6 -4.53 6 -4 c 0 1.4 -3.42 12.29 -6 18 c -3.72 8.22 -8.25 16.23 -13 24 c -2.61 4.27 -5.77 8.17 -9 12 c -2.13 2.53 -4.68 5.31 -7 7 c -0.97 0.7 -3.62 1.48 -4 1 c -0.55 -0.69 -0.37 -4.15 0 -6 c 0.58 -2.92 1.57 -6.46 3 -9 c 1.39 -2.47 4.21 -5.92 6 -7 c 0.8 -0.48 3.42 0.23 4 1 c 1.02 1.36 1.15 4.87 2 7 c 0.42 1.06 1.22 2.22 2 3 c 0.78 0.78 2 1.75 3 2 c 1.38 0.34 3.7 0.54 5 0 c 2.23 -0.93 5.02 -3.02 7 -5 c 5.87 -5.87 12.57 -15.2 17 -19 c 0.72 -0.61 3.02 1.36 4 1 c 2.05 -0.75 5.52 -5.25 7 -5 c 1.48 0.25 3.45 5.97 5 7 c 0.74 0.5 3.28 -0.15 4 -1 c 4.01 -4.72 10.49 -16.49 13 -19 c 0.46 -0.46 2.81 1.9 3 3 c 0.64 3.62 -0.25 9.49 0 14 c 0.07 1.33 0.54 4.13 1 4 c 0.94 -0.27 4.27 -3.88 6 -6 c 1.19 -1.46 1.78 -3.78 3 -5 c 1.22 -1.22 4.4 -3.6 5 -3 c 1.16 1.16 1.7 9.84 3 11 c 0.77 0.68 5.16 -1.41 6 -3 c 4.44 -8.42 11.38 -30.37 13 -33 c 0.35 -0.56 2.57 4.72 3 7 c 0.51 2.7 0.25 5.99 0 9 c -0.42 5.06 -0.87 10.71 -2 15 c -0.37 1.42 -1.87 2.87 -3 4 c -1.13 1.13 -3.59 3.31 -4 3 c -0.5 -0.37 -0.33 -4.11 0 -6 c 0.63 -3.6 1.49 -7.58 3 -11 c 4.74 -10.73 11.01 -20.91 16 -32 c 4.2 -9.33 11.04 -28.56 11 -28 c -0.1 1.28 -8.96 44.48 -14 67 c -0.7 3.12 -2.45 5.99 -3 9 c -0.75 4.14 -1.22 9.11 -1 13 c 0.09 1.61 1.15 4.91 2 5 c 1.28 0.14 6.41 -2.01 7 -4 c 5.76 -19.43 10.5 -51.51 17 -77 c 1.85 -7.27 7.29 -19.65 8 -21 c 0.13 -0.25 1 2.78 1 4 c 0 1.22 -0.52 2.7 -1 4 c -1.87 5.08 -5.65 12.04 -6 15 c -0.1 0.82 2.69 1.76 4 2 c 2.05 0.37 6.58 -0.85 7 0 c 0.52 1.03 -1.76 5.73 -3 8 c -0.61 1.13 -3.32 2.92 -3 3 c 0.83 0.21 7.82 -1.21 11 -1 c 1.29 0.09 4.33 1.42 4 2 c -1.83 3.21 -11 12.51 -16 19 c -1.62 2.11 -3.7 4.92 -4 7 c -0.27 1.88 0.49 5.99 2 7 c 4.93 3.29 14.55 5.77 22 9 c 2.8 1.21 5.63 2.49 8 4 c 1.12 0.72 2.39 1.93 3 3 c 0.59 1.04 1.42 2.98 1 4 c -2.08 5.07 -6.28 12.42 -10 18 c -2.17 3.26 -5.26 6.68 -8 9 c -1.23 1.04 -3.32 1.64 -5 2 c -2.83 0.61 -6.05 1.15 -9 1 c -9.83 -0.5 -19.7 -1.68 -30 -3 c -13.82 -1.78 -37.59 -5.34 -40 -6 c -0.45 -0.12 4.57 -2.38 7 -3 c 10.44 -2.68 20.96 -4.84 32 -7 c 6.48 -1.27 12.44 -2.2 19 -3 c 10.28 -1.26 19.8 -2.36 30 -3 l 18 0"/></svg>