<?xml version="1.0" encoding="UTF-8" standalone="no"?><!DOCTYPE svg PUBLIC "-//W3C//DTD SVG 1.1//EN" "http://www.w3.org/Graphics/SVG/1.1/DTD/svg11.dtd"><svg xmlns="http://www.w3.org/2000/svg" version="1.1" width="270" height="236"><path fill="none" stroke="#000000" stroke-width="2" stroke-linecap="round" stroke-linejoin="round" d="M 9 55 c 0.39 -0.19 15.12 -6.64 22 -11 c 10.4 -6.6 20.88 -14.88 30 -22 c 0.88 -0.69 2 -3 2 -3"/><path fill="none" stroke="#000000" stroke-width="2" stroke-linecap="round" stroke-linejoin="round" d="M 48 4 c 0.25 0.77 9.88 28.9 14 44 c 3.01 11.03 7 33 7 33"/><path fill="none" stroke="#000000" stroke-width="2" stroke-linecap="round" stroke-linejoin="round" d="M 53 53 c -0.23 0.35 -8.11 13.77 -13 20 c -6.1 7.76 -12.91 14.73 -20 22 c -6.24 6.4 -19 18 -19 18"/><path fill="none" stroke="#000000" stroke-width="2" stroke-linecap="round" stroke-linejoin="round" d="M 52 41 c 0.09 0.03 3.28 1.6 5 2 c 6.84 1.58 13.81 3.09 21 4 c 11.47 1.46 34 3 34 3"/><path fill="none" stroke="#000000" stroke-width="2" stroke-linecap="round" stroke-linejoin="round" d="M 65 86 c 0.16 -0.09 5.95 -3.88 9 -5 c 3.02 -1.11 7.94 -2.34 10 -2 c 0.9 0.15 1.71 2.65 2 4 c 0.65 3.04 -0.15 7.42 1 10 c 1.21 2.73 4.45 5.61 7 8 c 2.73 2.56 6.55 4.39 9 7 c 2.32 2.48 5.31 6.4 6 9 c 0.41 1.52 -1.06 4.28 -2 6 c -0.95 1.75 -2.54 3.54 -4 5 c -1.14 1.14 -2.57 2.23 -4 3 c -2.82 1.52 -5.96 3.17 -9 4 c -4.07 1.11 -8.92 1.77 -13 2 c -1.58 0.09 -4.13 -0.13 -5 -1 c -1.3 -1.3 -2.72 -4.79 -3 -7 c -0.33 -2.63 0.23 -6.25 1 -9 c 0.83 -3 2.28 -6.41 4 -9 c 2.11 -3.16 5 -6.43 8 -9 c 6.22 -5.33 20 -15 20 -15"/><path fill="none" stroke="#000000" stroke-width="2" stroke-linecap="round" stroke-linejoin="round" d="M 122 32 c 0.47 -0.16 17.83 -6.27 27 -9 c 3.29 -0.98 10 -2 10 -2"/><path fill="none" stroke="#000000" stroke-width="2" stroke-linecap="round" stroke-linejoin="round" d="M 146 51 c 0.11 -0.05 4.18 -1.76 6 -3 c 4.45 -3.04 13 -10 13 -10"/><path fill="none" stroke="#000000" stroke-width="2" stroke-linecap="round" stroke-linejoin="round" d="M 136 84 c 0.51 -0.46 19.47 -17 29 -26 c 2.6 -2.46 4.48 -5.48 7 -8 c 2.52 -2.52 8 -7 8 -7"/><path fill="none" stroke="#000000" stroke-width="2" stroke-linecap="round" stroke-linejoin="round" d="M 142 4 c 0.09 0.23 3.63 8.49 5 13 c 3.37 11.09 6.29 21.89 9 33 c 0.64 2.62 0.4 5.36 1 8 c 1.76 7.78 4.33 15.07 6 23 c 2.43 11.52 6 34 6 34"/><path fill="none" stroke="#000000" stroke-width="2" stroke-linecap="round" stroke-linejoin="round" d="M 187 1 l -3 31"/><path fill="none" stroke="#000000" stroke-width="2" stroke-linecap="round" stroke-linejoin="round" d="M 185 14 c 0.28 -0.09 10.56 -3.64 16 -5 c 3.95 -0.99 7.98 -1.63 12 -2 c 3.3 -0.3 8.1 -0.69 10 0 c 0.78 0.29 1 2.75 1 4 c 0 1.85 -0.45 4.15 -1 6 l -2 4"/><path fill="none" stroke="#000000" stroke-width="2" stroke-linecap="round" stroke-linejoin="round" d="M 186 49 c 0.56 -0.23 21.05 -8.95 32 -13 c 4.62 -1.71 10.64 -3.8 14 -4 c 0.98 -0.06 2.6 1.9 3 3 c 0.76 2.09 1.12 5.43 1 8 c -0.2 4.19 -1.04 9.15 -2 13 l -2 3"/><path fill="none" stroke="#000000" stroke-width="2" stroke-linecap="round" stroke-linejoin="round" d="M 216 43 c -0.03 0.23 -1.03 8.75 -2 13 c -0.7 3.06 -3 9 -3 9"/><path fill="none" stroke="#000000" stroke-width="2" stroke-linecap="round" stroke-linejoin="round" d="M 195 86 c 0.37 -0.23 14.29 -8.18 21 -13 c 6.36 -4.57 12.46 -10.02 18 -15 c 0.85 -0.77 2 -3 2 -3"/><path fill="none" stroke="#000000" stroke-width="2" stroke-linecap="round" stroke-linejoin="round" d="M 202 49 c 0.02 0.21 0.25 8.05 1 12 c 1.92 10.1 3.81 20.86 7 30 c 1.58 4.53 5.06 10.25 8 13 c 1.59 1.49 5.37 1.6 8 2 c 1.59 0.25 3.46 0.37 5 0 c 5.16 -1.23 11.18 -2.66 16 -5 c 5.83 -2.82 12.72 -7.15 17 -11 c 1.61 -1.45 3.3 -5.1 3 -7 c -0.53 -3.36 -4.8 -8.04 -6 -12 c -0.99 -3.26 -1 -11 -1 -11"/><path fill="none" stroke="#000000" stroke-width="2" stroke-linecap="round" stroke-linejoin="round" d="M 125 134 c 0.05 0.07 2.28 2.57 3 4 c 1.54 3.09 4 10 4 10"/><path fill="none" stroke="#000000" stroke-width="2" stroke-linecap="round" stroke-linejoin="round" d="M 150 120 l 2 25"/><path fill="none" stroke="#000000" stroke-width="2" stroke-linecap="round" stroke-linejoin="round" d="M 178 126 l -9 17"/><path fill="none" stroke="#000000" stroke-width="2" stroke-linecap="round" stroke-linejoin="round" d="M 112 192 c 0.42 -0.26 15.6 -10.18 24 -15 c 10.09 -5.8 19.55 -11.08 30 -16 c 12.68 -5.97 38 -16 38 -16"/><path fill="none" stroke="#000000" stroke-width="2" stroke-linecap="round" stroke-linejoin="round" d="M 169 162 c -0.16 0.56 -5.62 21.19 -9 32 c -1.74 5.55 -6 16 -6 16"/><path fill="none" stroke="#000000" stroke-width="2" stroke-linecap="round" stroke-linejoin="round" d="M 182 167 c 0.04 0.18 1.59 6.68 2 10 c 0.24 1.95 -0.36 4.08 0 6 c 1.6 8.52 4.9 23.2 6 26 c 0.17 0.45 2.26 -1.89 3 -3 c 1.17 -1.75 2.1 -3.9 3 -6 c 2.17 -5.06 4.22 -9.85 6 -15 c 1.26 -3.63 3 -11 3 -11"/><path fill="none" stroke="#000000" stroke-width="2" stroke-linecap="round" stroke-linejoin="round" d="M 203 116 c 0.05 0.14 2.34 5.26 3 8 c 1.33 5.53 3 17 3 17"/><path fill="none" stroke="#000000" stroke-width="2" stroke-linecap="round" stroke-linejoin="round" d="M 205 112 c 0.39 -0.12 14.81 -5.8 22 -7 c 6.23 -1.04 13.55 -0.27 20 0 c 1.33 0.06 3.08 0.39 4 1 c 0.8 0.54 1.88 1.98 2 3 c 0.47 3.96 0.38 9.32 0 14 c -0.63 7.76 -3 23 -3 23"/><path fill="none" stroke="#000000" stroke-width="2" stroke-linecap="round" stroke-linejoin="round" d="M 204 153 c 0.6 -0.26 22.38 -10.56 34 -15 c 6.83 -2.61 21 -6 21 -6"/><path fill="none" stroke="#000000" stroke-width="2" stroke-linecap="round" stroke-linejoin="round" d="M 230 123 c -0.09 0.88 -5 42.87 -5 50 c 0 0.72 3.47 -0.38 5 -1 c 7.26 -2.96 22 -10 22 -10"/><path fill="none" stroke="#000000" stroke-width="2" stroke-linecap="round" stroke-linejoin="round" d="M 212 216 c 0.18 -0.16 6.32 -6.63 10 -9 c 10.05 -6.46 21.04 -12.27 32 -18 c 3.88 -2.03 8.48 -3.13 12 -5 c 1.15 -0.61 3 -3 3 -3"/><path fill="none" stroke="#000000" stroke-width="2" stroke-linecap="round" stroke-linejoin="round" d="M 246 155 c 0.02 0.63 0.05 24.17 1 36 c 0.38 4.7 1.63 9.36 3 14 c 3.03 10.24 10 30 10 30"/></svg>