<?xml version="1.0" encoding="UTF-8" standalone="no"?><!DOCTYPE svg PUBLIC "-//W3C//DTD SVG 1.1//EN" "http://www.w3.org/Graphics/SVG/1.1/DTD/svg11.dtd"><svg xmlns="http://www.w3.org/2000/svg" version="1.1" width="197" height="226"><path fill="none" stroke="#000000" stroke-width="2" stroke-linecap="round" stroke-linejoin="round" d="M 135 87 c 0.05 -0.07 1.81 -3.46 3 -4 c 1.91 -0.87 5.47 -0.33 8 -1 c 3.68 -0.97 7.35 -2.42 11 -4 c 6.55 -2.84 19 -9 19 -9"/><path fill="none" stroke="#000000" stroke-width="2" stroke-linecap="round" stroke-linejoin="round" d="M 1 33 c 0.16 0.07 6.25 2.31 9 4 c 5.81 3.58 17 12 17 12"/><path fill="none" stroke="#000000" stroke-width="2" stroke-linecap="round" stroke-linejoin="round" d="M 5 94 c 0.19 0.28 7.71 10.51 11 16 c 1.67 2.78 4 9 4 9"/><path fill="none" stroke="#000000" stroke-width="2" stroke-linecap="round" stroke-linejoin="round" d="M 10 162 c 0.23 -0.16 9.2 -5.46 13 -9 c 10.7 -9.97 31 -32 31 -32"/><path fill="none" stroke="#000000" stroke-width="2" stroke-linecap="round" stroke-linejoin="round" d="M 119 1 c -0.02 0.38 -1.46 16 -1 22 c 0.1 1.36 3 4 3 4"/><path fill="none" stroke="#000000" stroke-width="2" stroke-linecap="round" stroke-linejoin="round" d="M 193 7 c -0.03 0.09 -0.91 3.91 -2 5 c -2.76 2.76 -7.13 5.3 -11 8 c -14.53 10.15 -27.46 19.69 -42 29 c -7.14 4.57 -22 12 -22 12"/><path fill="none" stroke="#000000" stroke-width="2" stroke-linecap="round" stroke-linejoin="round" d="M 73 83 c 0.12 -0.05 4.6 -2.31 7 -3 c 4.52 -1.29 9.47 -1.59 14 -3 c 5.11 -1.59 9.77 -4.19 15 -6 c 12.59 -4.36 24.13 -8.07 37 -12 c 12.05 -3.68 35 -10 35 -10"/><path fill="none" stroke="#000000" stroke-width="2" stroke-linecap="round" stroke-linejoin="round" d="M 99 107 c 0.19 -0.05 7.45 -1.65 11 -3 c 6.13 -2.33 11.81 -5.09 18 -8 c 22.62 -10.63 65 -31 65 -31"/><path fill="none" stroke="#000000" stroke-width="2" stroke-linecap="round" stroke-linejoin="round" d="M 70 154 c 1 -0.58 37.11 -22.37 57 -33 c 19.85 -10.61 39.03 -18.87 59 -29 c 3.54 -1.8 10 -6 10 -6"/><path fill="none" stroke="#000000" stroke-width="2" stroke-linecap="round" stroke-linejoin="round" d="M 162 53 c 0.03 0.1 1.89 4.07 2 6 c 0.2 3.67 0.14 8.29 -1 12 c -6.3 20.53 -14.91 41.46 -22 63 c -1.75 5.32 -2.36 10.6 -4 16 c -4.18 13.78 -10.54 26.84 -13 40 c -2.04 10.95 -1 35 -1 35"/></svg>