<?xml version="1.0" encoding="UTF-8" standalone="no"?><!DOCTYPE svg PUBLIC "-//W3C//DTD SVG 1.1//EN" "http://www.w3.org/Graphics/SVG/1.1/DTD/svg11.dtd"><svg xmlns="http://www.w3.org/2000/svg" version="1.1" width="222" height="125"><path fill="none" stroke="#000000" stroke-width="2" stroke-linecap="round" stroke-linejoin="round" d="M 1 40 l 2 56"/><path fill="none" stroke="#000000" stroke-width="2" stroke-linecap="round" stroke-linejoin="round" d="M 20 28 c -0.05 -0.07 -2.85 -2.95 -3 -4 c -0.11 -0.76 1.11 -2.41 2 -3 c 3.63 -2.42 8.55 -5.25 13 -7 c 4.68 -1.84 10.21 -3.45 15 -4 c 3.41 -0.39 8.18 -0.06 11 1 c 1.8 0.68 3.64 3.25 5 5 c 0.86 1.11 1.44 2.61 2 4 c 0.78 1.96 1.78 3.98 2 6 c 1.07 9.92 1.6 20.36 2 31 c 0.28 7.54 0.33 14.51 0 22 c -0.36 8.2 -0.81 19.05 -2 24 c -0.2 0.85 -2.9 1.29 -4 1 l -11 -5"/><path fill="none" stroke="#000000" stroke-width="2" stroke-linecap="round" stroke-linejoin="round" d="M 14 54 c 0.58 -0.16 22.18 -5.33 33 -9 c 7.93 -2.69 23 -10 23 -10"/><path fill="none" stroke="#000000" stroke-width="2" stroke-linecap="round" stroke-linejoin="round" d="M 52 27 c -0.12 0.19 -5.1 7.2 -7 11 c -1.7 3.41 -2.4 7.45 -4 11 c -1.4 3.12 -3.19 6.06 -5 9 c -0.88 1.43 -1.85 2.85 -3 4 c -2.12 2.12 -7.22 6.04 -7 6 c 0.35 -0.06 8.49 -5.19 13 -7 c 7.06 -2.82 22 -7 22 -7"/><path fill="none" stroke="#000000" stroke-width="2" stroke-linecap="round" stroke-linejoin="round" d="M 27 82 c 0.11 -0.03 4.11 -1.1 6 -2 c 5.08 -2.42 10.08 -5.79 15 -8 c 1.48 -0.66 5 -1.52 5 -1 c 0 1.13 -4.84 8.05 -5 10 c -0.06 0.78 2.84 2.15 4 2 c 3.29 -0.41 12 -4 12 -4"/><path fill="none" stroke="#000000" stroke-width="2" stroke-linecap="round" stroke-linejoin="round" d="M 105 36 l 5 -1"/><path fill="none" stroke="#000000" stroke-width="2" stroke-linecap="round" stroke-linejoin="round" d="M 102 66 c 0.44 -0.16 23.28 -8.91 25 -9 c 0.65 -0.03 -3.8 5.48 -6 8 c -2.49 2.85 -5.82 5.09 -8 8 c -2.68 3.57 -5.46 8.26 -7 12 c -0.55 1.35 -0.59 5 0 5 c 1.22 0 6.18 -3.07 9 -5 c 3.5 -2.4 8.73 -8.13 10 -8 c 0.89 0.09 -0.28 6.03 0 9 c 0.38 4.02 0.7 9.2 2 12 l 5 3"/><path fill="none" stroke="#000000" stroke-width="2" stroke-linecap="round" stroke-linejoin="round" d="M 149 13 c 0.09 -0.03 3.28 -1.62 5 -2 c 7.15 -1.59 14.54 -2.34 22 -4 c 7.93 -1.76 22.2 -5.95 23 -6 c 0.32 -0.02 -5.16 3.55 -8 5 c -14.43 7.35 -28.72 13.71 -43 21 c -2.15 1.1 -4.51 2.51 -6 4 c -0.92 0.92 -2.48 3.73 -2 4 c 0.96 0.55 6.16 0.59 9 0 c 12.69 -2.64 25.61 -6.79 39 -10 c 3.72 -0.89 7.33 -1.63 11 -2 c 2.95 -0.3 6.47 -0.42 9 0 c 1.01 0.17 2.66 1.2 3 2 c 0.47 1.11 0.68 3.73 0 5 c -5.46 10.15 -21 34 -21 34"/><path fill="none" stroke="#000000" stroke-width="2" stroke-linecap="round" stroke-linejoin="round" d="M 174 20 c -0.07 0.03 -3.47 0.95 -4 2 c -2.23 4.45 -4.09 11.81 -6 18 c -0.83 2.69 -1.71 5.31 -2 8 c -0.7 6.54 -1 20 -1 20"/><path fill="none" stroke="#000000" stroke-width="2" stroke-linecap="round" stroke-linejoin="round" d="M 159 49 c -0.07 -0.07 -2.94 -4 -4 -4 c -1.2 0 -5 4 -5 4"/><path fill="none" stroke="#000000" stroke-width="2" stroke-linecap="round" stroke-linejoin="round" d="M 148 51 c 0.05 0.11 1.77 4.42 3 6 c 0.92 1.18 4 3 4 3"/><path fill="none" stroke="#000000" stroke-width="2" stroke-linecap="round" stroke-linejoin="round" d="M 186 42 l -4 8"/><path fill="none" stroke="#000000" stroke-width="2" stroke-linecap="round" stroke-linejoin="round" d="M 170 59 l 1 1"/><path fill="none" stroke="#000000" stroke-width="2" stroke-linecap="round" stroke-linejoin="round" d="M 145 78 c 0.07 -0.03 2.69 -1.74 4 -2 c 1.76 -0.35 4.33 -0.37 6 0 c 1 0.22 3 1.45 3 2 c 0 0.65 -3 2.35 -3 3 l 3 2"/><path fill="none" stroke="#000000" stroke-width="2" stroke-linecap="round" stroke-linejoin="round" d="M 142 78 c -0.12 0.61 -5.38 24.2 -7 35 c -0.23 1.54 1 5 1 5"/><path fill="none" stroke="#000000" stroke-width="2" stroke-linecap="round" stroke-linejoin="round" d="M 144 105 c 0.05 -0.07 1.79 -3.39 3 -4 c 2.24 -1.12 5.89 -1.38 9 -2 c 2.05 -0.41 5.5 -1.25 6 -1 c 0.29 0.15 -2.32 2.76 -2 3 c 0.53 0.39 6 0 6 0"/><path fill="none" stroke="#000000" stroke-width="2" stroke-linecap="round" stroke-linejoin="round" d="M 175 77 c 0.19 -0.05 7.4 -2.37 11 -3 c 1.89 -0.33 5.48 -0.52 6 0 c 0.39 0.39 -1.1 2.92 -2 4 c -2.28 2.73 -5.21 5.45 -8 8 c -1.23 1.13 -2.63 2.32 -4 3 c -1.13 0.56 -4.13 0.87 -4 1 c 0.2 0.2 5.01 0.15 6 1 c 0.83 0.71 0.3 3.6 1 5 c 1.48 2.97 4.52 6.03 6 9 c 0.7 1.4 1.13 3.52 1 5 c -0.17 1.84 -1.11 4.22 -2 6 c -0.7 1.4 -1.83 2.96 -3 4 c -1.68 1.5 -4.22 3.47 -6 4 c -1.02 0.3 -4 -0.44 -4 -1 c 0 -0.99 2.39 -5.36 4 -6 c 2.46 -0.98 7.31 -0.34 11 0 c 11.14 1.01 33 4 33 4"/><path fill="none" stroke="#000000" stroke-width="2" stroke-linecap="round" stroke-linejoin="round" d="M 150 87 l 7 -1"/></svg>