<?xml version="1.0" encoding="UTF-8" standalone="no"?><!DOCTYPE svg PUBLIC "-//W3C//DTD SVG 1.1//EN" "http://www.w3.org/Graphics/SVG/1.1/DTD/svg11.dtd"><svg xmlns="http://www.w3.org/2000/svg" version="1.1" width="265" height="252"><path fill="none" stroke="#000000" stroke-width="2" stroke-linecap="round" stroke-linejoin="round" d="M 1 71 c 0.66 -0.59 24.77 -22.69 38 -34 c 5.55 -4.75 17 -13 17 -13"/><path fill="none" stroke="#000000" stroke-width="2" stroke-linecap="round" stroke-linejoin="round" d="M 26 25 c 0.31 0.52 12.73 19.64 18 30 c 4.06 7.97 6.44 16.79 10 25 c 0.77 1.78 2.38 3.27 3 5 c 0.97 2.73 1.13 6.16 2 9 l 2 4"/><path fill="none" stroke="#000000" stroke-width="2" stroke-linecap="round" stroke-linejoin="round" d="M 43 54 c -0.17 0.35 -6.09 13.56 -10 20 c -8.57 14.14 -17.95 27.72 -27 41 c -0.78 1.15 -3 3 -3 3"/><path fill="none" stroke="#000000" stroke-width="2" stroke-linecap="round" stroke-linejoin="round" d="M 48 56 l 48 15"/><path fill="none" stroke="#000000" stroke-width="2" stroke-linecap="round" stroke-linejoin="round" d="M 49 113 c 0.19 -0.12 7.2 -5.01 11 -7 c 3.14 -1.65 6.8 -3.15 10 -4 c 1.49 -0.4 3.89 -0.47 5 0 c 0.8 0.34 1.78 2 2 3 c 0.37 1.67 -0.33 4.18 0 6 c 0.3 1.63 0.91 3.91 2 5 c 2.46 2.46 6.61 4.96 10 7 c 1.5 0.9 3.61 1.13 5 2 c 1.1 0.69 2.22 1.89 3 3 c 1.48 2.12 2.93 4.66 4 7 c 0.55 1.2 1 2.78 1 4 c 0 1.22 -0.47 2.81 -1 4 c -0.75 1.69 -1.73 3.86 -3 5 c -1.76 1.58 -4.61 3.35 -7 4 c -4.48 1.22 -9.94 1.64 -15 2 c -4.35 0.31 -8.74 0.24 -13 0 c -1.67 -0.09 -3.97 -0.26 -5 -1 c -0.9 -0.65 -2.29 -2.98 -2 -4 c 0.76 -2.67 3.45 -7.3 6 -10 c 8.36 -8.85 18.12 -17.58 28 -26 c 8.48 -7.23 26 -20 26 -20"/><path fill="none" stroke="#000000" stroke-width="2" stroke-linecap="round" stroke-linejoin="round" d="M 129 30 l 22 -10"/><path fill="none" stroke="#000000" stroke-width="2" stroke-linecap="round" stroke-linejoin="round" d="M 129 66 c 0.05 -0.07 1.82 -2.9 3 -4 c 3.36 -3.12 7.21 -6.02 11 -9 c 0.96 -0.76 1.97 -1.61 3 -2 c 1.46 -0.55 5 -1 5 -1"/><path fill="none" stroke="#000000" stroke-width="2" stroke-linecap="round" stroke-linejoin="round" d="M 140 94 c 0.12 -0.14 4.45 -5.45 7 -8 c 4.91 -4.91 9.64 -9.68 15 -14 c 6.74 -5.43 21 -15 21 -15"/><path fill="none" stroke="#000000" stroke-width="2" stroke-linecap="round" stroke-linejoin="round" d="M 143 1 c 0.19 1 6.81 37.37 11 57 c 4.45 20.83 14 60 14 60"/><path fill="none" stroke="#000000" stroke-width="2" stroke-linecap="round" stroke-linejoin="round" d="M 174 15 l 0 19"/><path fill="none" stroke="#000000" stroke-width="2" stroke-linecap="round" stroke-linejoin="round" d="M 180 20 c 0.25 -0.12 9.23 -5.46 14 -7 c 6.22 -2.01 13.36 -3.14 20 -4 c 3.58 -0.46 7.75 -0.43 11 0 c 1.32 0.18 3.22 1.09 4 2 c 0.94 1.1 1.66 3.32 2 5 c 0.63 3.14 1.21 7.12 1 10 l -2 4"/><path fill="none" stroke="#000000" stroke-width="2" stroke-linecap="round" stroke-linejoin="round" d="M 181 59 c 0.16 -0.12 5.81 -4.83 9 -7 c 5.28 -3.59 10.39 -7.2 16 -10 c 8.39 -4.2 18.39 -8.54 26 -11 c 1.38 -0.44 4.12 0.27 5 1 c 0.71 0.59 1 2.69 1 4 c 0 8.29 -0.23 18.53 -1 26 l -2 3"/><path fill="none" stroke="#000000" stroke-width="2" stroke-linecap="round" stroke-linejoin="round" d="M 220 52 l 0 6"/><path fill="none" stroke="#000000" stroke-width="2" stroke-linecap="round" stroke-linejoin="round" d="M 204 90 c 0.37 -0.35 13.66 -13.35 21 -20 c 3.6 -3.26 7.64 -5.88 11 -9 c 1.18 -1.1 3 -4 3 -4"/><path fill="none" stroke="#000000" stroke-width="2" stroke-linecap="round" stroke-linejoin="round" d="M 200 58 c 0.21 0.87 7.92 34.55 12 50 c 0.29 1.08 1.16 2.47 2 3 c 1.48 0.93 4.04 1.67 6 2 c 1.86 0.31 4.18 0.39 6 0 c 2.59 -0.56 5.57 -1.66 8 -3 c 4.1 -2.26 7.94 -5.61 12 -8 c 1.52 -0.89 3.65 -1.01 5 -2 c 3.37 -2.47 7.53 -6.08 10 -9 c 0.76 -0.89 1 -2.73 1 -4 c 0 -2.49 -0.59 -5.25 -1 -8 c -0.62 -4.16 -1.07 -8.26 -2 -12 c -0.34 -1.37 -1.73 -2.63 -2 -4 c -0.99 -4.94 -2 -16 -2 -16"/><path fill="none" stroke="#000000" stroke-width="2" stroke-linecap="round" stroke-linejoin="round" d="M 119 155 c 0.04 0.05 1.62 1.93 2 3 c 1.53 4.33 4 14 4 14"/><path fill="none" stroke="#000000" stroke-width="2" stroke-linecap="round" stroke-linejoin="round" d="M 151 145 l 2 15"/><path fill="none" stroke="#000000" stroke-width="2" stroke-linecap="round" stroke-linejoin="round" d="M 181 137 c -0.09 0.19 -2.82 7.78 -5 11 c -4.63 6.84 -16 20 -16 20"/><path fill="none" stroke="#000000" stroke-width="2" stroke-linecap="round" stroke-linejoin="round" d="M 119 205 c 1.03 -0.82 39.55 -31.87 59 -47 c 1.15 -0.9 4.09 -2.2 4 -2 c -0.22 0.52 -4.97 5.86 -7 9 c -1.59 2.46 -2.75 5.2 -4 8 c -2.87 6.46 -5.5 12.39 -8 19 c -3.33 8.82 -9 26 -9 26"/><path fill="none" stroke="#000000" stroke-width="2" stroke-linecap="round" stroke-linejoin="round" d="M 178 183 c 0.02 0.1 0.43 4.06 1 6 c 1.77 6.06 4.16 16.3 6 18 c 0.89 0.82 4.96 -3.8 7 -6 c 2.22 -2.39 4.29 -5.15 6 -8 c 3.29 -5.49 6.33 -11.39 9 -17 l 1 -4"/><path fill="none" stroke="#000000" stroke-width="2" stroke-linecap="round" stroke-linejoin="round" d="M 201 129 c 0 0.25 -0.38 9.32 0 14 c 0.63 7.76 3 23 3 23"/><path fill="none" stroke="#000000" stroke-width="2" stroke-linecap="round" stroke-linejoin="round" d="M 201 134 c 0.09 -0.07 3.17 -3.02 5 -4 c 6.64 -3.58 15.24 -8.56 21 -10 c 1.89 -0.47 5.31 1.59 7 3 c 1.91 1.59 3.91 4.56 5 7 c 1.44 3.24 2.39 7.24 3 11 c 1.73 10.64 4 32 4 32"/><path fill="none" stroke="#000000" stroke-width="2" stroke-linecap="round" stroke-linejoin="round" d="M 220 172 c 0.26 -0.3 9.89 -11.62 15 -17 c 1.13 -1.19 3.2 -1.89 4 -3 c 0.66 -0.92 1 -2.78 1 -4 c 0 -1.22 -0.5 -3.75 -1 -4 c -0.44 -0.22 -2.47 1.16 -3 2 c -0.93 1.48 -1.5 3.92 -2 6 c -2.21 9.1 -4.1 17.75 -6 27 c -0.49 2.36 -1 4.83 -1 7 c 0 1.27 0.39 4.09 1 4 c 2 -0.31 8.29 -3.62 12 -6 c 4.54 -2.91 9.11 -6.63 13 -10 l 2 -3"/><path fill="none" stroke="#000000" stroke-width="2" stroke-linecap="round" stroke-linejoin="round" d="M 224 227 c 0.16 -0.14 6.1 -5.1 9 -8 c 7.33 -7.33 14.22 -14.32 21 -22 c 3.34 -3.79 9 -12 9 -12"/><path fill="none" stroke="#000000" stroke-width="2" stroke-linecap="round" stroke-linejoin="round" d="M 248 171 c 0.05 0.54 1.39 20.65 3 31 c 1.43 9.19 3.59 17.91 6 27 c 2.01 7.59 7 22 7 22"/></svg>