<?xml version="1.0" encoding="UTF-8" standalone="no"?><!DOCTYPE svg PUBLIC "-//W3C//DTD SVG 1.1//EN" "http://www.w3.org/Graphics/SVG/1.1/DTD/svg11.dtd"><svg xmlns="http://www.w3.org/2000/svg" version="1.1" width="112" height="107"><path fill="none" stroke="#000000" stroke-width="2" stroke-linecap="round" stroke-linejoin="round" d="M 1 55 c 0.68 -0.23 25.74 -9.59 39 -13 c 11.46 -2.94 35 -6 35 -6"/><path fill="none" stroke="#000000" stroke-width="2" stroke-linecap="round" stroke-linejoin="round" d="M 56 10 c -0.05 0.11 -2.28 3.9 -3 6 c -2.6 7.53 -5.61 15.37 -7 23 c -1.21 6.67 -1.11 13.86 -1 21 c 0.23 15.65 2.04 44.38 2 46 c -0.01 0.3 -2.34 -5.25 -3 -8 c -1.66 -6.88 -3.07 -13.81 -4 -21 c -1.44 -11.14 -2.52 -31.91 -3 -33 c -0.25 -0.57 -2.44 11.81 -4 17 c -0.32 1.07 -1.09 2.59 -2 3 c -4.78 2.15 -18 6 -18 6"/><path fill="none" stroke="#000000" stroke-width="2" stroke-linecap="round" stroke-linejoin="round" d="M 4 38 c 0.72 -0.28 26.84 -11.02 41 -16 c 10.07 -3.55 30 -9 30 -9"/><path fill="none" stroke="#000000" stroke-width="2" stroke-linecap="round" stroke-linejoin="round" d="M 26 30 c 0.32 -0.09 12.15 -2.93 18 -5 c 4.48 -1.59 8.48 -4.27 13 -6 c 6.98 -2.67 13.95 -4.31 21 -7 c 7.27 -2.77 21 -9 21 -9"/><path fill="none" stroke="#000000" stroke-width="2" stroke-linecap="round" stroke-linejoin="round" d="M 70 1 c -0.05 0.67 -2.39 25.01 -3 38 c -0.42 8.86 0.28 17.61 0 26 c -0.04 1.33 -1 4 -1 4"/><path fill="none" stroke="#000000" stroke-width="2" stroke-linecap="round" stroke-linejoin="round" d="M 55 26 c -0.42 0.66 -15.3 25.78 -24 38 c -5.35 7.52 -11.88 14.63 -18 21 c -1.6 1.66 -6 4 -6 4"/><path fill="none" stroke="#000000" stroke-width="2" stroke-linecap="round" stroke-linejoin="round" d="M 54 43 c 0.4 -0.05 15.44 -2.57 23 -3 c 3.92 -0.22 7.82 0.62 12 1 c 3.48 0.32 7.04 0.06 10 1 c 3.96 1.26 12 6 12 6"/></svg>