<?xml version="1.0" encoding="UTF-8" standalone="no"?><!DOCTYPE svg PUBLIC "-//W3C//DTD SVG 1.1//EN" "http://www.w3.org/Graphics/SVG/1.1/DTD/svg11.dtd"><svg xmlns="http://www.w3.org/2000/svg" version="1.1" width="193" height="176"><path fill="none" stroke="#000000" stroke-width="2" stroke-linecap="round" stroke-linejoin="round" d="M 4 10 l 9 32"/><path fill="none" stroke="#000000" stroke-width="2" stroke-linecap="round" stroke-linejoin="round" d="M 43 7 c -0.09 0.26 -2.9 10.2 -5 15 c -2.56 5.84 -5.67 11.4 -9 17 c -3.12 5.25 -6.3 10.22 -10 15 c -4.37 5.64 -14.55 16.13 -14 16 c 0.86 -0.2 17.64 -12.83 27 -19 c 4.57 -3.01 9.17 -5.84 14 -8 c 4.73 -2.12 13.37 -5.13 15 -5 c 0.65 0.05 -0.88 4.45 -2 6 c -2.89 4 -7.03 8.17 -11 12 c -5.87 5.66 -11.63 10.71 -18 16 c -9.79 8.12 -29 22.31 -29 23 c 0 0.61 19.15 -11.3 29 -16 c 4.7 -2.25 9.98 -3.69 15 -5 c 2.56 -0.67 6.89 -1.87 8 -1 c 1.11 0.87 1.77 5.98 1 8 c -1.51 3.97 -5.67 8.84 -9 13 c -4.77 5.96 -9.65 11.47 -15 17 c -5.18 5.35 -17.1 15.1 -16 15 c 3.2 -0.28 41.4 -12.47 61 -19 l 5 -3"/><path fill="none" stroke="#000000" stroke-width="2" stroke-linecap="round" stroke-linejoin="round" d="M 37 66 l 8 96"/><path fill="none" stroke="#000000" stroke-width="2" stroke-linecap="round" stroke-linejoin="round" d="M 132 6 c 0 0.14 -0.43 5.43 0 8 c 1.21 7.23 5 22 5 22"/><path fill="none" stroke="#000000" stroke-width="2" stroke-linecap="round" stroke-linejoin="round" d="M 184 1 c -0.4 0.53 -14.81 20.05 -23 30 c -6.14 7.45 -12.31 13.9 -19 21 c -4.68 4.96 -9.06 9.44 -14 14 c -3.9 3.6 -11.88 9.76 -12 10 c -0.11 0.21 7.11 -5.54 11 -8 c 6.28 -3.98 12.4 -7.51 19 -11 c 4.98 -2.63 9.86 -5.05 15 -7 c 4.52 -1.72 14.29 -4.77 14 -4 c -0.56 1.5 -12.91 13.66 -20 20 c -5.71 5.11 -11.72 9.81 -18 14 c -4.68 3.12 -10.2 5.12 -15 8 c -1.81 1.09 -5.31 4.05 -5 4 c 1.9 -0.29 25.6 -6.46 38 -9 c 1.91 -0.39 6 -0.69 6 0 c 0 1.34 -3.6 7.1 -6 10 c -3.78 4.57 -8.37 8.89 -13 13 c -4.48 3.98 -9.12 7.54 -14 11 c -3.2 2.26 -6.69 4.35 -10 6 c -1.17 0.58 -4.07 1.03 -4 1 c 0.64 -0.25 24.29 -9.61 37 -14 c 6 -2.07 12 -4.12 18 -5 c 7.4 -1.08 23 -1 23 -1"/><path fill="none" stroke="#000000" stroke-width="2" stroke-linecap="round" stroke-linejoin="round" d="M 149 72 c 0.03 0.4 1.81 15.14 2 23 c 0.49 20.75 -0.82 41.65 0 61 c 0.14 3.31 2.29 6.63 3 10 c 0.62 2.92 1 9 1 9"/></svg>