<?xml version="1.0" encoding="UTF-8" standalone="no"?><!DOCTYPE svg PUBLIC "-//W3C//DTD SVG 1.1//EN" "http://www.w3.org/Graphics/SVG/1.1/DTD/svg11.dtd"><svg xmlns="http://www.w3.org/2000/svg" version="1.1" width="311" height="186"><path fill="none" stroke="#000000" stroke-width="2" stroke-linecap="round" stroke-linejoin="round" d="M 9 16 c 0.09 0 3.38 0.26 5 0 c 6.61 -1.06 13.7 -3.61 20 -4 c 3.76 -0.23 9.02 0.6 12 2 c 1.91 0.9 5 6 5 6"/><path fill="none" stroke="#000000" stroke-width="2" stroke-linecap="round" stroke-linejoin="round" d="M 52 17 c -0.16 0.21 -6.79 7.98 -9 12 c -1.21 2.21 -2 8 -2 8"/><path fill="none" stroke="#000000" stroke-width="2" stroke-linecap="round" stroke-linejoin="round" d="M 10 49 c 0.24 -0.07 9.29 -3.02 14 -4 c 3.25 -0.68 6.68 -0.38 10 -1 c 7.46 -1.4 14.79 -3.66 22 -5 c 1.6 -0.3 5 0 5 0"/><path fill="none" stroke="#000000" stroke-width="2" stroke-linecap="round" stroke-linejoin="round" d="M 27 55 c -0.1 0.58 -3.57 22.06 -6 33 c -0.92 4.13 -4.41 12.25 -4 12 c 0.74 -0.44 9.12 -12.39 14 -18 c 1.67 -1.92 3.95 -4.06 6 -5 c 1.85 -0.85 5.44 -1.47 7 -1 c 1.11 0.33 2.54 2.61 3 4 c 0.74 2.23 1.16 5.4 1 8 c -0.49 8.11 -1.12 17.01 -3 25 c -2.06 8.74 -5.65 17.4 -9 26 c -1.36 3.5 -3.01 7.01 -5 10 c -1.9 2.84 -4.5 5.5 -7 8 c -1.84 1.84 -3.89 3.6 -6 5 c -1.81 1.21 -4.15 2.69 -6 3 c -1.68 0.28 -4.71 -0.06 -6 -1 l -5 -7"/><path fill="none" stroke="#000000" stroke-width="2" stroke-linecap="round" stroke-linejoin="round" d="M 48 91 c 0.32 -0.14 12 -6.18 18 -8 c 4.61 -1.4 10.03 -1.1 15 -2 c 2.39 -0.43 4.88 -1 7 -2 c 4.04 -1.92 9.09 -4.5 12 -7 c 1.13 -0.97 2 -5 2 -5"/><path fill="none" stroke="#000000" stroke-width="2" stroke-linecap="round" stroke-linejoin="round" d="M 84 48 c -0.05 0.04 -2.52 1.14 -3 2 c -0.96 1.73 -1.61 4.59 -2 7 c -3.64 22.75 -5.79 45.04 -10 68 c -2.59 14.1 -9.38 36.97 -10 41 c -0.07 0.43 2.98 -1.1 4 -2 c 1.77 -1.58 3.55 -3.82 5 -6 c 6.61 -9.91 12.81 -19.51 19 -30 c 6.16 -10.44 12.44 -20.5 17 -31 c 2.94 -6.77 6 -22 6 -22"/><path fill="none" stroke="#000000" stroke-width="2" stroke-linecap="round" stroke-linejoin="round" d="M 116 36 c -0.28 0.49 -9.99 18.92 -16 28 c -8.53 12.9 -24.93 34.54 -27 37 c -0.23 0.27 -0.62 -4.38 0 -5 c 0.62 -0.62 3.61 -0.42 5 0 c 1.62 0.49 3.93 1.59 5 3 c 12.99 17.23 27.01 39.62 41 58 c 2.65 3.48 6.8 5.8 10 9 c 2.53 2.53 4.74 6.5 7 8 l 5 0"/><path fill="none" stroke="#000000" stroke-width="2" stroke-linecap="round" stroke-linejoin="round" d="M 143 38 c 0.09 0.23 3.98 8.57 5 13 c 1.93 8.36 2.95 17.3 4 26 c 0.28 2.31 0 7 0 7"/><path fill="none" stroke="#000000" stroke-width="2" stroke-linecap="round" stroke-linejoin="round" d="M 125 99 c 0.3 -0.26 10.99 -10.99 17 -15 c 5.58 -3.72 12.76 -5.67 19 -9 c 3.87 -2.06 11 -7 11 -7"/><path fill="none" stroke="#000000" stroke-width="2" stroke-linecap="round" stroke-linejoin="round" d="M 148 100 c -0.05 0.11 -2.73 3.97 -3 6 c -1.28 9.71 -2 32 -2 32"/><path fill="none" stroke="#000000" stroke-width="2" stroke-linecap="round" stroke-linejoin="round" d="M 162 97 c 0.04 0.14 1.85 5.44 2 8 c 0.17 2.81 -0.29 6.16 -1 9 c -0.92 3.67 -2.24 7.83 -4 11 c -1.39 2.5 -6 7 -6 7"/><path fill="none" stroke="#000000" stroke-width="2" stroke-linecap="round" stroke-linejoin="round" d="M 132 149 c 0.09 0 3.42 0.34 5 0 c 10.4 -2.25 21.81 -4.6 32 -8 c 5.53 -1.84 11.01 -6.1 16 -8 c 1.39 -0.53 5 0 5 0"/><path fill="none" stroke="#000000" stroke-width="2" stroke-linecap="round" stroke-linejoin="round" d="M 189 79 c 0.4 -0.09 15.19 -3.11 23 -5 c 3.46 -0.84 6.78 -1.75 10 -3 c 2.76 -1.07 5.56 -2.43 8 -4 c 2.13 -1.37 4.19 -3.19 6 -5 c 1.48 -1.48 3.26 -3.21 4 -5 c 1.42 -3.46 3 -12 3 -12"/><path fill="none" stroke="#000000" stroke-width="2" stroke-linecap="round" stroke-linejoin="round" d="M 224 18 c -0.07 0.79 -1.88 29.82 -4 45 c -2.29 16.41 -6.41 31.41 -9 48 c -3.26 20.9 -8 61 -8 61"/><path fill="none" stroke="#000000" stroke-width="2" stroke-linecap="round" stroke-linejoin="round" d="M 226 81 c -0.12 0.16 -4.94 5.76 -7 9 c -7.38 11.59 -13.25 24.53 -21 35 c -4.16 5.63 -10.45 10.18 -16 15 c -2.18 1.89 -5.43 5.13 -7 5 c -1.43 -0.12 -5 -6 -5 -6"/><path fill="none" stroke="#000000" stroke-width="2" stroke-linecap="round" stroke-linejoin="round" d="M 220 81 c 0.05 0.07 2.25 2.54 3 4 c 4.51 8.74 8.3 18.07 13 27 c 2.05 3.89 4.5 7.82 7 11 c 0.96 1.22 4 3 4 3"/><path fill="none" stroke="#000000" stroke-width="2" stroke-linecap="round" stroke-linejoin="round" d="M 267 1 c -0.12 0.44 -4.15 16.82 -7 25 c -2.17 6.21 -4.84 12.43 -8 18 c -2.4 4.24 -5.79 8.15 -9 12 c -1.82 2.18 -5.93 5.87 -6 6 c -0.05 0.1 3.22 -2.9 5 -4 c 2.49 -1.53 5.2 -2.86 8 -4 c 8.03 -3.26 15.72 -6.08 24 -9 c 3.37 -1.19 6.94 -2.59 10 -3 c 1.49 -0.2 3.54 0.45 5 1 c 1.03 0.39 3.2 1.36 3 2 c -1.08 3.42 -5.27 11.86 -9 17 c -13.81 19.02 -29.36 36.88 -44 56 c -1.94 2.53 -3.63 5.27 -5 8 c -0.92 1.83 -2.38 4.62 -2 6 c 0.42 1.55 3.22 4.9 5 5 c 7.83 0.43 20.57 -1.38 31 -3 c 13.66 -2.12 30.67 -5.11 40 -8 l 2 -5"/><path fill="none" stroke="#000000" stroke-width="2" stroke-linecap="round" stroke-linejoin="round" d="M 261 74 c 0.28 -0.09 10.66 -3.81 16 -5 c 3.52 -0.78 7.25 -0.82 11 -1 c 3.4 -0.16 7.05 -0.42 10 0 c 1.32 0.19 3.12 1.12 4 2 c 0.88 0.88 1.88 2.75 2 4 c 0.17 1.69 -0.32 4.14 -1 6 c -4.22 11.54 -10.11 22.91 -14 35 c -5.56 17.27 -9.02 34.71 -14 52 c -0.7 2.45 -1.68 4.95 -3 7 c -2.23 3.44 -5.34 7.75 -8 10 c -1.06 0.9 -3.72 1.28 -5 1 l -4 -3"/><path fill="none" stroke="#000000" stroke-width="2" stroke-linecap="round" stroke-linejoin="round" d="M 226 115 c 0.39 -0.04 14.66 -2 22 -2 c 10 0 20.14 2 30 2 c 4.96 0 10.71 -0.87 15 -2 c 1.42 -0.37 4 -3 4 -3"/><path fill="none" stroke="#000000" stroke-width="2" stroke-linecap="round" stroke-linejoin="round" d="M 279 87 c -0.12 0.26 -5.4 9.89 -7 15 c -1.98 6.29 -2.88 13.11 -4 20 c -1.28 7.84 -2.23 15.06 -3 23 c -1.3 13.4 -3 39 -3 39"/></svg>