<?xml version="1.0" encoding="UTF-8" standalone="no"?><!DOCTYPE svg PUBLIC "-//W3C//DTD SVG 1.1//EN" "http://www.w3.org/Graphics/SVG/1.1/DTD/svg11.dtd"><svg xmlns="http://www.w3.org/2000/svg" version="1.1" width="328" height="186"><path fill="none" stroke="#000000" stroke-width="2" stroke-linecap="round" stroke-linejoin="round" d="M 1 17 l 6 -2"/><path fill="none" stroke="#000000" stroke-width="2" stroke-linecap="round" stroke-linejoin="round" d="M 11 62 l 8 -3"/><path fill="none" stroke="#000000" stroke-width="2" stroke-linecap="round" stroke-linejoin="round" d="M 2 15 l 4 -1"/><path fill="none" stroke="#000000" stroke-width="2" stroke-linecap="round" stroke-linejoin="round" d="M 17 66 l 32 -9"/><path fill="none" stroke="#000000" stroke-width="2" stroke-linecap="round" stroke-linejoin="round" d="M 16 12 c 0.47 -0.02 19.12 -2.01 27 -1 c 3.92 0.5 9.33 3.71 12 6 c 1.26 1.08 2.23 4.23 2 6 c -0.65 4.96 -3.06 11.39 -5 17 c -1.08 3.12 -2.38 6.12 -4 9 c -4.43 7.88 -9.3 16.56 -14 23 l -5 3"/><path fill="none" stroke="#000000" stroke-width="2" stroke-linecap="round" stroke-linejoin="round" d="M 24 71 c 0.26 -0.1 9.85 -4.22 15 -6 c 3.63 -1.26 8.1 -2.79 11 -3 c 0.92 -0.07 3 1.32 3 2 c 0 1.27 -1.72 4.23 -3 6 c -3.95 5.43 -8.28 10.96 -13 16 c -5.02 5.36 -11.25 9.8 -16 15 c -2.04 2.24 -5 7.83 -5 8 c 0 0.14 3.14 -4.28 5 -6 c 2.38 -2.2 5.2 -4.35 8 -6 c 2.76 -1.62 6 -3.17 9 -4 c 2.75 -0.77 6.07 -1 9 -1 c 2.61 0 5.98 0.07 8 1 c 1.77 0.82 4.52 3.16 5 5 c 1.22 4.69 1.57 12.53 1 18 c -0.37 3.55 -2.35 7.53 -4 11 c -1.65 3.46 -3.54 7.21 -6 10 c -4.62 5.25 -10.36 10.68 -16 15 c -4.15 3.18 -10.58 7.49 -14 8 l -6 -5"/><path fill="none" stroke="#000000" stroke-width="2" stroke-linecap="round" stroke-linejoin="round" d="M 60 92 c 0.09 -0.07 3.21 -2.98 5 -4 c 2.75 -1.57 5.87 -3.06 9 -4 c 10.17 -3.05 22.84 -5.28 31 -8 l 2 -3"/><path fill="none" stroke="#000000" stroke-width="2" stroke-linecap="round" stroke-linejoin="round" d="M 93 40 c -0.09 0.65 -2.93 24.3 -5 37 c -2.76 16.95 -5.59 32.17 -9 49 c -2.11 10.41 -4.33 20.39 -7 30 c -0.58 2.09 -3.1 6.12 -3 6 c 0.62 -0.73 17.4 -21.53 26 -33 c 3.69 -4.92 6.96 -9.76 10 -15 c 3.02 -5.2 6.02 -10.59 8 -16 c 1.59 -4.33 1.64 -9.52 3 -14 c 0.94 -3.08 4 -9 4 -9"/><path fill="none" stroke="#000000" stroke-width="2" stroke-linecap="round" stroke-linejoin="round" d="M 128 34 c -0.21 0.46 -7.55 17.52 -12 26 c -2.59 4.93 -5.74 9.4 -9 14 c -2.51 3.54 -4.97 7.09 -8 10 c -5.87 5.65 -17.64 13.77 -19 16 c -0.45 0.74 5.89 0.67 8 2 c 6.2 3.91 13.02 9.62 19 15 c 4.02 3.62 7.09 8.09 11 12 c 3.57 3.57 7.57 6.33 11 10 c 11.12 11.9 32 36 32 36"/><path fill="none" stroke="#000000" stroke-width="2" stroke-linecap="round" stroke-linejoin="round" d="M 162 22 c 0.05 0.07 2.65 2.58 3 4 c 1.14 4.57 1.68 10.59 2 16 c 0.36 6.04 0.55 12.15 0 18 c -0.44 4.65 -3 14 -3 14"/><path fill="none" stroke="#000000" stroke-width="2" stroke-linecap="round" stroke-linejoin="round" d="M 141 89 c 0.19 -0.24 6.99 -9.81 11 -14 c 3.2 -3.34 7.11 -6.41 11 -9 c 4.04 -2.69 8.49 -5.05 13 -7 c 5.5 -2.39 17 -6 17 -6"/><path fill="none" stroke="#000000" stroke-width="2" stroke-linecap="round" stroke-linejoin="round" d="M 163 87 c -0.09 0.51 -3.93 19.19 -5 29 c -0.95 8.67 -1 26 -1 26"/><path fill="none" stroke="#000000" stroke-width="2" stroke-linecap="round" stroke-linejoin="round" d="M 175 83 c 0.05 0.04 2.77 1.16 3 2 c 0.57 2.09 0.15 5.94 0 9 c -0.19 3.75 -0.35 7.41 -1 11 c -0.67 3.71 -3 11 -3 11"/><path fill="none" stroke="#000000" stroke-width="2" stroke-linecap="round" stroke-linejoin="round" d="M 150 137 c 0.32 -0.07 11.84 -2.91 18 -4 c 5.39 -0.95 10.88 -1.77 16 -2 c 1.93 -0.09 4.09 1 6 1 c 1.91 0 6 -1 6 -1"/><path fill="none" stroke="#000000" stroke-width="2" stroke-linecap="round" stroke-linejoin="round" d="M 207 86 c 0.07 -0.07 2.46 -3.13 4 -4 c 5.71 -3.23 12.49 -6.73 19 -9 c 7.66 -2.67 16.13 -3.5 24 -6 c 5.85 -1.85 12.02 -4.39 17 -7 c 1.53 -0.8 3.13 -2.61 4 -4 l 1 -4"/><path fill="none" stroke="#000000" stroke-width="2" stroke-linecap="round" stroke-linejoin="round" d="M 239 32 c 0.03 0.21 1.91 7.97 2 12 c 0.57 24.53 1.49 49.26 0 74 c -1.2 19.91 -4.86 39.9 -8 59 c -0.45 2.74 -3 8 -3 8"/><path fill="none" stroke="#000000" stroke-width="2" stroke-linecap="round" stroke-linejoin="round" d="M 245 85 c -0.28 0.47 -11.15 17.71 -16 27 c -2.84 5.44 -4.09 11.63 -7 17 c -5.75 10.62 -19 31 -19 31"/><path fill="none" stroke="#000000" stroke-width="2" stroke-linecap="round" stroke-linejoin="round" d="M 245 82 c 0.31 0.38 12.31 14.41 18 22 c 2.34 3.11 3.75 6.75 6 10 c 3.85 5.57 12 16 12 16"/><path fill="none" stroke="#000000" stroke-width="2" stroke-linecap="round" stroke-linejoin="round" d="M 286 1 c 0.02 0.1 1 4.03 1 6 c 0 4.21 0.03 9.04 -1 13 c -1.2 4.62 -3.72 9.44 -6 14 c -1.75 3.49 -4.3 6.6 -6 10 c -0.92 1.84 -2.38 6.22 -2 6 c 2.44 -1.42 21.83 -16.37 33 -24 c 2.45 -1.67 5.45 -3.22 8 -4 c 1.43 -0.44 4.61 -0.78 5 0 c 0.78 1.57 0.49 6.9 0 10 c -0.46 2.94 -1.33 6.5 -3 9 c -15.82 23.59 -35.12 48.42 -52 73 c -2.11 3.07 -4.11 6.79 -5 10 c -0.64 2.3 -0.98 6.29 0 8 c 1.22 2.14 5.38 5.07 8 6 c 2.36 0.83 6.29 0.72 9 0 c 8 -2.12 16.93 -5.41 25 -9 c 6.93 -3.08 14.21 -7.23 20 -11 l 3 -4"/><path fill="none" stroke="#000000" stroke-width="2" stroke-linecap="round" stroke-linejoin="round" d="M 280 74 c 0.02 -0.07 0.4 -2.91 1 -4 c 0.94 -1.69 2.46 -3.72 4 -5 c 2.26 -1.89 5.28 -3.88 8 -5 c 2.66 -1.1 6.13 -1.83 9 -2 c 2.51 -0.15 5.66 0.28 8 1 c 1.69 0.52 3.78 1.78 5 3 c 1.22 1.22 2.86 3.35 3 5 c 0.45 5.38 -0.33 12.55 -1 19 c -1.03 9.92 -1.96 19.36 -4 29 c -3.02 14.3 -6.87 28.07 -11 42 c -1.24 4.17 -3 8.15 -5 12 c -2.69 5.18 -5.97 11.76 -9 15 c -1.06 1.13 -4.29 1.38 -6 1 l -12 -5"/><path fill="none" stroke="#000000" stroke-width="2" stroke-linecap="round" stroke-linejoin="round" d="M 257 109 c 0.42 -0.07 15.88 -3.26 24 -4 c 10.35 -0.94 20.99 0.09 31 -1 c 5.01 -0.54 15 -4 15 -4"/><path fill="none" stroke="#000000" stroke-width="2" stroke-linecap="round" stroke-linejoin="round" d="M 298 78 c -0.11 0.51 -4.54 19.15 -6 29 c -1.24 8.34 -1.07 16.45 -2 25 c -0.79 7.24 -3 21 -3 21"/></svg>