<?xml version="1.0" encoding="UTF-8" standalone="no"?><!DOCTYPE svg PUBLIC "-//W3C//DTD SVG 1.1//EN" "http://www.w3.org/Graphics/SVG/1.1/DTD/svg11.dtd"><svg xmlns="http://www.w3.org/2000/svg" version="1.1" width="300" height="168"><path fill="none" stroke="#000000" stroke-width="2" stroke-linecap="round" stroke-linejoin="round" d="M 1 33 c 0.51 -0.02 19.39 0.15 29 -1 c 12.8 -1.53 25.33 -4.11 38 -7 c 6.53 -1.49 19 -6 19 -6"/><path fill="none" stroke="#000000" stroke-width="2" stroke-linecap="round" stroke-linejoin="round" d="M 1 88 c 0.28 -0.12 10.44 -4.99 16 -7 c 10.38 -3.75 20.38 -7.61 31 -10 c 19.19 -4.31 58 -10 58 -10"/><path fill="none" stroke="#000000" stroke-width="2" stroke-linecap="round" stroke-linejoin="round" d="M 65 43 c 0.07 0.3 3.3 11.38 4 17 c 0.6 4.83 -0.33 9.98 0 15 c 0.34 5.06 1.9 9.97 2 15 c 0.23 11.96 -0.25 23.97 -1 36 c -0.25 4.06 -1.09 8.14 -2 12 c -0.4 1.71 -1.03 3.67 -2 5 c -1.52 2.09 -3.78 5.09 -6 6 c -4.27 1.75 -10.73 2.9 -16 3 c -12.31 0.23 -38 -2 -38 -2"/><path fill="none" stroke="#000000" stroke-width="2" stroke-linecap="round" stroke-linejoin="round" d="M 119 15 c 0.14 0.21 5.1 8.13 8 12 c 2.14 2.85 4.44 5.59 7 8 c 3.08 2.9 10 8 10 8"/><path fill="none" stroke="#000000" stroke-width="2" stroke-linecap="round" stroke-linejoin="round" d="M 101 80 c 0.16 -0.12 5.75 -5.43 9 -7 c 7.3 -3.54 15.71 -6.69 24 -9 c 18.29 -5.09 55 -13 55 -13"/><path fill="none" stroke="#000000" stroke-width="2" stroke-linecap="round" stroke-linejoin="round" d="M 126 80 l 1 40"/><path fill="none" stroke="#000000" stroke-width="2" stroke-linecap="round" stroke-linejoin="round" d="M 156 81 c 0 0.18 0.58 6.84 0 10 c -1.37 7.52 -3.52 15.55 -6 23 c -1.5 4.49 -6 13 -6 13"/><path fill="none" stroke="#000000" stroke-width="2" stroke-linecap="round" stroke-linejoin="round" d="M 113 139 c 0.14 -0.02 5.36 -0.4 8 -1 c 9.13 -2.09 17.78 -4.93 27 -7 c 4.35 -0.98 8.6 -1.08 13 -2 c 10.3 -2.15 19.84 -4.92 30 -7 c 2.99 -0.61 9 -1 9 -1"/><path fill="none" stroke="#000000" stroke-width="2" stroke-linecap="round" stroke-linejoin="round" d="M 192 3 c 0.04 0.25 0.92 9.5 2 14 c 0.89 3.72 2.98 7.26 4 11 c 0.97 3.57 2 11 2 11"/><path fill="none" stroke="#000000" stroke-width="2" stroke-linecap="round" stroke-linejoin="round" d="M 200 16 c 0.37 -0.12 13.8 -5.12 21 -7 c 8.29 -2.16 16.44 -3.73 25 -5 c 9.79 -1.45 19.79 -2.46 29 -3 c 1.61 -0.09 4.56 0.05 5 1 c 1.04 2.26 1.21 8.41 1 12 c -0.09 1.6 -1.2 3.4 -2 5 c -0.87 1.73 -1.72 3.65 -3 5 c -5.14 5.4 -11.05 12.15 -17 16 c -4.6 2.97 -11.22 4.47 -17 6 c -5.53 1.47 -11.34 2.26 -17 3 c -1.97 0.26 -6.17 0.05 -6 0 c 1.18 -0.37 27.64 -7.14 41 -11 l 4 -2"/><path fill="none" stroke="#000000" stroke-width="2" stroke-linecap="round" stroke-linejoin="round" d="M 242 26 c -0.17 0.53 -6.01 20.09 -10 30 c -5.14 12.76 -13.97 28.12 -17 37 c -0.37 1.09 1.8 3.72 3 4 c 3.36 0.79 9.28 0.21 14 0 c 3.05 -0.13 6.13 -0.28 9 -1 c 5.01 -1.25 15 -5 15 -5"/><path fill="none" stroke="#000000" stroke-width="2" stroke-linecap="round" stroke-linejoin="round" d="M 253 77 c -0.03 0.12 -1.82 4.66 -2 7 c -0.8 10.61 -0.12 22.01 -1 33 c -0.46 5.75 -2.54 11.25 -3 17 c -0.88 10.99 -1 33 -1 33"/><path fill="none" stroke="#000000" stroke-width="2" stroke-linecap="round" stroke-linejoin="round" d="M 208 113 c 0.16 0.03 5.94 1.56 9 2 c 3.99 0.57 7.99 1 12 1 c 4.67 0 9.24 -0.39 14 -1 c 19.2 -2.47 56 -8 56 -8"/></svg>