<?xml version="1.0" encoding="UTF-8" standalone="no"?><!DOCTYPE svg PUBLIC "-//W3C//DTD SVG 1.1//EN" "http://www.w3.org/Graphics/SVG/1.1/DTD/svg11.dtd"><svg xmlns="http://www.w3.org/2000/svg" version="1.1" width="311" height="266"><path fill="none" stroke="#000000" stroke-width="2" stroke-linecap="round" stroke-linejoin="round" d="M 1 147 l 8 30"/><path fill="none" stroke="#000000" stroke-width="2" stroke-linecap="round" stroke-linejoin="round" d="M 11 220 c 0.21 -0.86 7.19 -32.63 12 -49 c 3.65 -12.42 13 -36 13 -36"/><path fill="none" stroke="#000000" stroke-width="2" stroke-linecap="round" stroke-linejoin="round" d="M 49 111 c 0.03 0.21 2 8.02 2 12 c 0 16.04 -2 32.43 -2 49 c 0 9.82 1.06 19.05 2 29 c 0.78 8.28 2.38 15.89 3 24 c 0.39 5.03 0.47 10.76 0 15 c -0.11 1.02 -1.38 2.88 -2 3 c -0.62 0.12 -2.48 -1.1 -3 -2 c -2.73 -4.71 -8 -17 -8 -17"/><path fill="none" stroke="#000000" stroke-width="2" stroke-linecap="round" stroke-linejoin="round" d="M 24 190 c 0.21 -0.19 8.63 -9.31 12 -11 c 1.31 -0.65 5.31 0.86 6 2 c 0.87 1.45 0.44 5.45 0 8 c -1.19 6.89 -2.56 14.56 -5 21 c -2.07 5.48 -5.82 11.68 -9 16 c -1.01 1.37 -4.18 3.14 -5 3 l -1 -4"/><path fill="none" stroke="#000000" stroke-width="2" stroke-linecap="round" stroke-linejoin="round" d="M 80 165 c 0.02 0.07 1.59 3.18 1 4 c -6 8.3 -23.12 26.1 -27 32 c -0.46 0.7 2.63 2.39 4 3 c 1.4 0.62 3.3 0.86 5 1 c 6.66 0.53 13.31 0.35 20 1 c 3.73 0.36 7.29 1.16 11 2 c 3.78 0.86 7.48 1.65 11 3 c 5.11 1.97 9.93 5.02 15 7 l 8 2"/><path fill="none" stroke="#000000" stroke-width="2" stroke-linecap="round" stroke-linejoin="round" d="M 103 117 c 0.05 0.3 1.58 11.53 3 17 c 0.88 3.41 3.28 9.28 4 10 c 0.3 0.3 1.58 -2.6 2 -4 c 2.21 -7.45 3.68 -15.36 6 -23 c 1.05 -3.46 2.39 -6.99 4 -10 c 0.96 -1.79 2.43 -4.1 4 -5 c 2.56 -1.46 6.94 -2.84 10 -3 c 2.7 -0.14 6.78 0.99 9 2 c 0.87 0.4 1.69 1.96 2 3 c 0.61 2.03 1 4.77 1 7 c 0 1.92 -0.33 4.17 -1 6 c -1.59 4.3 -3.76 9.42 -6 13 l -4 3"/><path fill="none" stroke="#000000" stroke-width="2" stroke-linecap="round" stroke-linejoin="round" d="M 115 132 c 0.33 -0.16 12.67 -6.68 19 -9 c 3.37 -1.23 10.28 -2.48 11 -2 c 0.5 0.34 -3.05 4.37 -5 6 c -9.81 8.18 -30.37 23.43 -31 24 c -0.18 0.16 6.52 -3.63 10 -5 c 5.9 -2.32 18 -6 18 -6"/><path fill="none" stroke="#000000" stroke-width="2" stroke-linecap="round" stroke-linejoin="round" d="M 97 173 c 0.12 -0.05 4.76 -1.76 7 -3 c 10.56 -5.83 20.77 -12.62 31 -18 c 2.08 -1.09 6.75 -2 7 -2 c 0.12 0 -2.29 1.18 -3 2 c -1.14 1.33 -2.59 3.28 -3 5 c -1.13 4.76 -1.6 10.52 -2 16 c -0.62 8.5 -0.03 17.99 -1 25 c -0.19 1.4 -2.67 4.38 -3 4 c -0.75 -0.88 -2.58 -7.62 -3 -11 c -0.19 -1.51 0.35 -3.58 1 -5 c 0.91 -2.01 2.46 -4.3 4 -6 c 1.67 -1.84 3.83 -3.7 6 -5 c 4.35 -2.61 9.22 -5.01 14 -7 l 10 -3"/><path fill="none" stroke="#000000" stroke-width="2" stroke-linecap="round" stroke-linejoin="round" d="M 112 180 c -0.21 0.49 -7.46 19.38 -12 28 c -1.91 3.63 -8 10 -8 10"/><path fill="none" stroke="#000000" stroke-width="2" stroke-linecap="round" stroke-linejoin="round" d="M 106 198 c 0.12 0.03 4.89 1.01 7 2 c 3.39 1.59 6.83 3.69 10 6 c 7.94 5.78 14.87 12.12 23 18 c 14.2 10.27 28.59 18.82 42 29 c 4.46 3.38 12 12 12 12"/><path fill="none" stroke="#000000" stroke-width="2" stroke-linecap="round" stroke-linejoin="round" d="M 182 126 c -0.07 0.28 -3.27 10.57 -4 16 c -1.6 11.89 -2.84 23.88 -3 36 c -0.18 14.1 2 42 2 42"/><path fill="none" stroke="#000000" stroke-width="2" stroke-linecap="round" stroke-linejoin="round" d="M 195 128 c 0.09 0.02 4.31 0.05 5 1 c 1.41 1.94 2.88 6.71 3 10 c 0.52 14.81 -1.39 31.12 -1 47 c 0.28 11.53 3 34 3 34"/><path fill="none" stroke="#000000" stroke-width="2" stroke-linecap="round" stroke-linejoin="round" d="M 188 168 c 0.14 -0.09 5.34 -3.67 8 -5 c 1.16 -0.58 2.89 -1.14 4 -1 c 1.2 0.15 4 2 4 2"/><path fill="none" stroke="#000000" stroke-width="2" stroke-linecap="round" stroke-linejoin="round" d="M 179 187 c 0.12 -0.11 4.67 -4.64 7 -6 c 1.29 -0.75 3.6 -1.16 5 -1 c 1.23 0.14 4 2 4 2"/><path fill="none" stroke="#000000" stroke-width="2" stroke-linecap="round" stroke-linejoin="round" d="M 175 206 c 0.18 0.04 7.81 0.59 10 2 c 1.73 1.11 2.46 5.92 4 7 c 1.14 0.8 4.4 0.48 6 0 c 1.33 -0.4 4 -3 4 -3"/><path fill="none" stroke="#000000" stroke-width="2" stroke-linecap="round" stroke-linejoin="round" d="M 220 97 c 0.51 0.07 20.59 2.22 29 4 c 1.44 0.3 4 3 4 3"/><path fill="none" stroke="#000000" stroke-width="2" stroke-linecap="round" stroke-linejoin="round" d="M 218 153 c 0.14 -0.09 5.15 -3.68 8 -5 c 11.49 -5.35 35 -15 35 -15"/><path fill="none" stroke="#000000" stroke-width="2" stroke-linecap="round" stroke-linejoin="round" d="M 239 116 c -0.04 0.14 -1.56 5.24 -2 8 c -2.61 16.55 -5.64 32.29 -7 49 c -2.03 25 -3 74 -3 74"/><path fill="none" stroke="#000000" stroke-width="2" stroke-linecap="round" stroke-linejoin="round" d="M 216 172 c 0.05 -0.04 1.95 -1.77 3 -2 c 4.42 -0.98 10.38 -2.18 15 -2 c 3.48 0.13 7.63 1.8 11 3 c 1.07 0.38 3 1.32 3 2 c 0 1.27 -1.6 4.51 -3 6 c -3.25 3.46 -7.84 7.57 -12 10 c -3.37 1.97 -11.79 3.93 -12 4 c -0.16 0.05 6.31 -2.59 9 -3 c 1.17 -0.18 3.77 0.25 4 1 c 0.49 1.65 -0.33 6.16 -1 9 c -0.63 2.68 -1.71 5.58 -3 8 c -1.3 2.44 -3.04 5.04 -5 7 c -3.88 3.88 -12.74 9.18 -13 11 c -0.17 1.22 7.4 2.8 11 3 c 7.89 0.44 16.38 -0.53 25 -1 c 4.15 -0.22 8.32 -0.08 12 -1 l 12 -5"/><path fill="none" stroke="#000000" stroke-width="2" stroke-linecap="round" stroke-linejoin="round" d="M 212 173 c -0.02 0.21 -1 8.05 -1 12 c 0 2.97 0 7 1 9 c 0.65 1.29 5 3 5 3"/><path fill="none" stroke="#000000" stroke-width="2" stroke-linecap="round" stroke-linejoin="round" d="M 250 165 l 0 35"/><path fill="none" stroke="#000000" stroke-width="2" stroke-linecap="round" stroke-linejoin="round" d="M 260 31 c 0.4 0.46 15.65 16.99 23 26 c 3.05 3.74 5.05 8.65 8 12 c 1.76 2 4.72 4.19 7 5 c 1.85 0.66 7 0 7 0"/><path fill="none" stroke="#000000" stroke-width="2" stroke-linecap="round" stroke-linejoin="round" d="M 303 59 c -0.12 0.18 -4.34 7.05 -7 10 c -3.23 3.59 -7.11 6.99 -11 10 c -3.41 2.64 -7.15 4.84 -11 7 c -4.62 2.59 -13.64 7.09 -14 7 c -0.29 -0.07 6.48 -5.65 10 -8 c 3.45 -2.3 7.15 -4.2 11 -6 c 6.33 -2.95 12.48 -5.53 19 -8 c 3.3 -1.25 10 -3 10 -3"/><path fill="none" stroke="#000000" stroke-width="2" stroke-linecap="round" stroke-linejoin="round" d="M 267 113 c 0.12 -0.11 4.5 -4.2 7 -6 c 3.53 -2.55 7.13 -5.06 11 -7 c 6.78 -3.39 21 -9 21 -9"/><path fill="none" stroke="#000000" stroke-width="2" stroke-linecap="round" stroke-linejoin="round" d="M 263 138 c 0.51 -0.38 19.86 -14.42 29 -22 c 2.32 -1.92 3.84 -4.84 6 -7 c 1.83 -1.83 6 -5 6 -5"/><path fill="none" stroke="#000000" stroke-width="2" stroke-linecap="round" stroke-linejoin="round" d="M 294 95 c -0.04 0.16 -1.07 6.07 -2 9 c -1.41 4.43 -2.94 8.79 -5 13 c -5.02 10.28 -10.06 20.16 -16 30 c -5.91 9.8 -19 28 -19 28"/><path fill="none" stroke="#000000" stroke-width="2" stroke-linecap="round" stroke-linejoin="round" d="M 264 157 c 0.14 0.09 6.51 2.9 8 5 c 1.99 2.82 3.26 7.91 4 12 c 2.23 12.4 3.02 25.81 5 38 c 0.28 1.71 2 5 2 5"/><path fill="none" stroke="#000000" stroke-width="2" stroke-linecap="round" stroke-linejoin="round" d="M 292 145 c 0.05 -0.07 1.9 -2.9 3 -4 c 0.8 -0.8 2.06 -1.88 3 -2 c 1.33 -0.17 4.4 0.06 5 1 c 1.2 1.88 2 6.86 2 10 c 0 3.44 -1.85 7.31 -2 11 c -0.51 12.53 0.25 25 0 38 c -0.09 4.8 -1.2 9.59 -1 14 c 0.12 2.59 1.81 5.53 2 8 c 0.12 1.53 -1 3.44 -1 5 l 1 5"/><path fill="none" stroke="#000000" stroke-width="2" stroke-linecap="round" stroke-linejoin="round" d="M 286 166 c 0.09 0 3.45 -0.28 5 0 c 1.95 0.36 4.96 0.96 6 2 c 0.84 0.84 1.36 3.64 1 5 c -0.8 2.99 -3.05 7.08 -5 10 c -1.23 1.85 -5.11 4.89 -5 5 c 0.11 0.11 3.99 -3.09 6 -4 c 1.42 -0.65 4.39 -1.49 5 -1 l 0 5"/><path fill="none" stroke="#000000" stroke-width="2" stroke-linecap="round" stroke-linejoin="round" d="M 280 224 l 26 -8"/><path fill="none" stroke="#000000" stroke-width="2" stroke-linecap="round" stroke-linejoin="round" d="M 86 19 c -0.23 0.28 -9.41 10.29 -13 16 c -5.29 8.43 -14 27 -14 27"/><path fill="none" stroke="#000000" stroke-width="2" stroke-linecap="round" stroke-linejoin="round" d="M 51 72 c 0.16 0.45 7.26 23.05 9 26 c 0.36 0.61 3.3 -2.46 4 -4 c 2.34 -5.15 3.72 -12 6 -18 c 1.45 -3.82 2.78 -7.92 5 -11 c 3.51 -4.87 8.58 -9.82 13 -14 c 1.35 -1.28 3.56 -2.86 5 -3 c 1.33 -0.13 3.76 0.99 5 2 c 2.11 1.73 4.86 4.48 6 7 c 1.93 4.24 3.15 10.09 4 15 l 0 8"/><path fill="none" stroke="#000000" stroke-width="2" stroke-linecap="round" stroke-linejoin="round" d="M 81 74 c 0.12 -0.09 4.6 -3.6 7 -5 c 1.5 -0.88 3.38 -1.68 5 -2 c 1.51 -0.3 4.16 -0.56 5 0 c 0.69 0.46 1.13 2.85 1 4 c -0.17 1.5 -0.97 3.65 -2 5 c -5.95 7.84 -19.53 23.2 -20 24 c -0.18 0.31 6.94 -4.37 10 -7 c 3.9 -3.35 8.09 -6.95 11 -11 c 4.52 -6.29 8.17 -13.68 12 -21 c 3.69 -7.04 7.06 -13.75 10 -21 c 2.79 -6.9 6.65 -20.29 7 -21 c 0.11 -0.22 -0.37 4.95 0 7 c 0.24 1.31 1.09 2.98 2 4 c 1.88 2.09 5.01 3.83 7 6 c 1.56 1.7 2.95 3.89 4 6 c 1.57 3.15 3.2 6.58 4 10 c 1.82 7.72 3 15.99 4 24 c 0.33 2.63 0.52 5.74 0 8 c -0.38 1.65 -1.78 3.78 -3 5 c -1.22 1.22 -3.47 2.69 -5 3 c -1.34 0.27 -3.85 -0.23 -5 -1 c -1.45 -0.97 -3.11 -3.22 -4 -5 c -1.32 -2.64 -2.7 -6.14 -3 -9 c -0.32 -3.03 0.21 -6.85 1 -10 c 1.16 -4.66 3.37 -12.05 5 -14 c 0.59 -0.71 3.89 0.89 5 2 l 12 15"/><path fill="none" stroke="#000000" stroke-width="2" stroke-linecap="round" stroke-linejoin="round" d="M 196 1 c 0.02 0.23 0.41 8.6 1 13 c 1.11 8.2 2.33 15.83 4 24 c 2.11 10.35 5.84 20.75 7 30 c 0.38 3.06 -0.82 7.14 -2 10 c -0.99 2.41 -5 7 -5 7"/><path fill="none" stroke="#000000" stroke-width="2" stroke-linecap="round" stroke-linejoin="round" d="M 177 68 c -0.05 -0.26 -2.53 -10.34 -3 -15 c -0.16 -1.55 0.13 -3.94 1 -5 c 1.7 -2.08 5.47 -4.83 8 -6 c 1.26 -0.58 4.44 -0.67 5 0 c 0.67 0.81 0.49 4.21 0 6 c -1.39 5.11 -3.18 11.34 -6 16 c -5.54 9.17 -13.5 18.8 -20 27 l -3 2"/><path fill="none" stroke="#000000" stroke-width="2" stroke-linecap="round" stroke-linejoin="round" d="M 214 27 c 0.11 -0.02 4.32 -1.28 6 -1 c 1.85 0.31 5.83 1.73 6 3 c 0.32 2.39 -2.03 8.59 -4 12 c -2.77 4.81 -8.9 10 -11 14 c -0.6 1.15 0.02 4.23 1 5 c 2.76 2.17 8.49 4.5 13 6 c 9.47 3.16 19.22 5.92 29 8 c 5.89 1.25 11.89 1.65 18 2 c 5.73 0.33 17 0 17 0"/></svg>