<?xml version="1.0" encoding="UTF-8" standalone="no"?><!DOCTYPE svg PUBLIC "-//W3C//DTD SVG 1.1//EN" "http://www.w3.org/Graphics/SVG/1.1/DTD/svg11.dtd"><svg xmlns="http://www.w3.org/2000/svg" version="1.1" width="320" height="180"><path fill="none" stroke="#000000" stroke-width="2" stroke-linecap="round" stroke-linejoin="round" d="M 1 45 l 1 1"/><path fill="none" stroke="#000000" stroke-width="2" stroke-linecap="round" stroke-linejoin="round" d="M 19 23 c 0.68 -0.28 28.39 -13 39 -16 c 1.92 -0.54 6.25 1.62 7 3 c 0.8 1.46 -0.25 5.6 -1 8 c -0.83 2.67 -2.38 5.48 -4 8 c -7.44 11.58 -14.92 22.89 -23 34 c -2.65 3.64 -8.88 9.8 -9 10 c -0.07 0.12 3.81 -3.65 6 -5 c 6.39 -3.93 13.06 -7.62 20 -11 c 6.27 -3.06 12.68 -5.63 19 -8 c 1.56 -0.59 3.72 -1.28 5 -1 c 1.25 0.28 3.57 1.99 4 3 c 0.36 0.83 -0.37 2.87 -1 4 c -2.54 4.56 -5.6 9.55 -9 14 c -6.37 8.35 -13.04 16.81 -20 24 c -2.72 2.81 -7.05 4.47 -10 7 c -1.55 1.33 -2.58 3.93 -4 5 c -0.92 0.69 -4.15 0.96 -4 1 c 0.43 0.11 8.49 0.18 12 1 c 1.7 0.4 3.65 1.78 5 3 c 1.81 1.63 3.79 3.88 5 6 c 1.32 2.32 2.4 5.32 3 8 c 0.7 3.15 1.31 6.94 1 10 c -0.32 3.18 -1.64 6.94 -3 10 c -1.23 2.76 -3.16 5.43 -5 8 c -1.52 2.13 -3.24 4.24 -5 6 l -3 2"/><path fill="none" stroke="#000000" stroke-width="2" stroke-linecap="round" stroke-linejoin="round" d="M 83 91 c 0.37 -0.17 13.74 -6.99 21 -10 c 6.62 -2.74 20 -7 20 -7"/><path fill="none" stroke="#000000" stroke-width="2" stroke-linecap="round" stroke-linejoin="round" d="M 104 47 c -0.12 0.68 -5.45 25.77 -7 39 c -1.48 12.7 -1.56 24.91 -2 38 c -0.25 7.57 -0.5 15.76 0 22 c 0.08 1.02 1.46 3.09 2 3 c 0.85 -0.14 2.89 -2.5 4 -4 c 4.51 -6.1 8.98 -12.31 13 -19 c 6.17 -10.28 17 -31 17 -31"/><path fill="none" stroke="#000000" stroke-width="2" stroke-linecap="round" stroke-linejoin="round" d="M 148 22 c -0.07 0.21 -2.31 8.17 -4 12 c -1.97 4.47 -4.41 8.63 -7 13 c -7.39 12.49 -14.19 24.53 -22 36 c -2.75 4.04 -6.51 7.51 -10 11 c -1.5 1.5 -4.87 2.97 -5 4 c -0.11 0.91 2.52 3.01 4 4 c 2.34 1.56 5.53 2.39 8 4 c 4.15 2.7 8.11 5.69 12 9 c 9.74 8.28 18.43 17.71 28 25 c 3.99 3.04 14 7 14 7"/><path fill="none" stroke="#000000" stroke-width="2" stroke-linecap="round" stroke-linejoin="round" d="M 166 36 c 0.05 0.09 2.82 3.37 3 5 c 0.4 3.64 -0.34 8.66 -1 13 c -1.03 6.79 -4 20 -4 20"/><path fill="none" stroke="#000000" stroke-width="2" stroke-linecap="round" stroke-linejoin="round" d="M 151 94 c 0.67 -0.37 25.93 -13.32 38 -21 c 6.12 -3.9 17 -14 17 -14"/><path fill="none" stroke="#000000" stroke-width="2" stroke-linecap="round" stroke-linejoin="round" d="M 179 79 c -0.07 0.21 -3.61 8.05 -4 12 c -0.88 9.07 -0.38 28.31 0 29 c 0.27 0.49 3.51 -17.48 5 -20 c 0.42 -0.71 4.1 1.8 5 3 c 0.79 1.05 1.15 3.44 1 5 c -0.47 4.98 -4.39 16.17 -3 16 c 2.82 -0.35 18.45 -12.2 27 -19 c 4.39 -3.49 8.11 -7.71 12 -12 c 6.01 -6.63 12.29 -13.73 17 -20 l 1 -4"/><path fill="none" stroke="#000000" stroke-width="2" stroke-linecap="round" stroke-linejoin="round" d="M 228 59 c 0.61 -0.44 24.04 -16.28 35 -25 c 3.43 -2.73 6.27 -6.49 9 -10 c 1.91 -2.46 4 -5.34 5 -8 c 0.85 -2.28 1.91 -6.41 1 -8 c -1.22 -2.13 -6.03 -4.61 -9 -6 c -1.67 -0.78 -4.55 -1.32 -6 -1 c -1.01 0.22 -2.53 1.83 -3 3 c -2.54 6.36 -5.21 14.5 -7 22 c -1.89 7.91 -3.38 16.15 -4 24 c -0.36 4.53 1 9.32 1 14 c 0 4.35 -1 8.6 -1 13 c 0 9.8 1.17 19.17 1 29 c -0.17 10.18 -1.76 20.01 -2 30 c -0.09 3.67 1 7.42 1 11 c 0 2.29 -1 7 -1 7 l 1 -7"/><path fill="none" stroke="#000000" stroke-width="2" stroke-linecap="round" stroke-linejoin="round" d="M 250 66 c -0.52 1.14 -19.6 43.31 -30 65 c -1.37 2.86 -5 8 -5 8"/><path fill="none" stroke="#000000" stroke-width="2" stroke-linecap="round" stroke-linejoin="round" d="M 235 79 c 0.11 -0.02 4.07 -1 6 -1 c 2.56 0 5.53 0.26 8 1 c 3.98 1.19 8.39 2.81 12 5 c 7.17 4.35 21 15 21 15"/><path fill="none" stroke="#000000" stroke-width="2" stroke-linecap="round" stroke-linejoin="round" d="M 288 2 c -0.05 0.23 -1.53 8.87 -3 13 c -2.17 6.1 -5.7 11.81 -8 18 c -2.07 5.57 -6 15.49 -5 17 c 0.79 1.18 8.69 -3.92 13 -5 c 3.42 -0.86 7.84 -1.37 11 -1 c 1.92 0.23 4.8 1.8 6 3 c 0.74 0.74 1.43 2.98 1 4 c -3.44 8.1 -9.22 19.61 -15 29 c -12.14 19.69 -35.33 51.36 -38 57 c -0.47 1 8.12 -0.96 12 -2 c 4.74 -1.28 9.41 -2.95 14 -5 c 11.31 -5.06 23.98 -10.14 33 -16 c 3 -1.95 5.09 -6.56 7 -10 l 3 -8"/><path fill="none" stroke="#000000" stroke-width="2" stroke-linecap="round" stroke-linejoin="round" d="M 287 70 c 0.19 0.04 7.38 1.09 11 2 c 3.08 0.77 6.36 1.68 9 3 c 1.78 0.89 3.53 2.53 5 4 c 1.47 1.47 3.35 3.37 4 5 c 0.51 1.28 0.3 3.4 0 5 c -1.34 7.21 -2.6 14.94 -5 22 c -3.57 10.52 -8.92 20.34 -13 31 c -2.04 5.31 -2.85 10.99 -5 16 c -1.78 4.15 -4.32 8.43 -7 12 c -2.18 2.91 -5.35 6.17 -8 8 c -1.19 0.83 -3.9 1.55 -5 1 l -7 -7"/><path fill="none" stroke="#000000" stroke-width="2" stroke-linecap="round" stroke-linejoin="round" d="M 255 118 c 0.89 -0.16 35.93 -5.71 51 -9 c 1.45 -0.32 2.99 -1.85 4 -3 c 1.18 -1.35 3.11 -3.65 3 -5 c -0.16 -1.86 -2.52 -4.88 -4 -7 c -0.78 -1.11 -2.41 -3.33 -3 -3 c -1.39 0.77 -4.78 5.09 -6 8 c -4.5 10.75 -8.58 23.02 -12 35 c -2.65 9.27 -6 28 -6 28"/></svg>