<?xml version="1.0" encoding="UTF-8" standalone="no"?><!DOCTYPE svg PUBLIC "-//W3C//DTD SVG 1.1//EN" "http://www.w3.org/Graphics/SVG/1.1/DTD/svg11.dtd"><svg xmlns="http://www.w3.org/2000/svg" version="1.1" width="267" height="169"><path fill="none" stroke="#000000" stroke-width="2" stroke-linecap="round" stroke-linejoin="round" d="M 7 27 c 0.44 -0.21 17.88 -9.77 25 -12 c 1.87 -0.58 5.94 0.94 7 2 c 0.73 0.73 0.3 3.49 0 5 c -0.32 1.62 -1.16 3.4 -2 5 c -2.86 5.45 -5.77 10.62 -9 16 c -1.9 3.17 -3.76 6.25 -6 9 c -2.05 2.52 -5.08 4.43 -7 7 c -2.97 3.96 -8.57 13 -8 13 c 0.77 0 10.42 -8.86 16 -13 c 3.53 -2.62 7.39 -5.07 11 -7 c 1.14 -0.61 4 -1.47 4 -1 c 0 1.56 -2.08 8.98 -4 13 c -4.99 10.45 -14.59 24.7 -17 31 c -0.34 0.89 2.7 2.92 4 3 c 3.16 0.2 8.31 -1.77 12 -2 c 1.25 -0.08 2.82 0.49 4 1 c 1.03 0.44 2.66 1.15 3 2 c 0.76 1.9 1.69 5.75 1 8 c -2.89 9.38 -8.19 21.14 -13 31 c -1.75 3.58 -4.47 6.74 -7 10 c -2.21 2.84 -4.44 5.76 -7 8 c -2.61 2.28 -7.2 6.14 -9 6 l -4 -7"/><path fill="none" stroke="#000000" stroke-width="2" stroke-linecap="round" stroke-linejoin="round" d="M 27 101 c 0.37 -0.26 13.64 -10.58 21 -15 c 7.65 -4.59 16.02 -7.61 24 -12 c 5.61 -3.09 10.84 -6.41 16 -10 c 2.52 -1.75 4.85 -3.85 7 -6 c 1.49 -1.49 3.15 -3.3 4 -5 l 1 -5"/><path fill="none" stroke="#000000" stroke-width="2" stroke-linecap="round" stroke-linejoin="round" d="M 62 46 c -0.12 0.54 -5.33 20.46 -7 31 c -1.69 10.66 -2.85 21.27 -3 32 c -0.18 12.7 0.92 25.54 2 38 c 0.23 2.7 1.01 6.02 2 8 c 0.43 0.86 2.23 2.17 3 2 c 1.54 -0.34 4.42 -2.42 6 -4 c 1.88 -1.88 4.14 -4.44 5 -7 c 8.91 -26.45 26 -85 26 -85"/><path fill="none" stroke="#000000" stroke-width="2" stroke-linecap="round" stroke-linejoin="round" d="M 95 26 c -0.16 0.07 -6.6 2.29 -9 4 c -1.9 1.36 -3.66 3.8 -5 6 c -6.93 11.37 -14.23 23.04 -20 35 c -3.49 7.22 -8.61 19.03 -8 23 c 0.31 2.02 8.12 1.66 12 3 c 4.78 1.66 9.73 3.5 14 6 c 5.21 3.05 10.95 6.65 15 11 c 8.83 9.5 16.69 21.98 25 32 l 4 3"/><path fill="none" stroke="#000000" stroke-width="2" stroke-linecap="round" stroke-linejoin="round" d="M 125 21 c -0.12 0.42 -4.11 16.13 -7 24 c -3.16 8.6 -7.01 17.26 -11 25 c -1.14 2.21 -3.24 4.24 -5 6 c -0.81 0.81 -3.06 2 -3 2 c 0.08 0 2.84 -1.13 4 -2 c 4.05 -3.04 7.72 -7.05 12 -10 c 6.4 -4.4 13.09 -8.05 20 -12 c 2.65 -1.52 5.22 -3 8 -4 c 5.51 -1.98 17 -5 17 -5"/><path fill="none" stroke="#000000" stroke-width="2" stroke-linecap="round" stroke-linejoin="round" d="M 127 74 c -0.05 0.88 -2.18 32.82 -3 50 c -0.21 4.46 -0.41 8.87 0 13 c 0.23 2.31 2 7 2 7"/><path fill="none" stroke="#000000" stroke-width="2" stroke-linecap="round" stroke-linejoin="round" d="M 139 80 c -0.05 0.37 -1.43 14.06 -3 21 c -2.46 10.87 -9 32 -9 32"/><path fill="none" stroke="#000000" stroke-width="2" stroke-linecap="round" stroke-linejoin="round" d="M 114 149 c 0.67 -0.21 25.81 -7.75 38 -12 c 1.78 -0.62 5 -3 5 -3"/><path fill="none" stroke="#000000" stroke-width="2" stroke-linecap="round" stroke-linejoin="round" d="M 170 75 c 0.3 -0.18 11.1 -6.72 17 -10 c 3.35 -1.86 6.56 -3.55 10 -5 c 2.92 -1.23 6.29 -1.59 9 -3 c 4.75 -2.48 9.63 -5.78 14 -9 c 1.86 -1.37 5 -5 5 -5"/><path fill="none" stroke="#000000" stroke-width="2" stroke-linecap="round" stroke-linejoin="round" d="M 204 27 c -0.07 0.16 -3.08 5.95 -4 9 c -1.04 3.46 -1.63 7.25 -2 11 c -0.98 10.1 -1.56 19.63 -2 30 c -0.59 13.81 -0.22 26.71 -1 40 c -0.22 3.71 -1.67 7.33 -2 11 c -0.33 3.61 0.34 7.41 0 11 c -0.32 3.33 -1.58 6.6 -2 10 c -0.58 4.68 -1 14 -1 14"/><path fill="none" stroke="#000000" stroke-width="2" stroke-linecap="round" stroke-linejoin="round" d="M 192 69 c -0.37 0.61 -14.34 22.83 -21 35 c -5.25 9.6 -10.09 19.62 -14 29 c -0.86 2.06 -0.39 4.97 -1 7 l -2 3"/><path fill="none" stroke="#000000" stroke-width="2" stroke-linecap="round" stroke-linejoin="round" d="M 196 68 c 0.11 0.12 4.32 4.45 6 7 c 5.3 8.07 15 25 15 25"/><path fill="none" stroke="#000000" stroke-width="2" stroke-linecap="round" stroke-linejoin="round" d="M 238 1 c -0.05 0.23 -1.58 8.92 -3 13 c -1.19 3.42 -3.69 6.57 -5 10 c -1.33 3.49 -3.55 9.63 -3 11 c 0.34 0.85 5 -0.1 7 -1 c 7.72 -3.49 17.29 -10.12 24 -13 c 1.01 -0.43 4.24 0.47 4 1 c -1.75 3.93 -10.25 17.13 -16 26 c -14 21.61 -27.81 41.19 -41 62 c -1.75 2.76 -3.23 6.11 -4 9 c -0.47 1.76 -0.75 4.87 0 6 c 0.84 1.27 4.07 2.47 6 3 c 1.44 0.39 3.41 0.25 5 0 c 2.63 -0.4 5.33 -1.13 8 -2 c 15.05 -4.92 39.41 -12.93 44 -15 l -4 -3"/><path fill="none" stroke="#000000" stroke-width="2" stroke-linecap="round" stroke-linejoin="round" d="M 227 71 l 1 1"/><path fill="none" stroke="#000000" stroke-width="2" stroke-linecap="round" stroke-linejoin="round" d="M 228 69 c 0.23 -0.11 8.57 -4.4 13 -6 c 3.83 -1.38 8.9 -3 12 -3 c 1.26 0 3.29 1.86 4 3 c 0.73 1.16 1.14 3.4 1 5 c -1.44 16.44 -3.23 34.72 -6 52 c -1.26 7.85 -3.68 15.36 -6 23 c -1.05 3.46 -2.36 6.88 -4 10 c -1.65 3.13 -3.76 6.39 -6 9 c -1.62 1.89 -3.93 4.17 -6 5 l -9 1"/><path fill="none" stroke="#000000" stroke-width="2" stroke-linecap="round" stroke-linejoin="round" d="M 205 105 c 0.16 -0.03 5.96 -1.66 9 -2 c 5.95 -0.66 11.86 -0.41 18 -1 c 8.24 -0.79 17.36 -0.85 24 -3 c 3.52 -1.14 10 -8 10 -8"/><path fill="none" stroke="#000000" stroke-width="2" stroke-linecap="round" stroke-linejoin="round" d="M 250 85 c -0.17 0.72 -7.28 27.15 -10 41 c -1.3 6.6 -2 20 -2 20"/></svg>