<?xml version="1.0" encoding="UTF-8" standalone="no"?><!DOCTYPE svg PUBLIC "-//W3C//DTD SVG 1.1//EN" "http://www.w3.org/Graphics/SVG/1.1/DTD/svg11.dtd"><svg xmlns="http://www.w3.org/2000/svg" version="1.1" width="321" height="169"><path fill="none" stroke="#000000" stroke-width="2" stroke-linecap="round" stroke-linejoin="round" d="M 1 23 c 0.53 -0.09 20.64 -3.93 30 -5 c 1.57 -0.18 3.58 0.35 5 1 c 2.01 0.91 4.73 2.55 6 4 c 0.73 0.83 1 2.73 1 4 c 0 2.17 -0.31 4.79 -1 7 c -2.92 9.29 -6.08 18.79 -10 28 c -3.83 9 -8.49 17.54 -13 26 c -0.78 1.46 -3.22 4.09 -3 4 c 1 -0.41 13.29 -8.15 20 -11 c 3.92 -1.66 10.46 -3.34 13 -3 c 1.03 0.14 1.64 3.32 2 5 c 0.61 2.83 1.12 6.08 1 9 c -0.2 4.88 -0.48 10.36 -2 15 c -4.32 13.2 -10.18 26.66 -16 40 c -2.3 5.26 -5.27 10.79 -8 15 l -3 2"/><path fill="none" stroke="#000000" stroke-width="2" stroke-linecap="round" stroke-linejoin="round" d="M 85 21 l 13 29"/><path fill="none" stroke="#000000" stroke-width="2" stroke-linecap="round" stroke-linejoin="round" d="M 131 22 c -0.45 0.58 -16.76 22.47 -26 33 c -5.13 5.85 -10.93 10.92 -17 16 c -8.52 7.14 -17.54 14.19 -26 20 c -1.63 1.12 -6 2.11 -6 2 c 0 -0.12 3.95 -2.36 6 -3 c 3.12 -0.97 6.84 -0.85 10 -2 c 16.02 -5.8 32.5 -11.8 48 -19 c 8.08 -3.76 17.33 -9.75 23 -14 c 0.87 -0.65 1.48 -3.52 1 -4 c -0.71 -0.71 -4.21 -1.15 -6 -1 c -1.86 0.16 -4.17 1.08 -6 2 c -2.73 1.37 -5.47 3.1 -8 5 c -4.18 3.14 -8.1 6.4 -12 10 c -4.94 4.56 -9.58 8.96 -14 14 c -7.78 8.86 -15.57 17.81 -22 27 c -2.64 3.78 -5.18 8.89 -6 13 c -0.69 3.45 0.25 8.23 1 12 c 0.54 2.68 1.58 5.95 3 8 c 1.3 1.88 3.93 4.17 6 5 c 2.4 0.96 6.22 1.28 9 1 c 3.49 -0.35 8.11 -1.24 11 -3 c 4.13 -2.51 8.49 -7.01 12 -11 c 3.71 -4.22 7.31 -9.13 10 -14 c 2.52 -4.57 4.5 -9.95 6 -15 c 1.13 -3.8 2.73 -11.27 2 -12 c -0.6 -0.6 -6.06 3.73 -8 6 c -1.74 2.03 -3.09 5.28 -4 8 c -1.03 3.1 -1.85 6.76 -2 10 c -0.17 3.51 -0.02 8.95 1 11 c 0.47 0.94 3.37 1 5 1 c 4.82 0 10.28 0.05 15 -1 l 21 -7"/><path fill="none" stroke="#000000" stroke-width="2" stroke-linecap="round" stroke-linejoin="round" d="M 166 30 c 0.07 0.07 3.12 2.48 4 4 c 2.58 4.46 7 15 7 15"/><path fill="none" stroke="#000000" stroke-width="2" stroke-linecap="round" stroke-linejoin="round" d="M 158 83 l 38 -21"/><path fill="none" stroke="#000000" stroke-width="2" stroke-linecap="round" stroke-linejoin="round" d="M 180 84 c -0.02 0.54 -0.43 20.73 -1 31 c -0.09 1.69 -1.27 5.11 -1 5 c 0.49 -0.2 4.39 -4.47 6 -7 c 2.97 -4.67 5.12 -10.44 8 -15 c 0.96 -1.52 2.56 -3.04 4 -4 c 1.37 -0.91 3.74 -2.14 5 -2 c 1.17 0.13 4 1.93 4 3 c 0 2.9 -4 11.77 -4 13 c 0 0.4 3.06 -1 4 -2 c 8.94 -9.5 18.52 -22.52 28 -32 c 2.6 -2.6 6.77 -3.72 10 -6 c 10.69 -7.56 20.99 -14.9 31 -23 c 4.03 -3.27 10.24 -9.48 11 -11 c 0.25 -0.5 -3.52 -1.13 -5 -1 c -1.84 0.17 -4.05 1.92 -6 2 c -5.86 0.23 -13.84 -1.45 -19 -1 c -1.36 0.12 -4 1.84 -4 3 c 0 7.51 2.88 21.01 4 32 c 0.59 5.81 0.31 11.25 1 17 c 1.35 11.26 4.13 21.91 5 33 c 0.8 10.3 0 31 0 31"/><path fill="none" stroke="#000000" stroke-width="2" stroke-linecap="round" stroke-linejoin="round" d="M 263 75 c -0.05 0.16 -1.73 6.07 -3 9 c -3.11 7.18 -6.36 13.9 -10 21 c -3.22 6.28 -6.39 11.98 -10 18 c -2.53 4.22 -5.08 8.16 -8 12 c -2.44 3.2 -5.38 6.82 -8 9 l -4 1"/><path fill="none" stroke="#000000" stroke-width="2" stroke-linecap="round" stroke-linejoin="round" d="M 244 81 c 0.18 0.02 7.19 -0.12 10 1 c 4.89 1.95 10.41 5.72 15 9 c 2.23 1.59 4.48 3.91 6 6 c 0.97 1.33 2 5 2 5"/><path fill="none" stroke="#000000" stroke-width="2" stroke-linecap="round" stroke-linejoin="round" d="M 290 1 c -0.17 0.53 -6.15 20.08 -10 30 c -2.56 6.6 -10.03 19 -9 19 c 1.46 0 18.89 -16.37 23 -19 c 0.5 -0.32 1.75 2 2 3 c 0.34 1.38 0.31 3.4 0 5 c -3.28 16.71 -6.69 34 -11 51 c -1.75 6.9 -4.92 13.15 -7 20 c -1.31 4.31 -1.65 9.18 -3 13 c -0.51 1.43 -3.35 3.86 -3 4 c 0.58 0.23 5.57 -0.88 8 -2 c 10.92 -5.06 22.14 -11.03 33 -17 l 7 -5"/><path fill="none" stroke="#000000" stroke-width="2" stroke-linecap="round" stroke-linejoin="round" d="M 273 67 c 0.3 -0.1 12.39 -5.12 17 -6 c 1.14 -0.22 2.92 1.1 4 2 c 2.73 2.28 5.58 5.18 8 8 c 1.54 1.8 2.88 3.89 4 6 c 1.53 2.88 2.92 5.9 4 9 c 1.25 3.58 2.29 7.23 3 11 c 1.31 7.01 3 14.23 3 21 c 0 7.09 -1.67 14.67 -3 22 c -0.68 3.76 -1.75 7.42 -3 11 c -1.08 3.1 -2.06 6.94 -4 9 c -2.84 3.02 -12 8 -12 8"/><path fill="none" stroke="#000000" stroke-width="2" stroke-linecap="round" stroke-linejoin="round" d="M 281 104 c 0.18 -0.05 6.57 -2.24 10 -3 c 5.68 -1.26 17 -3 17 -3"/><path fill="none" stroke="#000000" stroke-width="2" stroke-linecap="round" stroke-linejoin="round" d="M 291 87 l 5 35"/></svg>