<?xml version="1.0" encoding="UTF-8" standalone="no"?><!DOCTYPE svg PUBLIC "-//W3C//DTD SVG 1.1//EN" "http://www.w3.org/Graphics/SVG/1.1/DTD/svg11.dtd"><svg xmlns="http://www.w3.org/2000/svg" version="1.1" width="266" height="117"><path fill="none" stroke="#000000" stroke-width="2" stroke-linecap="round" stroke-linejoin="round" d="M 5 34 c 0.42 -0.09 16.02 -2.84 24 -5 c 8.23 -2.23 24 -8 24 -8"/><path fill="none" stroke="#000000" stroke-width="2" stroke-linecap="round" stroke-linejoin="round" d="M 1 79 c 0.16 -0.1 5.81 -4.94 9 -6 c 10.02 -3.34 22.22 -4.68 33 -8 c 6.54 -2.01 19 -8 19 -8"/><path fill="none" stroke="#000000" stroke-width="2" stroke-linecap="round" stroke-linejoin="round" d="M 43 41 c -0.02 0.23 -1 8.58 -1 13 c 0 16.62 2.18 35.52 1 49 c -0.24 2.75 -3.92 6.3 -6 8 c -1.06 0.87 -3.81 1.57 -5 1 c -4.03 -1.91 -14 -10 -14 -10"/><path fill="none" stroke="#000000" stroke-width="2" stroke-linecap="round" stroke-linejoin="round" d="M 82 21 l 9 6"/><path fill="none" stroke="#000000" stroke-width="2" stroke-linecap="round" stroke-linejoin="round" d="M 72 66 c 0.25 -0.12 9.1 -4.87 14 -7 c 10.81 -4.7 32 -13 32 -13"/><path fill="none" stroke="#000000" stroke-width="2" stroke-linecap="round" stroke-linejoin="round" d="M 89 66 c 0 0.21 -0.36 8.01 0 12 c 0.64 7.06 3 21 3 21"/><path fill="none" stroke="#000000" stroke-width="2" stroke-linecap="round" stroke-linejoin="round" d="M 118 67 c -0.02 0.12 -0.39 4.75 -1 7 c -1.37 5.03 -5 15 -5 15"/><path fill="none" stroke="#000000" stroke-width="2" stroke-linecap="round" stroke-linejoin="round" d="M 68 116 c 1.09 -0.21 41.51 -8.68 62 -12 c 3.89 -0.63 12 0 12 0"/><path fill="none" stroke="#000000" stroke-width="2" stroke-linecap="round" stroke-linejoin="round" d="M 136 8 c 0.05 0.19 1.26 7.91 3 11 c 3.93 6.99 15 21 15 21"/><path fill="none" stroke="#000000" stroke-width="2" stroke-linecap="round" stroke-linejoin="round" d="M 154 13 c 0.12 -0.05 4.59 -2.24 7 -3 c 3.92 -1.24 7.83 -2.1 12 -3 c 8.59 -1.86 16.48 -3.54 25 -5 c 3.36 -0.58 7.5 -1.38 10 -1 c 1.05 0.16 2.94 1.95 3 3 c 0.21 4 -2 16 -2 16"/><path fill="none" stroke="#000000" stroke-width="2" stroke-linecap="round" stroke-linejoin="round" d="M 153 49 c 0.18 -0.05 6.58 -2.22 10 -3 c 3.99 -0.91 8.07 -0.94 12 -2 c 9.82 -2.63 29 -9 29 -9"/><path fill="none" stroke="#000000" stroke-width="2" stroke-linecap="round" stroke-linejoin="round" d="M 189 22 c -0.24 0.49 -8.44 19.58 -14 28 c -5.16 7.82 -18.34 18.83 -19 22 c -0.32 1.54 9.99 2.96 14 2 c 9.78 -2.34 21.45 -9.11 32 -13 c 1.86 -0.68 6 -1 6 -1"/><path fill="none" stroke="#000000" stroke-width="2" stroke-linecap="round" stroke-linejoin="round" d="M 196 49 c -0.03 0.23 -1.58 8.56 -2 13 c -0.6 6.42 -0.3 12.58 -1 19 c -1 9.21 -2.39 18.12 -4 27 c -0.37 2.06 -2 6 -2 6"/><path fill="none" stroke="#000000" stroke-width="2" stroke-linecap="round" stroke-linejoin="round" d="M 153 93 c 0.95 -0.09 36.01 -2.37 54 -5 c 11.91 -1.74 23.19 -5.05 35 -8 c 3.12 -0.78 5.91 -2.14 9 -3 c 3.01 -0.84 6.03 -1.58 9 -2 l 5 0"/></svg>