<?xml version="1.0" encoding="UTF-8" standalone="no"?><!DOCTYPE svg PUBLIC "-//W3C//DTD SVG 1.1//EN" "http://www.w3.org/Graphics/SVG/1.1/DTD/svg11.dtd"><svg xmlns="http://www.w3.org/2000/svg" version="1.1" width="310" height="187"><path fill="none" stroke="#000000" stroke-width="2" stroke-linecap="round" stroke-linejoin="round" d="M 3 18 c 0.44 -0.1 16.45 -4.25 25 -6 c 4.7 -0.96 9.67 -1.76 14 -2 c 1.26 -0.07 3.63 0.25 4 1 c 0.63 1.27 0.35 4.88 0 7 c -0.27 1.63 -1.18 3.36 -2 5 c -7.34 14.68 -22 43 -22 43"/><path fill="none" stroke="#000000" stroke-width="2" stroke-linecap="round" stroke-linejoin="round" d="M 1 78 c 0.53 -0.3 19.68 -11.61 30 -17 c 4.56 -2.38 9.83 -4.9 14 -6 c 1.4 -0.37 4.62 0.15 5 1 c 0.6 1.35 -0.26 5.53 -1 8 c -1.19 3.98 -3 8.07 -5 12 c -7.51 14.74 -14.94 28.55 -23 43 c -1.79 3.2 -5.9 8.84 -6 9 c -0.05 0.08 1.76 -3.12 3 -4 c 4.01 -2.83 9.57 -6.39 14 -8 c 2.2 -0.8 5.8 -0.69 8 0 c 2.59 0.81 5.57 3.13 8 5 c 1.82 1.4 4.23 3.31 5 5 c 0.65 1.43 0.29 4.11 0 6 c -0.35 2.3 -1.05 4.84 -2 7 c -1.34 3.06 -2.79 6.64 -5 9 c -6.99 7.47 -16.13 16.04 -24 22 c -2.29 1.74 -6.47 3.14 -9 3 l -9 -4"/><path fill="none" stroke="#000000" stroke-width="2" stroke-linecap="round" stroke-linejoin="round" d="M 45 102 c 0.09 -0.02 3.44 -0.41 5 -1 c 6.32 -2.37 12.39 -5.48 19 -8 c 7.8 -2.97 15.54 -4.97 23 -8 c 3.16 -1.28 6.18 -3.12 9 -5 c 2.14 -1.43 4.42 -3.23 6 -5 l 2 -4"/><path fill="none" stroke="#000000" stroke-width="2" stroke-linecap="round" stroke-linejoin="round" d="M 88 44 c -0.09 0.32 -3.94 11.86 -5 18 c -2.29 13.26 -3.58 26.17 -5 40 c -1.34 13.08 -2.22 25.02 -3 38 c -0.25 4.09 -0.45 8.62 0 12 c 0.14 1.02 1.35 3.12 2 3 c 1.86 -0.34 6.53 -2.92 9 -5 c 3.57 -3 7.17 -7.04 10 -11 c 3.75 -5.25 7.28 -11.1 10 -17 c 3.23 -7.01 8 -22 8 -22"/><path fill="none" stroke="#000000" stroke-width="2" stroke-linecap="round" stroke-linejoin="round" d="M 121 34 c -0.09 0.24 -3.07 9.34 -5 14 c -2.15 5.19 -4.41 9.98 -7 15 c -2.88 5.57 -5.54 10.94 -9 16 c -5.24 7.66 -11.04 15.08 -17 22 c -2.28 2.64 -9.04 5.82 -8 7 c 4.43 5.04 24.06 17.37 37 26 c 10.8 7.2 32 20 32 20"/><path fill="none" stroke="#000000" stroke-width="2" stroke-linecap="round" stroke-linejoin="round" d="M 151 14 c 0.16 0.19 6.42 7.06 9 11 c 4.4 6.7 12 21 12 21"/><path fill="none" stroke="#000000" stroke-width="2" stroke-linecap="round" stroke-linejoin="round" d="M 132 85 c 0.32 -0.17 11.94 -6.34 18 -10 c 12.17 -7.35 35 -22 35 -22"/><path fill="none" stroke="#000000" stroke-width="2" stroke-linecap="round" stroke-linejoin="round" d="M 168 89 c -0.05 0.26 -2.48 10.01 -3 15 c -0.47 4.57 -0.17 9.21 0 14 c 0.17 4.8 0.42 9.32 1 14 c 0.42 3.4 0.96 7.29 2 10 l 3 3"/><path fill="none" stroke="#000000" stroke-width="2" stroke-linecap="round" stroke-linejoin="round" d="M 178 97 c 0.02 0.23 1.47 8.9 1 13 c -0.81 7.1 -5 22 -5 22"/><path fill="none" stroke="#000000" stroke-width="2" stroke-linecap="round" stroke-linejoin="round" d="M 149 154 c 0.65 -0.14 25.28 -4.36 37 -8 c 7.2 -2.24 14.24 -6.48 21 -10 c 1.45 -0.76 3.15 -1.77 4 -3 c 1.9 -2.74 5 -10 5 -10"/><path fill="none" stroke="#000000" stroke-width="2" stroke-linecap="round" stroke-linejoin="round" d="M 193 70 c 0.6 -0.26 23.25 -9.23 34 -15 c 7.06 -3.79 15.38 -9 20 -14 c 2.39 -2.59 4 -12 4 -12"/><path fill="none" stroke="#000000" stroke-width="2" stroke-linecap="round" stroke-linejoin="round" d="M 229 9 c -0.02 0.12 -0.93 4.64 -1 7 c -0.26 8.68 -0.45 17.17 0 26 c 0.57 11.25 2.64 21.74 3 33 c 0.66 20.72 -0.47 40.16 0 61 c 0.21 9.25 1 18.02 2 27 c 0.34 3.06 1.06 6.18 2 9 l 3 6"/><path fill="none" stroke="#000000" stroke-width="2" stroke-linecap="round" stroke-linejoin="round" d="M 238 65 c -0.12 0.37 -4.3 13.99 -7 21 c -2.4 6.24 -5.01 12.02 -8 18 c -2.79 5.57 -5.68 10.76 -9 16 c -3.11 4.91 -6.32 9.77 -10 14 c -2.88 3.31 -6.51 6.33 -10 9 c -2.09 1.6 -4.66 3.1 -7 4 c -1.76 0.68 -4.7 1.59 -6 1 l -5 -6"/><path fill="none" stroke="#000000" stroke-width="2" stroke-linecap="round" stroke-linejoin="round" d="M 215 75 c 0.19 0.05 7.88 1.44 11 3 c 3.12 1.56 6.12 4.48 9 7 c 2.5 2.19 4.99 4.45 7 7 c 2.93 3.71 5.07 8.1 8 12 c 3.17 4.23 10 12 10 12"/><path fill="none" stroke="#000000" stroke-width="2" stroke-linecap="round" stroke-linejoin="round" d="M 260 1 c 0 0.12 0.44 4.8 0 7 c -1.17 5.86 -4.32 13.04 -5 18 c -0.16 1.19 1.35 4.23 2 4 c 2.19 -0.78 7.82 -6.66 12 -9 c 3.88 -2.17 9.24 -4.41 13 -5 c 1.71 -0.27 5.13 0.99 6 2 c 0.69 0.8 0.38 3.48 0 5 c -1.2 4.82 -3.05 9.98 -5 15 c -2.82 7.26 -5.64 13.96 -9 21 c -3.82 8 -7.49 15.43 -12 23 c -7.05 11.81 -15.02 22.55 -22 34 c -1.31 2.15 -2.28 4.65 -3 7 c -0.58 1.88 -1.67 4.88 -1 6 c 0.89 1.48 4.74 3.35 7 4 c 1.97 0.56 4.83 0.43 7 0 c 4.22 -0.84 8.69 -2.4 13 -4 c 4.83 -1.79 9.47 -3.66 14 -6 c 5.2 -2.69 11.17 -5.53 15 -9 c 2.55 -2.31 4.45 -6.51 6 -10 l 6 -17"/><path fill="none" stroke="#000000" stroke-width="2" stroke-linecap="round" stroke-linejoin="round" d="M 275 68 c -0.1 -0.02 -4.59 -0.3 -6 -1 c -0.83 -0.42 -2.46 -2.77 -2 -3 c 2.65 -1.33 13.84 -5.21 20 -6 c 3.3 -0.43 8.66 0.74 11 2 c 1.13 0.61 1.68 3.3 2 5 c 0.97 5.09 2.22 10.75 2 16 c -0.76 17.66 -2.7 35.6 -5 54 c -1.81 14.44 -4.25 28.8 -7 42 c -0.43 2.08 -1.83 4.25 -3 6 l -3 3"/><path fill="none" stroke="#000000" stroke-width="2" stroke-linecap="round" stroke-linejoin="round" d="M 246 103 c 0.16 -0.03 5.95 -1.69 9 -2 c 9.96 -1.02 20.14 -0.83 30 -2 c 4.05 -0.48 8.12 -1.71 12 -3 c 3.09 -1.03 7.06 -2.23 9 -4 c 1.5 -1.37 3 -7 3 -7"/><path fill="none" stroke="#000000" stroke-width="2" stroke-linecap="round" stroke-linejoin="round" d="M 289 75 c -0.05 0.05 -2.33 1.88 -3 3 c -1.21 2.01 -2.28 4.59 -3 7 c -1.27 4.22 -2.68 8.64 -3 13 c -0.99 13.39 -1 41 -1 41"/></svg>