<?xml version="1.0" encoding="UTF-8" standalone="no"?><!DOCTYPE svg PUBLIC "-//W3C//DTD SVG 1.1//EN" "http://www.w3.org/Graphics/SVG/1.1/DTD/svg11.dtd"><svg xmlns="http://www.w3.org/2000/svg" version="1.1" width="334" height="248"><path fill="none" stroke="#000000" stroke-width="2" stroke-linecap="round" stroke-linejoin="round" d="M 1 45 l 16 1"/><path fill="none" stroke="#000000" stroke-width="2" stroke-linecap="round" stroke-linejoin="round" d="M 9 126 c 0.21 -0.44 7.64 -17.01 12 -25 c 1.57 -2.88 6 -8 6 -8"/><path fill="none" stroke="#000000" stroke-width="2" stroke-linecap="round" stroke-linejoin="round" d="M 23 157 c 0.05 -0.23 1.4 -9.08 3 -13 c 1.93 -4.74 8 -14 8 -14"/><path fill="none" stroke="#000000" stroke-width="2" stroke-linecap="round" stroke-linejoin="round" d="M 50 52 c -0.02 0.49 -1.56 25.44 -1 28 c 0.16 0.71 4.6 -3.08 6 -5 c 2.01 -2.74 2.81 -7.16 5 -10 c 6.53 -8.47 15.02 -18.27 22 -25 c 1.33 -1.28 4.04 -1.67 6 -2 c 1.86 -0.31 4.18 -0.33 6 0 c 1.63 0.3 4.82 0.87 5 2 c 0.77 4.83 0.77 16.63 -1 23 c -1.22 4.38 -5.78 9.35 -9 13 l -6 4"/><path fill="none" stroke="#000000" stroke-width="2" stroke-linecap="round" stroke-linejoin="round" d="M 71 29 c 0.04 0.19 1.74 7.32 2 11 c 0.4 5.6 0.42 11.3 0 17 c -0.59 8.11 -1.5 16 -3 24 c -1.53 8.18 -4.38 15.71 -6 24 c -3.51 18.02 -5.74 34.94 -9 53 c -0.5 2.77 -1.01 5.82 -2 8 l -3 3"/><path fill="none" stroke="#000000" stroke-width="2" stroke-linecap="round" stroke-linejoin="round" d="M 68 101 c 0.12 0.02 5.96 -0.32 7 1 c 2.9 3.67 5.67 11.87 8 18 c 1.35 3.55 1.42 7.73 3 11 c 2.92 6.05 7.14 12.69 11 18 c 1.17 1.61 3.35 3.4 5 4 c 1.55 0.56 4.38 0.54 6 0 c 1.95 -0.65 5.32 -2.2 6 -4 c 3.21 -8.48 5.55 -21.65 8 -33 c 1.32 -6.1 3 -18 3 -18"/><path fill="none" stroke="#000000" stroke-width="2" stroke-linecap="round" stroke-linejoin="round" d="M 136 51 c 0 0.39 0.32 14.5 0 22 c -0.36 8.55 -1.98 24.56 -2 25 c -0.01 0.12 0.43 -4.74 1 -7 c 0.76 -3.04 1.62 -6.24 3 -9 c 2.55 -5.09 5.83 -10.92 9 -15 c 1.06 -1.36 3.38 -2.51 5 -3 c 1.39 -0.42 4.44 -0.84 5 0 c 1.39 2.08 2.5 8.04 3 12 c 0.48 3.84 0.39 8.15 0 12 c -0.26 2.65 -0.97 5.52 -2 8 c -2.24 5.38 -8 16 -8 16"/><path fill="none" stroke="#000000" stroke-width="2" stroke-linecap="round" stroke-linejoin="round" d="M 175 57 c 0.05 0.18 2.42 6.74 3 10 c 0.39 2.19 -0.35 4.88 0 7 c 0.27 1.63 1.02 3.87 2 5 c 1.07 1.22 5 3 5 3"/><path fill="none" stroke="#000000" stroke-width="2" stroke-linecap="round" stroke-linejoin="round" d="M 205 60 c 0.07 -0.09 4.05 -5.1 4 -5 c -0.14 0.27 -5.56 10.23 -9 15 c -7 9.71 -14.78 18.18 -22 28 c -6.13 8.34 -16.42 22.98 -17 25 c -0.22 0.78 7.92 -1.93 11 -4 c 14.47 -9.74 29.65 -21.52 44 -33 c 4.06 -3.25 7.65 -7.1 11 -11 c 2.63 -3.06 7 -10 7 -10"/><path fill="none" stroke="#000000" stroke-width="2" stroke-linecap="round" stroke-linejoin="round" d="M 200 30 c -0.1 0.26 -4.57 9.91 -6 15 c -1.53 5.44 -2.58 11.23 -3 17 c -1.25 17.05 -1.53 33.37 -2 51 c -0.22 8.29 -0.59 16.12 0 24 c 0.4 5.35 1.66 10.66 3 16 c 1.71 6.85 5.42 20.5 6 20 c 0.73 -0.62 1.62 -17.89 1 -26 c -0.33 -4.24 -2.96 -8.63 -4 -13 c -0.62 -2.59 0.02 -6.11 -1 -8 c -0.99 -1.83 -4.2 -4.74 -6 -5 c -1.97 -0.28 -6.39 1.39 -8 3 c -2.11 2.11 -3.95 6.84 -5 10 c -0.47 1.42 -0.63 4.12 0 5 c 0.68 0.95 3.34 1.94 5 2 c 15.68 0.56 51 0 51 0"/><path fill="none" stroke="#000000" stroke-width="2" stroke-linecap="round" stroke-linejoin="round" d="M 257 35 l 42 1"/><path fill="none" stroke="#000000" stroke-width="2" stroke-linecap="round" stroke-linejoin="round" d="M 270 1 c -0.07 0.09 -3.88 3.24 -4 5 c -1 14.81 0 54 0 54"/><path fill="none" stroke="#000000" stroke-width="2" stroke-linecap="round" stroke-linejoin="round" d="M 295 28 c -0.14 0.12 -6.32 4.25 -8 7 c -4.18 6.82 -6.67 16.32 -11 24 c -6.05 10.74 -12.62 21.82 -20 31 c -4.54 5.64 -11.2 10.59 -17 15 c -2.29 1.74 -8.06 4.42 -8 4 c 0.09 -0.66 5.67 -7.57 9 -11 c 7.45 -7.69 22.2 -21.37 23 -22 c 0.2 -0.16 -2.32 5.04 -4 7 c -4.13 4.82 -9.74 9.24 -14 14 c -1.25 1.4 -2.28 3.27 -3 5 c -0.9 2.16 -1.65 4.7 -2 7 c -0.29 1.89 -0.58 4.54 0 6 c 0.55 1.38 2.56 3.64 4 4 c 3.06 0.76 8.33 0.71 12 0 c 4.55 -0.88 9.98 -2.81 14 -5 c 2.88 -1.57 5.83 -4.4 8 -7 c 2.66 -3.19 5.25 -7.3 7 -11 c 1.11 -2.34 1.67 -5.36 2 -8 c 0.32 -2.56 0.54 -5.84 0 -8 c -0.34 -1.35 -2.36 -4.47 -3 -4 c -4.18 3.06 -16.41 14.96 -23 23 c -3.72 4.54 -6.34 10.48 -9 16 c -2.02 4.19 -3.54 8.49 -5 13 c -2.29 7.07 -7.65 20.84 -6 21 c 2.49 0.24 18.25 -12.22 27 -19 c 4.69 -3.63 9.09 -7.6 13 -12 c 6.76 -7.61 12.92 -15.81 19 -24 c 1.6 -2.16 3.32 -7.11 4 -7 c 0.69 0.12 1.67 5.36 2 8 l 0 8"/><path fill="none" stroke="#000000" stroke-width="2" stroke-linecap="round" stroke-linejoin="round" d="M 326 67 c 0.12 1.14 5.34 42.96 7 65 c 0.71 9.44 0 28 0 28"/><path fill="none" stroke="#000000" stroke-width="2" stroke-linecap="round" stroke-linejoin="round" d="M 28 247 l 1 1"/></svg>