<?xml version="1.0" encoding="UTF-8" standalone="no"?><!DOCTYPE svg PUBLIC "-//W3C//DTD SVG 1.1//EN" "http://www.w3.org/Graphics/SVG/1.1/DTD/svg11.dtd"><svg xmlns="http://www.w3.org/2000/svg" version="1.1" width="312" height="181"><path fill="none" stroke="#000000" stroke-width="2" stroke-linecap="round" stroke-linejoin="round" d="M 7 24 c 0.44 -0.05 17.03 -2.78 25 -3 c 3.54 -0.1 8.5 0.84 11 2 c 1 0.46 2.59 3.23 2 4 c -6.71 8.8 -22.98 27.48 -34 38 c -2.33 2.22 -9.84 3.9 -10 4 c -0.11 0.07 4.81 -1.03 7 -2 c 6.07 -2.67 12.03 -6.29 18 -9 c 1.22 -0.56 2.95 -1.15 4 -1 c 0.92 0.13 3.06 1.29 3 2 c -0.18 2.13 -2.35 6.81 -4 10 c -3.02 5.83 -7.13 11.09 -10 17 c -3.14 6.45 -7.53 17.78 -8 20 c -0.09 0.42 2.87 -0.44 4 -1 c 1.37 -0.68 2.57 -2.49 4 -3 c 3.82 -1.35 10.02 -3.35 13 -3 c 1.43 0.17 3.15 3.3 4 5 c 0.68 1.35 1 3.36 1 5 c 0 5.47 -0.33 11.43 -1 17 c -0.32 2.7 -1.06 5.49 -2 8 c -1.02 2.73 -2.4 5.69 -4 8 c -1.26 1.83 -3.13 3.72 -5 5 c -4.26 2.92 -9.88 6.88 -14 8 c -2.11 0.57 -6.42 -0.95 -8 -2 l -1 -4"/><path fill="none" stroke="#000000" stroke-width="2" stroke-linecap="round" stroke-linejoin="round" d="M 36 95 c 0.16 -0.07 5.87 -2.92 9 -4 c 7.65 -2.63 15.21 -4.34 23 -7 c 7.28 -2.48 14.55 -4.88 21 -8 c 2.87 -1.39 6.99 -4.49 8 -6 l -2 -3"/><path fill="none" stroke="#000000" stroke-width="2" stroke-linecap="round" stroke-linejoin="round" d="M 70 51 c -0.12 0.37 -5.65 13.85 -7 21 c -3.27 17.27 -4.19 35.1 -7 53 c -0.92 5.85 -4 11.67 -4 17 c 0 7.12 2.14 19.28 4 23 c 0.56 1.13 5.56 0.21 7 -1 c 3.91 -3.29 8.76 -9.78 12 -15 c 2.57 -4.14 4.39 -9.18 6 -14 c 2.07 -6.22 4.2 -12.74 5 -19 c 0.82 -6.37 0 -20 0 -20"/><path fill="none" stroke="#000000" stroke-width="2" stroke-linecap="round" stroke-linejoin="round" d="M 88 36 l 1 1"/><path fill="none" stroke="#000000" stroke-width="2" stroke-linecap="round" stroke-linejoin="round" d="M 89 36 c -0.32 0.96 -11.64 36.21 -18 55 c -1.18 3.5 -2.39 7.59 -4 10 c -0.67 1 -4.1 1.69 -4 2 c 0.12 0.36 3.88 0.12 5 1 c 2.95 2.32 6.33 6.51 9 10 c 1.6 2.09 2.46 4.84 4 7 c 1.76 2.47 3.81 4.74 6 7 c 7.38 7.64 14.3 15.71 22 22 c 4.55 3.71 11.2 7.33 16 9 l 7 -1"/><path fill="none" stroke="#000000" stroke-width="2" stroke-linecap="round" stroke-linejoin="round" d="M 140 15 l 0 8"/><path fill="none" stroke="#000000" stroke-width="2" stroke-linecap="round" stroke-linejoin="round" d="M 112 73 c 0.74 -0.24 27.99 -8.84 42 -14 c 5.24 -1.93 15 -7 15 -7"/><path fill="none" stroke="#000000" stroke-width="2" stroke-linecap="round" stroke-linejoin="round" d="M 132 83 c -0.02 0.54 -1 20.57 -1 31 c 0 3.71 0.27 7.54 1 11 c 0.56 2.68 3 8 3 8"/><path fill="none" stroke="#000000" stroke-width="2" stroke-linecap="round" stroke-linejoin="round" d="M 153 90 c 0.02 0.09 1 3.38 1 5 c 0 3.18 -0.49 6.6 -1 10 c -1.2 7.89 -4 23 -4 23"/><path fill="none" stroke="#000000" stroke-width="2" stroke-linecap="round" stroke-linejoin="round" d="M 117 144 c 0.19 0 7.37 0.38 11 0 c 6.02 -0.62 11.97 -1.64 18 -3 c 7.54 -1.7 22 -6 22 -6"/><path fill="none" stroke="#000000" stroke-width="2" stroke-linecap="round" stroke-linejoin="round" d="M 176 81 c 0.38 -0.14 14.56 -5.02 22 -8 c 6.26 -2.5 12.21 -4.92 18 -8 c 4.89 -2.6 9.6 -5.82 14 -9 c 1.5 -1.08 3.13 -2.61 4 -4 l 1 -4"/><path fill="none" stroke="#000000" stroke-width="2" stroke-linecap="round" stroke-linejoin="round" d="M 213 33 c -0.05 1.33 -1.53 50.76 -3 76 c -0.2 3.38 -1.84 6.77 -2 10 c -0.16 3.18 1 6.66 1 10 c 0 5.32 -1.22 11 -1 16 c 0.1 2.27 1.87 4.76 2 7 c 0.18 3.09 -1 10 -1 10"/><path fill="none" stroke="#000000" stroke-width="2" stroke-linecap="round" stroke-linejoin="round" d="M 215 75 c -0.3 0.42 -12.57 15.48 -17 24 c -8.04 15.44 -21 49 -21 49"/><path fill="none" stroke="#000000" stroke-width="2" stroke-linecap="round" stroke-linejoin="round" d="M 208 83 c 0.07 0.09 2.49 3.49 4 5 c 4.51 4.51 9.01 9.34 14 13 c 4.79 3.51 10.53 6.46 16 9 c 3.77 1.75 12 4 12 4"/><path fill="none" stroke="#000000" stroke-width="2" stroke-linecap="round" stroke-linejoin="round" d="M 248 1 c -0.02 0.1 -0.31 4.16 -1 6 c -3.21 8.56 -9.86 20.31 -11 26 c -0.26 1.29 3.55 4.21 5 4 c 3.96 -0.57 10.49 -5.11 16 -7 c 7.2 -2.46 14.58 -4.27 22 -6 c 2.62 -0.61 5.3 -0.79 8 -1 c 1.68 -0.13 3.62 -0.34 5 0 c 1 0.25 2.62 1.16 3 2 c 0.74 1.66 1.84 5.27 1 7 c -4.78 9.79 -13.15 22.99 -21 34 c -13.16 18.46 -27.5 34.81 -41 53 c -3.08 4.14 -6.8 9.59 -8 13 c -0.35 1 1.07 3.59 2 4 c 1.45 0.64 4.74 0.32 7 0 c 4.63 -0.66 9.59 -1.44 14 -3 c 6.75 -2.38 13.98 -5.86 20 -9 c 1.16 -0.61 2.26 -1.89 3 -3 l 3 -6"/><path fill="none" stroke="#000000" stroke-width="2" stroke-linecap="round" stroke-linejoin="round" d="M 244 75 c 0.45 -0.12 17.31 -5.17 26 -7 c 3.89 -0.82 8.86 -1.79 12 -1 c 2.61 0.65 6.31 3.8 8 6 c 1.23 1.6 1.74 4.69 2 7 c 0.39 3.49 0.55 7.48 0 11 c -1.08 6.91 -2.96 14.19 -5 21 c -0.93 3.11 -2.35 6.14 -4 9 c -7.08 12.26 -14.73 23.61 -22 36 c -1.93 3.28 -3.65 6.55 -5 10 c -1.64 4.2 -4 13 -4 13"/><path fill="none" stroke="#000000" stroke-width="2" stroke-linecap="round" stroke-linejoin="round" d="M 229 108 c 0.68 -0.07 26.31 -1.57 39 -4 c 11.47 -2.2 23.19 -6.4 34 -10 c 1.78 -0.59 3.31 -2.25 5 -3 c 1.19 -0.53 4 -1 4 -1"/><path fill="none" stroke="#000000" stroke-width="2" stroke-linecap="round" stroke-linejoin="round" d="M 278 89 c -0.09 0.33 -3.63 12.49 -5 19 c -1.34 6.38 -2.53 12.62 -3 19 c -0.53 7.3 0 22 0 22"/></svg>