<?xml version="1.0" encoding="UTF-8" standalone="no"?><!DOCTYPE svg PUBLIC "-//W3C//DTD SVG 1.1//EN" "http://www.w3.org/Graphics/SVG/1.1/DTD/svg11.dtd"><svg xmlns="http://www.w3.org/2000/svg" version="1.1" width="259" height="155"><path fill="none" stroke="#000000" stroke-width="2" stroke-linecap="round" stroke-linejoin="round" d="M 106 66 l 2 4"/><path fill="none" stroke="#000000" stroke-width="2" stroke-linecap="round" stroke-linejoin="round" d="M 5 25 c 0.04 -0.05 1.19 -2.19 2 -3 c 1.76 -1.76 3.85 -3.92 6 -5 c 3.49 -1.74 7.95 -3.22 12 -4 c 6.11 -1.18 12.69 -1.81 19 -2 c 4.63 -0.14 12.16 -0.56 14 1 c 1.32 1.12 -0.3 6.85 -1 10 c -0.6 2.68 -1.67 5.52 -3 8 c -3.63 6.78 -7.77 13.78 -12 20 l -5 5"/><path fill="none" stroke="#000000" stroke-width="2" stroke-linecap="round" stroke-linejoin="round" d="M 13 58 c 0.42 -0.23 15.88 -9.82 24 -13 c 6.71 -2.63 20.19 -5.21 22 -5 c 0.69 0.08 -3.05 4.96 -5 7 c -5.3 5.54 -10.89 11.11 -17 16 c -9 7.2 -27.24 17.94 -28 20 c -0.46 1.26 14.6 -1.73 21 -1 c 4.53 0.52 10.78 2.99 14 5 c 1.17 0.73 1.85 3.47 2 5 c 0.14 1.45 -0.29 3.58 -1 5 c -2.12 4.24 -4.78 9.63 -8 13 c -3.63 3.8 -9.34 7.57 -14 10 c -2.5 1.3 -6.17 1.81 -9 2 c -1.86 0.12 -4.32 -0.33 -6 -1 c -1.38 -0.55 -2.87 -1.87 -4 -3 l -3 -4"/><path fill="none" stroke="#000000" stroke-width="2" stroke-linecap="round" stroke-linejoin="round" d="M 49 83 c 0.37 -0.1 13.99 -4.51 21 -6 c 3.87 -0.82 8.05 -0.41 12 -1 c 2.71 -0.41 5.36 -1.67 8 -2 c 2.56 -0.32 5.47 0.34 8 0 c 2.3 -0.31 4.76 -1.14 7 -2 c 2.06 -0.79 4.25 -1.83 6 -3 l 3 -3"/><path fill="none" stroke="#000000" stroke-width="2" stroke-linecap="round" stroke-linejoin="round" d="M 89 39 c -0.09 0.14 -3.73 5.2 -5 8 c -2.01 4.41 -3.65 9.19 -5 14 c -1.68 5.97 -2.33 11.99 -4 18 c -1.72 6.19 -4.37 11.86 -6 18 c -1.39 5.27 -1.64 10.77 -3 16 c -0.97 3.76 -2.98 7.31 -4 11 c -0.62 2.23 -1 4.83 -1 7 c 0 1.27 0.43 4.06 1 4 c 1.31 -0.15 5.83 -2.92 8 -5 c 5.86 -5.62 12.05 -12.33 17 -19 c 3.57 -4.8 6.21 -10.42 9 -16 c 3.34 -6.67 5.61 -13.9 9 -20 c 1.42 -2.56 4.24 -4.53 6 -7 c 1.54 -2.16 3.12 -4.57 4 -7 c 1.7 -4.69 2.35 -10.52 4 -15 l 3 -4"/><path fill="none" stroke="#000000" stroke-width="2" stroke-linecap="round" stroke-linejoin="round" d="M 130 24 c -0.3 0.35 -11.54 12.93 -17 20 c -6.12 7.92 -10.7 16.57 -17 24 c -6.66 7.86 -14.82 15.37 -22 22 c -1.03 0.95 -3.61 2.39 -4 2 c -0.52 -0.52 -0.79 -4.76 0 -6 c 1.13 -1.77 4.9 -4.55 7 -5 c 1.78 -0.38 4.84 1.1 7 2 c 1.73 0.72 3.53 1.82 5 3 c 1.78 1.43 3.13 3.64 5 5 c 5.35 3.89 11.74 7 17 11 c 2.94 2.24 5.06 5.6 8 8 c 9.82 8.01 30 23 30 23"/><path fill="none" stroke="#000000" stroke-width="2" stroke-linecap="round" stroke-linejoin="round" d="M 160 16 c 0.02 0.19 1.14 7.41 1 11 c -0.19 4.92 -2 15 -2 15"/><path fill="none" stroke="#000000" stroke-width="2" stroke-linecap="round" stroke-linejoin="round" d="M 133 77 c 0.37 -0.25 13.77 -10.3 21 -14 c 6.07 -3.11 13.13 -4.85 20 -7 c 4.01 -1.25 10.72 -2.01 12 -3 c 0.52 -0.4 -3 -4 -3 -4"/><path fill="none" stroke="#000000" stroke-width="2" stroke-linecap="round" stroke-linejoin="round" d="M 156 75 c -0.07 0.16 -3.08 5.95 -4 9 c -1.04 3.46 -1.63 7.33 -2 11 c -0.3 2.95 -0.39 6.26 0 9 c 0.23 1.64 1.13 3.61 2 5 l 3 3"/><path fill="none" stroke="#000000" stroke-width="2" stroke-linecap="round" stroke-linejoin="round" d="M 171 73 c -0.02 0.35 -0.09 13.85 -1 20 c -0.35 2.34 -3 7 -3 7"/><path fill="none" stroke="#000000" stroke-width="2" stroke-linecap="round" stroke-linejoin="round" d="M 147 122 c 0.19 -0.02 7.59 -0.19 11 -1 c 3.33 -0.79 6.52 -2.92 10 -4 c 10.74 -3.32 32 -9 32 -9"/><path fill="none" stroke="#000000" stroke-width="2" stroke-linecap="round" stroke-linejoin="round" d="M 198 57 c 0.14 -0.07 5.23 -3.11 8 -4 c 6.39 -2.05 13.76 -2.73 20 -5 c 4.47 -1.63 13 -7 13 -7"/><path fill="none" stroke="#000000" stroke-width="2" stroke-linecap="round" stroke-linejoin="round" d="M 219 7 c -0.02 1.01 -0.22 38.04 -1 58 c -0.6 15.17 -1.45 29.52 -3 44 c -0.44 4.06 -2.58 7.98 -3 12 c -0.89 8.46 -1 26 -1 26"/><path fill="none" stroke="#000000" stroke-width="2" stroke-linecap="round" stroke-linejoin="round" d="M 215 63 c -0.05 0.14 -1.73 5.41 -3 8 c -6.16 12.6 -12.17 25.04 -19 37 c -2.46 4.31 -6.68 10.22 -9 12 c -0.69 0.53 -4 -2 -4 -2"/><path fill="none" stroke="#000000" stroke-width="2" stroke-linecap="round" stroke-linejoin="round" d="M 209 68 c 0.09 0.05 3.54 1.81 5 3 c 2.12 1.73 4.4 3.82 6 6 c 1.94 2.65 3.34 5.86 5 9 c 1.44 2.73 3.04 5.28 4 8 c 0.99 2.81 1.58 6.03 2 9 l 0 5"/><path fill="none" stroke="#000000" stroke-width="2" stroke-linecap="round" stroke-linejoin="round" d="M 243 1 c 0 0.14 0.63 5.55 0 8 c -2.87 11.23 -6.8 23.56 -11 35 c -1.79 4.88 -6.8 13.67 -7 14 c -0.05 0.09 0.43 -2.85 1 -4 c 1.01 -2.01 2.31 -4.46 4 -6 c 8.51 -7.72 28 -23 28 -23"/><path fill="none" stroke="#000000" stroke-width="2" stroke-linecap="round" stroke-linejoin="round" d="M 243 52 c -0.07 0.14 -2.96 5.18 -4 8 c -6.02 16.33 -10.72 32.93 -17 49 c -2.06 5.27 -7.52 12.27 -8 15 c -0.15 0.86 3.64 2.3 5 2 c 3.63 -0.81 8.48 -4.22 13 -6 c 6.69 -2.64 13.82 -4.43 20 -7 l 4 -3"/><path fill="none" stroke="#000000" stroke-width="2" stroke-linecap="round" stroke-linejoin="round" d="M 232 59 c 0.21 -0.03 7.99 -1.53 12 -2 c 1.65 -0.19 3.49 -0.3 5 0 c 1.62 0.32 4.81 0.93 5 2 c 0.53 3.02 -1.01 10.07 -2 15 c -0.68 3.4 -2.25 6.56 -3 10 c -1.61 7.37 -2.97 14.47 -4 22 c -1.02 7.44 -1.05 14.64 -2 22 c -0.4 3.07 -1.04 6.13 -2 9 c -1.02 3.06 -3.18 6.13 -4 9 c -0.42 1.46 0.34 3.62 0 5 c -0.25 1 -1.35 3 -2 3 l -5 -3"/><path fill="none" stroke="#000000" stroke-width="2" stroke-linecap="round" stroke-linejoin="round" d="M 219 95 c 0.56 0 21.68 0.29 32 0 c 1.33 -0.04 4 -1 4 -1"/><path fill="none" stroke="#000000" stroke-width="2" stroke-linecap="round" stroke-linejoin="round" d="M 235 74 c -0.02 0.09 -0.94 3.33 -1 5 c -0.27 7.21 0.34 14.47 0 22 c -0.69 15.09 -3 44 -3 44"/></svg>