<?xml version="1.0" encoding="UTF-8" standalone="no"?><!DOCTYPE svg PUBLIC "-//W3C//DTD SVG 1.1//EN" "http://www.w3.org/Graphics/SVG/1.1/DTD/svg11.dtd"><svg xmlns="http://www.w3.org/2000/svg" version="1.1" width="331" height="189"><path fill="none" stroke="#000000" stroke-width="2" stroke-linecap="round" stroke-linejoin="round" d="M 1 31 c 0.63 -0.19 25.21 -8.37 36 -11 c 1.46 -0.36 4.73 0.18 5 1 c 0.44 1.33 -0.78 5.68 -2 8 c -5.49 10.47 -12.28 21.3 -19 32 c -2.46 3.91 -8 11 -8 11"/><path fill="none" stroke="#000000" stroke-width="2" stroke-linecap="round" stroke-linejoin="round" d="M 3 75 c 0.21 -0.14 7.76 -5.53 12 -8 c 10.4 -6.05 20.62 -11.67 31 -17 c 1.86 -0.95 4.67 -1 6 -2 c 0.94 -0.7 2.05 -4.06 2 -4 c -0.12 0.15 -3.84 6.41 -6 9 c -1 1.2 -2.87 1.87 -4 3 c -1.13 1.13 -2.05 2.58 -3 4 c -3.16 4.74 -6.07 9.12 -9 14 c -2.2 3.67 -4.4 7.15 -6 11 c -3.4 8.16 -5.64 16.84 -9 25 c -1.3 3.16 -4.95 8.81 -5 9 c -0.03 0.12 2.5 -3.5 4 -5 c 3.16 -3.16 6.56 -6.42 10 -9 c 1.72 -1.29 4.09 -2.76 6 -3 c 2.86 -0.36 7.97 -0.35 10 1 c 2.08 1.39 4.04 6.13 5 9 c 0.56 1.67 0.27 4.08 0 6 c -0.38 2.63 -1.09 5.43 -2 8 c -1.08 3.07 -2.36 6.18 -4 9 c -3.01 5.16 -6.26 10.88 -10 15 c -2.53 2.79 -7.38 6.3 -10 7 l -5 -3"/><path fill="none" stroke="#000000" stroke-width="2" stroke-linecap="round" stroke-linejoin="round" d="M 48 100 c 0.6 -0.23 23.29 -7.97 34 -13 c 5.31 -2.49 10.93 -6.65 15 -10 c 1.01 -0.83 2 -4 2 -4"/><path fill="none" stroke="#000000" stroke-width="2" stroke-linecap="round" stroke-linejoin="round" d="M 77 49 c 0 0.37 0.28 13.81 0 21 c -0.41 10.64 -0.95 20.5 -2 31 c -0.65 6.5 -1.73 12.52 -3 19 c -2.16 11.04 -6.66 26.34 -7 32 c -0.05 0.88 3.75 1.55 5 1 c 5.72 -2.52 14.15 -7.43 20 -12 c 4.44 -3.47 8.9 -8.35 12 -13 c 3.29 -4.94 8 -17 8 -17"/><path fill="none" stroke="#000000" stroke-width="2" stroke-linecap="round" stroke-linejoin="round" d="M 108 50 c -0.05 0.21 -1.73 8.04 -3 12 c -1.43 4.46 -2.99 8.75 -5 13 c -3.74 7.91 -7.67 15.78 -12 23 c -1.54 2.57 -3.89 5.27 -6 7 c -1.24 1.01 -3.5 1.83 -5 2 c -1.15 0.13 -4.11 -1.1 -4 -1 c 0.35 0.3 7.51 4.32 11 7 c 12.39 9.49 23.59 19.76 36 29 c 4.69 3.5 9.86 6.43 15 9 c 3.44 1.72 11 4 11 4"/><path fill="none" stroke="#000000" stroke-width="2" stroke-linecap="round" stroke-linejoin="round" d="M 148 21 c 0.11 0.28 4.47 10.56 6 16 c 1.46 5.18 3 16 3 16"/><path fill="none" stroke="#000000" stroke-width="2" stroke-linecap="round" stroke-linejoin="round" d="M 128 83 c 0.42 -0.17 16.07 -6.22 24 -10 c 6.96 -3.32 13.46 -6.99 20 -11 c 3.9 -2.39 10.81 -7.86 11 -8 l -3 2"/><path fill="none" stroke="#000000" stroke-width="2" stroke-linecap="round" stroke-linejoin="round" d="M 156 84 c -0.05 0.05 -2.51 1.86 -3 3 c -1.31 3.06 -2.29 7.29 -3 11 c -0.62 3.27 -1.16 6.71 -1 10 c 0.49 9.87 3 30 3 30"/><path fill="none" stroke="#000000" stroke-width="2" stroke-linecap="round" stroke-linejoin="round" d="M 166 98 c 0.03 0.23 2.32 9.14 2 13 c -0.29 3.43 -4 11 -4 11"/><path fill="none" stroke="#000000" stroke-width="2" stroke-linecap="round" stroke-linejoin="round" d="M 140 142 c 0.19 0 7.35 0.3 11 0 c 4.36 -0.36 8.64 -1.04 13 -2 c 9.58 -2.1 19.32 -3.79 28 -7 c 6.2 -2.29 12.46 -6.47 18 -10 c 1.52 -0.97 4 -4 4 -4"/><path fill="none" stroke="#000000" stroke-width="2" stroke-linecap="round" stroke-linejoin="round" d="M 200 65 c 0.65 -0.19 25.46 -6.97 37 -11 c 2.16 -0.75 4.32 -2.5 6 -4 c 1.17 -1.04 2.56 -2.68 3 -4 c 0.44 -1.32 0 -5 0 -5"/><path fill="none" stroke="#000000" stroke-width="2" stroke-linecap="round" stroke-linejoin="round" d="M 226 22 c 0 0.39 -0.27 14.45 0 22 c 0.41 11.34 1.66 21.66 2 33 c 0.35 11.67 0.18 22.23 0 34 c -0.16 10.39 -0.28 19.96 -1 30 c -0.29 4.07 -1.58 7.91 -2 12 c -0.59 5.73 -1 11.46 -1 17 c 0 1.98 0.4 5.76 1 6 l 4 -4"/><path fill="none" stroke="#000000" stroke-width="2" stroke-linecap="round" stroke-linejoin="round" d="M 228 69 c -0.4 0.84 -14.65 31.94 -23 48 c -4.93 9.47 -10.38 17.91 -16 27 c -1.54 2.49 -3.23 5.01 -5 7 c -0.74 0.83 -2.72 2.35 -3 2 c -0.55 -0.69 -1 -7 -1 -7"/><path fill="none" stroke="#000000" stroke-width="2" stroke-linecap="round" stroke-linejoin="round" d="M 230 71 c 0.25 0.33 9.87 12.48 14 19 c 2.11 3.34 2.92 7.73 5 11 c 2.45 3.85 9 11 9 11"/><path fill="none" stroke="#000000" stroke-width="2" stroke-linecap="round" stroke-linejoin="round" d="M 269 1 c -0.11 0.46 -3.65 17.2 -6 26 c -1.75 6.57 -6 16.91 -6 19 c 0 0.66 4.08 -1.11 6 -2 c 8.13 -3.79 15.77 -8.56 24 -12 c 6.11 -2.56 13.03 -3.83 19 -6 c 1.08 -0.39 3 -2.27 3 -2 c 0 0.7 -1.37 6.43 -3 9 c -17.32 27.31 -38.09 55.4 -56 84 c -4.52 7.22 -8.71 16.12 -11 23 c -0.64 1.91 -0.08 6.04 1 7 c 1.23 1.1 5.56 1.48 8 1 c 13.43 -2.63 28.38 -7.67 43 -11 c 4.66 -1.06 9.29 -1.06 14 -2 c 7.19 -1.44 16.44 -3.13 21 -5 l 1 -4"/><path fill="none" stroke="#000000" stroke-width="2" stroke-linecap="round" stroke-linejoin="round" d="M 273 87 c 0.09 -0.14 2.94 -6.22 5 -8 c 2.44 -2.12 6.62 -3.87 10 -5 c 3.38 -1.13 7.33 -1.59 11 -2 c 2.3 -0.26 4.75 -0.2 7 0 c 1.33 0.12 2.96 0.41 4 1 c 1.07 0.61 2.7 1.89 3 3 c 0.84 3.16 1.15 8.08 1 12 c -0.18 4.93 -1.16 9.83 -2 15 c -4.35 26.68 -8.25 53.81 -13 77 c -0.44 2.14 -2.51 4.51 -4 6 c -0.92 0.92 -2.77 1.86 -4 2 l -5 -1"/><path fill="none" stroke="#000000" stroke-width="2" stroke-linecap="round" stroke-linejoin="round" d="M 242 121 c 0.18 -0.05 6.6 -2.55 10 -3 c 16.69 -2.19 35.5 -1.72 51 -5 c 6.77 -1.43 13.5 -6.39 20 -10 c 2.5 -1.39 6.29 -3.31 7 -5 c 0.6 -1.43 -2 -7 -2 -7"/><path fill="none" stroke="#000000" stroke-width="2" stroke-linecap="round" stroke-linejoin="round" d="M 298 89 c -0.09 0.11 -3.87 3.87 -5 6 c -1.38 2.58 -2.73 5.98 -3 9 c -1.65 18.19 -3 57 -3 57"/></svg>