<?xml version="1.0" encoding="UTF-8" standalone="no"?><!DOCTYPE svg PUBLIC "-//W3C//DTD SVG 1.1//EN" "http://www.w3.org/Graphics/SVG/1.1/DTD/svg11.dtd"><svg xmlns="http://www.w3.org/2000/svg" version="1.1" width="322" height="212"><path fill="none" stroke="#000000" stroke-width="2" stroke-linecap="round" stroke-linejoin="round" d="M 7 23 c 0.21 -0.12 7.81 -4.91 12 -7 c 5.27 -2.63 11.13 -5.73 16 -7 c 1.97 -0.51 6.46 -0.17 7 1 c 0.92 1.98 0.39 8.77 -1 12 c -2.23 5.21 -11 16 -11 16"/><path fill="none" stroke="#000000" stroke-width="2" stroke-linecap="round" stroke-linejoin="round" d="M 1 64 c 0.26 -0.17 9.76 -7.23 15 -10 c 5.99 -3.17 12.74 -5.83 19 -8 c 2.15 -0.74 5.09 -1.32 7 -1 c 1.58 0.26 4.44 1.89 5 3 c 0.49 0.97 -0.31 3.52 -1 5 c -5.42 11.7 -11.46 23.94 -18 36 c -4.37 8.06 -14.12 20.71 -14 23 c 0.07 1.32 11.18 -4 15 -4 c 1.57 0 3.65 2.5 5 4 c 1.52 1.69 3.46 3.96 4 6 c 0.97 3.7 1 8.64 1 13 c 0 5.36 0.03 11.04 -1 16 c -0.89 4.31 -2.89 8.92 -5 13 c -3.19 6.18 -7.28 13.63 -11 18 c -1.11 1.31 -4.58 2.16 -6 2 l -3 -3"/><path fill="none" stroke="#000000" stroke-width="2" stroke-linecap="round" stroke-linejoin="round" d="M 40 100 c 0.68 -0.23 25.87 -8.22 39 -13 c 5.58 -2.03 11.04 -4.4 16 -7 c 1.82 -0.95 4.03 -2.55 5 -4 c 0.77 -1.15 1.16 -3.6 1 -5 l -2 -4"/><path fill="none" stroke="#000000" stroke-width="2" stroke-linecap="round" stroke-linejoin="round" d="M 79 55 c -0.09 0.67 -3.85 24.99 -5 38 c -1.23 13.94 -1.77 27.09 -2 41 c -0.11 6.79 1 13.26 1 20 c 0 4.72 -1.17 9.44 -1 14 c 0.16 4.27 0.88 12.78 2 13 c 1.16 0.23 5.78 -7.12 8 -11 c 3.07 -5.37 5.76 -11.11 8 -17 c 3.14 -8.23 8 -25 8 -25"/><path fill="none" stroke="#000000" stroke-width="2" stroke-linecap="round" stroke-linejoin="round" d="M 116 23 c -0.17 0.42 -6.16 16.05 -10 24 c -5.68 11.77 -11.65 22.28 -18 34 c -2.66 4.91 -5.06 9.59 -8 14 c -1.68 2.52 -3.92 4.92 -6 7 c -0.81 0.81 -3.37 1.76 -3 2 c 4.42 2.9 25.36 13.27 38 21 c 16.39 10.03 47 31 47 31"/><path fill="none" stroke="#000000" stroke-width="2" stroke-linecap="round" stroke-linejoin="round" d="M 158 33 c -0.04 0.32 -0.9 12.03 -2 18 c -1.25 6.79 -1.99 14.43 -5 20 c -5.42 10.04 -20.49 27.56 -22 30 c -0.17 0.27 3.04 -0.23 4 -1 c 12.28 -9.77 26.11 -22.52 40 -34 c 3.97 -3.28 8.37 -5.82 12 -9 l 4 -5"/><path fill="none" stroke="#000000" stroke-width="2" stroke-linecap="round" stroke-linejoin="round" d="M 155 105 c -0.03 0.28 -1.6 10.59 -2 16 c -0.27 3.69 -0.36 7.44 0 11 c 0.3 2.99 1.03 6.27 2 9 c 0.62 1.73 1.95 4.61 3 5 c 0.97 0.36 5 -2 5 -2"/><path fill="none" stroke="#000000" stroke-width="2" stroke-linecap="round" stroke-linejoin="round" d="M 175 107 c 0.02 0.12 1.41 4.9 1 7 c -1.44 7.43 -7 24 -7 24"/><path fill="none" stroke="#000000" stroke-width="2" stroke-linecap="round" stroke-linejoin="round" d="M 142 163 c 0.19 -0.04 7.39 -1 11 -2 c 8.49 -2.36 16.52 -5.03 25 -8 c 5.22 -1.83 9.87 -3.83 15 -6 c 3.84 -1.62 8.18 -2.8 11 -5 c 2.67 -2.07 7 -9 7 -9"/><path fill="none" stroke="#000000" stroke-width="2" stroke-linecap="round" stroke-linejoin="round" d="M 209 88 c 0.77 -0.39 29.54 -14.24 44 -22 c 3.59 -1.93 10 -7 10 -7"/><path fill="none" stroke="#000000" stroke-width="2" stroke-linecap="round" stroke-linejoin="round" d="M 234 31 c -0.02 0.58 -1.15 21.74 -1 33 c 0.19 13.66 1 26.19 2 40 c 1.42 19.74 3.75 37.4 5 57 c 0.81 12.68 0.42 24.63 1 37 c 0.09 2.03 0.8 5.8 1 6 l 1 -4"/><path fill="none" stroke="#000000" stroke-width="2" stroke-linecap="round" stroke-linejoin="round" d="M 237 94 c -0.28 0.6 -9.74 23.21 -16 34 c -7.07 12.19 -15.65 24.44 -24 35 c -2.52 3.19 -6.97 5.2 -10 8 c -1.18 1.09 -3 4 -3 4"/><path fill="none" stroke="#000000" stroke-width="2" stroke-linecap="round" stroke-linejoin="round" d="M 227 92 c 0.12 0.03 4.77 1.11 7 2 c 2.74 1.09 5.75 2.31 8 4 c 2.84 2.13 6.26 4.97 8 8 c 4.21 7.31 11 25 11 25"/><path fill="none" stroke="#000000" stroke-width="2" stroke-linecap="round" stroke-linejoin="round" d="M 271 1 c -0.02 0.18 -0.3 6.71 -1 10 c -2.65 12.46 -6.48 24.95 -9 37 c -0.4 1.9 -0.8 5.94 0 6 c 1.86 0.14 8.75 -3.05 13 -5 c 3.82 -1.75 7.38 -4.51 11 -6 c 1.76 -0.72 4.45 -1.31 6 -1 c 1.27 0.25 3.67 1.89 4 3 c 0.47 1.56 -0.39 4.75 -1 7 c -1.37 5.03 -2.94 10.1 -5 15 c -3.33 7.9 -7.05 15.1 -11 23 c -4.71 9.42 -8.82 18.13 -14 27 c -4.3 7.36 -9.8 13.7 -14 21 c -3.5 6.08 -8.3 15.15 -9 19 c -0.19 1.07 3.42 2.74 5 3 c 1.91 0.32 4.74 -0.36 7 -1 c 10.71 -3.02 21.82 -5.97 32 -10 c 5.58 -2.21 10.7 -5.71 16 -9 c 4.56 -2.83 9.84 -5.52 13 -9 l 7 -13"/><path fill="none" stroke="#000000" stroke-width="2" stroke-linecap="round" stroke-linejoin="round" d="M 270 87 c 0.21 -0.03 8.3 -2 12 -2 c 2.51 0 5.49 1.06 8 2 c 2.73 1.02 6.24 2.24 8 4 c 1.76 1.76 3.2 5.23 4 8 c 2.11 7.28 4.42 15.44 5 23 c 0.72 9.33 0.38 19.72 -1 29 c -1.23 8.31 -3.81 17.08 -7 25 c -4.4 10.91 -10.7 23.57 -16 32 c -0.99 1.58 -4.22 2.64 -6 3 l -4 -1"/><path fill="none" stroke="#000000" stroke-width="2" stroke-linecap="round" stroke-linejoin="round" d="M 260 132 c 0.3 -0.1 11.28 -4.57 17 -6 c 4.8 -1.2 9.99 -1.88 15 -2 c 8.94 -0.21 27 1 27 1"/><path fill="none" stroke="#000000" stroke-width="2" stroke-linecap="round" stroke-linejoin="round" d="M 278 112 l 2 52"/></svg>