<?xml version="1.0" encoding="UTF-8" standalone="no"?><!DOCTYPE svg PUBLIC "-//W3C//DTD SVG 1.1//EN" "http://www.w3.org/Graphics/SVG/1.1/DTD/svg11.dtd"><svg xmlns="http://www.w3.org/2000/svg" version="1.1" width="254" height="138"><path fill="none" stroke="#000000" stroke-width="2" stroke-linecap="round" stroke-linejoin="round" d="M 1 76 c 1.47 -0.72 82.22 -40.15 84 -41 c 0.1 -0.05 -3.57 1.79 -4 3 c -0.95 2.67 -1.51 7.68 -1 11 c 0.73 4.75 4.28 10.09 5 15 c 0.87 5.91 0.62 13 0 19 c -0.34 3.3 -1.45 7.15 -3 10 c -2.23 4.09 -5.72 8.21 -9 12 c -3.09 3.58 -6.42 6.77 -10 10 c -6.65 5.99 -13.18 11.69 -20 17 c -2.1 1.63 -4.66 3.03 -7 4 c -1.48 0.62 -3.39 1 -5 1 c -2.86 0 -7.37 -0.02 -9 -1 c -0.92 -0.55 -0.21 -4.21 -1 -5 l -5 -1"/><path fill="none" stroke="#000000" stroke-width="2" stroke-linecap="round" stroke-linejoin="round" d="M 135 18 c 0.03 0.07 1.64 2.61 2 4 c 1.9 7.34 5 23 5 23"/><path fill="none" stroke="#000000" stroke-width="2" stroke-linecap="round" stroke-linejoin="round" d="M 135 75 c -0.07 0.09 -3.64 3.2 -4 5 c -1.69 8.45 -2.41 19.8 -3 30 c -0.43 7.44 -0.21 22.32 0 22 c 0.24 -0.37 0.97 -16.58 2 -25 c 0.67 -5.47 1.54 -10.82 3 -16 c 1.53 -5.44 3.59 -10.85 6 -16 c 2.59 -5.53 5.55 -11.07 9 -16 c 3.47 -4.96 7.67 -9.67 12 -14 c 4 -4 8.4 -7.71 13 -11 c 4.73 -3.38 9.8 -6.31 15 -9 c 4.53 -2.34 9.24 -4.81 14 -6 c 8.21 -2.05 26 -4 26 -4"/><path fill="none" stroke="#000000" stroke-width="2" stroke-linecap="round" stroke-linejoin="round" d="M 207 6 c -0.1 -0.03 -4.22 -1.11 -6 -2 c -1.4 -0.7 -3.4 -3.45 -4 -3 c -1.18 0.89 -3.16 5.86 -4 9 c -5.77 21.65 -10.42 44.01 -16 66 c -0.44 1.74 -0.95 3.95 -2 5 c -1.57 1.57 -6.66 4.34 -7 4 c -0.34 -0.34 2.23 -5.23 4 -7 c 5.78 -5.78 13.11 -11.59 20 -17 c 2.48 -1.95 8 -5 8 -5"/><path fill="none" stroke="#000000" stroke-width="2" stroke-linecap="round" stroke-linejoin="round" d="M 166 101 c 0.07 0.12 3.49 4.7 4 7 c 0.7 3.14 0 11 0 11"/><path fill="none" stroke="#000000" stroke-width="2" stroke-linecap="round" stroke-linejoin="round" d="M 196 78 c 0.02 -0.1 0.95 -6.16 1 -6 c 0.11 0.32 0.91 7.9 1 12 c 0.25 11.58 -0.52 24.34 0 34 c 0.06 1.02 1.39 3.28 2 3 c 10.17 -4.62 53 -28 53 -28"/></svg>