<?xml version="1.0" encoding="UTF-8" standalone="no"?><!DOCTYPE svg PUBLIC "-//W3C//DTD SVG 1.1//EN" "http://www.w3.org/Graphics/SVG/1.1/DTD/svg11.dtd"><svg xmlns="http://www.w3.org/2000/svg" version="1.1" width="316" height="148"><path fill="none" stroke="#000000" stroke-width="2" stroke-linecap="round" stroke-linejoin="round" d="M 1 39 c 0.47 -0.09 18.01 -2.75 27 -5 c 11.29 -2.82 33 -10 33 -10"/><path fill="none" stroke="#000000" stroke-width="2" stroke-linecap="round" stroke-linejoin="round" d="M 36 85 c 0.14 -0.04 5.39 -1.09 8 -2 c 5.11 -1.78 10.12 -3.63 15 -6 c 6.22 -3.02 18 -10 18 -10"/><path fill="none" stroke="#000000" stroke-width="2" stroke-linecap="round" stroke-linejoin="round" d="M 63 50 c -0.1 0.38 -4.78 14.5 -6 22 c -2.79 17.21 -3.66 35.05 -6 52 c -0.28 2.05 -1.05 4.21 -2 6 c -1.63 3.06 -3.66 6.66 -6 9 c -2.34 2.34 -5.93 4.25 -9 6 l -5 2"/><path fill="none" stroke="#000000" stroke-width="2" stroke-linecap="round" stroke-linejoin="round" d="M 115 23 l 1 1"/><path fill="none" stroke="#000000" stroke-width="2" stroke-linecap="round" stroke-linejoin="round" d="M 87 86 c 0.67 -0.16 25.42 -5.37 38 -9 c 7.24 -2.09 14.1 -4.98 21 -8 c 3.84 -1.68 11 -6 11 -6"/><path fill="none" stroke="#000000" stroke-width="2" stroke-linecap="round" stroke-linejoin="round" d="M 121 87 l -2 26"/><path fill="none" stroke="#000000" stroke-width="2" stroke-linecap="round" stroke-linejoin="round" d="M 151 90 c -0.04 0.18 -1.03 6.88 -2 10 c -0.64 2.05 -3 6 -3 6"/><path fill="none" stroke="#000000" stroke-width="2" stroke-linecap="round" stroke-linejoin="round" d="M 102 125 c 0.18 0.05 6.72 2.53 10 3 c 3.46 0.49 7.34 0.29 11 0 c 4.71 -0.38 9.34 -0.99 14 -2 c 7.84 -1.69 15.47 -4.67 23 -6 c 3.48 -0.61 7.46 0.24 11 0 l 4 -1"/><path fill="none" stroke="#000000" stroke-width="2" stroke-linecap="round" stroke-linejoin="round" d="M 184 22 l 2 11"/><path fill="none" stroke="#000000" stroke-width="2" stroke-linecap="round" stroke-linejoin="round" d="M 191 12 c 0.65 -0.16 24.34 -6.21 37 -9 c 4.37 -0.96 9.18 -2 13 -2 c 1.56 0 3.87 1.02 5 2 c 1.22 1.07 2.48 3.31 3 5 c 0.72 2.34 1.27 5.57 1 8 c -0.35 3.15 -3 10 -3 10"/><path fill="none" stroke="#000000" stroke-width="2" stroke-linecap="round" stroke-linejoin="round" d="M 180 64 c 0.19 -0.07 7.33 -3.08 11 -4 c 2.84 -0.71 6.11 -0.24 9 -1 c 10.99 -2.88 33 -10 33 -10"/><path fill="none" stroke="#000000" stroke-width="2" stroke-linecap="round" stroke-linejoin="round" d="M 233 35 c -0.23 0.23 -9.06 8.44 -13 13 c -2.32 2.69 -4.11 5.85 -6 9 c -2.19 3.65 -4.3 7.17 -6 11 c -2.32 5.22 -4.83 11.31 -6 16 c -0.28 1.13 0.34 3.08 1 4 c 0.8 1.11 2.59 2.49 4 3 c 2.88 1.03 6.67 1.68 10 2 c 3.59 0.34 7.54 0.55 11 0 c 4.59 -0.73 14 -4 14 -4"/><path fill="none" stroke="#000000" stroke-width="2" stroke-linecap="round" stroke-linejoin="round" d="M 242 65 c -0.1 0.19 -4.45 7.19 -6 11 c -2.08 5.09 -4.06 10.57 -5 16 c -2.03 11.73 -2.33 24.29 -4 36 c -0.29 2.04 -1.08 4.15 -2 6 c -2.03 4.06 -7 12 -7 12"/><path fill="none" stroke="#000000" stroke-width="2" stroke-linecap="round" stroke-linejoin="round" d="M 178 133 c 1.12 -0.32 42.05 -11.41 64 -18 c 12.53 -3.76 23.7 -8.8 36 -12 c 12.21 -3.18 37 -7 37 -7"/></svg>