<?xml version="1.0" encoding="UTF-8" standalone="no"?><!DOCTYPE svg PUBLIC "-//W3C//DTD SVG 1.1//EN" "http://www.w3.org/Graphics/SVG/1.1/DTD/svg11.dtd"><svg xmlns="http://www.w3.org/2000/svg" version="1.1" width="140" height="185"><path fill="none" stroke="#000000" stroke-width="2" stroke-linecap="round" stroke-linejoin="round" d="M 83 7 l 4 22"/><path fill="none" stroke="#000000" stroke-width="2" stroke-linecap="round" stroke-linejoin="round" d="M 121 1 c -0.09 0.23 -2.99 8.82 -5 13 c -2.33 4.84 -5.06 9.41 -8 14 c -2.48 3.87 -4.99 7.7 -8 11 c -3.91 4.29 -13.74 12 -13 12 c 1.39 0 22.07 -9.19 31 -12 c 1.11 -0.35 4.25 0.54 4 1 c -1.49 2.71 -9.69 13.02 -15 19 c -2.64 2.97 -5.88 5.55 -9 8 c -1.51 1.19 -5.32 2.74 -5 3 c 0.56 0.45 7.01 1.33 10 1 c 2.54 -0.28 5.42 -2.4 8 -3 c 1.51 -0.35 4.89 -0.34 5 0 c 0.11 0.34 -2.84 1.84 -4 3 c -3.12 3.12 -5.67 6.96 -9 10 c -8.42 7.7 -23.69 19.08 -26 22 c -0.49 0.62 4.79 2 7 2 c 4.29 0 9.37 -0.91 14 -2 c 13.91 -3.29 41 -11 41 -11"/><path fill="none" stroke="#000000" stroke-width="2" stroke-linecap="round" stroke-linejoin="round" d="M 113 63 c -0.11 0.65 -4.56 24.38 -6 37 c -1.27 11.13 -2 21.8 -2 33 c 0 17.3 2 51 2 51"/><path fill="none" stroke="#000000" stroke-width="2" stroke-linecap="round" stroke-linejoin="round" d="M 10 30 l 6 13"/><path fill="none" stroke="#000000" stroke-width="2" stroke-linecap="round" stroke-linejoin="round" d="M 50 11 c -0.03 0.1 -0.94 4.27 -2 6 c -7 11.48 -14.81 23.08 -23 35 c -7.7 11.22 -23.93 30.03 -23 32 c 0.81 1.73 20.4 -10.55 31 -15 c 6.13 -2.58 18.06 -6.82 19 -6 c 0.8 0.7 -7.01 9.01 -11 13 c -3.99 3.99 -8.37 7.68 -13 11 c -6.1 4.39 -17.47 10.67 -19 12 c -0.28 0.24 2.77 1.16 4 1 c 7.91 -1.06 22.3 -5.59 26 -5 c 1.27 0.2 0.21 6.69 -1 9 c -2.37 4.55 -6.9 9.68 -11 14 c -8.3 8.75 -27.96 24.16 -26 25 c 3.01 1.29 36.02 -8.43 54 -13 l 5 -2"/><path fill="none" stroke="#000000" stroke-width="2" stroke-linecap="round" stroke-linejoin="round" d="M 36 93 c -0.04 0.05 -1.82 1.94 -2 3 c -2.23 13.12 -4.63 28.97 -6 44 c -1.36 14.91 -2 44 -2 44"/></svg>