<?xml version="1.0" encoding="UTF-8" standalone="no"?><!DOCTYPE svg PUBLIC "-//W3C//DTD SVG 1.1//EN" "http://www.w3.org/Graphics/SVG/1.1/DTD/svg11.dtd"><svg xmlns="http://www.w3.org/2000/svg" version="1.1" width="317" height="170"><path fill="none" stroke="#000000" stroke-width="2" stroke-linecap="round" stroke-linejoin="round" d="M 1 24 c 0.05 -0.04 1.92 -1.64 3 -2 c 5.58 -1.86 12.13 -3.91 18 -5 c 2.83 -0.52 6.56 -0.56 9 0 c 1.36 0.31 3.54 1.85 4 3 c 0.64 1.6 0.49 4.9 0 7 c -0.76 3.22 -2.25 6.91 -4 10 c -5.19 9.15 -11.47 17.7 -17 27 c -1.94 3.26 -3.76 6.68 -5 10 c -0.68 1.8 -1 4.09 -1 6 c 0 1.91 0.42 4.25 1 6 c 0.35 1.04 1.14 2.28 2 3 c 4.8 4 10.78 7.82 16 12 c 1.48 1.18 3.04 2.56 4 4 c 0.91 1.37 2.34 3.62 2 5 c -1.32 5.26 -5.01 13.71 -8 19 l -5 4"/><path fill="none" stroke="#000000" stroke-width="2" stroke-linecap="round" stroke-linejoin="round" d="M 64 32 c 0.07 0.11 3.31 3.93 4 6 c 1.17 3.5 1.08 8 2 12 c 1.1 4.79 4 14 4 14"/><path fill="none" stroke="#000000" stroke-width="2" stroke-linecap="round" stroke-linejoin="round" d="M 107 25 c -0.03 0.09 -1.06 3.52 -2 5 c -5.27 8.32 -17 25 -17 25"/><path fill="none" stroke="#000000" stroke-width="2" stroke-linecap="round" stroke-linejoin="round" d="M 37 87 c 0.39 -0.16 14.37 -6.31 22 -9 c 10.77 -3.79 21.1 -6.37 32 -10 c 4.53 -1.51 8.75 -3.05 13 -5 c 3.82 -1.75 11.29 -6.42 11 -6 c -1.2 1.78 -22.32 26.04 -34 40 c -4.27 5.11 -8.17 9.76 -12 15 c -2.6 3.56 -5.25 7.3 -7 11 c -1.11 2.34 -2 5.59 -2 8 c 0 2.12 0.6 5.88 2 7 c 2.69 2.15 9.12 4.68 13 5 c 3.17 0.26 7.71 -1.51 11 -3 c 3.76 -1.71 8.05 -4.18 11 -7 c 4.35 -4.16 9.32 -9.79 12 -15 c 2.61 -5.07 3.87 -11.98 5 -18 c 0.85 -4.52 1 -9.51 1 -14 c 0 -1.63 -0.56 -5.09 -1 -5 c -0.62 0.12 -3.09 3.99 -4 6 c -0.65 1.42 -1 3.36 -1 5 c 0 6.13 0.01 13.05 1 19 c 0.61 3.66 2.03 8.27 4 11 c 1.92 2.66 5.89 5.27 9 7 c 2.59 1.44 6.28 3 9 3 c 3.55 0 8.61 -1.39 12 -3 c 3.13 -1.49 6.13 -4.46 9 -7 c 2.85 -2.52 6.19 -5.08 8 -8 c 2.22 -3.59 3.7 -8.67 5 -13 l 1 -7"/><path fill="none" stroke="#000000" stroke-width="2" stroke-linecap="round" stroke-linejoin="round" d="M 143 38 c 0.28 0.18 10.77 6.38 16 10 c 3.55 2.46 10 8 10 8"/><path fill="none" stroke="#000000" stroke-width="2" stroke-linecap="round" stroke-linejoin="round" d="M 141 92 c 0.18 -0.11 6.83 -3.74 10 -6 c 3.86 -2.76 7.1 -6.17 11 -9 c 5.94 -4.3 16.06 -11.43 18 -12 c 0.64 -0.19 -0.27 5.17 -1 7 c -0.44 1.1 -2.27 1.86 -3 3 c -2.16 3.35 -4.54 7.17 -6 11 c -2.81 7.35 -4.93 15.16 -7 23 c -0.96 3.64 -1.81 7.47 -2 11 c -0.13 2.55 0.13 6.27 1 8 c 0.48 0.96 3.43 2.64 4 2 c 4.46 -5.02 13.16 -20.05 20 -29 c 1.52 -1.98 3.99 -3.79 6 -5 c 1.06 -0.64 3.17 -1.36 4 -1 c 1.01 0.43 3.09 2.84 3 4 c -0.18 2.28 -4.38 9.14 -4 9 c 0.65 -0.24 7.48 -8.81 12 -12 c 17.74 -12.52 37.46 -23.64 56 -36 c 2.57 -1.71 4.85 -3.85 7 -6 c 1.49 -1.49 3.67 -3.7 4 -5 c 0.18 -0.73 -1.14 -2.4 -2 -3 c -2.14 -1.5 -5.25 -3.04 -8 -4 c -3.8 -1.33 -8.26 -2.58 -12 -3 c -1.84 -0.2 -4.15 0.45 -6 1 c -1.36 0.41 -3.25 1 -4 2 c -1.87 2.49 -4.06 6.63 -5 10 c -1.28 4.56 -2 10.01 -2 15 c 0 13.2 1.62 26.21 2 40 c 0.31 11.02 -0.21 30.09 0 32 c 0.04 0.35 2.71 -3.34 3 -5 l 0 -12"/><path fill="none" stroke="#000000" stroke-width="2" stroke-linecap="round" stroke-linejoin="round" d="M 243 89 c -0.56 0.6 -20.84 22.59 -32 34 c -3.89 3.98 -7.76 7.68 -12 11 c -3.39 2.66 -7.39 5.48 -11 7 c -2.23 0.94 -8 1 -8 1"/><path fill="none" stroke="#000000" stroke-width="2" stroke-linecap="round" stroke-linejoin="round" d="M 201 113 c 0.33 -0.09 13.11 -4.41 19 -5 c 3.35 -0.34 7.23 1.21 11 2 c 4.5 0.94 9.21 1.21 13 3 c 7.65 3.61 23 14 23 14"/><path fill="none" stroke="#000000" stroke-width="2" stroke-linecap="round" stroke-linejoin="round" d="M 265 1 c -0.02 0.14 -0.16 5.55 -1 8 c -3.36 9.83 -8.93 20.55 -12 30 c -0.66 2.05 -0.64 5.55 0 7 c 0.41 0.93 2.88 2.21 4 2 c 3.25 -0.61 7.88 -3.57 12 -5 c 3.61 -1.26 7.69 -2.56 11 -3 c 1.2 -0.16 3.36 0.25 4 1 c 0.98 1.14 1.86 4.12 2 6 c 0.16 2.1 -0.21 4.9 -1 7 c -2.09 5.57 -4.69 11.68 -8 17 c -12.06 19.4 -32.49 47.44 -38 57 c -0.36 0.62 2.77 2 4 2 c 2.53 0 5.91 -1.23 9 -2 c 5.2 -1.3 10.1 -2.27 15 -4 c 6.51 -2.3 12.57 -5.06 19 -8 c 5.58 -2.55 10.95 -4.94 16 -8 c 4.23 -2.57 9.16 -5.78 12 -9 l 3 -8"/><path fill="none" stroke="#000000" stroke-width="2" stroke-linecap="round" stroke-linejoin="round" d="M 291 67 c -0.28 0 -14.67 -0.44 -16 0 c -0.47 0.16 3.23 2.46 4 4 c 2.62 5.25 5.72 12.06 7 18 c 1.26 5.85 1.17 12.69 1 19 c -0.16 6.01 -1.08 12 -2 18 c -0.42 2.73 -0.76 5.78 -2 8 c -3.14 5.61 -7.65 11.66 -12 17 c -2.96 3.63 -6.43 6.94 -10 10 c -3.43 2.94 -7.44 7 -11 8 c -3.68 1.03 -14 -1 -14 -1"/><path fill="none" stroke="#000000" stroke-width="2" stroke-linecap="round" stroke-linejoin="round" d="M 241 107 l 40 -4"/><path fill="none" stroke="#000000" stroke-width="2" stroke-linecap="round" stroke-linejoin="round" d="M 277 85 c -0.05 0.32 -1.73 11.86 -3 18 c -2.51 12.07 -5.02 23.35 -8 35 c -0.71 2.77 -3 8 -3 8"/></svg>