<?xml version="1.0" encoding="UTF-8" standalone="no"?><!DOCTYPE svg PUBLIC "-//W3C//DTD SVG 1.1//EN" "http://www.w3.org/Graphics/SVG/1.1/DTD/svg11.dtd"><svg xmlns="http://www.w3.org/2000/svg" version="1.1" width="192" height="191"><path fill="none" stroke="#000000" stroke-width="2" stroke-linecap="round" stroke-linejoin="round" d="M 1 84 c 0.11 -0.14 3.75 -5.61 6 -8 c 3.03 -3.22 7.07 -5.61 10 -9 c 12.07 -13.95 26.99 -31.92 35 -43 c 0.6 -0.82 -0.4 -2.91 -1 -4 c -0.94 -1.69 -2.43 -3.88 -4 -5 c -2.75 -1.96 -10.07 -6.05 -10 -5 c 0.32 4.66 9.39 31.56 13 48 c 3.17 14.4 4.47 30.07 7 43 l 2 3"/><path fill="none" stroke="#000000" stroke-width="2" stroke-linecap="round" stroke-linejoin="round" d="M 42 72 c -0.17 0.32 -7.22 11.71 -10 18 c -4.92 11.13 -12.68 33.25 -13 34 c -0.05 0.12 1 -6 1 -6"/><path fill="none" stroke="#000000" stroke-width="2" stroke-linecap="round" stroke-linejoin="round" d="M 74 56 c 0.03 0.09 1.12 3.54 2 5 c 1.05 1.74 2.5 3.5 4 5 c 2.82 2.82 5.89 5.72 9 8 c 1.73 1.27 6 3 6 3"/><path fill="none" stroke="#000000" stroke-width="2" stroke-linecap="round" stroke-linejoin="round" d="M 53 116 c 0.25 -0.21 10.73 -10.08 14 -12 c 0.64 -0.38 3.18 1.33 3 2 c -1.12 4.09 -7.88 15.91 -9 20 c -0.18 0.67 2.12 2.13 3 2 c 2.85 -0.41 7.31 -2.98 11 -4 c 2.23 -0.62 4.98 -1.29 7 -1 c 2.18 0.31 5.7 1.7 7 3 c 0.87 0.87 1.16 3.6 1 5 c -0.14 1.23 -1.15 2.83 -2 4 c -1.75 2.41 -3.83 5.01 -6 7 c -1.7 1.56 -3.98 3.16 -6 4 c -1.7 0.71 -4.12 1 -6 1 c -1.58 0 -3.6 -0.38 -5 -1 l -4 -3"/><path fill="none" stroke="#000000" stroke-width="2" stroke-linecap="round" stroke-linejoin="round" d="M 53 137 c 0.12 -0.14 4.48 -5.48 7 -8 c 2.52 -2.52 5.07 -5.1 8 -7 c 9.28 -6.02 19.83 -11.27 29 -17 c 1.16 -0.72 3 -3 3 -3"/><path fill="none" stroke="#000000" stroke-width="2" stroke-linecap="round" stroke-linejoin="round" d="M 137 1 c -0.17 0.24 -6.83 9.04 -10 14 c -9.5 14.89 -26.53 43.23 -27 44 c -0.03 0.05 1.2 -2.2 2 -3 c 1.1 -1.1 2.97 -3 4 -3 c 1.03 0 3.29 1.78 4 3 c 1.35 2.32 1.95 8.48 3 9 c 0.78 0.39 3.9 -3.13 5 -5 c 2.02 -3.43 3.05 -8.09 5 -12 c 2.42 -4.85 6.66 -12.53 8 -14 c 0.3 -0.33 1.22 2.22 2 3 c 0.78 0.78 2.29 1.15 3 2 c 2.41 2.89 4.35 7.19 7 10 c 2.47 2.63 5.9 5.79 9 7 c 3.85 1.51 9.95 2.35 14 2 c 2.82 -0.25 6.41 -2.4 9 -4 c 1.49 -0.92 3.14 -2.5 4 -4 c 1.63 -2.85 3.24 -6.78 4 -10 c 0.49 -2.1 0.72 -6.52 0 -7 c -0.69 -0.46 -4.66 1.5 -6 3 c -6.56 7.32 -13.56 16.88 -20 26 c -5.83 8.25 -10.23 16.73 -16 25 c -4.43 6.35 -9.17 12.41 -14 18 c -1.36 1.57 -3.22 3.11 -5 4 c -2.64 1.32 -6.7 1.74 -9 3 c -0.87 0.48 -2.4 2.84 -2 3 c 1.33 0.53 8.28 1.57 12 1 c 8.61 -1.33 18.14 -4.19 27 -7 c 4.84 -1.53 9.32 -3.73 14 -6 c 6.59 -3.2 12.66 -6.45 19 -10 c 2.13 -1.19 4.34 -2.55 6 -4 c 0.83 -0.73 2.4 -2.84 2 -3 l -12 -1"/><path fill="none" stroke="#000000" stroke-width="2" stroke-linecap="round" stroke-linejoin="round" d="M 155 76 l 28 114"/></svg>