<?xml version="1.0" encoding="UTF-8" standalone="no"?><!DOCTYPE svg PUBLIC "-//W3C//DTD SVG 1.1//EN" "http://www.w3.org/Graphics/SVG/1.1/DTD/svg11.dtd"><svg xmlns="http://www.w3.org/2000/svg" version="1.1" width="312" height="201"><path fill="none" stroke="#000000" stroke-width="2" stroke-linecap="round" stroke-linejoin="round" d="M 5 22 c 0.09 0.02 3.59 0.3 5 1 c 3.6 1.8 7.81 4.37 11 7 c 2.26 1.86 4.24 4.53 6 7 c 1.54 2.16 3.27 4.66 4 7 c 0.82 2.63 1 6.07 1 9 c 0 2.61 -1 8 -1 8"/><path fill="none" stroke="#000000" stroke-width="2" stroke-linecap="round" stroke-linejoin="round" d="M 1 88 c 0.19 -0.16 7.11 -6.25 11 -9 c 4.17 -2.96 8.53 -5.77 13 -8 c 3.43 -1.71 7.8 -3.62 11 -4 c 1.73 -0.2 4.76 0.9 6 2 c 1.32 1.17 3 4.15 3 6 c 0 4.23 -1.58 10.12 -3 15 c -1.58 5.45 -3.47 11.11 -6 16 c -2.34 4.53 -5.62 9.44 -9 13 c -2.61 2.75 -6.62 5.1 -10 7 c -1.75 0.99 -4.71 2.47 -6 2 c -1.59 -0.58 -4.3 -3.91 -5 -6 c -1.07 -3.22 -1 -8.02 -1 -12 c 0 -3.65 0.22 -7.68 1 -11 c 0.47 -2.01 1.67 -5.07 3 -6 c 1.4 -0.98 4.81 -1.14 7 -1 c 2.85 0.18 6.28 0.85 9 2 c 5.67 2.4 11.84 7.35 17 9 c 2.16 0.69 5.88 -0.09 8 -1 c 2.06 -0.88 4.6 -3.08 6 -5 c 2.01 -2.74 3.6 -6.6 5 -10 c 0.91 -2.22 1.63 -7.31 2 -7 c 0.65 0.54 3.83 12.34 4 12 c 0.24 -0.48 -1 -11.94 -1 -18 c 0 -5.06 0.33 -10 1 -15 c 0.68 -5.09 1.35 -13.62 3 -15 c 1.11 -0.93 7.1 2.95 9 5 c 1.57 1.7 2.41 5.24 3 8 c 2.72 12.78 4.91 25.53 7 39 c 1.7 10.97 3.32 21.42 4 32 c 0.31 4.93 -0.12 10.25 -1 15 c -0.74 4 -1.7 9.46 -4 12 l -15 9"/><path fill="none" stroke="#000000" stroke-width="2" stroke-linecap="round" stroke-linejoin="round" d="M 108 76 c 0.12 -0.02 4.74 -0.41 7 -1 c 4.04 -1.06 8.86 -1.91 12 -4 c 4.21 -2.81 8.96 -7.82 12 -12 c 1.93 -2.66 4 -10 4 -10"/><path fill="none" stroke="#000000" stroke-width="2" stroke-linecap="round" stroke-linejoin="round" d="M 132 35 c 0.05 0.49 1.29 18.88 3 28 c 1.27 6.76 4.39 13.13 6 20 c 2.11 9.04 4.06 18.31 5 27 c 0.34 3.18 -0.3 6.85 -1 10 c -0.6 2.68 -1.65 5.8 -3 8 c -1.12 1.82 -3.29 4.29 -5 5 c -1.7 0.71 -4.88 0.35 -7 0 c -1.63 -0.27 -3.49 -1.16 -5 -2 c -1.4 -0.78 -3.5 -1.87 -4 -3 c -0.6 -1.35 -0.43 -4.18 0 -6 c 0.83 -3.55 2.21 -7.69 4 -11 c 2.42 -4.47 5.43 -9.33 9 -13 c 8.8 -9.04 29 -26 29 -26"/><path fill="none" stroke="#000000" stroke-width="2" stroke-linecap="round" stroke-linejoin="round" d="M 166 18 c 0.37 0.02 14.69 0.06 21 1 c 2.01 0.3 4.8 1.8 6 3 c 0.74 0.74 1.27 2.92 1 4 c -0.59 2.35 -2.35 5.66 -4 8 c -2.23 3.15 -5.07 6.38 -8 9 c -3.3 2.96 -11.24 8.07 -11 8 c 0.44 -0.12 14.45 -7.57 22 -11 c 3.59 -1.63 7.99 -3.6 11 -4 c 1.15 -0.15 3.67 1.13 4 2 c 0.44 1.19 -0.1 4.43 -1 6 c -2.75 4.81 -6.86 10.34 -11 15 c -9.28 10.44 -19.03 20.03 -29 30 c -1.87 1.87 -6.12 5.07 -6 5 c 0.28 -0.15 10.44 -6.23 15 -10 c 5 -4.14 9.9 -9.01 14 -14 c 3.45 -4.19 9 -14 9 -14"/><path fill="none" stroke="#000000" stroke-width="2" stroke-linecap="round" stroke-linejoin="round" d="M 182 26 c -0.05 0.07 -2.27 2.54 -3 4 c -3.19 6.38 -6.71 13.01 -9 20 c -9.46 28.93 -25.51 85.49 -26 87 c -0.16 0.5 4.11 -20.09 7 -29 c 0.91 -2.82 3.18 -5.97 5 -8 c 0.86 -0.96 3.25 -2.45 4 -2 c 1.67 1 4.45 5.16 6 8 c 2.36 4.32 4.42 9.15 6 14 c 3.12 9.58 5.83 25.53 8 29 c 0.62 0.99 5.39 -2.96 7 -5 c 3.02 -3.82 5.7 -9.12 8 -14 c 3.07 -6.52 4.92 -13.47 8 -20 c 2.63 -5.57 5.71 -10.7 9 -16 c 2.83 -4.56 7.33 -9.24 9 -13 c 0.54 -1.21 -0.08 -4.74 -1 -5 c -2.36 -0.67 -9.08 0.18 -13 1 c -2.01 0.42 -4.27 1.79 -6 3 c -1.46 1.02 -3.68 2.62 -4 4 c -0.51 2.21 0.21 6.3 1 9 c 0.78 2.67 2.15 5.92 4 8 c 5.71 6.42 13.37 12.37 20 19 c 2.55 2.55 4.37 5.9 7 8 c 3.77 3.02 9.64 7.07 13 8 l 5 -3"/><path fill="none" stroke="#000000" stroke-width="2" stroke-linecap="round" stroke-linejoin="round" d="M 255 16 c 0.02 0.37 0.24 14.95 1 21 c 0.13 1.04 1.39 3 2 3 c 0.84 0 3.15 -1.76 4 -3 c 2.52 -3.67 5.11 -8.47 7 -13 c 3.11 -7.47 7.12 -21.86 8 -23 c 0.37 -0.48 1.87 6.73 2 10 c 0.2 5.14 0.07 10.94 -1 16 c -1.53 7.29 -4.11 15.78 -7 22 c -1.06 2.28 -3.82 4.77 -6 6 c -2.68 1.51 -6.7 2.73 -10 3 c -8.55 0.69 -18.21 0.64 -27 0 c -4.66 -0.34 -12.93 -1.66 -14 -3 c -0.69 -0.86 3.71 -5.15 6 -7 c 4.48 -3.62 9.63 -7.35 15 -10 c 22.25 -10.99 52.97 -25.36 68 -31 l 4 4"/><path fill="none" stroke="#000000" stroke-width="2" stroke-linecap="round" stroke-linejoin="round" d="M 236 70 c 0.19 -0.12 7.13 -4.89 11 -7 c 7.31 -3.99 14.41 -7.75 22 -11 c 6.54 -2.8 13.38 -4.4 20 -7 c 2.8 -1.1 8 -4 8 -4"/><path fill="none" stroke="#000000" stroke-width="2" stroke-linecap="round" stroke-linejoin="round" d="M 260 74 c -0.11 0.23 -4.23 8.5 -6 13 c -1.95 4.97 -4.08 9.93 -5 15 c -1.7 9.34 -2.31 19.15 -3 29 c -0.33 4.73 -0.55 12.36 0 14 c 0.17 0.52 2.92 -1.1 4 -2 c 2.73 -2.28 5.71 -5.01 8 -8 c 12.04 -15.68 22.67 -31.72 35 -48 c 5.9 -7.79 18.14 -22.48 18 -22 c -0.17 0.59 -15.31 19.84 -20 29 c -1.6 3.13 -0.93 7.9 -1 12 c -0.27 15.33 -0.49 29.56 0 45 c 0.54 16.84 3 49 3 49"/></svg>