<?xml version="1.0" encoding="UTF-8" standalone="no"?><!DOCTYPE svg PUBLIC "-//W3C//DTD SVG 1.1//EN" "http://www.w3.org/Graphics/SVG/1.1/DTD/svg11.dtd"><svg xmlns="http://www.w3.org/2000/svg" version="1.1" width="300" height="199"><path fill="none" stroke="#000000" stroke-width="2" stroke-linecap="round" stroke-linejoin="round" d="M 55 1 c 0.02 0.14 0.93 5.29 1 8 c 0.27 10.08 0.52 21.48 0 30 c -0.06 1.02 -2 3 -2 3"/><path fill="none" stroke="#000000" stroke-width="2" stroke-linecap="round" stroke-linejoin="round" d="M 32 31 c -0.12 0.16 -5.02 5.79 -7 9 c -3.33 5.42 -7.92 13.58 -9 17 c -0.2 0.64 2.07 2.06 3 2 c 3.17 -0.21 8.23 -1.45 12 -3 c 14.74 -6.06 29.35 -14.19 44 -20 c 4.34 -1.72 9.68 -2.81 14 -3 c 2.78 -0.12 6.27 1.03 9 2 c 1.73 0.62 3.6 1.74 5 3 c 5.09 4.58 15 15 15 15"/><path fill="none" stroke="#000000" stroke-width="2" stroke-linecap="round" stroke-linejoin="round" d="M 70 58 c -0.63 0.51 -24.3 18.64 -36 29 c -8.95 7.92 -16.39 16.91 -25 25 c -2.44 2.29 -8.11 6.13 -8 6 c 0.2 -0.24 8.38 -8.41 13 -12 c 4.34 -3.38 9.69 -6.96 14 -9 c 1.29 -0.61 3.89 -0.47 5 0 c 0.8 0.34 1.5 1.93 2 3 c 1.81 3.87 3.79 7.91 5 12 c 1.43 4.81 2.83 10.03 3 15 c 0.48 13.66 -1.22 27.83 -1 42 c 0.12 7.45 2 22 2 22"/><path fill="none" stroke="#000000" stroke-width="2" stroke-linecap="round" stroke-linejoin="round" d="M 97 58 c 0 0.09 0.3 3.43 0 5 c -0.67 3.59 -1.61 7.82 -3 11 c -0.78 1.79 -2.47 3.58 -4 5 c -3.05 2.84 -6.52 5.54 -10 8 c -2.19 1.55 -7.13 4.06 -7 4 c 0.32 -0.15 13.61 -8.05 18 -9 c 1.4 -0.3 4.37 2.36 5 4 c 2.23 5.79 3.81 14.53 5 22 c 1.16 7.31 1.79 14.68 2 22 c 0.12 4.32 0.36 11.03 -1 13 c -0.84 1.21 -5.99 0.81 -8 0 c -2.32 -0.93 -5.78 -3.86 -7 -6 c -1.07 -1.87 -1.34 -5.8 -1 -8 c 0.24 -1.59 1.72 -3.72 3 -5 c 2.81 -2.81 9.15 -7.62 10 -8 c 0.27 -0.12 -1.56 3.31 -1 4 c 1.67 2.04 8.87 4.36 10 7 c 1.3 3.03 0.37 10.2 -1 14 c -1.33 3.68 -4.96 7.82 -8 11 c -3.8 3.98 -8.41 7.6 -13 11 c -4.49 3.32 -9.12 6.21 -14 9 c -4.59 2.62 -14.24 7.12 -14 7 c 0.28 -0.14 10.46 -5.57 16 -8 c 5.3 -2.32 10.63 -4.66 16 -6 c 5.07 -1.27 10.59 -1.67 16 -2 c 5.7 -0.35 11.25 -0.37 17 0 c 10.2 0.65 20.35 2.46 30 3 l 6 -1"/><path fill="none" stroke="#000000" stroke-width="2" stroke-linecap="round" stroke-linejoin="round" d="M 136 90 c 0.52 -0.24 20.59 -8.75 30 -14 c 4.66 -2.6 13 -10 13 -10"/><path fill="none" stroke="#000000" stroke-width="2" stroke-linecap="round" stroke-linejoin="round" d="M 178 34 c -0.05 0.93 -1 36.23 -3 53 c -0.56 4.7 -3.15 10.29 -5 14 c -0.45 0.9 -3.05 2.03 -3 2 c 0.26 -0.15 13.03 -8.61 15 -9 c 0.68 -0.14 0.55 4.27 0 6 c -1.3 4.12 -4.12 8.54 -6 13 c -0.83 1.97 -1.64 4.05 -2 6 c -0.28 1.55 -0.83 4.11 0 5 c 2.87 3.07 9.24 7.87 14 10 c 4.23 1.9 14 3 15 3 c 0.28 0 -1.86 -2.43 -3 -3 c -3.15 -1.58 -7.34 -3.2 -11 -4 c -3.77 -0.82 -8.05 -1 -12 -1 c -2.97 0 -6.48 0.23 -9 1 c -1.39 0.43 -2.63 1.94 -4 3 c -1.75 1.36 -3.91 2.41 -5 4 c -2.29 3.34 -4.54 7.84 -6 12 c -2.83 8.05 -4.96 16.59 -7 25 c -0.63 2.61 -1.57 5.99 -1 8 c 0.56 1.94 3.01 5.2 5 6 c 5.2 2.08 13.23 3.53 20 4 c 31.89 2.2 63.04 2.29 96 4 c 6.9 0.36 13.21 1.46 20 2 c 1.69 0.14 4.12 0.82 5 0 l 8 -12"/><path fill="none" stroke="#000000" stroke-width="2" stroke-linecap="round" stroke-linejoin="round" d="M 219 51 c 0.28 0.05 10.87 1.66 16 3 c 2.4 0.63 4.99 1.79 7 3 c 1.12 0.67 2.49 1.88 3 3 c 0.99 2.18 2.23 5.62 2 8 c -0.37 3.92 -2.24 8.89 -4 13 c -2.2 5.14 -4.91 10.46 -8 15 c -2.44 3.59 -5.68 7.26 -9 10 c -4.11 3.4 -10.48 5.92 -14 9 c -1.14 1 -1.75 3.36 -2 5 c -0.37 2.43 -0.51 5.56 0 8 c 0.75 3.56 2.54 10.78 4 11 c 1.59 0.24 5.81 -6.19 9 -9 c 2.51 -2.21 5.18 -4.45 8 -6 c 3.67 -2.02 7.94 -3.77 12 -5 c 3.49 -1.06 7.62 -2 11 -2 c 2.5 0 5.74 0.96 8 2 c 1.76 0.81 4.17 2.45 5 4 c 1.2 2.23 2.24 6.32 2 9 c -0.36 3.96 -2.28 8.99 -4 13 c -1.19 2.78 -2.91 5.91 -5 8 c -4.57 4.57 -10.6 9.24 -16 13 c -1.99 1.39 -4.87 2.65 -7 3 c -1.42 0.24 -4.18 -0.03 -5 -1 l -6 -12"/></svg>