<?xml version="1.0" encoding="UTF-8" standalone="no"?><!DOCTYPE svg PUBLIC "-//W3C//DTD SVG 1.1//EN" "http://www.w3.org/Graphics/SVG/1.1/DTD/svg11.dtd"><svg xmlns="http://www.w3.org/2000/svg" version="1.1" width="286" height="117"><path fill="none" stroke="#000000" stroke-width="2" stroke-linecap="round" stroke-linejoin="round" d="M 1 51 c 0.47 -0.3 17.7 -11.94 27 -17 c 6.01 -3.27 19 -8 19 -8"/><path fill="none" stroke="#000000" stroke-width="2" stroke-linecap="round" stroke-linejoin="round" d="M 10 78 c 0.44 -0.14 16.74 -4.84 25 -8 c 7.6 -2.91 22 -10 22 -10"/><path fill="none" stroke="#000000" stroke-width="2" stroke-linecap="round" stroke-linejoin="round" d="M 40 56 c 0.03 0.23 1.04 8.69 2 13 c 1.06 4.78 2.32 9.6 4 14 c 0.93 2.43 4 7 4 7"/><path fill="none" stroke="#000000" stroke-width="2" stroke-linecap="round" stroke-linejoin="round" d="M 28 116 c 0.45 -0.16 17.57 -5.68 26 -9 c 2.47 -0.97 4.53 -3.13 7 -4 c 8.61 -3.04 18.31 -5.83 27 -8 c 1.54 -0.39 5 0 5 0"/><path fill="none" stroke="#000000" stroke-width="2" stroke-linecap="round" stroke-linejoin="round" d="M 97 25 l 5 4"/><path fill="none" stroke="#000000" stroke-width="2" stroke-linecap="round" stroke-linejoin="round" d="M 128 1 l -19 45"/><path fill="none" stroke="#000000" stroke-width="2" stroke-linecap="round" stroke-linejoin="round" d="M 96 63 c 0.19 -0.17 7.14 -7.24 11 -10 c 2.91 -2.08 6.77 -3.03 10 -5 c 12.35 -7.51 36 -23 36 -23"/><path fill="none" stroke="#000000" stroke-width="2" stroke-linecap="round" stroke-linejoin="round" d="M 136 41 c -0.14 0.42 -5.65 15.77 -8 24 c -1.71 6 -3.26 12.55 -4 18 c -0.17 1.22 0.31 3.54 1 4 c 0.84 0.56 3.52 0.37 5 0 c 2.25 -0.56 5.19 -1.79 7 -3 c 0.86 -0.57 1.17 -2.26 2 -3 c 1.99 -1.77 7 -5 7 -5"/><path fill="none" stroke="#000000" stroke-width="2" stroke-linecap="round" stroke-linejoin="round" d="M 149 57 c 0.14 0.14 5.15 5.48 8 8 c 2.87 2.54 5.85 5.35 9 7 c 3.5 1.83 12 4 12 4"/><path fill="none" stroke="#000000" stroke-width="2" stroke-linecap="round" stroke-linejoin="round" d="M 180 37 c 0.12 0.21 4.47 8.32 7 12 c 1.03 1.5 4 4 4 4"/><path fill="none" stroke="#000000" stroke-width="2" stroke-linecap="round" stroke-linejoin="round" d="M 178 24 c 0.33 -0.19 12.46 -7.49 19 -11 c 2.94 -1.57 6.29 -3.42 9 -4 c 1.4 -0.3 3.54 0.45 5 1 c 1.03 0.39 2.2 1.2 3 2 c 1.43 1.43 2.97 3.23 4 5 c 1.23 2.1 2.65 4.87 3 7 l -1 5"/><path fill="none" stroke="#000000" stroke-width="2" stroke-linecap="round" stroke-linejoin="round" d="M 192 50 l 26 -17"/><path fill="none" stroke="#000000" stroke-width="2" stroke-linecap="round" stroke-linejoin="round" d="M 181 5 c 0.16 0.47 6.26 17.94 9 27 c 0.59 1.94 0.33 4.15 1 6 c 2.26 6.28 5.07 12.89 8 19 c 1.03 2.14 4 6 4 6"/><path fill="none" stroke="#000000" stroke-width="2" stroke-linecap="round" stroke-linejoin="round" d="M 194 91 c 0.4 -0.33 15.33 -12.39 23 -19 c 2.18 -1.88 4.59 -3.99 6 -6 c 0.69 -0.98 0.64 -4.18 1 -4 c 0.74 0.37 5 7 5 7"/><path fill="none" stroke="#000000" stroke-width="2" stroke-linecap="round" stroke-linejoin="round" d="M 225 30 c 0.26 -0.21 9.95 -8.28 15 -12 c 1.18 -0.87 2.9 -1.12 4 -2 c 2.08 -1.67 5.81 -6.79 6 -6 c 0.97 4.08 2.42 29.88 3 44 c 0.07 1.63 -0.35 3.7 -1 5 c -0.54 1.08 -3.16 3.05 -3 3 c 0.76 -0.25 12.01 -5 18 -8 c 6.26 -3.13 18 -10 18 -10"/></svg>