<?xml version="1.0" encoding="UTF-8" standalone="no"?><!DOCTYPE svg PUBLIC "-//W3C//DTD SVG 1.1//EN" "http://www.w3.org/Graphics/SVG/1.1/DTD/svg11.dtd"><svg xmlns="http://www.w3.org/2000/svg" version="1.1" width="309" height="160"><path fill="none" stroke="#000000" stroke-width="2" stroke-linecap="round" stroke-linejoin="round" d="M 1 59 c 0.79 -0.23 29.68 -8.19 45 -13 c 8.69 -2.73 16.39 -6.2 25 -9 c 5.03 -1.63 15 -4 15 -4"/><path fill="none" stroke="#000000" stroke-width="2" stroke-linecap="round" stroke-linejoin="round" d="M 26 103 c 0.77 -0.3 28.9 -12.03 44 -17 c 11.57 -3.81 35 -9 35 -9"/><path fill="none" stroke="#000000" stroke-width="2" stroke-linecap="round" stroke-linejoin="round" d="M 57 75 c 0.02 0.12 0.37 4.75 1 7 c 1.69 6.03 4.28 11.81 6 18 c 1.67 6.01 2.39 11.93 4 18 c 1.46 5.52 5 16 5 16"/><path fill="none" stroke="#000000" stroke-width="2" stroke-linecap="round" stroke-linejoin="round" d="M 27 159 c 0.46 -0.07 17.49 -2.13 26 -4 c 5.11 -1.12 9.81 -3.62 15 -5 c 10.11 -2.7 19.73 -4.9 30 -7 c 4.71 -0.96 9.28 -1.74 14 -2 c 7.68 -0.41 15.58 0.27 23 0 l 4 -1"/><path fill="none" stroke="#000000" stroke-width="2" stroke-linecap="round" stroke-linejoin="round" d="M 146 25 c 0.12 0.26 5.32 9.84 7 15 c 2.6 8.01 6 25 6 25"/><path fill="none" stroke="#000000" stroke-width="2" stroke-linecap="round" stroke-linejoin="round" d="M 192 1 c -0.14 0.47 -4.88 18.02 -8 27 c -2.29 6.58 -4.91 12.7 -8 19 c -5.76 11.75 -18 34 -18 34"/><path fill="none" stroke="#000000" stroke-width="2" stroke-linecap="round" stroke-linejoin="round" d="M 138 106 c 0.33 -0.26 12.36 -10.45 19 -15 c 5.04 -3.45 10.38 -6.24 16 -9 c 13.15 -6.46 26.1 -11.43 39 -18 c 6.34 -3.22 12.79 -7.35 18 -11 l 2 -3"/><path fill="none" stroke="#000000" stroke-width="2" stroke-linecap="round" stroke-linejoin="round" d="M 188 87 c -0.12 0.33 -5.08 12.59 -7 19 c -1.06 3.54 -1.09 7.38 -2 11 c -0.77 3.08 -2.24 5.96 -3 9 c -0.57 2.26 -1 4.83 -1 7 c 0 1.27 0.49 2.82 1 4 c 0.44 1.03 1.25 2.92 2 3 c 1.52 0.17 5.03 -0.87 7 -2 c 4.66 -2.66 9.45 -6.4 14 -10 c 3.56 -2.82 10 -9 10 -9"/><path fill="none" stroke="#000000" stroke-width="2" stroke-linecap="round" stroke-linejoin="round" d="M 208 102 c 0.19 0.25 7.07 9.48 11 14 c 2.81 3.23 6.33 5.88 9 9 c 1.22 1.43 3 5 3 5"/><path fill="none" stroke="#000000" stroke-width="2" stroke-linecap="round" stroke-linejoin="round" d="M 234 77 l 2 23"/><path fill="none" stroke="#000000" stroke-width="2" stroke-linecap="round" stroke-linejoin="round" d="M 235 71 c 0.14 -0.17 5.12 -7.66 8 -10 c 1.92 -1.56 5.24 -2.29 8 -3 c 7.61 -1.96 15.71 -4.06 23 -5 c 2.5 -0.32 6.4 0.04 8 1 c 1.07 0.64 1.85 3.47 2 5 c 0.14 1.45 -0.4 3.45 -1 5 c -2.34 5.97 -5.14 12.28 -8 18 l -3 4"/><path fill="none" stroke="#000000" stroke-width="2" stroke-linecap="round" stroke-linejoin="round" d="M 244 101 c 0.51 -0.23 20.36 -8.31 29 -13 c 2.31 -1.25 4.59 -3.99 6 -6 c 0.69 -0.98 1 -4 1 -4"/><path fill="none" stroke="#000000" stroke-width="2" stroke-linecap="round" stroke-linejoin="round" d="M 251 41 c 0.04 0.19 2 7.38 2 11 c 0 12.33 -1.56 24.91 -2 38 c -0.24 7.22 0 21 0 21"/><path fill="none" stroke="#000000" stroke-width="2" stroke-linecap="round" stroke-linejoin="round" d="M 234 149 c 0.28 -0.19 10.39 -7.63 16 -11 c 6.2 -3.72 12.9 -6.44 19 -10 c 1.82 -1.06 3.57 -2.57 5 -4 l 2 -3"/><path fill="none" stroke="#000000" stroke-width="2" stroke-linecap="round" stroke-linejoin="round" d="M 276 104 l 5 20"/><path fill="none" stroke="#000000" stroke-width="2" stroke-linecap="round" stroke-linejoin="round" d="M 284 76 l 23 -13"/><path fill="none" stroke="#000000" stroke-width="2" stroke-linecap="round" stroke-linejoin="round" d="M 308 74 l -11 45"/><path fill="none" stroke="#000000" stroke-width="2" stroke-linecap="round" stroke-linejoin="round" d="M 289 131 l 12 -7"/></svg>