<?xml version="1.0" encoding="UTF-8" standalone="no"?><!DOCTYPE svg PUBLIC "-//W3C//DTD SVG 1.1//EN" "http://www.w3.org/Graphics/SVG/1.1/DTD/svg11.dtd"><svg xmlns="http://www.w3.org/2000/svg" version="1.1" width="286" height="101"><path fill="none" stroke="#000000" stroke-width="2" stroke-linecap="round" stroke-linejoin="round" d="M 1 26 c 0.14 -0.02 5.4 -0.32 8 -1 c 14.07 -3.66 42 -12 42 -12"/><path fill="none" stroke="#000000" stroke-width="2" stroke-linecap="round" stroke-linejoin="round" d="M 16 55 c 0.12 0 4.77 0.42 7 0 c 8.18 -1.53 16.48 -4.34 25 -6 c 5.34 -1.04 16 -2 16 -2"/><path fill="none" stroke="#000000" stroke-width="2" stroke-linecap="round" stroke-linejoin="round" d="M 38 39 l 4 41"/><path fill="none" stroke="#000000" stroke-width="2" stroke-linecap="round" stroke-linejoin="round" d="M 10 100 c 0.21 0 7.94 0.32 12 0 c 17.32 -1.37 35.11 -4.76 51 -5 c 4.81 -0.07 10.41 3.31 15 4 c 1.51 0.23 5 -1 5 -1"/><path fill="none" stroke="#000000" stroke-width="2" stroke-linecap="round" stroke-linejoin="round" d="M 86 17 c 0.09 0.18 3.04 6.97 5 10 c 1.62 2.5 6 7 6 7"/><path fill="none" stroke="#000000" stroke-width="2" stroke-linecap="round" stroke-linejoin="round" d="M 130 1 l -26 36"/><path fill="none" stroke="#000000" stroke-width="2" stroke-linecap="round" stroke-linejoin="round" d="M 78 59 c 0.52 -0.24 19.58 -9.59 30 -14 c 9.76 -4.14 19.66 -7.21 29 -11 c 1.09 -0.44 3 -2 3 -2"/><path fill="none" stroke="#000000" stroke-width="2" stroke-linecap="round" stroke-linejoin="round" d="M 111 49 c -0.09 0.42 -4.14 16.26 -5 24 c -0.42 3.8 0.17 9.11 1 12 c 0.25 0.87 2.08 1.87 3 2 c 1.05 0.15 2.82 -0.49 4 -1 c 1.03 -0.44 2.24 -1.16 3 -2 c 2.41 -2.65 7 -9 7 -9"/><path fill="none" stroke="#000000" stroke-width="2" stroke-linecap="round" stroke-linejoin="round" d="M 119 60 c 0.24 0.23 9.25 9.2 14 13 c 1.67 1.33 3.94 2.27 6 3 c 2.53 0.9 5.38 1.09 8 2 c 6.13 2.12 18 7 18 7"/><path fill="none" stroke="#000000" stroke-width="2" stroke-linecap="round" stroke-linejoin="round" d="M 170 45 l 10 16"/><path fill="none" stroke="#000000" stroke-width="2" stroke-linecap="round" stroke-linejoin="round" d="M 173 46 c 0.26 -0.19 9.72 -8.15 15 -11 c 6.75 -3.65 15.65 -7.05 22 -9 c 1.1 -0.34 3.88 0.26 4 1 c 0.33 2.01 -1.09 7.38 -2 11 c -0.77 3.08 -3 9 -3 9"/><path fill="none" stroke="#000000" stroke-width="2" stroke-linecap="round" stroke-linejoin="round" d="M 175 64 c 0.4 -0.14 15.53 -4.89 23 -8 c 4.53 -1.89 13 -7 13 -7"/><path fill="none" stroke="#000000" stroke-width="2" stroke-linecap="round" stroke-linejoin="round" d="M 184 8 c 0.05 0.26 2.4 9.88 3 15 c 1.42 12.1 1.53 24.02 3 36 c 0.54 4.42 3 13 3 13"/><path fill="none" stroke="#000000" stroke-width="2" stroke-linecap="round" stroke-linejoin="round" d="M 179 95 c 0.09 -0.02 3.42 -0.41 5 -1 c 9.98 -3.71 30 -12 30 -12"/><path fill="none" stroke="#000000" stroke-width="2" stroke-linecap="round" stroke-linejoin="round" d="M 221 64 c 0.02 0.07 0.41 2.82 1 4 c 2.63 5.26 9 16 9 16"/><path fill="none" stroke="#000000" stroke-width="2" stroke-linecap="round" stroke-linejoin="round" d="M 226 40 c 0.47 -0.31 18.28 -11.9 27 -18 c 1.14 -0.8 3 -3 3 -3"/><path fill="none" stroke="#000000" stroke-width="2" stroke-linecap="round" stroke-linejoin="round" d="M 251 40 c 0 0.14 0.32 5.44 0 8 c -0.33 2.64 -1.77 5.35 -2 8 c -0.42 4.82 -0.47 10.55 0 15 c 0.14 1.33 2 4 2 4"/><path fill="none" stroke="#000000" stroke-width="2" stroke-linecap="round" stroke-linejoin="round" d="M 239 88 c 0.38 -0.14 14.42 -5.69 22 -8 c 8.01 -2.44 24 -6 24 -6"/></svg>