<?xml version="1.0" encoding="UTF-8" standalone="no"?><!DOCTYPE svg PUBLIC "-//W3C//DTD SVG 1.1//EN" "http://www.w3.org/Graphics/SVG/1.1/DTD/svg11.dtd"><svg xmlns="http://www.w3.org/2000/svg" version="1.1" width="338" height="177"><path fill="none" stroke="#000000" stroke-width="2" stroke-linecap="round" stroke-linejoin="round" d="M 52 1 c 0 0.1 0.39 4.12 0 6 c -1.22 5.85 -2.8 12.17 -5 18 c -3.48 9.22 -7.44 17.98 -12 27 c -10.5 20.75 -21.96 40.21 -32 60 c -1.08 2.12 -2.1 6.6 -2 7 l 3 -3"/><path fill="none" stroke="#000000" stroke-width="2" stroke-linecap="round" stroke-linejoin="round" d="M 12 108 c 0.39 -0.19 20.08 -13.35 22 -11 c 2.96 3.63 0.56 25.12 0 38 c -0.46 10.56 -3 31 -3 31"/><path fill="none" stroke="#000000" stroke-width="2" stroke-linecap="round" stroke-linejoin="round" d="M 53 106 c 0.09 -0.19 3.53 -7.18 5 -11 c 1.92 -4.99 2.55 -10.81 5 -15 c 2.86 -4.88 7.64 -9.64 12 -14 c 5.36 -5.36 10.99 -10.99 17 -15 c 5.58 -3.72 12.48 -6.47 19 -9 c 5.49 -2.14 11.14 -3.49 17 -5 c 4.74 -1.22 9.24 -2.24 14 -3 c 3.67 -0.59 11 -1 11 -1"/><path fill="none" stroke="#000000" stroke-width="2" stroke-linecap="round" stroke-linejoin="round" d="M 115 3 c -0.07 0.11 -3.73 3.97 -4 6 c -0.9 6.77 -0.59 15.92 0 24 c 1.1 15.25 4.31 29.73 5 45 c 1 22.26 0.56 46.32 0 66 c -0.04 1.33 -1.03 3.56 -2 4 c -1.97 0.9 -6.15 1.15 -9 1 c -3.21 -0.17 -10 -2 -10 -2"/><path fill="none" stroke="#000000" stroke-width="2" stroke-linecap="round" stroke-linejoin="round" d="M 82 97 c 0.07 0.18 2.23 7.7 4 10 c 1.1 1.43 6 3 6 3"/><path fill="none" stroke="#000000" stroke-width="2" stroke-linecap="round" stroke-linejoin="round" d="M 185 52 c 0 1 1.23 39.02 0 57 c -0.36 5.29 -2.96 10.91 -5 16 c -1.25 3.13 -3.15 6.74 -5 9 c -0.8 0.98 -4 2 -4 2"/><path fill="none" stroke="#000000" stroke-width="2" stroke-linecap="round" stroke-linejoin="round" d="M 169 79 c 0.14 -0.52 4.66 -20.4 8 -30 c 1.92 -5.53 4.98 -10.9 8 -16 c 2.3 -3.88 5.1 -7.53 8 -11 c 2.11 -2.53 4.51 -5.34 7 -7 c 2.15 -1.43 5.42 -2.4 8 -3 c 1.51 -0.35 4.12 -0.63 5 0 c 0.95 0.68 1.93 3.38 2 5 c 0.24 5.43 0.7 12.57 -1 18 c -6.88 21.91 -24.02 63.89 -26 68 c -0.28 0.58 -2 -6.84 -2 -10 c 0 -3.77 0.92 -8.24 2 -12 c 0.87 -3.05 2.4 -6.6 4 -9 c 0.81 -1.22 3.36 -3.13 4 -3 c 0.53 0.11 1.14 2.78 1 4 c -0.46 3.94 -1.36 9.01 -3 13 c -3.57 8.7 -12.08 25.33 -13 26 c -0.58 0.42 0.67 -12.24 2 -18 c 1.63 -7.04 4.29 -14.04 7 -21 c 2.02 -5.2 4.32 -10.14 7 -15 c 2.69 -4.88 7.1 -12.68 9 -14 c 0.73 -0.51 3.69 3.27 4 5 c 0.84 4.6 0.37 11.25 0 17 c -0.65 10.2 -0.35 20.61 -3 30 c -7.44 26.4 -27.49 78.61 -28 80 c -0.13 0.34 3.47 -13.52 6 -20 c 2.82 -7.21 6.3 -13.88 10 -21 c 14.24 -27.39 29.06 -51.97 42 -79 c 5.86 -12.23 8.97 -25.29 14 -38 c 1.39 -3.51 3.16 -7.01 5 -10 c 0.7 -1.14 2.47 -3.26 3 -3 c 0.83 0.42 2.86 4 3 6 c 0.77 11.31 0.42 25.06 0 38 c -0.26 8.2 -0.91 15.85 -2 24 c -1.98 14.74 -5.02 28.37 -7 43 c -0.73 5.38 -0.4 10.63 -1 16 c -0.42 3.74 -0.97 7.69 -2 11 c -0.54 1.72 -2.2 5.1 -3 5 c -1.07 -0.13 -3.57 -3.82 -5 -6 c -5.6 -8.53 -10.15 -17.49 -16 -26 c -5.33 -7.75 -11.69 -14.57 -17 -22 c -1.28 -1.79 -2.47 -4.07 -3 -6 c -0.39 -1.44 -0.63 -4.12 0 -5 c 0.68 -0.95 3.29 -1.6 5 -2 c 3.86 -0.91 7.97 -1.74 12 -2 c 6.29 -0.41 15.23 -0.75 19 0 c 0.82 0.16 1 2.76 1 4 c 0 1.53 -0.25 3.76 -1 5 c -1.03 1.72 -3.64 3.25 -5 5 c -0.86 1.11 -1.71 2.7 -2 4 l 0 5"/><path fill="none" stroke="#000000" stroke-width="2" stroke-linecap="round" stroke-linejoin="round" d="M 312 11 c 0.03 0.07 1.76 2.69 2 4 c 0.37 2.05 0.61 5.04 0 7 c -0.9 2.88 -5 9 -5 9"/><path fill="none" stroke="#000000" stroke-width="2" stroke-linecap="round" stroke-linejoin="round" d="M 290 53 c 0.05 0.04 2.16 2.2 3 2 c 3.55 -0.84 13.33 -6.33 14 -6 c 0.53 0.26 -5.03 6.32 -8 9 c -7.02 6.32 -15.66 11.91 -22 18 c -1.8 1.73 -3.43 4.71 -4 7 c -0.64 2.55 -0.59 6.33 0 9 c 0.65 2.92 2.17 6.74 4 9 c 2.12 2.61 5.83 5.1 9 7 c 3.36 2.01 7.29 3.87 11 5 c 3.73 1.14 7.98 1.69 12 2 c 4.63 0.36 10.27 1.19 14 0 c 3.63 -1.16 8.68 -5.02 11 -8 l 3 -10"/><path fill="none" stroke="#000000" stroke-width="2" stroke-linecap="round" stroke-linejoin="round" d="M 297 51 c 0.21 -0.12 7.84 -5.36 12 -7 c 6.55 -2.58 14.21 -4.43 21 -6 c 1.55 -0.36 4.94 -0.68 5 0 c 0.14 1.59 -1.87 8.49 -4 11 c -2.88 3.39 -8.8 5.7 -13 9 c -5.27 4.14 -15.24 11.18 -15 13 c 0.21 1.57 15.99 0.48 17 2 c 0.79 1.19 -5.72 7.04 -9 10 c -3.65 3.3 -11.51 8.71 -12 9 c -0.12 0.07 1.16 -2.25 2 -3 c 2.32 -2.09 5.33 -4.76 8 -6 c 1.88 -0.88 5.26 -1.53 7 -1 c 1.92 0.59 4.37 3.19 6 5 c 1.22 1.35 1.77 4.18 3 5 l 6 1"/></svg>