<?xml version="1.0" encoding="UTF-8" standalone="no"?><!DOCTYPE svg PUBLIC "-//W3C//DTD SVG 1.1//EN" "http://www.w3.org/Graphics/SVG/1.1/DTD/svg11.dtd"><svg xmlns="http://www.w3.org/2000/svg" version="1.1" width="352" height="185"><path fill="none" stroke="#000000" stroke-width="2" stroke-linecap="round" stroke-linejoin="round" d="M 124 98 l 1 1"/><path fill="none" stroke="#000000" stroke-width="2" stroke-linecap="round" stroke-linejoin="round" d="M 99 7 c -0.14 0 -6.61 -1.48 -8 0 c -21.65 23.11 -54.37 62.75 -81 95 c -3.55 4.3 -9.11 13.16 -9 14 c 0.07 0.59 10 -6 10 -6"/><path fill="none" stroke="#000000" stroke-width="2" stroke-linecap="round" stroke-linejoin="round" d="M 66 58 c 0.05 0.26 2.76 9.99 3 15 c 0.75 15.4 0.48 31.11 0 47 c -0.2 6.46 -2 19 -2 19"/><path fill="none" stroke="#000000" stroke-width="2" stroke-linecap="round" stroke-linejoin="round" d="M 78 77 c 0.3 -0.1 11.19 -4.47 17 -6 c 6.89 -1.81 14 -2.19 21 -4 c 11.29 -2.93 33 -10 33 -10"/><path fill="none" stroke="#000000" stroke-width="2" stroke-linecap="round" stroke-linejoin="round" d="M 119 47 c 0.07 0.26 2.39 10 4 15 c 1.44 4.48 3.66 8.53 5 13 c 1.68 5.6 3.22 11.22 4 17 c 1.56 11.62 2.74 24.86 3 35 c 0.03 1.29 -1.04 3.25 -2 4 c -1.63 1.27 -4.69 2.75 -7 3 c -6.37 0.68 -15.09 0.88 -21 0 c -2.03 -0.3 -4.64 -2.48 -6 -4 c -1.01 -1.14 -2.1 -3.52 -2 -5 c 0.19 -2.87 1.13 -7.8 3 -10 c 3.08 -3.63 9 -7.17 14 -10 c 12.73 -7.2 39 -20 39 -20"/><path fill="none" stroke="#000000" stroke-width="2" stroke-linecap="round" stroke-linejoin="round" d="M 174 75 c 0.26 0 13.59 -2.12 15 0 c 1.98 2.97 -0.37 13.92 -1 21 c -0.39 4.43 -1.04 8.69 -2 13 c -1.06 4.78 -3.75 14.38 -4 14 c -0.34 -0.52 -0.63 -13.43 0 -20 c 0.7 -7.34 2.29 -14.73 4 -22 c 0.97 -4.11 2.19 -8.56 4 -12 c 1.32 -2.5 3.94 -5.5 6 -7 c 1.14 -0.83 3.52 -1.13 5 -1 c 1.84 0.17 4.8 0.8 6 2 c 1.95 1.95 4.25 5.99 5 9 c 1.1 4.39 1 9.91 1 15 c 0 9.14 0.49 19.35 -1 27 c -0.6 3.06 -3.72 6.55 -6 9 c -1.81 1.95 -4.66 3.92 -7 5 c -1.65 0.76 -4.21 1.15 -6 1 c -1.86 -0.16 -4.94 -0.82 -6 -2 c -1.43 -1.59 -2.61 -5.38 -3 -8 c -0.55 -3.68 -0.34 -8.06 0 -12 c 0.32 -3.68 0.64 -7.88 2 -11 c 1.75 -4.03 4.9 -8.5 8 -12 c 4.41 -4.98 9.73 -9.9 15 -14 c 3.57 -2.77 8.04 -5.02 12 -7 c 1.17 -0.59 3.81 -1.61 4 -1 c 0.78 2.51 1 11.26 1 17 c 0 6.08 -0.26 11.95 -1 18 c -1.29 10.55 -4.88 30.45 -5 31 c -0.04 0.16 -0.28 -5.99 0 -9 c 0.73 -7.75 1.42 -15.31 3 -23 c 3.85 -18.75 8.28 -36.14 13 -55 c 1.48 -5.91 3.08 -11.47 5 -17 c 0.73 -2.09 1.94 -5.77 3 -6 c 1.13 -0.25 5.15 2.3 6 4 c 1.69 3.38 2.42 9.24 3 14 c 1.1 9 1.83 17.75 2 27 c 0.52 29.05 0.98 56.44 0 85 c -0.37 10.83 -2.2 22.75 -4 32 c -0.28 1.43 -2.61 4.46 -3 4 l -8 -17"/><path fill="none" stroke="#000000" stroke-width="2" stroke-linecap="round" stroke-linejoin="round" d="M 229 81 c 0.11 -0.16 3.77 -7.66 6 -9 c 1.86 -1.11 7.05 -0.81 9 0 c 1.27 0.53 3 3.45 3 5 c 0 3.81 -1.23 9.8 -3 14 c -3.37 8 -12.51 22.6 -13 24 c -0.13 0.37 4.31 -2.37 6 -4 c 7.46 -7.19 14.77 -14.85 22 -23 c 8.87 -10 16.58 -19.48 25 -30 c 6.77 -8.46 12.15 -17.35 19 -25 c 4.33 -4.84 9.77 -9.18 15 -13 c 3.3 -2.41 7.55 -4.7 11 -6 c 1.38 -0.52 5 -0.7 5 0 c 0 2.2 -2.68 10.5 -5 15 c -3.17 6.16 -8.31 11.69 -12 18 c -4.43 7.57 -10.36 18.44 -12 23 c -0.23 0.63 2.07 2 3 2 c 2.12 0 5.43 -1.09 8 -2 c 3.07 -1.08 5.99 -3 9 -4 c 1.86 -0.62 6.27 -1.43 6 -1 c -2.12 3.41 -24.14 29.64 -29 38 c -0.65 1.12 2.39 3.79 4 5 c 6 4.5 13.24 9.62 20 13 c 4.13 2.06 9.41 3.27 14 4 l 11 0"/><path fill="none" stroke="#000000" stroke-width="2" stroke-linecap="round" stroke-linejoin="round" d="M 276 34 c 0.07 0.6 3.4 22.42 4 34 c 1.09 20.98 0.24 40.86 1 62 c 0.26 7.19 0.69 14.28 2 21 c 0.98 5.04 2.66 11.04 5 15 c 1.57 2.66 5.19 6.14 8 7 c 4.76 1.46 12.31 1.71 18 1 c 9.73 -1.22 21.29 -4.1 30 -7 l 6 -5"/><path fill="none" stroke="#000000" stroke-width="2" stroke-linecap="round" stroke-linejoin="round" d="M 274 1 l 12 12"/></svg>