<?xml version="1.0" encoding="UTF-8" standalone="no"?><!DOCTYPE svg PUBLIC "-//W3C//DTD SVG 1.1//EN" "http://www.w3.org/Graphics/SVG/1.1/DTD/svg11.dtd"><svg xmlns="http://www.w3.org/2000/svg" version="1.1" width="282" height="191"><path fill="none" stroke="#000000" stroke-width="2" stroke-linecap="round" stroke-linejoin="round" d="M 58 1 c 0.12 0.11 5.55 3.7 7 6 c 2.19 3.47 4.13 9.1 5 13 c 0.32 1.43 -1 5 -1 5"/><path fill="none" stroke="#000000" stroke-width="2" stroke-linecap="round" stroke-linejoin="round" d="M 27 52 l 2 37"/><path fill="none" stroke="#000000" stroke-width="2" stroke-linecap="round" stroke-linejoin="round" d="M 47 62 c 0.35 -0.16 13.44 -7.36 20 -9 c 5.99 -1.5 14.17 -1.62 20 -1 c 2.6 0.28 7.28 2.7 8 4 c 0.47 0.85 -1.76 3.64 -3 5 c -2.26 2.47 -8 7 -8 7"/><path fill="none" stroke="#000000" stroke-width="2" stroke-linecap="round" stroke-linejoin="round" d="M 42 122 c 0.16 -0.14 5.65 -6.11 9 -8 c 12.08 -6.8 34 -15.71 39 -19 c 0.65 -0.43 -2.51 -2.94 -4 -4 c -3.06 -2.19 -8.09 -5.68 -10 -6 c -0.73 -0.12 -1.96 2.67 -2 4 c -0.56 17.89 -0.29 39.61 0 60 c 0.05 3.75 0.86 10.86 1 11 c 0.12 0.12 0.51 -6.94 0 -10 l -3 -8"/><path fill="none" stroke="#000000" stroke-width="2" stroke-linecap="round" stroke-linejoin="round" d="M 77 120 c -0.05 0.05 -1.84 2.27 -3 3 c -23.49 14.84 -73 45 -73 45"/><path fill="none" stroke="#000000" stroke-width="2" stroke-linecap="round" stroke-linejoin="round" d="M 85 127 l 6 8"/><path fill="none" stroke="#000000" stroke-width="2" stroke-linecap="round" stroke-linejoin="round" d="M 123 98 l -6 16"/><path fill="none" stroke="#000000" stroke-width="2" stroke-linecap="round" stroke-linejoin="round" d="M 118 98 c 0.09 0.02 3.7 0.35 5 1 c 1.08 0.54 3 2.04 3 3 c 0 2.15 -1.68 6.36 -3 9 c -0.89 1.78 -2.45 3.64 -4 5 c -3.63 3.18 -11.78 8.85 -12 9 c -0.06 0.04 2.22 -1.89 3 -3 c 1.48 -2.12 4 -7 4 -7"/><path fill="none" stroke="#000000" stroke-width="2" stroke-linecap="round" stroke-linejoin="round" d="M 151 50 c 0.07 0.18 3.17 6.67 4 10 c 0.78 3.11 1 6.87 1 10 c 0 1.28 -1 4 -1 4"/><path fill="none" stroke="#000000" stroke-width="2" stroke-linecap="round" stroke-linejoin="round" d="M 136 98 c 0.11 -0.12 3.82 -4.82 6 -7 c 2.51 -2.51 6.42 -6.37 8 -7 c 0.54 -0.21 2.12 2.06 2 3 c -1.49 11.45 -5.07 28.95 -8 43 c -0.36 1.73 -1.35 4.74 -2 5 l -3 -3"/><path fill="none" stroke="#000000" stroke-width="2" stroke-linecap="round" stroke-linejoin="round" d="M 134 104 c -0.03 0.38 -2.29 18.97 -2 22 c 0.05 0.56 3.04 -0.25 4 -1 c 5.94 -4.65 13.22 -11.01 19 -17 c 3.08 -3.2 8.33 -11.2 8 -11 c -0.88 0.53 -19.02 15.08 -28 23 c -2.29 2.02 -6.11 6.67 -6 7 c 0.1 0.29 4.56 -2.97 7 -4 c 3.82 -1.61 7.93 -3.06 12 -4 c 4.55 -1.05 9.28 -1.69 14 -2 c 5.34 -0.36 10.77 0.4 16 0 c 3.34 -0.26 9.5 -2.08 10 -2 c 0.25 0.04 -2.55 2.24 -4 3 c -6.76 3.52 -21 10 -21 10"/><path fill="none" stroke="#000000" stroke-width="2" stroke-linecap="round" stroke-linejoin="round" d="M 179 28 c 0.11 -0.03 4.03 -1.77 6 -2 c 3.43 -0.4 7.75 -0.43 11 0 c 1.32 0.18 3.32 1.02 4 2 c 1.31 1.87 2.23 5.3 3 8 c 0.55 1.92 0.93 3.98 1 6 c 0.26 6.96 0.26 14.04 0 21 c -0.07 2.02 -0.5 4.02 -1 6 c -0.85 3.4 -1.73 7.45 -3 10 c -0.44 0.88 -2 1.75 -3 2 l -5 0"/><path fill="none" stroke="#000000" stroke-width="2" stroke-linecap="round" stroke-linejoin="round" d="M 172 49 c 0.28 0 11.25 -0.47 16 0 c 1.33 0.13 3.35 1.1 4 2 c 0.74 1.03 1.27 3.66 1 5 c -0.31 1.53 -1.73 3.65 -3 5 c -3.86 4.1 -12.75 11.81 -13 12 c -0.11 0.08 3.14 -4.14 5 -6 c 5.56 -5.56 12.07 -10.14 17 -16 c 7.27 -8.64 13.5 -18.38 20 -28 c 1.94 -2.88 3.2 -6.53 5 -9 c 0.63 -0.87 2.16 -2 3 -2 c 1.04 0 3 1.16 4 2 c 0.81 0.67 1.61 1.97 2 3 c 0.55 1.46 1 3.35 1 5 c 0 7.77 -0.28 16.1 -1 24 l -2 9"/><path fill="none" stroke="#000000" stroke-width="2" stroke-linecap="round" stroke-linejoin="round" d="M 207 35 c 0.12 -0.02 5.11 -1.19 7 -1 c 0.96 0.1 2.7 1.19 3 2 c 0.51 1.35 0.65 4.37 0 6 c -1.75 4.37 -8.66 13.45 -8 14 c 0.68 0.57 14 -9 14 -9"/><path fill="none" stroke="#000000" stroke-width="2" stroke-linecap="round" stroke-linejoin="round" d="M 191 83 c -0.05 0.3 -2.26 11.34 -3 17 c -0.26 1.97 0 6 0 6"/><path fill="none" stroke="#000000" stroke-width="2" stroke-linecap="round" stroke-linejoin="round" d="M 183 89 c 0.4 -0.05 15.35 -1.5 23 -3 c 7.84 -1.53 16.12 -4.73 23 -6 c 1.19 -0.22 3.59 0.28 4 1 c 0.6 1.05 0.57 4.3 0 6 c -1.27 3.8 -3.5 8.84 -6 12 c -2.12 2.69 -9 7 -9 7"/><path fill="none" stroke="#000000" stroke-width="2" stroke-linecap="round" stroke-linejoin="round" d="M 182 108 c 0.37 -0.17 14.31 -6.11 21 -10 c 7.66 -4.45 15.46 -10.09 22 -15 c 0.89 -0.66 2.04 -3.05 2 -3 c -0.15 0.17 -5.54 6.46 -8 10 c -2.93 4.21 -4.98 8.92 -8 13 c -3.65 4.93 -7.88 9.63 -12 14 c -1.12 1.19 -4.08 3.03 -4 3 c 0.2 -0.09 7.94 -3.56 11 -6 c 3.28 -2.62 5.94 -6.94 9 -10 c 0.82 -0.82 3.07 -2.16 3 -2 c -0.3 0.67 -5.55 8.51 -8 13 c -1.58 2.9 -2.96 5.89 -4 9 c -1.63 4.9 -3.02 10.11 -4 15 c -0.31 1.57 -0.34 3.62 0 5 c 0.25 1 1.45 3.18 2 3 l 7 -6"/><path fill="none" stroke="#000000" stroke-width="2" stroke-linecap="round" stroke-linejoin="round" d="M 224 109 c 0.03 0.26 2.16 10.26 2 15 c -0.16 4.79 -1.65 10.29 -3 15 c -0.59 2.07 -1.83 4.25 -3 6 c -0.74 1.11 -1.88 2.33 -3 3 c -2.01 1.21 -4.9 3 -7 3 c -3.14 0 -7.59 -1.72 -11 -3 c -1.74 -0.65 -3.67 -1.86 -5 -3 c -0.82 -0.71 -1.87 -2.08 -2 -3 c -0.15 -1.05 0.36 -2.94 1 -4 c 1.21 -2.01 3.17 -4.17 5 -6 c 2.16 -2.16 4.52 -4.35 7 -6 c 2.4 -1.6 5.26 -2.91 8 -4 c 2.23 -0.89 4.71 -1.62 7 -2 c 1.57 -0.26 3.62 -0.34 5 0 c 1 0.25 2.9 1.29 3 2 c 0.15 1.06 -1 3.64 -2 5 c -3.43 4.65 -7.73 9.73 -12 14 c -2.64 2.64 -9.21 7.06 -9 7 c 0.4 -0.12 18.58 -9.82 19 -10 l -5 4"/><path fill="none" stroke="#000000" stroke-width="2" stroke-linecap="round" stroke-linejoin="round" d="M 159 170 c 0.26 0.07 10.2 2.33 15 4 c 2.77 0.96 5.95 3.63 8 4 c 0.83 0.15 1.97 -1.61 3 -2 c 1.46 -0.55 5 -1 5 -1"/><path fill="none" stroke="#000000" stroke-width="2" stroke-linecap="round" stroke-linejoin="round" d="M 247 156 c 0.12 0.07 4.61 3.16 7 4 c 3.02 1.07 6.73 1.05 10 2 c 4.76 1.39 9.56 3.17 14 5 c 1.08 0.44 3.35 1.85 3 2 c -5.79 2.51 -56 21 -56 21"/></svg>