<?xml version="1.0" encoding="UTF-8" standalone="no"?><!DOCTYPE svg PUBLIC "-//W3C//DTD SVG 1.1//EN" "http://www.w3.org/Graphics/SVG/1.1/DTD/svg11.dtd"><svg xmlns="http://www.w3.org/2000/svg" version="1.1" width="308" height="145"><path fill="none" stroke="#000000" stroke-width="2" stroke-linecap="round" stroke-linejoin="round" d="M 95 67 c -0.09 0.02 -4.61 0 -5 1 c -1.3 3.35 -1.84 11.33 -2 17 c -0.17 6.3 -0.37 13.23 1 19 c 1.48 6.25 4.01 14.88 8 19 c 5.38 5.55 16.55 11.45 24 14 c 3.76 1.29 10.53 0.84 14 -1 c 6.48 -3.43 14.29 -10.79 20 -17 c 5.31 -5.78 10.59 -13.18 14 -20 c 2.61 -5.22 3.98 -12.11 5 -18 c 0.6 -3.47 0.72 -7.71 0 -11 c -0.85 -3.89 -2.73 -9.08 -5 -12 c -1.89 -2.43 -5.99 -5.38 -9 -6 c -5.57 -1.15 -13.38 -0.59 -20 0 c -8.38 0.74 -18.28 0.93 -25 4 c -7.17 3.27 -16.22 10.74 -21 17 c -3.97 5.21 -6.48 14.09 -8 21 c -1.35 6.16 -1.38 13.58 -1 20 c 0.27 4.59 0.97 10.53 3 14 c 2.1 3.6 7.04 7.89 11 10 c 5.31 2.83 12.79 5.44 19 6 c 11.22 1.02 25.06 1.64 36 -1 c 17.88 -4.32 37.54 -12.43 55 -21 c 19.02 -9.34 38.96 -20.42 55 -33 c 12.22 -9.58 24.92 -23.59 33 -36 c 5.23 -8.03 13.07 -25.02 10 -30 c -4.13 -6.7 -25.98 -14.42 -39 -17 c -22.08 -4.38 -47.39 -4.4 -72 -5 c -31.03 -0.76 -61.75 -2.33 -91 1 c -22.22 2.53 -44.96 10.25 -67 17 c -10.72 3.28 -23.99 7.69 -31 13 l -6 15"/></svg>