<?xml version="1.0" encoding="UTF-8" standalone="no"?><!DOCTYPE svg PUBLIC "-//W3C//DTD SVG 1.1//EN" "http://www.w3.org/Graphics/SVG/1.1/DTD/svg11.dtd"><svg xmlns="http://www.w3.org/2000/svg" version="1.1" width="212" height="159"><path fill="none" stroke="#000000" stroke-width="2" stroke-linecap="round" stroke-linejoin="round" d="M 1 50 c 0.86 -0.7 32.63 -26.17 49 -40 c 3.29 -2.78 8.91 -8.55 9 -9 c 0.06 -0.31 -5.98 2.12 -8 4 c -6.73 6.25 -14.19 14.15 -20 22 c -6.4 8.65 -13.33 19.02 -17 28 c -1.8 4.39 -1.23 11.19 -1 16 c 0.08 1.62 0.91 3.91 2 5 c 2.46 2.46 7.2 6.72 10 7 c 2.56 0.26 6.85 -3.08 10 -5 c 2.82 -1.72 6.97 -6 8 -6 c 0.62 0 0.78 4.44 0 6 c -4.53 9.07 -12.4 19.82 -18 30 c -1.72 3.13 -3.07 6.66 -4 10 c -0.69 2.5 -1.28 5.6 -1 8 c 0.33 2.83 1.64 7.79 3 9 c 0.87 0.78 4.52 -0.14 6 -1 c 2.06 -1.2 4.22 -3.8 6 -6 c 3.9 -4.81 7.74 -9.98 11 -15 c 0.94 -1.45 2.15 -3.94 2 -5 c -0.1 -0.71 -2.08 -1.87 -3 -2 c -1.05 -0.15 -2.88 0.39 -4 1 c -2.33 1.27 -5.32 2.95 -7 5 c -3.95 4.83 -7.62 11.21 -11 17 c -1.27 2.18 -2.28 4.65 -3 7 c -0.58 1.88 -0.83 3.99 -1 6 c -0.17 1.98 -0.41 4.22 0 6 c 0.52 2.26 1.57 5.57 3 7 c 1.43 1.43 4.89 2.86 7 3 c 2.28 0.15 5.5 -0.95 8 -2 c 10.03 -4.22 20.32 -8.64 30 -14 c 9.08 -5.03 17.78 -11.03 26 -17 c 2.62 -1.9 5.09 -4.41 7 -7 c 3.64 -4.93 8.41 -11.42 10 -16 c 0.61 -1.77 -0.74 -5.86 -2 -7 c -1.43 -1.29 -5.52 -2 -8 -2 c -3.07 0 -7.03 0.67 -10 2 c -12.12 5.42 -36.29 18.66 -37 19 c -0.08 0.04 2.66 -2.85 4 -3 c 3.77 -0.42 9.78 0.16 14 1 c 2.01 0.4 4.19 1.79 6 3 c 2.11 1.4 4.16 3.16 6 5 c 3.18 3.18 5.88 7.1 9 10 c 1.35 1.26 3.4 2.77 5 3 c 2.49 0.36 6.54 0.14 9 -1 l 19 -12"/><path fill="none" stroke="#000000" stroke-width="2" stroke-linecap="round" stroke-linejoin="round" d="M 127 65 c -0.21 0.11 -8.42 3.61 -12 6 c -3.21 2.14 -6.42 5.03 -9 8 c -3.98 4.58 -7.74 9.98 -11 15 c -0.94 1.45 -2.32 5.05 -2 5 c 0.6 -0.1 5.79 -3.61 8 -6 c 10.2 -11.01 19.67 -23.58 30 -35 c 2.38 -2.63 5.14 -5.05 8 -7 c 3.37 -2.3 7.23 -4.3 11 -6 c 2.86 -1.29 7.24 -3.44 9 -3 c 1.24 0.31 3.27 4.37 3 6 c -0.54 3.26 -3.59 8.24 -6 12 c -5.27 8.25 -11.03 16.03 -17 24 c -2.16 2.88 -4.98 6.99 -7 8 c -1.02 0.51 -4.66 -1.08 -5 -2 c -0.4 -1.08 1.01 -4.51 2 -6 c 0.78 -1.18 2.57 -2.39 4 -3 c 2.98 -1.28 7.83 -3 10 -3 c 0.75 0 2.43 2.36 2 3 c -7.52 11.28 -25.7 33.66 -38 51 c -2.42 3.42 -4.3 7.35 -6 11 c -0.56 1.2 -1.36 3.17 -1 4 c 0.43 1.01 2.73 3 4 3 c 3.38 0 9.18 -1.65 13 -3 c 1.43 -0.51 2.96 -1.78 4 -3 c 4.75 -5.55 9.85 -11.63 14 -18 c 5.21 -8 13.27 -24.73 14 -25 c 0.58 -0.22 -5.66 18.08 -6 22 c -0.06 0.71 3.07 1.46 4 1 c 3.37 -1.68 8.6 -5.6 12 -9 c 4.04 -4.04 7.9 -12.11 11 -14 c 1.33 -0.81 5.65 3.67 7 3 c 2.16 -1.08 4.95 -6.48 7 -10 c 2.63 -4.51 4.94 -9.13 7 -14 c 2.67 -6.29 4.27 -13.31 7 -19 c 1.05 -2.2 3.23 -4.42 5 -6 c 1.02 -0.9 2.96 -2 4 -2 c 0.84 0 2.71 1.14 3 2 c 0.8 2.4 1.41 6.9 1 10 l -5 20"/></svg>