<?xml version="1.0" encoding="UTF-8" standalone="no"?><!DOCTYPE svg PUBLIC "-//W3C//DTD SVG 1.1//EN" "http://www.w3.org/Graphics/SVG/1.1/DTD/svg11.dtd"><svg xmlns="http://www.w3.org/2000/svg" version="1.1" width="193" height="131"><path fill="none" stroke="#000000" stroke-width="2" stroke-linecap="round" stroke-linejoin="round" d="M 32 17 c -0.1 0.12 -5.07 4.68 -6 7 c -0.81 2.01 0.45 5.44 0 8 c -1.51 8.53 -3.71 17.04 -6 26 c -6.38 25 -19 72 -19 72"/><path fill="none" stroke="#000000" stroke-width="2" stroke-linecap="round" stroke-linejoin="round" d="M 21 51 c 0.11 -0.31 3.57 -13.15 6 -18 c 0.82 -1.64 3.23 -2.82 5 -4 c 2.23 -1.49 4.58 -3 7 -4 c 3.13 -1.29 6.53 -2.04 10 -3 c 2.74 -0.76 5.35 -1.72 8 -2 c 3.53 -0.37 9 -0.83 11 0 c 0.93 0.39 1 3.38 1 5 c 0 3.18 0.44 7.5 -1 10 c -4.18 7.27 -11.68 15.47 -18 23 c -2.45 2.92 -5.08 5.69 -8 8 c -5.02 3.97 -10.83 8.52 -16 11 c -2.41 1.16 -7.76 1.99 -9 1 c -1.24 -0.99 -1 -6.01 -1 -9 c 0 -5.3 -0.68 -11.79 1 -16 c 1.87 -4.67 11 -14 11 -14"/><path fill="none" stroke="#000000" stroke-width="2" stroke-linecap="round" stroke-linejoin="round" d="M 109 17 c 0 0.21 1.08 8.51 0 12 c -2.94 9.51 -9.3 19.63 -13 30 c -4.73 13.25 -8.18 26.35 -12 40 c -0.93 3.33 -1.95 10.22 -2 10 c -0.09 -0.41 -0.73 -12.85 0 -19 c 0.91 -7.62 5 -23 5 -23"/><path fill="none" stroke="#000000" stroke-width="2" stroke-linecap="round" stroke-linejoin="round" d="M 103 33 l 1 -5"/><path fill="none" stroke="#000000" stroke-width="2" stroke-linecap="round" stroke-linejoin="round" d="M 76 10 c 0.14 0.12 5.56 4.43 8 7 c 3.91 4.12 7.54 8.39 11 13 c 4.68 6.24 13 19 13 19"/><path fill="none" stroke="#000000" stroke-width="2" stroke-linecap="round" stroke-linejoin="round" d="M 145 14 c 0.05 0.16 1.6 6.54 3 9 c 1.05 1.83 3.2 3.5 5 5 c 2.19 1.83 4.56 3.7 7 5 c 2.42 1.29 8 3 8 3"/><path fill="none" stroke="#000000" stroke-width="2" stroke-linecap="round" stroke-linejoin="round" d="M 188 1 c 0.05 0.07 2.67 2.6 3 4 c 0.86 3.64 1.81 9.58 1 13 c -0.62 2.62 -3.81 5.47 -6 8 c -2.17 2.5 -4.5 4.81 -7 7 c -2.88 2.52 -6.13 4.42 -9 7 c -7.3 6.57 -14.69 12.77 -21 20 c -7.31 8.38 -20 27 -20 27"/></svg>