<?xml version="1.0" encoding="UTF-8" standalone="no"?><!DOCTYPE svg PUBLIC "-//W3C//DTD SVG 1.1//EN" "http://www.w3.org/Graphics/SVG/1.1/DTD/svg11.dtd"><svg xmlns="http://www.w3.org/2000/svg" version="1.1" width="339" height="242"><path fill="none" stroke="#000000" stroke-width="2" stroke-linecap="round" stroke-linejoin="round" d="M 124 7 c -0.05 0.11 -2.27 3.94 -3 6 c -0.9 2.53 -1.4 5.22 -2 8 c -1.12 5.15 -2.24 9.86 -3 15 c -0.94 6.42 -1.86 12.54 -2 19 c -0.54 24.69 0 73 0 73"/><path fill="none" stroke="#000000" stroke-width="2" stroke-linecap="round" stroke-linejoin="round" d="M 126 17 c 0.03 -0.09 1.11 -3.76 2 -5 c 0.59 -0.83 1.99 -1.84 3 -2 c 2.81 -0.43 6.95 -0.41 10 0 c 1.64 0.22 3.85 0.97 5 2 c 1.83 1.65 3.64 4.52 5 7 c 2.27 4.13 4.99 8.8 6 13 c 0.85 3.52 0.72 8.57 0 12 c -0.49 2.3 -2.21 5.4 -4 7 c -4.01 3.59 -9.91 7.12 -15 10 c -2.41 1.36 -5.38 2.63 -8 3 c -3.99 0.57 -9.15 0.45 -13 0 c -1.33 -0.16 -3.35 -1.1 -4 -2 l -1 -5"/><path fill="none" stroke="#000000" stroke-width="2" stroke-linecap="round" stroke-linejoin="round" d="M 210 9 c 0.18 0.72 6.36 26.97 10 41 c 1.17 4.52 2.39 8.79 4 13 c 1.06 2.77 4 8 4 8"/><path fill="none" stroke="#000000" stroke-width="2" stroke-linecap="round" stroke-linejoin="round" d="M 254 20 c 0.03 -0.09 1.77 -5 2 -5 c 0.21 0 0.49 3.66 0 5 c -0.7 1.93 -2.32 4.43 -4 6 c -7.94 7.41 -17.74 14.1 -26 22 c -7.21 6.89 -14.94 14.12 -20 22 c -5.79 9.02 -10.16 20.5 -14 31 c -2.44 6.67 -3.63 13.9 -5 21 c -0.64 3.31 -1 10 -1 10"/><path fill="none" stroke="#000000" stroke-width="2" stroke-linecap="round" stroke-linejoin="round" d="M 296 1 c -0.05 0.07 -2.66 2.65 -3 4 c -0.54 2.16 -0.18 5.29 0 8 c 0.5 7.49 0.95 14.68 2 22 c 0.63 4.42 1.67 9.01 3 13 c 0.58 1.74 1.86 3.67 3 5 c 0.71 0.82 1.99 1.83 3 2 c 2.53 0.42 9 0 9 0"/><path fill="none" stroke="#000000" stroke-width="2" stroke-linecap="round" stroke-linejoin="round" d="M 338 1 c -0.02 0.12 -0.38 4.82 -1 7 c -0.67 2.35 -1.77 4.81 -3 7 c -1.75 3.11 -3.73 6.11 -6 9 c -12.69 16.15 -25.24 30.63 -38 47 c -5.45 6.99 -10.06 13.71 -15 21 c -2.23 3.29 -4.65 6.51 -6 10 c -2.53 6.53 -6 21 -6 21"/><path fill="none" stroke="#000000" stroke-width="2" stroke-linecap="round" stroke-linejoin="round" d="M 1 241 l 1 1"/></svg>