<?xml version="1.0" encoding="UTF-8" standalone="no"?><!DOCTYPE svg PUBLIC "-//W3C//DTD SVG 1.1//EN" "http://www.w3.org/Graphics/SVG/1.1/DTD/svg11.dtd"><svg xmlns="http://www.w3.org/2000/svg" version="1.1" width="260" height="115"><path fill="none" stroke="#000000" stroke-width="2" stroke-linecap="round" stroke-linejoin="round" d="M 23 11 c -0.02 0.37 0.53 14.38 -1 21 c -4.32 18.72 -11.29 37.29 -17 57 c -1.19 4.1 -2.35 7.95 -3 12 c -0.68 4.26 -1 13 -1 13"/><path fill="none" stroke="#000000" stroke-width="2" stroke-linecap="round" stroke-linejoin="round" d="M 29 17 c 0.05 -0.07 1.8 -3.73 3 -4 c 3.61 -0.8 10.89 -0.93 15 0 c 2.36 0.54 5.15 3.15 7 5 c 1.25 1.25 2.8 3.32 3 5 c 0.69 5.75 1.02 14.48 0 20 c -0.44 2.38 -3.16 4.82 -5 7 c -1.82 2.15 -3.85 4.18 -6 6 c -2.18 1.84 -4.6 4.4 -7 5 c -4.75 1.19 -11.68 1.22 -17 1 c -2.27 -0.09 -5.27 -0.9 -7 -2 c -1.52 -0.97 -2.88 -3.24 -4 -5 c -1.18 -1.85 -2.51 -4.06 -3 -6 l 0 -6"/><path fill="none" stroke="#000000" stroke-width="2" stroke-linecap="round" stroke-linejoin="round" d="M 94 16 c 0.03 0.09 0.87 3.84 2 5 c 7.99 8.26 28 26 28 26"/><path fill="none" stroke="#000000" stroke-width="2" stroke-linecap="round" stroke-linejoin="round" d="M 151 7 c -0.02 0.09 -0.09 3.85 -1 5 c -4.67 5.9 -12.2 12.34 -18 19 c -3.32 3.81 -6.4 7.75 -9 12 c -3.73 6.08 -6.85 12.38 -10 19 c -3.68 7.74 -7.26 15.1 -10 23 c -2.94 8.49 -7 26 -7 26"/><path fill="none" stroke="#000000" stroke-width="2" stroke-linecap="round" stroke-linejoin="round" d="M 192 14 c 0.02 0.09 0.29 3.58 1 5 c 2.44 4.88 5.68 10.1 9 15 c 3.8 5.61 7.72 10.87 12 16 c 2.42 2.9 8 8 8 8"/><path fill="none" stroke="#000000" stroke-width="2" stroke-linecap="round" stroke-linejoin="round" d="M 259 1 c -0.07 0.05 -3.13 1.84 -4 3 c -0.93 1.25 -0.86 4.1 -2 5 c -2.84 2.23 -8.52 3.62 -12 6 c -2.57 1.76 -4.82 4.47 -7 7 c -4.24 4.91 -8.66 9.63 -12 15 c -5.92 9.51 -10.99 19.53 -16 30 c -6.26 13.1 -17 39 -17 39"/></svg>