<?xml version="1.0" encoding="UTF-8" standalone="no"?><!DOCTYPE svg PUBLIC "-//W3C//DTD SVG 1.1//EN" "http://www.w3.org/Graphics/SVG/1.1/DTD/svg11.dtd"><svg xmlns="http://www.w3.org/2000/svg" version="1.1" width="279" height="192"><path fill="none" stroke="#000000" stroke-width="2" stroke-linecap="round" stroke-linejoin="round" d="M 1 62 c 0.07 -0.07 2.48 -2.97 4 -4 c 8.59 -5.82 18.45 -10.86 27 -17 c 4.36 -3.13 8.09 -7.09 12 -11 c 3.23 -3.23 6.53 -6.47 9 -10 c 2.05 -2.93 3.67 -6.67 5 -10 c 0.61 -1.52 1.6 -4.11 1 -5 c -0.94 -1.41 -4.88 -3.72 -7 -4 c -2.17 -0.29 -5.67 0.91 -8 2 c -3.05 1.44 -6.27 3.73 -9 6 c -3.21 2.67 -6.58 5.72 -9 9 c -3.07 4.15 -5.84 9.17 -8 14 c -2.12 4.73 -3.93 10.01 -5 15 c -0.88 4.11 -1 8.67 -1 13 c 0 4 0.41 8.05 1 12 c 0.41 2.71 0.99 5.64 2 8 c 0.89 2.07 2.38 4.79 4 6 c 1.92 1.44 5.38 2.59 8 3 c 3.37 0.53 7.58 0.51 11 0 c 2.95 -0.44 6.16 -1.78 9 -3 c 1.75 -0.75 4.92 -3.32 5 -3 c 0.11 0.45 -2.36 4.96 -4 7 c -3.59 4.49 -8.35 8.3 -12 13 c -8.14 10.46 -15.85 21.03 -23 32 c -2.84 4.36 -5.01 9.22 -7 14 c -1.33 3.19 -2.82 7.01 -3 10 c -0.12 2.08 1.07 4.84 2 7 c 1.03 2.39 2.43 4.95 4 7 c 1.66 2.15 3.8 4.7 6 6 c 3.04 1.79 7.28 3.11 11 4 c 4.5 1.08 9.48 2 14 2 c 4.83 0 10.34 -0.71 15 -2 c 4.69 -1.29 9.78 -3.5 14 -6 c 4.54 -2.69 9.14 -6.3 13 -10 c 4.01 -3.84 7.92 -8.38 11 -13 c 3.48 -5.22 6.57 -11.2 9 -17 c 1.84 -4.39 3.24 -9.42 4 -14 c 0.52 -3.15 0.37 -6.83 0 -10 c -0.27 -2.31 -0.91 -5.09 -2 -7 c -1.38 -2.42 -4.2 -6.76 -6 -7 c -2.02 -0.27 -7.1 2.59 -9 5 c -10.49 13.31 -21.85 32.79 -32 47 c -0.64 0.9 -2.38 2.12 -3 2 c -0.62 -0.12 -2.26 -3.06 -2 -3 c 2.37 0.57 20.43 7.31 31 10 l 28 5"/><path fill="none" stroke="#000000" stroke-width="2" stroke-linecap="round" stroke-linejoin="round" d="M 140 62 c -0.03 0.28 -1.74 10.59 -2 16 c -0.41 8.39 -0.47 25.4 0 25 c 0.6 -0.51 5.68 -20.57 7 -31 c 1.67 -13.14 1.12 -26.53 2 -40 c 0.13 -2.05 0.42 -4.25 1 -6 c 0.35 -1.04 1.3 -3 2 -3 c 1.49 0 5.07 1.67 7 3 c 2.15 1.49 4.44 3.76 6 6 c 3.62 5.21 7.12 11.24 10 17 c 1.39 2.77 2.45 6.07 3 9 c 0.41 2.16 0.28 4.74 0 7 c -0.37 2.98 -0.9 6.34 -2 9 c -1.12 2.72 -3.11 5.59 -5 8 c -1.7 2.17 -3.85 4.34 -6 6 c -2.05 1.57 -4.66 3.16 -7 4 c -2.05 0.73 -4.79 1 -7 1 c -1.59 0 -3.73 -0.3 -5 -1 c -1.41 -0.78 -3.2 -2.54 -4 -4 c -1.02 -1.88 -2.12 -4.9 -2 -7 c 0.18 -3.29 1.69 -7.94 3 -11 c 0.49 -1.14 2.14 -3 3 -3 c 1.18 0 4.7 1.71 5 3 c 0.73 3.1 -0.06 9.55 -1 14 c -1.34 6.31 -3.2 13.03 -6 19 c -9.48 20.24 -23.97 42.56 -31 60 c -1.27 3.14 1.59 11.07 2 12 c 0.12 0.28 1.58 -1.91 2 -3 c 4.44 -11.54 8.33 -23.81 13 -36 c 1.47 -3.85 3.03 -7.59 5 -11 c 1.63 -2.82 4.19 -7.44 6 -8 c 1.46 -0.45 5.83 2.24 7 4 c 1.66 2.49 2.43 7.31 3 11 c 0.75 4.87 1 9.97 1 15 c 0 4.7 -0.06 9.55 -1 14 c -1.34 6.31 -3.76 13.53 -6 19 c -0.48 1.16 -2.26 3.11 -3 3 c -0.98 -0.14 -3.32 -2.53 -4 -4 c -1.11 -2.4 -1.88 -6.06 -2 -9 c -0.2 -5.1 0.15 -14.91 1 -16 c 0.49 -0.63 4.06 6.03 6 7 c 1.28 0.64 4.47 -0.1 6 -1 c 3.58 -2.1 7.43 -5.72 11 -9 c 9.06 -8.32 22.25 -22.46 26 -25 c 0.66 -0.45 2.38 4.28 2 6 c -1.91 8.59 -6.32 19.82 -10 30 c -2.14 5.92 -6.81 16.7 -7 17 c -0.09 0.15 0.99 -6.08 2 -9 c 6.04 -17.55 12.35 -34.16 19 -52 c 0.92 -2.45 1.82 -4.84 3 -7 c 0.77 -1.42 1.99 -3.57 3 -4 c 0.83 -0.36 3.39 0.21 4 1 c 1.27 1.63 2.28 5.27 3 8 c 0.94 3.57 1.69 7.32 2 11 c 0.36 4.27 0.52 8.87 0 13 c -0.45 3.62 -1.67 7.51 -3 11 c -1.31 3.43 -3.13 6.67 -5 10 c -2.92 5.21 -5.97 10.7 -9 15 l -3 2"/><path fill="none" stroke="#000000" stroke-width="2" stroke-linecap="round" stroke-linejoin="round" d="M 187 161 c 0.02 -0.12 0.29 -5.05 1 -7 c 0.5 -1.38 1.87 -3.03 3 -4 c 1.01 -0.87 4 -2 4 -2"/><path fill="none" stroke="#000000" stroke-width="2" stroke-linecap="round" stroke-linejoin="round" d="M 171 187 l 11 -7"/><path fill="none" stroke="#000000" stroke-width="2" stroke-linecap="round" stroke-linejoin="round" d="M 236 32 c -0.03 0.21 -1.57 7.87 -2 12 c -1.61 15.34 -4 45 -4 45"/><path fill="none" stroke="#000000" stroke-width="2" stroke-linecap="round" stroke-linejoin="round" d="M 247 22 c 0.04 -0.3 1 -12.01 2 -17 c 0.21 -1.05 1.45 -3 2 -3 c 0.65 0 2.43 1.86 3 3 c 1.58 3.15 2.99 7.23 4 11 c 1.32 4.92 2.53 10 3 15 c 0.52 5.55 0.28 11.21 0 17 c -0.41 8.55 -0.73 16.93 -2 25 c -0.69 4.37 -2.08 10.38 -4 13 c -1.03 1.4 -5.12 2.16 -7 2 c -1.5 -0.13 -3.83 -1.67 -5 -3 c -3.46 -3.93 -7.19 -9.25 -10 -14 c -1.39 -2.36 -2.28 -5.31 -3 -8 c -0.59 -2.23 -1.18 -5.01 -1 -7 c 0.11 -1.26 1.08 -3.08 2 -4 c 1.49 -1.49 3.98 -3.22 6 -4 c 1.98 -0.76 4.75 -1 7 -1 c 2.25 0 5.35 0.1 7 1 c 1.5 0.82 3.34 3.27 4 5 c 0.84 2.17 1.25 5.52 1 8 c -0.38 3.8 -1.28 8.47 -3 12 c -4.37 8.96 -11.05 17.89 -16 27 c -1.35 2.48 -2.73 5.45 -3 8 c -0.35 3.29 0.91 7.25 1 11 c 0.25 10.53 0.95 20.97 0 31 c -0.69 7.3 -4.8 21.48 -5 22 c -0.08 0.21 -0.76 -6.29 0 -9 c 3.03 -10.84 7.35 -23 12 -34 c 2.66 -6.28 7.65 -15.8 10 -18 c 0.73 -0.68 4.27 2.43 5 4 c 1.28 2.74 1.72 7.32 2 11 c 0.38 4.93 0.83 10.28 0 15 c -1.43 8.17 -3.93 17.42 -7 25 c -1.71 4.21 -5.27 8.53 -8 12 c -0.68 0.87 -2.81 2.39 -3 2 c -0.54 -1.08 -1.17 -6.84 -1 -10 c 0.15 -2.9 1.09 -6.1 2 -9 c 0.75 -2.39 1.82 -4.84 3 -7 c 0.77 -1.42 1.9 -2.9 3 -4 c 0.8 -0.8 2.06 -1.88 3 -2 c 1.33 -0.17 4.12 0.27 5 1 c 0.71 0.59 0.69 4.2 1 4 c 0.7 -0.47 3.53 -5.19 5 -8 c 2.58 -4.94 5.14 -9.8 7 -15 c 3.16 -8.84 7.83 -27.68 8 -27 c 0.29 1.14 -1.53 31.12 -3 47 c -0.57 6.15 -2.72 17.58 -3 18 c -0.18 0.28 -1.32 -8.09 -1 -12 c 0.99 -12.12 3.07 -25.99 5 -37 c 0.19 -1.06 1.82 -3.23 2 -3 c 0.34 0.46 0.91 4.64 1 7 c 0.24 6.01 0.44 11.93 0 18 c -0.91 12.55 -1.88 25.24 -4 37 l -5 13"/></svg>