<?xml version="1.0" encoding="UTF-8" standalone="no"?><!DOCTYPE svg PUBLIC "-//W3C//DTD SVG 1.1//EN" "http://www.w3.org/Graphics/SVG/1.1/DTD/svg11.dtd"><svg xmlns="http://www.w3.org/2000/svg" version="1.1" width="214" height="231"><path fill="none" stroke="#000000" stroke-width="2" stroke-linecap="round" stroke-linejoin="round" d="M 11 92 c 0.24 -0.56 8.73 -21.31 14 -32 c 7.36 -14.92 16.45 -28.7 23 -43 c 2.21 -4.84 5.02 -14.46 4 -16 c -0.78 -1.18 -9.72 1.47 -12 4 c -5.4 6 -10.39 16.94 -15 26 c -4.88 9.59 -9.06 18.98 -13 29 c -3.53 8.98 -6.89 17.99 -9 27 c -1.49 6.37 -1.59 13.2 -2 20 c -0.27 4.4 -1.48 10.18 0 13 c 1.55 2.95 7.34 6.95 11 8 c 4.58 1.31 11.55 0.66 17 0 c 5.28 -0.64 10.72 -2.38 16 -4 c 3.45 -1.06 6.79 -3.2 10 -4 c 1.79 -0.45 4.14 -0.31 6 0 c 1.96 0.33 5.6 0.73 6 2 c 1.08 3.42 0.87 11.5 0 17 c -3.08 19.49 -8.47 39.59 -12 59 c -0.41 2.26 -0.78 6.22 0 7 c 0.67 0.67 4.59 -0.3 6 -1 c 0.83 -0.42 2.33 -2.89 2 -3 c -0.73 -0.24 -5.94 -0.21 -8 1 c -10.28 6.02 -21.81 15.88 -33 23 c -3.36 2.14 -7.47 4.07 -11 5 c -2.34 0.62 -7.29 1.27 -8 0 c -1.43 -2.54 -1.9 -11.11 -1 -16 c 1.93 -10.52 5.71 -22.42 10 -33 c 5.01 -12.35 11.17 -24.39 18 -36 c 6.59 -11.2 13.94 -21.84 22 -32 c 7.34 -9.26 15.45 -18.02 24 -26 c 6.38 -5.96 13.79 -12.04 21 -16 c 5.44 -2.99 12.78 -5.02 19 -6 c 5.93 -0.94 13.61 -1.31 19 0 c 4.58 1.11 11.04 4.62 14 8 c 3.21 3.66 6.08 10.77 7 16 c 1.26 7.19 0.93 16.26 0 24 c -1.03 8.6 -2.9 18.09 -6 26 c -3.33 8.49 -8.77 16.98 -14 25 c -4.82 7.39 -10.28 14.44 -16 21 c -3.22 3.7 -7.23 7.28 -11 10 c -1.93 1.4 -5.34 3 -7 3 c -0.92 0 -2.96 -1.92 -3 -3 c -0.23 -6.88 -0.24 -18.78 2 -27 c 3.49 -12.81 9.91 -26.12 16 -39 c 5.75 -12.17 12.24 -22.98 19 -35 c 5.71 -10.15 10.82 -19.53 17 -29 c 3.93 -6.03 8.31 -11.72 13 -17 c 3.26 -3.67 9.4 -9.2 11 -10 c 0.44 -0.22 1.17 2.78 1 4 c -0.74 5.45 -4.36 14.03 -4 18 c 0.14 1.55 3.95 3.59 6 4 c 5.42 1.08 13.55 -0.21 19 1 c 2.7 0.6 6.22 2.94 8 5 c 2.12 2.44 4.53 6.66 5 10 c 1.38 9.87 2.6 22.74 1 33 c -2.22 14.26 -7.9 29.85 -13 44 c -2.14 5.93 -5.12 12.42 -9 17 c -6.56 7.75 -15.8 15.62 -24 22 c -3.38 2.63 -8.04 4.89 -12 6 l -13 1"/></svg>