<?xml version="1.0" encoding="UTF-8" standalone="no"?><!DOCTYPE svg PUBLIC "-//W3C//DTD SVG 1.1//EN" "http://www.w3.org/Graphics/SVG/1.1/DTD/svg11.dtd"><svg xmlns="http://www.w3.org/2000/svg" version="1.1" width="265" height="223"><path fill="none" stroke="#000000" stroke-width="2" stroke-linecap="round" stroke-linejoin="round" d="M 1 113 c 0.05 -0.16 1.69 -6.14 3 -9 c 2.35 -5.12 4.92 -10.24 8 -15 c 4.28 -6.61 8.95 -12.72 14 -19 c 6.22 -7.73 12.26 -14.59 19 -22 c 7.05 -7.75 13.63 -14.43 21 -22 c 5.14 -5.28 9.71 -10.1 15 -15 c 3.9 -3.61 11.81 -9.81 12 -10 c 0.14 -0.14 -6.35 4.35 -9 7 c -4.61 4.61 -8.9 9.66 -13 15 c -6.08 7.91 -12.66 15.63 -17 24 c -4.71 9.09 -8.14 19.81 -11 30 c -2.46 8.76 -4.82 18.53 -5 27 c -0.14 6.6 1.89 14.67 4 21 c 1.37 4.11 4.07 9.21 7 12 c 3.41 3.24 9.39 6.57 14 8 c 4.3 1.33 10.55 1.74 15 1 c 4.78 -0.8 10.66 -3.37 15 -6 c 4.57 -2.78 8.88 -7.08 13 -11 c 2.91 -2.78 5.55 -5.88 8 -9 c 1.19 -1.51 3.05 -5.09 3 -5 c -0.54 0.98 -20.99 36.72 -31 56 c -3.92 7.55 -7.57 15.5 -10 23 c -1.07 3.3 -1.16 7.47 -1 11 c 0.16 3.57 1.08 7.56 2 11 c 0.37 1.38 1.16 3 2 4 c 0.67 0.81 2.06 1.88 3 2 c 1.33 0.17 3.85 -0.11 5 -1 c 4.13 -3.21 9.33 -8.15 13 -13 c 13.9 -18.36 26.44 -37.11 40 -57 c 7.18 -10.54 13.9 -20.38 20 -31 c 2.89 -5.03 5.61 -11.37 7 -16 c 0.33 -1.09 -0.41 -2.96 -1 -4 c -0.61 -1.07 -1.93 -2.68 -3 -3 c -1.76 -0.53 -4.96 -0.57 -7 0 c -3.52 0.98 -7.71 2.89 -11 5 c -4.85 3.1 -9.78 6.93 -14 11 c -5.04 4.86 -9.39 10.36 -14 16 c -4.64 5.68 -8.74 11.03 -13 17 c -4.31 6.03 -12 16.22 -12 18 c 0 1.02 9.04 -0.86 12 -3 c 10.01 -7.22 20.2 -19 31 -28 c 5.38 -4.48 11.09 -8.38 17 -12 c 4.45 -2.73 9.52 -5.69 14 -7 c 2.86 -0.84 7.07 -0.55 10 0 c 1.97 0.37 4.27 1.79 6 3 c 1.46 1.02 3.13 2.61 4 4 c 0.63 1.01 1 4.08 1 4 c 0 -0.3 -1.34 -10.1 -1 -15 c 0.64 -9.22 2.14 -18.51 4 -28 c 4.64 -23.7 9.89 -48.28 15 -69 c 0.36 -1.47 1.87 -3.5 3 -4 c 1.35 -0.6 4.18 -0.39 6 0 c 2.59 0.56 5.96 1.54 8 3 c 2.21 1.58 4.68 4.47 6 7 c 2.13 4.07 4.61 9.55 5 14 c 0.53 6.02 -0.46 13.7 -2 20 c -2.04 8.33 -6.18 16.35 -9 25 c -2.32 7.11 -4.75 14.15 -6 21 c -0.68 3.77 -0.76 8.94 0 12 c 0.36 1.44 2.67 3.92 4 4 c 2.9 0.18 8.7 -1.22 12 -3 c 4.75 -2.56 9.81 -6.99 14 -11 c 3.34 -3.2 6.24 -7.18 9 -11 c 1.56 -2.17 4.07 -7.12 4 -7 c -0.9 1.47 -34.98 55.9 -51 84 c -2.79 4.89 -6.38 14.35 -6 16 c 0.21 0.92 6.61 -1.4 9 -3 c 4.11 -2.74 8.51 -6.91 12 -11 c 8.11 -9.5 16.05 -19.69 23 -30 c 3.29 -4.88 5.77 -10.43 8 -16 l 10 -29"/></svg>