<?xml version="1.0" encoding="UTF-8" standalone="no"?><!DOCTYPE svg PUBLIC "-//W3C//DTD SVG 1.1//EN" "http://www.w3.org/Graphics/SVG/1.1/DTD/svg11.dtd"><svg xmlns="http://www.w3.org/2000/svg" version="1.1" width="204" height="217"><path fill="none" stroke="#000000" stroke-width="2" stroke-linecap="round" stroke-linejoin="round" d="M 1 137 c 0.02 -0.24 0.22 -9.45 1 -14 c 0.87 -5.03 2.36 -9.94 4 -15 c 6.93 -21.33 14.15 -40.67 21 -62 c 2.06 -6.4 3.81 -12.63 5 -19 c 0.79 -4.23 1 -8.66 1 -13 c 0 -4.34 -1.03 -13.23 -1 -13 c 0.24 1.71 9.48 66.04 13 98 c 0.39 3.57 0.22 7.91 -1 11 c -2.17 5.52 -6.87 11.07 -10 17 c -3.34 6.32 -6.12 12.42 -9 19 c -1.91 4.36 -4 8.81 -5 13 c -0.57 2.41 -1.22 7.06 0 8 c 2 1.54 9.24 2.63 13 2 c 5.25 -0.87 11.2 -5 17 -7 c 3.9 -1.35 8.03 -2.54 12 -3 c 4.49 -0.52 10.63 -0.94 14 0 c 1.54 0.43 3.73 5.4 4 5 c 0.46 -0.69 -1.13 -7.89 0 -11 c 4.07 -11.26 10.86 -23.71 17 -36 c 6.28 -12.56 12.04 -23.99 19 -36 c 6.69 -11.54 13.32 -22.69 21 -33 c 4.86 -6.53 11.04 -12.68 17 -18 c 3.14 -2.8 7.51 -5.64 11 -7 c 1.87 -0.73 5.41 -0.72 7 0 c 1.46 0.66 3.77 3.26 4 5 c 0.91 6.81 1.46 17.28 0 25 c -2.04 10.74 -6.56 22.21 -11 33 c -4.97 12.07 -10.64 23.48 -17 35 c -6.17 11.17 -12.81 21.31 -20 32 c -5.45 8.1 -10.88 15.69 -17 23 c -4.24 5.06 -9.19 10.06 -14 14 c -2.17 1.78 -6.43 4 -8 4 c -0.78 0 -2.24 -2.82 -2 -4 c 1.96 -9.82 5.16 -25.11 10 -36 c 5.47 -12.3 13.89 -24.34 22 -36 c 8.08 -11.61 16.81 -21.75 26 -33 c 7.76 -9.5 14.79 -18.99 23 -27 c 5.14 -5.01 11.89 -9.54 18 -13 c 3.48 -1.97 8.13 -3.09 12 -4 c 1.53 -0.36 4.72 -0.83 5 0 c 0.83 2.49 1.55 10.89 0 15 c -3.57 9.44 -10.53 20.44 -17 30 c -8.97 13.26 -18.2 26 -29 38 c -28.75 31.95 -88 92 -88 92"/></svg>