<?xml version="1.0" encoding="UTF-8" standalone="no"?><!DOCTYPE svg PUBLIC "-//W3C//DTD SVG 1.1//EN" "http://www.w3.org/Graphics/SVG/1.1/DTD/svg11.dtd"><svg xmlns="http://www.w3.org/2000/svg" version="1.1" width="283" height="184"><path fill="none" stroke="#000000" stroke-width="2" stroke-linecap="round" stroke-linejoin="round" d="M 1 45 c 0.4 -0.07 15.27 -2.3 23 -4 c 6.19 -1.36 12.12 -2.97 18 -5 c 3.8 -1.31 8.62 -2.98 11 -5 c 1.25 -1.06 1.88 -4.09 2 -6 c 0.19 -3.04 0.22 -7.33 -1 -10 c -2.09 -4.57 -6.93 -11.13 -10 -14 c -0.89 -0.83 -4.73 -0.94 -5 0 c -2.88 10.16 -6.25 35.06 -10 53 c -1.01 4.84 -2.52 9.18 -4 14 c -2.67 8.69 -4.82 16.96 -8 25 c -1.79 4.52 -4.58 9.37 -7 13 c -0.59 0.89 -2.85 2.29 -3 2 c -0.25 -0.5 0.19 -4.39 1 -6 c 1.33 -2.65 3.69 -5.69 6 -8 c 5.25 -5.25 11.41 -10.68 17 -15 c 1.33 -1.03 4.39 -2.51 5 -2 c 0.81 0.67 1.31 4.8 1 7 c -2.21 15.48 -6.84 33.33 -9 49 c -0.39 2.85 0.42 6.1 1 9 c 0.4 2.02 0.96 4.52 2 6 c 1.05 1.5 3.5 3.88 5 4 c 2 0.15 6.13 -1.69 8 -3 c 0.98 -0.68 1.71 -2.7 2 -4 c 0.32 -1.46 0.34 -3.62 0 -5 c -0.25 -1 -1.14 -2.57 -2 -3 c -1.98 -0.99 -5.69 -2 -8 -2 c -1.51 0 -3.6 1.06 -5 2 c -2.4 1.6 -5.07 3.77 -7 6 c -2.26 2.61 -4.44 5.87 -6 9 c -1.69 3.39 -3.21 7.44 -4 11 c -0.47 2.13 -0.35 4.88 0 7 c 0.27 1.63 1.06 3.65 2 5 c 1.24 1.77 3.17 3.95 5 5 c 2.46 1.4 6.11 2.74 9 3 c 3.97 0.36 9 0 13 -1 c 4.96 -1.24 10.26 -3.55 15 -6 c 5.54 -2.86 10.9 -6.3 16 -10 c 4.61 -3.34 9.03 -7.03 13 -11 c 3.31 -3.31 6.43 -7.08 9 -11 c 3.73 -5.69 8.45 -12.32 10 -18 c 1.13 -4.15 -0.3 -10.32 -1 -15 c -0.25 -1.68 -1.16 -3.43 -2 -5 c -1.48 -2.74 -3.24 -6.24 -5 -8 c -0.77 -0.77 -3 -1.25 -4 -1 c -1.22 0.3 -2.97 1.77 -4 3 c -5.72 6.81 -11.19 15.13 -17 22 c -1.34 1.58 -3.21 2.92 -5 4 c -3.13 1.88 -6.84 3.95 -10 5 c -1.42 0.47 -3.52 0.37 -5 0 c -2.25 -0.56 -7.11 -3.07 -7 -3 c 0.83 0.53 31.46 19.39 48 29 c 4.62 2.68 9.18 4.96 14 7 l 12 4"/><path fill="none" stroke="#000000" stroke-width="2" stroke-linecap="round" stroke-linejoin="round" d="M 146 44 c 0.04 0.14 1.85 5.32 2 8 c 0.83 14.61 0.78 44.24 1 45 c 0.15 0.52 2.33 -20.46 3 -31 c 0.35 -5.42 0.27 -10.56 0 -16 c -0.41 -8.2 -2 -17.37 -2 -24 c 0 -0.99 1.21 -2.94 2 -3 c 2.46 -0.19 7.76 0.66 11 2 c 5.97 2.47 13.29 6.36 18 10 c 1.85 1.43 3.35 4.74 4 7 c 0.56 1.97 0.57 4.9 0 7 c -1.64 6.07 -3.96 13.46 -7 19 c -2.34 4.27 -6.45 8.84 -10 12 c -2.03 1.81 -5.45 3.22 -8 4 c -1.43 0.44 -4.02 0.56 -5 0 c -0.88 -0.5 -1.88 -2.75 -2 -4 c -0.17 -1.69 0.28 -4.24 1 -6 c 1.49 -3.62 5.72 -10.91 6 -11 c 0.23 -0.08 -1.6 6.92 -3 10 c -1.86 4.09 -4.3 8.21 -7 12 c -5.68 7.96 -11.8 15.76 -18 23 c -1.66 1.94 -5.19 3.07 -6 5 c -1.47 3.5 -1.59 9.19 -2 14 c -1.3 15.35 -3.73 44.48 -3 45 c 0.67 0.48 6.3 -26.42 10 -40 c 1.42 -5.21 3.16 -10.28 5 -15 c 0.42 -1.08 1.58 -3.24 2 -3 c 1.01 0.57 4.17 4.51 5 7 c 2.27 6.8 4.11 15.37 5 23 c 0.75 6.48 0.25 13.37 0 20 c -0.08 2.02 -0.42 4.25 -1 6 c -0.35 1.04 -1.25 2.92 -2 3 c -1.52 0.17 -5.12 -0.98 -7 -2 c -1.46 -0.8 -3.3 -2.5 -4 -4 c -1.41 -3.02 -2.58 -7.62 -3 -11 c -0.19 -1.51 0.41 -3.52 1 -5 c 0.68 -1.69 1.78 -3.78 3 -5 c 1.22 -1.22 3.42 -2.74 5 -3 c 1.91 -0.32 5.34 0.17 7 1 c 1.17 0.59 3.08 2.79 3 4 c -0.19 3.06 -2.4 8.58 -4 12 c -0.54 1.15 -3.03 3.23 -3 3 c 0.14 -0.98 2.58 -11.75 5 -17 c 5.12 -11.14 11.97 -22.67 18 -33 c 0.68 -1.17 2.46 -3.34 3 -3 c 1.2 0.75 4.45 5.34 5 8 c 0.94 4.51 0.56 10.71 0 16 c -1.1 10.37 -2.89 20.71 -5 31 c -0.91 4.46 -4.05 13.23 -4 13 c 0.08 -0.41 4.21 -15.03 6 -23 c 2.68 -11.97 4.41 -22.97 7 -35 c 1.2 -5.56 2.45 -11.1 4 -16 c 0.34 -1.07 1.52 -3.16 2 -3 c 0.85 0.28 3.04 3.21 4 5 c 1.61 3.01 3.09 6.56 4 10 c 2.07 7.83 3.6 15.78 5 24 c 0.98 5.74 1.8 11.41 2 17 c 0.13 3.61 -0.3 10.77 -1 11 c -0.65 0.22 -3.98 -6.15 -5 -9 c -0.49 -1.38 -0.3 -3.49 0 -5 c 0.32 -1.62 1.06 -3.9 2 -5 c 0.78 -0.91 2.77 -1.86 4 -2 c 1.4 -0.16 4.21 0.21 5 1 c 0.79 0.79 1.48 3.69 1 5 c -1.8 4.95 -5.61 12.13 -9 17 l -7 6"/><path fill="none" stroke="#000000" stroke-width="2" stroke-linecap="round" stroke-linejoin="round" d="M 235 57 c -0.07 0.37 -2.98 13.87 -4 21 c -0.67 4.68 -1.07 14.24 -1 14 c 0.12 -0.41 3.03 -15.84 4 -24 c 0.72 -6.05 1 -11.87 1 -18 c 0 -9.52 -1.61 -23.87 -1 -28 c 0.11 -0.75 3.87 0.09 5 1 c 4.71 3.77 10.76 9.75 15 15 c 2.5 3.1 5.11 7.42 6 11 c 0.93 3.71 0.6 9.17 0 13 c -0.31 1.98 -1.79 4.19 -3 6 c -1.4 2.11 -3.16 4.33 -5 6 c -1.7 1.54 -3.93 3.05 -6 4 c -2.09 0.96 -4.61 1.45 -7 2 c -2 0.46 -4.45 1.31 -6 1 c -1.27 -0.25 -3.91 -1.95 -4 -3 c -0.17 -1.99 1.29 -7.04 3 -9 c 2.35 -2.69 7.39 -5.07 11 -7 c 1.14 -0.61 2.95 -1.15 4 -1 c 0.92 0.13 2.85 1.19 3 2 c 0.37 2.03 -0.05 6.38 -1 9 c -1.55 4.26 -4.35 8.73 -7 13 c -6.88 11.06 -14.06 20.95 -21 32 c -2.27 3.62 -4.39 7.19 -6 11 c -2.03 4.81 -3.8 10.18 -5 15 c -0.38 1.52 -0.23 3.39 0 5 c 0.42 2.97 1.86 9.43 2 9 c 0.71 -2.13 6.21 -30.37 10 -45 c 0.81 -3.12 2.27 -7.43 4 -9 c 1.24 -1.13 4.83 -1 7 -1 c 1.27 0 2.96 0.41 4 1 c 1.07 0.61 2.28 1.88 3 3 c 1.51 2.37 3.04 5.28 4 8 c 0.99 2.81 1.72 6.01 2 9 c 0.37 3.89 0.56 8.19 0 12 c -0.73 4.93 -2.21 10.42 -4 15 c -1.09 2.78 -3.22 5.77 -5 8 c -0.68 0.85 -2.38 2.21 -3 2 c -0.86 -0.29 -2.57 -2.61 -3 -4 c -0.77 -2.52 -1.19 -6.09 -1 -9 c 0.45 -6.81 3 -20.63 3 -21 c 0 -0.3 -1.41 11.84 -3 17 c -0.95 3.08 -5.09 9.15 -5 9 c 0.42 -0.71 16.01 -27.98 24 -41 c 0.71 -1.16 2.04 -2.73 3 -3 c 0.93 -0.27 3.6 0.14 4 1 c 1.61 3.43 3.22 10.74 4 16 c 0.52 3.51 0.37 7.47 0 11 c -0.28 2.65 -1.06 5.49 -2 8 c -1.02 2.73 -3.19 7.33 -4 8 c -0.32 0.27 -2.03 -2 -2 -3 c 0.53 -15.8 2.26 -39.06 4 -57 c 0.16 -1.69 1.07 -3.75 2 -5 c 0.87 -1.16 2.93 -3.18 4 -3 c 2.01 0.34 6.35 2.83 8 5 c 3.13 4.11 5.69 10.55 8 16 c 1.35 3.18 2.25 6.62 3 10 c 0.58 2.61 0.86 5.29 1 8 c 0.2 4.03 0.23 8.07 0 12 c -0.1 1.67 -0.35 3.58 -1 5 c -0.91 2.01 -2.32 4.88 -4 6 c -2.72 1.81 -7.78 3.84 -11 4 c -2.61 0.13 -9.27 -2.46 -9 -3 c 0.35 -0.7 9.67 -3.33 12 -3 c 1.01 0.14 2.48 3.83 2 5 c -1.35 3.27 -5.76 8.07 -9 12 c -3.21 3.89 -6.42 7.6 -10 11 c -3.09 2.93 -10.16 8.16 -10 8 l 26 -24"/></svg>