<?xml version="1.0" encoding="UTF-8" standalone="no"?><!DOCTYPE svg PUBLIC "-//W3C//DTD SVG 1.1//EN" "http://www.w3.org/Graphics/SVG/1.1/DTD/svg11.dtd"><svg xmlns="http://www.w3.org/2000/svg" version="1.1" width="253" height="201"><path fill="none" stroke="#000000" stroke-width="2" stroke-linecap="round" stroke-linejoin="round" d="M 1 101 c 0.02 -0.16 0.34 -6.09 1 -9 c 0.99 -4.36 2.19 -8.85 4 -13 c 5.19 -11.87 10.73 -23.47 17 -35 c 4.2 -7.73 9.49 -14.41 14 -22 c 1.93 -3.25 3.67 -6.67 5 -10 c 0.61 -1.52 1 -3.47 1 -5 c 0 -1.24 -0.39 -3.08 -1 -4 c -0.54 -0.8 -2.27 -2.18 -3 -2 c -1.3 0.33 -3.82 2.4 -5 4 c -3.22 4.37 -6.75 9.8 -9 15 c -2.97 6.87 -5.21 14.5 -7 22 c -1.89 7.91 -3.83 16.32 -4 24 c -0.15 6.7 1.17 14.59 3 21 c 1.35 4.73 4.19 9.96 7 14 c 2.28 3.28 5.8 6.81 9 9 c 2.71 1.85 7.01 3.86 10 4 c 3.17 0.15 7.98 -1.41 11 -3 c 2.82 -1.48 5.87 -4.37 8 -7 c 3.34 -4.12 7.94 -13.05 9 -14 c 0.32 -0.29 1.33 3.59 1 5 c -0.85 3.59 -2.9 8.26 -5 12 c -3.86 6.86 -8.79 12.99 -13 20 c -5.05 8.42 -9.78 16.36 -14 25 c -3.17 6.49 -5.97 13.31 -8 20 c -1.24 4.09 -1.8 8.81 -2 13 c -0.12 2.57 0.39 5.56 1 8 c 0.34 1.35 0.99 3.46 2 4 c 2.57 1.39 7.76 3.14 11 3 c 3.6 -0.16 8.27 -2.32 12 -4 c 2.78 -1.25 6.14 -2.8 8 -5 c 6.51 -7.71 13 -17.45 19 -27 c 14.17 -22.58 25.97 -44.07 40 -67 c 3.89 -6.36 7.7 -12.06 12 -18 c 2.83 -3.9 9.39 -11.17 9 -11 c -0.91 0.41 -18.37 12.13 -27 19 c -6.11 4.86 -12.04 10.07 -17 16 c -11.98 14.33 -22.16 29.42 -34 45 c -1.34 1.77 -2.57 3.57 -4 5 c -0.8 0.8 -3.04 2.18 -3 2 c 0.08 -0.41 2.43 -5.43 4 -7 c 1.05 -1.05 3.3 -1.49 5 -2 c 1.61 -0.48 3.46 -1.11 5 -1 c 2.79 0.2 6.6 0.73 9 2 c 2.76 1.46 5.58 4.44 8 7 c 3.23 3.43 5.75 7.45 9 11 c 4.21 4.59 8.39 8.94 13 13 c 3.76 3.31 7.98 6.89 12 9 c 2.47 1.29 6.17 1.81 9 2 l 6 -1"/><path fill="none" stroke="#000000" stroke-width="2" stroke-linecap="round" stroke-linejoin="round" d="M 155 26 c -0.09 0.05 -3.75 1.75 -5 3 c -1.85 1.85 -3.57 4.52 -5 7 c -2.24 3.86 -4.28 7.86 -6 12 c -1.63 3.9 -2.82 7.88 -4 12 c -0.86 3 -1.58 6.03 -2 9 c -0.23 1.61 -0.55 5.1 0 5 c 1.43 -0.26 8.05 -4.19 11 -7 c 4.02 -3.84 8.07 -8.96 11 -14 c 6.61 -11.4 11.77 -26.18 18 -36 c 1.46 -2.3 5.52 -4.34 8 -5 c 1.86 -0.5 5.34 0.26 7 1 c 0.84 0.38 1.58 1.94 2 3 c 0.85 2.13 2.15 4.83 2 7 c -0.46 6.67 -2.13 14.95 -4 22 c -1.08 4.1 -3.06 8.02 -5 12 c -4.54 9.32 -8.79 18.74 -14 27 c -2.55 4.04 -6.79 8.25 -10 11 c -0.89 0.76 -2.95 1.15 -4 1 c -0.92 -0.13 -2.34 -1.15 -3 -2 c -1.48 -1.9 -3.31 -4.65 -4 -7 c -0.86 -2.92 -1 -6.72 -1 -10 c 0 -2.96 0.23 -6.25 1 -9 c 0.83 -3 2.38 -6.2 4 -9 c 2.01 -3.47 4.46 -6.87 7 -10 c 1.77 -2.18 3.92 -4.33 6 -6 c 1.1 -0.88 3.51 -2.4 4 -2 c 0.67 0.54 1.32 4.27 1 6 c -0.57 3.06 -2.34 6.77 -4 10 c -10.16 19.75 -21.26 38.26 -31 58 c -3 6.08 -5.31 12.51 -7 19 c -2.29 8.8 -3.1 18.85 -5 27 c -0.25 1.07 -2.03 3.06 -2 3 c 0.12 -0.21 4.92 -7.77 7 -12 c 6.76 -13.77 12.15 -27.29 19 -41 c 2.99 -5.98 6.66 -12.12 10 -17 c 0.61 -0.89 2.91 -2.34 3 -2 c 0.24 0.96 -0.4 6.7 -1 10 c -0.74 4.06 -1.61 8.07 -3 12 c -6.71 19.02 -14.26 37.32 -21 56 c -0.57 1.59 -1 5.09 -1 5 c 0 -0.28 0.38 -10.67 1 -16 c 0.39 -3.39 0.86 -7.06 2 -10 c 1.06 -2.72 3.12 -5.49 5 -8 c 2.12 -2.82 5.65 -7.25 7 -8 c 0.46 -0.25 2.15 2.17 2 3 c -0.37 2.05 -4.16 8.18 -4 8 c 0.96 -1.03 22.19 -26.55 34 -40 c 2.86 -3.26 8.4 -8.9 9 -9 c 0.4 -0.07 -1.76 5.52 -3 8 c -1.05 2.09 -3.21 3.87 -4 6 c -2.39 6.46 -4.75 14.01 -6 21 c -1.04 5.77 -1.24 12.74 -1 18 c 0.06 1.31 1.39 4.22 2 4 c 1.65 -0.6 6.56 -5.02 9 -8 c 3.37 -4.12 6.23 -9.11 9 -14 c 2.98 -5.26 5.03 -10.68 8 -16 c 3.5 -6.27 6.97 -12.91 11 -18 c 1.91 -2.41 6 -5.27 8 -6 c 0.72 -0.26 2.73 1.18 3 2 c 0.53 1.6 0.59 4.87 0 7 c -4.8 17.23 -10.96 36.18 -17 54 c -0.95 2.82 -2.98 8 -4 8 c -1.07 0 -3.86 -5.35 -5 -8 c -0.73 -1.71 -1.28 -4.21 -1 -6 c 0.63 -4.01 1.93 -9.11 4 -13 l 30 -51"/><path fill="none" stroke="#000000" stroke-width="2" stroke-linecap="round" stroke-linejoin="round" d="M 244 35 c -0.05 -0.04 -2.27 -2.18 -3 -2 c -1.3 0.33 -3.84 2.45 -5 4 c -1.62 2.16 -3 5.22 -4 8 c -1.98 5.51 -4.01 11.45 -5 17 c -0.62 3.44 -0.83 9 0 11 c 0.39 0.93 4.03 1.62 5 1 c 1.9 -1.21 4.22 -5.18 6 -8 c 2.23 -3.54 4.53 -7.25 6 -11 c 1.45 -3.71 2.31 -8.07 3 -12 c 0.28 -1.59 -0.34 -4.89 0 -5 c 0.34 -0.11 2.3 2.6 3 4 c 0.89 1.78 1.82 4.02 2 6 c 0.46 5.01 0.64 10.76 0 16 c -1.35 10.99 -3.11 22.29 -6 33 c -2.75 10.21 -6.89 19.9 -11 30 c -3.4 8.34 -8.53 16.19 -11 24 c -1.31 4.15 -1.74 13.89 -1 14 c 0.81 0.12 6.18 -8.46 8 -13 c 3.35 -8.38 4.95 -18.62 8 -27 c 0.78 -2.15 3.53 -6 4 -6 c 0.39 0 0.58 4.27 0 6 c -1.89 5.67 -7.01 13.86 -8 18 c -0.21 0.89 2.26 3 3 3 c 0.74 0 2.31 -1.86 3 -3 c 2.17 -3.61 4.36 -8.03 6 -12 c 0.62 -1.51 0.9 -5.15 1 -5 c 0.16 0.24 1.58 5.81 1 8 l -6 11"/></svg>