<?xml version="1.0" encoding="UTF-8" standalone="no"?><!DOCTYPE svg PUBLIC "-//W3C//DTD SVG 1.1//EN" "http://www.w3.org/Graphics/SVG/1.1/DTD/svg11.dtd"><svg xmlns="http://www.w3.org/2000/svg" version="1.1" width="294" height="182"><path fill="none" stroke="#000000" stroke-width="2" stroke-linecap="round" stroke-linejoin="round" d="M 70 1 c 0.04 0.25 1.56 9.21 2 14 c 0.59 6.44 1.16 12.66 1 19 c -0.18 7.03 -2 21 -2 21"/><path fill="none" stroke="#000000" stroke-width="2" stroke-linecap="round" stroke-linejoin="round" d="M 37 29 c -0.12 0.32 -5.39 12.26 -7 18 c -0.58 2.08 -0.63 5.27 0 7 c 0.51 1.4 2.75 4.07 4 4 c 3.08 -0.18 8.93 -2.83 13 -5 c 10.88 -5.8 21.12 -13.2 32 -19 c 4.07 -2.17 8.68 -3.87 13 -5 c 3.11 -0.81 7.01 -1.33 10 -1 c 2.54 0.28 5.58 1.71 8 3 c 2.44 1.3 4.96 3.13 7 5 c 1.85 1.7 3.67 3.81 5 6 c 4.27 7.03 12 22 12 22"/><path fill="none" stroke="#000000" stroke-width="2" stroke-linecap="round" stroke-linejoin="round" d="M 72 50 c -0.4 0.39 -15.59 14.07 -23 22 c -16.82 18 -46.73 52.38 -48 54 c -0.25 0.32 12 -8 12 -8"/><path fill="none" stroke="#000000" stroke-width="2" stroke-linecap="round" stroke-linejoin="round" d="M 41 95 c 0 0.51 -0.35 19.1 0 29 c 0.33 9.25 1.03 17.75 2 27 c 1.09 10.34 4 30 4 30"/><path fill="none" stroke="#000000" stroke-width="2" stroke-linecap="round" stroke-linejoin="round" d="M 104 58 l -2 5"/><path fill="none" stroke="#000000" stroke-width="2" stroke-linecap="round" stroke-linejoin="round" d="M 67 103 c 0.28 -0.16 10.6 -6.3 16 -9 c 1.86 -0.93 3.93 -1.38 6 -2 c 1.35 -0.4 2.85 -1.13 4 -1 c 1.5 0.17 3.94 0.94 5 2 c 1.87 1.87 3.73 5.2 5 8 c 2.01 4.41 3.71 9.17 5 14 c 2.76 10.33 7 24.03 7 31 c 0 1.89 -5.07 5 -7 5 c -2.31 0 -9 -5 -9 -5"/><path fill="none" stroke="#000000" stroke-width="2" stroke-linecap="round" stroke-linejoin="round" d="M 75 115 c 0.42 -0.05 20.12 -3.32 24 -3 c 0.8 0.07 -0.85 4.68 0 5 c 2.73 1.02 13.65 -0.25 16 1 c 1.04 0.55 -0.31 4.83 -1 7 c -1.26 3.99 -2.98 8.33 -5 12 c -1.55 2.82 -3.74 5.54 -6 8 c -5.44 5.91 -16.48 14.54 -17 17 c -0.28 1.35 8.71 1.85 13 2 c 5.22 0.18 10.5 -0.94 16 -1 c 24.7 -0.28 47.8 0.3 72 0 c 2.71 -0.03 5.6 -0.25 8 -1 l 8 -4"/><path fill="none" stroke="#000000" stroke-width="2" stroke-linecap="round" stroke-linejoin="round" d="M 169 117 c 0.24 -0.45 9.58 -16.9 14 -26 c 7.58 -15.58 14.87 -30.27 21 -46 c 3.91 -10.04 8.92 -29.19 9 -31 c 0.03 -0.63 -5.78 5.08 -8 8 c -3 3.93 -5.66 8.48 -8 13 c -2.34 4.51 -4.27 9.24 -6 14 c -0.94 2.57 -1.62 5.37 -2 8 c -0.27 1.92 -0.91 4.99 0 6 c 1.7 1.88 6.67 3.67 10 5 c 1.52 0.61 3.97 0.26 5 1 c 0.9 0.65 1.83 2.68 2 4 c 0.44 3.55 0.84 8.34 0 12 c -1.7 7.42 -6.26 16.27 -8 23 c -0.3 1.14 0.16 3.3 1 4 c 4.14 3.45 13.35 7.35 17 11 c 1.27 1.27 1.33 4.92 1 7 c -0.59 3.73 -2.17 8.5 -4 12 c -1.65 3.15 -4.33 6.46 -7 9 c -4.16 3.96 -9.07 7.71 -14 11 c -5.08 3.39 -16.68 8.69 -16 9 c 1.01 0.46 17.83 -3.22 27 -4 c 10.75 -0.91 21.41 -1.76 32 -1 c 17.36 1.24 34.54 4.89 52 7 l 6 0"/><path fill="none" stroke="#000000" stroke-width="2" stroke-linecap="round" stroke-linejoin="round" d="M 239 25 c 0.14 0.07 5.56 2.43 8 4 c 2.13 1.37 4.28 3.14 6 5 c 2.2 2.38 4.99 5.24 6 8 c 1.42 3.91 2.42 9.77 2 14 c -0.5 5.01 -2.7 11.23 -5 16 c -2.17 4.5 -5.7 8.96 -9 13 c -2.66 3.25 -5.8 6.13 -9 9 c -3.22 2.88 -7.88 5.3 -10 8 c -1.01 1.28 -1.78 5.13 -1 6 c 1.21 1.36 6.43 3.14 9 3 c 2.92 -0.15 6.87 -2.31 10 -4 c 5.48 -2.95 10.82 -7.29 16 -10 c 1.4 -0.73 3.47 -1 5 -1 c 1.24 0 2.96 0.41 4 1 c 1.07 0.61 2.39 1.86 3 3 c 1.56 2.89 3.72 6.9 4 10 c 0.32 3.5 -0.92 8.76 -2 12 c -0.38 1.13 -1.88 2.49 -3 3 c -2.18 0.99 -5.69 2 -8 2 c -1.51 0 -3.76 -1.03 -5 -2 l -4 -5"/></svg>