<?xml version="1.0" encoding="UTF-8" standalone="no"?><!DOCTYPE svg PUBLIC "-//W3C//DTD SVG 1.1//EN" "http://www.w3.org/Graphics/SVG/1.1/DTD/svg11.dtd"><svg xmlns="http://www.w3.org/2000/svg" version="1.1" width="267" height="156"><path fill="none" stroke="#000000" stroke-width="2" stroke-linecap="round" stroke-linejoin="round" d="M 78 1 c -0.02 0.1 -0.95 3.98 -1 6 c -0.28 10.61 1.05 27.51 0 32 c -0.24 1.02 -5.05 -0.85 -7 -2 c -4.97 -2.94 -10.44 -8.49 -15 -11 c -1.22 -0.67 -3.85 -0.69 -5 0 c -3.1 1.86 -7.18 5.71 -10 9 c -3.02 3.53 -8.81 12.05 -8 12 c 1.58 -0.09 16.33 -9.45 25 -13 c 11.67 -4.78 23.76 -8.4 36 -12 c 4.93 -1.45 9.92 -2.37 15 -3 c 5.65 -0.71 15.66 -1.31 17 -1 c 0.45 0.1 -2.48 3.09 -4 4 c -4.82 2.89 -10.37 5.78 -16 8 c -29.58 11.66 -60.05 21.18 -88 33 c -5.77 2.44 -15.39 10.13 -16 11 c -0.28 0.41 6.44 0.1 9 -1 c 8.34 -3.57 19.58 -12.49 26 -14 c 2.17 -0.51 6.85 3.6 8 6 c 1.98 4.14 2.51 11.22 3 17 c 1.19 14.07 1.59 27.51 2 42 c 0.28 9.65 0 28 0 28"/><path fill="none" stroke="#000000" stroke-width="2" stroke-linecap="round" stroke-linejoin="round" d="M 94 49 c 0.09 0.07 4.63 2.5 5 4 c 0.7 2.81 -0.03 8.72 -1 12 c -0.51 1.75 -2.54 3.54 -4 5 c -1.14 1.14 -2.6 2.3 -4 3 c -1.78 0.89 -5.67 2.44 -6 2 c -0.35 -0.47 1.51 -4.95 3 -6 c 3.38 -2.39 10.84 -6 14 -6 c 1.62 0 4.82 3.88 5 6 c 1.22 14.12 -0.3 35.22 0 52 c 0.02 1.33 1.43 3.35 1 4 c -0.57 0.85 -4.12 2.74 -5 2 c -4.96 -4.16 -16.23 -16.93 -20 -23 c -0.78 -1.26 0.95 -4.43 2 -6 c 1.4 -2.11 3.81 -4.32 6 -6 c 3.37 -2.58 10.84 -7.65 11 -7 c 0.22 0.88 -8.86 12.75 -9 15 c -0.06 1.04 5.51 1 8 1 c 1.27 0 4.05 -1.47 4 -1 c -0.25 2.25 -3.35 13.33 -6 19 c -1.81 3.87 -4.97 7.97 -8 11 c -3.03 3.03 -7.24 6.03 -11 8 c -2.89 1.51 -10.18 3.03 -10 3 c 0.63 -0.12 24.13 -6.21 36 -8 c 5.47 -0.83 11.26 0.32 17 0 c 6.45 -0.36 12.72 -1.8 19 -2 c 3.96 -0.13 8.98 1.4 12 1 l 3 -3"/><path fill="none" stroke="#000000" stroke-width="2" stroke-linecap="round" stroke-linejoin="round" d="M 139 66 c 0.23 -0.09 9.09 -2.79 13 -5 c 5.84 -3.31 11.59 -7.61 17 -12 c 5.33 -4.33 10.52 -9.09 15 -14 c 2.36 -2.59 6.37 -8.02 6 -9 c -0.31 -0.82 -6.56 -0.18 -9 1 c -7.02 3.4 -17.83 10.42 -22 14 c -0.66 0.57 0.17 3.45 1 4 c 2.35 1.57 7.85 2.42 11 4 c 1.14 0.57 2.91 2.01 3 3 c 0.18 1.93 -0.98 5.51 -2 8 c -1.93 4.72 -4.93 9.34 -7 14 c -0.55 1.23 -0.85 2.68 -1 4 c -0.18 1.6 -0.61 3.71 0 5 c 1.75 3.71 5.88 7.97 8 12 c 1.07 2.03 2.18 4.88 2 7 c -0.42 4.79 -1.88 11.43 -4 16 c -1.93 4.16 -5.56 8.71 -9 12 c -4.26 4.08 -16.38 10.7 -15 11 c 6.16 1.36 55.08 1.91 83 4 c 8.18 0.61 16.48 1.97 24 4 l 13 6"/><path fill="none" stroke="#000000" stroke-width="2" stroke-linecap="round" stroke-linejoin="round" d="M 212 40 c -0.02 -0.07 -1.4 -3.04 -1 -4 c 0.97 -2.32 3.74 -6.5 6 -8 c 2.08 -1.39 6.13 -1.83 9 -2 c 2.51 -0.15 5.68 0.37 8 1 c 1.04 0.28 2.52 1.13 3 2 c 1.26 2.3 3.32 6.44 3 9 c -0.54 4.36 -3.27 10.71 -6 15 c -3.96 6.23 -9.55 12.92 -15 18 c -4.19 3.91 -9.78 7.23 -15 10 c -5.33 2.83 -12.7 4.51 -17 7 c -1.05 0.61 -2.17 2.89 -2 4 c 0.38 2.45 2.42 6.15 4 9 c 1.74 3.13 4.35 9.39 6 9 c 3.13 -0.75 9.75 -10.25 15 -14 c 3.66 -2.62 8.65 -4.94 13 -6 c 6.11 -1.48 15.21 -2.92 20 -2 c 2.2 0.42 5.42 4.83 6 7 c 0.52 1.94 -0.99 5.55 -2 8 c -1.26 3.05 -3.19 6.06 -5 9 c -0.88 1.43 -1.86 2.86 -3 4 c -1.46 1.46 -3.24 2.88 -5 4 c -1.85 1.18 -4.05 2.55 -6 3 c -2.03 0.47 -5.12 0.51 -7 0 c -1.34 -0.37 -2.96 -1.83 -4 -3 c -1.5 -1.68 -3.75 -4.14 -4 -6 l 2 -9"/></svg>