<?xml version="1.0" encoding="UTF-8" standalone="no"?><!DOCTYPE svg PUBLIC "-//W3C//DTD SVG 1.1//EN" "http://www.w3.org/Graphics/SVG/1.1/DTD/svg11.dtd"><svg xmlns="http://www.w3.org/2000/svg" version="1.1" width="265" height="196"><path fill="none" stroke="#000000" stroke-width="2" stroke-linecap="round" stroke-linejoin="round" d="M 23 38 l 4 5"/><path fill="none" stroke="#000000" stroke-width="2" stroke-linecap="round" stroke-linejoin="round" d="M 1 72 c 0.21 -0.02 8.38 0.18 12 -1 c 12.01 -3.92 37 -15 37 -15"/><path fill="none" stroke="#000000" stroke-width="2" stroke-linecap="round" stroke-linejoin="round" d="M 48 57 c -0.33 0.77 -12.05 29.02 -19 44 c -8.56 18.45 -26 53 -26 53"/><path fill="none" stroke="#000000" stroke-width="2" stroke-linecap="round" stroke-linejoin="round" d="M 11 76 c 0.46 0.63 16.97 23.77 26 36 c 1.59 2.15 3.16 4.16 5 6 c 2.5 2.5 8 7 8 7"/><path fill="none" stroke="#000000" stroke-width="2" stroke-linecap="round" stroke-linejoin="round" d="M 75 54 c -0.02 0.16 -1.06 6 -1 9 c 0.27 12.62 2 38 2 38"/><path fill="none" stroke="#000000" stroke-width="2" stroke-linecap="round" stroke-linejoin="round" d="M 98 26 c 0.05 0.23 2.33 8.57 3 13 c 1.01 6.67 1.92 13.22 2 20 c 0.26 23.61 -1 45.78 -1 70 c 0 15.92 1.27 32.39 1 46 l -2 4"/><path fill="none" stroke="#000000" stroke-width="2" stroke-linecap="round" stroke-linejoin="round" d="M 127 68 c 0.14 -0.07 5.33 -3.17 8 -4 c 2.4 -0.75 5.43 -0.39 8 -1 c 3.03 -0.71 5.96 -2.46 9 -3 c 6.13 -1.09 19 -2 19 -2"/><path fill="none" stroke="#000000" stroke-width="2" stroke-linecap="round" stroke-linejoin="round" d="M 117 108 c 0.3 -0.09 11.29 -3.68 17 -5 c 2.92 -0.67 6 -0.42 9 -1 c 7.47 -1.45 22 -5 22 -5"/><path fill="none" stroke="#000000" stroke-width="2" stroke-linecap="round" stroke-linejoin="round" d="M 118 146 c 0.6 -0.16 23.24 -5.59 34 -9 c 2.47 -0.78 7 -4 7 -4"/><path fill="none" stroke="#000000" stroke-width="2" stroke-linecap="round" stroke-linejoin="round" d="M 144 29 c -0.12 1.14 -5.05 42.55 -7 65 c -1.5 17.2 -3 33.4 -3 50 c 0 9.33 1.42 18.96 3 28 c 0.71 4.06 4 12 4 12"/><path fill="none" stroke="#000000" stroke-width="2" stroke-linecap="round" stroke-linejoin="round" d="M 197 1 c -0.04 0.19 -0.96 7.43 -2 11 c -1.96 6.77 -4.08 13.54 -7 20 c -5.12 11.31 -10.9 21.92 -17 33 c -3.1 5.63 -10.91 16.06 -10 16 c 1.5 -0.09 17.06 -11.89 26 -17 c 5.03 -2.87 14.38 -6.88 16 -7 c 0.59 -0.04 -0.91 4.41 -2 6 c -2.32 3.37 -9 10 -9 10"/><path fill="none" stroke="#000000" stroke-width="2" stroke-linecap="round" stroke-linejoin="round" d="M 165 84 c 0.21 -0.05 8.03 -2.57 12 -3 c 5.13 -0.55 11.61 -0.95 16 0 c 2.36 0.51 5.75 3.06 7 5 c 1.34 2.08 1.9 6.05 2 9 c 0.22 6.41 -1 20 -1 20"/><path fill="none" stroke="#000000" stroke-width="2" stroke-linecap="round" stroke-linejoin="round" d="M 182 83 c -0.17 0.28 -7.05 10.56 -10 16 c -1.33 2.46 -3.15 6.62 -3 8 c 0.07 0.67 2.74 1.1 4 1 c 6.81 -0.52 22 -3 22 -3"/><path fill="none" stroke="#000000" stroke-width="2" stroke-linecap="round" stroke-linejoin="round" d="M 169 95 c -0.21 0.77 -8.17 28.96 -12 44 c -0.94 3.69 -1.63 7.33 -2 11 c -0.3 2.95 -0.62 6.29 0 9 c 0.95 4.2 2.94 9.51 5 13 c 0.94 1.61 3.25 3.12 5 4 c 1.99 1 4.63 1.56 7 2 c 2.95 0.55 6.05 1 9 1 c 2.95 0 6.01 -0.47 9 -1 c 2.72 -0.48 5.5 -1.03 8 -2 c 3.39 -1.32 7.69 -2.84 10 -5 l 5 -9"/><path fill="none" stroke="#000000" stroke-width="2" stroke-linecap="round" stroke-linejoin="round" d="M 218 56 l 25 -7"/><path fill="none" stroke="#000000" stroke-width="2" stroke-linecap="round" stroke-linejoin="round" d="M 202 80 l 4 13"/><path fill="none" stroke="#000000" stroke-width="2" stroke-linecap="round" stroke-linejoin="round" d="M 228 71 c 0.16 -0.02 6.13 -1.22 9 -1 c 5.48 0.42 11.84 1.49 17 3 c 2.41 0.7 5.24 2.42 7 4 c 1.27 1.14 2.51 3.38 3 5 l 0 5"/><path fill="none" stroke="#000000" stroke-width="2" stroke-linecap="round" stroke-linejoin="round" d="M 238 55 l 1 23"/><path fill="none" stroke="#000000" stroke-width="2" stroke-linecap="round" stroke-linejoin="round" d="M 218 90 l 11 -3"/><path fill="none" stroke="#000000" stroke-width="2" stroke-linecap="round" stroke-linejoin="round" d="M 228 87 l 5 -2"/><path fill="none" stroke="#000000" stroke-width="2" stroke-linecap="round" stroke-linejoin="round" d="M 236 103 l 7 -4"/><path fill="none" stroke="#000000" stroke-width="2" stroke-linecap="round" stroke-linejoin="round" d="M 208 125 c 0.07 -0.03 2.62 -1.58 4 -2 c 2.84 -0.87 6.21 -1.8 9 -2 c 1.54 -0.11 5 1 5 1"/><path fill="none" stroke="#000000" stroke-width="2" stroke-linecap="round" stroke-linejoin="round" d="M 210 135 l 15 -7"/><path fill="none" stroke="#000000" stroke-width="2" stroke-linecap="round" stroke-linejoin="round" d="M 215 129 c -0.02 0.28 -1 10.55 -1 16 c 0 12.93 1 38 1 38"/><path fill="none" stroke="#000000" stroke-width="2" stroke-linecap="round" stroke-linejoin="round" d="M 216 151 l 5 -2"/><path fill="none" stroke="#000000" stroke-width="2" stroke-linecap="round" stroke-linejoin="round" d="M 216 171 l 11 -7"/><path fill="none" stroke="#000000" stroke-width="2" stroke-linecap="round" stroke-linejoin="round" d="M 239 118 l 1 1"/><path fill="none" stroke="#000000" stroke-width="2" stroke-linecap="round" stroke-linejoin="round" d="M 247 146 c -0.09 0 -4.61 -0.69 -5 0 c -0.56 0.98 1 4.67 1 7 c 0 7.92 0.55 16.76 -1 24 c -1.27 5.93 -8 18 -8 18"/><path fill="none" stroke="#000000" stroke-width="2" stroke-linecap="round" stroke-linejoin="round" d="M 233 158 c 0.12 0.21 4.33 8.32 7 12 c 2.59 3.56 9 10 9 10"/></svg>