<?xml version="1.0" encoding="UTF-8" standalone="no"?><!DOCTYPE svg PUBLIC "-//W3C//DTD SVG 1.1//EN" "http://www.w3.org/Graphics/SVG/1.1/DTD/svg11.dtd"><svg xmlns="http://www.w3.org/2000/svg" version="1.1" width="288" height="200"><path fill="none" stroke="#000000" stroke-width="2" stroke-linecap="round" stroke-linejoin="round" d="M 14 18 l 5 5"/><path fill="none" stroke="#000000" stroke-width="2" stroke-linecap="round" stroke-linejoin="round" d="M 1 59 c 0.19 -0.1 7.15 -4.2 11 -6 c 6.33 -2.95 12.47 -5.82 19 -8 c 7.53 -2.51 15.55 -3.79 23 -6 c 1.4 -0.42 3.8 -2.3 4 -2 c 0.24 0.36 -1.06 3.9 -2 5 c -0.78 0.91 -2.98 1.1 -4 2 c -1.77 1.58 -3.87 3.75 -5 6 c -14.37 28.75 -43 90 -43 90"/><path fill="none" stroke="#000000" stroke-width="2" stroke-linecap="round" stroke-linejoin="round" d="M 12 67 c 0.25 0.37 8.91 14.15 14 21 c 4.73 6.36 9.56 12.56 15 18 c 4.79 4.79 16 13 16 13"/><path fill="none" stroke="#000000" stroke-width="2" stroke-linecap="round" stroke-linejoin="round" d="M 65 33 c 0.04 0.19 1.79 7.32 2 11 c 0.45 7.91 -0.25 15.94 0 24 c 0.08 2.71 1 8 1 8"/><path fill="none" stroke="#000000" stroke-width="2" stroke-linecap="round" stroke-linejoin="round" d="M 100 1 c 0.02 0.6 1.22 22.65 1 34 c -0.11 5.71 -1.73 11.24 -2 17 c -0.4 8.41 0.42 16.49 0 25 c -0.6 12.29 -1.44 23.89 -3 36 c -1.15 8.88 -2.95 17.36 -5 26 c -0.98 4.13 -2.19 8.56 -4 12 c -1.32 2.5 -3.89 5.27 -6 7 l -5 2"/><path fill="none" stroke="#000000" stroke-width="2" stroke-linecap="round" stroke-linejoin="round" d="M 130 49 c 0.37 -0.14 13.74 -5.52 21 -8 c 5.72 -1.96 17 -5 17 -5"/><path fill="none" stroke="#000000" stroke-width="2" stroke-linecap="round" stroke-linejoin="round" d="M 119 80 c 0.51 -0.23 19.07 -8.82 29 -13 c 2.96 -1.25 9 -3 9 -3"/><path fill="none" stroke="#000000" stroke-width="2" stroke-linecap="round" stroke-linejoin="round" d="M 117 98 c 0.53 -0.17 20.19 -6.08 30 -10 c 6.94 -2.78 20 -10 20 -10"/><path fill="none" stroke="#000000" stroke-width="2" stroke-linecap="round" stroke-linejoin="round" d="M 144 16 c 0.04 0.25 1.81 9.43 2 14 c 0.14 3.24 -0.31 6.69 -1 10 c -5.37 25.66 -12.01 50.08 -17 76 c -2.13 11.06 -2.91 21.67 -4 33 c -0.62 6.49 -1 12.66 -1 19 c 0 3.35 1 10 1 10"/><path fill="none" stroke="#000000" stroke-width="2" stroke-linecap="round" stroke-linejoin="round" d="M 192 4 c -0.05 0.16 -1.48 6.38 -3 9 c -4.27 7.35 -10.32 14.33 -15 22 c -3.77 6.18 -9.26 16.02 -10 19 c -0.18 0.71 3.67 1.48 5 1 c 5.81 -2.09 13.13 -6.9 20 -10 c 3.6 -1.62 10.04 -4.24 11 -4 c 0.55 0.14 -1.63 4.4 -3 6 c -4.34 5.06 -15 15 -15 15"/><path fill="none" stroke="#000000" stroke-width="2" stroke-linecap="round" stroke-linejoin="round" d="M 164 69 c 0.18 -0.05 6.72 -2.53 10 -3 c 3.46 -0.49 8.39 -0.75 11 0 c 1.19 0.34 2.54 2.61 3 4 c 0.74 2.23 1.21 5.43 1 8 c -0.75 9.03 -4 28 -4 28"/><path fill="none" stroke="#000000" stroke-width="2" stroke-linecap="round" stroke-linejoin="round" d="M 165 64 c 0.02 0.09 1.09 3.42 1 5 c -0.23 4.08 -0.89 8.77 -2 13 c -2.22 8.44 -6.43 17.17 -8 25 c -0.6 3 -0.14 8.72 1 10 c 0.8 0.9 4.78 -0.45 7 -1 c 1.69 -0.42 3.33 -1.24 5 -2 c 2.08 -0.95 4.22 -1.77 6 -3 c 2.45 -1.69 7 -6 7 -6"/><path fill="none" stroke="#000000" stroke-width="2" stroke-linecap="round" stroke-linejoin="round" d="M 160 82 c -0.16 0.42 -6.17 15.69 -9 24 c -2.31 6.77 -4.49 13.33 -6 20 c -0.8 3.53 -1 7.4 -1 11 c 0 2.63 0.34 5.52 1 8 c 0.63 2.35 1.67 5.07 3 7 c 1.49 2.15 3.85 4.34 6 6 c 2.05 1.57 4.7 3.51 7 4 c 3.43 0.72 8.21 0.67 12 0 c 7.19 -1.27 14.96 -3.46 22 -6 c 4.83 -1.74 14 -7 14 -7"/><path fill="none" stroke="#000000" stroke-width="2" stroke-linecap="round" stroke-linejoin="round" d="M 233 34 c 0.35 -0.16 13.07 -6.46 20 -9 c 9.59 -3.52 29 -9 29 -9"/><path fill="none" stroke="#000000" stroke-width="2" stroke-linecap="round" stroke-linejoin="round" d="M 209 63 l 1 5"/><path fill="none" stroke="#000000" stroke-width="2" stroke-linecap="round" stroke-linejoin="round" d="M 214 71 c 0.39 -0.24 14.32 -9.54 22 -14 c 6.98 -4.06 13.9 -7.79 21 -11 c 3.13 -1.41 6.73 -2.46 10 -3 c 2.51 -0.42 5.67 -0.5 8 0 c 1.96 0.42 4.27 1.79 6 3 c 1.46 1.02 3.13 2.61 4 4 c 0.63 1.01 0.77 2.63 1 4 c 0.45 2.68 1.18 5.42 1 8 c -0.47 6.78 -3 21 -3 21"/><path fill="none" stroke="#000000" stroke-width="2" stroke-linecap="round" stroke-linejoin="round" d="M 252 22 c 0 0.25 0.55 9.35 0 14 c -2.79 23.47 -10 70 -10 70"/><path fill="none" stroke="#000000" stroke-width="2" stroke-linecap="round" stroke-linejoin="round" d="M 221 83 l 24 -7"/><path fill="none" stroke="#000000" stroke-width="2" stroke-linecap="round" stroke-linejoin="round" d="M 213 102 c 0.1 -0.1 3.78 -4.48 6 -6 c 3.87 -2.65 13 -7 13 -7"/><path fill="none" stroke="#000000" stroke-width="2" stroke-linecap="round" stroke-linejoin="round" d="M 255 70 l 11 -6"/><path fill="none" stroke="#000000" stroke-width="2" stroke-linecap="round" stroke-linejoin="round" d="M 248 89 l 22 -9"/><path fill="none" stroke="#000000" stroke-width="2" stroke-linecap="round" stroke-linejoin="round" d="M 223 113 c 0.28 -0.1 10.91 -4.54 16 -6 c 1.49 -0.43 4.24 -0.63 5 0 c 0.77 0.64 1.74 4.02 1 5 c -4.12 5.42 -19.48 19.29 -20 20 c -0.19 0.26 6.18 -3.12 9 -5 c 2.14 -1.43 6 -5 6 -5"/><path fill="none" stroke="#000000" stroke-width="2" stroke-linecap="round" stroke-linejoin="round" d="M 217 139 c -0.07 0.42 -3.04 15.76 -4 24 c -1.43 12.23 -3 36 -3 36"/><path fill="none" stroke="#000000" stroke-width="2" stroke-linecap="round" stroke-linejoin="round" d="M 226 162 c 0.16 -0.09 6 -3.62 9 -5 c 1.2 -0.55 4 -1 4 -1"/><path fill="none" stroke="#000000" stroke-width="2" stroke-linecap="round" stroke-linejoin="round" d="M 221 178 l 21 -14"/><path fill="none" stroke="#000000" stroke-width="2" stroke-linecap="round" stroke-linejoin="round" d="M 257 126 c 0.32 -0.17 14.42 -8.75 18 -10 c 0.63 -0.22 2.16 2.2 2 3 c -0.36 1.79 -2.52 4.88 -4 7 c -0.78 1.11 -3 3 -3 3"/><path fill="none" stroke="#000000" stroke-width="2" stroke-linecap="round" stroke-linejoin="round" d="M 250 149 c 0.28 -0.12 10.71 -5.08 16 -7 c 1.84 -0.67 6 -1 6 -1"/><path fill="none" stroke="#000000" stroke-width="2" stroke-linecap="round" stroke-linejoin="round" d="M 284 154 c -0.31 0.49 -11.56 18.65 -18 28 c -4.14 6.01 -13 17 -13 17"/><path fill="none" stroke="#000000" stroke-width="2" stroke-linecap="round" stroke-linejoin="round" d="M 257 158 l 27 32"/></svg>