<?xml version="1.0" encoding="UTF-8" standalone="no"?><!DOCTYPE svg PUBLIC "-//W3C//DTD SVG 1.1//EN" "http://www.w3.org/Graphics/SVG/1.1/DTD/svg11.dtd"><svg xmlns="http://www.w3.org/2000/svg" version="1.1" width="275" height="263"><path fill="none" stroke="#000000" stroke-width="2" stroke-linecap="round" stroke-linejoin="round" d="M 4 118 c 0.05 0.09 2.28 3.24 3 5 c 1.57 3.81 3.08 7.87 4 12 c 2.43 10.94 4.21 21.74 6 33 c 0.59 3.71 0.88 7.25 1 11 c 0.22 7.13 0.68 14.07 0 21 c -0.98 10.04 -3.95 19.85 -5 30 c -0.97 9.35 -0.43 18.86 -1 28 l -1 4"/><path fill="none" stroke="#000000" stroke-width="2" stroke-linecap="round" stroke-linejoin="round" d="M 46 90 c 0.11 -0.12 3.71 -6.32 6 -7 c 5.23 -1.55 14.76 -1.89 21 -1 c 4.52 0.65 9.7 3.5 14 6 c 5.88 3.41 11.44 7.66 17 12 c 5.3 4.14 10.09 8.31 15 13 c 9.8 9.35 18.8 18.29 28 28 c 2.97 3.14 5.68 6.52 8 10 c 1.62 2.43 3.05 5.33 4 8 c 0.65 1.81 1.31 4.45 1 6 c -0.25 1.27 -1.78 3.44 -3 4 c -2.49 1.15 -6.81 2 -10 2 c -4.74 0 -10.46 -0.53 -15 -2 c -6.31 -2.04 -12.92 -5.5 -19 -9 c -7.3 -4.2 -14.24 -8.85 -21 -14 c -7.4 -5.64 -14.21 -11.54 -21 -18 c -7.46 -7.11 -14.11 -14.23 -21 -22 c -6.44 -7.26 -12.27 -14.25 -18 -22 c -5.81 -7.87 -10.95 -15.65 -16 -24 c -3.76 -6.22 -7.12 -12.48 -10 -19 c -2.12 -4.8 -4.03 -10.13 -5 -15 c -0.62 -3.08 -0.65 -7.09 0 -10 c 0.58 -2.6 2.19 -6.19 4 -8 c 2.37 -2.37 6.65 -5.22 10 -6 c 5.76 -1.34 13.47 -1.44 20 -1 c 8.25 0.55 16.89 1.97 25 4 c 7.81 1.95 15.34 4.9 23 8 c 8.31 3.36 16.39 6.7 24 11 c 7.68 4.34 15.09 9.47 22 15 c 6.43 5.14 11.99 10.99 18 17 c 5.67 5.67 11.13 10.95 16 17 c 4.81 5.97 9.15 12.39 13 19 c 3.14 5.39 5.96 11.25 8 17 c 1.55 4.38 2.63 9.5 3 14 c 0.26 3.16 -0.17 7 -1 10 c -0.74 2.67 -2.19 6.19 -4 8 c -2.37 2.37 -6.62 4.87 -10 6 c -4.1 1.37 -9.69 2.3 -14 2 c -4.73 -0.33 -10.7 -1.93 -15 -4 c -4.15 -2 -8.58 -5.58 -12 -9 c -4.7 -4.7 -9.69 -10.54 -13 -16 c -2.03 -3.35 -4 -8.98 -4 -12 c 0 -1.53 2.38 -4.06 4 -5 c 4.09 -2.37 9.92 -4.61 15 -6 c 5.74 -1.57 12.08 -2.88 18 -3 c 10.41 -0.21 21.68 0.53 32 2 c 5.7 0.81 11.51 2.78 17 5 c 11.92 4.81 23.58 9.94 35 16 c 10.12 5.38 20.83 11.7 29 18 c 2.59 2 4.44 5.87 6 9 l 4 11"/></svg>