<?xml version="1.0" encoding="UTF-8" standalone="no"?><!DOCTYPE svg PUBLIC "-//W3C//DTD SVG 1.1//EN" "http://www.w3.org/Graphics/SVG/1.1/DTD/svg11.dtd"><svg xmlns="http://www.w3.org/2000/svg" version="1.1" width="236" height="187"><path fill="none" stroke="#000000" stroke-width="2" stroke-linecap="round" stroke-linejoin="round" d="M 1 109 c 0.03 -0.21 0.09 -9.61 2 -12 c 2.53 -3.16 9.11 -5.55 14 -8 c 6.66 -3.33 13.59 -5.4 20 -9 c 12.73 -7.15 24.49 -14.92 37 -23 c 3.91 -2.52 7.97 -4.97 11 -8 c 3.03 -3.03 6.38 -7.55 8 -11 c 0.72 -1.52 0.63 -4.49 0 -6 c -0.82 -1.97 -3.16 -4.33 -5 -6 c -1.7 -1.54 -4.17 -2.5 -6 -4 c -1.8 -1.47 -3.67 -3.13 -5 -5 c -3.56 -4.99 -9.68 -17.31 -10 -16 c -1.45 5.98 -4.33 56.61 -7 86 c -0.41 4.48 -1.62 8.64 -2 13 c -0.29 3.32 0.19 9.81 0 10 c -0.16 0.16 -1.02 -5.55 -2 -8 c -0.96 -2.39 -2.47 -5.08 -4 -7 c -0.95 -1.19 -2.66 -2.63 -4 -3 c -1.88 -0.51 -5.03 -0.49 -7 0 c -1.64 0.41 -3.54 1.77 -5 3 c -4.78 4.02 -9.44 8.44 -14 13 c -2.2 2.2 -4.21 4.49 -6 7 c -3.24 4.53 -6.39 9.19 -9 14 c -1.69 3.11 -4.09 10.17 -4 10 c 0.37 -0.69 12.92 -27.15 20 -40 c 1.8 -3.28 4.38 -6.38 7 -9 c 3.27 -3.27 7.31 -6.74 11 -9 c 1.89 -1.16 4.75 -1.88 7 -2 c 3.41 -0.19 8.51 -0.07 11 1 c 1.31 0.56 1.81 3.49 3 5 c 2.45 3.12 5.1 6.26 8 9 c 3.08 2.91 6.47 5.85 10 8 c 3.95 2.4 11.86 4.43 13 6 c 0.56 0.78 -3.18 3.88 -5 5 c -2.2 1.35 -5.44 1.72 -8 3 c -7.49 3.75 -14.37 8.57 -22 12 c -8.77 3.94 -18.15 7.73 -27 10 c -4.93 1.26 -12.71 1.73 -16 1 c -1.11 -0.25 -2.33 -3.8 -2 -5 c 0.47 -1.73 3.15 -4.3 5 -6 c 2.04 -1.87 4.54 -3.77 7 -5 c 3.35 -1.67 8.92 -4.16 11 -4 c 0.96 0.07 1.79 3.36 2 5 c 0.42 3.36 -0.6 8 0 11 c 0.27 1.36 1.77 2.99 3 4 c 6.14 5.07 14.14 9.52 20 15 c 4.17 3.9 7.98 9.35 11 14 c 1.07 1.65 1.67 4.04 2 6 c 0.31 1.86 0.69 4.89 0 6 c -0.62 0.99 -3.31 1.61 -5 2 c -2.53 0.58 -5.32 1 -8 1 c -10.31 0 -21.64 0.49 -31 -1 c -4.32 -0.69 -9.93 -3.75 -13 -6 c -1.15 -0.85 -2.19 -3.58 -2 -5 c 0.38 -2.83 1.87 -7.62 4 -10 c 5.46 -6.11 13.55 -12.41 21 -18 c 8.74 -6.55 17.64 -13.15 27 -18 c 8.95 -4.63 19.66 -7.21 29 -11 c 1.09 -0.44 2.47 -1.16 3 -2 c 0.93 -1.48 1.06 -4.28 2 -6 c 0.95 -1.75 2.4 -3.67 4 -5 c 11.73 -9.73 24.92 -18.78 37 -29 c 5.45 -4.61 10.15 -9.73 15 -15 c 2.93 -3.18 6.04 -6.74 8 -10 c 0.78 -1.3 1.77 -4.47 1 -5 c -2.2 -1.53 -9.62 -2.39 -14 -4 c -1.76 -0.65 -3.65 -1.78 -5 -3 c -1.81 -1.63 -4.88 -6.66 -5 -6 c -0.85 4.79 -3.48 37.45 -4 57 c -0.84 31.47 -0.55 65.83 0 92 c 0.02 1.03 2 3.23 2 3 c 0.07 -3.69 -0.45 -38.02 -1 -58 c -0.14 -5.18 -0.36 -10.08 -1 -15 c -0.35 -2.7 -1.13 -7.63 -2 -8 c -0.75 -0.32 -4.22 3.05 -5 5 c -4.65 11.62 -8.24 26.45 -13 40 c -2.08 5.92 -6.57 16.33 -7 17 c -0.14 0.22 -0.47 -4.19 0 -6 c 1.42 -5.45 3.53 -11.57 6 -17 c 2.51 -5.53 5.7 -10.76 9 -16 c 2.44 -3.88 5.05 -7.86 8 -11 c 2.17 -2.31 5.27 -4.44 8 -6 c 1.73 -0.99 4.05 -1.64 6 -2 c 1.55 -0.28 4.12 -0.63 5 0 c 0.95 0.68 1.88 3.33 2 5 c 0.82 11.78 0.94 37.34 1 38 c 0.04 0.47 -0.56 -17.99 0 -27 c 0.44 -7.08 1.55 -14.49 3 -21 c 0.46 -2.06 1.71 -4.28 3 -6 c 2.58 -3.44 5.66 -6.96 9 -10 c 11.79 -10.75 24.22 -20.29 36 -31 c 2.99 -2.71 5.53 -5.82 8 -9 c 2.22 -2.86 3.71 -6.29 6 -9 c 2.99 -3.55 9.29 -8.3 10 -10 c 0.27 -0.65 -3.38 -1.68 -5 -2 c -1.51 -0.3 -3.76 -0.56 -5 0 c -1.94 0.88 -4.5 3.07 -6 5 c -2.94 3.78 -5.73 8.47 -8 13 c -2.73 5.46 -5.43 11.1 -7 17 c -7.09 26.71 -13.86 54.51 -19 81 c -1.05 5.41 0.04 16.7 0 17 c -0.02 0.16 -0.93 -5.94 -1 -9 c -0.27 -11.48 -2.05 -24.49 0 -34 c 1.22 -5.66 6.95 -11.66 11 -17 c 3.26 -4.3 7.15 -8.76 11 -12 c 2.12 -1.78 5.4 -3.42 8 -4 c 2.91 -0.65 7.64 -0.73 10 0 c 1.18 0.36 2.43 2.55 3 4 c 2.27 5.8 4.45 12.5 6 19 c 1.81 7.61 3.06 15.14 4 23 c 1.09 9.11 1.68 17.75 2 27 c 0.37 10.59 0.91 27.48 0 31 c -0.24 0.91 -6.06 -2.07 -7 -4 c -3.53 -7.28 -6.3 -19.08 -9 -29 c -1.36 -5 -1.52 -10.15 -3 -15 c -2.18 -7.12 -5.11 -14.16 -8 -21 c -0.75 -1.77 -2.36 -4.87 -3 -5 c -0.49 -0.1 -2.3 4.04 -2 4 c 0.68 -0.1 6.72 -2.84 9 -5 c 3.63 -3.44 9.81 -12.78 10 -13 c 0.07 -0.08 -1.72 3.65 -3 5 c -4.5 4.75 -14.53 12.35 -15 14 c -0.25 0.88 9.73 -0.85 11 0 c 0.73 0.49 -1.08 4.35 -2 6 c -0.61 1.11 -2.24 1.86 -3 3 c -3.13 4.7 -6.8 10.01 -9 15 c -1.28 2.91 -2.72 8.27 -2 10 c 0.52 1.24 5.12 2.16 7 2 c 1.5 -0.13 3.53 -1.82 5 -3 c 1.78 -1.43 3.43 -3.23 5 -5 c 1.11 -1.25 2.41 -2.59 3 -4 c 0.97 -2.33 1.8 -5.57 2 -8 c 0.1 -1.21 -0.78 -4.22 -1 -4 c -0.51 0.51 -2.98 5.94 -4 9 c -0.96 2.87 -1.48 5.89 -2 9 c -1.19 7.14 -2.49 13.93 -3 21 l 0 21"/></svg>