<?xml version="1.0" encoding="UTF-8" standalone="no"?><!DOCTYPE svg PUBLIC "-//W3C//DTD SVG 1.1//EN" "http://www.w3.org/Graphics/SVG/1.1/DTD/svg11.dtd"><svg xmlns="http://www.w3.org/2000/svg" version="1.1" width="242" height="118"><path fill="none" stroke="#000000" stroke-width="2" stroke-linecap="round" stroke-linejoin="round" d="M 2 20 c 0.39 -0.21 14.43 -8.66 22 -12 c 6.69 -2.95 14.29 -5.19 21 -7 c 1.52 -0.41 4.61 -0.39 5 0 c 0.28 0.28 -1.18 2.18 -2 3 c -3.39 3.39 -7.04 6.91 -11 10 c -9.92 7.74 -28.89 21.04 -30 22 c -0.22 0.19 5.05 -2 7 -2 c 1.2 0 4.28 1.31 4 2 c -1.66 4.14 -9.23 15.71 -14 23 c -0.75 1.15 -3.21 2.69 -3 3 c 0.24 0.36 3.38 0.24 5 0 c 4.96 -0.74 10.34 -2.53 15 -3 c 1.55 -0.16 3.62 0.31 5 1 c 2.33 1.17 5.8 3.28 7 5 c 0.7 1 0.37 3.46 0 5 c -1.23 5.16 -2.64 11.28 -5 16 c -2.42 4.84 -6.33 10.14 -10 14 c -2.31 2.43 -6.03 4.4 -9 6 c -1.13 0.61 -3.26 1.37 -4 1 c -0.8 -0.4 -2.27 -3.01 -2 -4 l 5 -7"/><path fill="none" stroke="#000000" stroke-width="2" stroke-linecap="round" stroke-linejoin="round" d="M 74 15 c 0.12 0 5.05 -0.39 7 0 c 1.01 0.2 2.66 1.2 3 2 c 0.47 1.11 0.67 3.79 0 5 c -2.21 3.97 -6.54 9.31 -10 13 c -1.23 1.31 -4.27 1.84 -5 3 c -0.62 1 0.4 3.49 0 5 c -1.18 4.48 -2.89 9.62 -5 14 c -2.16 4.49 -5.51 8.44 -8 13 c -3.64 6.68 -8.58 15.13 -10 20 c -0.32 1.09 1.86 3.72 3 4 c 2.06 0.51 6.43 -0.02 9 -1 c 3.94 -1.5 8.32 -4.47 12 -7 c 1.5 -1.03 3.08 -2.51 4 -4 c 1.6 -2.59 2.83 -5.96 4 -9 c 0.49 -1.27 1.09 -2.77 1 -4 c -0.21 -2.74 -2.14 -9.17 -2 -9 c 0.26 0.31 4.17 10.39 7 15 c 3.42 5.58 8.04 11.54 12 16 c 0.89 1 2.77 1.86 4 2 c 1.4 0.16 3.7 -0.35 5 -1 c 1.08 -0.54 2.39 -1.87 3 -3 c 1.24 -2.27 2.08 -5.24 3 -8 c 0.79 -2.36 1.61 -4.64 2 -7 c 0.6 -3.59 1.69 -9.75 1 -11 c -0.4 -0.71 -4.36 0.89 -6 2 c -8.15 5.52 -25 19 -25 19"/><path fill="none" stroke="#000000" stroke-width="2" stroke-linecap="round" stroke-linejoin="round" d="M 159 9 c -0.21 0.3 -7.64 11.47 -12 17 c -4.45 5.65 -9.02 10.83 -14 16 c -3.81 3.96 -8.96 7.49 -12 11 c -0.77 0.89 -1.12 2.82 -1 4 c 0.18 1.81 1.06 4.28 2 6 c 0.95 1.75 3.02 3.17 4 5 c 3.58 6.64 8.09 18.82 10 21 c 0.53 0.6 3.04 -3.15 4 -5 c 6.87 -13.16 12.95 -27.44 20 -41 c 1.67 -3.22 3.7 -6.39 6 -9 c 2.56 -2.9 5.76 -5.84 9 -8 c 4.58 -3.05 13.58 -7.78 15 -8 c 0.53 -0.08 -0.78 4.63 -2 6 c -3.84 4.3 -12.55 9.8 -15 13 c -0.55 0.72 2.11 2.9 2 4 c -0.16 1.65 -1.78 4.17 -3 6 c -2.07 3.11 -6.75 7.87 -7 9 c -0.11 0.49 3.38 0.24 5 0 c 4.96 -0.74 11.48 -1.55 15 -3 c 1.03 -0.42 2 -2.86 2 -4 c 0 -1.38 -1.07 -4.07 -2 -5 c -0.71 -0.71 -2.76 -1 -4 -1 c -1.53 0 -4.49 -0.02 -5 1 c -1.74 3.48 -3.16 11.28 -4 17 c -0.82 5.57 -0.23 11.45 -1 17 c -0.56 4.03 -2.7 11.47 -3 12 c -0.12 0.22 -0.45 -3.54 -1 -5 c -0.39 -1.03 -1.24 -2.78 -2 -3 c -1.07 -0.31 -5.16 1.11 -5 1 c 0.84 -0.58 17.03 -11.47 24 -14 c 2.31 -0.84 6.4 1 9 2 l 4 3"/><path fill="none" stroke="#000000" stroke-width="2" stroke-linecap="round" stroke-linejoin="round" d="M 233 11 c -0.12 0.49 -4.17 19.04 -7 28 c -1.1 3.47 -3.05 9.92 -5 10 c -3.52 0.15 -12.03 -6.29 -18 -9 c -1.22 -0.56 -3.22 -1.52 -4 -1 c -2.29 1.53 -8.93 8.86 -8 9 c 2.74 0.41 23.74 -3.03 35 -5 c 1.72 -0.3 4.88 -2.54 5 -2 c 0.25 1.15 -0.98 8.27 -3 11 c -7.39 10.01 -18.16 21.38 -28 31 c -5.04 4.93 -11.05 8.78 -17 13 c -4.63 3.28 -14.16 9.24 -14 9 c 0.19 -0.29 10.45 -8.78 16 -12 c 4.48 -2.6 9.83 -4.14 15 -6 c 3.34 -1.2 6.75 -2.35 10 -3 c 1.56 -0.31 4.57 -0.65 5 0 c 0.53 0.79 -0.42 4.12 -1 6 c -0.72 2.35 -1.77 4.9 -3 7 c -1.03 1.77 -3.8 5.2 -4 5 c -0.23 -0.23 0.93 -4.99 2 -7 c 1.79 -3.38 4.42 -6.81 7 -10 c 3.14 -3.88 6.47 -7.47 10 -11 c 2.19 -2.19 4.55 -4 7 -6 c 1.33 -1.09 2.63 -2.32 4 -3 c 1.13 -0.56 4.08 -1.47 4 -1 c -0.74 4.18 -6.34 23.23 -10 35 l -4 10"/><path fill="none" stroke="#000000" stroke-width="2" stroke-linecap="round" stroke-linejoin="round" d="M 229 91 c -0.02 0.21 -0.18 8.49 -1 12 c -0.4 1.7 -1.69 3.78 -3 5 c -3.37 3.14 -11.56 8.29 -12 9 c -0.21 0.34 7 -1 7 -1"/></svg>