<?xml version="1.0" encoding="UTF-8" standalone="no"?><!DOCTYPE svg PUBLIC "-//W3C//DTD SVG 1.1//EN" "http://www.w3.org/Graphics/SVG/1.1/DTD/svg11.dtd"><svg xmlns="http://www.w3.org/2000/svg" version="1.1" width="232" height="246"><path fill="none" stroke="#000000" stroke-width="2" stroke-linecap="round" stroke-linejoin="round" d="M 1 60 c 0.14 -0.12 5.04 -5.39 8 -7 c 8.22 -4.46 17.7 -9.1 27 -12 c 16.18 -5.04 33.97 -7.35 50 -12 c 4.18 -1.21 8.14 -3.76 12 -6 c 2.48 -1.43 5.35 -3.17 7 -5 c 1.03 -1.15 2.36 -3.75 2 -5 c -0.72 -2.52 -3.69 -7.31 -6 -9 c -1.97 -1.44 -6 -1.82 -9 -2 c -8.13 -0.48 -19.66 -0.99 -25 0 c -1.15 0.21 -1.97 3.34 -2 5 c -0.59 30.45 0.94 86.17 0 99 c -0.07 0.99 -4.69 -2.74 -7 -3 c -6.06 -0.67 -13.63 -0.82 -20 0 c -6.26 0.8 -17.38 5.35 -19 5 c -0.78 -0.17 2.93 -5.93 5 -8 c 3.6 -3.6 8.45 -6.9 13 -10 c 3.86 -2.62 7.97 -5.42 12 -7 c 3.24 -1.27 7.66 -2 11 -2 c 2.18 0 6.12 0.63 7 2 c 1.48 2.3 1.56 7.9 2 12 c 0.58 5.4 0.91 10.5 1 16 c 0.25 15.09 -0.97 30 0 44 c 0.32 4.63 2.3 9.4 4 14 c 3.03 8.22 7.14 15.87 10 24 c 1.47 4.17 3.49 9.76 3 13 c -0.34 2.24 -3.78 6.01 -6 7 c -2.9 1.29 -7.9 0.84 -12 1 c -4.43 0.18 -8.82 0.56 -13 0 c -5.61 -0.75 -12.09 -1.9 -17 -4 c -3.82 -1.64 -7.54 -5.09 -11 -8 c -2.88 -2.42 -6.16 -5.24 -8 -8 c -1.19 -1.78 -1.65 -4.7 -2 -7 c -0.29 -1.89 -0.66 -4.47 0 -6 c 1.1 -2.56 3.64 -6.02 6 -8 c 3.6 -3.03 8.42 -5.4 13 -8 c 18.54 -10.52 36.25 -20.69 54 -30 c 2.09 -1.1 7 -2.2 7 -2 c 0 0.22 -7.17 4.2 -7 4 c 1.79 -2.01 37.72 -39.13 57 -60 c 5.79 -6.26 11.31 -12.75 16 -19 c 1.02 -1.35 1.9 -3.4 2 -5 c 0.2 -3.28 -0.05 -7.56 -1 -11 c -2.63 -9.56 -6.25 -20 -10 -29 c -1.05 -2.52 -3.6 -4.6 -5 -7 c -0.88 -1.5 -1.84 -5.31 -2 -5 c -0.44 0.88 -2.21 9.82 -3 15 c -1.61 10.58 -2.9 20.28 -4 31 c -1.31 12.73 -2.59 24.3 -3 37 c -0.96 30.1 -1.28 58.53 -1 88 c 0.05 5.4 2.13 15.75 2 16 c -0.11 0.22 -1.35 -9.87 -3 -14 c -1.5 -3.76 -4.32 -7.82 -7 -11 c -2.48 -2.94 -5.83 -6 -9 -8 c -2.84 -1.79 -6.73 -3.48 -10 -4 c -4.56 -0.73 -14.65 0.81 -15 0 c -0.32 -0.75 8.55 -4.11 12 -7 c 8.6 -7.2 16.19 -16.56 25 -24 c 6.21 -5.24 13.39 -9.93 20 -14 c 1.71 -1.05 4.28 -0.99 6 -2 c 3.7 -2.18 7.51 -4.99 11 -8 c 21.28 -18.37 57.59 -48.45 62 -55 c 1.23 -1.83 -15.75 -2.48 -23 -3 c -1.59 -0.11 -4.15 0.06 -5 1 c -1.87 2.06 -4.05 6.51 -5 10 c -5.23 19.26 -8.31 40.42 -14 60 c -2.61 8.97 -6.67 17.94 -11 26 c -2.85 5.31 -7.58 9.87 -11 15 c -1.23 1.85 -2.38 3.99 -3 6 c -0.65 2.12 -0.85 4.64 -1 7 c -0.19 3 -0.57 6.29 0 9 c 0.68 3.24 2.46 7.37 4 10 c 0.51 0.88 2.9 2.4 3 2 c 0.5 -2.14 0.12 -12.81 1 -19 c 0.77 -5.36 2.34 -10.69 4 -16 c 1.72 -5.5 3.64 -10.78 6 -16 c 2.35 -5.2 4.88 -10.41 8 -15 c 3.12 -4.6 6.99 -8.87 11 -13 c 6.82 -7.04 14.05 -14.29 21 -20 c 1.83 -1.5 5.46 -3.28 7 -3 c 1.29 0.23 3.67 3.27 4 5 c 0.82 4.32 0.41 10.59 0 16 c -1.29 16.98 -3.96 32.89 -5 50 c -1.01 16.69 -0.41 32.65 -1 49 c -0.07 2.03 -0.33 4.32 -1 6 c -0.55 1.38 -2.01 3.75 -3 4 c -1.07 0.27 -4.02 -0.87 -5 -2 c -2.79 -3.22 -5.73 -8.45 -8 -13 c -3.07 -6.14 -5.91 -12.41 -8 -19 c -4.63 -14.57 -11.43 -41.42 -12 -44 c -0.05 -0.24 1.9 2.6 3 3 c 2.09 0.76 5.98 1.77 8 1 c 3.97 -1.51 12.72 -9 13 -9 c 0.24 0 -7.15 5.7 -10 9 c -3.35 3.88 -8.28 10.99 -9 13 c -0.19 0.52 2.9 1.29 4 1 c 3.21 -0.86 10.01 -5.37 11 -5 c 0.7 0.26 -1.55 5.67 -3 8 c -5.01 8.01 -14.92 19.84 -17 24 c -0.32 0.63 3.06 2.42 4 2 c 3.6 -1.6 9.52 -6.46 14 -10 c 1.84 -1.45 3.57 -3.22 5 -5 c 1.18 -1.47 2.51 -3.38 3 -5 c 0.42 -1.39 0.56 -4.02 0 -5 c -0.5 -0.88 -2.64 -1.59 -4 -2 c -1.85 -0.55 -4.58 -1.43 -6 -1 c -1.32 0.4 -3.86 2.52 -4 4 c -0.95 10.19 -0.42 25.72 0 39 c 0.26 8.2 0.85 15.96 2 24 l 5 25"/></svg>