<?xml version="1.0" encoding="UTF-8" standalone="no"?><!DOCTYPE svg PUBLIC "-//W3C//DTD SVG 1.1//EN" "http://www.w3.org/Graphics/SVG/1.1/DTD/svg11.dtd"><svg xmlns="http://www.w3.org/2000/svg" version="1.1" width="264" height="236"><path fill="none" stroke="#000000" stroke-width="2" stroke-linecap="round" stroke-linejoin="round" d="M 1 107 c 0.12 -0.03 4.93 -0.97 7 -2 c 3.71 -1.85 7.1 -4.8 11 -7 c 25.96 -14.62 51.4 -27.77 76 -42 c 2.61 -1.51 5.32 -3.81 7 -6 c 1.39 -1.81 2.71 -4.7 3 -7 c 0.64 -5.14 0.63 -11.77 0 -17 c -0.32 -2.63 -1.75 -5.5 -3 -8 c -1.38 -2.77 -3.11 -5.59 -5 -8 c -1.7 -2.17 -3.89 -4.1 -6 -6 c -1.24 -1.12 -3.55 -3.45 -4 -3 c -0.83 0.83 -1.94 6 -2 9 c -0.59 27.67 0.28 55.78 0 85 c -0.06 6.2 0.43 17.67 -1 18 c -1.52 0.35 -7.83 -10.34 -12 -15 c -1.39 -1.55 -3.47 -3.89 -5 -4 c -2.26 -0.16 -7.52 0.97 -9 3 c -6.01 8.24 -17.68 33.41 -18 34 c -0.09 0.17 2.92 -6.94 5 -10 c 7.87 -11.54 16.28 -23.29 25 -34 c 2.78 -3.41 6.5 -6.61 10 -9 c 2.56 -1.75 6.1 -3.28 9 -4 c 2.06 -0.52 5.64 -0.82 7 0 c 1.3 0.78 2.73 3.99 3 6 c 0.96 7.21 1 15.91 1 24 c 0 4.39 -0.31 8.7 -1 13 c -0.98 6.08 -4.19 13.61 -4 18 c 0.07 1.68 3.22 3.87 5 5 c 1.59 1.01 4.63 0.88 6 2 c 1.86 1.52 4.01 4.59 5 7 c 1.18 2.86 1.78 6.66 2 10 c 0.44 6.55 1.15 14.43 0 20 c -0.62 3.01 -3.68 6.52 -6 9 c -2.45 2.61 -5.85 5.27 -9 7 c -3.23 1.78 -7.34 3.46 -11 4 c -7.2 1.06 -15.69 1.24 -23 1 c -2.62 -0.08 -6.17 -0.84 -8 -2 c -1.29 -0.82 -2.59 -3.36 -3 -5 c -0.49 -1.97 -0.54 -4.98 0 -7 c 0.69 -2.58 2.22 -5.97 4 -8 c 2.55 -2.91 6.49 -5.54 10 -8 c 3.2 -2.24 6.54 -4.35 10 -6 c 3.47 -1.65 7.25 -2.93 11 -4 c 3.27 -0.93 6.62 -1.72 10 -2 c 8.62 -0.72 18.83 0.16 26 -1 c 1.76 -0.28 4.17 -2.45 5 -4 c 1.2 -2.23 1.7 -6.01 2 -9 c 0.36 -3.56 -0.57 -7.77 0 -11 c 0.35 -1.97 1.6 -4.39 3 -6 c 9.14 -10.52 19.42 -21.42 30 -32 c 7.17 -7.17 14.77 -13.01 22 -20 c 2.93 -2.83 5.64 -5.85 8 -9 c 1.58 -2.11 3.1 -4.66 4 -7 c 0.68 -1.76 1.84 -5.16 1 -6 c -1.62 -1.62 -7.33 -3.13 -11 -4 c -3.15 -0.75 -6.94 -0.2 -10 -1 c -3 -0.79 -6.3 -2.38 -9 -4 c -2.14 -1.28 -4.5 -3.16 -6 -5 c -1.29 -1.58 -2.83 -4.45 -3 -6 c -0.09 -0.83 1.85 -3.29 2 -3 c 0.54 1.08 2.31 8.57 3 13 c 0.99 6.35 1.71 12.5 2 19 c 0.74 16.68 0.17 32.17 1 49 c 0.89 18.26 2.49 34.6 4 53 c 0.57 6.96 0.99 13.26 2 20 c 1.03 6.84 3.84 20.49 4 20 c 0.28 -0.84 1.58 -23.52 1 -35 c -0.41 -7.98 -2.09 -16.34 -4 -24 c -1.02 -4.09 -2.98 -8.57 -5 -12 c -1.1 -1.87 -3.99 -5.47 -5 -5 c -1.95 0.9 -6.59 7.02 -8 11 c -6.12 17.33 -15.42 55.29 -16 57 c -0.1 0.29 -0.68 -6.86 0 -10 c 2.87 -13.31 6.73 -27.94 11 -41 c 1.26 -3.85 3.59 -8.41 6 -11 c 1.72 -1.85 5.43 -3.27 8 -4 c 1.72 -0.49 4.14 -0.31 6 0 c 1.96 0.33 4.94 0.82 6 2 c 1.43 1.59 2.28 5.26 3 8 c 1.28 4.91 3 13.66 3 15 c 0 0.32 -2.66 -1.12 -3 -2 c -1.05 -2.72 -1.8 -7.32 -2 -11 c -0.46 -8.24 -1.34 -17.75 0 -25 c 0.79 -4.28 4.2 -9.16 7 -13 c 3.36 -4.6 7.73 -8.73 12 -13 c 4.27 -4.27 8.39 -8.24 13 -12 c 4.48 -3.65 9.45 -6.36 14 -10 c 5.63 -4.5 10.96 -9.22 16 -14 c 1.19 -1.12 2.63 -2.66 3 -4 c 0.51 -1.88 0.33 -4.83 0 -7 c -0.3 -1.96 -1.02 -4.31 -2 -6 c -1.21 -2.08 -3.19 -4.37 -5 -6 c -1.35 -1.22 -3.66 -3 -5 -3 c -1.34 0 -4.69 1.57 -5 3 c -3.31 15.39 -5.28 41.8 -9 62 c -0.88 4.79 -3.09 9.32 -5 14 c -1.84 4.51 -3.65 9.08 -6 13 c -1.51 2.52 -3.81 5.14 -6 7 c -1.92 1.62 -4.91 2.48 -7 4 c -1.47 1.07 -2.98 2.54 -4 4 c -1.21 1.73 -2.69 4.02 -3 6 c -0.6 3.83 -0.22 8.66 0 13 c 0.12 2.36 0.21 4.96 1 7 c 1.41 3.62 4.3 7.35 6 11 c 0.56 1.2 0.97 4.17 1 4 c 0.36 -2.18 4.17 -34.33 7 -52 c 1.27 -7.93 3.18 -15.05 5 -23 c 0.96 -4.18 1.55 -8.24 3 -12 c 1.83 -4.76 4.23 -9.94 7 -14 c 2 -2.94 5.18 -7.06 8 -8 c 3.98 -1.33 11.29 -0.78 16 0 c 2.63 0.44 5.97 2.26 8 4 c 2.27 1.94 5.18 5.14 6 8 c 2.82 9.89 4.79 22.47 6 34 c 1.48 14.04 1.7 27.51 2 42 c 0.39 19.3 1.01 40.64 0 56 c -0.12 1.76 -2.72 5.14 -4 5 c -3.32 -0.35 -11.38 -3.77 -15 -7 c -4.86 -4.34 -8.22 -12.13 -13 -18 c -11.6 -14.26 -23.41 -27.03 -35 -41 c -1.55 -1.87 -3.09 -3.99 -4 -6 c -0.65 -1.42 -1.61 -4.19 -1 -5 c 0.91 -1.21 4.98 -1.65 7 -3 c 3.77 -2.51 7.33 -5.75 11 -9 c 14.25 -12.61 39.71 -37.43 41 -37 c 1.17 0.39 -19.16 26.82 -29 41 c -1.85 2.66 -3.67 5.34 -5 8 c -0.58 1.16 -1.51 3.89 -1 4 c 1.25 0.28 6.93 -0.88 10 -2 c 4.04 -1.47 11.85 -6.85 12 -6 c 0.23 1.24 -9.21 13.98 -10 17 c -0.22 0.82 3.67 2.35 5 2 c 3.87 -1.02 11.75 -6.7 14 -7 c 0.73 -0.1 1.59 3.74 1 5 c -5.25 11.25 -21.6 39.22 -22 40 c -0.06 0.11 3.08 -3.16 4 -5 c 4.57 -9.15 9.18 -19.22 13 -29 c 1.49 -3.81 2.31 -8.07 3 -12 c 0.28 -1.59 0.01 -5.09 0 -5 c -0.06 0.73 -2.54 27.6 -3 42 l 0 51"/></svg>