<?xml version="1.0" encoding="UTF-8" standalone="no"?><!DOCTYPE svg PUBLIC "-//W3C//DTD SVG 1.1//EN" "http://www.w3.org/Graphics/SVG/1.1/DTD/svg11.dtd"><svg xmlns="http://www.w3.org/2000/svg" version="1.1" width="284" height="249"><path fill="none" stroke="#000000" stroke-width="2" stroke-linecap="round" stroke-linejoin="round" d="M 19 1 c 0.02 0.07 0.13 3.69 1 4 c 4.49 1.63 21 4 21 4"/><path fill="none" stroke="#000000" stroke-width="2" stroke-linecap="round" stroke-linejoin="round" d="M 1 47 c 0.16 -0.03 5.93 -1.65 9 -2 c 11.7 -1.33 23.4 -1.34 35 -3 c 7.13 -1.02 14.01 -3.07 21 -5 c 2.77 -0.76 8.19 -2.96 8 -3 c -0.3 -0.06 -8.74 1.1 -13 2 c -2.05 0.43 -4.15 1.18 -6 2 c -1.06 0.47 -2.37 1.16 -3 2 c -1.18 1.57 -2.66 3.96 -3 6 c -1.22 7.31 -1.58 15.8 -2 24 c -0.26 5.1 -0.36 10.02 0 15 c 0.31 4.37 0.44 9.57 2 13 c 1.43 3.14 5.38 6.82 8 9 c 0.9 0.75 2.78 1 4 1 c 1.22 0 3.09 -0.29 4 -1 c 1.72 -1.34 4.12 -4.06 5 -6 c 0.56 -1.24 0.25 -3.41 0 -5 c -0.4 -2.63 -0.84 -5.83 -2 -8 c -1.29 -2.43 -3.78 -5.26 -6 -7 c -2.15 -1.69 -5.45 -3.22 -8 -4 l -5 0"/><path fill="none" stroke="#000000" stroke-width="2" stroke-linecap="round" stroke-linejoin="round" d="M 40 141 c 0.26 -0.17 10.04 -6.46 15 -10 c 2.15 -1.53 4.37 -3.19 6 -5 c 1.22 -1.35 3.27 -5 3 -5 c -0.39 0 -5.32 3.04 -7 5 c -2.01 2.35 -4.74 6.27 -5 9 c -0.31 3.28 1.25 8.5 3 12 c 4.64 9.27 14.03 20.58 17 28 c 0.69 1.73 -1.44 6.22 -3 7 c -2.67 1.33 -9.03 1.36 -13 1 c -2.89 -0.26 -6.28 -1.64 -9 -3 c -3.1 -1.55 -6.25 -3.76 -9 -6 c -2.52 -2.05 -5.1 -4.53 -7 -7 c -1.28 -1.67 -2.51 -4.06 -3 -6 c -0.43 -1.74 -0.54 -4.38 0 -6 c 0.65 -1.95 2.42 -4.3 4 -6 c 2.63 -2.84 5.66 -6.06 9 -8 c 10.54 -6.13 22.98 -10.6 34 -17 c 9.81 -5.7 19.12 -12.28 28 -19 c 3.34 -2.53 6.57 -5.82 9 -9 c 1.71 -2.23 3.22 -5.45 4 -8 c 0.44 -1.43 0.34 -3.62 0 -5 c -0.25 -1 -1.19 -2.33 -2 -3 c -1 -0.84 -2.65 -1.71 -4 -2 c -3.04 -0.65 -6.87 -1 -10 -1 c -1.28 0 -4.24 0.82 -4 1 c 0.74 0.56 8.43 2.89 12 5 c 3.51 2.08 7.11 5.11 10 8 c 1.94 1.94 3.62 4.54 5 7 c 1.58 2.81 2.98 5.94 4 9 c 0.96 2.87 1.46 5.92 2 9 c 0.48 2.7 1.18 5.64 1 8 c -0.12 1.58 -1.01 4.01 -2 5 c -0.99 0.99 -3.42 1.88 -5 2 c -2.36 0.18 -5.77 -0.06 -8 -1 c -3.61 -1.52 -7.26 -4.5 -11 -7 c -3.5 -2.34 -7.04 -4.44 -10 -7 c -1.89 -1.64 -3.47 -3.9 -5 -6 c -1.14 -1.57 -2.25 -3.31 -3 -5 c -0.53 -1.19 -1.24 -3.76 -1 -4 c 0.21 -0.21 2.66 1.12 3 2 c 1.05 2.72 1.69 7.27 2 11 c 0.69 8.34 1 16.41 1 25 c 0 18.55 -1 35.48 -1 54 c 0 7.55 0.44 14.47 1 22 c 0.46 6.19 0.38 12.67 2 18 l 8 15"/><path fill="none" stroke="#000000" stroke-width="2" stroke-linecap="round" stroke-linejoin="round" d="M 151 97 c 0.61 -0.11 23.33 -4.54 35 -6 c 4.27 -0.53 8.67 -0.32 13 0 c 4.71 0.35 14 2 14 2"/><path fill="none" stroke="#000000" stroke-width="2" stroke-linecap="round" stroke-linejoin="round" d="M 158 85 c -0.02 0.33 -0.33 12.55 -1 19 c -1.03 9.92 -4 29 -4 29"/><path fill="none" stroke="#000000" stroke-width="2" stroke-linecap="round" stroke-linejoin="round" d="M 193 94 c -0.07 -0.02 -3.23 -1.59 -4 -1 c -4.74 3.66 -12.46 11.51 -18 18 c -8.23 9.64 -15.61 19.53 -23 30 c -4.83 6.84 -12.69 20.69 -13 21 c -0.25 0.25 6 -12.89 10 -18 c 3.98 -5.1 9.9 -10.79 15 -14 c 3.07 -1.94 8.03 -2.57 12 -3 c 5.13 -0.55 16.5 -1.05 16 0 c -0.97 2.05 -16.23 12.86 -25 19 c -8.29 5.8 -16.58 11.45 -25 16 c -3.59 1.94 -12 3.43 -12 4 c 0 0.54 8.05 1.2 12 1 c 8.91 -0.46 18.63 -1.24 27 -3 c 3.72 -0.78 8.01 -3.08 11 -5 c 1.24 -0.8 2.32 -2.63 3 -4 c 0.56 -1.13 1.36 -3.02 1 -4 c -0.75 -2.05 -3.21 -5.57 -5 -7 c -1.06 -0.85 -3.61 -1.25 -5 -1 c -1.82 0.33 -4.36 1.67 -6 3 c -3.45 2.8 -7.03 6.4 -10 10 c -3.32 4.02 -6.18 8.41 -9 13 c -5.36 8.71 -9.62 18.82 -15 26 l -9 6"/><path fill="none" stroke="#000000" stroke-width="2" stroke-linecap="round" stroke-linejoin="round" d="M 149 175 c 0.18 0.05 7.61 1.24 10 3 c 3.25 2.39 5.83 7.61 9 11 c 1.43 1.53 5 4 5 4"/><path fill="none" stroke="#000000" stroke-width="2" stroke-linecap="round" stroke-linejoin="round" d="M 249 113 c -0.14 0.04 -5.7 0.78 -8 2 c -8.52 4.51 -24.08 14.08 -26 16 c -0.52 0.52 5.56 1.06 8 2 c 1.73 0.66 4.37 1.66 5 3 c 1.3 2.8 1.73 7.97 2 12 c 0.4 5.96 -0.46 12 0 18 c 0.54 7.07 2.51 14.32 3 21 c 0.14 1.92 -0.14 4.72 -1 6 c -0.82 1.23 -3.31 2.48 -5 3 c -2.34 0.72 -5.69 1.46 -8 1 c -3.72 -0.74 -9.16 -2.92 -12 -5 c -1.46 -1.07 -2.77 -4.08 -3 -6 c -0.37 -3.16 -0.37 -8.15 1 -11 c 2.2 -4.59 6.92 -9.92 11 -14 c 4.41 -4.41 9.62 -8.72 15 -12 c 9.77 -5.95 20.74 -11.94 31 -16 c 5.08 -2.01 12.19 -2.77 17 -3 c 1.25 -0.06 4.05 1.15 4 2 c -0.18 3.01 -2.86 10.37 -5 15 c -1.76 3.82 -4.39 7.65 -7 11 c -1.98 2.54 -4.51 4.86 -7 7 c -2.17 1.86 -7.14 5.06 -7 5 c 0.26 -0.11 9.42 -5.83 14 -8 c 1.45 -0.69 3.44 -1 5 -1 c 1.56 0 4.75 0.07 5 1 c 0.68 2.56 -0.32 9.38 -1 14 c -0.65 4.39 -1.79 8.57 -3 13 c -2.92 10.71 -5.86 21.3 -9 31 l -2 3"/></svg>