<?xml version="1.0" encoding="UTF-8" standalone="no"?><!DOCTYPE svg PUBLIC "-//W3C//DTD SVG 1.1//EN" "http://www.w3.org/Graphics/SVG/1.1/DTD/svg11.dtd"><svg xmlns="http://www.w3.org/2000/svg" version="1.1" width="266" height="155"><path fill="none" stroke="#000000" stroke-width="2" stroke-linecap="round" stroke-linejoin="round" d="M 209 125 c -0.02 -0.07 -0.91 -2.67 -1 -4 c -0.23 -3.22 -0.16 -6.57 0 -10 c 0.53 -11.34 0.67 -22.01 2 -33 c 1.02 -8.47 2.88 -16.7 5 -25 c 1.58 -6.18 3.52 -12.22 6 -18 c 2.51 -5.86 5.66 -11.51 9 -17 c 2.36 -3.89 5.08 -7.7 8 -11 c 1.98 -2.24 7 -6 7 -6"/><path fill="none" stroke="#000000" stroke-width="2" stroke-linecap="round" stroke-linejoin="round" d="M 43 20 c 0.16 -0.1 5.87 -4.35 9 -6 c 3.12 -1.64 6.57 -3.09 10 -4 c 6.5 -1.73 13.38 -3.02 20 -4 c 2.27 -0.34 7 0 7 0"/><path fill="none" stroke="#000000" stroke-width="2" stroke-linecap="round" stroke-linejoin="round" d="M 21 50 c -0.11 0.07 -4.5 2.38 -6 4 c -2.25 2.43 -4.62 5.82 -6 9 c -2.82 6.51 -5.26 14.04 -7 21 c -0.87 3.47 -1.5 7.6 -1 11 c 1.08 7.32 6 23 6 23"/><path fill="none" stroke="#000000" stroke-width="2" stroke-linecap="round" stroke-linejoin="round" d="M 15 69 c 0.14 -0.16 5.03 -6.6 8 -9 c 3.77 -3.05 8.45 -5.86 13 -8 c 6.69 -3.15 13.71 -5.65 21 -8 c 12.83 -4.13 25.25 -8.04 38 -11 c 5.84 -1.36 14.26 -3.02 18 -2 c 1.85 0.5 4 5.61 4 8 c 0 3.89 -2.22 9.55 -4 14 c -2.19 5.47 -5.06 10.64 -8 16 c -2.87 5.24 -5.72 10.07 -9 15 c -2.82 4.22 -5.78 8.03 -9 12 c -2.58 3.19 -5.1 6.26 -8 9 c -3.08 2.91 -7.37 6.87 -10 8 c -0.92 0.39 -3.95 -1.07 -4 -2 c -0.19 -3.8 1.74 -12.19 3 -18 c 0.37 -1.72 0.94 -4.18 2 -5 c 1.43 -1.11 4.71 -1.62 7 -2 c 1.57 -0.26 3.61 -0.42 5 0 c 1.62 0.49 3.76 1.76 5 3 c 1.53 1.53 2.88 3.89 4 6 c 1.53 2.88 3.46 6 4 9 c 1.03 5.79 1.33 12.81 1 19 c -0.32 5.94 -1.53 12.32 -3 18 c -0.8 3.07 -2.47 6.37 -4 9 c -0.66 1.13 -1.93 2.39 -3 3 c -1.04 0.59 -2.74 1.07 -4 1 c -4.01 -0.24 -10.21 -0.7 -13 -2 c -1.14 -0.53 -2.13 -3.67 -2 -5 c 0.14 -1.44 1.88 -3.38 3 -5 c 1.93 -2.78 3.6 -5.82 6 -8 c 11.93 -10.85 24.84 -21.25 38 -32 c 3.6 -2.94 7.16 -5.51 11 -8 c 2.9 -1.89 6.02 -3.88 9 -5 c 2.05 -0.77 4.79 -1 7 -1 c 1.59 0 3.54 0.45 5 1 c 1.03 0.39 2.29 1.18 3 2 c 1.14 1.33 2.32 3.31 3 5 c 0.59 1.48 0.71 3.27 1 5 c 0.4 2.4 1.48 4.99 1 7 c -1.32 5.5 -4.19 12.37 -7 18 c -2.1 4.2 -5.2 8.19 -8 12 c -0.82 1.12 -1.93 2.39 -3 3 c -1.04 0.59 -3.48 1.52 -4 1 c -0.92 -0.92 -1.84 -4.8 -2 -7 c -0.15 -2.14 0.35 -4.81 1 -7 c 0.98 -3.34 2.2 -7.03 4 -10 c 3.72 -6.12 8.28 -12.49 13 -18 c 3.16 -3.69 7.11 -6.79 11 -10 c 3.93 -3.24 7.72 -6.46 12 -9 c 8.03 -4.78 16.41 -8.93 25 -13 c 4.25 -2.01 8.55 -3.89 13 -5 c 8.78 -2.19 24.56 -5.11 27 -5 c 0.64 0.03 -2.38 4.38 -4 6 l -12 10"/><path fill="none" stroke="#000000" stroke-width="2" stroke-linecap="round" stroke-linejoin="round" d="M 187 102 c 0.25 -0.12 9.12 -4.85 14 -7 c 6.72 -2.96 13.12 -5.57 20 -8 c 4.65 -1.64 13.91 -4.82 14 -4 c 0.11 1.03 -8.36 9.05 -13 13 c -4.34 3.7 -9.47 6.38 -14 10 c -3.91 3.13 -7.28 6.48 -11 10 c -2.83 2.68 -5.54 5.16 -8 8 c -1.87 2.16 -4.91 6.54 -5 7 c -0.05 0.24 2.85 -1.12 4 -2 c 4.37 -3.35 8.45 -7.78 13 -11 c 3.35 -2.37 7.19 -4.39 11 -6 c 4.81 -2.03 9.93 -4.03 15 -5 c 8.71 -1.66 17.86 -2.19 27 -3 c 2.35 -0.21 4.95 -0.37 7 0 c 1.31 0.24 3.88 1.07 4 2 c 0.36 2.73 -0.67 9.19 -2 13 c -1.18 3.38 -3.61 7.04 -6 10 c -4.5 5.57 -9.85 11.09 -15 16 l -6 4"/></svg>