<?xml version="1.0" encoding="UTF-8" standalone="no"?><!DOCTYPE svg PUBLIC "-//W3C//DTD SVG 1.1//EN" "http://www.w3.org/Graphics/SVG/1.1/DTD/svg11.dtd"><svg xmlns="http://www.w3.org/2000/svg" version="1.1" width="269" height="216"><path fill="none" stroke="#000000" stroke-width="2" stroke-linecap="round" stroke-linejoin="round" d="M 1 69 c 0.14 -0.09 5.14 -3.94 8 -5 c 17.27 -6.41 35.46 -12.76 54 -18 c 15.02 -4.25 45 -10 45 -10"/><path fill="none" stroke="#000000" stroke-width="2" stroke-linecap="round" stroke-linejoin="round" d="M 24 118 c 0.65 -0.44 24.07 -16.7 37 -25 c 10.13 -6.5 30 -18 30 -18"/><path fill="none" stroke="#000000" stroke-width="2" stroke-linecap="round" stroke-linejoin="round" d="M 73 69 c 0.02 0.95 0.07 35.54 1 54 c 0.78 15.44 3.2 29.65 4 45 c 0.56 10.87 0.5 21.52 0 32 c -0.16 3.34 -0.88 7.19 -2 10 c -0.71 1.76 -4 5 -4 5"/><path fill="none" stroke="#000000" stroke-width="2" stroke-linecap="round" stroke-linejoin="round" d="M 159 19 c 0.02 0.16 1.04 5.98 1 9 c -0.29 19.71 -1.84 38.66 -2 59 c -0.18 22.74 -0.35 43.97 1 66 c 0.66 10.81 3.03 21.07 5 32 c 1.12 6.22 4 18 4 18"/><path fill="none" stroke="#000000" stroke-width="2" stroke-linecap="round" stroke-linejoin="round" d="M 129 113 c 0.02 0.1 0.08 4.82 1 6 c 1.01 1.3 3.92 2.22 6 3 c 3.23 1.21 6.64 2.36 10 3 c 3.55 0.68 7.28 1 11 1 c 12.13 0 36 -1 36 -1"/><path fill="none" stroke="#000000" stroke-width="2" stroke-linecap="round" stroke-linejoin="round" d="M 187 32 c -0.1 0.02 -5.35 0.02 -6 1 c -0.86 1.29 -0.72 5.67 0 8 c 2.06 6.65 5.6 15.11 9 21 c 1.16 2.01 3.9 4.02 6 5 c 2.48 1.16 6.2 2 9 2 c 3.1 0 7.63 -0.42 10 -2 c 3.79 -2.53 7.57 -7.67 11 -12 c 10.84 -13.68 20.15 -27.05 31 -41 c 3.6 -4.62 11 -13 11 -13"/><path fill="none" stroke="#000000" stroke-width="2" stroke-linecap="round" stroke-linejoin="round" d="M 174 91 c 0.07 0.09 2.42 3.81 4 5 c 3.43 2.58 12 7 12 7"/><path fill="none" stroke="#000000" stroke-width="2" stroke-linecap="round" stroke-linejoin="round" d="M 194 104 c -0.12 -0.14 -6.09 -5.42 -7 -8 c -0.78 -2.2 -0.44 -7.18 1 -9 c 2.73 -3.46 9.15 -6.97 14 -10 c 3.15 -1.97 6.53 -3.36 10 -5 c 2.37 -1.11 4.66 -2.51 7 -3 c 3.7 -0.78 12.47 -1.76 12 -1 c -1.44 2.31 -17.99 16.21 -27 25 c -5.37 5.24 -14 13.88 -15 16 c -0.32 0.68 4.77 1 7 1 c 1.92 0 5.21 -1.53 6 -1 c 0.65 0.43 0.59 3.68 0 5 c -1.79 4.02 -5.71 8.41 -8 13 c -5.45 10.9 -10.58 21.83 -15 33 c -1.89 4.79 -2.99 9.94 -4 15 l -1 10"/><path fill="none" stroke="#000000" stroke-width="2" stroke-linecap="round" stroke-linejoin="round" d="M 198 144 c -0.05 0.14 -2.58 5.3 -3 8 c -1.19 7.6 -1.5 15.81 -2 24 c -0.19 3.06 -0.32 6.09 0 9 c 0.33 2.98 0.72 6.92 2 9 c 1 1.63 4.01 3.5 6 4 c 2.76 0.69 6.86 0.47 10 0 c 3.28 -0.49 7.63 -1.19 10 -3 c 3.87 -2.95 7.66 -8.39 11 -13 c 3.7 -5.1 7.43 -10.43 10 -16 c 3.32 -7.19 5.79 -15.06 8 -23 c 3.55 -12.74 5.65 -25.07 9 -38 c 1.44 -5.55 5 -16 5 -16"/></svg>