<?xml version="1.0" encoding="UTF-8" standalone="no"?><!DOCTYPE svg PUBLIC "-//W3C//DTD SVG 1.1//EN" "http://www.w3.org/Graphics/SVG/1.1/DTD/svg11.dtd"><svg xmlns="http://www.w3.org/2000/svg" version="1.1" width="276" height="187"><path fill="none" stroke="#000000" stroke-width="2" stroke-linecap="round" stroke-linejoin="round" d="M 1 22 c 0.16 0.02 5.94 0.96 9 1 c 21.27 0.3 62.13 -5.88 63 0 c 1.12 7.6 -35.37 41.02 -54 61 c -4.54 4.87 -15.67 13.12 -15 13 c 1.55 -0.29 38.58 -16.95 42 -18 c 0.5 -0.15 -1.58 4.41 -3 6 c -11.95 13.37 -35 36.06 -39 41 c -0.36 0.44 3.66 1.48 5 1 c 6.68 -2.39 15.33 -7.88 23 -11 c 2.77 -1.13 6.01 -1.72 9 -2 c 3.89 -0.37 9.79 -0.85 12 0 c 0.94 0.36 1 3.37 1 5 c 0 4.17 0.58 9.48 -1 13 c -3.87 8.61 -10.88 18.26 -17 27 c -3.27 4.66 -11 13 -11 13"/><path fill="none" stroke="#000000" stroke-width="2" stroke-linecap="round" stroke-linejoin="round" d="M 126 37 c -0.07 0.24 -2.01 9.77 -4 14 c -3.19 6.77 -7.54 13.8 -12 20 c -3.11 4.33 -7.03 8.16 -11 12 c -6.56 6.35 -12.99 12.23 -20 18 c -4.48 3.69 -14 9.34 -14 10 c 0 0.55 9.51 -2.15 14 -4 c 14.23 -5.84 27.99 -12.27 42 -19 c 3.54 -1.7 10 -6 10 -6"/><path fill="none" stroke="#000000" stroke-width="2" stroke-linecap="round" stroke-linejoin="round" d="M 91 43 c -0.05 0.09 -2.83 3.27 -3 5 c -2.83 28.83 -6.42 78.12 -7 97 c -0.02 0.8 3.57 1.7 4 1 c 5.09 -8.23 18.24 -37.37 22 -43 c 0.44 -0.66 3.36 2.46 4 4 c 2.37 5.69 3.42 13.85 6 20 c 1.61 3.84 4.4 7.54 7 11 c 2.4 3.2 5.12 6.3 8 9 c 2.39 2.24 5.22 4.53 8 6 l 9 3"/><path fill="none" stroke="#000000" stroke-width="2" stroke-linecap="round" stroke-linejoin="round" d="M 152 21 c 0 0.35 -0.91 13.66 0 20 c 1.03 7.23 3.8 14.85 6 22 c 0.43 1.4 2 4 2 4"/><path fill="none" stroke="#000000" stroke-width="2" stroke-linecap="round" stroke-linejoin="round" d="M 156 1 c 0.35 0.02 13.25 0.32 20 1 c 6.82 0.68 14.58 1.42 20 3 c 1.52 0.44 3.45 2.62 4 4 c 0.58 1.46 0.92 4.64 0 6 c -5.55 8.21 -15.13 19.04 -23 28 c -1.7 1.93 -4.91 5.24 -6 5 c -1.06 -0.24 -2.33 -4.65 -3 -7 c -0.62 -2.18 -0.41 -4.74 -1 -7 c -1.06 -4.04 -5.42 -10.85 -4 -12 c 2.25 -1.83 13.65 -1 20 -1 c 1.31 0 3.29 0.29 4 1 c 0.93 0.93 2.41 3.89 2 5 c -0.64 1.76 -3.82 4.23 -6 6 c -3.13 2.54 -6.46 4.85 -10 7 c -7.67 4.65 -23.46 13.08 -23 13 c 0.66 -0.11 23.44 -10.38 35 -15 c 1.55 -0.62 5.11 -1.32 5 -1 c -0.21 0.62 -4.43 4.91 -7 7 c -8.16 6.63 -16.59 12.21 -25 19 c -11.22 9.05 -30.44 25.14 -32 27 c -0.42 0.5 7.66 -0.7 11 -2 c 8.28 -3.22 16.31 -8.12 25 -12 c 7.45 -3.33 14.42 -6.19 22 -9 c 4.34 -1.61 11.77 -4 13 -4 c 0.4 0 -1.04 3.14 -2 4 c -2.03 1.82 -5.46 3.1 -8 5 c -5.55 4.16 -10.96 8.38 -16 13 c -2.95 2.7 -5.62 5.78 -8 9 c -3.29 4.45 -6.48 9.12 -9 14 c -2.78 5.39 -4.87 11.11 -7 17 c -2.3 6.38 -4.27 12.41 -6 19 c -3.75 14.28 -10 42 -10 42"/><path fill="none" stroke="#000000" stroke-width="2" stroke-linecap="round" stroke-linejoin="round" d="M 153 115 c 0.05 -0.16 1.83 -6.19 3 -9 c 0.44 -1.07 1.22 -2.22 2 -3 c 0.78 -0.78 1.93 -1.76 3 -2 c 7.19 -1.6 21.4 -4.65 24 -4 c 1.05 0.26 -1.96 6.83 -4 9 c -7.18 7.66 -25.42 22.39 -26 23 c -0.17 0.18 6.35 -3.06 9 -5 c 2.18 -1.6 3.83 -4.45 6 -6 c 2.29 -1.63 7.1 -4.13 8 -4 c 0.51 0.07 -0.28 3.57 -1 5 c -3.4 6.8 -8.64 14.04 -12 21 c -1.15 2.37 -1.76 5.35 -2 8 c -0.41 4.5 -0.64 10.38 0 14 c 0.19 1.1 1.9 2.85 3 3 c 4.94 0.67 14.08 1.74 19 0 c 4.98 -1.76 11.53 -7.48 15 -12 c 3.56 -4.64 6.41 -12.24 8 -18 c 0.89 -3.22 1.07 -9 0 -11 c -0.71 -1.32 -4.77 -1.86 -7 -2 c -2.77 -0.17 -7.03 0.1 -9 1 c -0.97 0.44 -2.46 3.31 -2 4 c 0.97 1.46 5.21 4.22 8 5 c 8.43 2.34 28 5 28 5"/><path fill="none" stroke="#000000" stroke-width="2" stroke-linecap="round" stroke-linejoin="round" d="M 213 26 c -0.05 0.12 -2.79 4.69 -3 7 c -0.72 7.89 -0.49 17.62 0 26 c 0.16 2.66 1.68 8.43 2 8 c 0.82 -1.1 4.21 -13.62 7 -20 c 1.83 -4.18 5.71 -11.35 7 -12 c 0.71 -0.35 2.64 4.71 3 7 c 0.57 3.61 0.98 8.65 0 12 c -1.13 3.88 -4.96 10.3 -7 12 c -0.79 0.66 -3.38 -1.68 -5 -2 c -1.51 -0.3 -3.89 -0.47 -5 0 c -0.8 0.34 -1.72 1.96 -2 3 c -0.63 2.32 -0.93 5.29 -1 8 c -0.27 10.08 -0.28 20.06 0 30 c 0.06 2.02 0.27 4.29 1 6 c 1.14 2.65 3.09 6.57 5 8 c 1.43 1.07 5.96 1.94 7 1 c 1.72 -1.56 2.92 -7.21 4 -11 l 4 -17"/><path fill="none" stroke="#000000" stroke-width="2" stroke-linecap="round" stroke-linejoin="round" d="M 239 26 c 0.12 0.07 4.57 3.07 7 4 c 4.4 1.68 9.21 2.9 14 4 c 4 0.92 12 2 12 2"/><path fill="none" stroke="#000000" stroke-width="2" stroke-linecap="round" stroke-linejoin="round" d="M 239 67 c -0.05 0.04 -3.23 1.98 -3 2 c 1.43 0.15 15.27 0.96 22 0 c 4.26 -0.61 9.54 -3.16 13 -5 l 2 -3"/><path fill="none" stroke="#000000" stroke-width="2" stroke-linecap="round" stroke-linejoin="round" d="M 275 56 c -0.23 -0.07 -10.2 -4.33 -13 -4 c -1.48 0.17 -3.12 3.83 -4 6 c -7.59 18.67 -14.83 38.21 -22 58 c -1.32 3.64 -1.64 7.52 -3 11 c -1.6 4.1 -6 12 -6 12"/><path fill="none" stroke="#000000" stroke-width="2" stroke-linecap="round" stroke-linejoin="round" d="M 249 84 c -0.02 0.24 -1.54 9.89 -1 14 c 0.38 2.89 2.19 6.43 4 9 c 4.3 6.12 9.86 12.61 15 18 c 1.58 1.66 6 4 6 4"/></svg>