<?xml version="1.0" encoding="UTF-8" standalone="no"?><!DOCTYPE svg PUBLIC "-//W3C//DTD SVG 1.1//EN" "http://www.w3.org/Graphics/SVG/1.1/DTD/svg11.dtd"><svg xmlns="http://www.w3.org/2000/svg" version="1.1" width="390" height="201"><path fill="none" stroke="#000000" stroke-width="2" stroke-linecap="round" stroke-linejoin="round" d="M 1 40 c 1.12 -0.37 42.22 -14.96 64 -21 c 12.17 -3.38 33.47 -6.79 37 -7 c 0.55 -0.03 -1.65 3.84 -3 5 c -5.14 4.41 -11.71 9.16 -18 13 c -5.7 3.48 -11.78 6.34 -18 9 c -5.57 2.39 -11.2 4.22 -17 6 c -2.97 0.91 -9.25 1.42 -9 2 c 0.35 0.82 8.18 2.96 12 5 c 6.2 3.3 12.93 7.03 18 11 c 2.07 1.62 3.92 4.66 5 7 c 0.76 1.65 1 4.12 1 6 c 0 1.58 -0.3 3.73 -1 5 c -0.78 1.41 -2.62 3.68 -4 4 c -2.21 0.51 -7.04 0.4 -9 -1 c -4 -2.85 -9.3 -9.03 -12 -14 c -3.24 -5.97 -5.87 -19.2 -7 -21 c -0.3 -0.47 -2.35 3.24 -3 5 c -1.61 4.38 -3.14 9.21 -4 14 c -2.15 11.96 -3.76 23.6 -5 36 c -1.85 18.47 -2.99 35.36 -4 54 c -0.71 13.08 -1 38 -1 38"/><path fill="none" stroke="#000000" stroke-width="2" stroke-linecap="round" stroke-linejoin="round" d="M 93 67 l 47 -13"/><path fill="none" stroke="#000000" stroke-width="2" stroke-linecap="round" stroke-linejoin="round" d="M 123 1 c -0.1 0.38 -4.17 14.35 -6 22 c -3.69 15.46 -5.8 30.11 -10 45 c -3.2 11.34 -7.62 22.18 -12 33 c -1.28 3.17 -5.58 7.25 -5 9 c 0.66 1.98 6.69 4.78 10 6 c 2.57 0.95 5.94 0.9 9 1 c 7.09 0.24 14.02 0.41 21 0 c 4.37 -0.26 13 -2 13 -2"/><path fill="none" stroke="#000000" stroke-width="2" stroke-linecap="round" stroke-linejoin="round" d="M 127 76 c -0.02 0.33 -0.23 12.61 -1 19 c -1.26 10.54 -2.93 20.48 -5 31 c -1.69 8.62 -3.68 16.56 -6 25 c -1.43 5.19 -3.16 10.28 -5 15 l -2 3"/><path fill="none" stroke="#000000" stroke-width="2" stroke-linecap="round" stroke-linejoin="round" d="M 91 134 l -30 29"/><path fill="none" stroke="#000000" stroke-width="2" stroke-linecap="round" stroke-linejoin="round" d="M 141 133 l -1 8"/><path fill="none" stroke="#000000" stroke-width="2" stroke-linecap="round" stroke-linejoin="round" d="M 170 83 c 0.37 -0.07 14.56 -3.56 21 -4 c 2.48 -0.17 6.16 0.78 8 2 c 1.61 1.07 3.19 3.9 4 6 c 1.4 3.59 2.81 8.01 3 12 c 0.78 16.44 -0.56 34.74 0 51 c 0.08 2.32 1.1 4.84 2 7 c 0.72 1.73 1.84 3.51 3 5 c 1.12 1.44 2.48 3.24 4 4 c 4 2 9.35 3.88 14 5 c 3.46 0.83 7.49 1.33 11 1 c 6.79 -0.64 14.12 -2.34 21 -4 c 2.75 -0.66 5.63 -1.72 8 -3 l 5 -4"/><path fill="none" stroke="#000000" stroke-width="2" stroke-linecap="round" stroke-linejoin="round" d="M 200 30 c -0.28 1.68 -9.9 62.98 -16 96 c -3.91 21.16 -13 61 -13 61"/><path fill="none" stroke="#000000" stroke-width="2" stroke-linecap="round" stroke-linejoin="round" d="M 235 64 c -0.1 0.25 -4.52 9.18 -6 14 c -2.5 8.14 -4.28 16.42 -6 25 c -1.35 6.75 -3 20 -3 20"/><path fill="none" stroke="#000000" stroke-width="2" stroke-linecap="round" stroke-linejoin="round" d="M 235 57 c 0.21 -0.14 7.91 -6.13 12 -8 c 3.51 -1.61 8.35 -2.82 12 -3 c 2.43 -0.12 5.67 1.03 8 2 c 1.41 0.59 3.05 1.81 4 3 c 1.53 1.92 3.2 4.61 4 7 c 1.1 3.31 1.87 7.39 2 11 c 0.19 5.17 -0.31 10.67 -1 16 c -0.66 5.08 -1.63 10.02 -3 15 c -2.35 8.54 -4.86 16.85 -8 25 c -1.87 4.86 -7 14 -7 14"/><path fill="none" stroke="#000000" stroke-width="2" stroke-linecap="round" stroke-linejoin="round" d="M 229 88 l 21 4"/><path fill="none" stroke="#000000" stroke-width="2" stroke-linecap="round" stroke-linejoin="round" d="M 215 135 c 0.51 -0.11 19.4 -3.54 29 -6 c 4.82 -1.23 14 -5 14 -5"/><path fill="none" stroke="#000000" stroke-width="2" stroke-linecap="round" stroke-linejoin="round" d="M 333 10 c -0.09 0.3 -2.97 11.35 -5 17 c -2.72 7.58 -5.65 14.6 -9 22 c -3.15 6.96 -6.41 13.16 -10 20 c -3.67 6.99 -6.83 13.59 -11 20 c -5.23 8.03 -11.15 15.47 -17 23 l -4 4"/><path fill="none" stroke="#000000" stroke-width="2" stroke-linecap="round" stroke-linejoin="round" d="M 299 67 c 0.23 -0.05 8.76 -2.91 13 -3 c 10.51 -0.23 21.67 1.42 33 2 c 2.06 0.11 4.03 0.23 6 0 c 3.66 -0.43 11 -2 11 -2"/><path fill="none" stroke="#000000" stroke-width="2" stroke-linecap="round" stroke-linejoin="round" d="M 294 115 c 0.98 -0.28 37.34 -10.13 56 -16 c 4.88 -1.53 9.33 -4.28 14 -6 c 1.56 -0.58 5 -1 5 -1"/><path fill="none" stroke="#000000" stroke-width="2" stroke-linecap="round" stroke-linejoin="round" d="M 291 140 c 0.19 0.04 7.32 1.68 11 2 c 3.94 0.34 8.1 0.57 12 0 c 11.93 -1.74 36 -7 36 -7"/><path fill="none" stroke="#000000" stroke-width="2" stroke-linecap="round" stroke-linejoin="round" d="M 333 99 c -0.1 0.38 -4.57 14.48 -6 22 c -2.27 11.99 -5 36 -5 36"/><path fill="none" stroke="#000000" stroke-width="2" stroke-linecap="round" stroke-linejoin="round" d="M 279 159 l 10 8"/><path fill="none" stroke="#000000" stroke-width="2" stroke-linecap="round" stroke-linejoin="round" d="M 349 142 c -0.82 0.63 -31 25.34 -47 36 c -6.53 4.35 -22 10 -22 10"/><path fill="none" stroke="#000000" stroke-width="2" stroke-linecap="round" stroke-linejoin="round" d="M 206 179 c 0.89 0.19 33.41 7.48 51 11 c 6.48 1.3 12.41 2.15 19 3 c 12.06 1.56 22.91 2.88 35 4 c 10.32 0.95 19.64 1.6 30 2 c 16.55 0.64 48 1 48 1"/></svg>