<?xml version="1.0" encoding="UTF-8" standalone="no"?><!DOCTYPE svg PUBLIC "-//W3C//DTD SVG 1.1//EN" "http://www.w3.org/Graphics/SVG/1.1/DTD/svg11.dtd"><svg xmlns="http://www.w3.org/2000/svg" version="1.1" width="389" height="211"><path fill="none" stroke="#000000" stroke-width="2" stroke-linecap="round" stroke-linejoin="round" d="M 1 51 c 0.11 -0.12 3.75 -4.93 6 -7 c 6.07 -5.58 12.31 -11.54 19 -16 c 6.02 -4.01 13.08 -6.67 20 -10 c 2.36 -1.13 4.74 -2.48 7 -3 c 1.78 -0.41 4.07 -0.19 6 0 c 1.32 0.13 3.17 0.27 4 1 c 1.45 1.27 3.78 4.11 4 6 c 0.35 2.94 -0.91 7.56 -2 11 c -1.18 3.71 -3.03 7.59 -5 11 c -1.63 2.82 -3.69 5.83 -6 8 c -3.14 2.95 -10.57 7.5 -11 8 c -0.16 0.19 3.42 -1 5 -1 c 1.88 0 4.47 0.24 6 1 c 1.42 0.71 4.12 4 4 4 c -0.16 0 -4.49 -2.33 -6 -4 c -4.18 -4.64 -8.81 -13.98 -12 -16 c -1.29 -0.81 -5.45 2.23 -7 4 c -2.67 3.05 -5.45 7.78 -7 12 c -4.3 11.72 -8.12 24.61 -11 37 c -1.42 6.13 -1.88 12.6 -2 19 c -0.22 12.07 -0.42 24.11 1 36 c 1.92 16.12 9 48 9 48"/><path fill="none" stroke="#000000" stroke-width="2" stroke-linecap="round" stroke-linejoin="round" d="M 66 73 c 0.4 -0.28 14.94 -10.79 23 -16 c 8.39 -5.42 16.27 -10.4 25 -15 c 9.91 -5.23 30 -14 30 -14"/><path fill="none" stroke="#000000" stroke-width="2" stroke-linecap="round" stroke-linejoin="round" d="M 79 64 c 0.02 0.12 0.45 4.78 1 7 c 0.42 1.69 0.95 3.85 2 5 c 1.94 2.14 5.36 4.58 8 6 c 1.35 0.73 3.38 1 5 1 c 3.18 0 6.85 -0.3 10 -1 c 2.68 -0.6 5.67 -1.58 8 -3 c 5.08 -3.09 10.42 -6.99 15 -11 c 3.31 -2.9 6.92 -6.53 9 -10 c 1.62 -2.69 3 -6.89 3 -10 c 0 -5.15 -1.22 -12.02 -3 -17 c -1.34 -3.76 -4.59 -7.86 -7 -11 c -0.67 -0.87 -2.02 -1.92 -3 -2 c -2.46 -0.2 -6.65 -0.03 -9 1 c -2.39 1.05 -5.1 3.79 -7 6 c -1.94 2.26 -3.68 5.22 -5 8 c -1.64 3.46 -2.93 7.25 -4 11 c -0.93 3.27 -1.73 6.62 -2 10 c -0.73 8.94 -1 17.93 -1 27 c 0 3.71 0.29 7.44 1 11 c 0.94 4.7 2.37 9.8 4 14 c 0.56 1.44 1.81 3.29 3 4 c 1.73 1.04 4.95 2.22 7 2 c 3.56 -0.37 8.36 -2.41 12 -4 c 1.44 -0.63 2.9 -1.9 4 -3 c 0.8 -0.8 1.88 -2.06 2 -3 c 0.17 -1.33 -0.29 -4.65 -1 -5 c -0.74 -0.37 -3.77 0.96 -5 2 c -2.74 2.32 -6.03 5.77 -8 9 c -2.49 4.09 -4.5 9.17 -6 14 c -2.83 9.16 -5.17 18.46 -7 28 c -1.54 7.99 -1.72 23.42 -3 24 c -1.09 0.5 -5.71 -12.53 -8 -19 c -1.38 -3.88 -1.4 -10.54 -3 -12 c -1.07 -0.97 -5.55 0.99 -8 2 c -3.05 1.26 -6.53 2.92 -9 5 c -3.57 3 -10.78 11.12 -10 11 c 2.41 -0.37 28.62 -11.21 43 -16 c 3.5 -1.17 7.32 -1.69 11 -2 c 4.27 -0.36 8.91 -0.53 13 0 c 3.29 0.43 6.97 1.67 10 3 c 2.09 0.92 4.38 2.38 6 4 c 3.18 3.18 6.74 7.23 9 11 c 1.51 2.52 2.48 5.99 3 9 c 0.77 4.45 -0.17 14.17 1 14 c 1.71 -0.24 9.71 -10.37 13 -16 c 3.43 -5.89 6.03 -13.18 8 -20 c 2.33 -8.07 3.56 -16.39 5 -25 c 1.31 -7.84 3 -15.43 3 -23 c 0 -11.79 -3.39 -34.29 -3 -36 c 0.17 -0.76 5.77 9.09 8 14 c 4.47 9.84 8.82 19.66 12 30 c 4.87 15.84 7.45 32.07 12 48 c 1.49 5.2 3.76 10.08 6 15 c 1.12 2.46 2.48 4.91 4 7 c 1.07 1.47 2.54 3.2 4 4 c 1.88 1.02 4.96 2.28 7 2 c 4.44 -0.6 11.05 -2.41 15 -5 c 4.94 -3.24 10.85 -8.83 14 -14 c 4.64 -7.61 8.7 -17.94 11 -27 c 2.55 -10.03 3.7 -21.35 4 -32 c 0.36 -12.56 -0.55 -25.33 -2 -38 c -1.24 -10.84 -3.26 -21.61 -6 -32 c -1.89 -7.17 -4.58 -15.11 -8 -21 c -2.15 -3.71 -6.41 -7.91 -10 -10 c -3.69 -2.15 -9.82 -4.13 -14 -4 c -5.09 0.16 -12.43 2.26 -17 5 c -6.21 3.73 -13.31 10.09 -18 16 c -5.15 6.48 -9.43 15.05 -13 23 c -3.72 8.28 -6.52 17.08 -9 26 c -2.58 9.28 -4.44 18.38 -6 28 c -2.19 13.54 -3.96 26.49 -5 40 c -0.64 8.38 -0.24 16.53 0 25 c 0.1 3.4 0.37 6.86 1 10 c 0.34 1.68 1.61 5.42 2 5 c 2.01 -2.13 11.03 -15.07 15 -23 c 3.52 -7.03 5.53 -15 8 -23 c 4.76 -15.4 4.98 -35.33 13 -45 c 10.07 -12.15 33.58 -21.32 50 -31 c 1.77 -1.04 4.3 -2.13 6 -2 c 2.04 0.16 6.08 1.5 7 3 c 1.22 1.98 1.15 6.78 1 10 c -0.18 3.89 -1.06 8.06 -2 12 c -0.73 3.07 -1.78 6.16 -3 9 c -0.75 1.75 -2.83 4.91 -3 5 c -0.12 0.06 0.92 -4.08 1 -4 c 0.1 0.1 0.34 3.62 0 5 c -0.25 1 -2.03 3.05 -2 3 c 0.3 -0.46 10.74 -17.77 17 -26 c 5.42 -7.13 11.62 -13.43 18 -20 c 5.2 -5.36 10.36 -10.34 16 -15 c 4.06 -3.36 8.5 -6.48 13 -9 c 3.7 -2.07 9.7 -5.77 12 -5 c 2.22 0.74 6 7.64 6 11 c 0 6.89 -3.16 17.1 -6 25 c -3.07 8.52 -7.17 17.19 -12 25 c -8.12 13.12 -17.56 25.06 -27 38 c -2.59 3.56 -5.14 6.93 -8 10 c -1.75 1.87 -5.56 5.53 -6 5 c -0.62 -0.74 -0.06 -7.71 1 -11 c 2.11 -6.53 5.26 -14.07 9 -20 c 4 -6.33 9.57 -12.57 15 -18 c 4.45 -4.45 9.69 -8.98 15 -12 c 6.58 -3.73 14.97 -7.08 22 -9 c 3.26 -0.89 7.69 -0.55 11 0 c 2.29 0.38 5.19 1.61 7 3 c 2.19 1.68 4.91 4.55 6 7 c 1.32 2.97 1.63 7.33 2 11 c 0.3 2.95 0.32 6.09 0 9 c -0.33 2.98 -0.94 6.36 -2 9 c -0.83 2.07 -2.41 4.41 -4 6 c -2.21 2.21 -5.16 4.32 -8 6 c -4.45 2.63 -9.3 5.16 -14 7 c -2.77 1.08 -7.92 0.22 -9 2 c -2.53 4.16 -2.82 14.46 -5 21 c -1.04 3.12 -3.03 6.37 -5 9 c -1.89 2.53 -7.03 7.51 -7 7 c 0.08 -1.3 4.83 -16.16 8 -24 c 2.52 -6.23 8.47 -18.32 9 -18 c 0.56 0.34 -2.14 14.04 -4 21 c -3.2 11.94 -6.65 26.29 -11 35 c -1.22 2.44 -8.8 5.81 -9 5 c -0.35 -1.41 3.22 -12.48 6 -17 c 2.08 -3.37 6.51 -6.48 10 -9 c 2.32 -1.68 5.33 -3.26 8 -4 c 3 -0.83 7.22 -1.37 10 -1 c 1.61 0.21 3.89 1.75 5 3 c 1.28 1.44 2.32 3.95 3 6 c 0.94 2.82 2.13 6.25 2 9 c -0.18 3.69 -1.59 8.29 -3 12 c -1.18 3.09 -2.91 6.63 -5 9 c -2.6 2.94 -6.48 5.65 -10 8 c -3.45 2.3 -7.21 4.42 -11 6 c -4.11 1.71 -8.66 3.25 -13 4 c -5.11 0.88 -10.73 1.32 -16 1 c -10.94 -0.67 -22.2 -1.84 -33 -4 c -9.15 -1.83 -18.31 -4.67 -27 -8 c -6.9 -2.64 -19.23 -8.67 -20 -10 c -0.46 -0.78 8.69 -1.88 13 -2 c 7.55 -0.21 15.26 0.12 23 1 c 15.97 1.83 30.9 4.11 47 7 c 20.39 3.66 39.77 9.36 59 12 l 21 -1"/></svg>