<?xml version="1.0" encoding="UTF-8" standalone="no"?><!DOCTYPE svg PUBLIC "-//W3C//DTD SVG 1.1//EN" "http://www.w3.org/Graphics/SVG/1.1/DTD/svg11.dtd"><svg xmlns="http://www.w3.org/2000/svg" version="1.1" width="369" height="231"><path fill="none" stroke="#000000" stroke-width="2" stroke-linecap="round" stroke-linejoin="round" d="M 1 40 c 0.35 -0.16 13.18 -6.47 20 -9 c 4.83 -1.79 10.09 -3.15 15 -4 c 2.53 -0.44 5.39 -0.29 8 0 c 3.32 0.37 7.01 1.08 10 2 c 1.06 0.32 2.43 1.14 3 2 c 1.21 1.81 3 4.9 3 7 c 0 3.14 -1.3 7.96 -3 11 c -2.66 4.75 -7.16 9.68 -11 14 c -1.38 1.55 -4.12 2.53 -5 4 c -0.84 1.4 -1 4.08 -1 6 c 0 2.23 1.11 4.76 1 7 c -0.21 4.17 -0.83 9.11 -2 13 c -0.72 2.39 -2.39 6.25 -4 7 c -1.81 0.84 -6.77 0.11 -9 -1 c -2.43 -1.22 -5.21 -4.46 -7 -7 c -2.03 -2.87 -4.12 -6.6 -5 -10 c -1.67 -6.45 -2.49 -14.4 -3 -21 c -0.12 -1.59 0.98 -5.15 1 -5 c 0.11 0.81 2.06 17.82 2 27 c -0.28 41.03 -1.74 81.63 -3 121 c -0.04 1.34 -1 4.09 -1 4 c 0 -0.38 0.41 -11.84 1 -18 c 1.12 -11.69 2.17 -22.49 4 -34 c 1.58 -9.95 3.71 -19.14 6 -29 c 1.13 -4.85 2.36 -9.39 4 -14 c 1.72 -4.82 3.87 -9.15 6 -14 c 1.69 -3.84 3.07 -7.45 5 -11 c 2.09 -3.83 4.31 -7.61 7 -11 c 4.97 -6.27 10.4 -12.16 16 -18 c 2.47 -2.58 5.11 -5.03 8 -7 c 5.37 -3.65 11.18 -7.51 17 -10 c 5.51 -2.36 11.83 -3.63 18 -5 c 6.02 -1.34 11.87 -2.32 18 -3 l 18 -1"/><path fill="none" stroke="#000000" stroke-width="2" stroke-linecap="round" stroke-linejoin="round" d="M 86 63 c -0.17 0.32 -6.78 11.81 -10 18 c -1.19 2.29 -2.25 4.61 -3 7 c -0.91 2.9 -2.45 9.35 -2 9 c 2.02 -1.57 19 -20.5 29 -30 c 3.26 -3.1 7.52 -6.45 11 -8 c 1.79 -0.8 5.05 -0.39 7 0 c 1.01 0.2 2.2 1.2 3 2 c 1.1 1.1 2.5 2.62 3 4 c 0.71 1.95 1 4.72 1 7 c 0 3.25 -0.14 7.08 -1 10 c -0.69 2.35 -2.52 5.1 -4 7 c -0.66 0.85 -2.13 2 -3 2 c -1.3 0 -4.03 -2.36 -5 -2 c -1.05 0.39 -3.46 4.63 -3 5 c 0.64 0.51 6.17 0.18 8 -1 c 3.06 -1.98 7 -6.43 9 -10 c 2.35 -4.2 3.96 -9.95 5 -15 c 1.26 -6.1 1.83 -12.65 2 -19 c 0.17 -6.32 -0.41 -12.56 -1 -19 c -0.44 -4.79 -1.04 -9.34 -2 -14 c -1.06 -5.12 -2.4 -13.93 -4 -15 c -1.1 -0.73 -6.1 4.32 -8 7 c -3.44 4.86 -6.81 11.16 -9 17 c -2.71 7.22 -4.53 15.08 -6 23 c -3.62 19.55 -5.63 38.02 -9 58 c -1.46 8.68 -3.6 16.32 -5 25 c -5.5 34.08 -15 99 -15 99"/><path fill="none" stroke="#000000" stroke-width="2" stroke-linecap="round" stroke-linejoin="round" d="M 83 135 c -0.35 0.51 -12.86 20.29 -20 29 c -3.17 3.86 -12 10 -12 10"/><path fill="none" stroke="#000000" stroke-width="2" stroke-linecap="round" stroke-linejoin="round" d="M 109 138 c 0.21 0.11 8.84 3.44 12 6 c 3.35 2.71 6.17 7.16 9 11 c 1.88 2.55 5 8 5 8"/><path fill="none" stroke="#000000" stroke-width="2" stroke-linecap="round" stroke-linejoin="round" d="M 95 79 c 0.14 -0.04 5.35 -1.75 8 -2 c 4.18 -0.4 13 0 13 0"/><path fill="none" stroke="#000000" stroke-width="2" stroke-linecap="round" stroke-linejoin="round" d="M 73 104 c 0.07 -0.03 2.61 -1.58 4 -2 c 5.14 -1.54 10.51 -2.96 16 -4 c 7.06 -1.33 21 -3 21 -3"/><path fill="none" stroke="#000000" stroke-width="2" stroke-linecap="round" stroke-linejoin="round" d="M 201 7 c -0.16 0.52 -5.52 19.89 -9 30 c -3.69 10.73 -7.39 20.7 -12 31 c -5.58 12.47 -11.54 24.32 -18 36 c -2.18 3.95 -6.92 10.64 -8 11 c -0.64 0.21 -1.46 -5.62 -1 -8 c 1.08 -5.6 3.53 -12.45 6 -18 c 1.41 -3.17 3.9 -6.44 6 -9 c 0.7 -0.85 1.94 -1.65 3 -2 c 2.7 -0.9 6.28 -2.34 9 -2 c 7.01 0.88 15.43 3.54 23 6 c 5.86 1.9 17 7 17 7"/><path fill="none" stroke="#000000" stroke-width="2" stroke-linecap="round" stroke-linejoin="round" d="M 164 117 c 0.07 -0.03 2.64 -1.59 4 -2 c 1.85 -0.55 3.99 -0.87 6 -1 c 3.31 -0.21 6.78 -0.23 10 0 c 1.33 0.09 3.75 0.26 4 1 c 0.48 1.44 -0.1 5.61 -1 8 c -3.56 9.42 -10.47 21.42 -13 29 c -0.36 1.07 1.09 3.22 2 4 c 1.1 0.94 3.42 1.88 5 2 c 2.36 0.18 5.66 -0.18 8 -1 c 2.98 -1.05 9 -5 9 -5"/><path fill="none" stroke="#000000" stroke-width="2" stroke-linecap="round" stroke-linejoin="round" d="M 185 113 c 0.05 0.86 1.68 32.31 3 49 c 0.38 4.81 1.59 9.22 2 14 c 0.61 7.11 1 14.14 1 21 c 0 1.98 -1 6 -1 6"/><path fill="none" stroke="#000000" stroke-width="2" stroke-linecap="round" stroke-linejoin="round" d="M 162 179 l -13 13"/><path fill="none" stroke="#000000" stroke-width="2" stroke-linecap="round" stroke-linejoin="round" d="M 204 182 l 1 1"/><path fill="none" stroke="#000000" stroke-width="2" stroke-linecap="round" stroke-linejoin="round" d="M 221 121 c 0.32 -0.21 12.19 -8.57 18 -12 c 1.11 -0.65 3.26 -1.54 4 -1 c 2.04 1.48 6.08 5.99 7 9 c 1.13 3.7 0.75 9.67 0 14 c -0.84 4.89 -2.77 10.53 -5 15 c -1.92 3.84 -5.12 7.51 -8 11 c -1.79 2.18 -3.88 4.07 -6 6 c -1.6 1.45 -3.36 3.65 -5 4 c -2.32 0.5 -7.19 0.36 -9 -1 c -2.61 -1.96 -5.76 -7.47 -7 -11 c -0.85 -2.44 -0.61 -6.39 0 -9 c 0.61 -2.6 2.36 -7.24 4 -8 c 1.69 -0.78 6.48 0.81 9 2 c 2.74 1.29 5.98 3.6 8 6 c 4.64 5.53 9.58 12.28 13 19 c 6.12 12.04 10.52 25.88 16 38 l 3 4"/><path fill="none" stroke="#000000" stroke-width="2" stroke-linecap="round" stroke-linejoin="round" d="M 302 53 c -0.09 0.28 -2.74 10.98 -5 16 c -3.68 8.18 -8.26 16.33 -13 24 c -2.22 3.6 -8 10 -8 10"/><path fill="none" stroke="#000000" stroke-width="2" stroke-linecap="round" stroke-linejoin="round" d="M 310 66 c -0.19 0.51 -6.63 19.6 -11 29 c -4.67 10.04 -10.26 19.29 -16 29 c -3.12 5.29 -10.13 12.85 -10 15 c 0.08 1.32 7.68 0.22 11 1 c 2.01 0.47 4.42 1.71 6 3 c 1.84 1.5 3.86 3.83 5 6 c 2.03 3.86 3.82 8.61 5 13 c 1.12 4.14 1.87 8.7 2 13 c 0.2 6.55 -1 20 -1 20"/><path fill="none" stroke="#000000" stroke-width="2" stroke-linecap="round" stroke-linejoin="round" d="M 305 109 c 0.12 -0.16 4.38 -6.38 7 -9 c 3.27 -3.27 7.55 -7.62 11 -9 c 2.2 -0.88 6.48 0.23 9 1 c 1.39 0.43 2.96 1.83 4 3 c 1.5 1.68 2.88 3.89 4 6 c 1.53 2.88 2.98 5.94 4 9 c 0.96 2.87 1.69 6.01 2 9 c 0.34 3.24 0.3 6.7 0 10 c -0.37 4.02 -2 12 -2 12"/><path fill="none" stroke="#000000" stroke-width="2" stroke-linecap="round" stroke-linejoin="round" d="M 311 123 c 0.05 -0.05 2.07 -2.88 3 -3 c 1.18 -0.15 3.9 0.9 5 2 c 3.07 3.07 5.87 8.39 9 12 c 1.04 1.2 2.63 2.39 4 3 c 1.4 0.62 3.36 1 5 1 c 5.15 0 11.09 0.05 16 -1 c 3.98 -0.85 8.48 -3.13 12 -5 l 3 -3"/><path fill="none" stroke="#000000" stroke-width="2" stroke-linecap="round" stroke-linejoin="round" d="M 340 27 c -0.02 0.33 -1.48 12.72 -1 19 c 1.52 19.95 5.23 39.72 7 60 c 0.59 6.72 0.16 13.1 0 20 c -0.18 7.59 -0.07 14.68 -1 22 c -1.42 11.15 -4.24 21.57 -6 33 c -2.38 15.47 -6 45 -6 45"/><path fill="none" stroke="#000000" stroke-width="2" stroke-linecap="round" stroke-linejoin="round" d="M 321 114 l 27 -6"/><path fill="none" stroke="#000000" stroke-width="2" stroke-linecap="round" stroke-linejoin="round" d="M 314 190 c 0.21 -0.1 7.8 -4.19 12 -6 c 8.42 -3.64 16.59 -7.4 25 -10 c 5.39 -1.67 17 -3 17 -3"/><path fill="none" stroke="#000000" stroke-width="2" stroke-linecap="round" stroke-linejoin="round" d="M 274 202 c 0.96 -0.1 36.78 -3.51 55 -6 c 3.76 -0.51 11 -3 11 -3"/></svg>