<?xml version="1.0" encoding="UTF-8" standalone="no"?><!DOCTYPE svg PUBLIC "-//W3C//DTD SVG 1.1//EN" "http://www.w3.org/Graphics/SVG/1.1/DTD/svg11.dtd"><svg xmlns="http://www.w3.org/2000/svg" version="1.1" width="267" height="193"><path fill="none" stroke="#000000" stroke-width="2" stroke-linecap="round" stroke-linejoin="round" d="M 59 1 c 0.04 0.47 1.76 18.05 2 27 c 0.09 3.32 -0.14 7.08 -1 10 c -0.69 2.35 -4 7 -4 7"/><path fill="none" stroke="#000000" stroke-width="2" stroke-linecap="round" stroke-linejoin="round" d="M 10 40 c 0 0.4 -0.26 15.32 0 23 c 0.08 2.36 0.39 4.97 1 7 c 0.31 1.04 1.24 2.78 2 3 c 1.07 0.31 3.77 -0.11 5 -1 c 14.09 -10.22 30.2 -24.34 46 -36 c 4.73 -3.49 9.79 -6.69 15 -9 c 6.59 -2.93 19.56 -7.21 21 -7 c 0.74 0.11 -4.18 6.72 -7 9 c -12.24 9.89 -26.5 18.69 -40 29 c -11.27 8.61 -21.9 16.68 -32 26 c -7.28 6.72 -16.81 17.12 -20 22 c -0.54 0.82 1.77 3.34 3 4 c 2.57 1.38 6.93 1.62 10 3 c 3.43 1.54 7.39 3.52 10 6 c 3.67 3.48 7.42 8.41 10 13 c 3.25 5.77 5.9 12.53 8 19 c 1.88 5.79 2.94 11.82 4 18 c 1.33 7.78 2.95 22.6 3 23 c 0.02 0.14 -1.08 -5.34 -1 -8 c 0.58 -18.84 1.51 -37.65 3 -57 c 0.55 -7.19 1.57 -14.03 3 -21 c 1.26 -6.14 2.84 -12.25 5 -18 c 1.81 -4.81 4.3 -9.75 7 -14 c 1.84 -2.88 4.5 -5.5 7 -8 c 1.84 -1.84 3.99 -3.79 6 -5 c 1.06 -0.64 3.41 -1.59 4 -1 c 1.8 1.8 4.99 7.45 6 11 c 0.81 2.83 0.47 6.86 0 10 c -0.49 3.28 -1.72 6.79 -3 10 c -1.37 3.43 -5 8.62 -5 10 c 0 0.62 3.39 -0.23 5 0 c 2.97 0.42 6.56 0.78 9 2 c 2.44 1.22 5.35 3.72 7 6 c 2.4 3.32 4.4 7.9 6 12 c 1.36 3.48 2.55 7.38 3 11 c 0.52 4.13 0.46 9.33 0 13 c -0.13 1.02 -1.13 2.44 -2 3 c -2.39 1.52 -6.16 3.55 -9 4 c -2.9 0.46 -7.51 0.17 -10 -1 c -2.45 -1.15 -4.95 -4.48 -7 -7 c -2.24 -2.75 -5.12 -6.05 -6 -9 c -0.9 -3 -0.78 -7.87 0 -11 c 0.73 -2.93 2.99 -6.65 5 -9 c 1.68 -1.96 4.69 -4.28 7 -5 c 2.41 -0.75 6.53 -0.66 9 0 c 1.98 0.53 4.88 2.32 6 4 c 1.81 2.72 3.61 7.34 4 11 c 1.2 11.25 0.42 24.09 1 36 c 0.08 1.69 0.23 3.85 1 5 c 0.97 1.45 3.28 3.62 5 4 c 3.49 0.78 8.95 0.7 13 0 c 5.22 -0.9 11.06 -2.63 16 -5 c 10.82 -5.18 22.47 -11.82 32 -18 c 2.03 -1.32 3.88 -3.91 5 -6 l 2 -7"/><path fill="none" stroke="#000000" stroke-width="2" stroke-linecap="round" stroke-linejoin="round" d="M 140 119 c -0.07 -0.02 -3.41 -0.29 -4 -1 c -0.73 -0.88 -1 -5 -1 -5"/><path fill="none" stroke="#000000" stroke-width="2" stroke-linecap="round" stroke-linejoin="round" d="M 171 27 c -0.28 1.02 -11.33 38.22 -16 58 c -2.44 10.32 -4.31 21.17 -5 31 c -0.27 3.81 0.52 8.75 2 12 c 1.55 3.42 4.97 7.4 8 10 c 3.61 3.1 8.39 5.99 13 8 c 15.89 6.92 32.23 12.88 49 19 c 4.65 1.7 9.21 3.01 14 4 c 6.65 1.37 13.59 2.53 20 3 c 2.24 0.17 5.17 -0.27 7 -1 l 3 -3"/><path fill="none" stroke="#000000" stroke-width="2" stroke-linecap="round" stroke-linejoin="round" d="M 208 56 c 0.02 0.3 1.51 11.54 1 17 c -0.79 8.5 -3.05 17.25 -5 26 c -0.77 3.45 -3.68 8.36 -3 10 c 0.54 1.29 5.29 1.59 8 2 c 3.95 0.59 8.11 0.22 12 1 c 6.03 1.21 15.05 3.26 18 5 c 0.81 0.47 -0.02 4.23 -1 5 c -2.76 2.17 -8.5 4.23 -13 6 c -4.97 1.95 -10 3.8 -15 5 c -3.18 0.76 -7.26 1.21 -10 1 l -3 -2"/></svg>