<?xml version="1.0" encoding="UTF-8" standalone="no"?><!DOCTYPE svg PUBLIC "-//W3C//DTD SVG 1.1//EN" "http://www.w3.org/Graphics/SVG/1.1/DTD/svg11.dtd"><svg xmlns="http://www.w3.org/2000/svg" version="1.1" width="78" height="111"><path fill="none" stroke="#000000" stroke-width="2" stroke-linecap="round" stroke-linejoin="round" d="M 1 9 c 0.39 -0.12 14.71 -5.61 22 -7 c 6.32 -1.2 13.96 -1.84 20 -1 c 5.15 0.72 11.6 3.29 16 6 c 3.64 2.24 7.77 6.33 10 10 c 3.05 5.02 5.81 12.06 7 18 c 1.36 6.78 1.65 15.01 1 22 c -0.64 6.85 -2.8 14.22 -5 21 c -1.78 5.48 -4.34 10.88 -7 16 c -1.65 3.17 -3.84 6.19 -6 9 c -1.13 1.47 -2.56 2.88 -4 4 l -5 3"/></svg>