<?xml version="1.0" encoding="UTF-8" standalone="no"?><!DOCTYPE svg PUBLIC "-//W3C//DTD SVG 1.1//EN" "http://www.w3.org/Graphics/SVG/1.1/DTD/svg11.dtd"><svg xmlns="http://www.w3.org/2000/svg" version="1.1" width="178" height="175"><path fill="none" stroke="#000000" stroke-width="2" stroke-linecap="round" stroke-linejoin="round" d="M 27 19 c 0.63 0.03 23.61 1.64 36 2 c 11 0.32 21.06 -0.36 32 0 c 9.6 0.32 19.86 0.95 28 2 c 1.05 0.13 2.6 1.13 3 2 c 1.01 2.22 2.3 6.29 2 9 c -0.61 5.49 -2.36 12.86 -5 18 c -3.34 6.5 -8.89 12.93 -14 19 c -5.67 6.73 -11.58 12.93 -18 19 c -6.09 5.76 -12.35 10.96 -19 16 c -4.45 3.37 -9.08 6.41 -14 9 c -7.81 4.11 -16.19 8.07 -24 11 c -2.39 0.89 -5.49 1.23 -8 1 c -4.46 -0.41 -9.77 -1.76 -14 -3 c -1.07 -0.31 -2.32 -1.13 -3 -2 c -2.73 -3.47 -6.41 -8.22 -8 -12 c -0.77 -1.84 -0.16 -4.65 0 -7 c 0.18 -2.7 0.2 -5.61 1 -8 c 1.1 -3.31 2.99 -6.92 5 -10 c 2.94 -4.51 6.25 -9.25 10 -13 c 4.39 -4.39 9.71 -8.15 15 -12 c 5.95 -4.33 11.72 -8.62 18 -12 c 6.63 -3.57 13.73 -6.23 21 -9 c 7.05 -2.69 13.79 -4.97 21 -7 c 6.01 -1.69 11.86 -3.22 18 -4 c 15.04 -1.91 29.76 -2.18 45 -4 c 7.55 -0.9 20.77 -4 22 -4 c 0.35 0 -3.49 2.49 -5 4 c -4.17 4.17 -8.48 8.36 -12 13 c -3.75 4.95 -6.88 10.41 -10 16 c -3.33 5.96 -6.62 11.71 -9 18 c -5.99 15.81 -9.87 32.15 -16 48 c -3.63 9.39 -7.93 18.67 -13 27 c -4.1 6.73 -9.49 14.03 -15 19 c -4.18 3.77 -10.97 7.11 -16 9 c -2.19 0.82 -5.51 0.47 -8 0 c -4.23 -0.81 -8.89 -2.36 -13 -4 c -2.44 -0.97 -5.11 -2.28 -7 -4 c -5.14 -4.67 -10.62 -10.34 -15 -16 c -3.49 -4.51 -6.22 -9.77 -9 -15 c -2.99 -5.62 -5.65 -11.12 -8 -17 c -2.37 -5.93 -4.09 -11.75 -6 -18 c -1.88 -6.15 -3.96 -11.9 -5 -18 c -1.62 -9.52 -3.36 -19.86 -3 -29 c 0.28 -7.07 2.86 -14.81 5 -22 c 1.53 -5.15 3.8 -10.11 6 -15 c 0.79 -1.77 1.74 -3.65 3 -5 l 11 -10"/></svg>