<?xml version="1.0" encoding="UTF-8" standalone="no"?><!DOCTYPE svg PUBLIC "-//W3C//DTD SVG 1.1//EN" "http://www.w3.org/Graphics/SVG/1.1/DTD/svg11.dtd"><svg xmlns="http://www.w3.org/2000/svg" version="1.1" width="204" height="172"><path fill="none" stroke="#000000" stroke-width="2" stroke-linecap="round" stroke-linejoin="round" d="M 1 1 c 0 0.47 -0.45 18.02 0 27 c 0.22 4.37 0.93 9.79 2 13 c 0.29 0.88 1.96 1.65 3 2 c 1.75 0.58 4.23 1.43 6 1 c 14.58 -3.51 37.98 -12.23 48 -14 c 1.17 -0.21 3.43 3.72 3 5 c -1.61 4.82 -6.56 13.26 -11 19 c -14.79 19.12 -44.52 52.63 -47 56 c -0.29 0.39 5.42 -1.78 8 -3 c 3.79 -1.79 7.5 -3.66 11 -6 c 8.62 -5.74 16.71 -11.55 25 -18 c 7.07 -5.5 13.36 -11 20 -17 c 3.94 -3.56 7.53 -7.26 11 -11 c 0.8 -0.87 1.61 -1.97 2 -3 c 0.55 -1.46 1.33 -3.59 1 -5 c -0.85 -3.59 -3.04 -8.08 -5 -12 c -2.77 -5.53 -5.75 -10.64 -9 -16 c -2.56 -4.21 -5.38 -9.16 -8 -12 c -0.75 -0.81 -3.86 -1.64 -4 -1 c -1.12 4.96 -2.48 21.03 -3 32 c -0.85 17.75 -1 33.99 -1 52 c 0 24.94 1.55 50.16 1 72 c -0.06 2.31 -1.62 5.62 -3 7 c -1.14 1.14 -4.3 2.13 -6 2 c -2.04 -0.16 -5.71 -1.47 -7 -3 c -1.83 -2.16 -3.72 -6.9 -4 -10 c -0.32 -3.5 0.84 -8.24 2 -12 c 1.45 -4.71 3.29 -9.89 6 -14 c 8.02 -12.15 17.12 -24.57 27 -36 c 11.65 -13.47 24.07 -25.31 37 -38 c 5.53 -5.42 11.01 -10.1 17 -15 c 5.28 -4.32 10.45 -8.43 16 -12 c 3.72 -2.39 8.05 -4.54 12 -6 c 2.08 -0.77 4.83 -1 7 -1 c 1.27 0 3.41 0.29 4 1 c 0.73 0.88 1.18 3.48 1 5 c -0.43 3.69 -1.55 8.24 -3 12 c -1.83 4.76 -4.16 9.89 -7 14 c -2.96 4.27 -7.09 8.09 -11 12 c -3.23 3.23 -6.45 6.25 -10 9 c -3.81 2.94 -7.91 5.86 -12 8 c -2.69 1.41 -6.07 2.45 -9 3 c -2.16 0.41 -5.4 0.64 -7 0 c -1.15 -0.46 -3.1 -2.9 -3 -4 c 0.16 -1.77 2.42 -4.89 4 -7 c 2.36 -3.15 4.98 -6.74 8 -9 c 4.6 -3.45 10.54 -6.55 16 -9 c 4.05 -1.81 8.76 -3.26 13 -4 c 3.12 -0.54 7.05 -0.42 10 0 c 1.32 0.19 3.22 1.09 4 2 c 0.94 1.1 1.79 3.36 2 5 c 0.42 3.36 0.82 7.73 0 11 c -1.37 5.47 -4.3 11.43 -7 17 c -2.69 5.56 -5.62 10.72 -9 16 c -9.95 15.56 -23.75 34.07 -30 45 c -0.52 0.9 1.15 4.08 2 4 c 3.6 -0.36 12.05 -3.65 18 -6 c 5.19 -2.05 10.03 -4.34 15 -7 c 9.69 -5.18 18.97 -10.11 28 -16 c 6.38 -4.16 13.08 -9.08 18 -14 c 2.22 -2.22 4.31 -6.23 5 -9 c 0.48 -1.9 -1.45 -7 -1 -7 c 0.58 0 4.88 4.76 6 7 l 0 5"/><path fill="none" stroke="#000000" stroke-width="2" stroke-linecap="round" stroke-linejoin="round" d="M 85 112 l 4 2"/></svg>