<?xml version="1.0" encoding="UTF-8" standalone="no"?><!DOCTYPE svg PUBLIC "-//W3C//DTD SVG 1.1//EN" "http://www.w3.org/Graphics/SVG/1.1/DTD/svg11.dtd"><svg xmlns="http://www.w3.org/2000/svg" version="1.1" width="242" height="197"><path fill="none" stroke="#000000" stroke-width="2" stroke-linecap="round" stroke-linejoin="round" d="M 1 94 c 0.51 -1.29 20.06 -49.48 29 -74 c 1.26 -3.45 1.57 -7.34 2 -11 c 0.23 -1.97 -0.06 -6.19 0 -6 c 1.24 3.88 24.97 79.93 36 119 c 1.07 3.78 2.14 8.62 1 12 c -6.38 18.89 -25.93 59.65 -26 62 c -0.04 1.34 17.76 -18.68 25 -29 c 8.3 -11.83 14.85 -24.85 22 -38 c 3.42 -6.29 6.44 -12.4 9 -19 c 3.85 -9.92 7.41 -20.41 10 -30 c 0.57 -2.12 0.32 -7.22 0 -7 c -0.58 0.39 -3.58 7.63 -6 11 c -6.88 9.59 -14.3 18.51 -22 28 c -2.6 3.21 -5.16 6.37 -8 9 c -1.7 1.58 -3.99 2.99 -6 4 c -1.15 0.57 -4.09 1 -4 1 c 0.38 0 11.86 -1 18 -1 c 12.27 0 24.74 -0.35 36 1 c 4.65 0.56 9.65 2.83 14 5 c 6.17 3.09 12.32 7.21 18 11 c 1.14 0.76 3.05 3.1 3 3 c -0.21 -0.43 -7.44 -9.92 -9 -15 c -2.16 -7.02 -1.62 -15.94 -3 -24 c -0.99 -5.82 -3.35 -11.3 -4 -17 c -1 -8.82 -1 -17.93 -1 -27 c 0 -3.71 0.01 -7.86 1 -11 c 0.85 -2.68 3.11 -5.92 5 -8 c 1.17 -1.28 3.37 -2.56 5 -3 c 1.68 -0.46 5.14 -0.95 6 0 c 1.68 1.85 3.35 7.42 4 11 c 0.61 3.37 -0.27 11.37 0 11 c 0.62 -0.82 5.44 -15.55 9 -23 c 3.81 -7.97 8.17 -16.07 13 -23 c 2.59 -3.71 6.51 -6.95 10 -10 c 1.78 -1.56 3.99 -2.99 6 -4 c 1.15 -0.57 3 -1.25 4 -1 c 1.22 0.3 3.72 1.8 4 3 c 0.79 3.36 0.75 9.6 0 14 c -1.18 6.87 -3.3 14.24 -6 21 c -5.99 14.96 -14.85 29.1 -20 44 c -4.03 11.67 -4.72 24.77 -8 37 c -1.75 6.54 -6.75 16.71 -7 19 c -0.06 0.58 3.7 -0.19 5 -1 c 6.03 -3.77 12.28 -9.61 19 -14 c 10.98 -7.18 21.88 -13.94 33 -20 c 3.37 -1.84 7.5 -3.54 11 -4 c 3.6 -0.47 10.3 -0.42 12 1 c 1.27 1.06 0.57 6.17 0 9 c -1.69 8.47 -4.9 17.12 -7 26 c -0.95 4.01 -0.98 8.06 -2 12 l -6 19"/></svg>