<?xml version="1.0" encoding="UTF-8" standalone="no"?><!DOCTYPE svg PUBLIC "-//W3C//DTD SVG 1.1//EN" "http://www.w3.org/Graphics/SVG/1.1/DTD/svg11.dtd"><svg xmlns="http://www.w3.org/2000/svg" version="1.1" width="371" height="84"><path fill="none" stroke="#000000" stroke-width="2" stroke-linecap="round" stroke-linejoin="round" d="M 30 1 c 0.09 0.12 2.98 5.12 5 7 c 7.35 6.84 15.57 13.95 24 20 c 6.89 4.95 14.4 9.85 22 13 c 9.6 3.99 20.71 8.51 31 9 c 57.38 2.72 118.11 1.28 180 1 c 13.77 -0.06 26.62 -0.71 40 -2 c 7.47 -0.72 14.49 -2.45 22 -4 c 4.15 -0.85 8.16 -1.8 12 -3 c 1.39 -0.43 4.31 -1.74 4 -2 c -0.8 -0.69 -7.24 -3.14 -11 -4 c -7.82 -1.79 -15.74 -3.09 -24 -4 c -22.84 -2.51 -44.14 -5.31 -67 -6 c -44.53 -1.35 -85.85 -0.3 -131 0 c -7.25 0.05 -14.38 -0.1 -21 1 c -4.98 0.83 -10.52 2.86 -15 5 c -2.83 1.36 -5.61 3.74 -8 6 c -3.55 3.36 -6.51 7.51 -10 11 c -1.5 1.5 -3.2 2.82 -5 4 c -5.94 3.87 -11.69 8.19 -18 11 c -11.45 5.09 -23.62 9.01 -36 13 c -7.69 2.48 -23 6 -23 6"/></svg>