<?xml version="1.0" encoding="UTF-8" standalone="no"?><!DOCTYPE svg PUBLIC "-//W3C//DTD SVG 1.1//EN" "http://www.w3.org/Graphics/SVG/1.1/DTD/svg11.dtd"><svg xmlns="http://www.w3.org/2000/svg" version="1.1" width="161" height="202"><path fill="none" stroke="#000000" stroke-width="2" stroke-linecap="round" stroke-linejoin="round" d="M 12 29 c 0.09 0 3.5 0.42 5 0 c 6.38 -1.79 13.75 -3.94 20 -7 c 9.92 -4.86 19.28 -11.88 29 -17 c 2.74 -1.44 5.97 -2.29 9 -3 c 2.57 -0.61 5.51 -1.16 8 -1 c 2.54 0.16 6.04 0.79 8 2 c 1.86 1.14 4.37 3.9 5 6 c 1.13 3.77 1.4 9.85 1 14 c -0.21 2.25 -1.85 4.7 -3 7 c -1.22 2.43 -2.28 5.28 -4 7 c -2.6 2.6 -6.61 5.61 -10 7 c -3.38 1.38 -8.36 2.17 -12 2 c -3.12 -0.14 -8.53 -1.26 -10 -3 c -1.42 -1.68 -1.41 -6.98 -1 -10 c 0.52 -3.8 4.29 -12.34 4 -12 c -1.49 1.74 -25.95 34.51 -39 53 c -7.59 10.76 -20.89 29.22 -21 32 c -0.06 1.54 13.97 -3.68 20 -7 c 16.49 -9.08 32.11 -21.35 49 -31 c 8.99 -5.14 18.59 -9.74 28 -13 c 6.51 -2.26 13.99 -3.47 21 -4 c 10.5 -0.79 21.31 0.27 32 0 c 2.36 -0.06 5.63 -0.09 7 -1 c 1.04 -0.7 2 -3.57 2 -5 c 0 -1.43 -1.06 -3.6 -2 -5 c -1.6 -2.4 -3.91 -5.12 -6 -7 c -1.02 -0.91 -2.64 -1.59 -4 -2 c -1.85 -0.55 -4.04 -1 -6 -1 c -3.55 0 -7.58 0.14 -11 1 c -4.31 1.08 -9.07 2.87 -13 5 c -3.84 2.08 -7.54 5.09 -11 8 c -2.88 2.42 -5.95 5.06 -8 8 c -3.08 4.43 -5.79 10.08 -8 15 c -0.66 1.48 -1 3.47 -1 5 c 0 1.24 0.4 2.91 1 4 c 0.94 1.69 2.53 3.53 4 5 c 1.47 1.47 3.22 2.9 5 4 c 2.49 1.53 5.28 3.04 8 4 c 2.81 0.99 6.02 1.65 9 2 c 2.59 0.3 5.41 0.35 8 0 c 4.63 -0.63 9.59 -1.68 14 -3 c 2.07 -0.62 4.72 -1.6 6 -3 c 1.97 -2.15 4.04 -6.13 5 -9 c 0.56 -1.67 0.31 -4.14 0 -6 c -0.33 -1.96 -1.22 -4.04 -2 -6 c -0.56 -1.39 -1.16 -3 -2 -4 c -0.67 -0.81 -1.97 -1.56 -3 -2 c -1.18 -0.51 -2.79 -1.1 -4 -1 c -2.43 0.2 -5.95 0.77 -8 2 c -2.46 1.48 -4.92 4.47 -7 7 c -2.56 3.11 -5.27 6.44 -7 10 c -3.82 7.86 -7.01 16.49 -10 25 c -1.37 3.91 -2.22 7.93 -3 12 c -0.57 2.98 -0.38 6.08 -1 9 c -0.71 3.37 -1.81 6.91 -3 10 c -0.41 1.07 -1.19 2.19 -2 3 c -1.76 1.76 -3.94 4.12 -6 5 c -2.12 0.91 -5.37 1 -8 1 c -3.6 0 -7.61 -0.09 -11 -1 c -4.96 -1.33 -10.93 -3.48 -15 -6 c -2.32 -1.44 -5.52 -4.72 -6 -7 c -0.63 -3.01 0.45 -8.76 2 -12 c 2.1 -4.37 6.28 -9.28 10 -13 c 3.72 -3.72 8.49 -7.29 13 -10 c 3.58 -2.15 8.02 -4.15 12 -5 c 4.91 -1.05 11.02 -1.5 16 -1 c 4.52 0.45 9.86 2.1 14 4 c 3.47 1.59 6.74 4.47 10 7 c 2.84 2.21 5.79 4.45 8 7 c 1.96 2.26 3.77 5.24 5 8 c 1.36 3.06 2.26 6.59 3 10 c 0.93 4.3 2 8.75 2 13 c 0 7.46 -0.35 16.01 -2 23 c -1.19 5.01 -4.26 10.5 -7 15 c -1.76 2.89 -4.45 5.79 -7 8 c -2.26 1.96 -5.2 3.38 -8 5 c -3.72 2.16 -7.15 4.19 -11 6 l -21 9"/></svg>