<?xml version="1.0" encoding="UTF-8" standalone="no"?><!DOCTYPE svg PUBLIC "-//W3C//DTD SVG 1.1//EN" "http://www.w3.org/Graphics/SVG/1.1/DTD/svg11.dtd"><svg xmlns="http://www.w3.org/2000/svg" version="1.1" width="208" height="170"><path fill="none" stroke="#000000" stroke-width="2" stroke-linecap="round" stroke-linejoin="round" d="M 1 102 c 0.12 -0.14 4.42 -5.5 7 -8 c 8.25 -7.99 16.08 -15.63 25 -23 c 14.59 -12.06 29.52 -22.21 44 -34 c 3.68 -3 6.45 -7.01 10 -10 c 2.71 -2.29 6.55 -3.72 9 -6 c 1.95 -1.81 4.85 -5.48 5 -7 l -4 -3"/><path fill="none" stroke="#000000" stroke-width="2" stroke-linecap="round" stroke-linejoin="round" d="M 60 1 c 0.14 0.77 5.65 28.93 8 44 c 1.06 6.77 1.79 13.19 2 20 c 0.47 14.9 -0.29 29.3 0 44 c 0.05 2.36 1 6.88 1 7 l -1 -4"/><path fill="none" stroke="#000000" stroke-width="2" stroke-linecap="round" stroke-linejoin="round" d="M 64 68 c -0.14 0.19 -6.08 7.16 -8 11 c -2.23 4.47 -2.93 10.07 -5 15 c -5.04 12 -10.2 23.06 -16 35 c -6.27 12.9 -18.55 36.21 -19 37 c -0.08 0.14 2 -7 2 -7"/><path fill="none" stroke="#000000" stroke-width="2" stroke-linecap="round" stroke-linejoin="round" d="M 90 68 c 0.28 0.23 10.42 9.15 16 13 c 4 2.76 13 7 13 7"/><path fill="none" stroke="#000000" stroke-width="2" stroke-linecap="round" stroke-linejoin="round" d="M 66 129 c 0.21 -0.16 10.64 -9 12 -9 c 0.82 0 -0.23 6.25 -1 9 c -0.83 3 -4 7.23 -4 9 c 0 0.81 2.76 2 4 2 c 3.11 0 7.52 -1.8 11 -2 c 1.89 -0.11 4.74 0.21 6 1 c 0.93 0.58 2.09 2.75 2 4 c -0.49 6.79 -1.57 19.66 -4 24 c -1 1.79 -7.07 1.34 -10 1 l -7 -3"/><path fill="none" stroke="#000000" stroke-width="2" stroke-linecap="round" stroke-linejoin="round" d="M 62 159 c 0.31 -0.24 11.65 -9.39 18 -14 c 11.21 -8.13 33 -23 33 -23"/><path fill="none" stroke="#000000" stroke-width="2" stroke-linecap="round" stroke-linejoin="round" d="M 166 10 c -0.24 0.4 -9.93 15.03 -14 23 c -3.6 7.03 -5.67 14.87 -9 22 c -1.32 2.83 -4.93 7.85 -5 8 c -0.04 0.08 1.9 -2.9 3 -4 c 0.8 -0.8 2.27 -2.18 3 -2 c 1.3 0.33 4.25 2.4 5 4 c 1.56 3.33 1.62 8.85 3 13 c 1.25 3.76 4.18 10.53 5 11 l 2 -7"/><path fill="none" stroke="#000000" stroke-width="2" stroke-linecap="round" stroke-linejoin="round" d="M 173 29 c 0.04 0.19 1.63 7.33 2 11 c 0.3 2.95 -0.63 6.26 0 9 c 1.27 5.48 3.33 12.62 6 17 c 1.48 2.43 5.36 4.46 8 6 c 1.09 0.63 3 1.25 4 1 l 4 -3"/><path fill="none" stroke="#000000" stroke-width="2" stroke-linecap="round" stroke-linejoin="round" d="M 205 44 c -0.07 0.05 -2.97 1.78 -4 3 c -4.1 4.87 -8.03 10.38 -12 16 c -4.29 6.08 -8.2 11.73 -12 18 c -2.99 4.93 -4.89 10.34 -8 15 c -3.51 5.27 -12 15 -12 15"/><path fill="none" stroke="#000000" stroke-width="2" stroke-linecap="round" stroke-linejoin="round" d="M 138 135 c 0.25 -0.12 9.11 -5.25 14 -7 c 13.74 -4.91 27.75 -8.34 42 -13 c 3.49 -1.14 7.11 -2.44 10 -4 c 1.14 -0.61 3 -3 3 -3"/><path fill="none" stroke="#000000" stroke-width="2" stroke-linecap="round" stroke-linejoin="round" d="M 187 93 c 0 0.4 -0.43 15.2 0 23 c 0.59 10.9 1.4 21.37 3 32 c 1.08 7.14 5 21 5 21"/></svg>