<?xml version="1.0" encoding="UTF-8" standalone="no"?><!DOCTYPE svg PUBLIC "-//W3C//DTD SVG 1.1//EN" "http://www.w3.org/Graphics/SVG/1.1/DTD/svg11.dtd"><svg xmlns="http://www.w3.org/2000/svg" version="1.1" width="229" height="153"><path fill="none" stroke="#000000" stroke-width="2" stroke-linecap="round" stroke-linejoin="round" d="M 1 126 c 0.16 -0.26 5.66 -10.14 9 -15 c 4.09 -5.95 8.25 -11.41 13 -17 c 16.51 -19.43 45.11 -50.11 49 -56 c 0.63 -0.95 -8.27 0.53 -12 0 c -2.95 -0.42 -6.47 -1.73 -9 -3 c -1.13 -0.57 -3 -3.31 -3 -3 c 0 1.78 1.28 16.09 3 24 c 3.31 15.24 11.75 44.2 12 45 c 0.05 0.17 -0.17 -7 -1 -10 c -0.74 -2.67 -3.03 -7.88 -4 -8 c -0.88 -0.11 -2.89 4.52 -4 7 c -5.97 13.37 -16.84 39.26 -17 40 c -0.11 0.51 14 -26 14 -26"/><path fill="none" stroke="#000000" stroke-width="2" stroke-linecap="round" stroke-linejoin="round" d="M 72 63 c 0.03 0.09 0.99 3.71 2 5 c 2.4 3.05 5.79 6.1 9 9 c 3.94 3.56 7.73 7.01 12 10 c 5.77 4.04 18 11 18 11"/><path fill="none" stroke="#000000" stroke-width="2" stroke-linecap="round" stroke-linejoin="round" d="M 65 125 c 0.09 -0.09 3.2 -4.03 5 -5 c 2.1 -1.13 6.59 -2.56 8 -2 c 1.08 0.43 2.29 4.26 2 6 c -0.87 5.21 -6.82 15.68 -6 18 c 0.52 1.47 8.56 -1.52 12 -1 c 2.56 0.38 7.45 2.76 8 4 c 0.39 0.89 -2.5 3.95 -4 5 c -1.48 1.04 -4.04 1.67 -6 2 l -6 0"/><path fill="none" stroke="#000000" stroke-width="2" stroke-linecap="round" stroke-linejoin="round" d="M 68 138 c 0.44 -0.09 17.32 -2.95 25 -5 c 1.76 -0.47 3.31 -2.39 5 -3 c 1.76 -0.64 4.35 -0.24 6 -1 c 2.34 -1.08 7 -5 7 -5"/><path fill="none" stroke="#000000" stroke-width="2" stroke-linecap="round" stroke-linejoin="round" d="M 146 10 c -0.16 0.47 -5.36 18.28 -9 27 c -3.03 7.27 -10.78 20.65 -11 21 c -0.08 0.13 1.71 -5.58 3 -8 c 1.3 -2.44 3.55 -6.2 5 -7 c 0.75 -0.42 3.16 1.01 4 2 c 2.44 2.88 7 11 7 11"/><path fill="none" stroke="#000000" stroke-width="2" stroke-linecap="round" stroke-linejoin="round" d="M 172 1 c 0.02 0.35 0.17 13.37 1 20 c 0.84 6.75 2.16 14.03 4 20 c 0.65 2.11 2.31 4.84 4 6 c 3.05 2.1 8.08 4.35 12 5 c 5.43 0.91 12.35 0.73 18 0 c 4.27 -0.55 8.75 -2.5 13 -4 c 1.4 -0.49 3.55 -1.09 4 -2 c 0.61 -1.22 0.39 -4.18 0 -6 l -3 -8"/><path fill="none" stroke="#000000" stroke-width="2" stroke-linecap="round" stroke-linejoin="round" d="M 197 30 c 0.07 -0.16 4.09 -9.15 4 -9 c -0.23 0.37 -8.4 14.79 -12 22 c -0.59 1.19 -1 4 -1 4"/><path fill="none" stroke="#000000" stroke-width="2" stroke-linecap="round" stroke-linejoin="round" d="M 147 100 c 0.32 -0.17 12.2 -6.35 18 -10 c 3.21 -2.02 5.73 -5.33 9 -7 c 9.37 -4.8 30 -13 30 -13"/><path fill="none" stroke="#000000" stroke-width="2" stroke-linecap="round" stroke-linejoin="round" d="M 181 59 c 0 0.32 -0.44 11.91 0 18 c 1.26 17.33 5 51 5 51"/></svg>