<?xml version="1.0" encoding="UTF-8" standalone="no"?><!DOCTYPE svg PUBLIC "-//W3C//DTD SVG 1.1//EN" "http://www.w3.org/Graphics/SVG/1.1/DTD/svg11.dtd"><svg xmlns="http://www.w3.org/2000/svg" version="1.1" width="766" height="241"><path fill="none" stroke="#000000" stroke-width="2" stroke-linecap="round" stroke-linejoin="round" d="M 33 39 c 0.4 -0.3 25.08 -16.87 23 -17 c -29.3 -1.85 -377.97 -6.17 -403 -7 c -0.72 -0.02 7.79 -6.63 10 -6 c 3.09 0.88 11.31 8.81 11 12 c -0.45 4.62 -9.59 12.27 -14 19 c -8.55 13.05 -15.35 25.86 -24 39 c -9.22 14.01 -19.26 26.49 -28 40 c -2.16 3.34 -5 11 -5 11"/><path fill="none" stroke="#000000" stroke-width="2" stroke-linecap="round" stroke-linejoin="round" d="M 29 24 c 0.25 -0.14 9.21 -5.6 14 -8 c 2.54 -1.27 8.35 -2.99 8 -3 c -16.6 -0.25 -389.42 -2.6 -407 -3 c -0.7 -0.02 9.85 -4.22 15 -6 c 3.63 -1.26 11.27 -3.86 11 -3 c -0.81 2.54 -13.68 18.12 -19 28 c -8.65 16.07 -14.6 33.66 -23 50 c -3.64 7.08 -13 20 -13 20"/><path fill="none" stroke="#000000" stroke-width="2" stroke-linecap="round" stroke-linejoin="round" d="M 80 48 c 0.51 -0.28 18.94 -11.06 29 -16 c 8.58 -4.21 23.83 -10.53 26 -11 c 0.52 -0.11 -1.73 4.22 -3 6 c -3.65 5.1 -8.36 9.64 -12 15 c -8.53 12.55 -15.54 24.89 -24 38 c -5.43 8.42 -10.34 15.98 -16 24 c -2.51 3.56 -5.58 6.42 -8 10 c -6.03 8.92 -17 27 -17 27"/><path fill="none" stroke="#000000" stroke-width="2" stroke-linecap="round" stroke-linejoin="round" d="M 111 75 c -0.03 0.07 -1.84 2.65 -2 4 c -0.77 6.64 0.01 14.77 -1 22 c -1.32 9.4 -4.17 18.32 -6 28 c -1.62 8.56 -4 25 -4 25"/><path fill="none" stroke="#000000" stroke-width="2" stroke-linecap="round" stroke-linejoin="round" d="M 123 64 c 0.11 -0.16 4.99 -8.75 6 -9 c 0.68 -0.17 1.61 4.64 2 7 c 0.6 3.59 0.95 7.25 1 11 c 0.29 21.07 -0.56 41.45 0 62 c 0.11 4.03 2 12 2 12"/><path fill="none" stroke="#000000" stroke-width="2" stroke-linecap="round" stroke-linejoin="round" d="M 109 121 c -0.05 -0.09 -2.51 -3.38 -3 -5 c -0.42 -1.39 -0.3 -3.49 0 -5 c 0.32 -1.62 1.01 -3.76 2 -5 c 1.44 -1.8 3.88 -3.53 6 -5 c 2.19 -1.52 4.66 -3.16 7 -4 c 2.05 -0.73 4.65 -0.8 7 -1 c 1.67 -0.14 3.77 -0.46 5 0 c 1.04 0.39 2.71 1.93 3 3 c 0.55 2.03 0.28 5.37 0 8 c -0.39 3.67 -0.58 8.02 -2 11 c -1.62 3.41 -5.01 7.01 -8 10 c -5.3 5.3 -15.15 13.91 -17 15 c -0.41 0.24 -0.73 -4 0 -5 c 1.45 -2 7.79 -6.64 8 -6 c 0.34 1.01 -2.79 10.41 -5 15 c -2.33 4.83 -5.8 9.2 -9 14 c -3.73 5.6 -6.98 10.73 -11 16 c -6.92 9.08 -20.29 24.76 -21 26 c -0.22 0.38 6.21 -3 9 -5 c 10.24 -7.36 19.59 -15.69 30 -23 c 5.43 -3.81 11.11 -7.14 17 -10 c 5.77 -2.8 14.27 -6.64 18 -7 c 1.13 -0.11 3.15 3.54 3 5 c -0.39 3.72 -2.68 9.95 -5 14 c -2.77 4.85 -6.99 9.65 -11 14 l -13 12"/><path fill="none" stroke="#000000" stroke-width="2" stroke-linecap="round" stroke-linejoin="round" d="M 96 171 c 0.23 -0.07 8.86 -3.48 13 -4 c 3.36 -0.42 7.85 -0.24 11 1 c 8.68 3.43 18.4 8.62 27 14 c 10.12 6.33 29 21 29 21"/><path fill="none" stroke="#000000" stroke-width="2" stroke-linecap="round" stroke-linejoin="round" d="M 242 87 c 0.23 -0.24 8.19 -10.61 13 -14 c 5.85 -4.13 13.8 -6.94 21 -10 c 3.92 -1.66 7.96 -2.94 12 -4 c 2.26 -0.59 5.59 -1.47 7 -1 c 0.89 0.3 2.6 3.3 2 4 c -4.54 5.33 -16.13 15.77 -25 23 c -9.35 7.62 -26.5 18.39 -29 21 c -0.51 0.53 4.97 2.23 7 2 c 3.26 -0.36 7.34 -3.2 11 -4 c 3.77 -0.82 10.59 -2.41 12 -1 c 1.52 1.52 1.67 10.08 0 13 c -2.82 4.93 -10.33 10.14 -16 15 c -6.26 5.36 -12.3 10.09 -19 15 c -8.75 6.41 -17.26 12.44 -26 18 c -2.11 1.34 -7.13 3.1 -7 3 c 0.51 -0.4 16.28 -11.73 25 -17 c 7.48 -4.52 15.06 -8.55 23 -12 c 7.45 -3.24 15.04 -5.52 23 -8 c 7.45 -2.32 14.51 -4.47 22 -6 c 7.3 -1.49 22 -3 22 -3"/><path fill="none" stroke="#000000" stroke-width="2" stroke-linecap="round" stroke-linejoin="round" d="M 269 29 c 0.14 0.12 7.36 4.27 8 7 c 2.41 10.29 2.4 26.31 3 40 c 0.43 9.9 0.46 19.14 0 29 c -0.56 11.95 -1.5 23.04 -3 35 c -2.62 21 -6.94 40.35 -9 61 c -1.31 13.06 -1 39 -1 39"/><path fill="none" stroke="#000000" stroke-width="2" stroke-linecap="round" stroke-linejoin="round" d="M 319 50 c -0.02 0.26 -1 9.86 -1 15 c 0 43.06 1 126 1 126"/><path fill="none" stroke="#000000" stroke-width="2" stroke-linecap="round" stroke-linejoin="round" d="M 327 52 c 0.16 -0.12 5.93 -5.54 9 -7 c 2.75 -1.3 6.61 -1.64 10 -2 c 5.99 -0.64 13.71 -1.61 18 -1 c 1.19 0.17 2.74 2.63 3 4 c 0.62 3.28 0.82 8.43 0 12 c -1.04 4.53 -3.46 9.88 -6 14 c -2.6 4.23 -6.37 8.22 -10 12 c -4.11 4.28 -8.95 7.95 -13 12 c -0.82 0.82 -2.28 3.02 -2 3 c 1.14 -0.09 9.31 -3.13 14 -4 c 4.2 -0.78 9.23 -1.22 13 -1 c 1.29 0.08 3.65 1.05 4 2 c 0.7 1.92 0.66 6.36 0 9 c -0.89 3.55 -2.65 8.08 -5 11 c -5.5 6.83 -20 20 -20 20"/></svg>