<?xml version="1.0" encoding="UTF-8" standalone="no"?><!DOCTYPE svg PUBLIC "-//W3C//DTD SVG 1.1//EN" "http://www.w3.org/Graphics/SVG/1.1/DTD/svg11.dtd"><svg xmlns="http://www.w3.org/2000/svg" version="1.1" width="242" height="155"><path fill="none" stroke="#000000" stroke-width="2" stroke-linecap="round" stroke-linejoin="round" d="M 1 87 c 0.42 -0.35 15.88 -12.92 24 -20 c 8.1 -7.06 15.38 -13.57 23 -21 c 6.06 -5.91 11.62 -11.73 17 -18 c 2.65 -3.09 6.53 -8.12 7 -10 c 0.17 -0.69 -2.69 -1.76 -4 -2 c -2.05 -0.37 -4.95 0.37 -7 0 c -1.31 -0.24 -3.87 -2.54 -4 -2 c -0.54 2.28 -0.7 12.91 0 19 c 0.6 5.29 2.87 10.46 4 16 c 2.65 12.99 7 38 7 38"/><path fill="none" stroke="#000000" stroke-width="2" stroke-linecap="round" stroke-linejoin="round" d="M 56 59 c -0.09 0.35 -2.84 13.39 -5 20 c -3.58 10.96 -7.62 21.3 -12 32 c -1.72 4.2 -3.71 8.07 -6 12 c -4.84 8.3 -15 24 -15 24"/><path fill="none" stroke="#000000" stroke-width="2" stroke-linecap="round" stroke-linejoin="round" d="M 77 47 c 0.39 0.25 14.52 9.79 22 14 c 3.09 1.74 6.59 3.08 10 4 c 5.16 1.39 16 3 16 3"/><path fill="none" stroke="#000000" stroke-width="2" stroke-linecap="round" stroke-linejoin="round" d="M 67 108 c 0.19 -0.17 7.15 -6.96 11 -10 c 2.44 -1.93 8.18 -5.35 8 -5 c -0.54 1.07 -16.35 21.92 -17 23 c -0.13 0.22 3.28 -2.57 5 -3 c 4.47 -1.12 10.94 -2.39 15 -2 c 1.94 0.18 4.97 2.25 6 4 c 2.77 4.69 4.97 11.9 7 18 c 0.97 2.91 1.58 6.03 2 9 c 0.23 1.61 0.32 3.54 0 5 c -0.29 1.3 -1.01 3.46 -2 4 c -2.03 1.11 -5.94 1.56 -9 2 c -3.99 0.57 -12 1 -12 1"/><path fill="none" stroke="#000000" stroke-width="2" stroke-linecap="round" stroke-linejoin="round" d="M 67 136 c 0.31 -0.24 11.74 -9.62 18 -14 c 3.81 -2.67 12 -7 12 -7"/><path fill="none" stroke="#000000" stroke-width="2" stroke-linecap="round" stroke-linejoin="round" d="M 168 1 c -0.3 0.44 -10.91 16.95 -17 25 c -3.28 4.33 -7.68 7.76 -11 12 c -2.66 3.39 -4.34 7.61 -7 11 c -3.32 4.24 -11 12 -11 12"/><path fill="none" stroke="#000000" stroke-width="2" stroke-linecap="round" stroke-linejoin="round" d="M 147 36 c 0.02 0.42 0.44 16.16 1 24 c 0.1 1.35 1 4 1 4"/><path fill="none" stroke="#000000" stroke-width="2" stroke-linecap="round" stroke-linejoin="round" d="M 183 7 c -0.03 0.07 -1.7 2.63 -2 4 c -0.96 4.34 -1.78 9.54 -2 14 c -0.1 1.92 0.24 4.28 1 6 c 1.75 3.93 4.27 8.47 7 12 c 2.78 3.6 6.43 7.83 10 10 c 3.44 2.09 8.95 3.39 13 4 c 2.1 0.32 4.81 -0.35 7 -1 c 3.34 -0.98 6.88 -2.36 10 -4 c 3.13 -1.65 6.92 -3.62 9 -6 c 2.15 -2.46 5 -10 5 -10"/><path fill="none" stroke="#000000" stroke-width="2" stroke-linecap="round" stroke-linejoin="round" d="M 226 14 c -0.07 0.14 -2.36 5.54 -4 8 c -4.33 6.5 -8.65 13.41 -14 19 c -9.79 10.22 -23.32 20.32 -32 29 c -0.83 0.83 -1 4 -1 4"/><path fill="none" stroke="#000000" stroke-width="2" stroke-linecap="round" stroke-linejoin="round" d="M 147 105 l 1 1"/><path fill="none" stroke="#000000" stroke-width="2" stroke-linecap="round" stroke-linejoin="round" d="M 129 113 c 0.32 -0.03 12.27 -0.69 18 -2 c 5.7 -1.3 11.2 -4.37 17 -6 c 4.92 -1.38 9.97 -1.74 15 -3 c 4.47 -1.12 8.53 -2.99 13 -4 c 9.03 -2.03 27 -5 27 -5"/><path fill="none" stroke="#000000" stroke-width="2" stroke-linecap="round" stroke-linejoin="round" d="M 174 69 c 0.02 0.14 1 5.3 1 8 c 0 20.73 -1.28 41.65 -1 62 c 0.05 3.67 2 11 2 11"/></svg>