<?xml version="1.0" encoding="UTF-8" standalone="no"?><!DOCTYPE svg PUBLIC "-//W3C//DTD SVG 1.1//EN" "http://www.w3.org/Graphics/SVG/1.1/DTD/svg11.dtd"><svg xmlns="http://www.w3.org/2000/svg" version="1.1" width="53" height="163"><path fill="none" stroke="#000000" stroke-width="2" stroke-linecap="round" stroke-linejoin="round" d="M 1 1 c 0.14 0.18 6.09 6.45 8 10 c 2.55 4.74 3.61 10.78 6 16 c 3 6.56 7.25 12.43 10 19 c 3.24 7.74 4.67 16.34 8 24 c 3.3 7.59 8.69 14.46 12 22 c 2.63 5.99 4.62 12.68 6 19 c 0.9 4.13 0.81 8.55 1 13 c 0.15 3.41 0.65 7.09 0 10 c -0.58 2.6 -2.47 5.51 -4 8 c -1.1 1.78 -2.49 3.79 -4 5 c -1.58 1.26 -3.89 2.25 -6 3 c -11.94 4.27 -36 12 -36 12"/></svg>