<?xml version="1.0" encoding="UTF-8" standalone="no"?><!DOCTYPE svg PUBLIC "-//W3C//DTD SVG 1.1//EN" "http://www.w3.org/Graphics/SVG/1.1/DTD/svg11.dtd"><svg xmlns="http://www.w3.org/2000/svg" version="1.1" width="157" height="160"><path fill="none" stroke="#000000" stroke-width="2" stroke-linecap="round" stroke-linejoin="round" d="M 1 1 c 0.19 0 7.43 -0.43 11 0 c 4.64 0.56 9.47 1.53 14 3 c 8.81 2.86 17.31 6.28 26 10 c 5.58 2.39 10.56 6.08 16 8 c 5.61 1.98 11.75 2.71 18 4 c 5.52 1.14 10.52 2.34 16 3 c 11.49 1.38 22.41 2.3 34 3 c 5.43 0.33 10.84 0.26 16 0 c 1.33 -0.07 4.14 -0.78 4 -1 c -0.22 -0.33 -4.03 -1.77 -6 -2 c -3.43 -0.4 -7.93 -0.88 -11 0 c -3.25 0.93 -6.77 3.75 -10 6 c -4.54 3.16 -9.63 6.19 -13 10 c -3.88 4.38 -6.84 10.43 -10 16 c -2.62 4.62 -4.92 9.16 -7 14 c -1.97 4.6 -3.95 9.23 -5 14 c -1.92 8.75 -2.28 17.95 -4 27 c -0.98 5.14 -0.98 12.05 -4 15 c -9.5 9.28 -40 28 -40 28"/></svg>