<?xml version="1.0" encoding="UTF-8" standalone="no"?><!DOCTYPE svg PUBLIC "-//W3C//DTD SVG 1.1//EN" "http://www.w3.org/Graphics/SVG/1.1/DTD/svg11.dtd"><svg xmlns="http://www.w3.org/2000/svg" version="1.1" width="318" height="200"><path fill="none" stroke="#000000" stroke-width="2" stroke-linecap="round" stroke-linejoin="round" d="M 74 1 c -0.03 0.23 -1.07 8.63 -2 13 c -1.45 6.85 -5 20 -5 20"/><path fill="none" stroke="#000000" stroke-width="2" stroke-linecap="round" stroke-linejoin="round" d="M 36 37 c -0.14 0.46 -5.74 17.21 -8 26 c -1.09 4.25 -3.16 13.21 -2 13 c 2.58 -0.47 15.62 -11.41 24 -17 c 6.01 -4.01 11.85 -9.14 18 -11 c 10.31 -3.11 24.74 -5 35 -5 c 3.77 0 8.12 3.06 12 5 c 3.48 1.74 6.94 3.81 10 6 c 1.49 1.06 4.53 3.71 4 4 c -1.63 0.88 -11.17 2.25 -17 3 c -7.46 0.96 -14.69 0.84 -22 2 c -7.47 1.19 -15.05 2.63 -22 5 c -6.48 2.21 -12.99 5.5 -19 9 c -5.95 3.47 -11.86 7.55 -17 12 c -4.72 4.09 -8.93 9.04 -13 14 c -3.67 4.46 -7 9.13 -10 14 c -2.34 3.8 -4.18 7.9 -6 12 c -0.86 1.93 -2.57 4.98 -2 6 c 0.68 1.23 5.06 3.46 7 3 c 7.43 -1.75 18.67 -8.75 27 -11 c 2.87 -0.78 7.54 -0.23 10 1 c 2.77 1.38 6.4 5.01 8 8 c 3 5.6 5.31 13.24 7 20 c 1.61 6.46 2.24 13.16 3 20 c 0.6 5.42 1 10.75 1 16 c 0 2.31 -0.97 7.16 -1 7 c -0.08 -0.36 -1.21 -10.66 -1 -16 c 0.45 -11.37 1.51 -22.44 3 -34 c 1.59 -12.36 3.31 -23.91 6 -36 c 3.43 -15.43 7.43 -31.79 12 -45 c 0.91 -2.61 3.83 -5.01 6 -7 c 1.7 -1.56 4.14 -3.53 6 -4 c 1.57 -0.39 4.38 0.26 6 1 c 1.71 0.78 4.22 2.44 5 4 c 1.24 2.48 2.13 6.92 2 10 c -0.18 4.04 -1.43 9.08 -3 13 c -1.63 4.08 -4.39 8.17 -7 12 c -2.41 3.53 -8.57 8.98 -8 10 c 0.58 1.04 8.91 -1.19 13 -1 c 2.59 0.12 5.64 0.99 8 2 c 2.07 0.89 4.59 2.35 6 4 c 2.28 2.66 4.5 6.55 6 10 c 1.75 4.03 3.32 8.75 4 13 c 0.6 3.75 0.48 8.16 0 12 c -0.5 3.96 -1.7 8.96 -3 12 c -0.38 0.89 -2.04 1.9 -3 2 c -1.89 0.19 -5.39 0.04 -7 -1 c -2.42 -1.56 -5.28 -5.14 -7 -8 c -2.1 -3.5 -3.86 -8.02 -5 -12 c -0.79 -2.77 -1.18 -6.27 -1 -9 c 0.13 -1.9 1.01 -4.51 2 -6 c 0.78 -1.18 2.6 -2.22 4 -3 c 1.51 -0.84 3.62 -2 5 -2 c 1.14 0 3 1.16 4 2 c 0.81 0.67 1.83 1.99 2 3 c 0.42 2.53 0.66 6.36 0 9 c -0.89 3.55 -2.85 7.93 -5 11 c -2.26 3.23 -5.68 6.4 -9 9 c -8.98 7.04 -25.85 17.25 -28 20 c -0.65 0.84 6.66 2.69 10 3 c 10.55 0.98 22.16 -0.29 33 1 c 11.4 1.36 22.76 5.33 34 7 c 4.21 0.63 8.91 0.53 13 0 c 3.29 -0.43 7.01 -1.58 10 -3 c 3.1 -1.47 6.91 -3.54 9 -6 c 3.12 -3.67 6.12 -9.16 8 -14 c 2.66 -6.84 4.42 -14.87 6 -22 l 0 -5"/><path fill="none" stroke="#000000" stroke-width="2" stroke-linecap="round" stroke-linejoin="round" d="M 161 97 c 0.39 -0.51 15.05 -18.85 22 -29 c 5.57 -8.13 15.21 -25.47 15 -25 c -0.35 0.78 -15.32 28.2 -23 43 c -1.55 2.99 -3 5.99 -4 9 c -0.62 1.86 -1.71 4.88 -1 6 c 1.11 1.74 5.18 3.83 8 5 c 6.62 2.74 14.65 4.16 21 7 c 2.87 1.29 5.98 3.69 8 6 c 2.36 2.69 4.5 6.55 6 10 c 1.75 4.03 3.71 8.9 4 13 c 0.33 4.56 -0.49 10.61 -2 15 c -1.61 4.68 -4.88 9.79 -8 14 c -3.42 4.62 -7.56 9.5 -12 13 c -6.2 4.89 -20.28 11.66 -21 13 c -0.41 0.76 9.37 0.53 14 0 c 12.71 -1.47 24.99 -4.55 38 -6 c 14.58 -1.62 28.73 -3.17 43 -3 c 13.31 0.16 27.23 2.14 40 4 c 2.72 0.4 8.08 3.74 8 3 c -0.22 -2.1 -10 -22 -10 -22"/><path fill="none" stroke="#000000" stroke-width="2" stroke-linecap="round" stroke-linejoin="round" d="M 227 84 c 0.18 0.23 8.18 8.59 10 13 c 1.79 4.33 1.72 10.59 2 16 c 0.39 7.38 -1.27 17.65 0 22 c 0.42 1.44 4.87 2.18 7 2 c 5.1 -0.43 16.09 -4.18 17 -4 c 0.48 0.1 -4.53 4.69 -7 6 c -2.8 1.48 -10 3 -10 3"/></svg>