<?xml version="1.0" encoding="UTF-8" standalone="no"?><!DOCTYPE svg PUBLIC "-//W3C//DTD SVG 1.1//EN" "http://www.w3.org/Graphics/SVG/1.1/DTD/svg11.dtd"><svg xmlns="http://www.w3.org/2000/svg" version="1.1" width="311" height="183"><path fill="none" stroke="#000000" stroke-width="2" stroke-linecap="round" stroke-linejoin="round" d="M 77 1 c 0.03 0.21 1.65 7.92 2 12 c 0.66 7.72 1 15.42 1 23 c 0 2.33 -0.18 5.69 -1 7 c -0.48 0.76 -4 1 -4 1"/><path fill="none" stroke="#000000" stroke-width="2" stroke-linecap="round" stroke-linejoin="round" d="M 39 34 c -0.09 0.07 -4.28 2.57 -5 4 c -0.67 1.34 -0.92 5.5 0 6 c 1.69 0.92 7.71 0.93 11 0 c 11.15 -3.15 22.98 -9.06 35 -13 c 7.65 -2.51 15.09 -4.28 23 -6 c 7.77 -1.69 15.31 -3.32 23 -4 c 7.25 -0.64 20.57 -0.15 22 0 c 0.23 0.02 -1.92 1.59 -3 2 c -5.68 2.16 -11.75 4.15 -18 6 c -8.87 2.62 -17.44 3.97 -26 7 c -18.12 6.42 -35.34 13.13 -53 21 c -13.58 6.05 -26.39 13.12 -39 20 c -1.84 1 -3.54 2.54 -5 4 c -1.14 1.14 -3.19 2.97 -3 4 c 0.32 1.77 3.07 4.96 5 7 c 3.65 3.87 8.3 7.01 12 11 c 5.01 5.4 10.04 10.98 14 17 c 4.26 6.48 7.74 13.75 11 21 c 2.79 6.2 5.57 12.65 7 19 c 1.49 6.61 1.46 19.92 2 21 c 0.25 0.5 3.16 -5.89 4 -9 c 2.44 -9.04 3.34 -18.77 6 -28 c 3.06 -10.61 6.85 -20.61 11 -31 c 3.33 -8.34 6.54 -16.68 11 -24 c 4.69 -7.71 11.22 -15.99 17 -22 c 1.86 -1.93 6 -4 8 -4 c 1.43 0 4.42 2.44 5 4 c 1.1 2.93 1.44 8.22 1 12 c -0.83 7.08 -2.93 14.89 -5 22 c -0.9 3.11 -3.9 8.84 -4 9 c -0.04 0.07 0.31 -3.02 1 -4 c 1.41 -2.01 3.86 -4.22 6 -6 c 1.82 -1.51 4.05 -3.35 6 -4 c 1.62 -0.54 4.65 -0.6 6 0 c 1.13 0.5 2.58 2.58 3 4 c 1.1 3.73 2.12 8.82 2 13 c -0.2 7.06 -1.54 15.19 -3 22 c -0.44 2.06 -1.79 4.19 -3 6 c -1.4 2.11 -3.46 5.15 -5 6 c -0.81 0.45 -3.3 -0.22 -4 -1 c -1.51 -1.7 -3.04 -5.28 -4 -8 c -0.99 -2.81 -1.82 -6.15 -2 -9 c -0.14 -2.19 0.39 -4.97 1 -7 c 0.31 -1.04 1.17 -2.41 2 -3 c 1.24 -0.89 3.47 -1.85 5 -2 c 1.45 -0.14 4.13 0.05 5 1 c 2.14 2.33 5.05 7.22 6 11 c 2.52 10.07 2.83 22.17 5 33 c 0.82 4.1 1.98 10.26 4 12 c 1.6 1.37 7.6 1.25 10 0 c 4.76 -2.48 10.76 -8.14 15 -13 c 6.87 -7.89 14.07 -16.98 19 -26 c 4.41 -8.06 7.49 -17.92 10 -27 c 1.76 -6.38 2.58 -13.47 3 -20 c 0.23 -3.56 -0.06 -8 -1 -11 c -0.54 -1.74 -2.5 -3.65 -4 -5 c -1.69 -1.52 -3.91 -3.08 -6 -4 c -3.03 -1.33 -9.91 -1.54 -10 -3 c -0.14 -2.21 5.65 -8.82 9 -13 c 7.51 -9.38 22.9 -27.61 23 -27 c 0.11 0.68 -14.67 21.46 -22 33 c -6.46 10.18 -12.05 19.64 -18 30 c -1.9 3.31 -3.83 6.69 -5 10 c -0.74 2.09 -1 4.83 -1 7 c 0 1.27 0.19 3.34 1 4 c 2.2 1.8 6.55 4.05 10 5 c 9.45 2.6 19.83 3.69 30 6 c 4.84 1.1 9.49 2.36 14 4 c 2.77 1.01 5.69 2.4 8 4 c 1.83 1.26 4.24 3.16 5 5 c 1.3 3.16 2.4 8.42 2 12 c -0.52 4.65 -2.93 10.29 -5 15 c -1.53 3.48 -3.51 7.39 -6 10 c -3.8 3.99 -13.64 9.54 -14 11 c -0.23 0.9 7.4 1.29 11 1 c 16.39 -1.34 32.64 -4.17 50 -6 c 15.57 -1.64 40.06 -0.75 45 -4 c 2.35 -1.54 -5.88 -13.47 -10 -19 l -22 -24"/><path fill="none" stroke="#000000" stroke-width="2" stroke-linecap="round" stroke-linejoin="round" d="M 235 74 c 0.11 -0.12 3.75 -5.31 6 -7 c 2.73 -2.05 6.52 -3.63 10 -5 c 5.9 -2.32 13.37 -5.12 18 -6 c 0.88 -0.17 3 1.28 3 2 c 0 1.71 -1.73 5.46 -3 8 c -2.4 4.79 -5.01 9.4 -8 14 c -5.87 9.02 -12.2 17.16 -18 26 c -1.23 1.87 -3.27 4.8 -3 6 c 0.23 1.04 3.32 2.85 5 3 c 8.08 0.73 18.97 -0.28 28 0 c 1.33 0.04 4.2 0.52 4 1 c -0.69 1.65 -5.63 7.91 -9 11 c -4.41 4.05 -15 11 -15 11"/></svg>