<?xml version="1.0" encoding="UTF-8" standalone="no"?><!DOCTYPE svg PUBLIC "-//W3C//DTD SVG 1.1//EN" "http://www.w3.org/Graphics/SVG/1.1/DTD/svg11.dtd"><svg xmlns="http://www.w3.org/2000/svg" version="1.1" width="283" height="194"><path fill="none" stroke="#000000" stroke-width="2" stroke-linecap="round" stroke-linejoin="round" d="M 1 52 c 0.42 -0.16 15.85 -6.65 24 -9 c 6.8 -1.96 14.04 -2.31 21 -4 c 4.12 -1 8.09 -2.4 12 -4 c 3.46 -1.41 6.97 -3.04 10 -5 c 2.5 -1.62 5.05 -3.86 7 -6 c 1.23 -1.36 2.51 -3.38 3 -5 c 0.42 -1.39 0.42 -3.61 0 -5 c -0.49 -1.62 -1.76 -3.76 -3 -5 c -1.53 -1.53 -3.91 -3.02 -6 -4 c -2.75 -1.29 -5.96 -2.24 -9 -3 c -2.26 -0.57 -4.79 -1 -7 -1 c -1.59 0 -4.16 0.16 -5 1 c -1.04 1.04 -2.23 4.15 -2 6 c 1.86 15.15 6.15 33.31 9 51 c 2 12.41 3.73 23.72 5 36 c 0.77 7.44 1 22 1 22"/><path fill="none" stroke="#000000" stroke-width="2" stroke-linecap="round" stroke-linejoin="round" d="M 38 57 c -0.31 0.47 -20.08 26.61 -18 27 c 3.47 0.65 33.08 -14.34 50 -21 c 3.56 -1.4 11.06 -3.84 11 -3 c -0.11 1.47 -7.56 11.56 -12 16 c -3.51 3.51 -8.82 5.69 -13 9 c -5.62 4.46 -10.91 9.16 -16 14 c -1.53 1.46 -3.67 3.7 -4 5 c -0.18 0.73 1.25 3.05 2 3 c 2.81 -0.19 8.9 -2.19 13 -4 c 7.15 -3.15 20.28 -12.24 21 -11 c 0.82 1.4 -9.57 15.25 -14 23 c -0.89 1.55 -2.6 4.1 -2 5 c 1.36 2.04 6.45 5.91 10 7 c 11.59 3.55 26.59 4.97 39 8 c 2.09 0.51 5.69 1.61 6 3 c 0.7 3.13 -0.07 11.28 -2 15 c -2.17 4.18 -7.69 8.52 -12 12 c -4.22 3.41 -9.14 6.57 -14 9 c -4.99 2.49 -10.62 4.57 -16 6 c -4.45 1.19 -9.47 1.79 -14 2 c -2.58 0.12 -5.56 -0.39 -8 -1 c -1.35 -0.34 -3.68 -1.04 -4 -2 c -0.72 -2.15 -1.1 -7.35 0 -10 c 2.47 -5.96 7.2 -13.8 12 -19 c 6.68 -7.23 15.55 -14.31 24 -20 c 7.62 -5.13 16.48 -9.55 25 -13 c 6.9 -2.79 14.42 -4.3 22 -6 c 9.13 -2.05 18.06 -3.6 27 -5 l 5 0"/><path fill="none" stroke="#000000" stroke-width="2" stroke-linecap="round" stroke-linejoin="round" d="M 136 62 c 0.82 -0.28 31.08 -10.11 47 -16 c 9.05 -3.35 17.46 -6.97 26 -11 c 3.53 -1.67 7.01 -3.71 10 -6 c 2.54 -1.94 7 -7 7 -7"/><path fill="none" stroke="#000000" stroke-width="2" stroke-linecap="round" stroke-linejoin="round" d="M 179 20 c -0.07 0.33 -3.24 12.7 -4 19 c -0.55 4.54 0 14 0 14"/><path fill="none" stroke="#000000" stroke-width="2" stroke-linecap="round" stroke-linejoin="round" d="M 208 28 c -0.03 0.1 -0.92 4.3 -2 6 c -7.25 11.43 -22.81 30.25 -24 35 c -0.42 1.68 15 1 15 1"/><path fill="none" stroke="#000000" stroke-width="2" stroke-linecap="round" stroke-linejoin="round" d="M 165 76 c -0.02 0.24 -1 9.25 -1 14 c 0 9.81 1 19.25 1 29 c 0 3.71 -0.4 7.41 -1 11 c -0.39 2.36 -0.91 5.75 -2 7 c -0.77 0.87 -5 1 -5 1"/><path fill="none" stroke="#000000" stroke-width="2" stroke-linecap="round" stroke-linejoin="round" d="M 123 108 c 0.09 -0.02 3.36 -1 5 -1 c 5.8 0 12.18 0.3 18 1 c 2.35 0.28 5.01 0.94 7 2 c 2.73 1.46 5.5 5.79 8 6 c 4.13 0.34 12.07 -1.38 16 -4 c 5.9 -3.94 11.61 -11.65 17 -18 c 4.05 -4.77 7.32 -10.53 11 -15 c 0.71 -0.87 2.3 -2.12 3 -2 c 0.82 0.14 2.83 1.88 3 3 c 0.94 6.08 0.44 15.48 1 23 c 0.1 1.35 0.41 2.96 1 4 c 0.61 1.07 1.89 2.26 3 3 c 1.75 1.17 4.04 2.61 6 3 c 2.63 0.53 6.25 0.48 9 0 c 2.61 -0.46 5.58 -1.71 8 -3 c 2.44 -1.3 4.96 -3.12 7 -5 c 2.19 -2.02 4.24 -4.5 6 -7 c 2.23 -3.16 6.39 -10.27 6 -10 c -2.59 1.79 -39.85 33.62 -61 48 c -12.92 8.78 -27.83 14.25 -42 22 c -3.9 2.13 -7.65 4.39 -11 7 c -2.54 1.98 -4.95 4.55 -7 7 c -1.2 1.45 -3.54 4.08 -3 5 c 1.12 1.93 6.79 7.06 10 7 c 12.27 -0.22 30.34 -5.61 46 -8 c 4.37 -0.67 8.55 -0.9 13 -1 c 10.58 -0.24 20.96 -0.68 31 0 c 4.32 0.29 8.69 1.68 13 3 c 7.87 2.41 15.65 4.85 23 8 l 12 7"/></svg>