<?xml version="1.0" encoding="UTF-8" standalone="no"?><!DOCTYPE svg PUBLIC "-//W3C//DTD SVG 1.1//EN" "http://www.w3.org/Graphics/SVG/1.1/DTD/svg11.dtd"><svg xmlns="http://www.w3.org/2000/svg" version="1.1" width="312" height="201"><path fill="none" stroke="#000000" stroke-width="2" stroke-linecap="round" stroke-linejoin="round" d="M 60 1 c 0.09 0.35 3.55 13.15 5 20 c 0.93 4.37 1.82 8.76 2 13 c 0.15 3.56 -1 11 -1 11"/><path fill="none" stroke="#000000" stroke-width="2" stroke-linecap="round" stroke-linejoin="round" d="M 30 35 c -0.14 0.49 -10.19 27.11 -8 28 c 2.67 1.09 19.59 -12.96 30 -19 c 6.55 -3.8 13.17 -7.3 20 -10 c 5.71 -2.25 11.99 -3.94 18 -5 c 5.16 -0.91 10.66 -1 16 -1 c 3.68 0 7.47 0.38 11 1 c 2.02 0.36 6.35 1.69 6 2 c -0.83 0.73 -9.29 3.94 -14 5 c -5.42 1.22 -11.42 0.92 -17 2 c -4.75 0.92 -9.73 2.07 -14 4 c -5.78 2.61 -11.91 6.1 -17 10 c -6.03 4.61 -12.02 10.21 -17 16 c -5.21 6.05 -9.27 13 -14 20 c -4.62 6.84 -9.13 12.98 -13 20 c -5.22 9.47 -9.5 19.17 -14 29 c -0.88 1.93 -2.34 6.17 -2 6 c 0.99 -0.5 9.09 -8.27 14 -12 c 3.47 -2.64 7.51 -5.64 11 -7 c 1.87 -0.73 5.33 -0.77 7 0 c 2.02 0.93 4.53 3.75 6 6 c 3.33 5.1 6.92 11.23 9 17 c 2.1 5.82 3.01 12.47 4 19 c 1.74 11.51 3.85 33.42 4 34 l -1 -22"/><path fill="none" stroke="#000000" stroke-width="2" stroke-linecap="round" stroke-linejoin="round" d="M 69 69 c 0.11 -0.02 4.12 -1 6 -1 c 1.58 0 3.84 0.27 5 1 c 1.14 0.71 2.5 2.62 3 4 c 0.71 1.95 1.12 4.78 1 7 c -0.19 3.51 -1.03 7.5 -2 11 c -0.66 2.38 -1.82 4.84 -3 7 c -0.77 1.42 -3.41 3.8 -3 4 c 0.74 0.37 6.17 -1.16 9 -1 c 2.88 0.16 6.48 0.81 9 2 c 2.74 1.29 6.52 3.48 8 6 c 4.51 7.66 9.5 18.68 12 28 c 2.31 8.62 2.75 20.33 3 28 c 0.03 0.98 -1.14 2.52 -2 3 c -1.73 0.96 -5.12 2.35 -7 2 c -2.66 -0.5 -6.63 -2.91 -9 -5 c -2.94 -2.6 -5.92 -6.49 -8 -10 c -2.11 -3.57 -4.46 -8.42 -5 -12 c -0.34 -2.27 0.99 -5.64 2 -8 c 0.89 -2.07 2.41 -4.7 4 -6 c 1.68 -1.38 4.92 -2.85 7 -3 c 1.99 -0.14 5.75 0.64 7 2 c 2.08 2.25 4.24 7.35 5 11 c 1.13 5.45 1.89 12.42 1 18 c -1.65 10.28 -8.17 24.33 -9 32 c -0.18 1.63 3.17 4.45 5 5 c 3.89 1.17 10.19 1.32 15 1 c 4.89 -0.33 10.11 -1.51 15 -3 c 10.51 -3.2 20.57 -6.97 31 -11 l 13 -6"/><path fill="none" stroke="#000000" stroke-width="2" stroke-linecap="round" stroke-linejoin="round" d="M 137 135 c 0.04 -0.17 0.84 -6.84 2 -10 c 6.11 -16.66 13.38 -32.59 20 -50 c 5.48 -14.42 14.24 -40.48 15 -42 c 0.21 -0.41 0.35 8 0 12 c -0.65 7.41 -1.42 14.68 -3 22 c -3.15 14.63 -7.56 28.24 -11 43 c -1.34 5.74 -2.2 11.19 -3 17 c -0.56 4.05 -1.19 8.23 -1 12 c 0.13 2.58 0.81 5.93 2 8 c 1.22 2.13 3.79 4.4 6 6 c 3.62 2.61 7.78 4.84 12 7 c 10.47 5.35 20.31 10.79 31 15 c 11.39 4.49 22.95 7.52 35 11 c 5.74 1.65 11.2 2.98 17 4 c 5.69 1 11.24 1.64 17 2 c 5.04 0.32 10.02 0.36 15 0 c 4.37 -0.31 9.3 -0.71 13 -2 l 7 -5"/><path fill="none" stroke="#000000" stroke-width="2" stroke-linecap="round" stroke-linejoin="round" d="M 225 77 c 0.11 -0.02 4.07 -1 6 -1 c 2.56 0 5.61 0.2 8 1 c 3.31 1.1 7.53 2.82 10 5 c 2.7 2.38 5.92 6.64 7 10 c 1.33 4.14 1.44 10.26 1 15 c -0.52 5.51 -2.04 11.83 -4 17 c -1.56 4.12 -4.24 9.06 -7 12 c -2.05 2.18 -6.08 4.23 -9 5 c -2.84 0.75 -7.24 0.69 -10 0 c -1.99 -0.5 -4.79 -2.38 -6 -4 c -1.44 -1.92 -3.32 -5.68 -3 -8 c 0.83 -6.01 7 -21 7 -21"/></svg>