<?xml version="1.0" encoding="UTF-8" standalone="no"?><!DOCTYPE svg PUBLIC "-//W3C//DTD SVG 1.1//EN" "http://www.w3.org/Graphics/SVG/1.1/DTD/svg11.dtd"><svg xmlns="http://www.w3.org/2000/svg" version="1.1" width="293" height="200"><path fill="none" stroke="#000000" stroke-width="2" stroke-linecap="round" stroke-linejoin="round" d="M 67 1 c -0.05 0.89 -1.57 34.68 -3 51 c -0.18 2.02 -2 6 -2 6"/><path fill="none" stroke="#000000" stroke-width="2" stroke-linecap="round" stroke-linejoin="round" d="M 16 31 c -0.07 0.21 -3.13 7.94 -4 12 c -1.11 5.17 -1.76 10.94 -2 16 c -0.08 1.6 0.23 4.36 1 5 c 0.76 0.63 3.65 0.55 5 0 c 3.74 -1.54 7.98 -4.42 12 -7 c 14.21 -9.12 27.05 -19 41 -27 c 6.12 -3.51 13.25 -5.99 20 -8 c 5.41 -1.61 11.43 -2.65 17 -3 c 4.85 -0.3 10.3 0.03 15 1 c 4.65 0.96 13.5 3.5 14 5 c 0.41 1.23 -6.38 5.7 -10 7 c -21.12 7.58 -46.56 13.09 -68 21 c -5.68 2.1 -10.96 6.26 -16 10 c -5.3 3.93 -10.17 8.34 -15 13 c -4.99 4.82 -10.22 9.68 -14 15 c -3.29 4.64 -5.95 10.59 -8 16 c -1.53 4.04 -2.36 8.72 -3 13 c -0.34 2.25 -0.82 5.64 0 7 c 0.78 1.3 4.04 2.58 6 3 c 2.33 0.5 5.67 -0.5 8 0 c 1.96 0.42 4.43 1.66 6 3 c 2.81 2.41 6.12 5.74 8 9 c 2.87 4.98 5.57 11.18 7 17 c 3.16 12.85 5.67 34.94 7 40 c 0.12 0.45 2.68 -1.08 3 -2 c 2.44 -7.09 5.07 -17.65 7 -27 c 4.92 -23.86 8.09 -46.24 13 -70 c 1.57 -7.61 3.14 -15.23 6 -22 c 3.31 -7.85 8.48 -17.4 13 -23 c 1.46 -1.81 5.53 -2.65 8 -3 c 1.76 -0.25 4.6 0.16 6 1 c 1.47 0.88 3.22 3.21 4 5 c 1.39 3.18 2.84 7.58 3 11 c 0.15 3.35 -1.09 7.38 -2 11 c -0.77 3.08 -1.61 6.37 -3 9 c -1.47 2.78 -5.69 5.99 -6 8 c -0.2 1.29 2.5 3.5 4 5 c 2.48 2.48 5.93 4.38 8 7 c 2.7 3.42 5.18 7.87 7 12 c 1.78 4.04 3.32 8.75 4 13 c 0.6 3.75 0.4 8.19 0 12 c -0.24 2.31 -0.98 5.12 -2 7 c -0.8 1.46 -2.51 3.08 -4 4 c -2.59 1.6 -6.16 3.55 -9 4 c -2.9 0.46 -7.34 0.12 -10 -1 c -3.02 -1.27 -6.78 -4.33 -9 -7 c -2.44 -2.93 -4.84 -7.36 -6 -11 c -1.02 -3.2 -1.63 -8 -1 -11 c 0.54 -2.56 2.97 -6.26 5 -8 c 2.12 -1.82 6.3 -3.68 9 -4 c 2.26 -0.27 6.43 0.53 8 2 c 2.65 2.48 5.4 7.86 7 12 c 2.27 5.86 4.13 12.75 5 19 c 0.75 5.41 -0.35 11.3 0 17 c 0.33 5.41 0.59 11.98 2 16 c 0.56 1.6 3.27 3.65 5 4 c 4.04 0.81 10.54 1.05 15 0 c 6.13 -1.44 12.76 -4.88 19 -8 l 31 -17"/><path fill="none" stroke="#000000" stroke-width="2" stroke-linecap="round" stroke-linejoin="round" d="M 135 108 l 1 1"/><path fill="none" stroke="#000000" stroke-width="2" stroke-linecap="round" stroke-linejoin="round" d="M 183 27 c -0.47 1.31 -18.29 49.44 -27 75 c -1.8 5.29 -3.1 10.62 -4 16 c -0.76 4.58 -1.52 9.83 -1 14 c 0.4 3.2 2.15 7.38 4 10 c 1.82 2.58 4.99 5.62 8 7 c 16.16 7.42 34.61 13.95 53 21 c 6.84 2.62 13.15 5.25 20 7 c 10.21 2.6 20.74 4.46 31 6 c 2.93 0.44 6.12 0.34 9 0 c 2.64 -0.31 6.16 -0.78 8 -2 c 1.61 -1.07 3.23 -3.89 4 -6 c 1.76 -4.83 4 -16 4 -16"/><path fill="none" stroke="#000000" stroke-width="2" stroke-linecap="round" stroke-linejoin="round" d="M 222 48 c 0.03 0.07 1.76 2.63 2 4 c 1.01 5.84 1.82 12.67 2 19 c 0.15 5.31 -0.13 10.79 -1 16 c -1.12 6.7 -5.51 15.92 -5 20 c 0.22 1.77 5.21 2.98 8 4 c 7.21 2.64 15.39 4.31 22 7 c 1.83 0.75 4.36 2.72 5 4 c 0.41 0.82 -0.17 3.42 -1 4 c -2.63 1.82 -8.16 4.43 -12 5 c -4.44 0.66 -10.92 0.41 -15 -1 c -3.69 -1.28 -11 -8 -11 -8"/></svg>