<?xml version="1.0" encoding="UTF-8" standalone="no"?><!DOCTYPE svg PUBLIC "-//W3C//DTD SVG 1.1//EN" "http://www.w3.org/Graphics/SVG/1.1/DTD/svg11.dtd"><svg xmlns="http://www.w3.org/2000/svg" version="1.1" width="304" height="213"><path fill="none" stroke="#000000" stroke-width="2" stroke-linecap="round" stroke-linejoin="round" d="M 80 1 c 0.02 0.1 1.07 4.05 1 6 c -0.25 6.77 -2 21 -2 21"/><path fill="none" stroke="#000000" stroke-width="2" stroke-linecap="round" stroke-linejoin="round" d="M 26 33 c -0.04 0.51 -2.55 23.52 -2 29 c 0.1 0.96 3.87 1.6 5 1 c 3.46 -1.83 7.73 -6.83 12 -10 c 7.65 -5.69 14.94 -10.79 23 -16 c 8.39 -5.42 16.36 -10.68 25 -15 c 7.32 -3.66 15.34 -6.89 23 -9 c 5.31 -1.46 11.65 -2 17 -2 c 2.88 0 6.56 0.98 9 2 c 1.12 0.47 3.17 2.23 3 3 c -0.31 1.41 -3.03 4.82 -5 6 c -4.08 2.45 -9.83 4.33 -15 6 c -6.29 2.03 -12.49 3.63 -19 5 c -6.38 1.34 -12.74 1.57 -19 3 c -5.45 1.25 -10.91 2.87 -16 5 c -5.16 2.16 -10.69 4.77 -15 8 c -4.66 3.5 -9.32 8.29 -13 13 c -4.5 5.76 -8.2 12.35 -12 19 c -4.39 7.68 -8.47 15.05 -12 23 c -3.19 7.17 -5.61 14.45 -8 22 c -1.68 5.32 -2.82 10.5 -4 16 c -0.87 4.06 -1.78 8.24 -2 12 c -0.09 1.58 0.1 4.01 1 5 c 1.91 2.1 5.9 4.61 9 6 c 3.27 1.47 7.66 1.6 11 3 c 2.76 1.16 5.74 3.04 8 5 c 2.55 2.21 5.52 5.03 7 8 c 4.51 9.03 8.28 23.22 12 30 c 0.59 1.07 4.42 1.83 5 1 c 2.6 -3.71 7.32 -13.74 9 -21 c 8.14 -35.27 13.39 -72.11 21 -109 c 1.22 -5.89 2.79 -11.97 5 -17 c 1.25 -2.84 3.76 -5.93 6 -8 c 1.8 -1.67 4.71 -3.43 7 -4 c 2.55 -0.64 6.45 -0.64 9 0 c 2.29 0.57 5.59 2.23 7 4 c 2.12 2.65 4.16 7.35 5 11 c 1.05 4.54 1.34 10.24 1 15 c -0.3 4.22 -1.71 8.75 -3 13 c -1.04 3.43 -2.37 6.92 -4 10 c -1.3 2.46 -3.18 4.98 -5 7 c -1.06 1.17 -4.39 2.78 -4 3 c 1.02 0.57 9.2 0.73 13 2 c 2.73 0.91 5.86 3.02 8 5 c 2.26 2.1 4.72 5.18 6 8 c 1.86 4.1 3.69 9.6 4 14 c 0.31 4.28 -1.01 9.44 -2 14 c -0.66 3.06 -1.71 6.25 -3 9 c -0.98 2.09 -2.46 4.3 -4 6 c -1.67 1.84 -3.94 4.12 -6 5 c -2.12 0.91 -5.87 1.46 -8 1 c -1.91 -0.41 -4.84 -2.31 -6 -4 c -2.1 -3.05 -4.01 -8.02 -5 -12 c -0.92 -3.68 -1.62 -8.58 -1 -12 c 0.58 -3.18 2.78 -7.64 5 -10 c 2.59 -2.75 7.74 -6.38 11 -7 c 2.61 -0.5 7.63 1.19 10 3 c 3.87 2.95 8.19 8.36 11 13 c 3.62 5.98 5.67 13.34 9 20 c 2.45 4.89 5.02 9.63 8 14 c 1.96 2.88 4.39 6.12 7 8 c 2.96 2.14 7.75 4.69 11 5 c 2.81 0.27 7.36 -1.32 10 -3 c 4.12 -2.62 8.68 -6.95 12 -11 l 11 -17"/><path fill="none" stroke="#000000" stroke-width="2" stroke-linecap="round" stroke-linejoin="round" d="M 151 133 c 0.3 -0.42 11.75 -15.57 17 -24 c 5.91 -9.49 10.87 -18.96 16 -29 c 3.05 -5.97 5.77 -11.8 8 -18 c 2.47 -6.87 5.91 -20.56 6 -21 c 0.03 -0.14 -2.69 3.94 -3 6 c -2.19 14.5 -3.88 31.05 -5 47 c -0.57 8.1 -0.56 16.04 0 24 c 0.45 6.38 1.24 13.19 3 19 c 1.43 4.73 4.22 9.83 7 14 c 2.39 3.58 5.72 7.04 9 10 c 3.65 3.3 7.77 6.67 12 9 c 5.18 2.86 11.12 5.15 17 7 c 11.25 3.53 22.45 6.57 34 9 c 7.62 1.6 16.2 2.76 23 3 c 1.58 0.06 3.98 -0.98 5 -2 l 3 -6"/><path fill="none" stroke="#000000" stroke-width="2" stroke-linecap="round" stroke-linejoin="round" d="M 245 61 c 0.09 0.03 4.01 1.01 5 2 c 0.99 0.99 1.78 3.32 2 5 c 0.73 5.61 1.44 12.18 1 18 c -0.54 7.22 -1.99 14.96 -4 22 c -1.94 6.79 -6.31 14.2 -8 20 c -0.32 1.11 0.14 3.75 1 4 c 4.83 1.41 15.1 1.84 23 3 c 3.81 0.56 7.45 1.11 11 2 c 1.71 0.43 4.68 1.05 5 2 c 0.43 1.29 -0.64 5.75 -2 7 c -2.25 2.08 -7.64 4.73 -11 5 c -3.98 0.32 -9.55 -1.58 -14 -3 l -11 -5"/></svg>