<?xml version="1.0" encoding="UTF-8" standalone="no"?><!DOCTYPE svg PUBLIC "-//W3C//DTD SVG 1.1//EN" "http://www.w3.org/Graphics/SVG/1.1/DTD/svg11.dtd"><svg xmlns="http://www.w3.org/2000/svg" version="1.1" width="329" height="214"><path fill="none" stroke="#000000" stroke-width="2" stroke-linecap="round" stroke-linejoin="round" d="M 63 1 c 0.07 0.49 3.03 18.45 4 28 c 0.72 7.1 1 21 1 21"/><path fill="none" stroke="#000000" stroke-width="2" stroke-linecap="round" stroke-linejoin="round" d="M 20 54 c -0.02 0.09 -0.94 3.33 -1 5 c -0.27 7.87 -1.64 21.54 0 24 c 0.92 1.38 8.27 -3.59 12 -6 c 6.56 -4.23 12.33 -9.56 19 -14 c 6.59 -4.39 13.06 -8.44 20 -12 c 6.13 -3.14 12.57 -5.92 19 -8 c 4.77 -1.54 9.9 -2.24 15 -3 c 4.02 -0.6 8.14 -1.17 12 -1 c 3.58 0.16 7.84 0.95 11 2 c 1.42 0.47 3.57 1.99 4 3 c 0.36 0.83 -0.24 3.11 -1 4 c -2.47 2.92 -6.39 6.86 -10 9 c -4.93 2.92 -11.11 5.04 -17 7 c -9.32 3.11 -18.62 4.95 -28 8 c -5.2 1.69 -10.61 3.36 -15 6 c -5.23 3.14 -10.19 7.64 -15 12 c -6.02 5.45 -11.5 10.97 -17 17 c -5.03 5.52 -9.67 11 -14 17 c -4.42 6.12 -8.52 12.85 -12 19 c -0.64 1.13 -1.37 3.38 -1 4 c 0.37 0.62 2.76 1.14 4 1 c 6.72 -0.78 14.9 -3.33 22 -4 c 3.19 -0.3 6.91 0.27 10 1 c 2.34 0.55 5.02 1.74 7 3 c 1.47 0.93 3.29 2.49 4 4 c 1.71 3.64 3.72 8.7 4 13 c 0.99 15.17 0 48 0 48"/><path fill="none" stroke="#000000" stroke-width="2" stroke-linecap="round" stroke-linejoin="round" d="M 73 83 c 0.18 0.05 7.62 1.54 10 3 c 1.33 0.82 2.48 3.31 3 5 c 0.72 2.34 1.32 5.54 1 8 c -0.62 4.73 -2.46 10.38 -4 15 c -0.36 1.07 -2.42 2.87 -2 3 c 2.11 0.66 12.97 0.69 18 2 c 1.78 0.46 3.84 2.45 5 4 c 1.62 2.16 3.01 5.21 4 8 c 2.66 7.51 5.08 15.32 7 23 c 0.72 2.89 1 6.07 1 9 c 0 2.61 -0.45 5.41 -1 8 c -0.43 2.03 -1.11 4.22 -2 6 c -0.7 1.4 -1.83 3.61 -3 4 c -2.11 0.7 -6.64 0.83 -9 0 c -2.62 -0.93 -6.08 -3.67 -8 -6 c -2.41 -2.92 -4.21 -7.21 -6 -11 c -1.22 -2.58 -2.48 -5.4 -3 -8 c -0.43 -2.13 -0.47 -4.97 0 -7 c 0.45 -1.95 1.63 -4.52 3 -6 c 2.32 -2.52 6.02 -5.51 9 -7 c 1.85 -0.92 5.22 -1.44 7 -1 c 1.61 0.4 4.18 2.5 5 4 c 0.9 1.65 1.29 4.98 1 7 c -0.31 2.18 -3 5.22 -3 7 c 0 1.17 1.76 3.29 3 4 c 2.9 1.66 8.35 2.37 11 4 c 1.01 0.62 2.29 2.98 2 4 c -0.76 2.67 -3.66 6.98 -6 10 c -3.26 4.22 -7.09 8.09 -11 12 c -3.23 3.23 -6.42 6.46 -10 9 c -4.29 3.04 -14.44 7.78 -14 8 c 0.56 0.28 13.12 -3.55 20 -5 c 6.09 -1.28 11.82 -2.39 18 -3 c 21.41 -2.11 41.84 -2.71 63 -5 c 6.83 -0.74 13.46 -2.43 20 -4 l 5 -2"/><path fill="none" stroke="#000000" stroke-width="2" stroke-linecap="round" stroke-linejoin="round" d="M 148 133 l 27 -25"/><path fill="none" stroke="#000000" stroke-width="2" stroke-linecap="round" stroke-linejoin="round" d="M 214 56 c 0.03 -0.07 1.69 -2.62 2 -4 c 1.28 -5.64 3 -13.55 3 -18 c 0 -1.04 -2.23 -3.17 -3 -3 c -1.41 0.31 -4.53 3.01 -6 5 c -5.87 7.91 -12.24 17.03 -17 26 c -3.79 7.14 -7.06 16.2 -9 23 c -0.4 1.4 0.35 3.7 1 5 c 0.54 1.08 1.84 2.39 3 3 c 4.77 2.51 13.03 4.21 16 7 c 1.54 1.45 1.81 6.58 1 9 c -1.83 5.49 -8.7 12.79 -10 18 c -0.66 2.64 1.07 7.79 3 10 c 4.22 4.82 12.11 9.09 18 14 c 2.19 1.83 4.07 3.88 6 6 c 1.45 1.6 3.52 3.31 4 5 c 0.68 2.38 0.83 6.51 0 9 c -1.28 3.84 -4.16 8.73 -7 12 c -3.49 4.01 -8.43 7.52 -13 11 c -3.87 2.94 -10.74 6.6 -12 8 c -0.32 0.35 2 1.94 3 2 c 3.87 0.23 9.4 -0.12 14 -1 c 19.8 -3.8 39.29 -9.51 59 -13 c 6.53 -1.16 13.24 -1 20 -1 c 5.41 0 10.6 0.42 16 1 c 4.1 0.44 8.17 0.96 12 2 c 3.39 0.92 10.22 4.61 10 4 l -16 -21"/><path fill="none" stroke="#000000" stroke-width="2" stroke-linecap="round" stroke-linejoin="round" d="M 247 65 c 0.12 -0.05 4.72 -2.57 7 -3 c 2.7 -0.51 6.06 -0.31 9 0 c 3.33 0.35 7.41 0.7 10 2 c 2.16 1.08 4.92 3.84 6 6 c 1.3 2.59 2.42 7.05 2 10 c -0.78 5.49 -3.44 12.38 -6 18 c -2.36 5.19 -5.56 10.36 -9 15 c -4.18 5.64 -12.47 12.44 -14 16 c -0.51 1.19 3.1 4.17 5 5 c 5.01 2.18 12.07 2.89 18 5 c 9.26 3.29 18.61 7.07 27 11 c 1.84 0.86 5.51 3.27 5 4 c -1.32 1.9 -9.38 7.84 -14 9 c -6.11 1.53 -15.48 1.4 -22 0 c -6.5 -1.39 -14.47 -5.25 -20 -9 c -4.11 -2.78 -8.58 -7.86 -11 -12 c -1.84 -3.15 -3.85 -8.91 -3 -12 c 1.39 -5.05 7.21 -11.58 11 -17 l 3 -3"/></svg>