<?xml version="1.0" encoding="UTF-8" standalone="no"?><!DOCTYPE svg PUBLIC "-//W3C//DTD SVG 1.1//EN" "http://www.w3.org/Graphics/SVG/1.1/DTD/svg11.dtd"><svg xmlns="http://www.w3.org/2000/svg" version="1.1" width="278" height="203"><path fill="none" stroke="#000000" stroke-width="2" stroke-linecap="round" stroke-linejoin="round" d="M 5 61 c 0.11 -0.14 3.72 -5.87 6 -8 c 2.47 -2.3 5.81 -4.46 9 -6 c 7.01 -3.39 14.38 -6.14 22 -9 c 6.09 -2.28 12.21 -3.64 18 -6 c 3.14 -1.28 9 -5 9 -5"/><path fill="none" stroke="#000000" stroke-width="2" stroke-linecap="round" stroke-linejoin="round" d="M 1 119 c 0.14 -0.11 5.18 -4.22 8 -6 c 3.54 -2.23 7.13 -4.44 11 -6 c 11.82 -4.78 23.97 -8.35 36 -13 c 2.81 -1.09 5.31 -2.55 8 -4 c 1.75 -0.94 3.56 -1.78 5 -3 c 2.79 -2.36 8 -8 8 -8"/><path fill="none" stroke="#000000" stroke-width="2" stroke-linecap="round" stroke-linejoin="round" d="M 66 57 c -0.12 0.03 -6.16 0.57 -7 2 c -1.77 3.01 -2.67 9.99 -3 15 c -0.65 9.82 -0.68 19.98 0 30 c 0.66 9.78 2.36 19.18 4 29 c 0.75 4.47 2.44 8.62 3 13 c 0.76 5.92 0.81 11.8 1 18 c 0.16 5.15 0.25 10.17 0 15 c -0.07 1.33 -0.49 2.82 -1 4 c -0.44 1.03 -1.17 2.26 -2 3 c -1.99 1.77 -4.6 3.8 -7 5 c -2.03 1.02 -4.69 1.76 -7 2 c -3.81 0.4 -8.14 0.24 -12 0 c -1.33 -0.08 -2.91 -0.4 -4 -1 l -5 -4"/><path fill="none" stroke="#000000" stroke-width="2" stroke-linecap="round" stroke-linejoin="round" d="M 136 32 c 0.14 0.18 5.09 6.92 8 10 c 2.74 2.9 9 8 9 8"/><path fill="none" stroke="#000000" stroke-width="2" stroke-linecap="round" stroke-linejoin="round" d="M 110 103 c 0.37 -0.23 13.61 -9.31 21 -13 c 13.39 -6.7 41 -18 41 -18"/><path fill="none" stroke="#000000" stroke-width="2" stroke-linecap="round" stroke-linejoin="round" d="M 136 106 c 0.02 0.47 0.24 17.89 1 27 c 0.6 7.15 3 21 3 21"/><path fill="none" stroke="#000000" stroke-width="2" stroke-linecap="round" stroke-linejoin="round" d="M 156 110 c 0 0.26 0.39 10.1 0 15 c -0.27 3.33 -1.63 6.68 -2 10 c -0.29 2.61 0 8 0 8"/><path fill="none" stroke="#000000" stroke-width="2" stroke-linecap="round" stroke-linejoin="round" d="M 112 185 c 0.63 -0.12 24.34 -3.88 36 -7 c 6.85 -1.83 13.64 -4.82 20 -8 c 5.57 -2.79 10.68 -7.34 16 -10 c 2.32 -1.16 8 -2 8 -2"/><path fill="none" stroke="#000000" stroke-width="2" stroke-linecap="round" stroke-linejoin="round" d="M 188 23 c 0.14 0.35 5.75 13.26 8 20 c 1.06 3.19 2 10 2 10"/><path fill="none" stroke="#000000" stroke-width="2" stroke-linecap="round" stroke-linejoin="round" d="M 191 23 c 0.4 -0.23 15.13 -8.95 23 -13 c 3.21 -1.65 6.53 -2.84 10 -4 c 5.71 -1.9 11.45 -4.01 17 -5 c 3.44 -0.62 7.46 -0.24 11 0 c 1.33 0.09 3.47 0.21 4 1 c 1.05 1.58 1.67 5.36 2 8 c 0.32 2.56 0.6 5.59 0 8 c -1.28 5.14 -6 16 -6 16"/><path fill="none" stroke="#000000" stroke-width="2" stroke-linecap="round" stroke-linejoin="round" d="M 195 83 c 0.26 -0.16 9.73 -6.58 15 -9 c 10.69 -4.9 33 -13 33 -13"/><path fill="none" stroke="#000000" stroke-width="2" stroke-linecap="round" stroke-linejoin="round" d="M 226 47 c -0.3 1.23 -13.03 50.15 -17 70 c -0.3 1.48 0.98 4.59 2 5 c 1.52 0.61 5.3 -0.52 8 -1 c 3.08 -0.54 6.04 -1.1 9 -2 c 4.78 -1.45 9.49 -3.07 14 -5 c 2.45 -1.05 7 -4 7 -4"/><path fill="none" stroke="#000000" stroke-width="2" stroke-linecap="round" stroke-linejoin="round" d="M 238 85 c -0.03 0.1 -1.62 3.98 -2 6 c -0.6 3.21 -1 6.61 -1 10 c 0 23.27 1.29 46.84 1 69 c -0.03 2.65 -1.66 5.28 -2 8 c -0.99 7.93 -2 24 -2 24"/><path fill="none" stroke="#000000" stroke-width="2" stroke-linecap="round" stroke-linejoin="round" d="M 199 155 c 0.23 -0.09 8.48 -3.72 13 -5 c 15.73 -4.46 31.73 -7.32 47 -12 c 5.21 -1.6 10.83 -4.45 15 -7 c 1.26 -0.77 3 -4 3 -4"/></svg>