<?xml version="1.0" encoding="UTF-8" standalone="no"?><!DOCTYPE svg PUBLIC "-//W3C//DTD SVG 1.1//EN" "http://www.w3.org/Graphics/SVG/1.1/DTD/svg11.dtd"><svg xmlns="http://www.w3.org/2000/svg" version="1.1" width="244" height="217"><path fill="none" stroke="#000000" stroke-width="2" stroke-linecap="round" stroke-linejoin="round" d="M 1 52 c 0.02 0.12 0.35 4.81 1 7 c 0.98 3.34 4 10 4 10"/><path fill="none" stroke="#000000" stroke-width="2" stroke-linecap="round" stroke-linejoin="round" d="M 17 52 c 0.39 -0.31 14.15 -12.49 22 -18 c 14.79 -10.37 30.28 -21.41 45 -29 c 5.34 -2.75 12.74 -2.96 19 -4 c 1.61 -0.27 3.83 -0.59 5 0 c 1.66 0.83 3.69 3.2 5 5 c 1.24 1.7 2.79 4.01 3 6 c 0.7 6.53 0.27 14.79 0 22 l -1 5"/><path fill="none" stroke="#000000" stroke-width="2" stroke-linecap="round" stroke-linejoin="round" d="M 45 93 c 0.19 -0.1 7.53 -3.63 11 -6 c 11.31 -7.71 33 -24 33 -24"/><path fill="none" stroke="#000000" stroke-width="2" stroke-linecap="round" stroke-linejoin="round" d="M 91 42 c -0.1 0.21 -4.19 7.82 -6 12 c -2.61 6.02 -5.08 11.8 -7 18 c -2.46 7.94 -4.27 15.81 -6 24 c -0.99 4.68 -1.67 9.29 -2 14 c -0.34 5 -0.25 10.09 0 15 c 0.08 1.67 0.13 4.35 1 5 c 1.2 0.9 4.86 1.15 7 1 c 2.2 -0.16 4.84 -1.07 7 -2 c 2.39 -1.03 4.94 -2.35 7 -4 c 6.15 -4.92 12.39 -10.67 18 -16 c 0.84 -0.8 1.69 -1.96 2 -3 c 0.61 -2.03 1.47 -5.59 1 -7 c -0.3 -0.89 -3.46 -2.54 -4 -2 c -1.46 1.46 -4.12 7.27 -5 11 c -1.68 7.16 -2.37 15.24 -3 23 c -0.38 4.68 -0.71 9.46 0 14 c 2.58 16.52 7.4 33.2 10 50 c 1.07 6.92 1 21 1 21"/><path fill="none" stroke="#000000" stroke-width="2" stroke-linecap="round" stroke-linejoin="round" d="M 70 183 c 0.32 -0.28 11.49 -11.58 18 -16 c 10.9 -7.4 35 -20 35 -20"/><path fill="none" stroke="#000000" stroke-width="2" stroke-linecap="round" stroke-linejoin="round" d="M 167 41 c 0.12 -0.16 4.42 -6.26 7 -9 c 2.72 -2.89 5.7 -5.9 9 -8 c 7.47 -4.75 16.62 -9.8 24 -13 c 1.62 -0.7 4.11 -0.29 6 0 c 2.3 0.35 5.5 0.75 7 2 c 1.94 1.62 3.81 5.28 5 8 c 1.04 2.38 1.69 5.36 2 8 c 0.34 2.88 0.36 6.15 0 9 l -2 7"/><path fill="none" stroke="#000000" stroke-width="2" stroke-linecap="round" stroke-linejoin="round" d="M 175 64 c 0.84 -0.44 31.86 -17.07 48 -25 c 2.83 -1.39 6.31 -1.66 9 -3 c 2.44 -1.22 4.67 -3.73 7 -5 c 1.12 -0.61 4 -1 4 -1"/><path fill="none" stroke="#000000" stroke-width="2" stroke-linecap="round" stroke-linejoin="round" d="M 155 97 c 0.82 -0.38 31.07 -15.1 47 -22 c 4.17 -1.81 8.99 -2.11 13 -4 c 7.79 -3.68 23 -13 23 -13"/><path fill="none" stroke="#000000" stroke-width="2" stroke-linecap="round" stroke-linejoin="round" d="M 214 40 c -0.14 0.23 -5.62 8.4 -8 13 c -7.12 13.73 -13.76 27.03 -20 41 c -2.16 4.84 -3 9.99 -5 15 c -5.51 13.76 -11.61 26.29 -17 40 c -2.08 5.29 -5 16 -5 16"/><path fill="none" stroke="#000000" stroke-width="2" stroke-linecap="round" stroke-linejoin="round" d="M 177 127 c 0.1 0.09 4.28 3.14 6 5 c 2.2 2.38 4.6 5.11 6 8 c 3.77 7.77 10 25 10 25"/><path fill="none" stroke="#000000" stroke-width="2" stroke-linecap="round" stroke-linejoin="round" d="M 199 127 c 0.07 -0.12 2.36 -5.08 4 -7 c 2.16 -2.53 5.22 -4.86 8 -7 c 1.53 -1.17 3.3 -2.55 5 -3 c 2.92 -0.78 7.94 -2.09 10 -1 c 2.5 1.32 5.41 6.53 7 10 c 1.9 4.14 3.52 9.5 4 14 c 0.47 4.34 -1 14 -1 14"/><path fill="none" stroke="#000000" stroke-width="2" stroke-linecap="round" stroke-linejoin="round" d="M 199 170 c 0.35 -0.09 13.43 -3.05 20 -5 c 2.43 -0.72 7 -3 7 -3"/></svg>