<?xml version="1.0" encoding="UTF-8" standalone="no"?><!DOCTYPE svg PUBLIC "-//W3C//DTD SVG 1.1//EN" "http://www.w3.org/Graphics/SVG/1.1/DTD/svg11.dtd"><svg xmlns="http://www.w3.org/2000/svg" version="1.1" width="253" height="196"><path fill="none" stroke="#000000" stroke-width="2" stroke-linecap="round" stroke-linejoin="round" d="M 1 48 c 0.07 0.21 2.3 8.25 4 12 c 1.57 3.46 6 10 6 10"/><path fill="none" stroke="#000000" stroke-width="2" stroke-linecap="round" stroke-linejoin="round" d="M 21 49 c 0.49 -0.37 18.09 -14.86 28 -21 c 13.8 -8.55 29.32 -16.44 43 -23 c 1.98 -0.95 5.44 -1.57 7 -1 c 1.41 0.51 3.75 3.31 4 5 c 0.6 3.98 0.23 10.4 -1 15 c -2.28 8.52 -10 26 -10 26"/><path fill="none" stroke="#000000" stroke-width="2" stroke-linecap="round" stroke-linejoin="round" d="M 30 89 c 0.45 -0.26 17.48 -9.51 26 -15 c 6.7 -4.32 19 -14 19 -14"/><path fill="none" stroke="#000000" stroke-width="2" stroke-linecap="round" stroke-linejoin="round" d="M 79 37 c -0.09 0.12 -3.64 4.48 -5 7 c -5.64 10.48 -11.55 21.05 -16 32 c -3.51 8.62 -6.01 18.27 -8 27 c -0.57 2.48 -0.55 5.97 0 8 c 0.29 1.07 1.89 2.39 3 3 c 1.65 0.92 4.08 1.89 6 2 c 3.35 0.2 7.45 -0.32 11 -1 c 3.36 -0.64 6.73 -1.71 10 -3 c 7.86 -3.1 15.68 -6.47 23 -10 l 4 -3"/><path fill="none" stroke="#000000" stroke-width="2" stroke-linecap="round" stroke-linejoin="round" d="M 105 81 c -0.05 0.14 -2.37 5.32 -3 8 c -0.67 2.84 -0.86 5.92 -1 9 c -0.54 11.58 -1.76 22.8 -1 34 c 0.9 13.32 4.49 26.4 6 40 c 0.86 7.74 1 23 1 23"/><path fill="none" stroke="#000000" stroke-width="2" stroke-linecap="round" stroke-linejoin="round" d="M 69 164 c 0.14 -0.16 5 -6.42 8 -9 c 6.57 -5.66 13.64 -10.97 21 -16 c 6.5 -4.44 13.76 -7.57 20 -12 c 3.98 -2.82 7.12 -6.86 11 -10 c 3.19 -2.58 10 -7 10 -7"/><path fill="none" stroke="#000000" stroke-width="2" stroke-linecap="round" stroke-linejoin="round" d="M 174 23 c 0.18 -0.14 6.43 -5.71 10 -8 c 5.74 -3.69 11.81 -6.78 18 -10 c 2.29 -1.19 4.66 -2.48 7 -3 c 3.4 -0.75 8.58 -1.99 11 -1 c 2.19 0.9 4.83 5.32 6 8 c 0.94 2.16 0.91 5.29 1 8 c 0.24 7.05 0.53 14.06 0 21 c -0.46 6.03 -3 18 -3 18"/><path fill="none" stroke="#000000" stroke-width="2" stroke-linecap="round" stroke-linejoin="round" d="M 173 68 c 0.24 -0.16 9.07 -6.94 14 -9 c 10.6 -4.41 22.59 -6.85 34 -11 c 7.3 -2.65 14.22 -5.73 21 -9 c 2.14 -1.03 6 -4 6 -4"/><path fill="none" stroke="#000000" stroke-width="2" stroke-linecap="round" stroke-linejoin="round" d="M 157 99 c 0.46 -0.21 16.94 -8.29 26 -12 c 13.51 -5.53 27.09 -9.37 40 -15 c 5.29 -2.31 15 -9 15 -9"/><path fill="none" stroke="#000000" stroke-width="2" stroke-linecap="round" stroke-linejoin="round" d="M 218 39 c -0.21 0.4 -7.55 15.41 -12 23 c -4.71 8.03 -9.55 15.29 -15 23 c -11.07 15.68 -22.31 29.65 -33 45 c -2.4 3.45 -3.81 7.49 -6 11 c -1.12 1.79 -2.99 3.2 -4 5 c -1.91 3.39 -5 11 -5 11"/><path fill="none" stroke="#000000" stroke-width="2" stroke-linecap="round" stroke-linejoin="round" d="M 182 122 c 0.11 0.28 5.23 10.7 6 16 c 1.45 9.93 1 32 1 32"/><path fill="none" stroke="#000000" stroke-width="2" stroke-linecap="round" stroke-linejoin="round" d="M 187 138 c 0.21 -0.14 7.79 -5.53 12 -8 c 5.62 -3.3 11.18 -6.39 17 -9 c 3.83 -1.72 8.12 -3.14 12 -4 c 1.84 -0.41 4.45 -0.56 6 0 c 1.65 0.6 4.3 2.38 5 4 c 1.9 4.43 3.55 11.45 4 17 c 0.52 6.36 -1 20 -1 20"/><path fill="none" stroke="#000000" stroke-width="2" stroke-linecap="round" stroke-linejoin="round" d="M 199 175 c 0.32 -0.16 12.12 -6.55 18 -9 c 1.78 -0.74 4.15 -0.31 6 -1 c 9.55 -3.55 29 -12 29 -12"/></svg>