<?xml version="1.0" encoding="UTF-8" standalone="no"?><!DOCTYPE svg PUBLIC "-//W3C//DTD SVG 1.1//EN" "http://www.w3.org/Graphics/SVG/1.1/DTD/svg11.dtd"><svg xmlns="http://www.w3.org/2000/svg" version="1.1" width="270" height="181"><path fill="none" stroke="#000000" stroke-width="2" stroke-linecap="round" stroke-linejoin="round" d="M 2 50 c 0.12 -0.12 4.41 -5.27 7 -7 c 4.09 -2.73 9.13 -4.87 14 -7 c 6.01 -2.63 12.06 -5.24 18 -7 c 2.79 -0.83 9 -1 9 -1"/><path fill="none" stroke="#000000" stroke-width="2" stroke-linecap="round" stroke-linejoin="round" d="M 1 105 c 0.21 -0.16 7.82 -6.21 12 -9 c 2.87 -1.91 5.83 -3.53 9 -5 c 10.76 -4.99 32 -14 32 -14"/><path fill="none" stroke="#000000" stroke-width="2" stroke-linecap="round" stroke-linejoin="round" d="M 41 60 c -0.02 0.42 -1.48 15.99 -1 24 c 1.2 20.12 4.65 40.09 6 60 c 0.31 4.63 0.07 9.91 -1 14 c -0.78 3 -2.9 6.9 -5 9 c -2.1 2.1 -6 3.62 -9 5 c -1.2 0.55 -2.8 1.16 -4 1 c -3.31 -0.44 -8.38 -1.5 -11 -3 c -1.34 -0.77 -2.25 -3.25 -3 -5 c -1.22 -2.84 -3 -9 -3 -9"/><path fill="none" stroke="#000000" stroke-width="2" stroke-linecap="round" stroke-linejoin="round" d="M 98 28 c 0.12 0.11 4.96 3.8 7 6 c 2.22 2.39 6 8 6 8"/><path fill="none" stroke="#000000" stroke-width="2" stroke-linecap="round" stroke-linejoin="round" d="M 79 96 l 53 -26"/><path fill="none" stroke="#000000" stroke-width="2" stroke-linecap="round" stroke-linejoin="round" d="M 115 101 c -0.05 0.16 -2.58 6.05 -3 9 c -0.53 3.73 0 12 0 12"/><path fill="none" stroke="#000000" stroke-width="2" stroke-linecap="round" stroke-linejoin="round" d="M 135 94 c -0.05 0.35 -1.66 13.31 -3 20 c -1.03 5.14 -4 15 -4 15"/><path fill="none" stroke="#000000" stroke-width="2" stroke-linecap="round" stroke-linejoin="round" d="M 89 163 l 66 -23"/><path fill="none" stroke="#000000" stroke-width="2" stroke-linecap="round" stroke-linejoin="round" d="M 163 37 c 0.12 0.19 4.9 7.26 7 11 c 0.87 1.55 2 5 2 5"/><path fill="none" stroke="#000000" stroke-width="2" stroke-linecap="round" stroke-linejoin="round" d="M 188 22 c 0.14 -0.12 5.12 -5.16 8 -7 c 4.25 -2.7 9.15 -4.69 14 -7 c 2.36 -1.12 4.59 -2.32 7 -3 c 5.85 -1.64 12.38 -3.3 18 -4 c 1.85 -0.23 4.85 0.14 6 1 c 1.02 0.76 1.64 3.32 2 5 c 0.61 2.83 1 9 1 9"/><path fill="none" stroke="#000000" stroke-width="2" stroke-linecap="round" stroke-linejoin="round" d="M 175 71 l 44 -19"/><path fill="none" stroke="#000000" stroke-width="2" stroke-linecap="round" stroke-linejoin="round" d="M 210 41 c -0.1 0.16 -4.3 5.82 -6 9 c -3.31 6.19 -6.28 12.58 -9 19 c -0.94 2.22 -1.89 4.74 -2 7 c -0.21 4.36 0.02 10.86 1 14 c 0.31 1 2.68 1.83 4 2 c 3.55 0.44 8.27 0.81 12 0 c 11.02 -2.4 23.13 -6.29 34 -10 c 2.47 -0.84 7 -4 7 -4"/><path fill="none" stroke="#000000" stroke-width="2" stroke-linecap="round" stroke-linejoin="round" d="M 238 63 c -0.09 0.19 -4.19 7.3 -5 11 c -1.41 6.45 -2.24 14.1 -2 21 c 0.42 12.18 2.25 24.38 4 37 c 1.34 9.64 4.03 18.66 5 28 c 0.68 6.57 0 20 0 20"/><path fill="none" stroke="#000000" stroke-width="2" stroke-linecap="round" stroke-linejoin="round" d="M 204 126 l 65 -18"/></svg>