<?xml version="1.0" encoding="UTF-8" standalone="no"?><!DOCTYPE svg PUBLIC "-//W3C//DTD SVG 1.1//EN" "http://www.w3.org/Graphics/SVG/1.1/DTD/svg11.dtd"><svg xmlns="http://www.w3.org/2000/svg" version="1.1" width="190" height="153"><path fill="none" stroke="#000000" stroke-width="2" stroke-linecap="round" stroke-linejoin="round" d="M 99 19 c -0.04 0.19 -1.75 7.32 -2 11 c -0.41 5.93 -0.99 13.04 0 18 c 0.47 2.37 3.14 5.76 5 7 c 1.53 1.02 4.66 1 7 1 c 9.59 0 20.17 0.99 29 -1 c 10.8 -2.44 22.99 -8 33 -13 c 4.01 -2 8.35 -5.61 11 -9 c 2.92 -3.74 5.74 -9.5 7 -14 c 0.88 -3.16 0.24 -7.46 0 -11 c -0.09 -1.33 -0.33 -3.2 -1 -4 c -0.73 -0.87 -2.64 -1.63 -4 -2 c -2.14 -0.58 -4.64 -0.91 -7 -1 c -6.34 -0.24 -13.21 -0.8 -19 0 c -3.28 0.45 -7.51 2.18 -10 4 c -1.99 1.46 -3.89 4.54 -5 7 c -1.75 3.9 -3.54 8.67 -4 13 c -1.15 10.82 -1.87 23.54 -1 34 c 0.38 4.57 3.66 9.18 5 14 c 2.03 7.32 3.79 14.77 5 22 c 0.43 2.57 0.65 5.9 0 8 c -0.52 1.68 -2.34 4.14 -4 5 c -7 3.62 -16.62 7.63 -25 10 c -6.6 1.87 -13.84 2.54 -21 3 c -18.91 1.23 -37.44 0.69 -56 2 c -5.07 0.36 -10.39 1.33 -15 3 c -6.06 2.2 -12.56 5.78 -18 9 c -1.53 0.9 -2.98 2.54 -4 4 c -1.21 1.73 -2.38 3.99 -3 6 l -1 7"/></svg>