<?xml version="1.0" encoding="UTF-8" standalone="no"?><!DOCTYPE svg PUBLIC "-//W3C//DTD SVG 1.1//EN" "http://www.w3.org/Graphics/SVG/1.1/DTD/svg11.dtd"><svg xmlns="http://www.w3.org/2000/svg" version="1.1" width="221" height="196"><path fill="none" stroke="#000000" stroke-width="2" stroke-linecap="round" stroke-linejoin="round" d="M 157 1 c -0.1 0.09 -4.78 3.11 -6 5 c -1.48 2.3 -2.75 6.03 -3 9 c -0.7 8.14 -1.95 18.64 0 26 c 1.98 7.47 8.27 16.24 13 23 c 1.9 2.72 5.15 5.43 8 7 c 3.39 1.86 8.11 3.66 12 4 c 6.78 0.6 15.43 0.23 22 -1 c 3.33 -0.63 10 -5 10 -5"/><path fill="none" stroke="#000000" stroke-width="2" stroke-linecap="round" stroke-linejoin="round" d="M 220 44 c -0.07 -0.02 -2.67 -0.96 -4 -1 c -10 -0.29 -20.94 -0.82 -31 0 c -5.98 0.49 -12.54 1.95 -18 4 c -4.78 1.79 -9.71 4.96 -14 8 c -3.58 2.54 -7.65 5.71 -10 9 c -2.27 3.18 -4.32 8.02 -5 12 c -1.21 7.05 -1.19 15.36 -1 23 c 0.14 5.68 1.57 11.25 2 17 c 0.25 3.36 0.98 7.48 0 10 c -1.04 2.67 -4.28 6.29 -7 8 c -5.61 3.53 -13.43 5.62 -20 9 c -5.24 2.7 -9.71 6.31 -15 9 c -14.07 7.16 -27.68 13.9 -42 20 c -6.13 2.61 -12.75 3.53 -19 6 c -9.96 3.94 -19.53 8.4 -29 13 l -6 4"/></svg>