<?xml version="1.0" encoding="UTF-8" standalone="no"?><!DOCTYPE svg PUBLIC "-//W3C//DTD SVG 1.1//EN" "http://www.w3.org/Graphics/SVG/1.1/DTD/svg11.dtd"><svg xmlns="http://www.w3.org/2000/svg" version="1.1" width="106" height="221"><path fill="none" stroke="#000000" stroke-width="2" stroke-linecap="round" stroke-linejoin="round" d="M 1 1 c 0.14 0.16 5.07 6.16 8 9 c 7.92 7.67 16.24 14.1 24 22 c 11.31 11.51 22.51 23.61 32 35 c 1.52 1.83 2.54 4.72 3 7 c 0.48 2.39 0 8 0 8"/><path fill="none" stroke="#000000" stroke-width="2" stroke-linecap="round" stroke-linejoin="round" d="M 95 165 c 0.04 0.25 0.98 9.51 2 14 c 0.62 2.71 2.48 5.3 3 8 c 1.1 5.73 1.08 11.91 2 18 c 0.78 5.15 3 15 3 15"/></svg>