<?xml version="1.0" encoding="UTF-8" standalone="no"?><!DOCTYPE svg PUBLIC "-//W3C//DTD SVG 1.1//EN" "http://www.w3.org/Graphics/SVG/1.1/DTD/svg11.dtd"><svg xmlns="http://www.w3.org/2000/svg" version="1.1" width="219" height="185"><path fill="none" stroke="#000000" stroke-width="2" stroke-linecap="round" stroke-linejoin="round" d="M 78 1 c -0.07 0.03 -3.86 0.98 -4 2 c -1.08 7.98 -3.32 24.77 -1 35 c 2.91 12.82 10.71 28.69 18 40 c 4.58 7.11 12.73 15.24 20 19 c 10.43 5.39 25.33 8.54 38 11 c 9.31 1.81 19.06 1.62 29 2 c 7.87 0.3 16.08 1.12 23 0 c 4.58 -0.74 10.42 -3.68 14 -6 c 1.37 -0.89 2.79 -3.39 3 -5 c 0.37 -2.78 0.62 -8.38 -1 -10 c -2.61 -2.61 -10.03 -5.38 -15 -6 c -12.63 -1.58 -28.36 -2.38 -41 -1 c -7.5 0.82 -16.48 4.46 -23 8 c -4.36 2.37 -9.22 6.89 -12 11 c -3.75 5.53 -6.99 13.29 -9 20 c -1.86 6.19 -2.25 13.12 -3 20 c -0.96 8.87 -0.71 20 -2 26 c -0.22 1.03 -2.65 1.8 -4 2 c -4.84 0.73 -10.68 0.26 -16 1 c -6.77 0.94 -13.07 2.93 -20 4 c -24.35 3.75 -71 10 -71 10"/></svg>