<?xml version="1.0" encoding="UTF-8" standalone="no"?><!DOCTYPE svg PUBLIC "-//W3C//DTD SVG 1.1//EN" "http://www.w3.org/Graphics/SVG/1.1/DTD/svg11.dtd"><svg xmlns="http://www.w3.org/2000/svg" version="1.1" width="298" height="221"><path fill="none" stroke="#000000" stroke-width="2" stroke-linecap="round" stroke-linejoin="round" d="M 14 91 c 0.09 -0.14 2.95 -5.84 5 -8 c 4.02 -4.23 9.04 -8.11 14 -12 c 7.7 -6.03 14.97 -11.89 23 -17 c 6.66 -4.24 14.34 -7.06 21 -11 c 2.19 -1.3 6 -5 6 -5"/><path fill="none" stroke="#000000" stroke-width="2" stroke-linecap="round" stroke-linejoin="round" d="M 43 71 c -0.33 0.65 -12.78 24.15 -19 37 c -4.08 8.44 -7.45 16.33 -11 25 c -2.63 6.43 -4.88 12.46 -7 19 c -1.62 5.02 -2.9 9.92 -4 15 c -0.57 2.64 -1 8 -1 8"/><path fill="none" stroke="#000000" stroke-width="2" stroke-linecap="round" stroke-linejoin="round" d="M 11 134 c 0.11 -0.16 3.74 -6.39 6 -9 c 1.93 -2.23 4.89 -3.77 7 -6 c 4.23 -4.45 7.66 -10.2 12 -14 c 3.27 -2.86 7.94 -4.97 12 -7 c 1.85 -0.92 4.64 -2.45 6 -2 c 1.82 0.61 4.69 3.88 6 6 c 1.12 1.82 1.91 4.72 2 7 c 0.23 5.95 -0.35 12.68 -1 19 c -0.35 3.39 -1.09 6.65 -2 10 c -3.17 11.63 -8.54 31.18 -10 34 l -4 -7"/><path fill="none" stroke="#000000" stroke-width="2" stroke-linecap="round" stroke-linejoin="round" d="M 38 38 c 0.37 0.68 13.21 26.79 21 39 c 4.37 6.85 11.01 12.19 16 19 c 13.71 18.7 25.81 37.72 39 56 c 1.37 1.89 3.16 3.62 5 5 c 3.4 2.55 7.26 4.9 11 7 l 5 2"/><path fill="none" stroke="#000000" stroke-width="2" stroke-linecap="round" stroke-linejoin="round" d="M 135 109 c -0.28 0.19 -11.72 6.54 -16 11 c -10.81 11.27 -31 38 -31 38"/><path fill="none" stroke="#000000" stroke-width="2" stroke-linecap="round" stroke-linejoin="round" d="M 102 41 c -0.1 -0.17 -3.82 -7.16 -6 -10 c -0.94 -1.22 -2.75 -2.72 -4 -3 c -1.28 -0.28 -5 0.78 -5 1 c 0 0.22 5 1 5 1"/><path fill="none" stroke="#000000" stroke-width="2" stroke-linecap="round" stroke-linejoin="round" d="M 17 159 c 0.16 0.3 6.24 11.11 9 17 c 2.32 4.95 3.66 10.14 6 15 c 2.01 4.18 7 12 7 12"/><path fill="none" stroke="#000000" stroke-width="2" stroke-linecap="round" stroke-linejoin="round" d="M 28 176 c 0.02 -0.07 0.32 -2.98 1 -4 c 1.75 -2.63 4.41 -5.67 7 -8 c 4 -3.6 8.43 -6.95 13 -10 c 4.49 -2.99 9.14 -6.03 14 -8 c 7.24 -2.94 15.36 -5.3 23 -7 c 4.14 -0.92 9.58 -1.57 13 -1 c 1.68 0.28 4.48 2.43 5 4 c 1.15 3.44 1.53 9.63 1 14 c -0.74 6.11 -2.92 13.21 -5 19 l -4 6"/><path fill="none" stroke="#000000" stroke-width="2" stroke-linecap="round" stroke-linejoin="round" d="M 56 175 c 0.04 0.25 2.31 9.76 2 14 c -0.3 4.08 -4 13 -4 13"/><path fill="none" stroke="#000000" stroke-width="2" stroke-linecap="round" stroke-linejoin="round" d="M 74 158 c 0.07 0.26 3.62 10.41 4 15 c 0.23 2.73 -1.01 6.19 -2 9 c -0.96 2.72 -4 8 -4 8"/><path fill="none" stroke="#000000" stroke-width="2" stroke-linecap="round" stroke-linejoin="round" d="M 27 216 c 0.02 0.07 0.31 3.54 1 4 c 0.84 0.56 3.41 0.25 5 0 c 2.63 -0.4 5.41 -1.09 8 -2 c 4.09 -1.43 8.11 -2.96 12 -5 c 16.06 -8.44 30.57 -17.64 47 -26 c 21.34 -10.87 63 -30 63 -30"/><path fill="none" stroke="#000000" stroke-width="2" stroke-linecap="round" stroke-linejoin="round" d="M 179 71 c -0.07 -0.02 -4.31 -0.75 -4 -1 c 4.65 -3.74 32.57 -23.93 50 -36 c 9.42 -6.52 18.7 -11.58 28 -18 c 4.97 -3.43 9.72 -7.22 14 -11 l 3 -4"/><path fill="none" stroke="#000000" stroke-width="2" stroke-linecap="round" stroke-linejoin="round" d="M 225 1 c -0.02 0.33 -1.13 12.6 -1 19 c 0.2 9.78 0.97 19.03 2 29 c 2.77 26.94 7.03 54.04 9 78 c 0.18 2.22 -1.07 4.95 -2 7 c -0.64 1.41 -1.85 2.99 -3 4 l -5 3"/><path fill="none" stroke="#000000" stroke-width="2" stroke-linecap="round" stroke-linejoin="round" d="M 216 81 c -0.23 0.44 -8.24 16.62 -13 25 c -5.16 9.08 -10.2 17.4 -16 26 c -4.75 7.04 -9.61 14.2 -15 20 c -2.93 3.16 -11 8 -11 8"/><path fill="none" stroke="#000000" stroke-width="2" stroke-linecap="round" stroke-linejoin="round" d="M 250 47 c 0.12 0.07 5.56 2.13 7 4 c 4.55 5.92 8.57 15.07 13 22 c 0.74 1.15 1.89 2.44 3 3 c 1.91 0.96 5.06 2.15 7 2 c 1.79 -0.14 6 -3 6 -3"/><path fill="none" stroke="#000000" stroke-width="2" stroke-linecap="round" stroke-linejoin="round" d="M 181 161 c 0.11 0.18 3.7 6.89 6 10 c 3.36 4.55 7.8 8.52 11 13 c 1.68 2.35 2.38 5.84 4 8 c 1.16 1.55 3.95 3.85 5 4 l 2 -3"/><path fill="none" stroke="#000000" stroke-width="2" stroke-linecap="round" stroke-linejoin="round" d="M 241 146 l 5 35"/><path fill="none" stroke="#000000" stroke-width="2" stroke-linecap="round" stroke-linejoin="round" d="M 263 128 c 0.09 0.26 3.83 9.86 5 15 c 2.17 9.56 5 29 5 29"/><path fill="none" stroke="#000000" stroke-width="2" stroke-linecap="round" stroke-linejoin="round" d="M 285 109 c 0.11 0.16 4.58 5.87 6 9 c 1.79 3.93 2.89 8.56 4 13 c 0.91 3.65 2 11 2 11"/></svg>