<?xml version="1.0" encoding="UTF-8" standalone="no"?><!DOCTYPE svg PUBLIC "-//W3C//DTD SVG 1.1//EN" "http://www.w3.org/Graphics/SVG/1.1/DTD/svg11.dtd"><svg xmlns="http://www.w3.org/2000/svg" version="1.1" width="272" height="152"><path fill="none" stroke="#000000" stroke-width="2" stroke-linecap="round" stroke-linejoin="round" d="M 3 27 c -0.03 1.31 -1.76 49.21 -2 75 c -0.11 11.69 0.19 23.46 1 34 c 0.13 1.67 2 5.17 2 5 c 0 -0.71 -2 -22 -2 -22"/><path fill="none" stroke="#000000" stroke-width="2" stroke-linecap="round" stroke-linejoin="round" d="M 17 40 c 0.23 -0.21 8.14 -9.78 13 -12 c 13.29 -6.08 31.48 -9.1 46 -15 c 6.33 -2.57 12.14 -7.81 18 -11 c 1.14 -0.62 3.09 -1.42 4 -1 c 2.05 0.93 6.55 3.67 7 6 c 1.72 8.84 1.2 23.2 1 35 c -0.13 7.78 -1.65 15.15 -2 23 c -0.33 7.48 -0.47 14.55 0 22 c 0.89 13.94 2.07 27.25 4 41 c 1.1 7.85 6.03 20.81 5 23 c -0.63 1.33 -8.7 -3.7 -13 -6 c -10.36 -5.54 -19.61 -11.9 -30 -17 c -8.78 -4.31 -18.31 -7.05 -27 -11 c -2.15 -0.98 -4.3 -2.46 -6 -4 c -1.84 -1.67 -5 -4.48 -5 -6 c 0 -1.52 3.03 -4.6 5 -6 c 4.62 -3.3 10.36 -6.36 16 -9 c 21.2 -9.93 44.97 -20.84 63 -28 c 1.33 -0.53 4.58 0.09 5 1 c 0.82 1.79 0.41 6.71 0 10 c -1.25 10.01 -3.92 20.81 -5 30 c -0.15 1.25 0.37 3.79 1 4 c 0.82 0.27 3.84 -0.91 5 -2 c 3.67 -3.44 7.84 -8.32 11 -13 c 5.82 -8.62 11.07 -17.54 16 -27 c 7.31 -14.02 13.01 -28.31 20 -42 c 1.29 -2.53 5.07 -7.3 5 -7 c -0.5 2.06 -16.69 52.55 -17 56 c -0.09 1.04 9.34 -7.54 13 -12 c 6.83 -8.33 12.45 -18.26 19 -27 c 1.4 -1.87 4.72 -5.55 5 -5 c 0.59 1.17 1.13 10.37 0 15 c -5.26 21.58 -14.28 45.54 -20 67 c -0.65 2.46 -0.87 7.25 0 8 c 0.8 0.68 5.17 -0.78 7 -2 c 4.63 -3.09 9.39 -7.72 14 -12 c 4.95 -4.6 9.03 -9.76 14 -14 c 3.97 -3.38 8.49 -6.37 13 -9 c 3.44 -2.01 7.21 -3.64 11 -5 c 4.57 -1.64 9.3 -2.39 14 -4 l 24 -9"/></svg>