<?xml version="1.0" encoding="UTF-8" standalone="no"?><!DOCTYPE svg PUBLIC "-//W3C//DTD SVG 1.1//EN" "http://www.w3.org/Graphics/SVG/1.1/DTD/svg11.dtd"><svg xmlns="http://www.w3.org/2000/svg" version="1.1" width="148" height="185"><path fill="none" stroke="#000000" stroke-width="2" stroke-linecap="round" stroke-linejoin="round" d="M 1 1 c 0.47 0.14 17.92 4.97 27 8 c 5.21 1.74 9.84 4.28 15 6 c 4.96 1.65 9.96 3.07 15 4 c 3.91 0.72 8.34 0.13 12 1 c 3 0.71 7.87 2.3 9 4 c 0.93 1.39 0.25 6 -1 8 c -6.19 9.91 -15.36 21.56 -24 32 c -7.64 9.23 -16.3 16.94 -24 26 c -3.74 4.41 -9.8 13.77 -10 14 c -0.08 0.09 1.47 -4.8 3 -6 c 6.77 -5.32 16.56 -11.31 25 -16 c 3.33 -1.85 7.26 -2.98 11 -4 c 3.57 -0.97 11.27 -2.99 11 -2 c -0.79 2.93 -11.31 19.33 -18 28 c -5.54 7.19 -12.42 13.66 -19 20 c -2.39 2.3 -7.27 4.84 -8 6 c -0.26 0.42 2.09 2.07 3 2 c 2.62 -0.2 6.87 -1.71 10 -3 c 2.42 -1 4.61 -3.1 7 -4 c 2.73 -1.02 6.21 -1.8 9 -2 c 1.54 -0.11 3.95 0.21 5 1 c 1.2 0.9 2.77 3.4 3 5 c 0.36 2.49 -0.28 6.13 -1 9 c -1.25 5.01 -3.03 9.97 -5 15 c -4.18 10.69 -13 31 -13 31"/><path fill="none" stroke="#000000" stroke-width="2" stroke-linecap="round" stroke-linejoin="round" d="M 119 54 c 0.02 0.1 1.11 4.1 1 6 c -0.21 3.8 -0.87 8.2 -2 12 c -1.5 5.05 -3.55 10.26 -6 15 c -2.86 5.54 -6.07 11.24 -10 16 c -6.92 8.39 -15.22 17.36 -23 24 c -2.83 2.41 -10.67 4.95 -11 5 c -0.17 0.03 3.2 -2.86 5 -4 c 4.54 -2.86 9.09 -5.38 14 -8 c 10.63 -5.67 21.18 -9.96 31 -16 c 7.43 -4.57 14.09 -10.47 21 -16 c 1.48 -1.18 3.13 -2.61 4 -4 l 1 -4"/><path fill="none" stroke="#000000" stroke-width="2" stroke-linecap="round" stroke-linejoin="round" d="M 86 41 c 0.09 0.35 3.56 13.08 5 20 c 2.34 11.26 4.33 21.66 6 33 c 1.41 9.52 2.31 18.35 3 28 c 1.03 14.4 1.14 39.76 2 42 c 0.37 0.95 6.02 -10.55 8 -16 c 1.93 -5.32 1.74 -12.17 4 -17 c 2.41 -5.14 7.22 -10.75 11 -15 c 1.18 -1.33 3.92 -3.46 5 -3 c 2.37 1.01 7.59 5.59 9 9 c 3.66 8.83 8 32 8 32"/></svg>