<?xml version="1.0" encoding="UTF-8" standalone="no"?><!DOCTYPE svg PUBLIC "-//W3C//DTD SVG 1.1//EN" "http://www.w3.org/Graphics/SVG/1.1/DTD/svg11.dtd"><svg xmlns="http://www.w3.org/2000/svg" version="1.1" width="296" height="178"><path fill="none" stroke="#000000" stroke-width="2" stroke-linecap="round" stroke-linejoin="round" d="M 1 50 c 0.11 0.02 4.12 1.12 6 1 c 3.15 -0.2 6.8 -0.88 10 -2 c 27.09 -9.53 81 -30 81 -30"/><path fill="none" stroke="#000000" stroke-width="2" stroke-linecap="round" stroke-linejoin="round" d="M 29 60 c 0.02 0.18 1 6.64 1 10 c 0 7.35 -0.18 14.65 -1 22 c -0.87 7.79 -2.11 15.42 -4 23 c -2.13 8.52 -8 25 -8 25"/><path fill="none" stroke="#000000" stroke-width="2" stroke-linecap="round" stroke-linejoin="round" d="M 29 95 c 0.18 -0.11 6.48 -4.24 10 -6 c 7.29 -3.65 14.69 -7.42 22 -10 c 3.68 -1.3 8.76 -2 12 -2 c 0.96 0 2.53 1.18 3 2 c 0.66 1.16 1.21 3.46 1 5 c -1.02 7.41 -2.9 16.28 -5 24 c -0.85 3.1 -2.4 6.41 -4 9 c -0.92 1.49 -2.68 3.6 -4 4 c -1.42 0.43 -4.38 -0.26 -6 -1 c -1.71 -0.78 -3.52 -2.52 -5 -4 c -1.81 -1.81 -3.7 -3.89 -5 -6 l -3 -7"/><path fill="none" stroke="#000000" stroke-width="2" stroke-linecap="round" stroke-linejoin="round" d="M 51 20 c 0.14 0.21 4.97 8.16 8 12 c 14.95 18.9 30.47 35.69 45 55 c 12.36 16.43 34 50 34 50"/><path fill="none" stroke="#000000" stroke-width="2" stroke-linecap="round" stroke-linejoin="round" d="M 109 67 c -0.09 0.26 -2.73 10.35 -5 15 c -4.31 8.84 -15 26 -15 26"/><path fill="none" stroke="#000000" stroke-width="2" stroke-linecap="round" stroke-linejoin="round" d="M 74 1 l 1 12"/><path fill="none" stroke="#000000" stroke-width="2" stroke-linecap="round" stroke-linejoin="round" d="M 14 125 c 0.02 0.07 0.35 2.91 1 4 c 2.15 3.58 5.83 7.16 8 11 c 2.07 3.67 3.82 7.95 5 12 c 1.11 3.79 1.15 7.98 2 12 c 0.51 2.4 1.15 4.87 2 7 l 2 3"/><path fill="none" stroke="#000000" stroke-width="2" stroke-linecap="round" stroke-linejoin="round" d="M 57 125 c 0.74 -0.35 27.83 -14.19 42 -20 c 5.98 -2.45 12.82 -3.71 19 -5 c 1.57 -0.33 3.83 -0.59 5 0 c 1.66 0.83 4.8 3.23 5 5 c 0.62 5.54 -0.52 15.46 -2 22 c -0.69 3.05 -3.03 6.22 -5 9 c -3.68 5.19 -12 15 -12 15"/><path fill="none" stroke="#000000" stroke-width="2" stroke-linecap="round" stroke-linejoin="round" d="M 61 138 c 0.02 0.14 1.12 5.42 1 8 c -0.21 4.53 -1.03 9.87 -2 14 c -0.25 1.05 -2 3 -2 3"/><path fill="none" stroke="#000000" stroke-width="2" stroke-linecap="round" stroke-linejoin="round" d="M 119 118 c -0.16 0.23 -5.77 8.76 -9 13 c -2.17 2.85 -4.38 5.65 -7 8 c -7.02 6.29 -22 18 -22 18"/><path fill="none" stroke="#000000" stroke-width="2" stroke-linecap="round" stroke-linejoin="round" d="M 30 177 c 0.47 -0.14 17.69 -5.52 27 -8 c 6.1 -1.63 11.72 -2.76 18 -4 c 35.71 -7.08 103 -20 103 -20"/><path fill="none" stroke="#000000" stroke-width="2" stroke-linecap="round" stroke-linejoin="round" d="M 169 54 c 0.14 -0.07 5.18 -2.87 8 -4 c 24.36 -9.75 49.14 -18.67 72 -28 c 1.48 -0.6 4 -3 4 -3"/><path fill="none" stroke="#000000" stroke-width="2" stroke-linecap="round" stroke-linejoin="round" d="M 235 3 c -0.02 1.22 -1.43 46.2 -1 70 c 0.25 13.64 3 40 3 40"/><path fill="none" stroke="#000000" stroke-width="2" stroke-linecap="round" stroke-linejoin="round" d="M 200 80 l -53 51"/><path fill="none" stroke="#000000" stroke-width="2" stroke-linecap="round" stroke-linejoin="round" d="M 249 67 c 0.04 0.16 1.09 6.1 2 9 c 0.75 2.39 1.73 4.94 3 7 c 1.3 2.11 3.1 4.64 5 6 c 2.4 1.71 5.95 3.08 9 4 c 3.46 1.04 7.44 1.83 11 2 c 3.2 0.15 6.79 -0.4 10 -1 l 6 -2"/><path fill="none" stroke="#000000" stroke-width="2" stroke-linecap="round" stroke-linejoin="round" d="M 180 133 c -0.14 0.04 -6.42 0.95 -8 2 c -0.79 0.53 -1.15 2.95 -1 4 c 0.13 0.92 1.61 1.92 2 3 c 2.49 6.93 4.24 15.1 7 22 c 1.13 2.82 5 8 5 8"/><path fill="none" stroke="#000000" stroke-width="2" stroke-linecap="round" stroke-linejoin="round" d="M 208 140 c 0.16 0.35 5.86 13.98 9 20 c 0.61 1.16 3 3 3 3"/><path fill="none" stroke="#000000" stroke-width="2" stroke-linecap="round" stroke-linejoin="round" d="M 246 135 c 0.16 0.52 5.81 20.14 9 30 c 0.46 1.41 1.09 3.55 2 4 c 1.22 0.61 6 0 6 0"/><path fill="none" stroke="#000000" stroke-width="2" stroke-linecap="round" stroke-linejoin="round" d="M 279 129 c 0.03 0.21 0.98 8.08 2 12 c 1.32 5.09 5 15 5 15"/></svg>