<?xml version="1.0" encoding="UTF-8" standalone="no"?><!DOCTYPE svg PUBLIC "-//W3C//DTD SVG 1.1//EN" "http://www.w3.org/Graphics/SVG/1.1/DTD/svg11.dtd"><svg xmlns="http://www.w3.org/2000/svg" version="1.1" width="321" height="199"><path fill="none" stroke="#000000" stroke-width="2" stroke-linecap="round" stroke-linejoin="round" d="M 1 62 c 0.11 0.02 4.04 1.09 6 1 c 12.29 -0.56 25.12 -1.43 38 -3 c 12.33 -1.5 24.12 -3.52 36 -6 c 4.12 -0.86 8.45 -2.22 12 -4 c 2.81 -1.4 5.46 -3.83 8 -6 c 2.15 -1.85 4.51 -3.85 6 -6 c 1.33 -1.93 3 -7 3 -7"/><path fill="none" stroke="#000000" stroke-width="2" stroke-linecap="round" stroke-linejoin="round" d="M 92 2 c -0.07 -0.02 -2.89 -1.14 -4 -1 c -1.2 0.15 -3.28 1.01 -4 2 c -1.58 2.18 -3.38 6 -4 9 c -0.95 4.57 -1.75 10.26 -1 15 c 3.1 19.66 9.11 40.03 13 61 c 2.27 12.22 5.61 33.45 5 36 c -0.26 1.09 -7.79 -7.03 -11 -11 c -3.72 -4.6 -6.96 -9.76 -10 -15 c -3.02 -5.2 -9.32 -14.23 -8 -16 c 1.48 -1.97 13.59 0.71 20 0 c 5.29 -0.59 14.63 -4.62 16 -4 c 0.85 0.39 -2.81 6.71 -5 9 c -4.69 4.91 -11.05 9.78 -17 14 c -4.35 3.09 -9.41 5.05 -14 8 c -4.9 3.15 -14.65 10.03 -14 10 c 1.49 -0.06 25.22 -7.59 38 -11 c 2.28 -0.61 4.79 -1 7 -1 c 1.59 0 4.59 0.17 5 1 c 0.57 1.15 -0.18 5 -1 7 c -1.36 3.3 -3.44 7.44 -6 10 c -5.94 5.94 -19.13 14.32 -21 17 c -0.53 0.75 4.65 2.72 7 3 c 10.84 1.29 23.71 0.75 35 2 c 3.36 0.37 7.09 1.64 10 3 c 1.78 0.83 3.85 2.52 5 4 c 0.97 1.24 2.16 3.53 2 5 c -0.41 3.71 -1.74 9.74 -4 13 c -3.17 4.58 -8.98 9.5 -14 13 c -5.65 3.94 -12.63 7.82 -19 10 c -5.71 1.95 -12.76 2.63 -19 3 c -4.88 0.29 -10.53 0.07 -15 -1 c -3.32 -0.8 -7.27 -2.95 -10 -5 c -2.25 -1.69 -5.06 -4.58 -6 -7 c -1.13 -2.89 -1.97 -8.09 -1 -11 c 1.66 -4.97 5.95 -11.81 10 -16 c 5.37 -5.55 12.94 -10.65 20 -15 c 8.58 -5.3 17.66 -9.85 27 -14 c 8.85 -3.93 17.75 -7.21 27 -10 c 8.58 -2.59 17.06 -4.31 26 -6 l 27 -4"/><path fill="none" stroke="#000000" stroke-width="2" stroke-linecap="round" stroke-linejoin="round" d="M 166 70 c 0.07 -0.12 2.2 -5.38 4 -7 c 4.33 -3.9 10.39 -7.54 16 -11 c 5.95 -3.67 11.68 -6.84 18 -10 c 16.34 -8.17 32.31 -15.01 48 -23 c 2.54 -1.29 5.01 -3.23 7 -5 l 2 -3"/><path fill="none" stroke="#000000" stroke-width="2" stroke-linecap="round" stroke-linejoin="round" d="M 206 4 c -0.14 0.21 -6.29 7.87 -8 12 c -2.07 5.01 -3.64 11.42 -4 17 c -0.61 9.28 0.01 20.1 1 29 c 0.26 2.34 1.73 5.18 3 7 l 4 3"/><path fill="none" stroke="#000000" stroke-width="2" stroke-linecap="round" stroke-linejoin="round" d="M 226 31 c 0.07 0.12 3.22 4.66 4 7 c 0.78 2.34 1 5.44 1 8 c 0 1.93 -0.62 3.93 -1 6 c -0.32 1.74 -0.41 3.48 -1 5 c -1.03 2.67 -2.21 5.97 -4 8 c -2.85 3.23 -7.44 6.63 -11 9 c -1.03 0.69 -4.15 0.9 -4 1 l 7 1"/><path fill="none" stroke="#000000" stroke-width="2" stroke-linecap="round" stroke-linejoin="round" d="M 190 78 c -0.07 0.09 -3.42 3.19 -4 5 c -1.85 5.77 -4.09 13.55 -4 20 c 0.22 15.27 5 48 5 48"/><path fill="none" stroke="#000000" stroke-width="2" stroke-linecap="round" stroke-linejoin="round" d="M 152 117 c 0.39 -0.02 14.85 -1.22 22 -1 c 3.63 0.11 9.11 0.59 11 2 c 1.19 0.89 1.53 5.05 1 7 c -1.24 4.56 -7.22 15.23 -7 15 c 0.48 -0.52 13.66 -20.04 21 -30 c 2.13 -2.89 4.5 -5.5 7 -8 c 1.84 -1.84 3.98 -3.9 6 -5 c 1.32 -0.72 3.52 -1.13 5 -1 c 1.84 0.17 5.06 0.82 6 2 c 1.23 1.53 1.63 5.3 2 8 c 0.63 4.6 0.3 14.1 1 14 c 0.81 -0.12 3.78 -10.32 6 -15 c 0.69 -1.45 1.83 -2.96 3 -4 c 1.68 -1.5 4.76 -4.25 6 -4 c 1.24 0.25 4.11 4.36 4 6 c -0.16 2.34 -3.1 6.15 -5 9 c -2.11 3.16 -6.89 8.26 -7 9 c -0.06 0.41 4.31 -0.98 6 -2 c 3.05 -1.83 6.14 -4.44 9 -7 c 3.54 -3.17 8.13 -8.91 10 -10 c 0.48 -0.28 1.85 1.95 2 3 c 1.04 7.28 0.8 17.09 2 25 c 0.41 2.69 1.68 5.68 3 8 c 1.21 2.12 3.08 4.6 5 6 c 2.74 2.01 6.73 4.35 10 5 c 4.39 0.88 10.54 0.86 15 0 c 3.59 -0.69 7.68 -2.92 11 -5 l 13 -10"/><path fill="none" stroke="#000000" stroke-width="2" stroke-linecap="round" stroke-linejoin="round" d="M 194 141 c -0.21 0.16 -8.49 5.66 -12 9 c -3.33 3.17 -6.44 7.15 -9 11 c -2.02 3.03 -3.75 6.61 -5 10 c -1.03 2.79 -2 9 -2 9"/><path fill="none" stroke="#000000" stroke-width="2" stroke-linecap="round" stroke-linejoin="round" d="M 206 163 c 0.11 -0.02 4.15 -1 6 -1 c 1.25 0 4 1 4 1"/><path fill="none" stroke="#000000" stroke-width="2" stroke-linecap="round" stroke-linejoin="round" d="M 245 152 c 0.49 0.09 18.67 3.91 28 5 c 4.92 0.57 10.17 -0.25 15 0 c 1.33 0.07 2.8 0.43 4 1 c 5.61 2.67 17 9 17 9"/></svg>