<?xml version="1.0" encoding="UTF-8" standalone="no"?><!DOCTYPE svg PUBLIC "-//W3C//DTD SVG 1.1//EN" "http://www.w3.org/Graphics/SVG/1.1/DTD/svg11.dtd"><svg xmlns="http://www.w3.org/2000/svg" version="1.1" width="307" height="170"><path fill="none" stroke="#000000" stroke-width="2" stroke-linecap="round" stroke-linejoin="round" d="M 1 42 c 0.09 0.02 3.41 1.14 5 1 c 9.45 -0.81 19.93 -2.12 30 -4 c 9.92 -1.85 19.47 -4.08 29 -7 c 6.88 -2.11 20 -8 20 -8"/><path fill="none" stroke="#000000" stroke-width="2" stroke-linecap="round" stroke-linejoin="round" d="M 55 1 c 0.09 0.35 4.4 13.33 5 20 c 1.36 15.22 0.47 30.82 1 47 c 0.16 4.83 0.42 9.32 1 14 c 0.42 3.4 2 10 2 10"/><path fill="none" stroke="#000000" stroke-width="2" stroke-linecap="round" stroke-linejoin="round" d="M 54 45 c -0.35 0.46 -18.89 23.95 -20 26 c -0.25 0.45 4.72 -1.1 7 -2 c 10.53 -4.16 20.41 -9 31 -13 c 4.59 -1.73 12.86 -3.91 14 -4 c 0.28 -0.02 -1.17 2.17 -2 3 c -5.36 5.36 -10.97 10.68 -17 16 c -11.55 10.19 -33.42 28.48 -34 29 c -0.21 0.19 8.4 -7.18 13 -10 c 5.64 -3.46 12.03 -6.29 18 -9 c 1.22 -0.56 3.8 -1.52 4 -1 c 0.43 1.15 0.13 6.62 -1 9 c -1.87 3.94 -8.7 9.6 -9 12 c -0.16 1.29 4.66 3.75 7 4 c 9.01 0.95 21.01 -0.51 31 0 c 2.66 0.14 5.56 1.06 8 2 c 1.73 0.66 4.44 1.65 5 3 c 1.35 3.28 2.42 9.77 2 14 c -0.5 5.01 -2.85 10.99 -5 16 c -1.78 4.15 -4.11 8.97 -7 12 c -3.29 3.45 -8.47 6.28 -13 9 c -3.84 2.31 -7.97 4.85 -12 6 c -4.84 1.38 -11.02 2.18 -16 2 c -3.82 -0.14 -8.29 -1.59 -12 -3 c -3.09 -1.18 -8.03 -2.93 -9 -5 c -1.14 -2.42 -0.49 -8.82 1 -12 c 3.02 -6.44 8.69 -14.22 14 -20 c 5.71 -6.21 12.91 -11.8 20 -17 c 8.02 -5.88 16.33 -11.4 25 -16 c 7.59 -4.03 15.72 -7.24 24 -10 c 10.89 -3.63 33 -9 33 -9"/><path fill="none" stroke="#000000" stroke-width="2" stroke-linecap="round" stroke-linejoin="round" d="M 142 62 c 0.59 -0.21 22.61 -7.48 34 -12 c 8.34 -3.31 15.77 -7.02 24 -11 c 13.24 -6.41 25.22 -12.33 38 -19 c 2.84 -1.48 5.77 -3.22 8 -5 c 0.85 -0.68 2.43 -2.7 2 -3 c -1.51 -1.05 -8.06 -3.49 -12 -4 c -5.92 -0.76 -12.8 -0.64 -19 0 c -6.66 0.68 -14.14 2.05 -20 4 c -2.47 0.82 -5.53 2.96 -7 5 c -2.45 3.39 -4.58 8.59 -6 13 c -1.52 4.72 -2.53 10 -3 15 c -0.52 5.55 -0.39 11.38 0 17 c 0.28 4.02 0.44 10.44 2 12 l 9 -1"/><path fill="none" stroke="#000000" stroke-width="2" stroke-linecap="round" stroke-linejoin="round" d="M 216 7 c 0.04 0.16 1.6 5.95 2 9 c 0.61 4.64 1.17 9.46 1 14 c -0.15 3.93 -0.31 8.81 -2 12 c -3.48 6.55 -9.55 14.16 -15 20 c -3.58 3.83 -13.35 10.06 -13 10 c 0.56 -0.1 22.87 -11.73 24 -12 c 0.45 -0.11 -4.37 5.9 -7 8 c -3.77 3.02 -8.54 5.86 -13 8 c -3.7 1.78 -7.91 2.93 -12 4 c -3.62 0.94 -8.28 0.95 -11 2 c -0.88 0.34 -1.85 1.98 -2 3 c -0.44 3.1 -0.71 7.55 0 11 c 2.2 10.73 6.47 22.34 9 33 c 0.37 1.56 0.32 3.54 0 5 l -2 4"/><path fill="none" stroke="#000000" stroke-width="2" stroke-linecap="round" stroke-linejoin="round" d="M 139 124 c 0.09 -0.1 3.03 -4.54 5 -6 c 5.32 -3.93 11.89 -8.22 18 -11 c 4.49 -2.04 11.95 -4.34 15 -4 c 1.32 0.15 2.49 3.96 3 6 c 1.08 4.31 0.8 14 2 14 c 1.46 0 6.93 -9.17 10 -14 c 1.6 -2.51 2.47 -5.51 4 -8 c 1.1 -1.78 2.52 -3.52 4 -5 c 1.81 -1.81 3.99 -3.79 6 -5 c 1.06 -0.64 3.26 -1.37 4 -1 c 0.8 0.4 1.13 4 2 4 c 2.85 0 11.59 -4.16 14 -4 c 0.84 0.06 1.12 3.47 1 5 c -0.19 2.47 -2.36 8.24 -2 8 c 0.93 -0.62 10.84 -13.72 14 -16 c 0.74 -0.54 3.68 1.74 4 3 c 1.59 6.35 1.59 16.79 3 25 c 0.58 3.4 1.66 6.86 3 10 c 1.61 3.76 3.64 7.79 6 11 c 2.14 2.9 5.06 6.13 8 8 c 3.95 2.52 9.58 5.15 14 6 c 3.5 0.67 8.8 0.43 12 -1 l 17 -12"/><path fill="none" stroke="#000000" stroke-width="2" stroke-linecap="round" stroke-linejoin="round" d="M 283 91 c -0.3 0.54 -10.92 22.11 -17 31 c -1.96 2.87 -9 7 -9 7"/><path fill="none" stroke="#000000" stroke-width="2" stroke-linecap="round" stroke-linejoin="round" d="M 178 136 l -7 30"/><path fill="none" stroke="#000000" stroke-width="2" stroke-linecap="round" stroke-linejoin="round" d="M 189 144 c 0.12 0.02 5.69 -0.23 7 1 c 3.09 2.9 5.87 9.57 9 14 c 0.8 1.13 1.95 2.84 3 3 c 2.5 0.38 6.78 -0.3 10 -1 c 4.36 -0.95 8.66 -3.28 13 -4 c 5.43 -0.91 12.01 0.43 17 -1 c 5.9 -1.69 12.41 -7.46 18 -9 c 3.07 -0.85 8 0.06 11 1 c 1.74 0.54 3.79 2.41 5 4 c 2.89 3.78 8 13 8 13"/></svg>