<?xml version="1.0" encoding="UTF-8" standalone="no"?><!DOCTYPE svg PUBLIC "-//W3C//DTD SVG 1.1//EN" "http://www.w3.org/Graphics/SVG/1.1/DTD/svg11.dtd"><svg xmlns="http://www.w3.org/2000/svg" version="1.1" width="195" height="83"><path fill="none" stroke="#000000" stroke-width="2" stroke-linecap="round" stroke-linejoin="round" d="M 6 3 c 0.19 0.19 7.08 7.79 11 11 c 3.29 2.69 7.14 5 11 7 c 5.83 3.02 12.28 5.02 18 8 c 2.5 1.3 4.49 4 7 5 c 7 2.8 15.37 5.39 23 7 c 4.77 1 9.85 0.94 15 1 c 22.95 0.28 44.9 0.57 67 0 c 3.69 -0.09 7.46 -0.93 11 -2 c 7.42 -2.25 16.31 -5.04 22 -8 l 3 -5"/><path fill="none" stroke="#000000" stroke-width="2" stroke-linecap="round" stroke-linejoin="round" d="M 191 2 c -0.09 -0.02 -3.33 -0.9 -5 -1 c -3.93 -0.23 -8.03 -0.33 -12 0 c -4.02 0.34 -8.55 0.92 -12 2 c -1.42 0.44 -3.69 1.77 -4 3 c -1.05 4.18 -0.15 11.68 -1 17 c -0.43 2.67 -1.58 5.95 -3 8 c -1.3 1.88 -3.79 3.76 -6 5 c -8.22 4.62 -16.98 9.76 -26 13 c -16.79 6.03 -34.21 9.56 -52 15 c -6.97 2.13 -13.4 4.24 -20 7 c -7.94 3.33 -15.74 8.58 -23 11 c -2.85 0.95 -7.4 0.81 -10 0 c -2.03 -0.64 -4.81 -2.98 -6 -5 c -3.7 -6.24 -10 -22 -10 -22"/></svg>