<?xml version="1.0" encoding="UTF-8" standalone="no"?><!DOCTYPE svg PUBLIC "-//W3C//DTD SVG 1.1//EN" "http://www.w3.org/Graphics/SVG/1.1/DTD/svg11.dtd"><svg xmlns="http://www.w3.org/2000/svg" version="1.1" width="241" height="154"><path fill="none" stroke="#000000" stroke-width="2" stroke-linecap="round" stroke-linejoin="round" d="M 83 1 c 0.19 0 7.9 -0.44 11 0 c 1.02 0.15 1.93 1.57 3 2 c 3.76 1.5 10.17 1.89 12 4 c 1.6 1.84 1.8 7.81 1 11 c -1.94 7.77 -6.09 17.17 -10 25 c -2.3 4.6 -6.15 8.4 -9 13 c -7.76 12.52 -15 24.13 -22 37 c -5.6 10.3 -10.65 20.94 -15 31 c -0.77 1.78 -0.85 6.2 -1 6 c -0.25 -0.33 -1.07 -6.69 -2 -10 c -2.11 -7.5 -4.2 -14.68 -7 -22 c -4.34 -11.37 -14.56 -28.36 -14 -33 c 0.28 -2.33 12.2 -0.26 18 0 c 1.33 0.06 2.69 0.54 4 1 c 4.42 1.56 8.65 3.63 13 5 c 1.9 0.6 4.22 0.27 6 1 c 5.24 2.15 11.54 5.27 16 8 c 0.9 0.55 2.18 2.27 2 3 c -0.33 1.3 -2.51 3.68 -4 5 c -1.35 1.2 -3.25 2.12 -5 3 c -2.96 1.48 -6.15 2.37 -9 4 c -6.51 3.72 -12.43 8.53 -19 12 c -5.38 2.84 -11.52 4.16 -17 7 c -12.69 6.58 -24.42 13.69 -37 21 c -2.13 1.24 -4.49 2.37 -6 4 c -2.56 2.76 -5.13 6.72 -7 10 c -0.63 1.11 -1.61 3.96 -1 4 c 8.55 0.6 38.45 0.7 58 0 c 8.82 -0.31 17.18 -2.85 26 -3 c 52.26 -0.87 152.29 -0.02 155 0 l -16 1"/></svg>