<?xml version="1.0" encoding="UTF-8" standalone="no"?><!DOCTYPE svg PUBLIC "-//W3C//DTD SVG 1.1//EN" "http://www.w3.org/Graphics/SVG/1.1/DTD/svg11.dtd"><svg xmlns="http://www.w3.org/2000/svg" version="1.1" width="161" height="137"><path fill="none" stroke="#000000" stroke-width="2" stroke-linecap="round" stroke-linejoin="round" d="M 8 1 c 0.3 0.16 11.12 6.78 17 9 c 8.9 3.36 24.84 5.7 28 8 c 1.09 0.79 -3.72 5.72 -6 8 c -3.25 3.25 -7.04 6.33 -11 9 c -11.52 7.77 -31.89 19.12 -35 22 c -0.64 0.59 5.36 2.83 8 3 c 12.07 0.77 30.2 -0.86 39 0 c 1.01 0.1 2.17 2.89 2 4 c -0.38 2.45 -1.83 7.58 -4 9 c -5.95 3.9 -16.41 7 -25 10 c -5.96 2.08 -15.11 2.96 -18 5 c -1.09 0.77 -0.12 5.66 1 7 c 1.63 1.96 5.84 3.81 9 5 c 10.01 3.75 21.29 6.07 31 10 c 3.89 1.57 9.46 5.12 11 7 c 0.53 0.65 -1.08 3.08 -2 4 c -1.49 1.49 -3.85 2.96 -6 4 c -8.13 3.93 -25 11 -25 11"/><path fill="none" stroke="#000000" stroke-width="2" stroke-linecap="round" stroke-linejoin="round" d="M 119 3 c 0.02 0.23 1.82 9.31 1 13 c -0.98 4.43 -3.8 10.41 -7 14 c -7.1 7.96 -16.86 17.35 -26 23 c -8.17 5.05 -30.23 10.78 -29 11 c 3.66 0.64 61.08 0.31 92 0 c 2.71 -0.03 6.1 -0.24 8 -1 c 0.85 -0.34 1.9 -2.04 2 -3 c 0.19 -1.89 0.34 -6.04 -1 -7 c -4.09 -2.92 -20 -8 -20 -8"/><path fill="none" stroke="#000000" stroke-width="2" stroke-linecap="round" stroke-linejoin="round" d="M 83 4 c 0 1.05 0.76 40.06 0 60 c -0.24 6.39 -2.24 12.51 -3 19 c -0.6 5.08 -0.25 10.13 -1 15 c -0.57 3.69 -2.56 7.37 -3 11 c -0.53 4.45 -0.85 13.27 0 14 c 0.65 0.55 5.57 -5.05 7 -8 c 3.58 -7.37 9 -25 9 -25"/><path fill="none" stroke="#000000" stroke-width="2" stroke-linecap="round" stroke-linejoin="round" d="M 97 75 c 0.14 0.18 5.55 6.43 8 10 c 5.68 8.28 10.07 16.99 16 25 c 6.52 8.81 21 25 21 25"/></svg>