<?xml version="1.0" encoding="UTF-8" standalone="no"?><!DOCTYPE svg PUBLIC "-//W3C//DTD SVG 1.1//EN" "http://www.w3.org/Graphics/SVG/1.1/DTD/svg11.dtd"><svg xmlns="http://www.w3.org/2000/svg" version="1.1" width="299" height="169"><path fill="none" stroke="#000000" stroke-width="2" stroke-linecap="round" stroke-linejoin="round" d="M 48 38 c 0.02 0.12 1 4.72 1 7 c 0 2.91 -0.32 6.08 -1 9 c -1.64 7.05 -3.54 14.03 -6 21 c -3.64 10.32 -9.65 21.54 -12 30 c -0.46 1.66 0.86 4.98 2 6 c 1.32 1.17 5.01 0.88 7 2 c 5.31 3 10.96 6.94 16 11 c 5.33 4.29 10.46 8.87 15 14 c 8.51 9.6 24 30 24 30"/><path fill="none" stroke="#000000" stroke-width="2" stroke-linecap="round" stroke-linejoin="round" d="M 77 81 c -0.07 0.02 -3.57 0.22 -4 1 c -0.85 1.52 -0.32 5.42 -1 8 c -2.3 8.69 -4.87 17.35 -8 26 c -2.63 7.27 -5.67 14.34 -9 21 c -1.25 2.51 -3.15 4.76 -5 7 c -2.89 3.5 -5.95 7.38 -9 10 c -1.22 1.05 -3.35 1.84 -5 2 c -4.59 0.46 -15 0 -15 0"/><path fill="none" stroke="#000000" stroke-width="2" stroke-linecap="round" stroke-linejoin="round" d="M 1 77 c 0.4 -0.02 15.35 -0.01 23 -1 c 13.17 -1.7 25.95 -4.24 39 -7 c 4.48 -0.95 13 -4 13 -4"/><path fill="none" stroke="#000000" stroke-width="2" stroke-linecap="round" stroke-linejoin="round" d="M 118 36 c 0.03 0.09 1.61 3.31 2 5 c 0.58 2.53 0.82 5.25 1 8 c 0.85 12.99 1.7 24.91 2 38 c 0.39 16.86 0.52 32.63 0 49 c -0.15 4.72 -2 14 -2 14"/><path fill="none" stroke="#000000" stroke-width="2" stroke-linecap="round" stroke-linejoin="round" d="M 86 91 c 0.07 -0.02 3.02 -1.36 4 -1 c 2.05 0.75 5.32 3.04 7 5 c 2.01 2.35 5 9 5 9"/><path fill="none" stroke="#000000" stroke-width="2" stroke-linecap="round" stroke-linejoin="round" d="M 89 138 c 0.12 -0.17 4.31 -7.06 7 -10 c 4.53 -4.94 15 -14 15 -14"/><path fill="none" stroke="#000000" stroke-width="2" stroke-linecap="round" stroke-linejoin="round" d="M 146 33 c 0 0.21 0.26 7.92 0 12 c -0.77 12.29 -2.43 23.7 -3 36 c -0.46 9.87 -0.49 19.5 0 29 c 0.17 3.34 0.73 7.01 2 10 c 3.23 7.6 7.72 15.7 12 23 c 1.29 2.2 3.19 4.19 5 6 c 1.48 1.48 3.21 3.22 5 4 c 3.18 1.39 7.38 2.51 11 3 c 3.49 0.48 9.87 1.25 11 0 c 1.04 -1.16 -2 -10 -2 -10"/><path fill="none" stroke="#000000" stroke-width="2" stroke-linecap="round" stroke-linejoin="round" d="M 174 48 c -0.02 0.12 -0.06 5.02 -1 7 c -5 10.53 -18 33 -18 33"/><path fill="none" stroke="#000000" stroke-width="2" stroke-linecap="round" stroke-linejoin="round" d="M 157 83 c 0.03 0.07 0.99 3.13 2 4 c 5.64 4.88 20 15 20 15"/><path fill="none" stroke="#000000" stroke-width="2" stroke-linecap="round" stroke-linejoin="round" d="M 216 27 c 0.11 -0.02 3.98 -0.92 6 -1 c 6.3 -0.25 12.64 0.55 19 0 c 13.15 -1.13 39 -5 39 -5"/><path fill="none" stroke="#000000" stroke-width="2" stroke-linecap="round" stroke-linejoin="round" d="M 215 52 c 0.53 -0.05 20.2 -1.53 30 -3 c 3.39 -0.51 6.62 -2.49 10 -3 c 7.47 -1.13 23 -2 23 -2"/><path fill="none" stroke="#000000" stroke-width="2" stroke-linecap="round" stroke-linejoin="round" d="M 189 80 c 0.35 0 13.37 0.58 20 0 c 8.73 -0.76 16.99 -2.5 26 -4 c 9.74 -1.62 18.51 -2.95 28 -5 c 7.93 -1.71 15.41 -3.72 23 -6 c 2.43 -0.73 7 -3 7 -3"/><path fill="none" stroke="#000000" stroke-width="2" stroke-linecap="round" stroke-linejoin="round" d="M 260 1 c 0.02 0.12 1 4.68 1 7 c 0 5.58 0.08 11.6 -1 17 c -1.53 7.63 -4.31 15.34 -7 23 c -1.71 4.85 -3.68 9.37 -6 14 c -4.49 8.98 -8.9 17.49 -14 26 c -2.97 4.96 -6.47 9.17 -10 14 c -3.07 4.21 -5.74 8.06 -9 12 c -4.93 5.96 -9.72 11.5 -15 17 c -2.81 2.92 -9 8 -9 8"/><path fill="none" stroke="#000000" stroke-width="2" stroke-linecap="round" stroke-linejoin="round" d="M 247 70 c 0.51 0.35 18.99 13.57 29 20 c 4.2 2.7 8.55 4.98 13 7 c 2.86 1.3 9 3 9 3"/><path fill="none" stroke="#000000" stroke-width="2" stroke-linecap="round" stroke-linejoin="round" d="M 240 102 c 0 0.61 0.54 24.25 0 35 c -0.08 1.65 -1.6 3.29 -2 5 c -0.91 3.86 -2 12 -2 12"/><path fill="none" stroke="#000000" stroke-width="2" stroke-linecap="round" stroke-linejoin="round" d="M 239 104 c 0.07 -0.07 2.49 -3.38 4 -4 c 3.55 -1.46 8.48 -2 13 -3 c 1.73 -0.38 3.38 -1 5 -1 c 3.51 0 8.52 -0.49 11 1 c 3.19 1.91 6.51 7.11 9 11 c 2.74 4.29 5.31 9.31 7 14 c 1.21 3.35 1.69 7.32 2 11 c 0.36 4.27 0 13 0 13"/><path fill="none" stroke="#000000" stroke-width="2" stroke-linecap="round" stroke-linejoin="round" d="M 247 124 c 0.12 -0.03 4.7 -1.71 7 -2 c 2.85 -0.36 5.96 0.24 9 0 c 9.84 -0.78 29 -3 29 -3"/><path fill="none" stroke="#000000" stroke-width="2" stroke-linecap="round" stroke-linejoin="round" d="M 248 145 c 0.11 -0.02 3.98 -0.93 6 -1 c 6.96 -0.26 14.11 0.56 21 0 c 5.34 -0.43 16 -3 16 -3"/></svg>