<?xml version="1.0" encoding="UTF-8" standalone="no"?><!DOCTYPE svg PUBLIC "-//W3C//DTD SVG 1.1//EN" "http://www.w3.org/Graphics/SVG/1.1/DTD/svg11.dtd"><svg xmlns="http://www.w3.org/2000/svg" version="1.1" width="290" height="180"><path fill="none" stroke="#000000" stroke-width="2" stroke-linecap="round" stroke-linejoin="round" d="M 4 25 c -0.05 0.05 -3.27 2.64 -3 3 c 0.39 0.52 5.56 -0.29 6 1 c 6.74 19.57 18.93 71 25 89 c 0.33 0.97 3.72 -0.51 5 0 c 1.63 0.65 4.52 2.47 5 4 c 0.9 2.87 1.22 8.65 0 12 c -3.33 9.1 -15 29 -15 29"/><path fill="none" stroke="#000000" stroke-width="2" stroke-linecap="round" stroke-linejoin="round" d="M 94 33 c 0.03 0.12 1.65 4.7 2 7 c 0.29 1.89 0.31 4.14 0 6 c -0.33 1.96 -1.05 4.21 -2 6 c -1.63 3.06 -3.62 6.42 -6 9 c -5.45 5.91 -11.8 11.76 -18 17 c -2.36 2 -5.66 3.03 -8 5 c -3.86 3.25 -7.31 7.8 -11 11 c -1.06 0.92 -4.11 2.01 -4 2 c 0.3 -0.04 8.6 -1.2 12 -3 c 7.31 -3.87 14.29 -10.18 22 -15 c 8.7 -5.43 26 -15 26 -15"/><path fill="none" stroke="#000000" stroke-width="2" stroke-linecap="round" stroke-linejoin="round" d="M 65 40 c 0.05 1.1 2.31 41.27 3 63 c 0.35 11.02 0.49 21.45 0 32 c -0.17 3.69 -1.03 7.43 -2 11 c -1.02 3.74 -3.91 11.39 -4 11 c -0.18 -0.8 -0.62 -16.52 1 -24 c 2.56 -11.82 7.58 -24.31 12 -36 c 1.2 -3.17 3.09 -6.33 5 -9 c 1.31 -1.84 3.3 -4.51 5 -5 c 2.18 -0.62 8.11 -0.64 9 1 c 2.3 4.24 3.21 15.22 4 23 c 0.89 8.67 0.18 17.36 1 26 c 0.51 5.41 1.61 11.14 3 16 c 0.5 1.74 1.84 4 3 5 l 4 1"/><path fill="none" stroke="#000000" stroke-width="2" stroke-linecap="round" stroke-linejoin="round" d="M 134 22 c 0.03 0.07 1.78 2.68 2 4 c 0.39 2.35 -0.55 5.5 0 8 c 2.35 10.7 8.41 31.34 9 33 c 0.09 0.25 1 -5 1 -5"/><path fill="none" stroke="#000000" stroke-width="2" stroke-linecap="round" stroke-linejoin="round" d="M 137 1 c 0.12 0 5.1 -0.59 7 0 c 1.96 0.6 4.17 2.5 6 4 c 1.8 1.47 4.05 3.26 5 5 c 0.82 1.5 0.85 3.99 1 6 c 0.18 2.31 0.35 4.77 0 7 c -0.62 3.94 -1.29 8.48 -3 12 c -3.72 7.66 -12.26 23.23 -14 23 c -1.62 -0.22 -2.03 -18.23 -1 -25 c 0.41 -2.71 3.95 -6.63 6 -8 c 1.23 -0.82 4.24 -0.35 6 0 c 1.31 0.26 3.35 1.1 4 2 c 0.74 1.03 0.9 3.33 1 5 c 0.23 3.93 1.93 9.65 0 12 c -6.72 8.19 -20.99 18.14 -32 27 c -2.84 2.29 -9.12 5.42 -9 6 c 0.11 0.54 6.97 0.01 10 -1 c 10.42 -3.47 21.01 -8.85 32 -13 c 4.33 -1.64 12.34 -4.33 13 -4 c 0.48 0.24 -4.45 4.93 -7 7 c -4.43 3.59 -9.55 6.44 -14 10 c -2.2 1.76 -4.36 3.81 -6 6 c -2.26 3.01 -4.47 6.52 -6 10 c -2.07 4.71 -3.68 9.8 -5 15 c -4.11 16.19 -7.04 31.6 -11 48 c -0.84 3.48 -1.76 6.7 -3 10 c -1.8 4.81 -5.24 14.22 -6 14 c -0.8 -0.23 -1.88 -11.09 -1 -16 c 1.95 -10.85 5.77 -23.15 10 -34 c 3.36 -8.62 8.03 -17.35 13 -25 c 3.5 -5.39 8.41 -11.01 13 -15 c 2.58 -2.25 7.67 -4.64 10 -5 c 0.88 -0.14 2.9 2.02 3 3 c 0.17 1.68 -0.83 5.02 -2 7 c -6.15 10.43 -20.64 31.44 -21 32 c -0.17 0.26 6.34 -10.53 10 -15 c 2.16 -2.64 6.98 -7.61 8 -7 c 1.26 0.76 2.4 8.95 2 13 c -0.86 8.82 -4.68 18.6 -6 28 c -1.01 7.23 -1.83 18.35 -1 22 c 0.23 0.99 5 1.04 6 0 c 4.19 -4.4 10.35 -13.71 14 -21 c 3.84 -7.68 6.43 -16.58 9 -25 c 1.08 -3.54 2.33 -10.56 2 -11 c -0.25 -0.34 -4.21 4.63 -5 7 c -1.02 3.05 -1.68 8.3 -1 11 c 0.43 1.73 3.27 4.33 5 5 c 1.96 0.75 5.75 0.66 8 0 l 9 -5"/><path fill="none" stroke="#000000" stroke-width="2" stroke-linecap="round" stroke-linejoin="round" d="M 203 20 c -0.02 0.18 -1.28 6.79 -1 10 c 0.69 7.77 2.93 16 4 24 c 0.26 1.97 0 5.9 0 6 c 0 0.09 -0.25 -3.41 0 -5 c 0.4 -2.63 1.09 -5.43 2 -8 c 1.08 -3.07 2.35 -6.24 4 -9 c 2.29 -3.81 5.27 -7.78 8 -11 c 0.72 -0.85 2.38 -2.21 3 -2 c 0.86 0.29 2.69 2.64 3 4 c 0.56 2.44 0.34 6.12 0 9 c -0.31 2.64 -0.84 5.68 -2 8 c -2.66 5.32 -7.29 10.82 -10 16 c -0.73 1.4 -1.24 3.58 -1 5 c 0.35 2.13 2.43 4.61 3 7 c 1.38 5.74 2.22 12 3 18 c 0.21 1.64 0.3 3.49 0 5 c -0.32 1.62 -1.15 4.91 -2 5 c -1.28 0.14 -5.2 -2.33 -7 -4 c -2.24 -2.07 -5.25 -8.47 -6 -8 c -0.99 0.62 -1.8 8.62 -2 13 c -0.47 10.31 -1.1 25.11 0 31 c 0.22 1.16 4.95 1.76 6 1 c 1.77 -1.29 3.55 -5.85 5 -9 l 7 -17"/><path fill="none" stroke="#000000" stroke-width="2" stroke-linecap="round" stroke-linejoin="round" d="M 247 24 c 0.07 0.07 2.53 3.77 4 4 c 5.44 0.87 18.31 -0.71 21 0 c 0.69 0.18 -0.99 3.64 -2 5 c -4.39 5.94 -10.08 11.67 -15 18 c -4.67 6 -9.01 11.8 -13 18 c -2.01 3.12 -5.15 7.89 -5 10 c 0.1 1.36 4.02 3.47 6 4 c 2.47 0.66 6.25 0.48 9 0 c 2.61 -0.46 5.42 -1.78 8 -3 c 3.79 -1.79 7.55 -3.77 11 -6 c 2.15 -1.39 4.18 -3.18 6 -5 c 1.82 -1.82 4.58 -4.16 5 -6 c 0.4 -1.71 -0.62 -5.91 -2 -7 c -2.41 -1.89 -7.99 -3.13 -12 -4 c -3.5 -0.76 -10.47 -2.74 -11 -1 c -1.78 5.83 1.1 25.35 0 37 c -0.5 5.28 -2.82 11.09 -5 16 c -1.7 3.82 -4.93 7.15 -7 11 c -2.63 4.89 -4.36 10.06 -7 15 c -2.79 5.22 -5.86 10.65 -9 15 l -4 3"/><path fill="none" stroke="#000000" stroke-width="2" stroke-linecap="round" stroke-linejoin="round" d="M 262 89 c 0 0.3 -0.88 11.7 0 17 c 1.03 6.21 3.11 13.73 6 19 c 2.36 4.3 7.16 9.25 11 12 c 2.46 1.76 10 3 10 3"/></svg>