<?xml version="1.0" encoding="UTF-8" standalone="no"?><!DOCTYPE svg PUBLIC "-//W3C//DTD SVG 1.1//EN" "http://www.w3.org/Graphics/SVG/1.1/DTD/svg11.dtd"><svg xmlns="http://www.w3.org/2000/svg" version="1.1" width="208" height="204"><path fill="none" stroke="#000000" stroke-width="2" stroke-linecap="round" stroke-linejoin="round" d="M 15 1 c 0.18 0.14 6.38 5.69 10 8 c 15.86 10.12 31.6 20.1 48 29 c 6.95 3.77 14.41 6.29 22 9 c 6.67 2.38 13.04 4.22 20 6 c 19.88 5.1 38.75 10.86 58 14 c 10.97 1.79 32.53 1.74 34 1 c 0.87 -0.44 -11.72 -6.21 -18 -9 c -9.1 -4.04 -27 -11 -27 -11"/><path fill="none" stroke="#000000" stroke-width="2" stroke-linecap="round" stroke-linejoin="round" d="M 81 33 c 0.14 0.33 4.85 13.1 8 19 c 2.08 3.89 5.09 7.54 8 11 c 2.42 2.88 5.08 5.71 8 8 c 4.66 3.64 14.56 8.9 15 10 c 0.27 0.67 -7.34 -0.38 -11 0 c -9.4 0.96 -19.91 0.72 -28 4 c -15.11 6.12 -33.28 18.05 -46 26 c -1.08 0.67 -1.89 2.67 -2 4 c -0.5 5.95 0.41 13.38 0 20 c -0.25 4.03 -1.04 8.02 -2 12 c -1.4 5.8 -3.06 11.39 -5 17 c -1.08 3.12 -2.25 6.28 -4 9 c -6.49 10.13 -21 30 -21 30"/></svg>