<?xml version="1.0" encoding="UTF-8" standalone="no"?><!DOCTYPE svg PUBLIC "-//W3C//DTD SVG 1.1//EN" "http://www.w3.org/Graphics/SVG/1.1/DTD/svg11.dtd"><svg xmlns="http://www.w3.org/2000/svg" version="1.1" width="137" height="98"><path fill="none" stroke="#000000" stroke-width="2" stroke-linecap="round" stroke-linejoin="round" d="M 1 1 c 0.12 0.03 4.65 1.83 7 2 c 20.4 1.46 41.45 1.55 63 3 c 8.94 0.6 17.88 1.38 26 3 c 3.05 0.61 7.22 2.4 9 4 c 0.92 0.83 1.3 3.6 1 5 c -0.58 2.71 -2.18 6.88 -4 9 c -1.74 2.03 -5.52 3.1 -8 5 c -3.17 2.42 -6.54 4.99 -9 8 c -4.69 5.76 -8.7 12.43 -13 19 c -1.5 2.3 -3.04 4.61 -4 7 c -0.98 2.45 -1.1 5.47 -2 8 c -0.73 2.06 -2.47 4.07 -3 6 c -0.39 1.44 -0.53 4.79 0 5 c 0.62 0.25 3.23 -2.36 5 -3 c 6.33 -2.28 13.42 -5.19 20 -6 c 9.14 -1.12 19.66 -0.51 29 0 c 2.66 0.14 5.97 0.73 8 2 c 2.78 1.74 5.9 5.27 8 8 c 1 1.3 1.7 3.37 2 5 l 0 6"/></svg>