<?xml version="1.0" encoding="UTF-8" standalone="no"?><!DOCTYPE svg PUBLIC "-//W3C//DTD SVG 1.1//EN" "http://www.w3.org/Graphics/SVG/1.1/DTD/svg11.dtd"><svg xmlns="http://www.w3.org/2000/svg" version="1.1" width="300" height="174"><path fill="none" stroke="#000000" stroke-width="2" stroke-linecap="round" stroke-linejoin="round" d="M 21 2 c 0.03 0.33 1.75 12.54 2 19 c 0.43 11.16 0.24 21.7 0 33 c -0.11 5.15 -0.24 10 -1 15 c -1.6 10.49 -4.34 20.76 -6 31 c -0.32 1.95 -0.79 4.76 0 6 c 1.13 1.77 4.52 3.92 7 5 c 4.84 2.1 10.98 2.75 16 5 c 7.51 3.36 14.98 7.5 22 12 c 6 3.84 11.72 8.35 17 13 c 2.97 2.61 8 9 8 9"/><path fill="none" stroke="#000000" stroke-width="2" stroke-linecap="round" stroke-linejoin="round" d="M 43 57 c -0.03 0.12 -1.82 4.68 -2 7 c -0.46 6.04 0.79 12.76 0 19 c -2.2 17.32 -5.59 34.97 -9 52 c -0.55 2.76 -1.72 5.63 -3 8 c -0.96 1.77 -4 5 -4 5"/><path fill="none" stroke="#000000" stroke-width="2" stroke-linecap="round" stroke-linejoin="round" d="M 1 55 c 0.26 -0.04 10.12 -0.78 15 -2 c 12.45 -3.11 37 -11 37 -11"/><path fill="none" stroke="#000000" stroke-width="2" stroke-linecap="round" stroke-linejoin="round" d="M 67 17 l 7 14"/><path fill="none" stroke="#000000" stroke-width="2" stroke-linecap="round" stroke-linejoin="round" d="M 71 113 c 0.28 -0.49 10.85 -18.25 16 -28 c 4.43 -8.39 12 -25 12 -25"/><path fill="none" stroke="#000000" stroke-width="2" stroke-linecap="round" stroke-linejoin="round" d="M 106 4 c 0 0.84 0.52 31.55 0 48 c -0.51 16.14 -0.86 31.49 -3 47 c -1.86 13.5 -5.42 26.86 -9 40 c -1.41 5.18 -3.72 10.06 -6 15 c -1.77 3.83 -3.77 7.46 -6 11 c -1.78 2.82 -6 8 -6 8"/><path fill="none" stroke="#000000" stroke-width="2" stroke-linecap="round" stroke-linejoin="round" d="M 128 5 c 0 0.63 0.54 23.79 0 36 c -0.48 10.9 -2.65 21.09 -3 32 c -0.67 21.04 -0.56 43.51 0 62 c 0.04 1.33 1.1 2.98 2 4 c 1.58 1.77 3.89 4.08 6 5 c 2.75 1.2 6.66 1.83 10 2 c 9.83 0.49 20.32 0.28 30 0 c 1.33 -0.04 3.54 -0.31 4 -1 l 0 -5"/><path fill="none" stroke="#000000" stroke-width="2" stroke-linecap="round" stroke-linejoin="round" d="M 171 25 c -0.09 0 -3.68 -0.44 -5 0 c -1.32 0.44 -2.83 1.83 -4 3 c -8.13 8.13 -15.66 16.66 -24 25 c -2.56 2.56 -5.13 4.91 -8 7 c -4.49 3.27 -13.41 8.12 -14 9 c -0.28 0.42 5.8 -0.92 8 0 c 12.92 5.42 42 21 42 21"/><path fill="none" stroke="#000000" stroke-width="2" stroke-linecap="round" stroke-linejoin="round" d="M 188 23 c 0.16 -0.02 5.94 -0.9 9 -1 c 7.42 -0.24 14.99 1 22 0 c 8.88 -1.27 27 -7 27 -7"/><path fill="none" stroke="#000000" stroke-width="2" stroke-linecap="round" stroke-linejoin="round" d="M 177 47 c 0.61 -0.02 23.33 0.08 35 -1 c 10.14 -0.94 19.76 -3.04 30 -5 c 5.88 -1.13 17 -4 17 -4"/><path fill="none" stroke="#000000" stroke-width="2" stroke-linecap="round" stroke-linejoin="round" d="M 178 73 c 0.18 0.04 6.66 1.88 10 2 c 15.41 0.54 31.86 0.96 47 0 c 5.31 -0.34 11.03 -2.12 16 -4 c 4.45 -1.69 9.34 -4.25 13 -7 c 2.64 -1.98 7 -8 7 -8"/><path fill="none" stroke="#000000" stroke-width="2" stroke-linecap="round" stroke-linejoin="round" d="M 223 1 c 0.02 0.09 0.94 3.33 1 5 c 0.27 7.21 0.94 15.21 0 22 c -0.64 4.59 -2.91 9.48 -5 14 c -4.28 9.24 -8.88 18.31 -14 27 c -2.53 4.28 -6.3 7.79 -9 12 c -2.65 4.15 -4.38 8.81 -7 13 c -2.41 3.86 -8 11 -8 11"/><path fill="none" stroke="#000000" stroke-width="2" stroke-linecap="round" stroke-linejoin="round" d="M 228 65 c 0.37 0.4 13.54 16.32 21 23 c 4.85 4.34 11.11 8.28 17 11 c 6.71 3.1 14.69 5.23 22 7 c 3.5 0.85 11 1 11 1"/><path fill="none" stroke="#000000" stroke-width="2" stroke-linecap="round" stroke-linejoin="round" d="M 196 97 c 0 0.25 -0.37 9.4 0 14 c 0.29 3.68 1.68 7.27 2 11 c 0.69 8.01 -0.28 16.5 1 24 c 0.96 5.63 6 17 6 17"/><path fill="none" stroke="#000000" stroke-width="2" stroke-linecap="round" stroke-linejoin="round" d="M 200 93 c 0.21 -0.02 8.09 -1.23 12 -1 c 7.22 0.42 14.91 1.5 22 3 c 3.74 0.79 7.64 2.43 11 4 c 1.44 0.67 2.99 1.85 4 3 c 1.18 1.35 2.28 3.27 3 5 c 0.9 2.16 1.65 4.62 2 7 c 0.97 6.56 1.68 13.2 2 20 c 0.35 7.45 -0.25 14.65 0 22 l 1 7"/><path fill="none" stroke="#000000" stroke-width="2" stroke-linecap="round" stroke-linejoin="round" d="M 203 131 c 0.14 -0.02 5.29 -0.95 8 -1 c 16.47 -0.29 32.88 0.74 49 0 c 5.36 -0.25 16 -3 16 -3"/><path fill="none" stroke="#000000" stroke-width="2" stroke-linecap="round" stroke-linejoin="round" d="M 201 170 c 0.09 -0.02 3.33 -0.96 5 -1 c 10.82 -0.28 21.82 0.26 33 0 c 3.4 -0.08 7.01 -0.04 10 -1 c 4.93 -1.58 15 -7 15 -7"/></svg>