<?xml version="1.0" encoding="UTF-8" standalone="no"?><!DOCTYPE svg PUBLIC "-//W3C//DTD SVG 1.1//EN" "http://www.w3.org/Graphics/SVG/1.1/DTD/svg11.dtd"><svg xmlns="http://www.w3.org/2000/svg" version="1.1" width="234" height="196"><path fill="none" stroke="#000000" stroke-width="2" stroke-linecap="round" stroke-linejoin="round" d="M 199 191 c 0.04 -0.47 0.94 -17.84 2 -27 c 0.99 -8.57 1.82 -16.89 4 -25 c 3.81 -14.19 8.75 -28.51 14 -42 c 1.65 -4.23 5.05 -7.81 7 -12 c 2.72 -5.82 7 -18 7 -18"/><path fill="none" stroke="#000000" stroke-width="2" stroke-linecap="round" stroke-linejoin="round" d="M 225 37 c -0.52 0.28 -20.1 10.09 -30 16 c -9.45 5.64 -18.26 11.45 -27 18 c -7.45 5.59 -13.34 13.22 -21 18 c -18.58 11.61 -38.59 21.42 -59 32 c -8.03 4.16 -16.17 7.97 -24 11 c -2.1 0.81 -4.9 1.16 -7 1 c -1.88 -0.14 -4.35 -1.08 -6 -2 c -1.11 -0.61 -3.13 -2.01 -3 -3 c 0.86 -6.48 3.82 -18.52 7 -27 c 2.7 -7.2 6.68 -14.6 11 -21 c 4.53 -6.71 10.29 -12.76 16 -19 c 5.2 -5.69 10.34 -10.7 16 -16 c 5.31 -4.98 10.36 -10.24 16 -14 c 4.99 -3.32 11.2 -5.89 17 -8 c 5.09 -1.85 11.21 -3.58 16 -4 c 2.12 -0.18 5.27 0.96 7 2 c 1.19 0.71 2.87 2.65 3 4 c 0.44 4.61 -0.38 11.21 -1 17 c -1.09 10.29 -3.25 19.73 -4 30 c -1.64 22.42 -2.76 43.76 -3 66 c -0.1 9.12 0.66 18.18 2 27 c 0.97 6.4 2.92 13.21 5 19 c 0.76 2.12 2.5 4.32 4 6 c 1.04 1.17 3.25 3.59 4 3 c 5.95 -4.65 18.12 -18.64 28 -28 c 9.37 -8.87 18.99 -16.22 28 -25 l 12 -14"/><path fill="none" stroke="#000000" stroke-width="2" stroke-linecap="round" stroke-linejoin="round" d="M 136 8 c -0.07 0.4 -3.41 15.24 -4 23 c -1.08 14.3 -0.41 29.02 -1 43 c -0.06 1.34 -0.57 4.19 -1 4 c -1.19 -0.53 -5.48 -5.12 -8 -8 c -4.6 -5.25 -8.41 -11.19 -13 -16 c -2.23 -2.33 -5.22 -4.22 -8 -6 c -1.86 -1.2 -4.05 -2.55 -6 -3 c -2.03 -0.47 -4.79 -0.32 -7 0 c -2.3 0.33 -5.12 0.87 -7 2 c -2.74 1.65 -5.61 4.45 -8 7 c -2.56 2.73 -4.41 6.18 -7 9 c -5.15 5.6 -16.62 16.12 -16 16 c 1.02 -0.19 20.91 -13.06 32 -19 c 7.87 -4.22 15.71 -7.79 24 -11 c 8.24 -3.19 16.4 -5.67 25 -8 c 7.71 -2.09 15.15 -3.66 23 -5 c 6.04 -1.03 12.35 -2.18 18 -2 c 4.17 0.13 9.01 1.47 13 3 c 4.41 1.7 9.86 4.49 13 7 c 1.15 0.92 2.7 4.72 2 5 c -2.2 0.88 -11.24 0.38 -17 1 c -6.84 0.74 -13.25 1.6 -20 3 c -13.03 2.7 -25.7 5.01 -38 9 c -11.29 3.66 -23.07 8.25 -33 14 c -8.48 4.91 -15.5 12.98 -24 19 c -13.64 9.65 -28.17 17.32 -41 27 c -5.91 4.46 -15.81 15.06 -16 16 c -0.13 0.63 9.39 -3.7 14 -6 c 5.55 -2.78 10.39 -6.13 16 -9 c 9.84 -5.03 19.03 -9.94 29 -14 c 8.13 -3.31 17.84 -7.64 25 -8 c 4.41 -0.22 11.55 3.17 15 6 c 2.97 2.43 5.18 7.87 7 12 c 1.78 4.04 3.69 8.7 4 13 c 0.97 13.59 0.51 28.69 0 43 c -0.16 4.38 -0.94 8.99 -2 13 c -0.54 2.05 -1.8 4.8 -3 6 l -4 1"/><path fill="none" stroke="#000000" stroke-width="2" stroke-linecap="round" stroke-linejoin="round" d="M 142 64 c 0.19 0.12 7.82 4.5 11 7 c 1.22 0.96 2.36 2.59 3 4 c 0.93 2.05 1.73 4.69 2 7 c 0.37 3.17 0.51 6.94 0 10 c -0.44 2.61 -1.76 5.52 -3 8 c -1.05 2.09 -2.42 4.42 -4 6 c -1.88 1.88 -7.11 5.1 -7 5 c 0.34 -0.31 13.18 -12.45 20 -17 c 3.62 -2.41 9.18 -4.1 13 -5 c 1.13 -0.27 3.71 0.22 4 1 c 0.69 1.9 0.33 6.74 0 10 c -0.33 3.33 -1.61 6.59 -2 10 c -0.96 8.39 -1.79 16.65 -2 25 c -0.12 4.67 0.48 12.44 1 14 c 0.13 0.4 3.12 -2.03 3 -2 c -0.91 0.23 -17.89 5.83 -27 8 c -4.9 1.17 -12.62 2.48 -15 2 c -0.79 -0.16 -0.35 -3.49 0 -5 c 0.6 -2.58 1.7 -5.77 3 -8 c 0.86 -1.48 2.56 -2.88 4 -4 c 1.49 -1.16 3.25 -2.05 5 -3 c 2.01 -1.1 3.98 -2.27 6 -3 c 1.54 -0.56 3.52 -1.13 5 -1 c 1.84 0.17 4.92 0.74 6 2 c 2.29 2.67 4.25 7.82 6 12 c 2.64 6.31 4.38 12.82 7 19 c 1.04 2.46 2.43 5.43 4 7 c 1.05 1.05 3.36 1.77 5 2 c 2.74 0.39 6.13 0.46 9 0 c 5.26 -0.84 11.11 -2.01 16 -4 l 16 -9"/><path fill="none" stroke="#000000" stroke-width="2" stroke-linecap="round" stroke-linejoin="round" d="M 1 78 c 0.18 -0.19 6.17 -8.13 10 -11 c 11.72 -8.79 24.69 -16.56 38 -25 c 15.11 -9.58 30.21 -17.55 44 -27 c 3.78 -2.59 7.47 -6.78 10 -10 c 0.74 -0.94 1.3 -4.15 1 -4 c -1.86 0.93 -14.89 8.6 -21 14 c -7.88 6.97 -16.01 15.74 -22 24 c -3.21 4.43 -7.57 12.57 -7 16 c 0.45 2.67 7.09 5.75 11 8 c 7.07 4.07 16.98 7.51 22 11 c 1.04 0.72 1.22 3.55 1 5 c -0.37 2.43 -1.67 5.51 -3 8 c -3.97 7.45 -8.38 14.71 -13 22 c -1.81 2.85 -4.34 5.23 -6 8 c -1.27 2.11 -2.86 4.89 -3 7 c -0.15 2.28 0.68 6.08 2 8 c 1.93 2.81 5.78 5.66 9 8 c 4.08 2.97 8.46 5.57 13 8 c 4.92 2.64 9.77 5.09 15 7 c 12.29 4.49 24.21 8.12 37 12 c 6.46 1.96 12.49 3.53 19 5 c 4.03 0.91 8.19 2 12 2 c 3.81 0 8.33 -0.83 12 -2 c 3.37 -1.07 6.93 -3.08 10 -5 c 2.15 -1.34 4.72 -3.08 6 -5 c 1.76 -2.64 3.41 -6.67 4 -10 c 0.99 -5.57 0.84 -11.8 1 -18 c 0.19 -7.22 0.8 -14.24 0 -21 c -0.83 -6.94 -1.36 -16.15 -5 -21 c -6.93 -9.24 -20.28 -18.43 -31 -27 c -4.34 -3.47 -9.08 -6.13 -14 -9 c -7.4 -4.32 -15.62 -7.92 -22 -12 c -1.27 -0.81 -2.7 -2.78 -3 -4 c -0.25 -1 0.13 -3.38 1 -4 c 4.8 -3.43 13.27 -7.96 20 -11 c 3.36 -1.52 7.52 -2.63 11 -3 c 2.46 -0.26 6.48 0.15 8 1 c 0.78 0.43 1.19 2.85 1 4 c -0.4 2.38 -1.72 5.45 -3 8 c -3.41 6.82 -6.99 13.31 -11 20 c -4.19 6.99 -8.25 13.67 -13 20 c -3.24 4.32 -7.04 8.18 -11 12 c -5.52 5.32 -16.6 13.81 -17 15 c -0.23 0.7 8.57 -2.31 13 -3 c 6.35 -0.99 12.66 -1.82 19 -2 c 5.65 -0.16 11.79 -0.08 17 1 c 3.98 0.82 8.78 2.85 12 5 c 2.29 1.52 4.64 4.67 6 7 c 0.75 1.29 1.35 3.71 1 5 c -0.5 1.83 -2.26 4.65 -4 6 c -6.61 5.14 -16.06 12.06 -23 15 c -2.54 1.08 -8.06 0.46 -10 -1 c -2.42 -1.82 -4.27 -7.2 -6 -11 l -4 -11"/></svg>