<?xml version="1.0" encoding="UTF-8" standalone="no"?><!DOCTYPE svg PUBLIC "-//W3C//DTD SVG 1.1//EN" "http://www.w3.org/Graphics/SVG/1.1/DTD/svg11.dtd"><svg xmlns="http://www.w3.org/2000/svg" version="1.1" width="306" height="158"><path fill="none" stroke="#000000" stroke-width="2" stroke-linecap="round" stroke-linejoin="round" d="M 1 96 c 0.56 -0.7 20.18 -28.51 32 -40 c 11.54 -11.22 26.44 -20.61 40 -30 c 3.64 -2.52 7.93 -4.29 12 -6 c 2.21 -0.93 5.21 -2.45 7 -2 c 2.66 0.67 8.43 3.5 9 6 c 1.53 6.69 0.38 19.63 -1 29 c -1.57 10.66 -4.78 21.19 -8 32 c -5.34 17.94 -11.53 34.1 -17 52 c -2.06 6.74 -5.67 20.7 -5 20 c 3.33 -3.44 41.8 -52 63 -80 c 15.37 -20.3 27.98 -40.65 43 -60 c 4.6 -5.93 15.62 -17.52 16 -16 c 0.82 3.26 -4.59 31.71 -8 48 c -4.46 21.35 -17.45 57.09 -15 62 c 1.59 3.18 23.79 -15.39 35 -22 c 1.12 -0.66 3.38 -1.54 4 -1 l 4 8"/><path fill="none" stroke="#000000" stroke-width="2" stroke-linecap="round" stroke-linejoin="round" d="M 195 136 c 0.18 -0.28 6.15 -11.62 10 -16 c 3.06 -3.48 8.52 -7.36 12 -9 c 1.18 -0.56 3.58 0.35 5 1 c 2.01 0.91 4.81 2.34 6 4 c 1.77 2.48 2.4 10.15 4 10 c 3.08 -0.29 10.9 -9.08 17 -12 c 17.74 -8.5 56 -23 56 -23"/></svg>