<?xml version="1.0" encoding="UTF-8" standalone="no"?><!DOCTYPE svg PUBLIC "-//W3C//DTD SVG 1.1//EN" "http://www.w3.org/Graphics/SVG/1.1/DTD/svg11.dtd"><svg xmlns="http://www.w3.org/2000/svg" version="1.1" width="142" height="134"><path fill="none" stroke="#000000" stroke-width="2" stroke-linecap="round" stroke-linejoin="round" d="M 1 29 c 0.32 -0.1 11.79 -4.31 18 -6 c 8.74 -2.38 17.78 -3.04 26 -6 c 11.86 -4.28 35 -16 35 -16"/><path fill="none" stroke="#000000" stroke-width="2" stroke-linecap="round" stroke-linejoin="round" d="M 54 2 c -0.09 0.23 -2.9 8.95 -5 13 c -2.51 4.84 -9.4 11.73 -9 14 c 0.3 1.69 8.56 3.29 12 3 c 3.61 -0.3 11.55 -5.09 12 -5 c 0.32 0.06 -4.96 3.72 -7 6 c -8.93 10.02 -25.58 30.43 -26 31 c -0.14 0.19 6.8 -5.8 10 -9 c 2.53 -2.53 4.38 -6.2 7 -8 c 3.21 -2.2 11.61 -5.87 12 -5 c 0.48 1.08 -5.09 9.97 -8 14 c -1.15 1.6 -3.53 2.53 -5 4 c -1.47 1.47 -3.56 3.22 -4 5 c -1.33 5.31 -2.11 17.13 -2 19 c 0.02 0.35 2.35 -1.13 3 -2 c 2.1 -2.81 3.69 -7.03 6 -10 c 2.24 -2.88 5.18 -5.38 8 -8 c 1.95 -1.81 3.98 -3.9 6 -5 c 1.32 -0.72 5 -1.56 5 -1 c 0 1.42 -2.79 8.54 -5 12 c -2.9 4.53 -6.97 8.97 -11 13 c -6.03 6.03 -19.32 16.68 -19 17 c 0.32 0.32 13.77 -10.54 21 -15 c 4.01 -2.48 13.07 -6.5 13 -6 c -0.1 0.67 -10.41 8.57 -14 13 c -1.6 1.98 -2.48 5.3 -3 8 c -1.1 5.73 -1.58 11.9 -2 18 l 0 11"/><path fill="none" stroke="#000000" stroke-width="2" stroke-linecap="round" stroke-linejoin="round" d="M 64 100 c 0.05 0.07 2.77 2.71 3 4 c 0.33 1.83 -0.46 4.71 -1 7 c -0.8 3.39 -1.6 6.92 -3 10 c -1.86 4.09 -4.79 10.58 -7 12 c -1.21 0.78 -5.57 -1.57 -7 -3 c -1.43 -1.43 -3 -7 -3 -7"/><path fill="none" stroke="#000000" stroke-width="2" stroke-linecap="round" stroke-linejoin="round" d="M 103 27 c 0.21 -0.05 8.18 -1.57 12 -3 c 6.78 -2.54 20 -9 20 -9"/><path fill="none" stroke="#000000" stroke-width="2" stroke-linecap="round" stroke-linejoin="round" d="M 127 9 c -0.05 0.12 -1.73 4.81 -3 7 c -4.73 8.15 -9.42 16.57 -15 24 c -4.32 5.76 -14.22 14.54 -15 16 c -0.25 0.47 5.04 -0.05 7 -1 c 8.31 -4.03 25.16 -14.74 26 -15 c 0.39 -0.12 -6.97 6.39 -10 10 c -3.98 4.74 -10.78 14.73 -11 15 c -0.05 0.07 1.1 -2.98 2 -4 c 1.58 -1.77 3.89 -3.6 6 -5 c 1.81 -1.21 4.97 -3.46 6 -3 c 1.17 0.52 3.59 5.18 3 7 c -2.36 7.28 -15.21 26.72 -14 27 c 1.43 0.33 27.42 -24.47 27 -24 c -0.58 0.64 -24.07 22.36 -36 34 c -1.88 1.84 -5 5.24 -5 6 c 0 0.49 3.49 0.3 5 0 c 1.62 -0.32 3.44 -1.13 5 -2 c 6.76 -3.79 17.97 -11.25 20 -12 c 0.44 -0.16 -0.44 3.44 -1 5 c -1.08 3.02 -2.38 6.2 -4 9 c -2.01 3.47 -5.09 6.51 -7 10 c -2.03 3.72 -4.76 11.84 -5 12 c -0.19 0.12 0.62 -7.55 2 -10 c 1.25 -2.22 4.5 -4.38 7 -6 c 3.03 -1.96 6.76 -4.19 10 -5 c 2.89 -0.72 6.78 -0.23 10 0 c 1.33 0.09 3.94 0.29 4 1 c 0.16 1.96 -1.26 8.25 -3 11 c -1.84 2.91 -5.83 6 -9 8 c -2.84 1.79 -6.75 3.38 -10 4 l -11 0"/></svg>