<?xml version="1.0" encoding="UTF-8" standalone="no"?><!DOCTYPE svg PUBLIC "-//W3C//DTD SVG 1.1//EN" "http://www.w3.org/Graphics/SVG/1.1/DTD/svg11.dtd"><svg xmlns="http://www.w3.org/2000/svg" version="1.1" width="313" height="140"><path fill="none" stroke="#000000" stroke-width="2" stroke-linecap="round" stroke-linejoin="round" d="M 5 32 c 0.18 -0.17 6.3 -7.54 10 -10 c 5.84 -3.9 15.65 -9.09 20 -10 c 1.24 -0.26 3.88 3.5 4 5 c 0.15 2 -1.47 5.76 -3 8 c -6.77 9.89 -15.02 20.15 -23 30 c -2.09 2.58 -7.14 7.1 -7 7 c 0.21 -0.16 7.1 -7.29 11 -10 c 3.52 -2.45 8 -4.25 12 -6 c 1.23 -0.54 3 -1.25 4 -1 c 1.22 0.3 3.79 1.94 4 3 c 0.31 1.54 -0.66 5.26 -2 7 c -9.02 11.67 -31.44 36.08 -32 37 c -0.26 0.43 12.1 -10.22 18 -14 c 1.88 -1.21 4.7 -1.67 7 -2 c 2.21 -0.32 6.34 -1.03 7 0 c 1.03 1.62 0.78 7.74 0 11 c -1.08 4.52 -3.61 9.48 -6 14 c -4 7.59 -8.33 15.23 -13 22 c -1.81 2.62 -4.9 4.52 -7 7 c -1.53 1.81 -2.5 4.32 -4 6 c -1.04 1.17 -3.88 3.47 -4 3 c -0.35 -1.4 -0.5 -10.76 1 -15 c 2.18 -6.19 6.83 -12.98 11 -19 c 4.86 -7.02 10.35 -13.15 16 -20 c 5.79 -7.02 10.93 -13.42 17 -20 c 6.21 -6.73 12.21 -12.95 19 -19 c 8.81 -7.85 18.19 -15.39 27 -22 c 1.36 -1.02 4.26 -2.37 5 -2 c 0.71 0.35 1.58 3.84 1 5 c -1.87 3.74 -6.38 8.65 -10 13 c -16.74 20.14 -33.15 39.72 -49 58 c -0.75 0.87 -3.06 2.03 -3 2 c 0.3 -0.15 11.61 -5.49 17 -9 c 10.03 -6.54 19.63 -13.66 29 -21 c 2.96 -2.32 5.54 -5.16 8 -8 c 1.87 -2.16 4.35 -4.61 5 -7 c 1.14 -4.18 2.77 -11.78 1 -15 c -2.6 -4.71 -11.44 -9.01 -17 -14 c -4.29 -3.84 -9.06 -7.88 -12 -12 c -1.65 -2.3 -2.59 -6.31 -3 -9 c -0.18 -1.17 0.53 -4.08 1 -4 c 0.8 0.13 4.36 3.19 5 5 c 1.09 3.09 0.94 7.9 1 12 c 0.28 18.4 1.75 36.33 0 54 c -1.88 18.99 -10.73 55.8 -11 57 c -0.04 0.17 -0.89 -5.92 0 -8 c 1.76 -4.11 5.77 -8.76 9 -13 c 2.17 -2.85 4.47 -5.84 7 -8 c 1.92 -1.64 4.69 -3.56 7 -4 c 4.02 -0.77 11.15 -1.17 14 0 c 1.55 0.64 2.37 4.65 3 7 c 0.66 2.48 0.9 5.29 1 8 c 0.23 6.05 0.47 12.36 0 18 l -2 6"/><path fill="none" stroke="#000000" stroke-width="2" stroke-linecap="round" stroke-linejoin="round" d="M 129 59 c 0.18 0.04 6.82 2 10 2 c 4.42 0 9.51 -0.88 14 -2 c 4.72 -1.18 9.4 -2.98 14 -5 c 9.28 -4.07 25.33 -10.85 27 -13 c 0.78 -1 -9.07 -2.87 -13 -5 c -3.84 -2.08 -7.96 -5.17 -11 -8 c -1.3 -1.21 -2.59 -3.36 -3 -5 c -0.49 -1.97 0 -7.12 0 -7 c 0 0.6 1.65 23.45 0 34 c -1.53 9.82 -5.98 20.22 -10 30 c -3.69 8.99 -8.24 17.62 -13 26 c -2.23 3.92 -7.36 10.63 -8 11 c -0.33 0.19 0.02 -5.12 1 -7 c 3 -5.76 7.67 -12 12 -18 c 4.56 -6.32 8.9 -12.28 14 -18 c 6.01 -6.74 13.13 -14.11 19 -19 c 1.11 -0.93 3.94 -1.47 5 -1 c 1.34 0.59 3.82 3.36 4 5 c 0.37 3.37 -0.82 8.97 -2 13 c -1.08 3.71 -3 7.5 -5 11 c -3.35 5.86 -7.11 11.65 -11 17 c -1.36 1.87 -3.23 3.43 -5 5 c -1.25 1.11 -2.83 3 -4 3 c -1.78 0 -6.63 -1.34 -7 -3 c -1.6 -7.2 -1.95 -29.91 -1 -33 c 0.33 -1.07 6.4 4.31 9 7 c 6.62 6.86 12.29 15.07 19 22 c 3.61 3.72 7.75 7.33 12 10 c 4.5 2.83 9.88 5.24 15 7 c 5.4 1.86 11.29 3.18 17 4 l 18 1"/><path fill="none" stroke="#000000" stroke-width="2" stroke-linecap="round" stroke-linejoin="round" d="M 243 23 c -0.07 0.23 -2.36 8.89 -4 13 c -0.97 2.44 -4.75 6.66 -4 7 c 1.41 0.64 10.24 -0.71 15 -2 c 7.37 -1.99 14.84 -5.04 22 -8 c 2.47 -1.02 4.88 -2.52 7 -4 c 1.11 -0.78 2.39 -1.93 3 -3 c 0.59 -1.04 1.56 -3.31 1 -4 c -1.67 -2.04 -6.85 -5.62 -10 -7 c -1.55 -0.68 -5.22 -0.95 -6 0 c -1.48 1.81 -2.26 7.28 -3 11 c -0.59 2.95 -0.32 6.12 -1 9 c -0.96 4.02 -2.4 8.09 -4 12 c -1.41 3.46 -2.85 7.08 -5 10 c -6 8.16 -19.46 23.4 -20 24 c -0.08 0.09 1.02 -3.09 2 -4 c 3.28 -3.05 7.76 -6.18 12 -9 c 5.96 -3.97 12.19 -7.97 18 -11 c 1.41 -0.73 3.81 -1.3 5 -1 c 0.99 0.25 3.14 2.12 3 3 c -0.36 2.33 -2.74 7.31 -5 10 c -6 7.15 -14.25 13.62 -21 21 l -11 14"/><path fill="none" stroke="#000000" stroke-width="2" stroke-linecap="round" stroke-linejoin="round" d="M 261 83 c 0.07 -0.02 3.91 -1.58 4 -1 c 0.44 2.96 -2.07 16.92 -1 21 c 0.37 1.41 4.69 1.79 7 2 c 4.77 0.43 10.32 0.76 15 0 c 5.23 -0.84 10.93 -3.07 16 -5 c 1.76 -0.67 3.36 -1.91 5 -3 c 1.41 -0.94 3.29 -1.86 4 -3 c 0.73 -1.16 0.97 -3.33 1 -5 c 0.29 -14.1 0 -43 0 -43"/></svg>