<?xml version="1.0" encoding="UTF-8" standalone="no"?><!DOCTYPE svg PUBLIC "-//W3C//DTD SVG 1.1//EN" "http://www.w3.org/Graphics/SVG/1.1/DTD/svg11.dtd"><svg xmlns="http://www.w3.org/2000/svg" version="1.1" width="311" height="118"><path fill="none" stroke="#000000" stroke-width="2" stroke-linecap="round" stroke-linejoin="round" d="M 1 16 c 0.25 -0.02 9.33 -0.36 14 -1 c 5.09 -0.7 10.43 -2.52 15 -3 c 1.23 -0.13 3.81 0.23 4 1 c 0.51 2.06 0.21 8.03 -1 11 c -1.49 3.65 -5.09 7.44 -8 11 c -3.18 3.89 -9.53 9.7 -10 11 c -0.19 0.52 4.45 0.68 6 0 c 3.15 -1.38 6.62 -5.4 10 -7 c 2.55 -1.21 7.89 -2.42 9 -2 c 0.61 0.23 -0.12 3.82 -1 5 c -3.55 4.73 -9.02 10.21 -14 15 c -4.13 3.98 -12.87 8.92 -13 11 c -0.1 1.59 9.4 2.95 12 5 c 1.27 1 1.81 4.02 2 6 c 0.45 4.69 0.63 10.57 0 15 c -0.28 1.98 -1.86 4.1 -3 6 c -0.85 1.41 -1.9 2.9 -3 4 c -0.8 0.8 -1.95 1.47 -3 2 c -1.57 0.79 -3.67 2.13 -5 2 l -5 -3"/><path fill="none" stroke="#000000" stroke-width="2" stroke-linecap="round" stroke-linejoin="round" d="M 88 11 c 0.18 0 9.08 -0.92 10 0 c 0.7 0.7 -1.62 5.05 -3 7 c -2.43 3.45 -5.77 6.68 -9 10 c -10.19 10.45 -19.5 19.95 -30 30 c -5.26 5.03 -14.32 11.76 -16 14 c -0.35 0.47 2.68 1.78 4 2 c 2.35 0.39 5.55 0.61 8 0 c 10.29 -2.57 21.81 -5.85 32 -10 c 7.61 -3.1 15.59 -7.81 22 -12 c 1.64 -1.07 3.22 -3.29 4 -5 l 1 -6"/><path fill="none" stroke="#000000" stroke-width="2" stroke-linecap="round" stroke-linejoin="round" d="M 71 1 c 0.04 0.05 1.94 1.98 2 3 c 0.52 8.52 1.42 20.42 0 30 c -2.15 14.48 -7.61 28.87 -11 44 c -1.74 7.79 -4.14 19.88 -4 23 c 0.03 0.68 3.94 -0.12 5 -1 c 2.37 -1.98 4.44 -6.15 7 -9 c 3.5 -3.89 11 -11 11 -11"/><path fill="none" stroke="#000000" stroke-width="2" stroke-linecap="round" stroke-linejoin="round" d="M 93 63 c 0.09 0.26 2.76 10.38 5 15 c 2.99 6.16 7.07 12.68 11 18 c 1.46 1.97 3.87 3.93 6 5 c 2.85 1.42 10 3 10 3"/><path fill="none" stroke="#000000" stroke-width="2" stroke-linecap="round" stroke-linejoin="round" d="M 146 52 c 0.16 0 6.25 0.48 9 0 c 2.61 -0.46 5.41 -1.74 8 -3 c 11.92 -5.82 23.22 -12.26 35 -18 c 1.89 -0.92 6 -2 6 -2"/><path fill="none" stroke="#000000" stroke-width="2" stroke-linecap="round" stroke-linejoin="round" d="M 177 2 c 0.03 0.1 1.95 4.04 2 6 c 0.26 9.94 0.45 21.66 -1 32 c -1.5 10.65 -4.92 21.34 -8 32 c -1.3 4.5 -3.64 8.52 -5 13 c -2.01 6.64 -4.93 19.65 -5 20 c -0.02 0.09 1.09 -3.48 2 -5 c 5.02 -8.37 10.15 -16.82 16 -25 c 6.03 -8.44 16.1 -21.76 19 -24 c 0.72 -0.56 2.57 4.72 3 7 c 0.51 2.7 0.31 6.06 0 9 c -0.35 3.33 -0.72 7.04 -2 10 c -2.87 6.62 -7.08 13.38 -11 20 c -1.48 2.49 -3.06 5.21 -5 7 c -2.12 1.96 -6.23 5 -8 5 c -1.2 0 -3.67 -3.27 -4 -5 c -0.82 -4.32 -0.36 -10.66 0 -16 c 0.31 -4.72 0.66 -11.66 2 -14 c 0.57 -0.99 4.96 -0.97 6 0 c 2.64 2.46 5.09 8.84 8 13 c 1.76 2.51 3.83 4.83 6 7 c 2.17 2.17 4.49 4.33 7 6 c 3.41 2.27 7.23 4.3 11 6 c 2.86 1.29 6.05 2.56 9 3 l 11 0"/><path fill="none" stroke="#000000" stroke-width="2" stroke-linecap="round" stroke-linejoin="round" d="M 249 21 c 0 0.09 0.33 3.46 0 5 c -0.62 2.91 -1.67 6.2 -3 9 c -1.95 4.1 -6.73 10.41 -7 12 c -0.1 0.57 3.61 0.46 5 0 c 2.23 -0.74 4.54 -2.88 7 -4 c 4.92 -2.24 10.28 -3.56 15 -6 c 4.86 -2.51 10.56 -5.76 14 -9 l 3 -7"/><path fill="none" stroke="#000000" stroke-width="2" stroke-linecap="round" stroke-linejoin="round" d="M 273 14 c -0.03 0.28 -0.7 10.98 -2 16 c -1.3 5.03 -3.71 10.64 -6 15 c -0.8 1.53 -4 4 -4 4"/><path fill="none" stroke="#000000" stroke-width="2" stroke-linecap="round" stroke-linejoin="round" d="M 229 78 c 0.14 -0.02 5.55 -0.28 8 -1 c 3 -0.88 6.12 -2.36 9 -4 c 11.94 -6.78 32.4 -20 35 -21 c 0.63 -0.24 -2.08 6.52 -4 9 c -11.21 14.49 -25.74 29.85 -37 44 l -2 5"/><path fill="none" stroke="#000000" stroke-width="2" stroke-linecap="round" stroke-linejoin="round" d="M 269 80 c -0.05 0.28 -1.61 10.77 -3 16 c -1.27 4.78 -3.82 9.52 -5 14 c -0.4 1.51 -0.69 4.2 0 5 c 0.87 1.01 4.03 1.77 6 2 c 3.43 0.4 7.63 0.53 11 0 c 2.62 -0.41 5.5 -1.75 8 -3 c 2.77 -1.38 5.46 -3.14 8 -5 c 2.48 -1.82 5.14 -3.81 7 -6 c 1.62 -1.92 3.07 -4.57 4 -7 c 1.68 -4.4 2.93 -9.27 4 -14 c 0.59 -2.62 0.91 -5.29 1 -8 c 0.24 -7.05 0 -21 0 -21"/></svg>