<?xml version="1.0" encoding="UTF-8" standalone="no"?><!DOCTYPE svg PUBLIC "-//W3C//DTD SVG 1.1//EN" "http://www.w3.org/Graphics/SVG/1.1/DTD/svg11.dtd"><svg xmlns="http://www.w3.org/2000/svg" version="1.1" width="315" height="154"><path fill="none" stroke="#000000" stroke-width="2" stroke-linecap="round" stroke-linejoin="round" d="M 3 20 c 0.37 0.12 14.36 4.51 21 7 c 1.08 0.41 2.33 1.19 3 2 c 0.84 1 1.93 2.7 2 4 c 0.23 4.07 0.6 10.13 -1 14 c -3.59 8.65 -10.52 18.51 -16 27 c -0.99 1.53 -3.13 2.61 -4 4 c -0.63 1.01 -1.58 3.71 -1 4 c 1.56 0.78 7.34 1 11 1 c 4.32 0 9.95 -1.57 13 -1 c 1.17 0.22 3.32 2.98 3 4 c -0.92 2.93 -4.83 8.54 -8 12 c -7.63 8.32 -25.11 22.07 -25 24 c 0.09 1.5 17.5 -5.47 26 -7 c 4.1 -0.74 10.68 -1.24 13 0 c 1.47 0.79 1.86 5.43 2 8 c 0.17 3.13 0.33 7.43 -1 10 c -2.84 5.48 -8.59 12.1 -13 17 l -5 3"/><path fill="none" stroke="#000000" stroke-width="2" stroke-linecap="round" stroke-linejoin="round" d="M 41 116 l 45 -37"/><path fill="none" stroke="#000000" stroke-width="2" stroke-linecap="round" stroke-linejoin="round" d="M 58 60 c -0.02 0.09 -0.98 3.33 -1 5 c -0.31 22.63 -0.3 45.81 0 69 c 0.04 2.71 0.39 5.56 1 8 c 0.34 1.35 1.16 3 2 4 c 0.67 0.81 2.31 2.28 3 2 c 1.76 -0.7 5.67 -3.71 7 -6 c 1.96 -3.38 4 -13 4 -13"/><path fill="none" stroke="#000000" stroke-width="2" stroke-linecap="round" stroke-linejoin="round" d="M 87 59 c -0.07 0.09 -3.12 3.25 -4 5 c -1 1.99 -1.05 4.78 -2 7 c -3.04 7.09 -6.42 14.1 -10 21 c -1.11 2.14 -2.38 4.65 -4 6 c -2.01 1.67 -7.85 3.94 -8 4 c -0.06 0.02 1.98 -1.89 3 -2 c 4.24 -0.47 10.1 -0.39 15 0 c 3.33 0.27 6.89 0.86 10 2 c 6.69 2.45 13.47 6.82 20 9 c 2.99 1 10 1 10 1"/><path fill="none" stroke="#000000" stroke-width="2" stroke-linecap="round" stroke-linejoin="round" d="M 123 48 c 0.12 -0.11 4.43 -4.46 7 -6 c 7.22 -4.33 14.97 -8.14 23 -12 c 9.84 -4.73 29 -13 29 -13"/><path fill="none" stroke="#000000" stroke-width="2" stroke-linecap="round" stroke-linejoin="round" d="M 126 23 c -0.05 0.11 -2.75 4.01 -3 6 c -0.67 5.33 -0.33 11.92 0 18 c 0.35 6.45 2 19 2 19"/><path fill="none" stroke="#000000" stroke-width="2" stroke-linecap="round" stroke-linejoin="round" d="M 149 22 c -0.04 0.14 -1.69 5.31 -2 8 c -0.68 5.89 -1 18 -1 18"/><path fill="none" stroke="#000000" stroke-width="2" stroke-linecap="round" stroke-linejoin="round" d="M 112 92 c 0.14 -0.12 5.25 -5.45 8 -7 c 2.14 -1.2 8 -2 8 -2"/><path fill="none" stroke="#000000" stroke-width="2" stroke-linecap="round" stroke-linejoin="round" d="M 103 123 c 0.03 -0.09 0.89 -3.89 2 -5 c 3.97 -3.97 9.9 -8.35 15 -12 c 1.78 -1.27 4.4 -3 6 -3 c 1.39 0 5 3 5 3"/><path fill="none" stroke="#000000" stroke-width="2" stroke-linecap="round" stroke-linejoin="round" d="M 128 128 c -0.04 0.05 -2.03 3.06 -2 3 c 0.1 -0.2 3.63 -7.65 6 -11 c 3.22 -4.55 11 -13 11 -13"/><path fill="none" stroke="#000000" stroke-width="2" stroke-linecap="round" stroke-linejoin="round" d="M 166 68 c 0.05 -0.12 2.86 -7.22 3 -7 c 0.19 0.28 -0.92 6.6 -1 10 c -0.26 11.18 -0.03 32.27 0 33 c 0 0.11 1 -3.36 1 -5 c 0 -6.13 0.02 -14.7 -1 -19 c -0.24 -1.01 -2.64 -1.63 -4 -2 c -2.14 -0.58 -4.77 -1 -7 -1 c -1.92 0 -4.25 0.42 -6 1 c -1.04 0.35 -2.22 1.22 -3 2 c -0.78 0.78 -2.22 3.08 -2 3 c 2.64 -0.97 27.08 -12.53 40 -17 c 3.58 -1.24 9.44 -1.55 12 -1 c 0.95 0.2 1.85 2.67 2 4 c 0.46 4.15 1.22 9.9 0 14 c -3.12 10.49 -8.86 22.04 -14 33 c -2.63 5.61 -5.72 10.65 -9 16 c -3.22 5.25 -6.38 10.52 -10 15 l -7 6"/><path fill="none" stroke="#000000" stroke-width="2" stroke-linecap="round" stroke-linejoin="round" d="M 222 41 c 0.25 -0.09 9.47 -2.97 14 -5 c 5.18 -2.32 9.94 -5.06 15 -8 c 13.89 -8.08 40 -24 40 -24"/><path fill="none" stroke="#000000" stroke-width="2" stroke-linecap="round" stroke-linejoin="round" d="M 235 11 c 0.03 0.26 0.8 10.42 2 15 c 0.71 2.71 4 8 4 8"/><path fill="none" stroke="#000000" stroke-width="2" stroke-linecap="round" stroke-linejoin="round" d="M 265 1 c -0.04 0.16 -1.65 6.02 -2 9 c -0.3 2.59 0 8 0 8"/><path fill="none" stroke="#000000" stroke-width="2" stroke-linecap="round" stroke-linejoin="round" d="M 232 67 c 0.05 -0.04 1.94 -1.72 3 -2 c 3.56 -0.95 12 -2 12 -2"/><path fill="none" stroke="#000000" stroke-width="2" stroke-linecap="round" stroke-linejoin="round" d="M 228 91 c 0.07 -0.11 2.48 -4.31 4 -6 c 1.35 -1.5 3.23 -2.97 5 -4 c 2.1 -1.23 7 -3 7 -3"/><path fill="none" stroke="#000000" stroke-width="2" stroke-linecap="round" stroke-linejoin="round" d="M 246 119 c 0 -0.21 -0.37 -8.11 0 -12 c 0.28 -2.99 0.71 -6.34 2 -9 c 8.36 -17.28 19.24 -35.48 28 -53 c 1.06 -2.13 1.15 -4.87 2 -7 c 0.42 -1.06 2.02 -3.17 2 -3 c -0.16 1.42 -3.98 19.97 -5 30 c -0.64 6.27 -0.04 19.33 0 19 c 0.07 -0.64 2.47 -27.05 2 -37 c -0.08 -1.72 -2.6 -4.22 -4 -5 c -1.09 -0.61 -3.8 -0.53 -5 0 c -1.36 0.6 -2.79 2.59 -4 4 c -0.77 0.9 -2.38 2.56 -2 3 c 0.94 1.09 5.77 4.48 8 4 c 7.81 -1.69 19.13 -8.16 29 -12 c 2.29 -0.89 4.7 -1.65 7 -2 c 1.89 -0.29 4.99 -0.76 6 0 c 1.07 0.8 2.11 4.2 2 6 c -0.19 3.24 -1.22 7.89 -3 11 c -6.77 11.79 -15.54 23.66 -24 36 c -4.34 6.33 -8.25 12.49 -13 18 c -3.48 4.04 -7.77 7.87 -12 11 l -11 6"/><path fill="none" stroke="#000000" stroke-width="2" stroke-linecap="round" stroke-linejoin="round" d="M 118 45 c 0.09 -0.05 3.31 -2.48 5 -3 c 2.34 -0.72 8 -1 8 -1"/></svg>