<?xml version="1.0" encoding="UTF-8" standalone="no"?><!DOCTYPE svg PUBLIC "-//W3C//DTD SVG 1.1//EN" "http://www.w3.org/Graphics/SVG/1.1/DTD/svg11.dtd"><svg xmlns="http://www.w3.org/2000/svg" version="1.1" width="292" height="179"><path fill="none" stroke="#000000" stroke-width="2" stroke-linecap="round" stroke-linejoin="round" d="M 1 67 c 0.44 -0.24 16.77 -8.82 25 -14 c 10.12 -6.37 20.15 -13.36 29 -20 c 1.26 -0.94 3 -4 3 -4"/><path fill="none" stroke="#000000" stroke-width="2" stroke-linecap="round" stroke-linejoin="round" d="M 12 31 c 0.04 0.25 0.98 9.31 2 14 c 3.05 13.98 6.96 27.16 10 41 c 0.65 2.97 1 9 1 9"/><path fill="none" stroke="#000000" stroke-width="2" stroke-linecap="round" stroke-linejoin="round" d="M 29 24 c 0.19 0.74 8.06 28.03 11 42 c 1.02 4.84 1 15 1 15"/><path fill="none" stroke="#000000" stroke-width="2" stroke-linecap="round" stroke-linejoin="round" d="M 4 122 c 0.11 -0.03 4.52 -0.78 6 -2 c 8.92 -7.35 18.13 -17.32 28 -26 c 10.09 -8.87 19.84 -17.67 30 -25 c 3.73 -2.69 11.59 -5.77 13 -6 l -1 4"/><path fill="none" stroke="#000000" stroke-width="2" stroke-linecap="round" stroke-linejoin="round" d="M 29 109 c 0.21 0.63 8.69 23.74 12 36 c 2.39 8.87 5 27 5 27"/><path fill="none" stroke="#000000" stroke-width="2" stroke-linecap="round" stroke-linejoin="round" d="M 42 135 c 0.05 -0.12 1.65 -4.94 3 -7 c 3.53 -5.42 7.72 -10.87 12 -16 c 2.42 -2.9 5.1 -5.65 8 -8 c 4.06 -3.28 9.62 -7.61 13 -9 c 0.95 -0.39 3.42 1.07 4 2 c 0.79 1.26 0.95 3.98 1 6 c 0.28 11.27 0.28 22.64 0 34 l -1 7"/><path fill="none" stroke="#000000" stroke-width="2" stroke-linecap="round" stroke-linejoin="round" d="M 51 142 c 0.12 -0.19 4.3 -7.82 7 -11 c 2.79 -3.28 10 -9 10 -9"/><path fill="none" stroke="#000000" stroke-width="2" stroke-linecap="round" stroke-linejoin="round" d="M 56 76 c 0.14 0.63 4.71 24.01 8 36 c 2.45 8.95 9 26 9 26"/><path fill="none" stroke="#000000" stroke-width="2" stroke-linecap="round" stroke-linejoin="round" d="M 56 161 c 0.23 -0.16 9.11 -5.7 13 -9 c 2.61 -2.22 7 -8 7 -8"/><path fill="none" stroke="#000000" stroke-width="2" stroke-linecap="round" stroke-linejoin="round" d="M 61 166 c -0.03 0.12 -1.62 4.71 -2 7 c -0.26 1.57 0 5 0 5"/><path fill="none" stroke="#000000" stroke-width="2" stroke-linecap="round" stroke-linejoin="round" d="M 127 132 l 1 1"/><path fill="none" stroke="#000000" stroke-width="2" stroke-linecap="round" stroke-linejoin="round" d="M 106 31 c 0.28 -0.26 10.32 -10.35 16 -15 c 5.39 -4.41 11.19 -8.21 17 -12 c 1.87 -1.22 6 -3 6 -3"/><path fill="none" stroke="#000000" stroke-width="2" stroke-linecap="round" stroke-linejoin="round" d="M 100 50 c 0.26 0.79 14.48 43.81 15 45 c 0.14 0.33 -0.34 -8.84 -1 -13 c -0.32 -2.02 -2 -4.17 -2 -6 c 0 -2.67 0.9 -6.34 2 -9 c 1.12 -2.72 3.05 -5.64 5 -8 c 2.63 -3.19 5.68 -6.38 9 -9 c 9.34 -7.37 19.04 -14.52 29 -21 c 4.35 -2.83 9.2 -4.91 14 -7 c 2.91 -1.26 6.09 -2.38 9 -3 c 1.54 -0.33 3.68 -0.44 5 0 c 1.32 0.44 3.03 1.87 4 3 c 0.87 1.01 2 2.77 2 4 c 0 2.53 -0.83 6.25 -2 9 c -4.37 10.27 -9.76 20.53 -15 31 c -0.89 1.77 -1.78 3.65 -3 5 l -6 5"/><path fill="none" stroke="#000000" stroke-width="2" stroke-linecap="round" stroke-linejoin="round" d="M 137 20 l 11 52"/><path fill="none" stroke="#000000" stroke-width="2" stroke-linecap="round" stroke-linejoin="round" d="M 131 52 l 1 1"/><path fill="none" stroke="#000000" stroke-width="2" stroke-linecap="round" stroke-linejoin="round" d="M 131 74 l 1 1"/><path fill="none" stroke="#000000" stroke-width="2" stroke-linecap="round" stroke-linejoin="round" d="M 168 50 l 1 1"/><path fill="none" stroke="#000000" stroke-width="2" stroke-linecap="round" stroke-linejoin="round" d="M 163 59 l 1 1"/><path fill="none" stroke="#000000" stroke-width="2" stroke-linecap="round" stroke-linejoin="round" d="M 149 102 c 0.04 -0.05 1.18 -2.18 2 -3 c 2.41 -2.41 5.08 -5.19 8 -7 c 6.52 -4.05 15.93 -9.38 21 -11 c 1.07 -0.34 3.82 1.76 4 3 c 1.13 7.68 1 31 1 31"/><path fill="none" stroke="#000000" stroke-width="2" stroke-linecap="round" stroke-linejoin="round" d="M 158 117 c 0.1 -0.09 3.81 -3.81 6 -5 c 5.53 -2.99 18 -8 18 -8"/><path fill="none" stroke="#000000" stroke-width="2" stroke-linecap="round" stroke-linejoin="round" d="M 152 139 l 7 -4"/><path fill="none" stroke="#000000" stroke-width="2" stroke-linecap="round" stroke-linejoin="round" d="M 207 68 l 2 8"/><path fill="none" stroke="#000000" stroke-width="2" stroke-linecap="round" stroke-linejoin="round" d="M 220 21 c 0.07 1.26 2.2 47.22 4 72 c 0.95 13.13 3.83 36.96 4 38 c 0.03 0.19 1 -7 1 -7"/><path fill="none" stroke="#000000" stroke-width="2" stroke-linecap="round" stroke-linejoin="round" d="M 229 78 c 0.11 0.02 4.33 0.22 6 1 c 2.97 1.39 6.68 3.68 9 6 c 2.02 2.02 5 8 5 8"/><path fill="none" stroke="#000000" stroke-width="2" stroke-linecap="round" stroke-linejoin="round" d="M 248 11 c -0.09 0.32 -4.16 12.09 -5 18 c -0.77 5.38 -0.64 12.96 0 17 c 0.14 0.86 2.08 2.07 3 2 c 2.9 -0.21 7.59 -1.52 11 -3 c 6.42 -2.78 12.54 -7 19 -10 c 2.86 -1.33 9 -3 9 -3"/><path fill="none" stroke="#000000" stroke-width="2" stroke-linecap="round" stroke-linejoin="round" d="M 275 7 l 2 53"/><path fill="none" stroke="#000000" stroke-width="2" stroke-linecap="round" stroke-linejoin="round" d="M 262 69 c 0.07 0.6 3.93 33 4 34 c 0.01 0.16 -1.79 -3.36 -2 -5 c -0.42 -3.36 -0.46 -7.48 0 -11 c 0.52 -3.96 1.67 -8.46 3 -12 c 0.54 -1.43 1.82 -3.08 3 -4 c 1.58 -1.23 3.98 -2.27 6 -3 c 1.54 -0.56 3.63 -1.32 5 -1 c 2.41 0.56 6.21 2.39 8 4 c 1.08 0.97 1.7 3.37 2 5 c 0.33 1.82 0.27 4.08 0 6 c -0.38 2.63 -0.99 5.55 -2 8 c -1.26 3.05 -2.96 6.31 -5 9 c -5.2 6.86 -15.78 17.78 -17 20 l 6 0"/></svg>