<?xml version="1.0" encoding="UTF-8" standalone="no"?><!DOCTYPE svg PUBLIC "-//W3C//DTD SVG 1.1//EN" "http://www.w3.org/Graphics/SVG/1.1/DTD/svg11.dtd"><svg xmlns="http://www.w3.org/2000/svg" version="1.1" width="303" height="132"><path fill="none" stroke="#000000" stroke-width="2" stroke-linecap="round" stroke-linejoin="round" d="M 1 10 c 0.09 0.02 3.33 0.94 5 1 c 7.87 0.27 16.13 -0.27 24 0 c 1.67 0.06 4.3 0.1 5 1 c 1.14 1.46 2.38 5.84 2 8 c -0.48 2.7 -2.92 6.38 -5 9 c -5.43 6.85 -12.15 13.02 -18 20 c -2.96 3.53 -8 9.2 -8 11 c 0 1.09 5.54 2 8 2 c 2.75 0 6.02 -1.6 9 -2 c 1.94 -0.26 5.37 -0.84 6 0 c 0.84 1.12 0.72 5.73 0 8 c -1.42 4.45 -4.22 9.63 -7 14 c -4.19 6.59 -14.96 18.14 -14 19 c 1.04 0.92 15.53 -8.11 23 -11 c 2.36 -0.91 5.64 -1.18 8 -1 c 1.58 0.12 4.59 0.98 5 2 c 0.61 1.52 0 5.88 -1 8 c -1.41 2.99 -4.34 6.34 -7 9 c -6.28 6.28 -20 18 -20 18"/><path fill="none" stroke="#000000" stroke-width="2" stroke-linecap="round" stroke-linejoin="round" d="M 47 99 c 0.05 -0.07 1.77 -2.96 3 -4 c 11.71 -9.95 37 -30 37 -30"/><path fill="none" stroke="#000000" stroke-width="2" stroke-linecap="round" stroke-linejoin="round" d="M 66 32 c 0 0.61 -0.33 22.96 0 35 c 0.36 13.09 1.08 24.94 2 38 c 0.46 6.56 0.99 13.16 2 19 c 0.24 1.37 1.85 4.36 2 4 c 1.42 -3.31 8.91 -25.48 13 -39 c 3.81 -12.6 6.26 -25.26 10 -37 c 0.79 -2.47 4.09 -7.11 4 -7 c -0.26 0.34 -9.11 13.21 -14 20 c -1.28 1.78 -2.52 3.52 -4 5 c -1.81 1.81 -6.12 4.16 -6 5 c 0.11 0.78 4.79 1.02 7 2 c 12.75 5.66 26.3 13.21 38 18 l 6 0"/><path fill="none" stroke="#000000" stroke-width="2" stroke-linecap="round" stroke-linejoin="round" d="M 121 42 c 0.09 -0.02 3.33 -0.94 5 -1 c 8.2 -0.27 25 0 25 0"/><path fill="none" stroke="#000000" stroke-width="2" stroke-linecap="round" stroke-linejoin="round" d="M 128 76 l 27 -12"/><path fill="none" stroke="#000000" stroke-width="2" stroke-linecap="round" stroke-linejoin="round" d="M 142 90 c 0.14 -0.12 5.49 -4.49 8 -7 c 2.18 -2.18 6 -7 6 -7"/><path fill="none" stroke="#000000" stroke-width="2" stroke-linecap="round" stroke-linejoin="round" d="M 183 12 c -0.02 0.07 -0.97 2.67 -1 4 c -0.3 15.16 0 46.18 0 47 c 0 0.14 0.48 -5.61 0 -8 c -0.46 -2.28 -1.68 -5.18 -3 -7 c -1.11 -1.53 -3.23 -3.04 -5 -4 c -2.37 -1.28 -8 -2.05 -8 -3 c 0 -1.12 5.2 -4.25 8 -6 c 2.5 -1.56 5.22 -3 8 -4 c 5.51 -1.98 11.5 -3.75 17 -5 c 1.55 -0.35 3.62 -0.34 5 0 c 1 0.25 2.94 1.15 3 2 c 0.44 6.61 0.36 19.25 -1 28 c -0.88 5.63 -3.5 11.48 -6 17 c -5.58 12.32 -11.26 24.56 -18 36 c -4.19 7.11 -10.12 14.36 -15 20 l -4 2"/><path fill="none" stroke="#000000" stroke-width="2" stroke-linecap="round" stroke-linejoin="round" d="M 221 35 l 11 -2"/><path fill="none" stroke="#000000" stroke-width="2" stroke-linecap="round" stroke-linejoin="round" d="M 220 64 l 1 1"/><path fill="none" stroke="#000000" stroke-width="2" stroke-linecap="round" stroke-linejoin="round" d="M 224 86 c 0.03 -0.07 1.01 -3.06 2 -4 c 5.79 -5.53 20 -17 20 -17"/><path fill="none" stroke="#000000" stroke-width="2" stroke-linecap="round" stroke-linejoin="round" d="M 272 1 c -0.07 0.09 -3.04 3.21 -4 5 c -1.61 3.01 -3.3 6.61 -4 10 c -1.57 7.62 -2.43 15.89 -3 24 c -0.44 6.37 0 19 0 19"/><path fill="none" stroke="#000000" stroke-width="2" stroke-linecap="round" stroke-linejoin="round" d="M 267 21 c -0.05 -0.07 -1.83 -3.41 -3 -4 c -1.66 -0.83 -4.77 -1 -7 -1 c -1.92 0 -4.59 0.3 -6 1 c -0.83 0.42 -1.61 1.97 -2 3 c -0.55 1.46 -1.72 4.82 -1 5 c 2.42 0.6 11.62 -0.07 17 -1 c 4 -0.69 7.97 -3.35 12 -4 c 8 -1.3 21.03 -3.27 25 -2 c 1.58 0.51 0.84 7.14 0 10 c -1.31 4.48 -4.35 9.35 -7 14 c -8.29 14.51 -15.7 28.79 -25 42 c -7.29 10.35 -16.72 20.72 -25 29 l -8 4"/><path fill="none" stroke="#000000" stroke-width="2" stroke-linecap="round" stroke-linejoin="round" d="M 225 50 l 7 2"/></svg>