<?xml version="1.0" encoding="UTF-8" standalone="no"?><!DOCTYPE svg PUBLIC "-//W3C//DTD SVG 1.1//EN" "http://www.w3.org/Graphics/SVG/1.1/DTD/svg11.dtd"><svg xmlns="http://www.w3.org/2000/svg" version="1.1" width="311" height="121"><path fill="none" stroke="#000000" stroke-width="2" stroke-linecap="round" stroke-linejoin="round" d="M 1 20 c 0.37 -0.02 14.22 -1 21 -1 c 1.65 0 3.6 0.38 5 1 c 1.37 0.61 3.54 1.85 4 3 c 0.64 1.6 0.37 4.79 0 7 c -0.6 3.6 -2.4 7.4 -3 11 c -0.37 2.21 -0.56 5.03 0 7 c 0.65 2.26 3.03 4.66 4 7 c 0.62 1.48 1.39 3.84 1 5 c -0.43 1.29 -2.58 3.56 -4 4 c -2.26 0.69 -6.26 0.39 -9 0 c -1.64 -0.23 -3.5 -1.12 -5 -2 c -2.4 -1.4 -6.21 -5.7 -7 -5 c -1.21 1.07 -2.25 8.82 -2 13 c 0.72 12.18 5 38 5 38"/><path fill="none" stroke="#000000" stroke-width="2" stroke-linecap="round" stroke-linejoin="round" d="M 45 39 l 20 0"/><path fill="none" stroke="#000000" stroke-width="2" stroke-linecap="round" stroke-linejoin="round" d="M 43 65 l 22 -1"/><path fill="none" stroke="#000000" stroke-width="2" stroke-linecap="round" stroke-linejoin="round" d="M 53 33 c 0.07 0.4 3.27 15.22 4 23 c 0.94 10 1 30 1 30"/><path fill="none" stroke="#000000" stroke-width="2" stroke-linecap="round" stroke-linejoin="round" d="M 43 76 c -0.09 0.18 -4.44 7.19 -5 10 c -0.27 1.35 0.88 4.25 2 5 c 2.17 1.45 6.65 2.44 10 3 c 4.51 0.75 14 1 14 1"/><path fill="none" stroke="#000000" stroke-width="2" stroke-linecap="round" stroke-linejoin="round" d="M 83 74 l 3 19"/><path fill="none" stroke="#000000" stroke-width="2" stroke-linecap="round" stroke-linejoin="round" d="M 132 1 c -0.09 0.16 -3.03 6.18 -5 9 c -5.06 7.22 -10.29 14.11 -16 21 c -4.13 4.99 -8.89 9.17 -13 14 c -1.55 1.82 -4 6 -4 6"/><path fill="none" stroke="#000000" stroke-width="2" stroke-linecap="round" stroke-linejoin="round" d="M 104 49 c 0.09 0.7 3.02 26.73 5 40 c 0.36 2.4 2 7 2 7"/><path fill="none" stroke="#000000" stroke-width="2" stroke-linecap="round" stroke-linejoin="round" d="M 134 54 l 24 -10"/><path fill="none" stroke="#000000" stroke-width="2" stroke-linecap="round" stroke-linejoin="round" d="M 150 54 l 1 1"/><path fill="none" stroke="#000000" stroke-width="2" stroke-linecap="round" stroke-linejoin="round" d="M 126 85 c 0.52 -0.16 20.24 -7.09 30 -9 c 4.99 -0.98 11.41 -0.66 16 0 c 1.67 0.24 4.1 1.8 5 3 c 0.79 1.05 1 3.38 1 5 c 0 3.51 -1 11 -1 11"/><path fill="none" stroke="#000000" stroke-width="2" stroke-linecap="round" stroke-linejoin="round" d="M 154 24 c -0.05 0.51 -1.61 19.13 -3 29 c -1.35 9.63 -3.53 18.37 -5 28 c -0.93 6.13 -1.69 11.89 -2 18 c -0.36 7.08 0 21 0 21"/><path fill="none" stroke="#000000" stroke-width="2" stroke-linecap="round" stroke-linejoin="round" d="M 132 68 l 38 -6"/><path fill="none" stroke="#000000" stroke-width="2" stroke-linecap="round" stroke-linejoin="round" d="M 190 39 c 0.44 -0.07 16.71 -2.26 25 -4 c 4.45 -0.94 13 -4 13 -4"/><path fill="none" stroke="#000000" stroke-width="2" stroke-linecap="round" stroke-linejoin="round" d="M 211 7 c 0.11 0.53 4.35 19.84 6 30 c 0.71 4.33 0.73 8.48 1 13 c 0.42 6.94 1 13.17 1 20 c 0 10.92 -1 32 -1 32"/><path fill="none" stroke="#000000" stroke-width="2" stroke-linecap="round" stroke-linejoin="round" d="M 216 56 l -10 23"/><path fill="none" stroke="#000000" stroke-width="2" stroke-linecap="round" stroke-linejoin="round" d="M 229 57 c 0.09 0.16 3.04 6.5 5 9 c 1.49 1.9 6 5 6 5"/><path fill="none" stroke="#000000" stroke-width="2" stroke-linecap="round" stroke-linejoin="round" d="M 240 43 l 42 -5"/><path fill="none" stroke="#000000" stroke-width="2" stroke-linecap="round" stroke-linejoin="round" d="M 269 21 c -0.12 0.58 -3.8 22.33 -7 33 c -2.77 9.22 -7.23 18.93 -11 27 c -0.55 1.17 -3.31 2.53 -3 3 c 0.56 0.84 4.65 2.37 7 3 c 2.48 0.66 5.29 0.91 8 1 c 7.05 0.24 14.18 0.45 21 0 c 3 -0.2 9 -2 9 -2"/><path fill="none" stroke="#000000" stroke-width="2" stroke-linecap="round" stroke-linejoin="round" d="M 283 59 c -0.03 0.4 -1.04 15.15 -2 23 c -1.1 8.95 -4 26 -4 26"/><path fill="none" stroke="#000000" stroke-width="2" stroke-linecap="round" stroke-linejoin="round" d="M 255 104 l -6 12"/><path fill="none" stroke="#000000" stroke-width="2" stroke-linecap="round" stroke-linejoin="round" d="M 310 110 l 1 1"/></svg>