<?xml version="1.0" encoding="UTF-8" standalone="no"?><!DOCTYPE svg PUBLIC "-//W3C//DTD SVG 1.1//EN" "http://www.w3.org/Graphics/SVG/1.1/DTD/svg11.dtd"><svg xmlns="http://www.w3.org/2000/svg" version="1.1" width="249" height="145"><path fill="none" stroke="#000000" stroke-width="2" stroke-linecap="round" stroke-linejoin="round" d="M 1 105 c 0.4 -0.33 14.97 -12.87 23 -19 c 4.85 -3.7 14.54 -11.22 15 -10 c 0.7 1.86 -5.7 17.38 -9 26 c -1.07 2.8 -4.82 7.27 -4 8 c 1.2 1.07 8.64 0.3 13 0 c 5.41 -0.37 14.99 -4.1 16 -2 c 1.71 3.56 -2.11 18.48 -4 27 c -0.68 3.07 -4.66 9.28 -4 9 c 4.68 -1.97 40.23 -21.26 61 -33 c 10.89 -6.15 28.2 -18.57 31 -19 c 1.22 -0.19 -6.18 14.75 -5 15 c 1.68 0.36 13.06 -7.42 19 -12 c 10.11 -7.8 19.26 -16.14 29 -25 c 9.18 -8.35 16.82 -16.57 26 -25 c 11.9 -10.92 23.57 -20.42 35 -31 c 1.91 -1.77 4.41 -4.08 5 -6 l -1 -7"/><path fill="none" stroke="#000000" stroke-width="2" stroke-linecap="round" stroke-linejoin="round" d="M 181 54 c -0.31 0.38 -19.59 20.78 -18 22 c 2.03 1.55 24.13 -6.93 35 -9 c 2.13 -0.41 5.91 -0.09 7 1 c 1.27 1.27 1.88 5.41 2 8 c 0.2 4.41 0.04 9.69 -1 14 c -1.2 4.96 -6 15 -6 15"/></svg>