<?xml version="1.0" encoding="UTF-8" standalone="no"?><!DOCTYPE svg PUBLIC "-//W3C//DTD SVG 1.1//EN" "http://www.w3.org/Graphics/SVG/1.1/DTD/svg11.dtd"><svg xmlns="http://www.w3.org/2000/svg" version="1.1" width="288" height="143"><path fill="none" stroke="#000000" stroke-width="2" stroke-linecap="round" stroke-linejoin="round" d="M 15 37 c 0.09 -0.16 3.04 -6.5 5 -9 c 1.49 -1.9 3.89 -3.42 6 -5 c 1.95 -1.46 4.22 -3.47 6 -4 c 1.02 -0.3 3.75 0.2 4 1 c 0.71 2.32 1.22 8.74 0 12 c -2.37 6.33 -7.64 13.46 -12 20 c -3.07 4.6 -9.83 12.77 -10 13 c -0.07 0.09 2.5 -3.5 4 -5 c 2.48 -2.48 5.27 -5.11 8 -7 c 1.38 -0.96 4.28 -2.51 5 -2 c 0.97 0.69 2.13 4.94 2 7 c -0.17 2.68 -1.71 6.14 -3 9 c -1.7 3.77 -3.59 7.6 -6 11 c -7.26 10.27 -22.6 29.48 -23 30 c -0.11 0.14 3.75 -5.75 6 -8 c 2.25 -2.25 5.22 -4.22 8 -6 c 1.86 -1.2 4.05 -2.55 6 -3 c 2.03 -0.47 6.25 -0.97 7 0 c 0.97 1.24 0.37 6.07 0 9 c -0.62 4.98 -1.38 10.51 -3 15 c -1.23 3.42 -3.76 6.8 -6 10 c -2.46 3.51 -5.1 6.92 -8 10 c -2.41 2.56 -7.96 7.63 -8 7 c -0.09 -1.3 3.87 -14.48 7 -21 c 4.75 -9.9 10.79 -19.36 17 -29 c 6.76 -10.5 13.35 -20.13 21 -30 c 11.12 -14.35 22.16 -28.45 34 -41 c 4.44 -4.71 13.74 -11.87 16 -12 c 1.25 -0.07 2.08 8.12 1 11 c -2.41 6.43 -8.08 14.27 -13 21 c -10.63 14.56 -21.31 28.01 -33 42 c -7.44 8.9 -22.06 22.93 -23 25 c -0.37 0.81 9.29 -1.1 13 -3 c 9.88 -5.05 20.48 -12.06 30 -19 c 6.46 -4.71 13.47 -10.34 18 -16 c 2.86 -3.58 4.78 -9.52 6 -14 c 0.64 -2.35 0.42 -5.49 0 -8 c -0.54 -3.27 -1.41 -7.07 -3 -10 c -4.52 -8.32 -10.83 -16.39 -16 -25 c -1.95 -3.24 -4.97 -10.58 -5 -10 c -0.29 4.85 1.58 62.79 0 94 c -0.75 14.79 -6.86 43.23 -7 44 c -0.03 0.17 0.08 -6.99 1 -10 c 1.3 -4.29 3.46 -9.2 6 -13 c 3.27 -4.9 8.02 -10.26 12 -14 c 1.16 -1.09 3.36 -1.75 5 -2 c 2.43 -0.37 6.15 -0.77 8 0 c 1.48 0.62 3.25 3.24 4 5 c 1.09 2.54 1.56 5.94 2 9 l 1 12"/><path fill="none" stroke="#000000" stroke-width="2" stroke-linecap="round" stroke-linejoin="round" d="M 128 64 c -0.07 0.12 -4.14 5.72 -4 7 c 0.09 0.85 3.7 2.5 5 2 c 11.73 -4.55 29.64 -13.68 44 -21 c 2.53 -1.29 5.97 -3.45 7 -5 c 0.5 -0.74 -0.26 -3.16 -1 -4 c -1.55 -1.74 -5.02 -3.02 -7 -5 c -5.54 -5.54 -14.26 -18.87 -16 -18 c -1.88 0.94 0.53 17.29 0 26 c -0.48 7.77 -1.1 15.62 -3 23 c -3.38 13.08 -7.63 26.74 -13 39 c -3.81 8.7 -13.97 23.97 -15 25 c -0.39 0.39 -0.42 -8.02 1 -11 c 4.98 -10.43 12.83 -22.36 20 -33 c 3.16 -4.7 7.12 -9.12 11 -13 c 1.96 -1.96 4.74 -4.13 7 -5 c 1.57 -0.61 4.07 -0.19 6 0 c 1.32 0.13 3.91 0.19 4 1 c 0.57 5.32 0.31 18.93 -1 27 c -0.54 3.34 -3.08 6.85 -5 10 c -1.72 2.82 -3.79 5.49 -6 8 c -2.81 3.19 -6.63 7.99 -9 9 c -1.08 0.46 -4.77 -1.65 -5 -3 c -1.04 -6.03 -0.28 -17.61 0 -26 c 0.04 -1.33 0.39 -3.08 1 -4 c 0.54 -0.8 2.33 -2.25 3 -2 c 1.3 0.49 4.01 3.14 5 5 c 1.77 3.34 2.12 8.34 4 12 c 4 7.78 9.17 16.48 14 23 c 1.29 1.75 4.04 3.4 6 4 l 7 0"/><path fill="none" stroke="#000000" stroke-width="2" stroke-linecap="round" stroke-linejoin="round" d="M 203 42 c 0 0.21 0.32 8.02 0 12 c -0.35 4.37 -3.34 12 -2 13 c 1.48 1.11 9.63 -2.08 14 -4 c 9.13 -4.01 19.12 -9.07 27 -14 c 2.02 -1.27 4.12 -4.06 5 -6 c 0.56 -1.24 0.18 -3.4 0 -5 c -0.15 -1.32 -0.3 -3.18 -1 -4 c -1 -1.16 -3.26 -2.03 -5 -3 c -1.33 -0.74 -2.69 -1.74 -4 -2 c -1.76 -0.35 -5.43 -1.11 -6 0 c -2.91 5.62 -5.48 19.41 -9 29 c -2.54 6.93 -5.72 13.24 -9 20 c -2.54 5.24 -4.87 10.38 -8 15 c -3.8 5.61 -13.1 15.6 -13 16 c 0.09 0.36 9.04 -8.14 14 -12 c 7.32 -5.7 14.58 -11.51 22 -16 c 3.19 -1.93 9.6 -4.76 11 -4 c 1.2 0.65 1.29 7.48 0 10 c -4.84 9.45 -13.65 21.12 -21 31 l -8 8"/><path fill="none" stroke="#000000" stroke-width="2" stroke-linecap="round" stroke-linejoin="round" d="M 231 95 c 0.05 0.11 2.88 4.15 3 6 c 0.18 2.81 -0.62 7.15 -2 10 c -3.34 6.9 -13.25 18.58 -13 21 c 0.16 1.48 10.39 -0.5 15 -2 c 10.24 -3.34 20.46 -8.37 31 -13 c 3.51 -1.54 7.07 -2.95 10 -5 c 3.53 -2.47 7.54 -5.93 10 -9 c 1.16 -1.44 1.77 -4.03 2 -6 c 0.4 -3.43 0.34 -7.34 0 -11 c -0.66 -7.06 -2.67 -13.88 -3 -21 c -1.01 -21.48 -1 -64 -1 -64"/></svg>