<?xml version="1.0" encoding="UTF-8" standalone="no"?><!DOCTYPE svg PUBLIC "-//W3C//DTD SVG 1.1//EN" "http://www.w3.org/Graphics/SVG/1.1/DTD/svg11.dtd"><svg xmlns="http://www.w3.org/2000/svg" version="1.1" width="319" height="157"><path fill="none" stroke="#000000" stroke-width="2" stroke-linecap="round" stroke-linejoin="round" d="M 1 64 c 0.07 -0.05 2.68 -2.56 4 -3 c 1.32 -0.44 3.46 0.33 5 0 c 2.91 -0.62 6.18 -1.64 9 -3 c 6.11 -2.94 11.67 -6.92 18 -10 c 18.29 -8.89 36.11 -16.19 54 -25 c 3.92 -1.93 7.13 -4.89 11 -7 c 7.31 -3.99 22 -11 22 -11"/><path fill="none" stroke="#000000" stroke-width="2" stroke-linecap="round" stroke-linejoin="round" d="M 33 37 l 20 17"/><path fill="none" stroke="#000000" stroke-width="2" stroke-linecap="round" stroke-linejoin="round" d="M 90 9 c 0.02 0.18 1.33 7.01 1 10 c -0.28 2.54 -1.8 5.37 -3 8 c -2.52 5.5 -4.99 10.74 -8 16 c -3.78 6.61 -12 19 -12 19"/><path fill="none" stroke="#000000" stroke-width="2" stroke-linecap="round" stroke-linejoin="round" d="M 35 74 c 0.19 0.14 8.31 5.11 11 8 c 1.51 1.62 2.73 4.69 3 7 c 0.66 5.75 0.46 12.96 0 19 c -0.18 2.32 -0.94 5.01 -2 7 c -1.46 2.73 -4.32 5.16 -6 8 c -2.63 4.45 -6.85 13.77 -7 14 c -0.06 0.09 1.07 -4.13 2 -6 c 3.7 -7.4 7.68 -14.73 12 -22 c 2.1 -3.54 4.37 -7.04 7 -10 c 2.59 -2.92 5.81 -5.65 9 -8 c 3.09 -2.28 6.52 -4.26 10 -6 c 3.88 -1.94 8.02 -3.81 12 -5 c 2.47 -0.74 5.29 -0.86 8 -1 c 4.03 -0.2 8.07 -0.23 12 0 c 1.67 0.1 4.68 0.24 5 1 c 0.4 0.94 -0.69 4.9 -2 6 c -4.07 3.43 -11.12 7.06 -17 10 c -4.81 2.41 -10.64 3.71 -15 6 c -1.53 0.8 -3.57 2.53 -4 4 c -1 3.39 -2.18 9.56 -1 13 c 2.04 5.92 7.88 12.96 12 19 c 0.78 1.14 1.92 2.46 3 3 c 1.3 0.65 3.68 1.44 5 1 c 3.82 -1.27 8.96 -4.31 13 -7 c 3.89 -2.59 7.56 -5.7 11 -9 c 4.96 -4.76 9.7 -9.72 14 -15 c 3.02 -3.71 5.47 -7.86 8 -12 c 1.18 -1.92 2.39 -3.89 3 -6 c 4.96 -17.23 9.63 -34.98 14 -53 c 1.05 -4.32 0.98 -8.76 2 -13 c 0.98 -4.07 4.22 -12.22 4 -12 c -0.4 0.4 -8.46 13.11 -12 20 c -2.45 4.77 -4.7 9.97 -6 15 c -1.3 5.02 -1.78 10.58 -2 16 c -0.46 11.42 -0.96 24.38 0 34 c 0.2 2.04 3.5 6.66 4 6 c 2.41 -3.17 8.9 -21.77 15 -31 c 6.53 -9.88 15.56 -19.78 24 -28 c 4.12 -4.02 9.76 -7.38 15 -10 c 6.53 -3.27 14.35 -5.95 21 -8 c 1.48 -0.46 4.35 -0.81 5 0 c 1.35 1.69 3.9 7.3 3 10 c -6.37 19.12 -29 68 -29 68"/><path fill="none" stroke="#000000" stroke-width="2" stroke-linecap="round" stroke-linejoin="round" d="M 178 67 c 0.16 -0.02 7.61 -1.83 9 -1 c 1.08 0.65 1.53 5.26 1 7 c -0.59 1.92 -4.18 4.03 -5 6 c -0.63 1.51 0.23 4.03 0 6 c -0.43 3.66 -2.35 8.72 -2 11 c 0.14 0.91 3.16 2.56 4 2 c 11.32 -7.62 31.78 -24.14 48 -37 c 3.6 -2.86 6.35 -6.57 10 -9 c 7.16 -4.77 15.08 -9.04 23 -13 c 4.84 -2.42 13.59 -6.12 15 -6 c 0.66 0.06 -1.58 5 -3 7 c -7.31 10.28 -15.34 20.83 -24 31 c -10.78 12.67 -21.54 24.54 -33 36 c -4.18 4.18 -9.07 7.45 -14 11 c -6 4.31 -17.67 11.33 -18 12 c -0.22 0.45 9.99 -1.68 14 -4 c 22.51 -13.02 65.6 -42.33 69 -44 c 0.75 -0.37 -6.41 10.14 -10 15 c -2.12 2.87 -5.11 5.27 -7 8 c -0.96 1.38 -2.5 4.1 -2 5 c 0.75 1.34 4.77 3.26 7 4 c 1.39 0.46 3.57 0.44 5 0 c 2.55 -0.78 8 -2.32 8 -4 c 0 -4.4 -5.9 -14.55 -8 -22 c -1.55 -5.49 -2.68 -11.27 -3 -17 c -1.01 -18.27 -0.89 -54.04 -1 -55 c -0.09 -0.8 -0.67 30.58 0 46 c 0.34 7.78 1.31 15.67 3 23 c 1.25 5.4 3.68 10.78 6 16 c 1.7 3.83 3.7 7.74 6 11 c 1.56 2.21 3.92 4.33 6 6 c 1.1 0.88 2.69 1.76 4 2 c 2.05 0.37 7.08 -0.5 7 0 c -0.12 0.71 -5.61 3.73 -8 6 c -4.23 4.02 -7.72 8.89 -12 13 c -3.78 3.63 -7.77 7.4 -12 10 c -4.12 2.54 -9.38 4.71 -14 6 c -3.35 0.94 -7.25 0.85 -11 1 c -4.75 0.19 -10.69 0.62 -14 0 c -0.85 -0.16 -2 -2.09 -2 -3 c 0 -1.85 0.47 -5.74 2 -7 c 9.69 -8 24.74 -17.23 38 -26 c 8.15 -5.39 16.16 -9.57 24 -15 c 5.32 -3.69 10.13 -7.71 15 -12 c 3.58 -3.15 6.94 -6.43 10 -10 c 2.94 -3.43 6.1 -7.41 8 -11 l 1 -6"/><path fill="none" stroke="#000000" stroke-width="2" stroke-linecap="round" stroke-linejoin="round" d="M 295 1 l 1 1"/></svg>