<?xml version="1.0" encoding="UTF-8" standalone="no"?><!DOCTYPE svg PUBLIC "-//W3C//DTD SVG 1.1//EN" "http://www.w3.org/Graphics/SVG/1.1/DTD/svg11.dtd"><svg xmlns="http://www.w3.org/2000/svg" version="1.1" width="173" height="139"><path fill="none" stroke="#000000" stroke-width="2" stroke-linecap="round" stroke-linejoin="round" d="M 2 23 c 1.23 -0.33 46.1 -12.96 70 -19 c 5.69 -1.44 11.63 -2.53 17 -3 c 1.89 -0.16 5.71 -0.03 6 1 c 0.64 2.23 -0.77 8.85 -2 13 c -3.07 10.38 -6.64 20.89 -11 31 c -4.03 9.35 -9.01 18.02 -14 27 c -1.77 3.19 -3.79 6.39 -6 9 l -5 4"/><path fill="none" stroke="#000000" stroke-width="2" stroke-linecap="round" stroke-linejoin="round" d="M 30 68 c 0.28 -0.19 10.49 -7.85 16 -11 c 3.69 -2.11 7.89 -3.63 12 -5 c 3.91 -1.3 7.95 -2.35 12 -3 c 4.26 -0.68 8.71 -1 13 -1 c 2.98 0 6.17 0.39 9 1 c 1.68 0.36 3.61 1.13 5 2 c 1.1 0.69 2.53 1.88 3 3 c 1.02 2.44 2.64 6.52 2 9 c -1.68 6.51 -5.7 16.21 -10 22 c -3.67 4.94 -10.24 9.22 -16 13 c -14.67 9.62 -29.47 18.72 -45 27 c -9.67 5.16 -27.26 12.22 -30 13 c -0.45 0.13 0.89 -3.89 2 -5 c 3.97 -3.97 9.67 -8.77 15 -12 c 7.08 -4.28 15.11 -7.88 23 -11 c 6.46 -2.55 13.18 -4.43 20 -6 c 6.28 -1.45 12.62 -2.5 19 -3 c 6.3 -0.5 12.55 -0.4 19 0 c 15.34 0.96 29.75 2.12 45 4 c 9.6 1.18 28 5 28 5"/></svg>