<?xml version="1.0" encoding="UTF-8" standalone="no"?><!DOCTYPE svg PUBLIC "-//W3C//DTD SVG 1.1//EN" "http://www.w3.org/Graphics/SVG/1.1/DTD/svg11.dtd"><svg xmlns="http://www.w3.org/2000/svg" version="1.1" width="285" height="172"><path fill="none" stroke="#000000" stroke-width="2" stroke-linecap="round" stroke-linejoin="round" d="M 94 1 c 0.03 0.77 2.23 33.63 2 44 c -0.02 0.85 -2.34 2.37 -3 2 c -3.51 -1.95 -9.81 -8.47 -15 -12 c -3.02 -2.05 -6.57 -3.63 -10 -5 c -3.21 -1.28 -6.74 -2.42 -10 -3 c -2.19 -0.39 -4.97 -0.47 -7 0 c -1.95 0.45 -4.59 1.77 -6 3 c -0.94 0.82 -1.44 2.6 -2 4 c -1.47 3.66 -2.99 7.23 -4 11 c -1.32 4.92 -3.52 13.43 -3 15 c 0.26 0.78 4.92 -1.68 7 -3 c 4.1 -2.59 7.76 -6.18 12 -9 c 5.96 -3.97 11.77 -7.97 18 -11 c 5.98 -2.91 12.51 -5.12 19 -7 c 6.23 -1.8 12.74 -3.6 19 -4 c 9.03 -0.58 20.24 -0.51 28 1 c 2.77 0.54 5.62 3.8 8 6 c 1.86 1.72 3.55 3.93 5 6 c 0.83 1.19 1.86 2.77 2 4 c 0.16 1.4 -0.45 3.54 -1 5 l -2 3"/><path fill="none" stroke="#000000" stroke-width="2" stroke-linecap="round" stroke-linejoin="round" d="M 70 51 c -0.4 0.44 -14.78 16.78 -23 25 c -12.33 12.33 -24.41 23.78 -37 35 c -2.67 2.38 -9 6 -9 6"/><path fill="none" stroke="#000000" stroke-width="2" stroke-linecap="round" stroke-linejoin="round" d="M 65 78 c -0.12 1.31 -5.96 50.83 -7 75 c -0.25 5.86 3 18 3 18"/><path fill="none" stroke="#000000" stroke-width="2" stroke-linecap="round" stroke-linejoin="round" d="M 115 51 l 0 23"/><path fill="none" stroke="#000000" stroke-width="2" stroke-linecap="round" stroke-linejoin="round" d="M 88 80 c 0.26 -0.14 9.79 -5.63 15 -8 c 5.92 -2.69 12.84 -5.93 18 -7 c 1.69 -0.35 4.79 0.95 6 2 c 1.03 0.9 2.03 3.38 2 5 c -0.27 14.15 -2.51 31.15 -3 47 c -0.19 6.07 1 12.2 1 18 c 0 1.64 -0.29 4.65 -1 5 c -0.74 0.37 -3.85 -0.95 -5 -2 c -2.14 -1.94 -4.28 -5.18 -6 -8 c -1.92 -3.15 -4.34 -6.87 -5 -10 c -0.53 -2.53 0.15 -6.45 1 -9 c 0.68 -2.03 2.4 -4.4 4 -6 c 2.53 -2.53 6.35 -4.59 9 -7 c 0.84 -0.76 2.14 -3.05 2 -3 c -0.32 0.13 -5.07 3.07 -7 5 c -2.56 2.56 -7.57 7.76 -7 9 c 0.6 1.33 8.44 1.05 12 2 c 1.06 0.28 2.33 1.19 3 2 c 0.84 1 1.88 2.75 2 4 c 0.17 1.69 -0.21 4.32 -1 6 c -1.69 3.6 -4.35 7.68 -7 11 c -2.59 3.24 -5.66 6.85 -9 9 c -5.51 3.54 -12.51 6.44 -19 9 c -4.49 1.77 -14.33 3.99 -14 4 c 0.88 0.04 25.66 -2.31 39 -3 c 6.48 -0.34 12.48 -0.24 19 0 c 12.04 0.45 23.12 1.8 35 2 c 7.8 0.13 16.09 -0.05 23 -1 c 2.01 -0.28 4.27 -1.79 6 -3 c 1.46 -1.02 2.93 -2.58 4 -4 l 2 -4"/><path fill="none" stroke="#000000" stroke-width="2" stroke-linecap="round" stroke-linejoin="round" d="M 149 103 c 0.12 -0.07 5.1 -2.3 7 -4 c 4.16 -3.73 7.71 -8.71 12 -13 c 6.68 -6.68 13.9 -12.1 20 -19 c 9.3 -10.51 17.81 -21.74 26 -33 c 2.44 -3.36 4.34 -7.27 6 -11 c 0.96 -2.16 2.3 -5.79 2 -7 c -0.17 -0.69 -2.82 -1.12 -4 -1 c -1.81 0.18 -4.27 1.01 -6 2 c -2.73 1.56 -5.61 3.71 -8 6 c -5.58 5.34 -11.84 11.46 -16 17 c -1.3 1.73 -2 4.88 -2 7 c 0 2.41 0.89 5.79 2 8 c 1.05 2.09 4.93 4.02 5 6 c 0.21 6.18 -3.08 15.98 -4 24 c -0.41 3.62 -0.85 7.72 0 11 c 1.66 6.42 6.29 13.34 8 20 c 1.52 5.91 2.8 13.28 2 19 c -1.06 7.58 -6.62 17.1 -8 24 c -0.35 1.73 0.63 5.69 2 6 c 9.11 2.07 27.71 3 42 4 c 5.08 0.36 9.89 -0.26 15 0 c 8.54 0.43 16.76 1.76 25 2 c 2.98 0.09 7.77 -0.23 9 -1 l -1 -4"/><path fill="none" stroke="#000000" stroke-width="2" stroke-linecap="round" stroke-linejoin="round" d="M 216 64 c 0.1 -0.09 3.85 -3.66 6 -5 c 3.07 -1.92 6.57 -3.63 10 -5 c 3.21 -1.28 6.62 -2.25 10 -3 c 2.61 -0.58 5.64 -1.18 8 -1 c 1.58 0.12 4.07 1.07 5 2 c 0.71 0.71 1.19 2.85 1 4 c -0.4 2.38 -1.62 5.55 -3 8 c -6.22 11.08 -12.8 22.42 -20 33 c -3.44 5.06 -12.12 12.7 -12 14 c 0.09 0.94 9.36 -3.17 13 -3 c 2.44 0.12 5.51 2.47 8 4 c 1.78 1.1 3.85 2.52 5 4 c 0.97 1.24 1.73 3.37 2 5 c 0.35 2.12 0.32 4.79 0 7 c -0.33 2.3 -0.86 5.28 -2 7 c -1.23 1.84 -4.03 4.18 -6 5 c -1.51 0.63 -4.65 0.6 -6 0 c -1.13 -0.5 -2.79 -2.62 -3 -4 c -0.66 -4.4 -0.37 -10.68 0 -16 l 2 -13"/></svg>