<?xml version="1.0" encoding="UTF-8" standalone="no"?><!DOCTYPE svg PUBLIC "-//W3C//DTD SVG 1.1//EN" "http://www.w3.org/Graphics/SVG/1.1/DTD/svg11.dtd"><svg xmlns="http://www.w3.org/2000/svg" version="1.1" width="85" height="105"><path fill="none" stroke="#000000" stroke-width="2" stroke-linecap="round" stroke-linejoin="round" d="M 11 1 c 0.26 0.07 10.7 2.16 15 4 c 2.17 0.93 4.17 3.17 6 5 c 2.16 2.16 4.76 4.52 6 7 c 1.53 3.07 3 7.58 3 11 c 0 4.88 -1.57 10.77 -3 16 c -1.58 5.79 -3.22 12 -6 17 c -3.63 6.54 -9.17 13.71 -14 19 c -1.65 1.81 -4.99 4 -7 4 c -2.69 0 -9.34 -2.55 -10 -4 c -0.53 -1.16 2.99 -5.19 5 -7 c 4.35 -3.91 9.82 -8.33 15 -11 c 4.67 -2.41 10.8 -3.96 16 -5 c 2.79 -0.56 6.35 -0.41 9 0 c 1.32 0.2 3.37 1.01 4 2 c 1.34 2.1 3.14 6.43 3 9 c -0.15 2.92 -2.12 7.31 -4 10 c -2.47 3.53 -6.38 7.28 -10 10 c -4.13 3.1 -9.14 5.85 -14 8 c -6.39 2.82 -18.77 6.39 -20 7 c -0.24 0.12 2.73 1.13 4 1 c 17.02 -1.73 36.46 -5.27 55 -7 l 20 0"/></svg>