<?xml version="1.0" encoding="UTF-8" standalone="no"?><!DOCTYPE svg PUBLIC "-//W3C//DTD SVG 1.1//EN" "http://www.w3.org/Graphics/SVG/1.1/DTD/svg11.dtd"><svg xmlns="http://www.w3.org/2000/svg" version="1.1" width="284" height="147"><path fill="none" stroke="#000000" stroke-width="2" stroke-linecap="round" stroke-linejoin="round" d="M 1 92 c 0.67 -0.24 28.54 -12.82 38 -14 c 2.99 -0.37 8.43 4.99 10 8 c 1.85 3.55 2 10.01 2 15 c 0 13.2 -2 28.83 -2 40 c 0 1.01 1.22 2.22 2 3 c 0.78 0.78 2.1 2.11 3 2 c 3.39 -0.42 9.52 -1.86 13 -4 c 4.52 -2.78 9.4 -7.58 13 -12 c 4.85 -5.97 8.77 -13 13 -20 c 4.69 -7.76 8.91 -14.94 13 -23 c 6.86 -13.51 12.61 -26.15 19 -40 c 1.88 -4.07 3.64 -7.93 5 -12 c 0.96 -2.89 0.92 -6.17 2 -9 c 3.2 -8.37 10.88 -24.54 11 -25 c 0.08 -0.33 -6.21 11.08 -9 17 c -2.99 6.34 -6.32 12.52 -8 19 c -2.89 11.15 -4.41 22.99 -6 35 c -1.48 11.21 -2.81 22.02 -3 33 c -0.15 8.64 0.52 26 2 26 c 1.62 0 7.53 -17.45 12 -26 c 3.29 -6.3 6.92 -12.7 11 -18 c 2.33 -3.03 5.92 -6.19 9 -8 c 2.11 -1.24 5.53 -1.81 8 -2 c 1.53 -0.12 3.7 0.35 5 1 c 1.08 0.54 2.26 1.89 3 3 c 1.17 1.75 2.74 4.02 3 6 c 0.66 5.03 0.66 11.55 0 17 c -0.64 5.28 -2.02 11.05 -4 16 c -2.58 6.45 -11.46 19.05 -10 19 c 2.99 -0.1 32.19 -18.73 39 -20 c 1.97 -0.37 3.54 8.16 4 12 c 0.47 3.96 -2.37 13.43 -1 13 c 6.24 -1.96 35.58 -18.18 52 -29 c 11.76 -7.75 33 -27 33 -27"/></svg>