<?xml version="1.0" encoding="UTF-8" standalone="no"?><!DOCTYPE svg PUBLIC "-//W3C//DTD SVG 1.1//EN" "http://www.w3.org/Graphics/SVG/1.1/DTD/svg11.dtd"><svg xmlns="http://www.w3.org/2000/svg" version="1.1" width="358" height="191"><path fill="none" stroke="#000000" stroke-width="2" stroke-linecap="round" stroke-linejoin="round" d="M 1 59 c 1.38 -0.3 52.72 -10.37 79 -17 c 9.67 -2.44 19.28 -6.46 28 -10 c 1.47 -0.6 4 -3 4 -3"/><path fill="none" stroke="#000000" stroke-width="2" stroke-linecap="round" stroke-linejoin="round" d="M 28 37 c 0.11 0.14 4.31 5.14 6 8 c 3.64 6.14 6.5 13.87 10 19 c 0.95 1.39 5 3 5 3"/><path fill="none" stroke="#000000" stroke-width="2" stroke-linecap="round" stroke-linejoin="round" d="M 99 17 c -0.17 0.3 -5.98 11.87 -10 17 c -12.88 16.41 -41 48 -41 48"/><path fill="none" stroke="#000000" stroke-width="2" stroke-linecap="round" stroke-linejoin="round" d="M 23 77 l 13 17"/><path fill="none" stroke="#000000" stroke-width="2" stroke-linecap="round" stroke-linejoin="round" d="M 28 101 c 0.05 0.07 2.35 2.54 3 4 c 3.21 7.22 9 23 9 23"/><path fill="none" stroke="#000000" stroke-width="2" stroke-linecap="round" stroke-linejoin="round" d="M 36 157 c -0.05 0.04 -3.03 2.26 -3 2 c 0.09 -0.93 2.29 -8.1 4 -12 c 5.7 -12.95 11.74 -25.19 18 -38 c 0.87 -1.78 1.84 -3.51 3 -5 c 1.12 -1.44 2.53 -2.82 4 -4 c 3.53 -2.83 7.16 -5.51 11 -8 c 2.9 -1.89 6.01 -3.72 9 -5 c 1.48 -0.63 3.37 -1 5 -1 c 4.17 0 10.41 0.08 13 1 c 0.82 0.29 0.85 2.68 1 4 c 0.18 1.6 0.46 3.61 0 5 c -0.74 2.23 -2.35 5.65 -4 7 c -1.49 1.22 -4.63 1.58 -7 2 c -3.27 0.58 -7.11 0.33 -10 1 c -1.04 0.24 -2.27 1.17 -3 2 c -1.45 1.66 -3.16 3.98 -4 6 c -0.71 1.7 -1 4.03 -1 6 c 0 4.21 -0.29 9.61 1 13 c 1.05 2.77 4.5 5.69 7 8 c 1.7 1.57 3.95 3.55 6 4 c 4.84 1.05 11.68 1.22 17 1 c 2.27 -0.09 4.64 -1.19 7 -2 c 8.61 -2.96 17.85 -5.14 25 -9 c 4.38 -2.37 9.58 -7.57 12 -11 c 0.89 -1.26 0.48 -4.4 0 -6 c -0.4 -1.33 -1.77 -3.15 -3 -4 c -2.74 -1.9 -7.01 -3.01 -10 -5 l -8 -7"/><path fill="none" stroke="#000000" stroke-width="2" stroke-linecap="round" stroke-linejoin="round" d="M 198 11 c -0.05 0.11 -1.57 4.44 -3 6 c -12.51 13.65 -27.15 28.44 -41 42 c -2.03 1.99 -7.32 4.95 -7 5 c 0.55 0.08 9.55 -3.44 14 -4 c 3.07 -0.38 9.2 -0.69 10 1 c 1.6 3.36 0.59 13.38 0 20 c -0.74 8.38 -3.12 16.63 -4 25 c -0.45 4.3 0 12.77 0 13 l 0 -8"/><path fill="none" stroke="#000000" stroke-width="2" stroke-linecap="round" stroke-linejoin="round" d="M 172 79 c 0.02 -0.35 0.07 -14.39 1 -20 c 0.23 -1.4 1.9 -2.9 3 -4 c 0.8 -0.8 1.92 -1.62 3 -2 c 5.29 -1.85 11.2 -3.6 17 -5 c 3.98 -0.96 7.99 -1.53 12 -2 c 1.65 -0.19 3.9 -0.55 5 0 c 1.1 0.55 2.39 2.63 3 4 c 0.62 1.4 0.97 3.33 1 5 c 0.3 16.4 1.09 33.64 0 50 c -0.56 8.34 -2.92 16.69 -5 25 c -1.29 5.16 -5 15 -5 15"/><path fill="none" stroke="#000000" stroke-width="2" stroke-linecap="round" stroke-linejoin="round" d="M 179 80 c 0.23 0.02 8.81 1.17 13 1 c 3.59 -0.15 9.58 -2.57 11 -2 c 0.77 0.31 0.09 4.84 -1 6 c -3.09 3.29 -9.5 6.5 -14 10 c -1.48 1.15 -4.35 3.88 -4 4 c 0.63 0.21 6.86 -1.1 10 -2 c 1.38 -0.39 3.07 -2.13 4 -2 c 0.89 0.13 3.38 2.32 3 3 c -1.76 3.17 -12.63 13.14 -13 15 c -0.19 0.94 9.91 -1.03 10 0 c 0.13 1.54 -5.6 8.37 -9 12 c -6.57 7.01 -20.63 19.11 -21 20 c -0.23 0.55 10.9 -4.91 16 -8 c 5.93 -3.59 10.98 -8.39 17 -12 c 10.87 -6.52 21.84 -11.56 33 -18 c 6.67 -3.85 19 -12 19 -12"/><path fill="none" stroke="#000000" stroke-width="2" stroke-linecap="round" stroke-linejoin="round" d="M 263 47 c 0.26 -0.07 10.45 -2.27 15 -4 c 2.11 -0.8 3.84 -2.92 6 -4 c 15.24 -7.62 45.17 -21.68 46 -22 c 0.47 -0.18 -16.68 9.06 -25 14 c -2.5 1.48 -4.85 3.12 -7 5 c -3.18 2.78 -6.47 5.63 -9 9 c -11.39 15.19 -21.2 31.11 -33 47 c -15.09 20.31 -30.6 40 -45 58 c -0.71 0.88 -3.06 2.08 -3 2 c 0.27 -0.34 6.96 -8.24 11 -12 c 15.98 -14.9 31.38 -28.56 48 -43 c 4.23 -3.68 8.38 -7.05 13 -10 c 7.44 -4.75 15.5 -9.11 23 -13 c 1.17 -0.61 4.17 -1.31 4 -1 c -1.82 3.36 -16.16 24.94 -24 38 c -2.34 3.9 -4.38 7.94 -6 12 c -1 2.49 -1.65 5.36 -2 8 c -0.3 2.24 -0.98 6.88 0 7 c 2.35 0.29 11.07 -2.64 16 -5 c 10.15 -4.85 19.84 -11.01 30 -17 c 3.19 -1.88 6.39 -3.79 9 -6 c 1.54 -1.31 3.15 -3.3 4 -5 c 0.68 -1.35 1.66 -4.59 1 -5 c -1.17 -0.73 -6.23 -0.58 -9 0 c -4.86 1.01 -9.94 3.04 -15 5 c -17.94 6.96 -34.46 14.92 -52 21 c -7.36 2.55 -15.43 3.7 -23 5 c -1.93 0.33 -6.34 0.44 -6 0 c 3.07 -3.96 24.97 -26.08 37 -40 c 5.21 -6.03 9.8 -12.35 14 -19 c 3.82 -6.05 6.8 -12.41 10 -19 c 2.27 -4.68 4.81 -9.24 6 -14 c 2.05 -8.21 2.91 -17.31 4 -26 c 0.25 -1.98 -0.39 -6 0 -6 c 0.47 0 3.22 3.93 4 6 c 1.1 2.93 1.51 6.54 2 10 c 3.28 23.27 6.16 44.37 9 68 c 2.37 19.75 3.49 37.69 6 57 c 0.89 6.87 1.98 18.38 4 20 c 1.35 1.08 8.23 -4.93 11 -8 c 2.82 -3.14 4.99 -7.82 7 -12 c 2.34 -4.86 4.34 -9.85 6 -15 c 1.7 -5.26 3.02 -10.53 4 -16 c 1.38 -7.7 2.46 -15.24 3 -23 c 0.47 -6.69 1.01 -16.65 0 -20 c -0.3 -1.01 -4.22 -0.41 -6 0 c -2.26 0.52 -5.26 1.47 -7 3 c -5.98 5.27 -12.11 12.25 -18 19 c -8.15 9.34 -14.67 18.79 -23 28 c -20.81 23.01 -62 66 -62 66"/><path fill="none" stroke="#000000" stroke-width="2" stroke-linecap="round" stroke-linejoin="round" d="M 324 1 l 1 1"/></svg>