<?xml version="1.0" encoding="UTF-8" standalone="no"?><!DOCTYPE svg PUBLIC "-//W3C//DTD SVG 1.1//EN" "http://www.w3.org/Graphics/SVG/1.1/DTD/svg11.dtd"><svg xmlns="http://www.w3.org/2000/svg" version="1.1" width="345" height="249"><path fill="none" stroke="#000000" stroke-width="2" stroke-linecap="round" stroke-linejoin="round" d="M 1 57 c 0.09 -0.03 3.33 -1.81 5 -2 c 6.54 -0.75 14.22 0.13 21 -1 c 9 -1.5 17.87 -4.18 27 -7 c 18.62 -5.75 35.97 -11.3 54 -18 c 8.36 -3.11 24 -11 24 -11"/><path fill="none" stroke="#000000" stroke-width="2" stroke-linecap="round" stroke-linejoin="round" d="M 36 29 c 0.21 0.28 8.14 10.39 12 16 c 3.64 5.29 6.44 11.01 10 16 c 1.33 1.87 5 5 5 5"/><path fill="none" stroke="#000000" stroke-width="2" stroke-linecap="round" stroke-linejoin="round" d="M 106 22 c -0.26 0.45 -9.16 18.17 -15 26 c -6.61 8.87 -15.01 16.75 -23 25 c -2.5 2.58 -8 7 -8 7"/><path fill="none" stroke="#000000" stroke-width="2" stroke-linecap="round" stroke-linejoin="round" d="M 32 81 c 0.07 0.12 3.02 4.54 4 7 c 2.31 5.78 6 18 6 18"/><path fill="none" stroke="#000000" stroke-width="2" stroke-linecap="round" stroke-linejoin="round" d="M 32 115 c 0.04 0.14 1.02 5.45 2 8 c 2.34 6.08 8 18 8 18"/><path fill="none" stroke="#000000" stroke-width="2" stroke-linecap="round" stroke-linejoin="round" d="M 35 178 c 0.02 -0.12 0.28 -4.85 1 -7 c 1.54 -4.63 3.7 -9.32 6 -14 c 7.29 -14.85 14.24 -28.55 22 -43 c 2.09 -3.9 4.37 -7.67 7 -11 c 2.28 -2.89 5.16 -5.54 8 -8 c 2.16 -1.87 4.56 -3.85 7 -5 c 2.96 -1.39 6.66 -2.66 10 -3 c 9.28 -0.95 19.59 -1 29 -1 c 1.65 0 3.84 0.34 5 1 c 0.82 0.47 1.92 2.02 2 3 c 0.21 2.74 0.85 8.31 -1 10 c -7.2 6.57 -21.72 15.45 -33 21 c -8.49 4.17 -21.08 5.65 -28 9 c -1.58 0.76 -2.73 4.02 -3 6 c -0.64 4.73 -0.3 10.59 0 16 c 0.38 6.8 0.72 13.81 2 20 c 0.63 3.03 2.38 6.2 4 9 c 2.01 3.47 4.39 7.04 7 10 c 2.27 2.58 5.21 5.68 8 7 c 2.93 1.39 7.32 1.72 11 2 c 4.93 0.38 10.6 1.03 15 0 c 4.86 -1.13 10.34 -4.21 15 -7 c 5.23 -3.14 10.28 -6.98 15 -11 c 4.3 -3.66 8.15 -7.76 12 -12 c 2.91 -3.2 6.01 -6.51 8 -10 c 1.82 -3.19 3.35 -7.42 4 -11 c 0.61 -3.37 0.33 -7.39 0 -11 c -0.33 -3.67 -0.53 -8.2 -2 -11 c -1.49 -2.83 -5.16 -5.54 -8 -8 l -7 -5"/><path fill="none" stroke="#000000" stroke-width="2" stroke-linecap="round" stroke-linejoin="round" d="M 222 1 c -0.12 0.23 -3.91 9.38 -7 13 c -17.61 20.64 -38.29 41.14 -57 62 c -1.6 1.79 -3.3 4.07 -4 6 c -0.49 1.34 -0.83 4.06 0 5 c 3.18 3.6 11.55 7.56 15 12 c 2.9 3.73 4.88 10.04 6 15 c 1.11 4.92 1.23 11.19 1 16 c -0.08 1.62 -1.11 3.76 -2 5 c -0.59 0.83 -2.62 2.38 -3 2 c -0.9 -0.9 -3 -5.44 -3 -8 c 0 -9.63 0.74 -22.54 3 -32 c 1.13 -4.75 4.82 -10.03 8 -14 c 3.21 -4.01 7.71 -7.98 12 -11 c 4.48 -3.15 9.78 -5.98 15 -8 c 9.32 -3.6 19.42 -7.08 29 -9 c 6.63 -1.33 17.04 -2.21 21 -1 c 1.55 0.47 1.76 5.35 2 8 c 0.41 4.5 0.43 9.38 0 14 c -0.56 6.02 -1.58 11.94 -3 18 c -6.43 27.38 -12.55 53.41 -20 80 c -1.95 6.95 -8 20 -8 20"/><path fill="none" stroke="#000000" stroke-width="2" stroke-linecap="round" stroke-linejoin="round" d="M 192 97 c 0.07 0.03 2.67 1.93 4 2 c 10.43 0.53 31.39 -0.84 35 0 c 0.89 0.21 -3.03 4.96 -5 7 c -8.27 8.53 -18.18 16.9 -26 25 c -0.97 1 -2.45 4.04 -2 4 c 3.36 -0.33 30.43 -7.67 33 -7 c 1.25 0.33 -6.12 9.92 -10 13 c -5.08 4.03 -12.74 7 -19 10 c -1.2 0.58 -4.12 1.25 -4 1 c 0.36 -0.72 4.94 -6.49 8 -9 c 15.06 -12.33 30.47 -23.95 47 -36 c 24.25 -17.67 47.91 -32.49 71 -50 c 7.34 -5.56 19.6 -19.69 20 -19 c 0.44 0.77 -10.31 17.46 -16 26 c -2.39 3.58 -5.08 6.74 -8 10 c -9.04 10.07 -17.28 19.64 -27 29 c -17.54 16.88 -34.74 31.98 -53 48 c -3.83 3.36 -7.82 6.21 -12 9 c -2.87 1.91 -6.01 3.72 -9 5 c -1.48 0.63 -5.07 1.27 -5 1 c 0.1 -0.42 3.82 -3.61 6 -5 c 6.12 -3.92 12.42 -7.95 19 -11 c 7.02 -3.25 14.47 -6.12 22 -8 c 12.42 -3.11 25.65 -4.17 38 -7 c 3.44 -0.79 7.35 -2.37 10 -4 c 1.23 -0.76 2.66 -2.65 3 -4 c 0.54 -2.16 0.8 -5.8 0 -8 c -1.61 -4.43 -4.83 -9.68 -8 -14 c -7.82 -10.67 -16.85 -20.31 -25 -31 c -2.67 -3.5 -5.12 -7.24 -7 -11 c -1.37 -2.74 -2.63 -6.04 -3 -9 c -0.58 -4.68 -1.52 -12.11 0 -15 c 1.09 -2.07 6.76 -3.32 10 -4 c 2.71 -0.57 6.15 -0.36 9 0 c 2.3 0.29 5.75 0.64 7 2 c 2.08 2.25 4.38 7.4 5 11 c 0.93 5.37 0.14 11.78 0 18 c -0.2 8.64 -0.29 16.48 -1 25 c -1 12 -3.62 23.09 -4 35 c -1.31 41.25 -1.2 117.74 -1 122 c 0.03 0.66 4.37 -11.76 6 -18 c 4.5 -17.23 8.12 -33.41 12 -51 c 1.28 -5.79 2.08 -11.11 3 -17 c 0.81 -5.16 1.64 -9.94 2 -15 c 0.31 -4.35 0.85 -9.28 0 -13 c -0.67 -2.95 -2.82 -7.85 -5 -9 c -2.97 -1.57 -9.76 -1.73 -14 -1 c -6.68 1.15 -14.96 3.63 -21 7 c -7.59 4.24 -15.13 10.79 -22 17 c -7.16 6.48 -12.94 13.94 -20 21 c -6.37 6.37 -12.69 11.69 -19 18 c -3.25 3.25 -6.34 6.61 -9 10 c -0.88 1.13 -2.35 4.08 -2 4 c 1.7 -0.38 14.02 -4.34 20 -8 c 20.18 -12.36 39.43 -26.58 60 -41 l 27 -20"/><path fill="none" stroke="#000000" stroke-width="2" stroke-linecap="round" stroke-linejoin="round" d="M 311 10 l 1 7"/></svg>