<?xml version="1.0" encoding="UTF-8" standalone="no"?><!DOCTYPE svg PUBLIC "-//W3C//DTD SVG 1.1//EN" "http://www.w3.org/Graphics/SVG/1.1/DTD/svg11.dtd"><svg xmlns="http://www.w3.org/2000/svg" version="1.1" width="292" height="188"><path fill="none" stroke="#000000" stroke-width="2" stroke-linecap="round" stroke-linejoin="round" d="M 1 74 c 0.09 0 3.41 0.25 5 0 c 2.63 -0.4 5.38 -1.13 8 -2 c 3.42 -1.14 6.75 -2.38 10 -4 c 8.23 -4.11 15.91 -8.26 24 -13 c 11.85 -6.95 22.33 -14.62 34 -21 c 6.02 -3.29 16.92 -7.54 19 -8 c 0.42 -0.09 -0.23 3.06 -1 4 c -6.38 7.71 -15.31 16.16 -23 25 c -13.02 14.97 -25.9 28.54 -37 44 c -9.17 12.78 -23.58 40.29 -24 41 c -0.04 0.07 1.14 -2.81 2 -4 c 5.08 -7.05 10.09 -14.61 16 -21 c 6.34 -6.85 13.69 -12.5 21 -19 c 2.02 -1.79 3.86 -3.57 6 -5 c 2.82 -1.88 6.01 -3.72 9 -5 c 1.48 -0.63 3.47 -1 5 -1 c 1.24 0 3.26 0.26 4 1 c 1.2 1.2 2.64 3.94 3 6 c 2.16 12.4 4.24 29.12 5 40 c 0.07 0.97 -1.27 3.09 -2 3 c -3.21 -0.38 -10.11 -3.01 -15 -5 l -12 -6"/><path fill="none" stroke="#000000" stroke-width="2" stroke-linecap="round" stroke-linejoin="round" d="M 58 31 c 0.28 0.12 10.91 4.22 16 7 c 5.9 3.22 11.77 6.85 17 11 c 6.03 4.79 11.69 10.15 17 16 c 18.08 19.91 34.49 39.09 52 60 c 7.23 8.64 13.54 17.12 20 26 c 1.59 2.18 4 7 4 7"/><path fill="none" stroke="#000000" stroke-width="2" stroke-linecap="round" stroke-linejoin="round" d="M 142 79 c -0.1 0.12 -4.33 4.49 -6 7 c -2.27 3.41 -6 11 -6 11"/><path fill="none" stroke="#000000" stroke-width="2" stroke-linecap="round" stroke-linejoin="round" d="M 84 5 c 0.05 0.05 1.87 2.25 3 3 c 2.73 1.82 9 5 9 5"/><path fill="none" stroke="#000000" stroke-width="2" stroke-linecap="round" stroke-linejoin="round" d="M 39 125 c -0.02 0.09 -1.13 3.52 -1 5 c 0.17 1.84 1.05 4.15 2 6 c 3.99 7.71 8.31 15.97 13 23 c 1.76 2.63 7 7 7 7"/><path fill="none" stroke="#000000" stroke-width="2" stroke-linecap="round" stroke-linejoin="round" d="M 42 154 c 0.58 -0.38 21.62 -14.76 33 -22 c 3.6 -2.29 7.16 -4.15 11 -6 c 5.35 -2.58 10.53 -5.36 16 -7 c 7.68 -2.3 17.75 -4.55 24 -5 c 1.27 -0.09 3.03 1.87 4 3 c 0.87 1.01 2 2.74 2 4 c 0 3.7 -0.64 9.27 -2 13 c -1.11 3.06 -3.72 6.72 -6 9 l -7 4"/><path fill="none" stroke="#000000" stroke-width="2" stroke-linecap="round" stroke-linejoin="round" d="M 78 145 c -0.1 0.26 -4.3 9.91 -6 15 c -0.97 2.9 -2 9 -2 9"/><path fill="none" stroke="#000000" stroke-width="2" stroke-linecap="round" stroke-linejoin="round" d="M 106 131 c 0.02 0.21 1.34 8.3 1 12 c -0.29 3.21 -1.44 7.12 -3 10 c -2.57 4.74 -6.5 9.5 -10 14 c -1.15 1.48 -2.43 3.27 -4 4 c -11.69 5.44 -38.33 15.68 -39 16 c -0.26 0.13 10.64 -3.05 16 -5 c 5.88 -2.14 11.11 -5.11 17 -7 c 11.98 -3.84 23.97 -5.94 36 -10 c 17.22 -5.81 33.5 -12.34 50 -19 l 7 -4"/><path fill="none" stroke="#000000" stroke-width="2" stroke-linecap="round" stroke-linejoin="round" d="M 193 73 c 0.19 -0.21 6.93 -8.51 11 -12 c 7.5 -6.43 15.6 -12.21 24 -18 c 6.92 -4.76 14.87 -8.74 21 -13 c 0.89 -0.62 1.19 -2.19 2 -3 c 1.76 -1.76 4.42 -3.23 6 -5 l 2 -4"/><path fill="none" stroke="#000000" stroke-width="2" stroke-linecap="round" stroke-linejoin="round" d="M 224 1 c 0.07 0.37 2.88 13.84 4 21 c 0.58 3.7 0.34 7.36 1 11 c 1.35 7.44 2.77 14.76 5 22 c 3.15 10.25 7.97 19.78 11 30 c 2.32 7.84 3.04 15.82 5 24 c 1.82 7.61 6 22 6 22"/><path fill="none" stroke="#000000" stroke-width="2" stroke-linecap="round" stroke-linejoin="round" d="M 221 90 c -0.21 0.33 -8.6 12.35 -12 19 c -4.6 9.02 -8.23 18.44 -12 28 c -1.29 3.28 -3 10 -3 10"/><path fill="none" stroke="#000000" stroke-width="2" stroke-linecap="round" stroke-linejoin="round" d="M 253 67 c 0.05 0.04 2.49 1.11 3 2 c 1.83 3.21 3.09 8.18 5 12 c 1.06 2.12 4 6 4 6"/><path fill="none" stroke="#000000" stroke-width="2" stroke-linecap="round" stroke-linejoin="round" d="M 203 152 c 0 0.12 -0.31 4.72 0 7 c 0.68 4.97 1.38 10.51 3 15 c 1.23 3.42 3.86 7.43 6 10 c 0.82 0.99 2.86 2 4 2 c 1.38 0 3.92 -0.92 5 -2 c 2.16 -2.16 4.61 -5.85 6 -9 c 2.15 -4.88 3.71 -16.11 5 -16 c 1.42 0.12 4.68 13.72 7 17 c 0.63 0.89 3.65 0.54 5 0 c 3.14 -1.26 7.15 -3.72 10 -6 c 1.91 -1.53 3.18 -4.18 5 -6 c 1.82 -1.82 5.11 -2.99 6 -5 c 2.61 -5.88 4.21 -14.43 6 -22 c 1.28 -5.4 1.81 -16.65 3 -16 c 2.33 1.28 17 27 17 27"/></svg>