<?xml version="1.0" encoding="UTF-8" standalone="no"?><!DOCTYPE svg PUBLIC "-//W3C//DTD SVG 1.1//EN" "http://www.w3.org/Graphics/SVG/1.1/DTD/svg11.dtd"><svg xmlns="http://www.w3.org/2000/svg" version="1.1" width="317" height="181"><path fill="none" stroke="#000000" stroke-width="2" stroke-linecap="round" stroke-linejoin="round" d="M 108 1 c 0.07 0.82 4.78 39.82 4 47 c -0.15 1.38 -6.19 -0.17 -9 -1 c -8.25 -2.43 -16.62 -6.57 -25 -9 c -4.15 -1.2 -8.64 -1.6 -13 -2 c -2.98 -0.27 -6.15 -0.36 -9 0 c -2.3 0.29 -4.97 0.98 -7 2 c -2.4 1.2 -5.09 3.09 -7 5 c -1.91 1.91 -3.42 4.55 -5 7 c -1.48 2.3 -3.1 4.61 -4 7 c -1.02 2.73 -1.79 6.26 -2 9 c -0.09 1.23 0.31 3.54 1 4 c 0.84 0.56 3.41 0.28 5 0 c 3.93 -0.69 8.19 -1.59 12 -3 c 5.1 -1.89 9.8 -5.36 15 -7 c 12.65 -3.98 25.52 -6.8 39 -10 c 6.83 -1.62 13.13 -2.89 20 -4 c 5.76 -0.93 11.24 -1.67 17 -2 c 6.06 -0.35 12.1 -0.26 18 0 c 1.67 0.07 3.54 0.45 5 1 c 1.03 0.39 2.33 1.19 3 2 c 0.84 1 1.71 2.7 2 4 c 0.32 1.46 0.63 4.24 0 5 c -0.64 0.77 -3.34 1 -5 1 c -13.34 0 -27.38 -1.43 -41 -1 c -7.37 0.23 -14.76 1.43 -22 3 c -8.15 1.77 -16.17 4.1 -24 7 c -7.57 2.8 -14.71 6.26 -22 10 c -6.63 3.39 -12.59 7.01 -19 11 c -9.07 5.64 -17.51 11.01 -26 17 c -2.9 2.05 -8.37 6.94 -8 7 c 0.53 0.09 9.15 -4.24 14 -6 c 6.35 -2.31 12.87 -4.58 19 -6 c 2.15 -0.5 4.97 -0.47 7 0 c 1.95 0.45 4.58 1.58 6 3 c 3.16 3.16 7.1 7.8 9 12 c 2.48 5.5 3.85 12.57 5 19 c 1.18 6.58 1.56 13.12 2 20 l 1 27"/><path fill="none" stroke="#000000" stroke-width="2" stroke-linecap="round" stroke-linejoin="round" d="M 113 62 c 0.23 -0.11 9.14 -4.93 13 -6 c 1.37 -0.38 4.28 0.04 5 1 c 1.66 2.21 3.46 7.56 4 11 c 0.37 2.37 -0.18 5.66 -1 8 c -1.05 2.98 -2.84 6.72 -5 9 c -3.44 3.63 -12.82 9.78 -13 10 c -0.11 0.14 5.88 -3.66 9 -5 c 3.83 -1.64 8.76 -4 12 -4 c 2.07 0 6 2.19 7 4 c 1.78 3.21 2.79 9.38 3 14 c 0.44 10 -0.25 20.74 -1 31 c -0.25 3.37 -1.59 6.68 -2 10 c -0.24 1.95 0.35 4.24 0 6 c -0.26 1.31 -1.67 4.41 -2 4 c -3.06 -3.8 -18.24 -25.48 -23 -35 c -0.83 -1.66 0.78 -5.51 2 -7 c 1.35 -1.65 4.61 -2.97 7 -4 c 2.16 -0.93 4.71 -1.62 7 -2 c 1.57 -0.26 4.48 -0.52 5 0 c 0.43 0.43 -0.33 2.93 -1 4 c -2.43 3.89 -8.53 9.51 -9 12 c -0.22 1.2 3.99 3.09 6 4 c 1.42 0.65 4.29 0.17 5 1 c 0.85 0.99 1.75 4.72 1 6 c -1.93 3.27 -7.03 7.79 -11 11 c -4.6 3.72 -9.73 6.78 -15 10 c -7.07 4.32 -19.48 10.48 -21 12 c -0.46 0.46 4.61 1.67 7 2 c 11.89 1.66 23.42 2.63 36 4 c 6.64 0.72 12.55 1.6 19 2 c 4.39 0.27 8.87 0.52 13 0 c 3.62 -0.45 7.51 -1.67 11 -3 c 3.43 -1.31 7.23 -2.84 10 -5 l 13 -13"/><path fill="none" stroke="#000000" stroke-width="2" stroke-linecap="round" stroke-linejoin="round" d="M 165 116 c 0.09 -0.12 3.12 -4.85 5 -7 c 2.78 -3.18 5.75 -6.14 9 -9 c 7.98 -7.01 15.96 -12.91 24 -20 c 6.37 -5.61 12.14 -10.96 18 -17 c 5.37 -5.53 10.36 -10.99 15 -17 c 4.43 -5.74 8.51 -12.01 12 -18 c 1.02 -1.75 2.28 -4.59 2 -6 c -0.25 -1.26 -2.77 -4.08 -4 -4 c -2.84 0.18 -8.72 2.61 -12 5 c -7.15 5.2 -14.85 12.25 -21 19 c -3.92 4.3 -7.4 10.02 -10 15 c -1.19 2.28 -2.17 6.25 -2 8 c 0.08 0.76 2.6 1.13 3 2 c 1.01 2.22 2.27 6.24 2 9 c -0.65 6.75 -3.98 15.36 -5 22 c -0.19 1.21 0.31 3.08 1 4 c 1.07 1.42 3.18 3.09 5 4 c 5.23 2.62 11.61 4.3 17 7 c 3.17 1.59 6.66 3.87 9 6 c 0.97 0.88 1.93 2.7 2 4 c 0.23 4.67 0.6 11.99 -1 16 c -1.27 3.18 -5.8 6.16 -9 9 c -2.86 2.55 -5.84 4.89 -9 7 c -2.85 1.9 -5.95 3.93 -9 5 c -3.31 1.16 -11.32 1.86 -11 2 c 0.57 0.25 13.19 1.76 20 2 c 12.53 0.44 24.4 0.52 37 0 c 12.3 -0.51 23.85 -2.61 36 -3 l 27 1"/><path fill="none" stroke="#000000" stroke-width="2" stroke-linecap="round" stroke-linejoin="round" d="M 249 47 c 0.28 -0.07 10.99 -3.64 16 -4 c 3.69 -0.26 8.75 0.52 12 2 c 3.42 1.55 8.17 5.18 10 8 c 1.29 2 1.56 6.41 1 9 c -0.95 4.35 -3.28 10.19 -6 14 c -3.54 4.96 -8.92 9.76 -14 14 c -8.99 7.49 -18.57 14.34 -28 21 c -1.81 1.28 -6.31 2.61 -6 3 c 0.47 0.59 7.07 2.6 10 2 c 10.26 -2.1 22.8 -8.2 34 -11 c 4.4 -1.1 11.33 -2.4 14 -1 c 2.29 1.21 4.46 7.48 5 11 c 0.67 4.38 0.44 11.01 -1 15 c -1.22 3.4 -4.98 7.44 -8 10 c -3.27 2.78 -7.97 5.42 -12 7 c -3.24 1.27 -7.98 2.45 -11 2 c -2.78 -0.42 -7.2 -2.75 -9 -5 c -2.9 -3.62 -6.15 -10.18 -7 -15 c -0.98 -5.54 0.16 -12.9 1 -19 l 3 -10"/></svg>