<?xml version="1.0" encoding="UTF-8" standalone="no"?><!DOCTYPE svg PUBLIC "-//W3C//DTD SVG 1.1//EN" "http://www.w3.org/Graphics/SVG/1.1/DTD/svg11.dtd"><svg xmlns="http://www.w3.org/2000/svg" version="1.1" width="312" height="293"><path fill="none" stroke="#000000" stroke-width="2" stroke-linecap="round" stroke-linejoin="round" d="M 55 44 l 21 17"/><path fill="none" stroke="#000000" stroke-width="2" stroke-linecap="round" stroke-linejoin="round" d="M 1 137 c 0.05 -0.07 1.67 -3.42 3 -4 c 31.96 -14.02 76.8 -32.44 111 -46 c 1.42 -0.56 4.66 -0.81 5 0 c 0.81 1.94 1.17 8.7 0 12 c -2.14 6.03 -6.56 13.35 -11 19 c -10.03 12.76 -21.83 26.08 -33 37 c -3.13 3.06 -7.91 5.14 -12 7 c -3.08 1.4 -6.85 2.65 -10 3 c -2.43 0.27 -6.6 0.29 -8 -1 c -2.1 -1.94 -4.24 -7.35 -5 -11 c -1.13 -5.45 -1.61 -12.88 -1 -18 c 0.27 -2.29 2.22 -5.89 4 -7 c 2.73 -1.71 8.03 -2.56 12 -3 c 4.81 -0.53 9.98 -0.33 15 0 c 5.06 0.34 10.47 0.6 15 2 c 4.68 1.45 9.21 5.25 14 7 c 5.04 1.85 11.43 3.8 16 4 c 2.11 0.09 6.58 -1.38 7 -3 c 1.33 -5.11 -0.66 -18.27 0 -24 c 0.1 -0.86 2.65 -2.48 3 -2 c 2.65 3.64 8.4 16.33 13 24 c 1.32 2.2 3.24 4.77 5 6 c 1.15 0.8 4.9 1.77 5 1 c 0.78 -6.07 -0.73 -27.03 0 -40 c 0.24 -4.33 2.36 -8.72 3 -13 c 0.34 -2.25 -0.18 -7.24 0 -7 c 0.41 0.55 4.8 9.94 6 15 c 1.72 7.27 2.15 15.05 3 23 c 0.88 8.26 1.56 15.69 2 24 c 1.64 31.1 3.22 88.63 4 90 c 0.72 1.26 -0.93 -54.94 0 -83 c 0.43 -12.92 2.07 -25.17 4 -38 c 1.81 -11.99 4.23 -23.13 7 -35 c 2.02 -8.64 4.23 -16.7 7 -25 c 1.96 -5.88 4.27 -11.75 7 -17 c 1.48 -2.86 3.8 -5.62 6 -8 c 1.72 -1.86 3.97 -3.98 6 -5 c 1.58 -0.79 4.95 -1.76 6 -1 c 1.77 1.29 4.8 6.17 5 9 c 0.38 5.3 -1.19 13.11 -3 19 c -2.07 6.71 -6.46 13.22 -9 20 c -1.43 3.82 -2.5 8.04 -3 12 c -0.48 3.84 -0.76 9.14 0 12 c 0.32 1.19 2.87 1.87 4 3 c 1.13 1.13 2.32 2.63 3 4 c 0.56 1.13 1.56 3.65 1 4 c -1.23 0.77 -9.16 0.97 -9 1 c 0.26 0.04 10.17 -0.25 15 0 c 1.33 0.07 3.63 0.25 4 1 c 0.63 1.27 1.02 5.56 0 7 c -2.27 3.22 -7.69 7.34 -12 10 c -6.79 4.19 -20.46 9.67 -22 11 c -0.45 0.39 4.69 1.74 7 2 c 3.49 0.39 8.68 -1.08 11 0 c 1.7 0.79 3.53 4.64 4 7 c 1.05 5.27 0.93 17.56 1 18 c 0.02 0.15 0.32 -4.24 1 -6 c 0.9 -2.34 2.32 -4.98 4 -7 c 8.14 -9.77 18.46 -18.87 26 -29 c 4.85 -6.51 8.66 -14.25 12 -22 c 12.51 -29.02 23.37 -57.33 35 -87 c 1.29 -3.3 3.08 -10.17 3 -10 c -0.22 0.46 -6.45 18.37 -11 27 c -11.54 21.89 -34.77 57.92 -37 64 c -0.47 1.28 10.26 -2.17 15 -4 c 5.46 -2.11 14.89 -8.22 16 -8 c 0.72 0.14 -3.74 6.99 -6 10 c -1.64 2.19 -4.33 3.92 -6 6 c -0.88 1.1 -2.39 3.32 -2 4 c 0.58 1.02 4.09 3.05 6 3 c 9.17 -0.24 28.17 -4.13 32 -4 c 0.64 0.02 -0.78 4.06 -2 5 c -14.12 10.92 -51.35 32.89 -51 36 c 0.3 2.72 52.08 -9.19 54 -9 c 0.91 0.09 -22.43 11.76 -23 12 c -0.17 0.07 4.67 -3.07 6 -5 c 2.05 -2.99 4.11 -7.3 5 -11 c 1.34 -5.54 1.83 -12 2 -18 c 0.17 -5.97 0.78 -13.07 -1 -18 c -2.14 -5.91 -8.03 -12.7 -12 -18 c -0.66 -0.88 -3.09 -2.18 -3 -2 c 1.37 2.85 19.39 33.02 26 50 c 5.44 13.96 8.55 29.79 11 45 c 2.55 15.81 3.48 31.6 4 48 l 0 78"/></svg>