<?xml version="1.0" encoding="UTF-8" standalone="no"?><!DOCTYPE svg PUBLIC "-//W3C//DTD SVG 1.1//EN" "http://www.w3.org/Graphics/SVG/1.1/DTD/svg11.dtd"><svg xmlns="http://www.w3.org/2000/svg" version="1.1" width="272" height="186"><path fill="none" stroke="#000000" stroke-width="2" stroke-linecap="round" stroke-linejoin="round" d="M 1 64 c 0.28 -0.16 10.35 -6.48 16 -9 c 22.35 -9.96 67 -28 67 -28"/><path fill="none" stroke="#000000" stroke-width="2" stroke-linecap="round" stroke-linejoin="round" d="M 33 61 c -0.02 0.44 -0.01 16.87 -1 25 c -0.65 5.36 -2.34 10.62 -4 16 c -4.15 13.41 -8.29 25.91 -13 39 c -1.38 3.85 -5 11 -5 11"/><path fill="none" stroke="#000000" stroke-width="2" stroke-linecap="round" stroke-linejoin="round" d="M 28 118 c 0.19 -0.4 6.8 -15.81 11 -23 c 2.7 -4.63 6.33 -9.33 10 -13 c 2.73 -2.73 6.62 -5.1 10 -7 c 1.75 -0.99 4.19 -1.82 6 -2 c 1.18 -0.12 2.96 0.41 4 1 c 1.07 0.61 2.39 1.93 3 3 c 0.59 1.04 1 2.7 1 4 c 0 4.1 -0.32 8.74 -1 13 c -0.65 4.05 -1.62 8.21 -3 12 c -1.24 3.42 -3.05 6.85 -5 10 c -2.37 3.83 -5.27 7.78 -8 11 c -0.72 0.85 -2.38 2.12 -3 2 l -2 -3"/><path fill="none" stroke="#000000" stroke-width="2" stroke-linecap="round" stroke-linejoin="round" d="M 34 26 c 0.46 0.3 17.7 10.7 26 17 c 9.86 7.48 19.19 15.36 28 24 c 8.29 8.13 15.47 16.92 23 26 c 4.03 4.87 8.04 9.66 11 15 c 5.28 9.5 12.26 27.17 14 30 l 2 -4"/><path fill="none" stroke="#000000" stroke-width="2" stroke-linecap="round" stroke-linejoin="round" d="M 123 63 l -34 55"/><path fill="none" stroke="#000000" stroke-width="2" stroke-linecap="round" stroke-linejoin="round" d="M 67 1 c 0.02 0.12 0.19 4.93 1 7 c 2.05 5.23 8 16 8 16"/><path fill="none" stroke="#000000" stroke-width="2" stroke-linecap="round" stroke-linejoin="round" d="M 58 127 l -7 6"/><path fill="none" stroke="#000000" stroke-width="2" stroke-linecap="round" stroke-linejoin="round" d="M 29 128 c 0.05 0.4 1.62 15.25 3 23 c 1.34 7.54 5 22 5 22"/><path fill="none" stroke="#000000" stroke-width="2" stroke-linecap="round" stroke-linejoin="round" d="M 45 137 c 0.44 -0.21 16.48 -8.63 25 -12 c 5.74 -2.27 12.04 -3.09 18 -5 c 2.43 -0.78 4.63 -2.48 7 -3 c 5.02 -1.09 11.26 -2 16 -2 c 1.58 0 4.01 1.01 5 2 c 0.99 0.99 2.1 3.52 2 5 c -0.19 2.87 -1.41 7.19 -3 10 c -2.5 4.42 -6.28 9.79 -10 13 c -3.04 2.63 -12 6 -12 6"/><path fill="none" stroke="#000000" stroke-width="2" stroke-linecap="round" stroke-linejoin="round" d="M 61 153 c 0.02 0.07 1.08 2.75 1 4 c -0.23 3.69 -0.92 8.55 -2 12 c -0.44 1.42 -3 4 -3 4"/><path fill="none" stroke="#000000" stroke-width="2" stroke-linecap="round" stroke-linejoin="round" d="M 99 129 c -0.05 0.16 -1.56 6.25 -3 9 c -5.79 11.05 -19 33 -19 33"/><path fill="none" stroke="#000000" stroke-width="2" stroke-linecap="round" stroke-linejoin="round" d="M 29 182 c 0.19 -0.04 7.35 -1.02 11 -2 c 13.96 -3.76 27.04 -8.24 41 -12 c 3.65 -0.98 7.31 -1.06 11 -2 c 13.67 -3.49 26.23 -7.56 40 -11 c 6.77 -1.69 20 -4 20 -4"/><path fill="none" stroke="#000000" stroke-width="2" stroke-linecap="round" stroke-linejoin="round" d="M 174 75 c 0.21 -0.07 7.98 -2.4 12 -4 c 15.83 -6.28 31.29 -12.34 46 -19 c 2.54 -1.15 5.01 -3.23 7 -5 l 2 -3"/><path fill="none" stroke="#000000" stroke-width="2" stroke-linecap="round" stroke-linejoin="round" d="M 211 17 c 0.05 0.6 2.62 22.39 3 34 c 0.64 19.72 -0.25 37.98 0 58 c 0.1 7.95 0.44 15.48 1 23 c 0.1 1.35 1 4 1 4"/><path fill="none" stroke="#000000" stroke-width="2" stroke-linecap="round" stroke-linejoin="round" d="M 184 93 c -0.1 0.28 -3.68 10.67 -6 16 c -3.47 7.95 -6.79 15.63 -11 23 c -3.8 6.65 -8.45 12.93 -13 19 c -1.4 1.86 -3.22 3.87 -5 5 c -1.59 1.01 -6 2 -6 2"/><path fill="none" stroke="#000000" stroke-width="2" stroke-linecap="round" stroke-linejoin="round" d="M 248 82 c 0.03 0.35 1.03 13.44 2 20 c 0.35 2.38 0.93 4.99 2 7 c 1.79 3.38 4.57 7.35 7 10 c 0.89 0.97 2.69 1.74 4 2 c 1.76 0.35 6 0 6 0"/><path fill="none" stroke="#000000" stroke-width="2" stroke-linecap="round" stroke-linejoin="round" d="M 181 142 c 0.14 0.75 6.23 36.96 8 43 c 0.18 0.62 4 -2 4 -2"/><path fill="none" stroke="#000000" stroke-width="2" stroke-linecap="round" stroke-linejoin="round" d="M 216 151 l 1 22"/><path fill="none" stroke="#000000" stroke-width="2" stroke-linecap="round" stroke-linejoin="round" d="M 242 140 l 2 26"/><path fill="none" stroke="#000000" stroke-width="2" stroke-linecap="round" stroke-linejoin="round" d="M 261 133 c 0.07 0.14 2.91 5.26 4 8 c 0.89 2.23 1.79 4.66 2 7 c 0.77 8.7 0.07 18.36 1 27 c 0.36 3.34 3 10 3 10"/></svg>