<?xml version="1.0" encoding="UTF-8" standalone="no"?><!DOCTYPE svg PUBLIC "-//W3C//DTD SVG 1.1//EN" "http://www.w3.org/Graphics/SVG/1.1/DTD/svg11.dtd"><svg xmlns="http://www.w3.org/2000/svg" version="1.1" width="682" height="199"><path fill="none" stroke="#000000" stroke-width="2" stroke-linecap="round" stroke-linejoin="round" d="M 118 1 l 20 24"/><path fill="none" stroke="#000000" stroke-width="2" stroke-linecap="round" stroke-linejoin="round" d="M 37 99 c 0.63 -0.1 36.79 -5.96 36 -6 c -8.36 -0.4 -366.47 -8.79 -388 -11 c -2.93 -0.3 31 -17.14 47 -24 c 9.5 -4.07 27.67 -9.1 30 -9 c 0.91 0.04 -4.19 7.19 -7 10 c -10.59 10.59 -22.05 21.2 -34 31 c -8.58 7.03 -17.77 13.01 -27 19 c -3.13 2.03 -10 5 -10 5"/><path fill="none" stroke="#000000" stroke-width="2" stroke-linecap="round" stroke-linejoin="round" d="M 46 100 c 0.18 0.02 6.82 0.18 10 1 c 8.3 2.13 16.83 4.77 25 8 c 7.94 3.14 15.71 7.09 23 11 c 1.83 0.98 3.22 2.9 5 4 c 2.49 1.53 8 4 8 4"/><path fill="none" stroke="#000000" stroke-width="2" stroke-linecap="round" stroke-linejoin="round" d="M 141 83 c 0 0.26 -0.21 9.94 0 15 c 0.13 3.06 0.39 6.17 1 9 c 0.36 1.68 2 5 2 5"/><path fill="none" stroke="#000000" stroke-width="2" stroke-linecap="round" stroke-linejoin="round" d="M 186 33 c 0.04 0.16 1.91 6 2 9 c 0.56 17.9 0.67 36.19 0 55 c -0.7 19.54 -3.17 37.46 -4 57 c -0.54 12.65 0 37 0 37"/><path fill="none" stroke="#000000" stroke-width="2" stroke-linecap="round" stroke-linejoin="round" d="M 229 39 c 0.47 -0.04 19.05 0.37 27 -2 c 9.85 -2.94 20.72 -9.39 30 -15 c 4.71 -2.85 13 -11 13 -11"/><path fill="none" stroke="#000000" stroke-width="2" stroke-linecap="round" stroke-linejoin="round" d="M 276 1 c -0.07 0.24 -3.66 9.32 -4 14 c -1.6 22.18 -2 69 -2 69"/><path fill="none" stroke="#000000" stroke-width="2" stroke-linecap="round" stroke-linejoin="round" d="M 234 70 c 0.93 -0.42 34.73 -16.13 53 -24 c 6.36 -2.74 19 -7 19 -7"/><path fill="none" stroke="#000000" stroke-width="2" stroke-linecap="round" stroke-linejoin="round" d="M 214 100 c 1.17 -0.56 44.21 -21.81 67 -32 c 5.82 -2.6 18 -6 18 -6"/><path fill="none" stroke="#000000" stroke-width="2" stroke-linecap="round" stroke-linejoin="round" d="M 253 94 c -0.05 0.19 -2.82 7.35 -3 11 c -0.79 16.32 0.3 34.27 0 51 c -0.03 1.67 -1 5 -1 5"/><path fill="none" stroke="#000000" stroke-width="2" stroke-linecap="round" stroke-linejoin="round" d="M 265 91 c 0.07 -0.02 2.75 -1 4 -1 c 1.85 0 4.5 0.18 6 1 c 1.74 0.95 3.95 3.17 5 5 c 1.4 2.46 2.4 5.98 3 9 c 0.7 3.51 1 7.29 1 11 c 0 9.75 -1 29 -1 29"/><path fill="none" stroke="#000000" stroke-width="2" stroke-linecap="round" stroke-linejoin="round" d="M 254 119 c 0.16 -0.12 5.93 -5.54 9 -7 c 2.75 -1.3 6.8 -1.06 10 -2 c 2.39 -0.7 7 -3 7 -3"/><path fill="none" stroke="#000000" stroke-width="2" stroke-linecap="round" stroke-linejoin="round" d="M 262 118 c -0.11 0.07 -6.33 3.67 -6 4 c 0.46 0.46 7.15 0.88 10 0 c 5.1 -1.57 11.41 -4.66 16 -8 c 5.99 -4.36 17 -16 17 -16"/><path fill="none" stroke="#000000" stroke-width="2" stroke-linecap="round" stroke-linejoin="round" d="M 331 16 c -0.33 0.42 -16.98 19.81 -19 24 c -0.44 0.92 4 2.88 6 3 c 13.7 0.79 45.69 -3.19 46 0 c 0.36 3.67 -39.43 27.53 -43 31 c -0.62 0.6 6.01 1.73 9 2 c 4.22 0.38 11.67 -0.67 13 0 c 0.6 0.3 -1.66 3.78 -3 5 c -5.87 5.36 -13.88 10.72 -20 16 c -0.86 0.74 -2.41 2.79 -2 3 c 1.39 0.7 7.98 1.71 12 2 c 5.29 0.38 15.66 -1.02 16 0 c 0.34 1.01 -8.84 5.71 -13 9 c -3.91 3.09 -11 8.34 -11 10 c 0 1.28 7.86 3 11 3 c 2.1 0 5.31 -1.59 7 -3 c 1.91 -1.59 4.19 -4.72 5 -7 c 0.66 -1.85 0.37 -4.95 0 -7 c -0.24 -1.31 -1.18 -2.86 -2 -4 c -0.77 -1.08 -2.76 -3.39 -3 -3 c -0.64 1.02 -1.91 7.31 -2 11 c -0.57 23.42 0.28 46.65 0 71 l -1 16"/></svg>