<?xml version="1.0" encoding="UTF-8" standalone="no"?><!DOCTYPE svg PUBLIC "-//W3C//DTD SVG 1.1//EN" "http://www.w3.org/Graphics/SVG/1.1/DTD/svg11.dtd"><svg xmlns="http://www.w3.org/2000/svg" version="1.1" width="267" height="230"><path fill="none" stroke="#000000" stroke-width="2" stroke-linecap="round" stroke-linejoin="round" d="M 26 18 l 13 15"/><path fill="none" stroke="#000000" stroke-width="2" stroke-linecap="round" stroke-linejoin="round" d="M 1 76 c 0.23 -0.09 8.69 -4.01 13 -5 c 4.04 -0.93 8.59 -0.4 13 -1 c 13 -1.78 25.09 -4.47 38 -6 c 7.05 -0.84 15.14 -1.24 21 -1 c 1.01 0.04 3.06 1.28 3 2 c -0.18 2.35 -2.07 7.92 -4 11 c -2.8 4.49 -7.06 8.74 -11 13 c -4.58 4.95 -8.92 9.65 -14 14 c -11.49 9.85 -28.61 26.51 -35 28 c -2.81 0.65 -6.59 -12.19 -8 -18 c -1.07 -4.42 -1.29 -12.25 0 -15 c 0.71 -1.51 5.34 -1.83 8 -2 c 7.73 -0.48 16.09 -0.45 24 0 c 3.68 0.21 7.67 0.74 11 2 c 5.99 2.27 12.43 5.66 18 9 c 2.55 1.53 4.59 4.25 7 6 c 1.17 0.85 3.26 2.49 4 2 c 2.12 -1.41 5.14 -7.14 8 -10 c 1.61 -1.61 4.44 -2.44 6 -4 l 4 -6"/><path fill="none" stroke="#000000" stroke-width="2" stroke-linecap="round" stroke-linejoin="round" d="M 117 59 c 0.05 -0.05 2.9 -3.42 3 -3 c 0.88 3.72 2.6 24.47 5 37 c 7.17 37.39 16.25 72.29 23 109 c 1.64 8.92 2 27 2 27"/><path fill="none" stroke="#000000" stroke-width="2" stroke-linecap="round" stroke-linejoin="round" d="M 159 48 c 0.02 -0.09 0.14 -3.88 1 -5 c 2.04 -2.65 6.25 -5.09 9 -8 c 3.25 -3.43 9 -11 9 -11"/><path fill="none" stroke="#000000" stroke-width="2" stroke-linecap="round" stroke-linejoin="round" d="M 179 1 c -0.03 0.09 -1.78 3.36 -2 5 c -0.41 3.05 0.72 6.89 0 10 c -3.45 14.87 -8.28 31 -13 46 c -0.88 2.81 -2.43 5.84 -4 8 c -0.88 1.21 -2.68 2.56 -4 3 c -1.32 0.44 -5.12 0.42 -5 0 c 0.24 -0.83 4.46 -5.06 7 -7 c 2.99 -2.29 6.52 -4.26 10 -6 c 3.88 -1.94 7.88 -3.57 12 -5 c 3.61 -1.26 9.62 -3.28 11 -3 c 0.62 0.12 -0.05 3.88 -1 5 c -8.68 10.26 -32.11 31.71 -32 34 c 0.08 1.74 21.89 -9.03 33 -13 c 2.89 -1.03 8.72 -2.83 9 -2 c 0.38 1.13 -3.38 8.09 -6 11 c -5.92 6.58 -21.59 16.76 -21 19 c 0.54 2.06 25.55 0 26 0 c 0.09 0 -4.2 0.69 -5 0 c -1.01 -0.87 -2 -4.17 -2 -6 c 0 -2.67 0.76 -6.3 2 -9 c 8.15 -17.7 18 -35.28 27 -54 c 3.74 -7.78 9.39 -22.03 10 -23 c 0.17 -0.27 0.57 4.9 0 7 c -1.64 6.07 -5.3 12.94 -7 19 c -0.5 1.8 -0.74 5.26 0 6 c 0.74 0.74 5.59 -0.9 6 0 c 0.75 1.66 0.42 8.16 -1 11 c -2.75 5.5 -12.76 15.04 -13 17 c -0.13 1.01 7.74 0.09 11 -1 c 6.2 -2.07 18.9 -9.5 19 -9 c 0.11 0.54 -12.12 8.96 -18 14 c -6.02 5.16 -11.87 10.3 -17 16 c -3.78 4.2 -10.24 12.82 -10 14 c 0.17 0.87 8.4 -2.13 12 -4 c 5.13 -2.66 10.02 -6.35 15 -10 c 10.44 -7.66 20.81 -15.53 30 -23 c 0.88 -0.71 2 -2.21 2 -3 c 0 -0.79 -1.15 -2.82 -2 -3 c -2.82 -0.6 -8.91 -0.62 -12 0 c -1.09 0.22 -2.73 1.92 -3 3 c -0.57 2.29 -0.56 6.21 0 9 c 1.04 5.2 3.66 10.49 5 16 c 2.04 8.38 3.7 16.35 5 25 c 4.88 32.54 13 95 13 95"/></svg>